<?xml version="1.0" encoding="UTF-8" standalone="no"?>
<!-- Created with Inkscape (http://www.inkscape.org/) -->

<svg
   width="64"
   height="64"
   viewBox="0 0 16.9333328724 16.9333331267"
   version="1.1"
   id="svg2117"
   inkscape:version="1.3.2 (091e20ef0f, 2023-11-25, custom)"
   sodipodi:docname="hotspot.svg"
   xmlns:inkscape="http://www.inkscape.org/namespaces/inkscape"
   xmlns:sodipodi="http://sodipodi.sourceforge.net/DTD/sodipodi-0.dtd"
   xmlns="http://www.w3.org/2000/svg"
   xmlns:svg="http://www.w3.org/2000/svg"
   xmlns:rdf="http://www.w3.org/1999/02/22-rdf-syntax-ns#">
  <sodipodi:namedview
     id="namedview1"
     pagecolor="#505050"
     bordercolor="#ffffff"
     borderopacity="1"
     inkscape:showpageshadow="0"
     inkscape:pageopacity="0"
     inkscape:pagecheckerboard="1"
     inkscape:deskcolor="#d1d1d1"
     inkscape:zoom="11.546875"
     inkscape:cx="31.956698"
     inkscape:cy="31.956698"
     inkscape:window-width="2560"
     inkscape:window-height="1388"
     inkscape:window-x="2560"
     inkscape:window-y="28"
     inkscape:window-maximized="1"
     inkscape:current-layer="layer1" />
  <defs
     id="defs2111">
    <style
       id="current-color-scheme"
       type="text/css">.ColorScheme-Text { color: #fcfcfc; } </style>
  </defs>
  <namedview
     id="base"
     pagecolor="#ffffff"
     bordercolor="#666666"
     borderopacity="1.0"
     inkscape:pageopacity="0.0"
     inkscape:pageshadow="2"
     inkscape:zoom="15.9999999662"
     inkscape:cx="30.5620182344"
     inkscape:cy="26.1002745056"
     inkscape:document-units="mm"
     inkscape:current-layer="layer1"
     showgrid="true"
     fit-margin-top="0"
     fit-margin-left="0"
     fit-margin-right="0"
     fit-margin-bottom="0"
     units="px"
     inkscape:window-width="1920"
     inkscape:window-height="1080"
     inkscape:window-x="324"
     inkscape:window-y="246"
     inkscape:window-maximized="0"
     width="22px"
     inkscape:snap-global="false">
    <grid
       type="xygrid"
       id="grid2133" />
  </namedview>
  <metadata
     id="metadata2114">
    <RDF>
      <Work
         rdf:about="">
        <format>image/svg+xml</format>
        <type
           rdf:resource="http://purl.org/dc/dcmitype/StillImage" />
        <title />
      </Work>
    </RDF>
  </metadata>
  <g
     inkscape:label="Layer 1"
     inkscape:groupmode="layer"
     id="layer1"
     transform="translate(-63.7191734314,-130.173964289)">
    <path
       style="opacity:1;fill:#4d4d4d;fill-opacity:1;fill-rule:nonzero;stroke:none;stroke-width:0.0381715037;stroke-linecap:round;stroke-linejoin:round;stroke-miterlimit:4;stroke-dasharray:none;stroke-dashoffset:0;stroke-opacity:1"
       d="M 72.4641150991,133.858239891 C 72.3202149444,133.957008683 72.1865312889,134.060727711 72.0616997343,134.168395021 72.0616283663,134.168486049 72.0615089811,134.1685661 72.0614376339,134.168657123 V 134.168744492 L 72.0607386856,134.169443431 71.5765472132,134.669535816 71.0574960454,135.530281828 70.7418367508,136.475774453 70.6240651658,137.513614678 C 70.6085191189,138.035275768 70.6627407761,138.553606769 70.7754732904,139.036607418 L 70.776084865,139.042897889 H 70.7770459067 C 70.8849163836,139.502649661 70.9053973849,139.719755467 71.1108985635,140.086754132 73.4416182003,139.678199814 74.9863352021,141.479636617 74.4652445276,143.424373485 74.1903458682,144.450309212 73.3438654491,144.94439202 72.5321744934,145.129714156 71.3882342277,145.328623725 70.4237134798,144.711138922 70.1915079613,143.844536137 70.146172489,143.558749568 70.2167234927,143.174639523 70.3801346991,143.077710343 70.2857730759,143.110537283 70.1708926983,143.14839917 70.0332851567,143.278131715 69.8015448904,143.496609971 69.7958520522,143.573799697 69.4929162873,143.658617796 69.6411728662,143.240807554 68.8273390863,142.901137911 68.9743491374,142.004907878 68.9777513556,141.984166614 68.9375717296,142.176503243 68.9407527875,142.155195409 68.5821928503,144.135571268 70.6106684692,146.364870834 72.8612884004,145.761819048 74.3861678626,145.381203615 75.295164857,144.261522703 75.5957209001,142.997681584 75.7692823459,142.267854032 75.7156349169,141.515275535 75.5579780791,140.883646741 75.4295654286,140.369180438 75.1672971147,139.826393072 74.7727177009,139.327978503 74.6463001609,139.168293673 74.5145135306,139.022118682 74.3800875153,138.886160339 L 74.3770296494,138.881704586 74.3655844867,138.871744678 C 74.0629847855,138.567783052 73.7492394934,138.316591645 73.4486610693,138.078970689 L 72.558297418,137.308999656 C 72.5417122008,137.291374268 72.5251245882,137.273765174 72.5090220675,137.25588013 L 72.2318045356,136.890421283 C 72.2097612162,136.854848918 72.1889400821,136.818399607 72.1688998319,136.781386464 L 71.9565964538,136.173307678 71.8811108191,135.336675133 71.984641476,134.628822498 C 71.9891546319,134.613617978 71.9939639781,134.598615796 71.9987950304,134.583566057 Z"
       id="path1795"
       inkscape:connector-curvature="0" />
    <path
       style="opacity:1;fill:#4d4d4d;fill-opacity:1;fill-rule:nonzero;stroke:none;stroke-width:0.0381715037;stroke-linecap:round;stroke-linejoin:round;stroke-miterlimit:4;stroke-dasharray:none;stroke-dashoffset:0;stroke-opacity:1"
       d="M 73.1384635531,134.894357754 C 73.061893643,135.016773795 72.996036105,135.14824656 72.9369064031,135.285153222 L 72.758064838,135.632090128 72.5001555575,136.446094451 C 72.4881402146,136.477170731 72.4772390452,136.509256166 72.469140043,136.543771475 L 72.873302765,137.205843468 73.0794030235,137.421379441 C 73.1040079644,137.448557227 73.1292487811,137.475450697 73.1561118211,137.501670307 L 73.0839461458,137.034777625 C 73.0821585168,137.020983186 73.080349526,137.007338708 73.0786167151,136.993452731 L 73.0602695122,135.329798086 Z"
       id="path1793"
       inkscape:connector-curvature="0" />
    <path
       style="opacity:1;fill:#4d4d4d;fill-opacity:1;fill-rule:nonzero;stroke:none;stroke-width:0.0381715037;stroke-linecap:round;stroke-linejoin:round;stroke-miterlimit:4;stroke-dasharray:none;stroke-dashoffset:0;stroke-opacity:1"
       d="M 69.161485235,139.300285987 69.1887439422,140.205589498 68.9958361828,140.588347137 68.9739942729,141.263961117 69.1584273694,141.60251073 C 69.171564671,141.630160121 69.1851921793,141.656879008 69.1988785886,141.682976329 69.2726441899,141.35247587 69.4115632111,141.036704439 69.609419143,140.761859275 L 69.670139656,140.376655339 69.4938317491,139.7044487 Z"
       id="path1791"
       inkscape:connector-curvature="0" />
    <path
       style="opacity:1;fill:#4d4d4d;fill-opacity:1;fill-rule:nonzero;stroke:none;stroke-width:0.0365899131;stroke-linecap:round;stroke-linejoin:round;stroke-miterlimit:4;stroke-dasharray:none;stroke-dashoffset:0;stroke-opacity:1"
       d="M 71.8462371071,140.442992614 C 70.5509459677,140.442992585 69.5009050221,141.493033531 69.5009050505,142.78832467 69.5013849913,142.909053988 69.5111863401,143.029566027 69.5302217012,143.148786217 69.5567196057,143.189888217 69.5840913264,143.230564913 69.606178478,143.27404827 69.6258624617,143.312800469 69.6357951515,143.357889895 69.648820879,143.401975473 69.6559220496,143.396652864 69.6744247008,143.39319258 69.6814689673,143.387317147 69.7318784486,143.345271959 69.7961334055,143.27097065 69.918667323,143.155449091 70.0777860912,143.005436363 70.2263605253,142.936325385 70.3237701328,142.916251873 70.5398356517,142.871726557 70.5975071797,142.910564792 70.7849758388,142.940068512 70.6322604155,143.003397387 70.5852788995,143.073032858 70.4676882363,143.223410418 70.4635370329,143.228719069 70.3990292335,143.306088309 70.3717428339,143.427294398 70.3449840094,143.546157001 70.3416968065,143.693767977 70.3590833712,143.81040972 70.5711816275,144.576981352 71.4380896082,145.14617436 72.5025303105,144.961088261 72.7276299559,144.909164714 72.9512992618,144.82966442 73.1641538141,144.725222479 73.805904445,144.289262097 74.1905358634,143.56414956 74.1915691639,142.78832467 74.1915691921,141.493033531 73.1415282465,140.442992585 71.8462371071,140.442992614 Z"
       id="path1767"
       inkscape:connector-curvature="0"
       sodipodi:nodetypes="sccscssscssccccs" />
    <path
       style="opacity:1;fill:#4d4d4d;fill-opacity:1;fill-rule:nonzero;stroke:none;stroke-width:0.0381715037;stroke-linecap:round;stroke-linejoin:round;stroke-miterlimit:4;stroke-dasharray:none;stroke-dashoffset:0;stroke-opacity:1"
       d="M 73.2607214131,132.42982244 73.2191344112,132.890774121 73.0978681259,133.07319776 73.0454475428,133.414630503 73.1183121527,133.597665715 C 73.1364093643,133.651636399 73.1576811969,133.700531242 73.1770232083,133.74496756 L 73.2159018114,133.842644584 73.3020463075,133.539129395 C 73.3152973904,133.493913429 73.3283126432,133.448608043 73.3410122709,133.401525358 L 73.4529302244,133.007060451 73.4046159229,132.655230958 Z"
       id="path1797"
       inkscape:connector-curvature="0" />
    <path
       style="fill:#ffffff;stroke:#cccccc;stroke-width:0.0866035"
       d="m 30.571042,59.240054 c -0.07145,-0.01702 -0.422192,-0.07805 -0.779432,-0.135629 -0.957105,-0.154261 -2.352346,-0.63622 -3.289164,-1.136177 -3.448418,-1.840341 -5.873219,-5.024132 -6.723554,-8.828101 -0.165371,-0.739788 -0.200716,-3.410767 -0.0509,-3.846507 0.0795,-0.231231 0.09015,-0.197508 0.09677,0.306568 0.01423,1.082876 0.297797,1.813638 1.292476,3.33078 0.628868,0.959186 0.830808,1.437035 0.759008,1.796036 -0.02631,0.13153 -0.01957,0.238653 0.01496,0.238049 0.252945,-0.0044 1.132953,-0.595199 1.661496,-1.11542 0.349784,-0.344276 0.824914,-0.721701 1.055844,-0.838722 0.466734,-0.236513 0.496912,-0.222174 0.249237,0.118421 -0.443095,0.609329 -0.570803,2.159684 -0.249128,3.024368 0.785313,2.110971 2.832756,3.782103 5.311432,4.335217 0.873614,0.194945 2.668104,0.187126 3.552175,-0.01548 3.306876,-0.757845 5.85521,-2.830818 6.876645,-5.593891 0.462121,-1.250078 0.569012,-1.944713 0.566379,-3.68065 -0.003,-1.979156 -0.101211,-2.465596 -0.830527,-4.113667 -0.13701,-0.309607 -0.287229,-0.62138 -0.33382,-0.692828 -0.04659,-0.07145 -0.160346,-0.266306 -0.252787,-0.433017 C 39.193211,41.409462 38.375976,40.453077 37.706705,39.862926 36.372106,38.686102 34.71367,37.885933 32.69283,37.44381 32.107953,37.315849 29.182986,37.282971 28.398401,37.39554 l -0.483875,0.06942 -0.306697,-0.675648 c -0.317935,-0.700404 -0.495295,-1.258944 -0.682052,-2.147908 -0.06004,-0.285791 -0.118578,-0.558592 -0.130083,-0.606224 -0.629289,-2.605285 -0.837129,-5.055014 -0.606178,-7.144791 0.330307,-2.988808 0.348371,-3.081303 0.95561,-4.893098 0.523073,-1.560674 0.654885,-1.855744 1.332041,-2.981869 0.413337,-0.687389 0.85356,-1.420177 0.978272,-1.628418 0.442023,-0.738075 3.267489,-3.44261 3.428419,-3.281681 0.0205,0.0205 -0.294988,0.547235 -0.701091,1.170515 -0.406103,0.623281 -0.780479,1.211921 -0.831948,1.30809 -0.05147,0.09617 -0.186188,0.793571 -0.29938,1.549783 l -0.205803,1.374932 0.155349,1.63404 c 0.144273,1.517556 0.183059,1.711634 0.54409,2.722549 0.468236,1.3111 0.47779,1.329566 1.139305,2.201977 0.651264,0.858892 0.583419,0.78969 1.783822,1.819506 0.547768,0.469925 1.153925,0.993339 1.347018,1.163142 0.604343,0.531453 0.842112,0.729815 1.510898,1.260485 1.202353,0.954045 1.856853,1.538472 2.906909,2.595687 3.284186,3.306574 4.839608,6.797593 5.0294,11.288074 0.177822,4.207296 -1.198345,7.995969 -3.948979,10.871777 -1.831302,1.914641 -4.114813,3.184956 -7.052365,3.923227 -0.702085,0.17645 -1.14122,0.226138 -2.217779,0.250949 -0.738295,0.01701 -1.400812,0.01701 -1.47226,-5e-6 z"
       id="path1"
       transform="matrix(0.26458333,0,0,0.26458333,63.719173,130.17396)" />
    <path
       style="fill:#ffffff;stroke:#cccccc;stroke-width:0.0866035"
       d="m 29.878214,55.816676 c -0.453306,-0.10349 -1.083655,-0.342418 -1.640662,-0.621877 -2.407373,-1.207815 -3.741527,-3.684864 -2.953921,-5.48438 0.186522,-0.426163 0.908232,-1.238943 1.210516,-1.363267 0.215901,-0.0888 0.210567,-0.09424 -0.166677,-0.170013 -0.597423,-0.120002 -1.456631,-0.03415 -1.937924,0.193644 -0.232299,0.109945 -0.761561,0.522692 -1.176136,0.917214 l -0.753773,0.717313 -0.279928,-0.604178 c -0.252024,-0.543951 -0.281542,-0.692457 -0.296124,-1.489799 -0.02036,-1.113297 0.06023,-1.764261 0.33643,-2.717355 0.390603,-1.34789 1.20038,-2.737863 2.141249,-3.675432 1.791752,-1.785466 3.913344,-2.676893 6.370901,-2.676853 2.413386,3.9e-5 4.491355,0.855691 6.215938,2.559557 1.599387,1.580173 2.500145,3.630046 2.604702,5.927573 0.124572,2.737287 -1.121649,5.521356 -3.213587,7.179185 -0.668596,0.529851 -1.059441,0.726631 -2.205907,1.110609 -0.864377,0.2895 -1.000544,0.310188 -2.219915,0.337269 -1.051301,0.02335 -1.439444,-0.0032 -2.035182,-0.13921 z"
       id="path2"
       transform="matrix(0.26458333,0,0,0.26458333,63.719173,130.17396)" />
    <path
       style="fill:#ffffff;stroke:#cccccc;stroke-width:0.0866035"
       d="m 20.611637,43.341446 c 0,-0.04962 -0.171244,-0.382755 -0.380543,-0.7403 l -0.380543,-0.650082 0.04489,-1.273232 0.04489,-1.273231 0.387218,-0.797662 c 0.358744,-0.739004 0.383686,-0.834532 0.339178,-1.299053 -0.07379,-0.770169 -0.08256,-2.621939 -0.01246,-2.630687 0.04676,-0.0058 1.162978,1.268257 1.171379,1.337055 8.6e-4,0.007 0.148335,0.580365 0.327721,1.274044 0.324918,1.256438 0.325733,1.263974 0.21432,1.981942 -0.08984,0.578967 -0.184724,0.841889 -0.482439,1.336871 -0.477864,0.794496 -0.800456,1.527477 -0.989533,2.248375 -0.08312,0.316898 -0.181037,0.576178 -0.217601,0.576178 -0.03656,0 -0.06648,-0.0406 -0.06648,-0.09022 z"
       id="path3"
       transform="matrix(0.26458333,0,0,0.26458333,63.719173,130.17396)" />
    <path
       style="fill:#ffffff;stroke:#cccccc;stroke-width:0.0866035"
       d="m 35.051988,27.040449 c -0.311792,-0.348373 -0.681043,-0.826682 -0.820557,-1.062908 -0.139514,-0.236227 -0.45886,-0.756611 -0.709656,-1.156409 l -0.455994,-0.726905 0.535605,-1.697993 c 0.399441,-1.26632 0.703007,-2.032448 1.194084,-3.013576 0.362164,-0.723571 0.68506,-1.299156 0.717547,-1.279077 0.03249,0.02008 0.0052,0.261346 -0.0607,0.536151 -0.19261,0.803551 -0.150238,6.748856 0.0572,8.025729 0.08587,0.528583 0.145609,0.971711 0.132747,0.984727 -0.01286,0.01302 -0.278487,-0.261365 -0.590279,-0.609739 z"
       id="path4"
       transform="matrix(0.26458333,0,0,0.26458333,63.719173,130.17396)" />
    <path
       style="fill:#ffffff;stroke:#cccccc;stroke-width:0.0866035"
       d="m 35.555998,13.023648 c -0.317799,-0.794013 -0.318673,-0.799736 -0.215621,-1.411124 0.06062,-0.359616 0.194266,-0.756512 0.322681,-0.958248 0.169878,-0.266875 0.240445,-0.539722 0.313578,-1.2124497 l 0.09437,-0.868078 0.269561,0.3985499 c 0.186565,0.2758395 0.289093,0.5548823 0.333,0.9063006 0.03489,0.2792632 0.07719,0.5791522 0.094,0.6664202 0.02508,0.13025 -0.785273,3.166548 -0.867501,3.250409 -0.01373,0.01401 -0.168564,-0.333294 -0.344064,-0.77178 z"
       id="path5"
       transform="matrix(0.26458333,0,0,0.26458333,63.719173,130.17396)" />
  </g>
</svg>
