<?xml version="1.0" encoding="UTF-8" standalone="no"?>
<svg
   width="32"
   height="32"
   version="1.1"
   id="svg1"
   sodipodi:docname="applications-all-symbolic.svg"
   inkscape:version="1.3.2 (091e20ef0f, 2023-11-25, custom)"
   xmlns:inkscape="http://www.inkscape.org/namespaces/inkscape"
   xmlns:sodipodi="http://sodipodi.sourceforge.net/DTD/sodipodi-0.dtd"
   xmlns="http://www.w3.org/2000/svg"
   xmlns:svg="http://www.w3.org/2000/svg">
  <defs
     id="defs1" />
  <sodipodi:namedview
     id="namedview1"
     pagecolor="#505050"
     bordercolor="#ffffff"
     borderopacity="1"
     inkscape:showpageshadow="0"
     inkscape:pageopacity="0"
     inkscape:pagecheckerboard="1"
     inkscape:deskcolor="#d1d1d1"
     inkscape:zoom="23.09375"
     inkscape:cx="15.978349"
     inkscape:cy="15.978349"
     inkscape:window-width="2560"
     inkscape:window-height="1388"
     inkscape:window-x="2560"
     inkscape:window-y="28"
     inkscape:window-maximized="1"
     inkscape:current-layer="svg1" />
  <style
     type="text/css"
     id="current-color-scheme">
      .ColorScheme-Text {
        color:#31363b;
      }
      .ColorScheme-Background{
        color:#E9E8E8;
      }
      .ColorScheme-ViewText {
        color:#31363b;
      }
      .ColorScheme-ViewBackground{
        color:#ffffff;
      }
      .ColorScheme-ViewHover {
        color:#000000;
      }
      .ColorScheme-ViewFocus{
        color:#5a5a5a;
      }
      .ColorScheme-ButtonText {
        color:#31363b;
      }
      .ColorScheme-ButtonBackground{
        color:#E9E8E8;
      }
      .ColorScheme-ButtonHover {
        color:#1489ff;
      }
      .ColorScheme-ButtonFocus{
        color:#2B74C7;
      }
</style>
  <g
     transform="matrix(1.0000028,0,0,1.0000009,-398.71551,-516.79118) translate(-22,-1.83917e-05)"
     id="applications-other">
    <rect
       style="opacity:0.01000001;fill:#000000;fill-opacity:0.00392157;stroke:none"
       id="rect2994"
       width="32"
       height="32"
       x="-7.1557004e-08"
       y="-7.9999948"
       transform="matrix(0.99999706,0,0,0.99999899,420.71433,524.79072)" />
    <path
       style="fill:currentColor;fill-opacity:1;stroke:none"
       d="m 424.71433,520.79075 0,9.99995 9.99995,10e-6 0,-9.99994 z m 13.99994,2e-5 0,9.99994 9.99998,-10e-6 0,-9.99995 z m -12.99995,0.99994 7.99998,0 0,7.99999 -7.99998,0 z m 13.99996,0 7.99998,0 0,7.99999 -7.99998,0 z m -14.99995,13 0,9.99998 9.99995,2e-5 0,-9.99998 z m 13.99994,2e-5 0,9.99998 1.99999,-2e-5 5.99999,0 2,0 0,-1.99998 0,-5.99999 0,-2.00001 -2,0 -5.99999,0 z m -12.99995,0.99997 7.99998,0 0,7.99999 -7.99998,0 z m 13.99996,0 7.99998,0 0,7.99999 -7.99998,0 z"
       id="path2996"
       class="ColorScheme-Text" />
  </g>
  <path
     style="fill:#ffffff;stroke:#cccccc;stroke-width:0.0433018"
     d="M 4.0270636,8.985115 V 4.0054127 H 9.0067659 13.986468 V 8.985115 13.964817 H 9.0067659 4.0270636 Z M 13.033829,9.006766 V 5.0013532 H 9.0067659 4.9797023 v 4.0054127 4.0054131 h 4.0270636 4.0270631 z"
     id="path1" />
  <path
     style="fill:#ffffff;stroke:#cccccc;stroke-width:0.0433018"
     d="M 18.013532,8.985115 V 4.0054127 h 4.979702 4.979702 v 4.9797023 4.979702 h -4.979702 -4.979702 z m 9.006766,0.021651 V 5.0013532 h -4.027064 -4.027063 v 4.0054127 4.0054131 h 4.027063 4.027064 z"
     id="path2" />
  <path
     style="fill:#ffffff;stroke:#cccccc;stroke-width:0.0433018"
     d="m 18.013532,23.014885 v -4.979702 h 4.979702 4.979702 v 4.979702 4.979702 h -4.979702 -4.979702 z m 9.006766,-0.02165 v -4.005413 h -4.027064 -4.027063 v 4.005413 4.005413 h 4.027063 4.027064 z"
     id="path3" />
  <path
     style="fill:#ffffff;stroke:#cccccc;stroke-width:0.0433018"
     d="m 4.0270636,23.014885 v -4.979702 h 4.9797023 4.9797021 v 4.979702 4.979702 H 9.0067659 4.0270636 Z m 9.0067654,-0.02165 V 18.987821 H 9.0067659 4.9797023 v 4.005413 4.005413 h 4.0270636 4.0270631 z"
     id="path4" />
</svg>
