<?xml version="1.0" encoding="UTF-8" standalone="no"?>
<svg
   width="24"
   height="24"
   viewBox="0 0 24 24"
   version="1.1"
   id="svg2"
   sodipodi:docname="input-mouse-battery.svg"
   inkscape:version="1.3.2 (091e20ef0f, 2023-11-25, custom)"
   xmlns:inkscape="http://www.inkscape.org/namespaces/inkscape"
   xmlns:sodipodi="http://sodipodi.sourceforge.net/DTD/sodipodi-0.dtd"
   xmlns="http://www.w3.org/2000/svg"
   xmlns:svg="http://www.w3.org/2000/svg">
  <defs
     id="defs2" />
  <sodipodi:namedview
     id="namedview2"
     pagecolor="#505050"
     bordercolor="#ffffff"
     borderopacity="1"
     inkscape:showpageshadow="0"
     inkscape:pageopacity="0"
     inkscape:pagecheckerboard="1"
     inkscape:deskcolor="#d1d1d1"
     inkscape:zoom="30.791667"
     inkscape:cx="11.983762"
     inkscape:cy="11.983762"
     inkscape:window-width="2560"
     inkscape:window-height="1388"
     inkscape:window-x="2560"
     inkscape:window-y="28"
     inkscape:window-maximized="1"
     inkscape:current-layer="svg2" />
  <style
     type="text/css"
     id="current-color-scheme">.ColorScheme-Text{color:#31363b;}.ColorScheme-Background{color:#eff0f1;}.ColorScheme-Highlight{color:#3daee9;}.ColorScheme-ViewText{color:#31363b;}.ColorScheme-ViewBackground{color:#fcfcfc;}.ColorScheme-ViewHover{color:#93cee9;}.ColorScheme-ViewFocus{color:#3daee9;}.ColorScheme-ButtonText{color:#31363b;}.ColorScheme-ButtonBackground{color:#eff0f1;}.ColorScheme-ButtonHover{color:#93cee9;}.ColorScheme-ButtonFocus { color: #3daee9; } </style>
  <g
     transform="translate(1,1)"
     id="g2">
    <g
       id="22-22-input-mouse-battery"
       transform="translate(-310,-268.36219) translate(-16,-266)">
      <rect
         x="326"
         y="534.36218"
         width="22"
         height="22"
         ry="0"
         fill="none"
         id="rect1" />
      <path
         class="ColorScheme-Text"
         transform="translate(326,534.3622)"
         d="m13.5 3c-3.047 0-5.5 2.676-5.5 6v4c0 3.324 2.453 6 5.5 6s5.5-2.676 5.5-6v-4c0-3.324-2.453-6-5.5-6zm0 1c2.493 0 4.5 2.007 4.5 4.5v5c0 2.493-2.007 4.5-4.5 4.5s-4.5-2.007-4.5-4.5v-5c0-2.493 2.007-4.5 4.5-4.5zm0 2c-0.277 0-0.5 0.223-0.5 0.5v2c0 0.277 0.223 0.5 0.5 0.5s0.5-0.223 0.5-0.5v-2c0-0.277-0.223-0.5-0.5-0.5z"
         fill="currentColor"
         id="path1" />
      <path
         class="ColorScheme-Text"
         d="m331 537.3622-2 5h2v3l2-5h-2z"
         fill="currentColor"
         id="path2" />
    </g>
  </g>
  <path
     style="fill:#ffffff;stroke:#cccccc;stroke-width:0.0324763"
     d="M 6.0096116,10.449256 6.0081191,8.9797023 H 5.0141167 c -0.7821216,0 -0.9905768,-0.00865 -0.9779323,-0.040595 0.00884,-0.022328 0.4451787,-1.1131268 0.9696451,-2.4239984 l 0.9535751,-2.3834031 0.00846,1.4334707 0.00846,1.4334707 H 6.970029 7.9637398 l -0.018977,0.073072 C 7.9343256,7.111908 7.4949824,8.2189445 6.968445,9.5317997 L 6.0111041,11.918809 Z"
     id="path3" />
  <path
     style="fill:#ffffff;stroke:#cccccc;stroke-width:0.0324763"
     d="M 13.932341,19.953564 C 12.413714,19.78408 10.988386,18.894877 10.083933,17.552702 9.6383774,16.891513 9.321438,16.126569 9.1356009,15.26387 L 9.0446549,14.841678 V 12 9.1583221 L 9.1342617,8.7437105 C 9.4171324,7.4348645 9.9622924,6.4096831 10.830744,5.5534506 11.72793,4.6688877 12.842188,4.1494613 14.083725,4.037029 c 2.254348,-0.2041515 4.41327,1.1672136 5.378214,3.4162863 0.243409,0.567333 0.372519,1.031381 0.46188,1.6600907 0.07079,0.4980838 0.07036,5.278164 -5.3e-4,5.77696 -0.286131,2.013399 -1.449189,3.701731 -3.131661,4.546021 -0.885936,0.444575 -1.88715,0.625672 -2.859287,0.517177 z m 1.484964,-1.033853 c 1.780159,-0.385039 3.125114,-1.73142 3.50598,-3.509697 0.05486,-0.256166 0.05912,-0.501788 0.05912,-3.410014 0,-2.8709933 -0.0048,-3.1561997 -0.05723,-3.3989488 C 18.83797,8.1972026 18.720849,7.8606768 18.539341,7.4924012 17.925465,6.2468582 16.80395,5.3833021 15.400715,5.0756878 14.94514,4.9758178 14.050686,4.9753759 13.601642,5.074799 12.19487,5.3862736 11.057053,6.264157 10.455731,7.5020298 c -0.279519,0.5754138 -0.404734,1.0495278 -0.454588,1.7212449 -0.039405,0.5309372 -0.038117,5.0245503 0.0016,5.5696883 0.094,1.290265 0.667318,2.409357 1.638729,3.198709 0.649956,0.528144 1.444914,0.873448 2.275138,0.988247 0.346868,0.04796 1.149459,0.01576 1.500698,-0.06021 z"
     id="path4" />
  <path
     style="fill:#ffffff;stroke:#cccccc;stroke-width:0.0324763"
     d="M 14.290228,9.9295842 C 14.228067,9.8983535 14.144035,9.8231433 14.103489,9.7624503 14.03031,9.6529074 14.02977,9.6436723 14.02977,8.5008847 c 0,-1.037958 0.0056,-1.1607148 0.05683,-1.2477787 0.177709,-0.3019405 0.650436,-0.3019405 0.828146,0 0.05124,0.087064 0.05683,0.2098207 0.05683,1.2477787 0,1.1427876 -5.39e-4,1.1520227 -0.07372,1.2615656 -0.138419,0.2072008 -0.390101,0.2764277 -0.607636,0.1671339 z"
     id="path5" />
</svg>
