<?xml version="1.0" encoding="UTF-8" standalone="no"?>
<svg
   height="32"
   viewBox="0 0 8.4666665 8.4666669"
   width="32"
   version="1.1"
   id="svg2"
   sodipodi:docname="flashlight-off.svg"
   inkscape:version="1.3.2 (091e20ef0f, 2023-11-25, custom)"
   xmlns:inkscape="http://www.inkscape.org/namespaces/inkscape"
   xmlns:sodipodi="http://sodipodi.sourceforge.net/DTD/sodipodi-0.dtd"
   xmlns="http://www.w3.org/2000/svg"
   xmlns:svg="http://www.w3.org/2000/svg">
  <defs
     id="defs2" />
  <sodipodi:namedview
     id="namedview2"
     pagecolor="#505050"
     bordercolor="#ffffff"
     borderopacity="1"
     inkscape:showpageshadow="0"
     inkscape:pageopacity="0"
     inkscape:pagecheckerboard="1"
     inkscape:deskcolor="#d1d1d1"
     inkscape:zoom="37"
     inkscape:cx="15.986486"
     inkscape:cy="16"
     inkscape:window-width="2560"
     inkscape:window-height="1388"
     inkscape:window-x="2560"
     inkscape:window-y="28"
     inkscape:window-maximized="1"
     inkscape:current-layer="svg2" />
  <style
     type="text/css"
     id="current-color-scheme">.ColorScheme-Text{color:#232629;}.ColorScheme-NegativeText { color: #da4453; } </style>
  <g
     transform="translate(0 -288.53332)"
     id="g2">
    <path
       d="m25.458984 11c-1.571038.002457-3.049568.743156-3.992187 2h-3.466797v-1h-3v.984375l1.015625 1.015625h4.863281.121094v4h-.117188-.867187l1 1h.455078c.941801 1.25571 2.418624 1.996334 3.988281 2h3.541016 1v-10h-1zm0 1h3.541016v8h-3.541016c-1.427233-.001852-2.745363-.763981-3.458984-2v-4c.713621-1.236019 2.031751-1.998148 3.458984-2zm-23.458984 1v1 4 1h14.984375l-1-1h-12.984375v-4h8.986328l-1-1z"
       style="fill:currentColor;fill-opacity:1;stroke:none"
       class="ColorScheme-Text"
       transform="matrix(.26458333 0 0 .26458333 0 288.53332)"
       id="path1" />
    <path
       d="m.52916504 289.24957.1870863-.18709 7.22125016 7.22125-.1870863.18709z"
       style="fill:currentColor;fill-opacity:1;stroke:none"
       class="ColorScheme-NegativeText"
       id="path2" />
  </g>
  <path
     style="fill:#ffffff;stroke:#cccccc;stroke-width:0.027027"
     d="m 24.905405,20.954988 c -0.881743,-0.09962 -1.831885,-0.490943 -2.513513,-1.035205 -0.23979,-0.191466 -0.630521,-0.576045 -0.790335,-0.777891 L 21.478513,18.986486 H 21.245731 21.01295 L 20.527027,18.5 20.041104,18.013514 H 20.520552 21 V 16 13.986486 H 18.50649 16.01298 L 15.50649,13.47947 15,12.972453 v -0.47947 -0.479469 h 1.5 1.5 v 0.5 0.5 h 1.737689 1.73769 l 0.106905,-0.14047 c 0.160704,-0.211159 0.537586,-0.581509 0.796094,-0.782296 0.682996,-0.530492 1.330123,-0.820177 2.270271,-1.016281 0.173401,-0.03617 0.57483,-0.04381 2.777027,-0.05288 L 30,11.010982 v 4.987752 4.987752 l -2.439189,-0.0035 c -1.341554,-0.0019 -2.536487,-0.01453 -2.655406,-0.02796 z M 29,15.998445 v -4.015068 l -2.033784,0.0102 c -1.951357,0.0098 -2.043951,0.01251 -2.284643,0.06719 -1.094586,0.248663 -1.963056,0.829595 -2.548922,1.705012 L 22,13.963988 V 16 18.036012 l 0.132651,0.19821 c 0.631561,0.943694 1.655742,1.584853 2.775051,1.737239 0.202026,0.0275 0.738553,0.03717 2.180136,0.03927 L 29,20.013514 Z"
     id="path3"
     transform="scale(0.26458333)" />
  <path
     style="fill:#ffffff;stroke:#cccccc;stroke-width:0.027027"
     d="M 2,16 V 13.013514 H 6.4935249 10.98705 L 11.472973,13.5 11.958896,13.986486 H 7.4794481 3 V 16 18.013514 H 9.4935249 15.98705 L 16.472973,18.5 16.958896,18.986486 H 9.4794481 2 Z"
     id="path4"
     transform="scale(0.26458333)" />
</svg>
