<?xml version="1.0" encoding="UTF-8" standalone="no"?>
<svg
   viewBox="0 0 32 32"
   version="1.1"
   id="svg2"
   sodipodi:docname="mail-mark-important.svg"
   inkscape:version="1.3.2 (091e20ef0f, 2023-11-25, custom)"
   xmlns:inkscape="http://www.inkscape.org/namespaces/inkscape"
   xmlns:sodipodi="http://sodipodi.sourceforge.net/DTD/sodipodi-0.dtd"
   xmlns="http://www.w3.org/2000/svg"
   xmlns:svg="http://www.w3.org/2000/svg">
  <sodipodi:namedview
     id="namedview2"
     pagecolor="#505050"
     bordercolor="#ffffff"
     borderopacity="1"
     inkscape:showpageshadow="0"
     inkscape:pageopacity="0"
     inkscape:pagecheckerboard="1"
     inkscape:deskcolor="#d1d1d1"
     inkscape:zoom="37"
     inkscape:cx="15.986486"
     inkscape:cy="16"
     inkscape:window-width="2560"
     inkscape:window-height="1388"
     inkscape:window-x="2560"
     inkscape:window-y="28"
     inkscape:window-maximized="1"
     inkscape:current-layer="svg2" />
  <defs
     id="defs3051">
    <style
       type="text/css"
       id="current-color-scheme">.ColorScheme-Text{color:#232629;}.ColorScheme-NegativeText { color: #da4453; } </style>
  </defs>
  <path
     style="fill:currentColor;fill-opacity:1;stroke:none"
     d="M 2,5 2,24.683594 2,27 19,27 19,26 3,26 3,25.111328 3.4296875,24.683594 12.785156,15.541016 16,18.683594 19.214844,15.541016 21,17.285156 21,15.888672 19.929688,14.841797 28.976562,6 29,6 l 0,8 1,0 0,-9 z M 3,6 3.0234375,6 12.070312,14.841797 3,23.707031 Z M 4.453125,6 27.546875,6 16,17.285156 Z"
     class="ColorScheme-Text"
     id="path1" />
  <path
     style="fill:currentColor;fill-opacity:1;stroke:none"
     d="M 24 15 L 24 23 L 26 23 L 26 15 L 24 15 z M 24 25 L 24 27 L 26 27 L 26 25 L 24 25 z "
     class="ColorScheme-NegativeText"
     id="path2" />
  <path
     style="fill:#ffffff;stroke:#cccccc;stroke-width:0.027027"
     d="M 2,16 V 5.0135135 H 16 30 V 9.5 13.986486 H 29.5 29 V 9.9864865 c 0,-2.2 -0.0071,-4 -0.01577,-4 -0.01347,0 -2.221473,2.1511781 -4.173416,4.0660115 -0.543969,0.533628 -1.511265,1.479322 -3.899397,3.812317 l -0.993991,0.971043 0.541774,0.542257 0.541774,0.542258 -0.0072,0.665435 -0.0072,0.665435 -0.885809,-0.865715 -0.88581,-0.865714 -0.533812,0.523877 c -0.293597,0.288132 -1.016501,0.996243 -1.606453,1.573579 l -1.072639,1.049702 -1.597736,-1.563216 c -0.878755,-0.859768 -1.606685,-1.563215 -1.617623,-1.563215 -0.01094,0 -2.115862,2.049324 -4.6776086,4.554054 -2.5617465,2.504729 -4.7592577,4.649783 -4.8833582,4.766785 L 3,25.074111 v 0.469701 0.469702 h 8 8 V 26.5 26.986486 H 10.5 2 Z m 4.6756757,4.134765 c 1.6574324,-1.617608 3.2689189,-3.191678 3.5810813,-3.497934 0.312162,-0.306257 0.848563,-0.830236 1.192001,-1.164398 0.343439,-0.334162 0.62621,-0.614551 0.628379,-0.623085 0.0022,-0.0085 -0.473421,-0.482063 -1.056867,-1.052287 C 10.436824,13.226838 9.6918919,12.497561 9.3648649,12.176444 7.5323281,10.377029 3.0436554,5.998665 3.0235743,5.990991 3.0101895,5.9858759 3,9.8173416 3,14.85545 v 8.873469 l 0.3310811,-0.326524 c 0.1820946,-0.179589 1.6871621,-1.650022 3.3445946,-3.26763 z M 21.774878,11.662111 C 24.93856,8.5701914 27.531081,6.0282995 27.536036,6.0134626 27.542021,5.9955405 23.670175,5.9864865 16,5.9864865 c -7.2887586,0 -11.5417237,0.00948 -11.536036,0.025704 0.00495,0.014137 1.4927928,1.4753653 3.3063063,3.2471736 4.3079867,4.2089169 5.3630887,5.2400989 6.0805287,5.9426799 1.976859,1.93592 2.126516,2.080535 2.153809,2.081259 0.01,2.65e-4 2.606589,-2.529272 5.77027,-5.621192 z"
     id="path3" />
</svg>
