<?xml version="1.0" encoding="UTF-8" standalone="no"?>
<svg
   viewBox="0 0 32 32"
   version="1.1"
   id="svg2"
   sodipodi:docname="mail-deleted.svg"
   inkscape:version="1.3.2 (091e20ef0f, 2023-11-25, custom)"
   xmlns:inkscape="http://www.inkscape.org/namespaces/inkscape"
   xmlns:sodipodi="http://sodipodi.sourceforge.net/DTD/sodipodi-0.dtd"
   xmlns="http://www.w3.org/2000/svg"
   xmlns:svg="http://www.w3.org/2000/svg">
  <sodipodi:namedview
     id="namedview2"
     pagecolor="#505050"
     bordercolor="#ffffff"
     borderopacity="1"
     inkscape:showpageshadow="0"
     inkscape:pageopacity="0"
     inkscape:pagecheckerboard="1"
     inkscape:deskcolor="#d1d1d1"
     inkscape:zoom="37"
     inkscape:cx="15.986486"
     inkscape:cy="16"
     inkscape:window-width="2560"
     inkscape:window-height="1388"
     inkscape:window-x="2560"
     inkscape:window-y="28"
     inkscape:window-maximized="1"
     inkscape:current-layer="svg2" />
  <defs
     id="defs3051">
    <style
       type="text/css"
       id="current-color-scheme">.ColorScheme-Text{color:#232629;}.ColorScheme-NegativeText { color: #da4453; } </style>
  </defs>
  <path
     style="fill:currentColor;fill-opacity:1;stroke:none"
     d="M 2,5 2,24.683594 2,27 19,27 19,26 3,26 3,25.111328 3.4296875,24.683594 12.785156,15.541016 16,18.683594 C 16,18.683594 29,6 28.976562,6 L 29,6 l 0,8 1,0 0,-9 z M 3,6 3.0234375,6 12.070312,14.841797 3,23.707031 Z M 4.453125,6 27.546875,6 16,17.285156 Z"
     class="ColorScheme-Text"
     id="path1" />
  <path
     d="m 22,15 0,2 1,0 0,-1 4,0 0,1 1,0 0,-2 -5,0 z m -3,3 0,1 2,0 0,8 8,0 0,-8 2,0 0,-1 z m 3,1 6,0 0,7 -6,0 z"
     style="fill:currentColor;fill-opacity:1;stroke:none"
     class="ColorScheme-NegativeText"
     id="path2" />
  <path
     style="fill:#ffffff;stroke:#cccccc;stroke-width:0.027027"
     d="M 2,16 V 5.0135135 H 16 30 V 9.5 13.986486 H 29.5 29 V 9.9864865 c 0,-2.2 -0.0095,-4 -0.02112,-4 -0.01161,0 -0.09371,0.074216 -0.182433,0.1649247 -0.08872,0.090709 -0.982262,0.9685676 -1.98564,1.9507977 -1.003379,0.9822303 -2.091892,2.0478241 -2.418919,2.3679861 -0.790171,0.773583 -1.56949,1.535507 -2.310811,2.25923 -0.334459,0.326519 -0.84527,0.825866 -1.135135,1.109658 -0.289865,0.283793 -1.305405,1.274278 -2.256757,2.201078 -0.951351,0.9268 -1.944463,1.897667 -2.206915,2.15748 L 16.005088,18.67003 14.40579,17.105285 c -0.879614,-0.860609 -1.608248,-1.564744 -1.619186,-1.564744 -0.01094,0 -2.115862,2.049324 -4.6776086,4.554054 -2.5617465,2.504729 -4.7592577,4.649783 -4.8833582,4.766785 L 3,25.074111 v 0.469701 0.469702 h 8 8 V 26.5 26.986486 H 10.5 2 Z m 4.6756757,4.134765 c 1.6574324,-1.617608 3.2689189,-3.191678 3.5810813,-3.497934 0.312162,-0.306257 0.848563,-0.830236 1.192001,-1.164398 0.343439,-0.334162 0.62621,-0.614551 0.628379,-0.623085 0.0022,-0.0085 -0.473421,-0.482063 -1.056867,-1.052287 C 10.436824,13.226838 9.6918919,12.497561 9.3648649,12.176444 7.5323281,10.377029 3.0436554,5.998665 3.0235743,5.990991 3.0101895,5.9858759 3,9.8173416 3,14.85545 v 8.873469 l 0.3310811,-0.326524 c 0.1820946,-0.179589 1.6871621,-1.650022 3.3445946,-3.26763 z M 17.937704,15.413724 C 18.99021,14.385191 20.368243,13.037673 21,12.419239 c 0.904176,-0.885108 3.979192,-3.8891333 6.263514,-6.1189143 0.152364,-0.148727 0.277027,-0.2801834 0.277027,-0.2921254 0,-0.011942 -5.194257,-0.021713 -11.542793,-0.021713 -7.2873348,0 -11.5394717,0.00948 -11.533784,0.025704 0.00495,0.014137 1.4927928,1.4753653 3.3063063,3.2471736 4.7238757,4.6152411 5.4172247,5.2929891 6.0675677,5.9310371 1.443625,1.416332 2.143524,2.093383 2.164031,2.093383 0.0122,0 0.883328,-0.841527 1.935835,-1.87006 z"
     id="path3" />
</svg>
