<?xml version="1.0" encoding="UTF-8" standalone="no"?>
<svg
   viewBox="0 0 16 16"
   version="1.1"
   id="svg7"
   sodipodi:docname="audio-off.svg"
   inkscape:version="1.3.2 (091e20ef0f, 2023-11-25, custom)"
   xmlns:inkscape="http://www.inkscape.org/namespaces/inkscape"
   xmlns:sodipodi="http://sodipodi.sourceforge.net/DTD/sodipodi-0.dtd"
   xmlns="http://www.w3.org/2000/svg"
   xmlns:svg="http://www.w3.org/2000/svg">
  <defs
     id="defs7" />
  <sodipodi:namedview
     id="namedview7"
     pagecolor="#505050"
     bordercolor="#ffffff"
     borderopacity="1"
     inkscape:showpageshadow="0"
     inkscape:pageopacity="0"
     inkscape:pagecheckerboard="1"
     inkscape:deskcolor="#d1d1d1"
     inkscape:zoom="74"
     inkscape:cx="7.9932432"
     inkscape:cy="8"
     inkscape:window-width="2560"
     inkscape:window-height="1388"
     inkscape:window-x="2560"
     inkscape:window-y="28"
     inkscape:window-maximized="1"
     inkscape:current-layer="svg7" />
  <style
     id="current-color-scheme"
     type="text/css">.ColorScheme-Text{color:#232629;}.ColorScheme-NegativeText { color: #da4453; } </style>
  <g
     class="ColorScheme-Text"
     fill="currentColor"
     id="g3">
    <path
       d="m4 6.01563v3.98437l4 4h1v-2.984375z"
       id="path1" />
    <path
       d="m2 6v4h1v-4z"
       id="path2" />
    <path
       d="m8 2-1.990234 1.990234 2.990234 2.982422v-4.972656z"
       id="path3" />
  </g>
  <path
     d="m2 2.707107.707107-.707107 11.292893 11.267023-.707109.732975z"
     class="ColorScheme-NegativeText"
     fill="currentColor"
     id="path4" />
  <g
     class="ColorScheme-Text"
     fill="currentColor"
     id="g7">
    <path
       d="m10.271484 12.392578a5 5 0 0 1 -.492187.279297l.166015.998047a6 6 0 0 0 1.050782-.552734z"
       opacity=".35"
       id="path5" />
    <path
       d="m10.128906 4.615234-.330078.988282a3 3 0 0 1 1.201172 2.396484 3 3 0 0 1 -.167969.710938l.822266.822265a4 4 0 0 0 .345703-1.533203 4 4 0 0 0 -1.871094-3.384766z"
       opacity=".35"
       id="path6" />
    <path
       d="m9.945312 2.332031-.167968 1a5 5 0 0 1 3.222656 4.667969 5 5 0 0 1 -.607422 2.271484l.730469.730469a6 6 0 0 0 .876953-3.001953 6 6 0 0 0 -4.054688-5.667969z"
       opacity=".35"
       id="path7" />
  </g>
  <path
     style="fill:#ffffff;stroke:#cccccc;stroke-width:0.0135135"
     d="M 7.5067568,5.4731955 6.0202703,3.9948214 7.013479,3.0007891 8.0066878,2.0067568 H 8.5033439 9 V 4.4797297 C 9,5.8398649 8.99848,6.9524477 8.99662,6.9521362 8.9947635,6.9518246 8.3243243,6.2863014 7.5067568,5.4731955 Z"
     id="path8" />
  <path
     style="fill:#ffffff;stroke:#cccccc;stroke-width:0.0135135"
     d="M 6.0033614,11.989848 4,9.9864524 V 8.0067535 6.0270544 L 6.5,8.527027 9,11.027 v 1.483121 1.483122 H 8.5033614 8.0067226 Z"
     id="path9" />
  <path
     style="fill:#ffffff;stroke:#cccccc;stroke-width:0.0135135"
     d="M 2,8 V 6.0067568 H 2.5 3 V 8 9.9932432 H 2.5 2 Z"
     id="path10" />
  <path
     style="fill:#ffffff;stroke:#cccccc;stroke-width:0.0135135;opacity:0.3"
     d="m 11.247563,9.1107059 -0.406116,-0.4080032 0.03997,-0.1216216 c 0.114937,-0.3496934 0.14307,-0.6570106 0.09195,-1.0044622 -0.09327,-0.6339592 -0.374481,-1.2061085 -0.817068,-1.6623918 -0.0941,-0.097013 -0.2708979,-0.2555448 -0.3443549,-0.3087785 -0.0045,-0.00326 0.3070689,-0.9585598 0.3179319,-0.9748238 0.0053,-0.00801 0.155945,0.092908 0.288941,0.1936269 0.976351,0.7393985 1.567155,1.9195553 1.569532,3.1352078 6.41e-4,0.3277019 -0.0321,0.5830864 -0.119533,0.9324324 -0.04387,0.1752735 -0.133948,0.4454624 -0.191007,0.5729077 l -0.02414,0.05391 z"
     id="path11" />
  <path
     style="opacity:0.3;fill:#ffffff;stroke:#cccccc;stroke-width:0.0135135"
     d="m 12.758867,10.623734 -0.355806,-0.355997 0.07477,-0.149091 C 12.72391,9.6279828 12.886123,9.0949799 12.968392,8.5067568 13.002528,8.2626878 13.002666,7.650963 12.968643,7.3986486 12.787397,6.054535 12.142028,4.9046197 11.108108,4.0835532 10.754291,3.8025764 10.350772,3.5647656 9.9217869,3.3844027 9.7904355,3.3291773 9.7831493,3.3240421 9.7897623,3.2913541 c 0.00385,-0.019029 0.041036,-0.238277 0.082636,-0.4872187 0.0416,-0.2489417 0.078146,-0.4551304 0.081213,-0.4581972 0.00803,-0.00803 0.2795027,0.097228 0.4923347,0.1908911 1.030389,0.4534535 1.94165,1.2313784 2.573646,2.1970685 0.259402,0.3963656 0.493842,0.8738394 0.644881,1.3133995 0.174204,0.5069773 0.295926,1.1226907 0.315941,1.598143 0.0041,0.098386 0.0098,0.2092894 0.01256,0.2464516 0.007,0.09408 -0.01633,0.4932382 -0.04069,0.6959459 -0.07837,0.6522358 -0.264098,1.2881987 -0.548573,1.8783782 -0.108269,0.22462 -0.266419,0.513514 -0.281113,0.513514 -0.0044,0 -0.168039,-0.160199 -0.363733,-0.355996 z"
     id="path12" />
  <path
     style="opacity:0.3;fill:#ffffff;stroke:#cccccc;stroke-width:0.0135135"
     d="m 9.9459459,13.650653 c 0,-0.0107 -0.1485649,-0.918339 -0.15536,-0.949154 -0.00509,-0.02309 0.0065,-0.03416 0.063629,-0.06081 0.03842,-0.01792 0.1473101,-0.07867 0.2419781,-0.135003 l 0.172124,-0.102423 0.355321,0.355511 c 0.239555,0.239684 0.350869,0.359965 0.341654,0.369179 -0.02863,0.02863 -0.379461,0.232611 -0.543799,0.316176 -0.243745,0.123942 -0.4755466,0.224611 -0.4755466,0.206525 z"
     id="path13" />
</svg>
