<?xml version="1.0" encoding="UTF-8" standalone="no"?>
<svg
   viewBox="0 0 16 16"
   version="1.1"
   id="svg4"
   sodipodi:docname="audio-volume-high-danger.svg"
   inkscape:version="1.3.2 (091e20ef0f, 2023-11-25, custom)"
   xmlns:inkscape="http://www.inkscape.org/namespaces/inkscape"
   xmlns:sodipodi="http://sodipodi.sourceforge.net/DTD/sodipodi-0.dtd"
   xmlns="http://www.w3.org/2000/svg"
   xmlns:svg="http://www.w3.org/2000/svg">
  <defs
     id="defs4" />
  <sodipodi:namedview
     id="namedview4"
     pagecolor="#505050"
     bordercolor="#ffffff"
     borderopacity="1"
     inkscape:showpageshadow="0"
     inkscape:pageopacity="0"
     inkscape:pagecheckerboard="1"
     inkscape:deskcolor="#d1d1d1"
     inkscape:zoom="74"
     inkscape:cx="7.9932432"
     inkscape:cy="8"
     inkscape:window-width="2560"
     inkscape:window-height="1388"
     inkscape:window-x="2560"
     inkscape:window-y="28"
     inkscape:window-maximized="1"
     inkscape:current-layer="svg4" />
  <style
     id="current-color-scheme"
     type="text/css">.ColorScheme-Text{color:#232629;}.ColorScheme-NegativeText { color: #da4453; } </style>
  <g
     class="ColorScheme-Text"
     fill="currentColor"
     id="g2">
    <path
       d="m8 2-4 4v4l4 4h1v-12z"
       id="path1" />
    <path
       d="m2 6v4h1v-4z"
       id="path2" />
  </g>
  <g
     class="ColorScheme-NegativeText"
     fill="currentColor"
     id="g4">
    <path
       d="m10.128906 4.615234-.3300779.988282a3 3 0 0 1 1.2011719 2.396484 3 3 0 0 1 -1.2011719 2.396484l.3281249.984375a4 4 0 0 0 1.873047-3.380859 4 4 0 0 0 -1.871094-3.384766z"
       id="path3" />
    <path
       d="m9.9453125 2.332031-.1679687 1a5 5 0 0 1 3.2226562 4.667969 5 5 0 0 1 -3.2207031 4.671875l.1660156.998047a6 6 0 0 0 4.0546875-5.669922 6 6 0 0 0 -4.0546875-5.667969z"
       id="path4" />
  </g>
  <path
     style="opacity:1;fill:#ffffff;stroke:#cccccc;stroke-width:0.0135135"
     d="M 6.0033614,11.989848 4,9.9864524 V 7.9999659 6.0134793 L 6.0033954,4.0101181 8.0067908,2.0067568 H 8.5033954 9 V 8 13.993243 H 8.5033614 8.0067226 Z"
     id="path5" />
  <path
     style="opacity:1;fill:#ffffff;stroke:#cccccc;stroke-width:0.0135135"
     d="M 2,8 V 6.0067568 H 2.5 3 V 8 9.9932432 H 2.5 2 Z"
     id="path6" />
  <path
     style="opacity:1;fill:#ffffff;stroke:#cccccc;stroke-width:0.0135135"
     d="M 2,8 V 6.0067568 H 2.5 3 V 8 9.9932432 H 2.5 2 Z"
     id="path7" />
</svg>
