<?xml version="1.0" encoding="UTF-8" standalone="no"?>
<svg
   height="16"
   width="16"
   version="1.1"
   id="svg2"
   sodipodi:docname="battery-040-charging.svg"
   inkscape:version="1.3.2 (091e20ef0f, 2023-11-25, custom)"
   xmlns:inkscape="http://www.inkscape.org/namespaces/inkscape"
   xmlns:sodipodi="http://sodipodi.sourceforge.net/DTD/sodipodi-0.dtd"
   xmlns="http://www.w3.org/2000/svg"
   xmlns:svg="http://www.w3.org/2000/svg">
  <sodipodi:namedview
     id="namedview2"
     pagecolor="#505050"
     bordercolor="#ffffff"
     borderopacity="1"
     inkscape:showpageshadow="0"
     inkscape:pageopacity="0"
     inkscape:pagecheckerboard="1"
     inkscape:deskcolor="#d1d1d1"
     inkscape:zoom="46.1875"
     inkscape:cx="7.9891746"
     inkscape:cy="7.9891746"
     inkscape:window-width="2560"
     inkscape:window-height="1388"
     inkscape:window-x="2560"
     inkscape:window-y="28"
     inkscape:window-maximized="1"
     inkscape:current-layer="svg2" />
  <defs
     id="defs1">
    <style
       type="text/css"
       id="current-color-scheme">.ColorScheme-Text{color:#232629;}.ColorScheme-PositiveText { color: #27ae60; } </style>
  </defs>
  <path
     style="fill:currentColor;fill-opacity:1;stroke:none"
     class="ColorScheme-Text"
     d="M2 4h4l1 8H2zM0 2v12h15v-4h.5c.277 0 .5-.223.5-.5v-3c0-.277-.223-.5-.5-.5H15V2zm1 1h13v10H1z"
     id="path1" />
  <path
     d="M9 5a3 3 0 0 0-2.826 2H5v2h1.176A3 3 0 0 0 9 11v-1h2V9H9V7h2V6H9z"
     class="ColorScheme-PositiveText"
     fill="currentColor"
     id="path2" />
  <path
     style="fill:#ffffff;stroke:#cccccc;stroke-width:0.0216509"
     d="M 2.0135318,8 V 4.0162382 h 1.9918809 c 1.5789341,0 1.9919342,0.00561 1.9921375,0.027064 1.41e-4,0.014885 0.072613,0.6038379 0.1610496,1.3087843 l 0.1607931,1.2817207 -0.079023,0.1739613 -0.079023,0.1739614 -0.5854099,0.00575 -0.5854102,0.00575 V 8 9.0067659 l 0.5905834,0.010825 0.5905836,0.010826 0.071553,0.1646382 C 6.3460096,9.4295045 6.4571622,9.62097 6.6074646,9.8204363 l 0.1314126,0.1743978 0.1151389,0.9240989 c 0.063326,0.508254 0.1199442,0.955763 0.1258172,0.994463 l 0.010678,0.07037 h -2.4884899 -2.48849 z"
     id="path3" />
  <path
     style="fill:#ffffff;stroke:#cccccc;stroke-width:0.0216509"
     d="M 0,8 V 2.0027064 h 7.4912043 7.4912047 v 2.0007632 2.0007631 l 0.330176,0.00736 c 0.31282,0.00697 0.335386,0.010419 0.429304,0.065633 0.121764,0.071584 0.209345,0.199289 0.237122,0.3457561 0.02872,0.151438 0.02782,3.0073741 -10e-4,3.1593184 -0.028,0.1476471 -0.110588,0.2666824 -0.236302,0.3405889 -0.0937,0.055085 -0.116462,0.058561 -0.429124,0.065527 l -0.330176,0.00736 V 11.99653 13.997294 H 7.4912043 0 Z M 14.008119,8 V 2.9986468 H 7.5020298 0.99594046 V 8 13.001353 H 7.5020298 14.008119 Z"
     id="path4" />
</svg>
