<?xml version="1.0" encoding="UTF-8" standalone="no"?>
<svg
   height="16"
   width="16"
   version="1.1"
   id="svg3"
   sodipodi:docname="battery-missing.svg"
   inkscape:version="1.3.2 (091e20ef0f, 2023-11-25, custom)"
   xmlns:inkscape="http://www.inkscape.org/namespaces/inkscape"
   xmlns:sodipodi="http://sodipodi.sourceforge.net/DTD/sodipodi-0.dtd"
   xmlns="http://www.w3.org/2000/svg"
   xmlns:svg="http://www.w3.org/2000/svg">
  <sodipodi:namedview
     id="namedview3"
     pagecolor="#505050"
     bordercolor="#ffffff"
     borderopacity="1"
     inkscape:showpageshadow="0"
     inkscape:pageopacity="0"
     inkscape:pagecheckerboard="1"
     inkscape:deskcolor="#d1d1d1"
     inkscape:zoom="46.1875"
     inkscape:cx="7.9891746"
     inkscape:cy="7.9891746"
     inkscape:window-width="2560"
     inkscape:window-height="1388"
     inkscape:window-x="2560"
     inkscape:window-y="28"
     inkscape:window-maximized="1"
     inkscape:current-layer="svg3" />
  <defs
     id="defs1">
    <style
       type="text/css"
       id="current-color-scheme">.ColorScheme-Text{color:#232629;}.ColorScheme-NegativeText { color: #da4453; } </style>
  </defs>
  <path
     style="fill:currentColor;fill-opacity:1;stroke:none"
     class="ColorScheme-Text"
     d="M2 12V4h11v8zM0 2v12h15v-4h.5c.277 0 .5-.223.5-.5v-3c0-.277-.223-.5-.5-.5H15V2H3zm1 1h13v10H1z"
     id="path1" />
  <path
     style="fill:currentColor;fill-opacity:1;stroke:none"
     class="ColorScheme-NegativeText"
     d="M9 8h6c.554 0 1 .446 1 1v6c0 .554-.446 1-1 1H9c-.554 0-1-.446-1-1V9c0-.554.446-1 1-1z"
     id="path2" />
  <path
     d="M9.707 9L9 9.707 11.293 12 9 14.293l.707.707L12 12.707 14.293 15l.707-.707L12.707 12 15 9.707 14.293 9 12 11.293z"
     fill="#fff"
     id="path3" />
  <path
     style="fill:#ffffff;stroke:#cccccc;stroke-width:0.0216509"
     d="M 2.0135318,8 V 4.0162382 h 5.488498 5.4884982 V 6.007706 7.9991738 l -2.127199,0.00583 -2.1271991,0.00583 -0.1693484,0.080862 C 8.3743801,8.1835562 8.2085382,8.3375188 8.1142409,8.5118121 7.9911069,8.7394055 7.9898436,8.7589447 7.9894946,10.441137 l -3.2e-4,1.542625 H 5.0013532 2.0135318 Z"
     id="path4" />
  <path
     style="fill:#ffffff;stroke:#cccccc;stroke-width:0.0216509"
     d="M 0,8 V 2.0027064 h 7.4912043 7.4912047 v 2.0007632 2.0007631 l 0.330176,0.00736 c 0.31282,0.00697 0.335386,0.010419 0.429304,0.065633 0.121764,0.071584 0.209345,0.199289 0.237122,0.3457561 0.01198,0.06319 0.02049,0.5994033 0.01983,1.249802 -0.0012,1.1363479 -0.0013,1.1388255 -0.04088,1.014895 C 15.875135,8.4285939 15.671474,8.1996521 15.415426,8.077799 L 15.274696,8.010825 14.641407,8.003945 14.008119,7.997065 V 5.4978568 2.9986468 H 7.5020298 0.99594046 V 8 13.001353 H 4.4925575 7.9891746 v 0.49797 0.497971 H 3.9945873 0 Z"
     id="path5" />
</svg>
