<?xml version="1.0" encoding="UTF-8" standalone="no"?>
<svg
   viewBox="0 0 16 16"
   version="1.1"
   id="svg2"
   sodipodi:docname="camera-on.svg"
   inkscape:version="1.3.2 (091e20ef0f, 2023-11-25, custom)"
   xmlns:inkscape="http://www.inkscape.org/namespaces/inkscape"
   xmlns:sodipodi="http://sodipodi.sourceforge.net/DTD/sodipodi-0.dtd"
   xmlns="http://www.w3.org/2000/svg"
   xmlns:svg="http://www.w3.org/2000/svg">
  <sodipodi:namedview
     id="namedview2"
     pagecolor="#505050"
     bordercolor="#ffffff"
     borderopacity="1"
     inkscape:showpageshadow="0"
     inkscape:pageopacity="0"
     inkscape:pagecheckerboard="1"
     inkscape:deskcolor="#d1d1d1"
     inkscape:zoom="46.1875"
     inkscape:cx="7.9891746"
     inkscape:cy="7.9891746"
     inkscape:window-width="2560"
     inkscape:window-height="1388"
     inkscape:window-x="2560"
     inkscape:window-y="28"
     inkscape:window-maximized="1"
     inkscape:current-layer="svg2" />
  <defs
     id="defs3051">
    <style
       type="text/css"
       id="current-color-scheme">.ColorScheme-Text{color:#232629;}.ColorScheme-NegativeText { color: #da4453; } </style>
  </defs>
  <path
     style="fill:currentColor;fill-opacity:1;stroke:none"
     d="M 8 1 A 6 6 0 0 0 3.546875 3 L 1 3 C 0.446 3 0 3.446 0 4 L 0 10 C 0 10.554 0.446 11 1 11 L 3.5371094 11 A 6 6 0 0 0 7.9960938 13 C 7.4439454 13.002137 7 13.447332 7 14 C 7 14.028 7.012625 14.052078 7.015625 14.080078 C 5.393625 14.311078 3.9960938 15 3.9960938 15 L 3.9960938 16 L 11.996094 16 L 11.996094 15 C 11.996094 15 10.602562 14.311078 8.9765625 14.080078 C 8.9785625 14.052078 8.9921875 14.028 8.9921875 14 C 8.9921875 13.448663 8.550296 13.004259 8 13 A 6 6 0 0 0 12.453125 11 L 15 11 C 15.554 11 16 10.554 16 10 L 16 4 C 16 3.446 15.554 3 15 3 L 12.462891 3 A 6 6 0 0 0 8 1 z M 8 2 A 5 5 0 0 1 11.091797 3.0839844 A 5 5 0 0 1 11.291016 3.2480469 A 5 5 0 0 1 11.474609 3.4199219 A 5 5 0 0 1 11.658203 3.6074219 A 5 5 0 0 1 11.835938 3.8085938 A 5 5 0 0 1 11.992188 4 L 15 4 L 15 5 L 14 5 L 14 9 L 15 9 L 15 10 L 11.992188 10 A 5 5 0 0 1 10.990234 11 A 5 5 0 0 1 8 12 A 5 5 0 0 1 4.9082031 10.916016 A 5 5 0 0 1 4.7089844 10.751953 A 5 5 0 0 1 4.5253906 10.580078 A 5 5 0 0 1 4.3417969 10.392578 A 5 5 0 0 1 4.1640625 10.191406 A 5 5 0 0 1 4.0078125 10 L 1 10 L 1 9 L 2 9 L 2 5 L 1 5 L 1 4 L 4.0097656 4 A 5 5 0 0 1 4.328125 3.6152344 A 5 5 0 0 1 5.0097656 3 A 5 5 0 0 1 8 2 z "
     class="ColorScheme-Text"
     id="path1" />
  <path
     style="fill:currentColor;fill-opacity:1;stroke:none"
     class="ColorScheme-NegativeText"
     d="m 11,6.9999852 a 3,3 0 0 1 -3,3 3,3 0 0 1 -3,-3 3,3 0 0 1 3,-3 3,3 0 0 1 3,3 z"
     id="path2" />
  <path
     style="opacity:1;fill:#ffffff;stroke:#cccccc;stroke-width:0.0216509"
     d="m 4.0056329,15.496617 2.202e-4,-0.492557 0.091796,-0.04024 c 0.9369362,-0.410734 1.8682785,-0.700539 2.6780315,-0.833321 l 0.2283789,-0.03745 0.014194,-0.161544 C 7.0415505,13.666353 7.1275617,13.479887 7.310661,13.297587 7.4438174,13.165013 7.6796846,13.046655 7.8446591,13.029628 8.0612799,13.007268 7.9976975,12.986648 7.669088,12.972678 6.1839011,12.909538 4.6701121,12.204789 3.6509084,11.101998 L 3.5453889,10.987821 H 2.2102608 c -1.1367983,0 -1.35429672,-0.005 -1.46416935,-0.0336 C 0.36706518,10.855521 0.07258998,10.516944 0.02208919,10.121786 -0.0057966,9.903586 -0.00564102,4.1024836 0.02225639,3.8875191 0.07322448,3.494783 0.32083362,3.1889154 0.68790082,3.0652593 0.81738724,3.0216385 0.86191556,3.0202977 2.1810494,3.0202977 H 3.5407312 L 3.7568338,2.801919 C 4.4304041,2.1212542 5.1846629,1.64448 6.0730717,1.3378033 8.1268936,0.6288286 10.396821,1.1010384 12.022042,2.5753596 c 0.121842,0.1105289 0.273462,0.2558564 0.336934,0.3229499 l 0.115403,0.1219882 h 1.352127 c 1.311485,0 1.356138,0.00135 1.485593,0.044962 0.309207,0.1041642 0.527885,0.3279304 0.638062,0.6529088 0.03627,0.1069714 0.03906,0.3025306 0.04503,3.1559862 0.0041,1.9737067 -0.0014,3.1065753 -0.01572,3.2259803 -0.0391,0.325816 -0.217497,0.598709 -0.499096,0.763475 -0.208771,0.122154 -0.236698,0.124211 -1.686193,0.124211 h -1.330681 l -0.261522,0.255109 c -0.774884,0.75588 -1.618996,1.246804 -2.6322942,1.530907 -0.4201726,0.117806 -1.0015847,0.205865 -1.3592241,0.205865 -0.2201833,0 -0.2532561,0.02948 -0.055925,0.04984 0.2754607,0.02843 0.5952784,0.267282 0.7228181,0.539828 0.072005,0.153872 0.1176602,0.362169 0.099396,0.45349 -0.01386,0.0693 -0.028736,0.06334 0.2898228,0.116083 0.4609935,0.07633 1.1361944,0.255079 1.6562924,0.438487 0.340319,0.120011 0.813514,0.308861 0.968877,0.386674 l 0.102841,0.05151 v 0.486781 0.48678 H 8 4.0054127 Z m 4.4923373,-3.513178 c 1.3313029,-0.147702 2.5305068,-0.790081 3.3642138,-1.802113 l 0.138228,-0.167794 h 1.501824 1.501824 V 9.5047361 8.9959405 h -0.497971 -0.49797 V 7.0040595 5.0121786 h 0.49797 0.497971 V 4.5033829 3.9945873 H 13.501762 11.999465 L 11.87338,3.8376184 C 11.804034,3.7512855 11.644614,3.5783099 11.519115,3.4532283 10.263973,2.2022668 8.4639465,1.7137588 6.7390346,2.1559657 5.7299297,2.4146649 4.7619785,3.0407768 4.1064069,3.8588609 L 3.9976424,3.9945873 H 2.4967916 0.99594046 V 4.5033829 5.0121786 H 1.4939107 1.9918809 v 1.9918809 1.991881 H 1.4939107 0.99594046 V 9.5047361 10.013532 H 2.4983342 4.0007279 l 0.1520723,0.17862 c 0.3092484,0.363234 0.7037961,0.719506 1.0650618,0.961738 0.6603431,0.442766 1.4892468,0.746935 2.2527881,0.826666 0.2580256,0.02694 0.7968195,0.02846 1.0273201,0.0029 z"
     id="path3" />
</svg>
