<?xml version="1.0" encoding="UTF-8" standalone="no"?>
<svg
   viewBox="0 0 16 16"
   version="1.1"
   id="svg2"
   sodipodi:docname="camera-off.svg"
   inkscape:version="1.3.2 (091e20ef0f, 2023-11-25, custom)"
   xmlns:inkscape="http://www.inkscape.org/namespaces/inkscape"
   xmlns:sodipodi="http://sodipodi.sourceforge.net/DTD/sodipodi-0.dtd"
   xmlns="http://www.w3.org/2000/svg"
   xmlns:svg="http://www.w3.org/2000/svg">
  <defs
     id="defs2" />
  <sodipodi:namedview
     id="namedview2"
     pagecolor="#505050"
     bordercolor="#ffffff"
     borderopacity="1"
     inkscape:showpageshadow="0"
     inkscape:pageopacity="0"
     inkscape:pagecheckerboard="1"
     inkscape:deskcolor="#d1d1d1"
     inkscape:zoom="46.1875"
     inkscape:cx="7.9891746"
     inkscape:cy="7.9891746"
     inkscape:window-width="2560"
     inkscape:window-height="1388"
     inkscape:window-x="2560"
     inkscape:window-y="28"
     inkscape:window-maximized="1"
     inkscape:current-layer="svg2" />
  <style
     type="text/css"
     id="current-color-scheme">.ColorScheme-Text{color:#232629;}.ColorScheme-NegativeText { color: #da4453; } </style>
  <path
     d="m8 1a6 6 0 0 0 -3.6914062 1.2929688l.7050781.7050781a5 5 0 0 1 2.9863281-.9980469 5 5 0 0 1 3.091797 1.0839844 5 5 0 0 1 .199219.1640625 5 5 0 0 1 .183593.171875 5 5 0 0 1 .183594.1875 5 5 0 0 1 .177735.2011719 5 5 0 0 1 .15625.1914062h3.007812v1h-1v4h1v1h-2.984375l1 1h1.984375c.554 0 1-.446 1-1v-6c0-.554-.446-1-1-1h-2.537109a6 6 0 0 0 -4.462891-2zm-7.01367188 2.0019531c-.54732762.0076274-.98632812.4488411-.98632812.9980469v6c0 .554.446 1 1 1h2.5371094a6 6 0 0 0 4.4589844 2c-.5521485.002137-.9960938.447332-.9960938 1 0 .028.012625.052078.015625.080078-1.622.231-3.0195312.919922-3.0195312.919922v1h8.0000002v-1s-1.393532-.688922-3.0195315-.919922c.002-.028.015625-.052078.015625-.080078 0-.551337-.4418915-.995741-.9921875-1a6 6 0 0 0 2.449219-.535156l-.7636721-.763672a5 5 0 0 1 -1.6855469.298828 5 5 0 0 1 -3.0917969-1.083984 5 5 0 0 1 -.1992187-.164063 5 5 0 0 1 -.1835938-.171875 5 5 0 0 1 -.1835937-.1875 5 5 0 0 1 -.1777344-.201172 5 5 0 0 1 -.15625-.191406h-3.0078125v-1h1v-4h-1v-1h.984375zm7.01367188.9980469a3 3 0 0 0 -1.5488281.4355469l4.1132811 4.1132812a3 3 0 0 0 .435547-1.5488281 3 3 0 0 0 -3-3zm-3 3.015625a3 3 0 0 0 2.984375 2.984375z"
     style="fill:currentColor;fill-opacity:1;stroke:none"
     class="ColorScheme-Text"
     id="path1" />
  <path
     d="m-.49999991.50000009h1v21.62741691h-1z"
     style="fill:currentColor;fill-opacity:1;stroke:none"
     class="ColorScheme-NegativeText"
     transform="matrix(.70710678 -.70710678 .70710678 .70710678 0 0)"
     id="path2" />
  <path
     style="fill:#ffffff;stroke:#cccccc;stroke-width:0.0216509;opacity:0.3"
     d="m 4.0056329,15.496617 2.202e-4,-0.492557 0.091796,-0.04024 c 0.9369362,-0.410734 1.8682785,-0.700539 2.6780315,-0.833321 l 0.2283789,-0.03745 0.014194,-0.161544 C 7.0415505,13.666353 7.1275617,13.479887 7.310661,13.297587 7.4438174,13.165013 7.6796846,13.046655 7.8446591,13.029628 8.0612799,13.007268 7.9976975,12.986648 7.669088,12.972678 6.1845233,12.909564 4.6719149,12.205312 3.6509081,11.101861 L 3.5453889,10.987821 H 2.2102608 c -1.1367983,0 -1.35429672,-0.005 -1.46416935,-0.0336 C 0.36706518,10.855521 0.07258998,10.516944 0.02208919,10.121786 -0.00590093,9.9027696 -0.00563381,4.1024383 0.02237634,3.886564 0.05064314,3.6687115 0.15442724,3.4547534 0.30375236,3.3064879 0.45213603,3.1591571 0.68426592,3.0422648 0.85755107,3.0276147 L 0.98511502,3.01683 1.4720794,3.5057087 1.9590437,3.9945873 H 1.4774921 0.99594046 V 4.5033829 5.0121786 H 1.4939107 1.9918809 v 1.9918809 1.991881 H 1.4939107 0.99594046 V 9.5047361 10.013532 H 2.4983342 4.0007279 l 0.1520723,0.17862 c 0.1914843,0.224911 0.553199,0.578276 0.751124,0.733783 1.2979529,1.019789 3.0013311,1.341255 4.553277,0.859307 l 0.2231008,-0.06928 0.366886,0.36641 c 0.201787,0.201525 0.366885,0.371821 0.366885,0.378436 0,0.01966 -0.4976785,0.208859 -0.7342161,0.279129 -0.4703409,0.139728 -1.0834286,0.239768 -1.4693922,0.239768 -0.2201833,0 -0.2532561,0.02948 -0.055925,0.04984 0.2754607,0.02843 0.5952784,0.267282 0.7228181,0.539828 0.072005,0.153872 0.1176602,0.362169 0.099396,0.45349 -0.01386,0.0693 -0.028736,0.06334 0.2898228,0.116083 0.4609935,0.07633 1.1361944,0.255079 1.6562924,0.438487 0.340319,0.120011 0.813514,0.308861 0.968877,0.386674 l 0.102841,0.05151 v 0.486781 0.48678 H 8 4.0054127 Z"
     id="path6" />
  <path
     style="opacity:0.3;fill:#ffffff;stroke:#cccccc;stroke-width:0.0216509"
     d="M 7.7077131,9.9768357 C 6.7361914,9.8727931 5.892531,9.3204077 5.3950995,8.4626555 5.2021486,8.1299381 5.0593165,7.6698628 5.0262928,7.2746955 5.0163415,7.1556157 5.0095141,7.0561436 5.011121,7.0536463 c 0.00161,-0.0025 0.6649922,0.657584 1.4741897,1.4668471 1.466121,1.4662398 1.4709653,1.4713754 1.3847243,1.4679225 -0.047599,-0.00191 -0.1206439,-0.00712 -0.1623219,-0.01158 z"
     id="path7" />
  <path
     style="opacity:0.3;fill:#ffffff;stroke:#cccccc;stroke-width:0.0216509"
     d="M 8.5083706,6.473188 6.464546,4.4292775 6.691001,4.321495 C 7.1744757,4.0913826 7.4604284,4.0270636 8,4.0270636 c 0.4324225,0 0.5695908,0.019821 0.91658,0.1324505 0.7060947,0.2291909 1.303034,0.7135252 1.677993,1.3614602 0.488493,0.8441253 0.519696,1.9279062 0.08065,2.8011319 -0.04773,0.094924 -0.09493,0.1776303 -0.1049,0.1837909 -0.01,0.00616 -0.9378448,-0.9085584 -2.0619484,-2.0327091 z"
     id="path8" />
  <path
     style="opacity:0.3;fill:#ffffff;stroke:#cccccc;stroke-width:0.0216509"
     d="m 12.535859,10.500677 -0.486784,-0.487145 h 1.477492 1.477493 V 9.5047361 8.9959405 h -0.497971 -0.49797 V 7.0040595 5.0121786 h 0.49797 0.497971 V 4.5033829 3.9945873 H 13.501762 11.999465 L 11.873554,3.8376184 C 11.576445,3.4672238 11.055278,3.0098571 10.626705,2.7434072 10.028504,2.3714966 9.2930793,2.1149946 8.5629229,2.0235994 8.303777,1.9911616 7.7064225,1.9911789 7.4370771,2.023632 6.6286807,2.1210348 5.8761745,2.4014998 5.1888105,2.8615788 L 5.0139613,2.978612 4.670185,2.6348357 4.3264086,2.2910594 4.4761372,2.180061 C 4.9893361,1.7996109 5.6886719,1.4493489 6.2943216,1.2694241 7.7612406,0.83363576 9.2683603,0.95730874 10.619756,1.6243657 c 0.653191,0.3224187 1.258505,0.7657987 1.73922,1.2739438 l 0.115403,0.1219882 h 1.352127 c 1.311485,0 1.356138,0.00135 1.485593,0.044962 0.309207,0.1041642 0.527885,0.3279304 0.638062,0.6529088 0.03627,0.1069714 0.03906,0.3025306 0.04503,3.1559862 0.0041,1.9737067 -0.0014,3.1065753 -0.01572,3.2259803 -0.0391,0.325816 -0.217497,0.598709 -0.499096,0.763475 -0.203389,0.119005 -0.262345,0.124211 -1.406624,0.124211 h -1.051112 z"
     id="path9" />
  <path
     style="fill:#ffffff;stroke:#cccccc;stroke-width:0.0216509"
     d="m 4.0320621,15.487168 0.00583,-0.480355 0.3897159,-0.159715 c 0.7628748,-0.312644 1.5173609,-0.540588 2.2314067,-0.674148 0.198408,-0.03711 0.3478054,-0.07569 0.3585096,-0.09258 0.010093,-0.01592 0.018501,-0.06831 0.018683,-0.11642 0.00162,-0.427633 0.3387304,-0.813162 0.7944006,-0.9085 0.2528466,-0.0529 0.2216459,-0.07537 -0.138094,-0.09943 C 7.007984,12.910237 6.5061437,12.804999 5.8998647,12.580098 5.3761115,12.385809 4.6966593,11.996899 4.2533317,11.637641 4.1586542,11.560917 3.9592028,11.378984 3.8101062,11.233345 l -0.2710846,-0.264799 -1.3852077,-0.0066 -1.38520768,-0.0066 -0.15032755,-0.07119 C 0.53559851,10.845007 0.42711879,10.779514 0.37721262,10.73862 0.26063615,10.643094 0.13568266,10.454293 0.07793784,10.286423 0.03257588,10.154552 0.03247632,10.147411 0.03247632,7.0257104 0.03247632,4.0371256 0.03428656,3.8905921 0.0729388,3.75039 0.16178848,3.4281081 0.41479937,3.1704352 0.73464684,3.0764892 0.96436038,3.0090175 0.93482451,2.9912392 1.4506089,3.5074425 L 1.9157252,3.9729364 H 1.4450074 0.97428958 V 4.5033829 5.0338295 H 1.4722598 1.97023 v 1.97023 1.9702301 H 1.4722598 0.97428958 V 9.5047361 10.035183 H 2.4862277 3.9981655 l 0.073828,0.09202 c 0.1259023,0.156919 0.5381528,0.57321 0.723357,0.730446 0.6184762,0.525078 1.4938338,0.9355 2.3081658,1.082212 0.8007032,0.144256 1.5291677,0.102873 2.3441044,-0.133168 l 0.2351716,-0.06812 0.3494017,0.351513 c 0.322217,0.324163 0.346303,0.353792 0.309566,0.380802 -0.06186,0.04549 -0.5578765,0.221612 -0.8243367,0.29271 -0.3482964,0.09293 -0.8471772,0.172675 -1.1750324,0.187818 -0.2881613,0.01331 -0.370954,0.03151 -0.3130871,0.06884 0.016117,0.0104 0.076521,0.02449 0.1342301,0.03133 0.2509949,0.02973 0.5726211,0.27261 0.689543,0.520723 0.068307,0.14495 0.1103872,0.315034 0.1103872,0.446171 v 0.084 l 0.1136672,0.02222 c 0.062517,0.01222 0.2013531,0.03783 0.308525,0.0569 0.6872917,0.122303 1.6187487,0.41519 2.3870097,0.750571 l 0.20027,0.08743 v 0.473963 0.473962 H 7.9995858 4.0262352 Z"
     id="path3" />
  <path
     style="fill:#ffffff;stroke:#cccccc;stroke-width:0.0216509"
     d="M 7.6752368,9.9556018 C 7.6395129,9.9511249 7.5129829,9.9272827 7.394059,9.9026193 6.8172903,9.7830045 6.2943289,9.4901802 5.8692026,9.0487992 5.3688478,8.5293131 5.1216611,7.9738605 5.0363358,7.1772666 l -0.010436,-0.097429 1.4166847,1.4218097 c 0.7791765,0.7819952 1.4166847,1.4323335 1.4166847,1.4451961 0,0.022805 -0.052145,0.025287 -0.1840325,0.00876 z"
     id="path4" />
  <path
     style="fill:#ffffff;stroke:#cccccc;stroke-width:0.0216509"
     d="M 8.5189878,6.4574238 6.4892834,4.4388859 6.6817188,4.3472081 C 7.174118,4.1126253 7.4455721,4.0530555 8.0216509,4.0531636 c 0.4234782,7.95e-5 0.5619368,0.018794 0.8602178,0.1162673 1.1097561,0.3626514 1.8923043,1.2851898 2.0535593,2.4209189 0.04054,0.2855032 0.01436,0.827958 -0.05288,1.0957124 -0.07869,0.3133469 -0.250294,0.7382578 -0.314073,0.7776756 -0.01088,0.00672 -0.9331459,-0.8961182 -2.0494832,-2.006314 z"
     id="path5" />
  <path
     style="fill:#ffffff;stroke:#cccccc;stroke-width:0.0216509"
     d="m 12.557699,10.501862 -0.465305,-0.466679 h 1.466658 1.466658 V 9.5047361 8.9742896 h -0.49797 -0.49797 v -1.9702301 -1.97023 h 0.49797 0.49797 V 4.5033829 3.9729364 h -1.511489 -1.51149 l -0.04799,-0.06491 C 11.771154,3.659712 11.328129,3.2314104 10.987821,2.973242 10.310551,2.4594421 9.4109999,2.1029431 8.541272,2.0036556 8.2909947,1.9750841 7.7095119,1.9750464 7.458728,2.0035854 7.1443432,2.0393621 6.7536087,2.126061 6.4350533,2.2307255 6.0879205,2.3447793 5.5384433,2.6095795 5.2286874,2.8120889 L 5.0121786,2.953636 4.6819064,2.6244804 4.3516341,2.2953248 4.4004449,2.2574169 C 4.6721199,2.0464261 5.1706975,1.7532941 5.5751015,1.5667935 6.5302666,1.126296 7.6661014,0.94785568 8.714479,1.0735955 9.9988086,1.2276349 11.254111,1.84309 12.230588,2.7974882 l 0.248298,0.2426845 1.38708,0.0063 1.387079,0.0063 0.146328,0.069314 c 0.202999,0.096159 0.366326,0.2567115 0.465707,0.457796 l 0.0802,0.162277 0.01709,0.6512468 c 0.0094,0.3581858 0.0144,1.8009086 0.01112,3.2060507 l -0.006,2.5548048 -0.05037,0.139562 c -0.102905,0.285099 -0.31105,0.509985 -0.566675,0.612252 -0.116292,0.04652 -0.144935,0.04781 -1.223275,0.05505 l -1.104195,0.0074 z"
     id="path10" />
</svg>
