<?xml version="1.0" encoding="UTF-8" standalone="no"?>
<svg
   width="16"
   height="16"
   version="1.1"
   id="svg6"
   sodipodi:docname="device-notifier-symbolic.svg"
   inkscape:version="1.3.2 (091e20ef0f, 2023-11-25, custom)"
   xmlns:inkscape="http://www.inkscape.org/namespaces/inkscape"
   xmlns:sodipodi="http://sodipodi.sourceforge.net/DTD/sodipodi-0.dtd"
   xmlns="http://www.w3.org/2000/svg"
   xmlns:svg="http://www.w3.org/2000/svg">
  <sodipodi:namedview
     id="namedview1"
     pagecolor="#505050"
     bordercolor="#ffffff"
     borderopacity="1"
     inkscape:showpageshadow="0"
     inkscape:pageopacity="0"
     inkscape:pagecheckerboard="1"
     inkscape:deskcolor="#d1d1d1"
     inkscape:zoom="46.1875"
     inkscape:cx="7.9891746"
     inkscape:cy="7.9891746"
     inkscape:window-width="2560"
     inkscape:window-height="1388"
     inkscape:window-x="2560"
     inkscape:window-y="28"
     inkscape:window-maximized="1"
     inkscape:current-layer="svg6" />
  <defs
     id="defs10" />
  <namedview
     id="namedview8"
     pagecolor="#ffffff"
     bordercolor="#000000"
     borderopacity="0.25"
     inkscape:showpageshadow="2"
     inkscape:pageopacity="0.0"
     inkscape:pagecheckerboard="0"
     inkscape:deskcolor="#d1d1d1"
     showgrid="false"
     inkscape:zoom="48.3125"
     inkscape:cx="6.8926261"
     inkscape:cy="7.9896507"
     inkscape:window-width="1920"
     inkscape:window-height="1011"
     inkscape:window-x="0"
     inkscape:window-y="0"
     inkscape:window-maximized="1"
     inkscape:current-layer="svg6" />
  <style
     type="text/css"
     id="current-color-scheme">.ColorScheme-Text{color:#31363b;}.ColorScheme-Background{color:#eff0f1;}.ColorScheme-Highlight{color:#3daee9;}.ColorScheme-ViewText{color:#31363b;}.ColorScheme-ViewBackground{color:#fcfcfc;}.ColorScheme-ViewHover{color:#93cee9;}.ColorScheme-ViewFocus{color:#3daee9;}.ColorScheme-ButtonText{color:#31363b;}.ColorScheme-ButtonBackground{color:#eff0f1;}.ColorScheme-ButtonHover{color:#93cee9;}.ColorScheme-ButtonFocus { color: #3daee9; } </style>
  <g
     id="16-16-device-notifier"
     transform="translate(-387,-537.36218)">
    <rect
       style="opacity:0.2;fill:none;fill-opacity:1;stroke:none"
       id="rect4182"
       width="15.999985"
       height="15.999985"
       x="387"
       y="537.36218" />
    <path
       id="rect4188"
       transform="translate(321,529.36218)"
       d="m 71,10 v 6 h -1 v 1 4 1 h 1 6 1 v -1 -4 -1 h -1 v -6 z m 1,2 h 1 v 3 h -1 z m 3,0 h 1 v 3 h -1 z m -4,5 h 6 v 4 h -6 z m 1,2 v 1 h 4 v -1 z"
       style="opacity:1;fill:currentColor;fill-opacity:1;stroke:none"
       inkscape:connector-curvature="0"
       class="ColorScheme-Text" />
  </g>
  <path
     style="fill:#ffffff;stroke:#cccccc;stroke-width:0.0216509"
     d="M 4.0054127,10.998647 V 8 H 4.5033829 5.0013532 V 5.0013532 2.0027064 H 8 10.998647 V 5.0013532 8 h 0.49797 0.49797 v 2.998647 2.998647 H 8 4.0054127 Z m 7.0040593,0 V 9.0067659 H 8 4.9905277 l -0.00559,1.9702301 c -0.00307,1.083626 -9.292e-4,1.982443 0.00476,1.99737 0.00824,0.02161 0.6226966,0.02602 3.0150581,0.02165 l 3.0047102,-0.0055 z M 7.014885,5.4993234 V 3.9945873 H 6.5060893 5.9972936 V 5.4993234 7.0040595 H 6.5060893 7.014885 Z m 2.987821,0 V 3.9945873 H 9.4939107 8.985115 v 1.5047361 1.5047361 h 0.5087957 0.5087953 z"
     id="path1" />
  <path
     style="fill:#ffffff;stroke:#cccccc;stroke-width:0.0216509"
     d="M 6.0189445,11.496617 V 11.009472 H 8 9.9810555 v 0.487145 0.487145 H 8 6.0189445 Z"
     id="path2" />
</svg>
