<?xml version="1.0" encoding="UTF-8" standalone="no"?>
<svg
   width="16"
   height="16"
   version="1.1"
   id="svg3"
   sodipodi:docname="disk-quota-critical.svg"
   inkscape:version="1.3.2 (091e20ef0f, 2023-11-25, custom)"
   xmlns:inkscape="http://www.inkscape.org/namespaces/inkscape"
   xmlns:sodipodi="http://sodipodi.sourceforge.net/DTD/sodipodi-0.dtd"
   xmlns="http://www.w3.org/2000/svg"
   xmlns:svg="http://www.w3.org/2000/svg">
  <defs
     id="defs3" />
  <sodipodi:namedview
     id="namedview3"
     pagecolor="#505050"
     bordercolor="#ffffff"
     borderopacity="1"
     inkscape:showpageshadow="0"
     inkscape:pageopacity="0"
     inkscape:pagecheckerboard="1"
     inkscape:deskcolor="#d1d1d1"
     inkscape:zoom="46.1875"
     inkscape:cx="7.9891746"
     inkscape:cy="7.9891746"
     inkscape:window-width="2560"
     inkscape:window-height="1388"
     inkscape:window-x="2560"
     inkscape:window-y="28"
     inkscape:window-maximized="1"
     inkscape:current-layer="svg3" />
  <style
     type="text/css"
     id="current-color-scheme">.ColorScheme-Text{color:#232629;}.ColorScheme-NeutralText{color:#f67400;}.ColorScheme-NegativeText { color: #da4453; } </style>
  <g
     id="disk-quota-critical"
     transform="translate(-3,-3)">
    <path
       style="fill:currentColor;fill-opacity:1;stroke:none"
       d="M 16 12 C 14.343146 12 13 12.447715 13 13 L 13 18 C 13 18.552285 14.343146 19 16 19 C 17.656854 19 19 18.552285 19 18 L 19 13 C 19 12.447715 17.656854 12 16 12 z M 16 13 C 16.739186 13.00087 17.451386 13.09268 18 13.257812 L 18 13.744141 C 17.450517 13.908567 16.738413 13.999666 16 14 C 15.260814 13.99913 14.548614 13.90732 14 13.742188 L 14 13.255859 C 14.549483 13.091433 15.261587 13.000334 16 13 z "
       class="ColorScheme-NegativeText"
       id="path1" />
    <path
       style="fill:currentColor;fill-opacity:1;stroke:none"
       d="m 9,6 v 5 h 2 V 6 Z m 0,6 v 2 h 2 v -2 z"
       class="ColorScheme-NegativeText"
       id="path2" />
    <path
       style="fill:currentColor;fill-opacity:1;stroke:none"
       d="m 4,3 v 16 h 8 V 16 H 7 L 5,14 V 11.9 C 5.6,11.7 6,11.1 6,10.5 6,9.9 5.6,9.3 5,9.1 V 7 C 5,5.3 6.3,4 8,4 h 4 c 1.66,0 3,1.34 3,3 v 2.1 c -0.6,0.2 -1,0.8 -1,1.4 6.76e-4,0.2 0,0.3 0.1,0.5 H 16 V 3 Z m 2,14 h 5 v 1 H 6 Z"
       class="ColorScheme-Text"
       id="path3" />
  </g>
  <path
     style="fill:#ffffff;stroke:#cccccc;stroke-width:0.0216509"
     d="M 1.0175913,8 V 0.01082544 H 7.0040595 12.990528 V 4.0054127 8 H 12.052724 11.114921 L 11.074261,7.918809 C 11.016403,7.8032565 11.002496,7.3685779 11.050478,7.1752883 11.16242,6.7243406 11.512995,6.3072888 11.914776,6.1471006 l 0.104221,-0.041553 -0.0093,-1.2341001 C 11.999354,3.5083434 11.996507,3.4749909 11.854148,3.0493071 11.503129,1.999688 10.628485,1.2427306 9.526387,1.0347548 9.3366651,0.99895253 9.1400866,0.99594046 6.9932341,0.99594046 c -2.1789701,0 -2.3412835,0.002575 -2.5439783,0.0403561 C 3.220831,1.2652686 2.3378805,2.1192274 2.051434,3.3553858 2.0088302,3.539242 2.0056634,3.6260687 1.9976467,4.8300919 l -0.00852,1.2793475 0.097373,0.037187 c 0.053555,0.020453 0.1540389,0.07412 0.2232978,0.1192612 C 2.8053047,6.5888441 3.0759212,7.2224315 2.957993,7.7834913 2.862386,8.2383553 2.489702,8.6956442 2.0838959,8.8560222 l -0.092016,0.036366 v 1.0532167 1.0532161 l 1.0014396,1.001266 1.0014396,1.001266 H 6.4899375 8.985115 v 1.493911 1.493911 H 5.0013532 1.0175913 Z m 6.9932341,6.506089 v -0.508795 h -2.511502 -2.511502 v 0.508795 0.508796 h 2.511502 2.511502 z"
     id="path4" />
</svg>
