<?xml version="1.0" encoding="UTF-8" standalone="no"?>
<svg
   width="16"
   height="16"
   version="1.1"
   id="svg2"
   sodipodi:docname="disk-quota.svg"
   inkscape:version="1.3.2 (091e20ef0f, 2023-11-25, custom)"
   xmlns:inkscape="http://www.inkscape.org/namespaces/inkscape"
   xmlns:sodipodi="http://sodipodi.sourceforge.net/DTD/sodipodi-0.dtd"
   xmlns="http://www.w3.org/2000/svg"
   xmlns:svg="http://www.w3.org/2000/svg">
  <defs
     id="defs2" />
  <sodipodi:namedview
     id="namedview2"
     pagecolor="#505050"
     bordercolor="#ffffff"
     borderopacity="1"
     inkscape:showpageshadow="0"
     inkscape:pageopacity="0"
     inkscape:pagecheckerboard="1"
     inkscape:deskcolor="#d1d1d1"
     inkscape:zoom="46.1875"
     inkscape:cx="7.9891746"
     inkscape:cy="7.9891746"
     inkscape:window-width="2560"
     inkscape:window-height="1388"
     inkscape:window-x="2560"
     inkscape:window-y="28"
     inkscape:window-maximized="1"
     inkscape:current-layer="svg2" />
  <style
     type="text/css"
     id="current-color-scheme">.ColorScheme-Text{color:#232629;}.ColorScheme-NeutralText{color:#f67400;}.ColorScheme-NegativeText { color: #da4453; } </style>
  <g
     id="disk-quota"
     class="ColorScheme-Text"
     transform="translate(-3,-3)">
    <path
       style="fill:currentColor;fill-opacity:1;stroke:none"
       d="M 16 12 A 3 1 0 0 0 13 13 L 13 18 A 3 1 0 0 0 16 19 A 3 1 0 0 0 19 18 L 19 13 A 3 1 0 0 0 16 12 z M 15.9 13 A 3 1 0 0 1 16 13 A 3 1 0 0 1 18 13.257812 L 18 13.74 A 3 1 0 0 1 16 14 A 3 1 0 0 1 14 13.7 L 14 13.2 A 3 1 0 0 1 15.9 13 z M 14 14.74 A 3 1 0 0 0 16 15 A 3 1 0 0 0 18 14.74 L 18 15.74 A 3 1 0 0 1 16 16 A 3 1 0 0 1 14 15.7 L 14 14.74 z M 14 16.74 A 3 1 0 0 0 16 17 A 3 1 0 0 0 18 16.74 L 18 17.74 A 3 1 0 0 1 16 18 A 3 1 0 0 1 14 17.7 L 14 16.74 z "
       id="path1" />
    <path
       style="fill:currentColor;fill-opacity:1;stroke:none"
       d="m 4,3 v 16 h 8 V 16 H 7 L 5,14 V 11.9 C 5.6,11.7 6,11.1 6,10.5 6,9.9 5.6,9.3 5,9.1 V 7 C 5,5.3 6.3,4 8,4 h 4 c 1.66,0 3,1.34 3,3 V 9.1 C 14.4,9.3 14,9.9 14,10.5 c 6.76e-4,0.2 0,0.3 0.1,0.5 H 16 V 3 Z m 2,14 h 5 v 1 H 6 Z"
       id="path2" />
  </g>
  <path
     style="fill:#ffffff;stroke:#cccccc;stroke-width:0.0216509"
     d="M 1.0175913,8 V 0.01082544 H 7.0040595 12.990528 V 4.0054127 8 H 12.052724 11.114921 L 11.074261,7.918809 C 11.016403,7.8032565 11.002496,7.3685779 11.050478,7.1752883 11.16242,6.7243406 11.512995,6.3072888 11.914776,6.1471006 l 0.104221,-0.041553 -0.0093,-1.2341001 C 11.999354,3.5083434 11.996507,3.4749909 11.854148,3.0493071 11.503129,1.999688 10.628485,1.2427306 9.526387,1.0347548 9.3366651,0.99895253 9.1400866,0.99594046 6.9932341,0.99594046 c -2.1789701,0 -2.3412835,0.002575 -2.5439783,0.0403561 C 3.220831,1.2652686 2.3378805,2.1192274 2.051434,3.3553858 2.0088302,3.539242 2.0056634,3.6260687 1.9976467,4.8300919 l -0.00852,1.2793475 0.097373,0.037187 c 0.053555,0.020453 0.1540389,0.07412 0.2232978,0.1192612 C 2.8053047,6.5888441 3.0759212,7.2224315 2.957993,7.7834913 2.862386,8.2383553 2.489702,8.6956442 2.0838959,8.8560222 l -0.092016,0.036366 v 1.0532167 1.0532161 l 1.0014396,1.001266 1.0014396,1.001266 H 6.4899375 8.985115 v 1.493911 1.493911 H 5.0013532 1.0175913 Z m 6.9932341,6.506089 v -0.508795 h -2.511502 -2.511502 v 0.508795 0.508796 h 2.511502 2.511502 z"
     id="path3" />
  <path
     style="fill:#ffffff;stroke:#cccccc;stroke-width:0.0216509"
     d="m 12.481732,15.97633 c -1.255866,-0.0931 -2.178679,-0.393135 -2.407761,-0.782847 l -0.06044,-0.10282 -0.0058,-2.560808 -0.0058,-2.5608089 0.04677,-0.10871 c 0.153015,-0.3556934 0.871331,-0.6498561 1.934984,-0.7924092 0.361769,-0.048485 1.583161,-0.055037 1.948579,-0.010452 1.052612,0.1284283 1.824281,0.4238 2.008863,0.7689323 l 0.04797,0.089696 0.0065,2.4898508 c 0.0036,1.369418 5.55e-4,2.540247 -0.0068,2.601842 -0.0083,0.0698 -0.03672,0.14729 -0.07546,0.205684 -0.218494,0.329348 -0.953279,0.6015 -1.948679,0.721756 -0.275764,0.03331 -1.230972,0.05978 -1.483085,0.04109 z m 1.320704,-1.005723 c 0.372548,-0.03615 0.740488,-0.09882 1.033829,-0.176082 l 0.167795,-0.04419 v -0.506424 c 0,-0.278533 -0.0055,-0.506424 -0.01232,-0.506424 -0.0068,0 -0.106638,0.02365 -0.221922,0.05256 -0.521528,0.130783 -1.086512,0.192023 -1.76847,0.19169 -0.686288,-3.36e-4 -1.248348,-0.06126 -1.76847,-0.19169 -0.115284,-0.02891 -0.215149,-0.05256 -0.221922,-0.05256 -0.0068,0 -0.01231,0.218432 -0.01231,0.485405 v 0.485405 l 0.102841,0.03377 c 0.321662,0.105608 0.965382,0.21654 1.454769,0.2507 0.301642,0.02106 0.912928,0.01019 1.246179,-0.02215 z M 14.02977,12.94837 c 0.27933,-0.03835 0.47996,-0.07622 0.774019,-0.146103 l 0.200271,-0.0476 v -0.514325 -0.514324 l -0.102842,0.03132 c -0.15025,0.04576 -0.60657,0.134269 -0.893099,0.173234 -0.341049,0.04638 -1.274571,0.06527 -1.656292,0.03351 -0.402439,-0.03348 -0.812284,-0.09701 -1.110062,-0.172063 l -0.243118,-0.06128 v 0.491619 0.491618 l 0.20027,0.05619 c 0.354818,0.09955 0.69723,0.157701 1.282815,0.217852 0.207524,0.02132 1.309529,-0.0069 1.548038,-0.03965 z m -0.09296,-1.991136 c 0.391924,-0.04763 0.702731,-0.105173 0.954262,-0.176673 l 0.114348,-0.0325 -0.0061,-0.252074 -0.0061,-0.252074 -0.06495,-0.01833 c -0.855475,-0.2414343 -2.276787,-0.3038292 -3.34506,-0.146847 -0.14885,0.02187 -0.341272,0.05591 -0.427605,0.07562 l -0.156969,0.03585 v 0.256797 c 0,0.141239 0.0089,0.262319 0.01985,0.269067 0.01092,0.0067 0.151632,0.04604 0.312695,0.08732 0.304532,0.07805 0.749358,0.149682 1.139712,0.183531 0.307564,0.02667 1.141036,0.0098 1.465903,-0.0297 z"
     id="path4" />
</svg>
