<?xml version="1.0" encoding="UTF-8" standalone="no"?>
<svg
   height="16"
   width="16"
   version="1.1"
   id="svg3"
   sodipodi:docname="firewall-applet-panic.svg"
   inkscape:version="1.3.2 (091e20ef0f, 2023-11-25, custom)"
   xmlns:inkscape="http://www.inkscape.org/namespaces/inkscape"
   xmlns:sodipodi="http://sodipodi.sourceforge.net/DTD/sodipodi-0.dtd"
   xmlns="http://www.w3.org/2000/svg"
   xmlns:svg="http://www.w3.org/2000/svg">
  <sodipodi:namedview
     id="namedview3"
     pagecolor="#505050"
     bordercolor="#ffffff"
     borderopacity="1"
     inkscape:showpageshadow="0"
     inkscape:pageopacity="0"
     inkscape:pagecheckerboard="1"
     inkscape:deskcolor="#d1d1d1"
     inkscape:zoom="46.1875"
     inkscape:cx="7.9891746"
     inkscape:cy="7.9891746"
     inkscape:window-width="2560"
     inkscape:window-height="1388"
     inkscape:window-x="2560"
     inkscape:window-y="28"
     inkscape:window-maximized="1"
     inkscape:current-layer="svg3" />
  <defs
     id="defs1">
    <style
       type="text/css"
       id="current-color-scheme">.ColorScheme-Text{color:#232629;}.ColorScheme-NeutralText { color: #f67400; } </style>
  </defs>
  <path
     style="fill:currentColor;fill-opacity:1;stroke:none"
     class="ColorScheme-Text"
     d="M2 2v3h6V2zm7 0v3h5V2zM2 6v3h2V6zm3 0v3h1V6zm-3 4v3h4v-3z"
     id="path1" />
  <path
     style="fill:currentColor;fill-opacity:1;stroke:none"
     class="ColorScheme-NeutralText"
     d="M8 6c-.554 0-1 .446-1 1v6c0 .554.446 1 1 1h6c.554 0 1-.446 1-1V7c0-.554-.446-1-1-1z"
     id="path2" />
  <path
     d="M11 7a2 2 0 0 0-2 2l.002 1H8v3h6v-3h-1V9a2 2 0 0 0-2-2zm0 1a1 1 0 0 1 1 1v1h-2V9a1 1 0 0 1 1-1z"
     fill="#fff"
     id="path3" />
  <path
     style="fill:#ffffff;stroke:#cccccc;stroke-width:0.0216509"
     d="M 2.0135318,7.5020298 V 6.0081191 h 0.985115 0.985115 v 1.4939107 1.4939107 h -0.985115 -0.985115 z"
     id="path4" />
  <path
     style="fill:#ffffff;stroke:#cccccc;stroke-width:0.0216509"
     d="M 5.0013532,7.5020298 V 6.0081191 H 5.4993234 5.9972936 V 7.5020298 8.9959405 H 5.4993234 5.0013532 Z"
     id="path5" />
  <path
     style="fill:#ffffff;stroke:#cccccc;stroke-width:0.0216509"
     d="M 2.0135318,3.4966171 V 2.0027064 H 5.0013532 7.9891746 V 3.4966171 4.9905277 H 5.0013532 2.0135318 Z"
     id="path6" />
  <path
     style="fill:#ffffff;stroke:#cccccc;stroke-width:0.0216509"
     d="M 9.0067659,3.4966171 V 2.0027064 h 2.4898511 2.489851 V 3.4966171 4.9905277 H 11.496617 9.0067659 Z"
     id="path7" />
  <path
     style="fill:#ffffff;stroke:#cccccc;stroke-width:0.0216509"
     d="m 2.0135318,11.496617 v -1.483085 h 1.9918809 1.9918809 v 1.483085 1.483085 H 4.0054127 2.0135318 Z"
     id="path8" />
</svg>
