<?xml version="1.0" encoding="UTF-8" standalone="no"?>
<svg
   viewBox="0 0 16 16"
   version="1.1"
   id="svg2"
   sodipodi:docname="mic-ready.svg"
   inkscape:version="1.3.2 (091e20ef0f, 2023-11-25, custom)"
   xmlns:inkscape="http://www.inkscape.org/namespaces/inkscape"
   xmlns:sodipodi="http://sodipodi.sourceforge.net/DTD/sodipodi-0.dtd"
   xmlns="http://www.w3.org/2000/svg"
   xmlns:svg="http://www.w3.org/2000/svg">
  <sodipodi:namedview
     id="namedview2"
     pagecolor="#505050"
     bordercolor="#ffffff"
     borderopacity="1"
     inkscape:showpageshadow="0"
     inkscape:pageopacity="0"
     inkscape:pagecheckerboard="1"
     inkscape:deskcolor="#d1d1d1"
     inkscape:zoom="46.1875"
     inkscape:cx="7.9891746"
     inkscape:cy="7.9891746"
     inkscape:window-width="2560"
     inkscape:window-height="1388"
     inkscape:window-x="2560"
     inkscape:window-y="28"
     inkscape:window-maximized="1"
     inkscape:current-layer="svg2" />
  <defs
     id="defs3051">
    <style
       type="text/css"
       id="current-color-scheme">.ColorScheme-Text{color:#232629;}.ColorScheme-NeutralText { color: #f67400; } </style>
  </defs>
  <path
     style="fill:currentColor;fill-opacity:1;stroke:none"
     d="M 5 2 C 3.892 2 3 2.892 3 4 L 3 8 C 3 9.108 3.892 10 5 10 C 6.108 10 7 9.108 7 8 L 7 4 C 7 2.892 6.108 2 5 2 z M 1 7 L 1 8 C 1 9.847 2.286 11.405469 4 11.855469 L 4 13 L 3 13 L 3 14 L 7 14 L 7 13 L 6 13 L 6 11.855469 C 7.714 11.404469 9 9.845 9 8 L 9 7 L 8 7 L 8 8 C 8 9.645 6.645 11 5 11 C 3.355 11 2 9.645 2 8 L 2 7 L 1 7 z "
     class="ColorScheme-Text"
     id="path1" />
  <path
     d="M 12,2 A 2,2 0 0 1 14,4 2,2 0 0 1 12,6 2,2 0 0 1 10,4 2,2 0 0 1 12,2 Z"
     style="fill:currentColor;fill-opacity:1;stroke:none"
     class="ColorScheme-NeutralText"
     id="path2" />
  <path
     style="fill:#ffffff;stroke:#cccccc;stroke-width:0.0216509"
     d="M 4.6623345,9.9613826 C 3.8192331,9.800052 3.1995907,9.1801373 3.0422782,8.3406145 3.0122792,8.1805198 3.0088947,7.8854313 3.0145088,5.9194745 l 0.00639,-2.238825 0.048632,-0.173207 C 3.2252464,2.9528617 3.606231,2.4751849 4.0861446,2.232821 4.3946597,2.077016 4.6483922,2.0174809 5.0013532,2.0180788 c 0.3729805,6.318e-4 0.6417007,0.067513 0.9511192,0.2367221 0.4867588,0.2661897 0.8409217,0.7276196 0.9813638,1.2785934 l 0.048572,0.190557 V 6.0081191 8.2922869 L 6.9335664,8.4763194 C 6.8328537,8.8557945 6.6375305,9.181592 6.3484369,9.4523098 6.0909159,9.6934621 5.7898159,9.8567415 5.453228,9.9377604 5.2549922,9.985477 4.8512666,9.9975355 4.6623345,9.9613826 Z"
     id="path3" />
  <path
     style="fill:#ffffff;stroke:#cccccc;stroke-width:0.0216509"
     d="m 3.0094723,13.499323 v -0.49797 h 0.4979702 0.4979702 v -0.584574 c 0,-0.494943 -0.00479,-0.584573 -0.031244,-0.584573 -0.071425,0 -0.4520082,-0.142071 -0.6951809,-0.25951 C 2.1480562,11.026522 1.3338386,9.9792234 1.0800845,8.7443262 1.0368404,8.5338783 1.0307319,8.4286729 1.0227244,7.7564276 L 1.0137644,7.0040595 H 1.50063 1.9874956 l 0.010441,0.7090663 c 0.011292,0.7668756 0.020517,0.843329 0.1482639,1.2286875 0.3424132,1.0329177 1.2218578,1.8015407 2.3080393,2.0171967 0.2646021,0.05254 0.834641,0.05282 1.0942311,5.39e-4 0.3906858,-0.07868 0.7988872,-0.245837 1.1079256,-0.453699 0.1592792,-0.107132 0.435977,-0.334779 0.5100468,-0.41963 C 7.6029309,9.5862041 7.8201841,9.1737076 7.949067,8.6002604 7.98774,8.4281905 7.995454,8.3038762 8.00479,7.7023004 L 8.015626,7.0040595 h 0.4866808 0.4866808 l -0.00901,0.7415427 C 8.9719292,8.4079748 8.9657594,8.5125716 8.9221876,8.7253045 8.6279981,10.161641 7.6222125,11.305298 6.2462788,11.768025 l -0.2381597,0.08009 -0.00577,0.576617 -0.00577,0.576618 h 0.498324 0.4983238 v 0.49797 0.497971 H 5.0013532 3.0094723 Z"
     id="path4" />
</svg>
