<?xml version="1.0" encoding="UTF-8" standalone="no"?>
<svg
   viewBox="0 0 16 16"
   version="1.1"
   id="svg2"
   sodipodi:docname="mic-off.svg"
   inkscape:version="1.3.2 (091e20ef0f, 2023-11-25, custom)"
   xmlns:inkscape="http://www.inkscape.org/namespaces/inkscape"
   xmlns:sodipodi="http://sodipodi.sourceforge.net/DTD/sodipodi-0.dtd"
   xmlns="http://www.w3.org/2000/svg"
   xmlns:svg="http://www.w3.org/2000/svg">
  <defs
     id="defs2" />
  <sodipodi:namedview
     id="namedview2"
     pagecolor="#505050"
     bordercolor="#ffffff"
     borderopacity="1"
     inkscape:showpageshadow="0"
     inkscape:pageopacity="0"
     inkscape:pagecheckerboard="1"
     inkscape:deskcolor="#d1d1d1"
     inkscape:zoom="46.1875"
     inkscape:cx="7.9891746"
     inkscape:cy="7.9891746"
     inkscape:window-width="2560"
     inkscape:window-height="1388"
     inkscape:window-x="2560"
     inkscape:window-y="28"
     inkscape:window-maximized="1"
     inkscape:current-layer="svg2" />
  <style
     type="text/css"
     id="current-color-scheme">.ColorScheme-Text{color:#232629;}.ColorScheme-NegativeText { color: #da4453; } </style>
  <path
     d="m8 2c-1.1026347 0-1.9894657.8838379-1.9980469 1.984375l3.9980469 4v-3.984375c0-1.108-.892-2-2-2zm-4 5v1c0 1.847 1.286 3.405469 3 3.855469v1.144531h-1v1h4v-1h-1v-1.144531c.21425-.056375.4218945-.129343.6210938-.21875l-.7753907-.775391c-.2704148.081147-.5504447.138672-.8457031.138672-1.645 0-3-1.355-3-3v-.984375l-.015625-.015625zm7 0v1c0 .2952584-.057525.5752883-.138672.8457031l.773438.7734375c.226351-.4969318.365234-1.040725.365234-1.6191406v-1zm-4.9980469 1.0175781c.0095797 1.0936005.8868683 1.9708891 1.9804688 1.9804688z"
     style="fill:currentColor;fill-opacity:1;stroke:none"
     class="ColorScheme-Text"
     id="path1" />
  <path
     d="m-.5 3.3284271h1v15.9705629h-1z"
     style="fill:currentColor;fill-opacity:1;stroke:none"
     class="ColorScheme-NegativeText"
     transform="matrix(.70710678 -.70710678 .70710678 .70710678 0 0)"
     id="path2" />
  <path
     style="fill:#ffffff;stroke:#cccccc;stroke-width:0.0216509;opacity:0.3"
     d="m 6.0189445,13.499323 v -0.49797 h 0.4983238 0.498324 l -0.00577,-0.575997 -0.00577,-0.575997 -0.2273342,-0.07351 C 6.4757857,11.678534 5.9496654,11.413635 5.6957643,11.231589 5.4626346,11.064436 5.0840181,10.710203 4.9086904,10.495203 4.5105659,10.006993 4.2139741,9.386093 4.0942718,8.7902571 4.0258379,8.4496175 4.0054127,8.1679074 4.0054127,7.5646884 V 7.0040595 h 0.4839524 0.4839525 l 0.012732,0.6549391 c 0.014209,0.7309102 0.035604,0.9025856 0.1585249,1.2719892 0.1467015,0.4408713 0.3606756,0.7977347 0.6795121,1.1332822 0.3484378,0.366699 0.7327587,0.615294 1.2027648,0.777997 0.3543836,0.122678 0.5566461,0.155201 0.9623232,0.154738 0.3114624,-3.55e-4 0.3891176,-0.0079 0.6060135,-0.05891 l 0.248774,-0.0585 0.3732633,0.372806 c 0.2113289,0.21107 0.3651008,0.380969 0.3544488,0.391621 -0.010348,0.01035 -0.1441215,0.0612 -0.2972742,0.112996 l -0.2784595,0.09418 -0.00577,0.575076 -0.00577,0.575076 h 0.498324 0.4983238 v 0.49797 0.497971 H 8 6.0189445 Z"
     id="path6" />
  <path
     style="opacity:0.3;fill:#ffffff;stroke:#cccccc;stroke-width:0.0216509"
     d="M 7.7185386,9.9684751 C 7.3746513,9.9204929 6.9636669,9.7308868 6.6903895,9.4941426 6.3576927,9.2059225 6.1113552,8.7612343 6.0402627,8.3205346 5.9903199,8.0109412 5.9370548,7.9713935 6.9931429,9.0280184 7.7525957,9.7878572 7.9450778,9.9913221 7.9024798,9.9892408 7.87276,9.9877887 7.7899865,9.9784441 7.7185386,9.9684751 Z"
     id="path7" />
  <path
     style="opacity:0.3;fill:#ffffff;stroke:#cccccc;stroke-width:0.0216509"
     d="M 7.9945873,5.959444 6.0189445,3.9836736 v -0.098821 c 0,-0.2142331 0.08297,-0.5311297 0.2008495,-0.7671257 0.2612245,-0.5229749 0.7200379,-0.893851 1.2915994,-1.0440482 0.2963884,-0.077886 0.6819349,-0.077583 0.9802533,7.712e-4 0.6800179,0.1786082 1.1829847,0.660414 1.416824,1.3572147 l 0.061759,0.1840325 0.00604,1.797023 c 0.00332,0.9883626 0.00332,1.9602542 0,2.1597588 L 9.97023,7.9352143 Z"
     id="path8" />
  <path
     style="opacity:0.3;fill:#ffffff;stroke:#cccccc;stroke-width:0.0216509"
     d="M 11.244575,9.2070365 C 10.884206,8.843926 10.874472,8.8317559 10.893911,8.7686062 c 0.08416,-0.2734088 0.106793,-0.485416 0.119607,-1.120433 l 0.013,-0.6441137 h 0.486603 0.486603 l -0.01078,0.6982409 c -0.01168,0.7562012 -0.03715,0.9744131 -0.159126,1.363353 -0.07661,0.244275 -0.181556,0.5148608 -0.199686,0.5148608 -0.0082,0 -0.181692,-0.1680649 -0.385554,-0.3734777 z"
     id="path9" />
  <path
     style="opacity:1;fill:#ffffff;stroke:#cccccc;stroke-width:0.0216509"
     d="m 6.0405954,13.499323 v -0.476319 h 0.4979702 0.4979703 v -0.397215 c 0,-0.218468 -0.00629,-0.4858 -0.013973,-0.594071 L 7.0085893,11.834862 6.8006411,11.763655 C 6.5306858,11.671215 5.9670313,11.391017 5.7552542,11.243984 5.114931,10.799419 4.6159771,10.178376 4.3230167,9.4612913 4.0991112,8.9132335 4.0479355,8.6047058 4.0330474,7.7131258 L 4.0215685,7.0257104 H 4.48981 4.9580514 L 4.958763,7.32341 c 0.00114,0.4767233 0.037033,1.0848428 0.074819,1.2676126 0.044528,0.2153799 0.1657625,0.5640854 0.2637981,0.758758 0.4215799,0.8371464 1.2696245,1.4734434 2.1693116,1.6276584 0.2863151,0.04908 0.9267941,0.03214 1.182835,-0.03127 l 0.1948579,-0.04826 0.3528983,0.362156 c 0.1940941,0.199186 0.345109,0.369114 0.3355886,0.377618 -0.00952,0.0085 -0.1352604,0.05658 -0.2794223,0.106847 l -0.2621127,0.09139 -0.013936,0.196332 c -0.00766,0.107983 -0.013936,0.37508 -0.013936,0.593548 v 0.397215 H 9.4614348 9.959405 v 0.476319 0.47632 H 8 6.0405954 Z"
     id="path3" />
  <path
     style="opacity:1;fill:#ffffff;stroke:#cccccc;stroke-width:0.0216509"
     d="M 7.6579824,9.9358326 C 7.3516947,9.8804728 7.0091691,9.7211828 6.7511667,9.5141223 6.4134754,9.2431071 6.1666037,8.8309873 6.074919,8.3852159 6.0281677,8.1579107 6.0290053,8.1438298 6.0874187,8.1750917 6.2065984,8.2388748 7.9165115,9.9722416 7.8563509,9.9682872 7.840094,9.9672186 7.7508282,9.952614 7.6579824,9.9358326 Z"
     id="path4" />
  <path
     style="opacity:1;fill:#ffffff;stroke:#cccccc;stroke-width:0.0216509"
     d="M 7.9936627,5.9368294 6.0405954,3.9836726 V 3.8620008 c 0,-0.1522738 0.082757,-0.4833076 0.1676063,-0.6704394 0.2639399,-0.5821069 0.8093235,-1.0106092 1.4292628,-1.122957 0.193868,-0.035134 0.5775188,-0.029907 0.7765492,0.010579 0.3664613,0.074544 0.67645,0.2454627 0.9607827,0.529748 0.2409596,0.2409193 0.369768,0.4438577 0.4979681,0.7845508 l 0.08747,0.2324534 -6.197e-4,2.1258929 c -3.407e-4,1.169241 -0.00338,2.1286523 -0.00675,2.1320253 -0.00337,0.00337 -0.8850131,-0.8727879 -1.9592001,-1.947024 z"
     id="path5" />
  <path
     style="opacity:1;fill:#ffffff;stroke:#cccccc;stroke-width:0.0216509"
     d="M 11.251594,9.1885428 C 10.864711,8.7969592 10.895481,8.8653235 10.965138,8.5520974 c 0.03506,-0.1576378 0.0755,-0.8315822 0.07633,-1.2719891 l 4.81e-4,-0.2543979 h 0.465493 0.465494 l -5.65e-4,0.4384303 c -7.08e-4,0.5499825 -0.03026,1.040217 -0.07608,1.262047 -0.06239,0.3020359 -0.237381,0.8110247 -0.278837,0.8110247 -0.01176,0 -0.176391,-0.1569013 -0.365857,-0.3486696 z"
     id="path10" />
</svg>
