<?xml version="1.0" encoding="UTF-8" standalone="no"?>
<svg
   viewBox="0 0 16 16"
   version="1.1"
   id="svg4"
   sodipodi:docname="microphone-sensitivity-muted.svg"
   inkscape:version="1.3.2 (091e20ef0f, 2023-11-25, custom)"
   xmlns:inkscape="http://www.inkscape.org/namespaces/inkscape"
   xmlns:sodipodi="http://sodipodi.sourceforge.net/DTD/sodipodi-0.dtd"
   xmlns="http://www.w3.org/2000/svg"
   xmlns:svg="http://www.w3.org/2000/svg">
  <defs
     id="defs4" />
  <sodipodi:namedview
     id="namedview4"
     pagecolor="#505050"
     bordercolor="#ffffff"
     borderopacity="1"
     inkscape:showpageshadow="0"
     inkscape:pageopacity="0"
     inkscape:pagecheckerboard="1"
     inkscape:deskcolor="#d1d1d1"
     inkscape:zoom="46.1875"
     inkscape:cx="7.9891746"
     inkscape:cy="7.9891746"
     inkscape:window-width="2560"
     inkscape:window-height="1388"
     inkscape:window-x="2560"
     inkscape:window-y="28"
     inkscape:window-maximized="1"
     inkscape:current-layer="svg4" />
  <style
     id="current-color-scheme"
     type="text/css">.ColorScheme-Text{color:#232629;}.ColorScheme-NegativeText { color: #da4453; } </style>
  <g
     class="ColorScheme-Text"
     fill="currentColor"
     id="g4">
    <path
       d="m6 2c-.554 0-1.0545156.2224844-1.4160156.5839844l3.4160156 3.4160156v-2c0-1.108-.892-2-2-2zm-2 4v2c0 1.108.892 2 2 2 .554 0 1.0545156-.2224844 1.4160156-.5839844zm-2 1v1c0 1.847 1.286 3.405469 3 3.855469v1.144531h-1v1h4v-1h-1v-1.144531c.6946069-.18277 1.3116738-.554785 1.8085938-1.046875l-.6914063-.691406c-.544375.544375-1.2946875.882812-2.1171875.882812-1.645 0-3-1.355-3-3v-1zm7 0 1 1v-1z"
       id="path1" />
    <g
       opacity=".35"
       id="g3">
      <path
         d="m12.464844 2.7929688-.671875.7421874.371093.3359376c1.145574 1.0341985 1.835938 2.5855636 1.835938 4.1289062 0 1.0781414-.34386 2.155571-.9375 3.0625l.726562.726562c.774268-1.101401 1.210938-2.4352697 1.210938-3.789062 0-1.8373007-.800292-3.6399129-2.164062-4.8710938z"
         id="path2" />
      <path
         d="m11.300781 4.5996094-.601562.8007812c.795538.5966536 1.300781 1.6051868 1.300781 2.5996094 0 .5447191-.161814 1.0871426-.429688 1.5703125l.742188.7421875c.44131-.6834298.6875-1.4898628.6875-2.3125 0-1.3238131-.640168-2.6061028-1.699219-3.4003906z"
         id="path3" />
    </g>
  </g>
  <path
     d="m2.5 1.7929688-.7070312.7070312 11.7070312 11.707031.707031-.707031z"
     class="ColorScheme-NegativeText"
     fill="currentColor"
     id="path4" />
  <path
     style="fill:#ffffff;stroke:#cccccc;stroke-width:0.0216509"
     d="m 4.0054127,13.499323 v -0.49797 H 4.5033829 5.0013532 L 5.0010174,12.422192 5.0006818,11.843031 4.7607004,11.768246 C 4.4832812,11.681794 4.0753128,11.484464 3.8105548,11.308672 2.9772739,10.755396 2.3727823,9.9097611 2.1311238,8.9592845 2.0367841,8.5882336 2.0135318,8.3277603 2.0135318,7.6420161 V 7.0040595 h 0.4849037 0.4849037 l 0.00982,0.6874155 c 0.00849,0.594455 0.015959,0.7152303 0.055249,0.8930987 0.2715372,1.2292627 1.1836221,2.1310713 2.4017742,2.3747143 0.2883276,0.05767 0.853818,0.05165 1.152402,-0.01226 0.5260984,-0.112608 0.9660679,-0.334285 1.3936206,-0.702169 l 0.1261058,-0.108507 0.3350636,0.333716 0.3350636,0.333716 -0.1341755,0.126942 C 8.271284,11.296842 7.7731085,11.588415 7.2097429,11.77852 l -0.2056834,0.06941 -0.00577,0.576713 -0.00577,0.576713 h 0.498324 0.4983238 v 0.49797 0.497971 H 5.9972936 4.0054127 Z"
     id="path5" />
  <path
     style="fill:#ffffff;stroke:#cccccc;stroke-width:0.0216509"
     d="M 5.6582749,9.9613341 C 5.2512332,9.8835722 4.922985,9.7147949 4.6254614,9.4302863 4.3553005,9.1719435 4.1638799,8.8442345 4.0668854,8.4740135 4.0213254,8.3001143 4.0189349,8.2433269 4.0113868,7.1556157 l -0.00789,-1.1366712 1.7012965,1.6995941 1.7012965,1.699594 -0.081936,0.071015 C 7.0865972,9.6950411 6.7956705,9.8465037 6.4786648,9.9293283 6.2614493,9.9860802 5.8681285,10.001425 5.6582749,9.9613341 Z"
     id="path6" />
  <path
     style="fill:#ffffff;stroke:#cccccc;stroke-width:0.0216509"
     d="M 6.2911132,4.2775874 C 4.7801131,2.7664888 4.6070068,2.5864709 4.6338379,2.5541414 4.6914283,2.4847493 4.9128463,2.32671 5.070116,2.2427435 5.6105655,1.9541972 6.2800145,1.936987 6.8356267,2.1973557 7.323822,2.4261317 7.7112886,2.8569445 7.8789586,3.3574062 7.9842429,3.6716584 7.9906934,3.7667158 7.9842767,4.909395 l -0.00593,1.0555384 z"
     id="path7" />
  <path
     style="fill:#ffffff;stroke:#cccccc;stroke-width:0.0216509"
     d="M 9.4939107,7.4803789 9.0179604,7.0040595 H 9.499508 9.9810555 v 0.4763194 c 0,0.2619756 -0.00252,0.4763193 -0.0056,0.4763193 -0.00308,0 -0.2197749,-0.2143437 -0.4815475,-0.4763193 z"
     id="path8" />
  <path
     style="fill:#ffffff;stroke:#cccccc;stroke-width:0.0216509;opacity:0.3"
     d="m 11.944008,9.9304812 -0.364039,-0.3645123 0.04108,-0.073918 c 0.09389,-0.1689293 0.228814,-0.5196893 0.287577,-0.7475923 0.08772,-0.340233 0.115643,-0.6519844 0.08719,-0.9736436 -0.07577,-0.8566138 -0.428404,-1.5818084 -1.057968,-2.1757066 l -0.217215,-0.2049095 0.260034,-0.345979 c 0.143019,-0.1902885 0.273315,-0.3645446 0.289546,-0.3872359 0.02825,-0.039488 0.03443,-0.037472 0.144194,0.047044 0.432761,0.3332076 0.873011,0.8902006 1.141994,1.4448221 0.562969,1.160797 0.574717,2.4705979 0.03268,3.6437608 -0.0638,0.1380832 -0.264987,0.5023821 -0.277447,0.5023821 -0.002,0 -0.167411,-0.16403 -0.367633,-0.3645115 z"
     id="path9" />
  <path
     style="opacity:0.3;fill:#ffffff;stroke:#cccccc;stroke-width:0.0216509"
     d="m 13.427804,11.414278 -0.351962,-0.352447 0.110765,-0.183148 c 0.398492,-0.658897 0.658468,-1.3968513 0.781502,-2.2183312 0.01878,-0.1253787 0.02839,-0.3762756 0.02694,-0.7036536 -0.002,-0.4480279 -0.0091,-0.5473779 -0.05951,-0.8318384 C 13.829518,6.5268322 13.652838,5.9918032 13.39118,5.4764034 13.063754,4.8314565 12.705724,4.3641962 12.125501,3.8245804 11.964189,3.6745577 11.833485,3.5398375 11.835048,3.5252024 c 0.0016,-0.014635 0.142835,-0.1815213 0.313938,-0.370858 l 0.311095,-0.3442486 0.08282,0.064908 c 0.176644,0.1384419 0.841604,0.8166597 1.007392,1.0274773 0.782087,0.9945095 1.255169,2.1457476 1.401176,3.4097416 0.03993,0.3457197 0.03356,1.2214614 -0.01091,1.4996854 -0.05951,0.3722849 -0.0748,0.4497087 -0.143259,0.7253044 -0.13502,0.5435695 -0.274039,0.9198025 -0.520007,1.4073075 -0.143745,0.2849 -0.406656,0.728351 -0.471576,0.795406 -0.02041,0.02108 -0.101021,-0.04838 -0.377909,-0.325648 z"
     id="path10" />
</svg>
