<?xml version="1.0" encoding="UTF-8" standalone="no"?>
<svg
   viewBox="0 0 16 16"
   version="1.1"
   id="svg2"
   sodipodi:docname="printer-warning-symbolic.svg"
   inkscape:version="1.3.2 (091e20ef0f, 2023-11-25, custom)"
   xmlns:inkscape="http://www.inkscape.org/namespaces/inkscape"
   xmlns:sodipodi="http://sodipodi.sourceforge.net/DTD/sodipodi-0.dtd"
   xmlns="http://www.w3.org/2000/svg"
   xmlns:svg="http://www.w3.org/2000/svg">
  <sodipodi:namedview
     id="namedview2"
     pagecolor="#505050"
     bordercolor="#ffffff"
     borderopacity="1"
     inkscape:showpageshadow="0"
     inkscape:pageopacity="0"
     inkscape:pagecheckerboard="1"
     inkscape:deskcolor="#d1d1d1"
     inkscape:zoom="46.1875"
     inkscape:cx="7.9891746"
     inkscape:cy="7.9891746"
     inkscape:window-width="2560"
     inkscape:window-height="1388"
     inkscape:window-x="2560"
     inkscape:window-y="28"
     inkscape:window-maximized="1"
     inkscape:current-layer="svg2" />
  <defs
     id="defs3051">
    <style
       type="text/css"
       id="current-color-scheme">.ColorScheme-Text{color:#232629;}.ColorScheme-NeutralText { color: #f67400; } </style>
  </defs>
  <path
     style="fill:currentColor;fill-opacity:1;stroke:none"
     d="M 4 2 L 4 3 L 4 5 L 3 5 L 2 5 L 2 6 L 2 11 L 2 12 L 3 12 L 5 12 L 5 13 L 5 14 L 10 14 L 11 14 L 11 13 L 11 12 L 12 12 L 12 11 L 12 10 L 4 10 L 4 11 L 3 11 L 3 6 L 13 6 L 13 8 L 14 8 L 14 6 L 14 5 L 12 5 L 12 3 L 12 2 L 4 2 z M 5 3 L 11 3 L 11 5 L 5 5 L 5 3 z M 10 7 L 10 8 L 12 8 L 12 7 L 10 7 z M 6 12 L 10 12 L 10 13 L 6 13 L 6 12 z "
     class="ColorScheme-Text"
     id="path1" />
  <path
     d="m 13,9 0,3 1,0 0,-3 z m 0,4 0,1 1,0 0,-1 z"
     style="fill:currentColor;fill-opacity:1;stroke:none"
     class="ColorScheme-NeutralText"
     id="path2" />
  <path
     style="fill:#ffffff;stroke:#cccccc;stroke-width:0.0216509"
     d="M 5.0013532,12.990528 V 11.983762 H 3.5074425 2.0135318 V 8.4979702 5.0121786 H 3.0094723 4.0054127 V 3.5074425 2.0027064 H 8 11.994587 v 1.5047361 1.5047361 h 0.995941 0.99594 V 6.5060893 8 H 13.499323 13.012179 V 6.9932341 5.9864682 H 8 2.9878214 v 2.511502 2.5115018 h 0.5087957 0.5087956 v -0.49797 -0.49797 H 8 11.994587 v 0.985115 0.985115 h -0.49797 -0.49797 v 1.006766 1.006766 H 8 5.0013532 Z m 5.0013528,-0.49797 V 11.983762 H 8 5.9972936 v 0.508796 0.508795 H 8 10.002706 Z M 11.015101,4 11.02073,2.9986468 H 8.0002163 4.9797023 v 0.992332 c 0,0.5457827 0.00653,0.9988613 0.01451,1.0068416 0.00798,0.00798 1.3646785,0.01204 3.0148849,0.00902 l 3.0003748,-0.00549 z"
     id="path3" />
  <path
     style="fill:#ffffff;stroke:#cccccc;stroke-width:0.0216509"
     d="M 10.002706,7.5020298 V 7.0040595 h 0.995941 0.99594 V 7.5020298 8 h -0.99594 -0.995941 z"
     id="path4" />
</svg>
