<?xml version="1.0" encoding="UTF-8" standalone="no"?>
<svg
   viewBox="0 0 16 16"
   version="1.1"
   id="svg3"
   sodipodi:docname="state-ok.svg"
   inkscape:version="1.3.2 (091e20ef0f, 2023-11-25, custom)"
   xmlns:inkscape="http://www.inkscape.org/namespaces/inkscape"
   xmlns:sodipodi="http://sodipodi.sourceforge.net/DTD/sodipodi-0.dtd"
   xmlns="http://www.w3.org/2000/svg"
   xmlns:svg="http://www.w3.org/2000/svg">
  <sodipodi:namedview
     id="namedview3"
     pagecolor="#505050"
     bordercolor="#ffffff"
     borderopacity="1"
     inkscape:showpageshadow="0"
     inkscape:pageopacity="0"
     inkscape:pagecheckerboard="1"
     inkscape:deskcolor="#d1d1d1"
     inkscape:zoom="46.1875"
     inkscape:cx="7.9891746"
     inkscape:cy="7.9891746"
     inkscape:window-width="2560"
     inkscape:window-height="1388"
     inkscape:window-x="2560"
     inkscape:window-y="28"
     inkscape:window-maximized="1"
     inkscape:current-layer="svg3" />
  <defs
     id="defs3051">
    <style
       type="text/css"
       id="current-color-scheme">.ColorScheme-Text{color:#232629;}.ColorScheme-PositiveText { color: #27ae60; } </style>
  </defs>
  <g
     transform="translate(0,-1036.3622)"
     id="g3">
    <path
       style="fill:currentColor;fill-opacity:1;stroke:none"
       d="M 7.5,2 C 5.0147186,2 3,4.0147186 3,6.5 3.0015312,6.7197442 3.0191564,6.939081 3.0527344,7.15625 1.8279505,7.563833 1.0011929,8.7091793 1,10 c 0,1.656854 1.3431458,3 3,3 l 7.5,0 c 1.932997,0 3.321429,-1.477717 3.321429,-3.4107143 -0.343605,-1.177246 -1.384105,-2.7716808 -2.839605,-3.4058395 -0.02988,-0.013019 0.01902,-0.1361103 -0.01112,-0.14829 C 11.732775,3.7441623 9.803314,2.0026739 7.5,2 Z m 0,1 C 9.4329966,3 11,4.5670034 11,6.5 10.998359,6.6892144 10.981376,6.8779841 10.949219,7.0644531 11.129854,7.0226102 11.314584,7.0009929 11.5,7 12.880712,7 14,8.1192881 14,9.5 14,10.880712 12.880712,12 11.5,12 L 4,12 C 2.8954305,12 2,11.104569 2,10 2,8.8954305 2.8954305,8 4,8 4.119895,8.000332 4.2395173,8.0114445 4.3574219,8.0332031 4.1233957,7.5559094 4.0011632,7.031579 4,6.5 4,4.5670034 5.5670034,3 7.5,3 Z"
       transform="translate(0,1036.3622)"
       class="ColorScheme-Text"
       id="path1" />
    <path
       d="m 11,1042.3622 c 2.216,0 4,1.784 4,4 0,2.216 -1.784,4 -4,4 -2.216,0 -4,-1.784 -4,-4 0,-2.216 1.784,-4 4,-4 z"
       style="fill:currentColor;fill-opacity:1;stroke:none"
       class="ColorScheme-PositiveText"
       id="path2" />
    <path
       d="m 13,1044.3622 -3,3 -1,-1 -1,1 1,1 1,1 4,-4 -1,-1 z"
       style="fill:#ffffff;fill-opacity:1;fill-rule:evenodd;stroke:none;stroke-width:1px;stroke-linecap:butt;stroke-linejoin:miter;stroke-opacity:1"
       id="path3" />
  </g>
  <path
     style="fill:#ffffff;stroke:#cccccc;stroke-width:0.0216509"
     d="M 3.4966171,12.945841 C 2.8786586,12.840755 2.3506874,12.563602 1.8939695,12.104546 1.5417426,11.750516 1.3126352,11.387468 1.1704518,10.958047 1.0663054,10.643505 1.038323,10.480579 1.0245948,10.108803 1.0144016,9.8327593 1.0195151,9.7133776 1.0491704,9.5350545 1.1107051,9.1650349 1.2486521,8.778827 1.4230222,8.4883882 1.7686505,7.9126939 2.3239654,7.4413315 2.9196713,7.2180021 L 3.0572046,7.1664411 3.0440633,7.0473613 C 3.0368356,6.9818674 3.0247995,6.8016238 3.0173165,6.64682 2.9681446,5.629579 3.3381621,4.5140735 3.9964895,3.6948701 4.1374783,3.5194278 4.4886132,3.1659359 4.6657645,3.0211024 6.414497,1.5913934 8.9598898,1.6956563 10.600618,3.2642026 c 0.721936,0.6901754 1.187891,1.6005671 1.337898,2.6140112 0.01675,0.1131258 0.02666,0.2095454 0.02205,0.2142656 -0.0046,0.00472 -0.08873,-0.00753 -0.186903,-0.02722 -0.09818,-0.019692 -0.315154,-0.047098 -0.482171,-0.060903 -0.167016,-0.013805 -0.306712,-0.027335 -0.310434,-0.030066 -0.0037,-0.00273 -0.02501,-0.09123 -0.04731,-0.1966642 C 10.726449,4.7974699 10.119701,3.9654202 9.2341001,3.4468605 9.0469919,3.3373 8.6427055,3.1722044 8.4113667,3.1108865 7.8049301,2.9501465 7.1021536,2.9600497 6.4906981,3.1379518 5.784818,3.3433267 5.0884683,3.8400369 4.6489624,4.4516726 4.4834676,4.6819826 4.2534142,5.1331663 4.1699752,5.391069 3.9269582,6.1422129 3.9349999,6.9195891 4.193469,7.6621514 c 0.041777,0.1200239 0.089627,0.2446567 0.1063331,0.2769618 0.016706,0.032305 0.030387,0.061656 0.030402,0.065224 1.56e-5,0.00357 -0.1144635,0.00313 -0.2543979,-9.71e-4 C 3.935872,7.9992643 3.75003,8.0073946 3.6628241,8.0214344 2.888578,8.1460839 2.2527946,8.734316 2.0479155,9.5155616 c -0.020298,0.077402 -0.042221,0.2576454 -0.048717,0.4005412 -0.025267,0.5558082 0.1574904,1.0460592 0.5422187,1.4545162 0.2668646,0.283324 0.5605552,0.460801 0.9551999,0.577229 0.147269,0.04345 0.2063707,0.04493 2.0893098,0.05235 l 1.9377537,0.0076 0.073174,0.120265 c 0.1184688,0.194707 0.3218059,0.453815 0.5175803,0.65954 l 0.1827728,0.192063 -2.313692,-0.0022 c -1.8437668,-0.0018 -2.3488714,-0.0082 -2.486899,-0.03166 z"
     id="path4" />
</svg>
