<?xml version="1.0" encoding="UTF-8" standalone="no"?>
<svg
   viewBox="0 0 16 16"
   version="1.1"
   id="svg3"
   sodipodi:docname="state-information.svg"
   inkscape:version="1.3.2 (091e20ef0f, 2023-11-25, custom)"
   xmlns:inkscape="http://www.inkscape.org/namespaces/inkscape"
   xmlns:sodipodi="http://sodipodi.sourceforge.net/DTD/sodipodi-0.dtd"
   xmlns="http://www.w3.org/2000/svg"
   xmlns:svg="http://www.w3.org/2000/svg">
  <sodipodi:namedview
     id="namedview3"
     pagecolor="#505050"
     bordercolor="#ffffff"
     borderopacity="1"
     inkscape:showpageshadow="0"
     inkscape:pageopacity="0"
     inkscape:pagecheckerboard="1"
     inkscape:deskcolor="#d1d1d1"
     inkscape:zoom="46.1875"
     inkscape:cx="7.9891746"
     inkscape:cy="7.9891746"
     inkscape:window-width="2560"
     inkscape:window-height="1388"
     inkscape:window-x="2560"
     inkscape:window-y="28"
     inkscape:window-maximized="1"
     inkscape:current-layer="svg3" />
  <defs
     id="defs3051">
    <style
       type="text/css"
       id="current-color-scheme">.ColorScheme-Text{color:#232629;}.ColorScheme-Highlight { color: #3daee9; } </style>
  </defs>
  <path
     style="fill:currentColor;fill-opacity:1;stroke:none"
     d="M 7.5 2 C 5.0147186 2 3 4.0147186 3 6.5 C 3.0015312 6.7197442 3.0191564 6.939081 3.0527344 7.15625 C 1.8279505 7.563833 1.0011929 8.7091793 1 10 C 1 11.656854 2.3431458 13 4 13 L 11.5 13 C 13.432997 13 14.822266 11.522841 14.822266 9.5898438 C 14.478661 8.4125977 13.437922 6.8177525 11.982422 6.1835938 C 11.952542 6.1705748 12.000843 6.0473359 11.970703 6.0351562 C 11.732774 3.7441624 9.803314 2.0026739 7.5 2 z M 7.5 3 C 9.4329966 3 11 4.5670034 11 6.5 C 10.998359 6.6892144 10.981376 6.8779841 10.949219 7.0644531 C 11.129854 7.0226102 11.314584 7.0009929 11.5 7 C 12.880712 7 14 8.1192881 14 9.5 C 14 10.880712 12.880712 12 11.5 12 L 4 12 C 2.8954305 12 2 11.104569 2 10 C 2 8.8954305 2.8954305 8 4 8 C 4.119895 8.000332 4.2395173 8.0114445 4.3574219 8.0332031 C 4.1233957 7.5559094 4.0011632 7.031579 4 6.5 C 4 4.5670034 5.5670034 3 7.5 3 z "
     class="ColorScheme-Text"
     id="path1" />
  <path
     style="fill:currentColor;fill-opacity:1;stroke:none"
     d="M 11 6 A 4 4 0 0 0 7 10 A 4 4 0 0 0 11 14 A 4 4 0 0 0 15 10 A 4 4 0 0 0 11 6 z "
     class="ColorScheme-Highlight"
     id="path2" />
  <path
     style="opacity:1;fill:#ffffff"
     d="M 10.5 8 L 10.5 9 L 11.5 9 L 11.5 8 L 10.5 8 z M 10.5 10 L 10.5 13 L 11.5 13 L 11.5 10 L 10.5 10 z "
     id="path3" />
  <path
     style="fill:#ffffff;stroke:#cccccc;stroke-width:0.0216509"
     d="M 3.4966171,12.945841 C 2.8786586,12.840755 2.3506874,12.563602 1.8939695,12.104546 1.5417426,11.750516 1.3126352,11.387468 1.1704518,10.958047 1.0663054,10.643505 1.038323,10.480579 1.0245948,10.108803 1.0144016,9.8327593 1.0195151,9.7133776 1.0491704,9.5350545 1.1107051,9.1650349 1.2486521,8.778827 1.4230222,8.4883882 1.7686505,7.9126939 2.3239654,7.4413315 2.9196713,7.2180021 L 3.0572046,7.1664411 3.0440633,7.0473613 C 3.0368356,6.9818674 3.0247995,6.8016238 3.0173165,6.64682 2.9681446,5.629579 3.3381621,4.5140735 3.9964895,3.6948701 4.1374783,3.5194278 4.4886132,3.1659359 4.6657645,3.0211024 6.414497,1.5913934 8.9598898,1.6956563 10.600618,3.2642026 c 0.721936,0.6901754 1.187891,1.6005671 1.337898,2.6140112 0.01675,0.1131258 0.02666,0.2095454 0.02205,0.2142656 -0.0046,0.00472 -0.08873,-0.00753 -0.186903,-0.02722 -0.09818,-0.019692 -0.315154,-0.047098 -0.482171,-0.060903 -0.167016,-0.013805 -0.306712,-0.027335 -0.310434,-0.030066 -0.0037,-0.00273 -0.02501,-0.09123 -0.04731,-0.1966642 C 10.726449,4.7974699 10.119701,3.9654202 9.2341001,3.4468605 9.0469919,3.3373 8.6427055,3.1722044 8.4113667,3.1108865 7.8049301,2.9501465 7.1021536,2.9600497 6.4906981,3.1379518 5.784818,3.3433267 5.0884683,3.8400369 4.6489624,4.4516726 4.4834676,4.6819826 4.2534142,5.1331663 4.1699752,5.391069 3.9269582,6.1422129 3.9349999,6.9195891 4.193469,7.6621514 c 0.041777,0.1200239 0.089627,0.2446567 0.1063331,0.2769618 0.016706,0.032305 0.030387,0.061656 0.030402,0.065224 1.56e-5,0.00357 -0.1144635,0.00313 -0.2543979,-9.71e-4 C 3.935872,7.9992643 3.75003,8.0073946 3.6628241,8.0214344 2.888578,8.1460839 2.2527946,8.734316 2.0479155,9.5155616 c -0.020298,0.077402 -0.042221,0.2576454 -0.048717,0.4005412 -0.025267,0.5558082 0.1574904,1.0460592 0.5422187,1.4545162 0.2668646,0.283324 0.5605552,0.460801 0.9551999,0.577229 0.1473294,0.04346 0.2056487,0.04491 2.0911647,0.0519 l 1.9396085,0.0072 0.048972,0.08713 c 0.086676,0.154218 0.3565207,0.501396 0.5411109,0.696184 l 0.1795276,0.189445 -2.3135883,-0.0022 c -1.8436794,-0.0018 -2.3487682,-0.0082 -2.4867953,-0.03166 z"
     id="path4" />
</svg>
