<?xml version="1.0" encoding="UTF-8" standalone="no"?>
<svg
   viewBox="0 0 16 16"
   version="1.1"
   id="svg3"
   sodipodi:docname="state-warning.svg"
   inkscape:version="1.3.2 (091e20ef0f, 2023-11-25, custom)"
   xmlns:inkscape="http://www.inkscape.org/namespaces/inkscape"
   xmlns:sodipodi="http://sodipodi.sourceforge.net/DTD/sodipodi-0.dtd"
   xmlns="http://www.w3.org/2000/svg"
   xmlns:svg="http://www.w3.org/2000/svg">
  <sodipodi:namedview
     id="namedview3"
     pagecolor="#505050"
     bordercolor="#ffffff"
     borderopacity="1"
     inkscape:showpageshadow="0"
     inkscape:pageopacity="0"
     inkscape:pagecheckerboard="1"
     inkscape:deskcolor="#d1d1d1"
     inkscape:zoom="46.1875"
     inkscape:cx="7.9891746"
     inkscape:cy="7.9891746"
     inkscape:window-width="2560"
     inkscape:window-height="1388"
     inkscape:window-x="2560"
     inkscape:window-y="28"
     inkscape:window-maximized="1"
     inkscape:current-layer="svg3" />
  <defs
     id="defs3051">
    <style
       type="text/css"
       id="current-color-scheme">.ColorScheme-Text{color:#232629;}.ColorScheme-NeutralText { color: #f67400; } </style>
  </defs>
  <path
     style="fill:currentColor;fill-opacity:1;stroke:none"
     d="M 7.5 2 A 4.5 4.5 0 0 0 3 6.5 A 4.5 4.5 0 0 0 3.0527344 7.15625 A 3 3 0 0 0 1 10 A 3 3 0 0 0 4 13 L 11.5 13 A 3.5 3.5 0 0 0 15 9.5 A 3.5 3.5 0 0 0 11.970703 6.0351562 A 4.5 4.5 0 0 0 7.5 2 z M 7.5 3 A 3.5 3.5 0 0 1 11 6.5 A 3.5 3.5 0 0 1 10.949219 7.0644531 A 2.5 2.5 0 0 1 11.5 7 A 2.5 2.5 0 0 1 14 9.5 A 2.5 2.5 0 0 1 11.5 12 L 4 12 A 2 2 0 0 1 2 10 A 2 2 0 0 1 4 8 A 2 2 0 0 1 4.3574219 8.0332031 A 3.5 3.5 0 0 1 4 6.5 A 3.5 3.5 0 0 1 7.5 3 z "
     class="ColorScheme-Text"
     id="path1" />
  <path
     d="M 10.5 6 A 0.5 0.5002376 0 0 0 10.056641 6.2714844 A 0.5 0.5002376 0 0 1 10.054688 6.2714844 L 10.052734 6.2714844 L 6.0664062 13.248047 L 6.0683594 13.248047 A 0.5 0.5002376 0 0 0 6 13.5 A 0.5 0.5002376 0 0 0 6.5 14 L 14.5 14 A 0.5 0.5002376 0 0 0 15 13.5 A 0.5 0.5002376 0 0 0 14.931641 13.248047 L 14.933594 13.248047 L 10.947266 6.2695312 L 10.943359 6.2695312 A 0.5 0.5002376 0 0 0 10.503906 6 L 10.5 6 z "
     style="fill:currentColor;fill-opacity:1;stroke:none"
     class="ColorScheme-NeutralText"
     id="path2" />
  <path
     style="opacity:1;fill:#ffffff"
     d="M 10 8.0039062 L 10 11.003906 L 11 11.003906 L 11 8.0039062 L 10 8.0039062 z M 10 12.003906 L 10 12.005859 L 10 13.005859 L 11 13.005859 L 11 12.005859 L 11 12.003906 L 10 12.003906 z "
     id="path3" />
  <path
     style="fill:#ffffff;stroke:#cccccc;stroke-width:0.0216509"
     d="M 3.4966171,12.945841 C 2.8786586,12.840755 2.3506874,12.563602 1.8939695,12.104546 1.5417426,11.750516 1.3126352,11.387468 1.1704518,10.958047 1.0663054,10.643505 1.038323,10.480579 1.0245948,10.108803 1.0144016,9.8327593 1.0195151,9.7133776 1.0491704,9.5350545 1.0906144,9.285844 1.1808597,8.9837805 1.2796607,8.7635717 1.5861278,8.0805142 2.2265733,7.4768875 2.9196713,7.2178438 L 3.0572046,7.1664411 3.0440633,7.0473613 C 3.0368356,6.9818674 3.0247995,6.8016238 3.0173165,6.64682 2.9681446,5.629579 3.3381621,4.5140735 3.9964895,3.6948701 4.1374783,3.5194278 4.4886132,3.1659359 4.6657645,3.0211024 6.0223441,1.9120053 7.9059191,1.7005903 9.4814458,2.4805839 10.204993,2.8387895 10.794297,3.3584162 11.247569,4.037889 c 0.342327,0.5131599 0.636005,1.3066822 0.695988,1.8805682 l 0.01311,0.1254237 0.165104,0.027718 c 0.817425,0.1372284 1.628906,0.6325664 2.148304,1.3113515 0.34511,0.4510141 0.596119,1.0415559 0.678483,1.5962505 0.03924,0.264265 0.04425,0.7399615 0.01035,0.9836512 -0.05815,0.4181029 -0.206699,0.8625189 -0.412424,1.2338779 -0.118394,0.213714 -0.386313,0.58277 -0.420501,0.579236 -0.01124,-0.0012 -0.135355,-0.202821 -0.275813,-0.448133 l -0.255377,-0.446021 0.0588,-0.09314 C 13.895089,10.406154 14.02734,9.8711329 14.00193,9.3794765 13.969603,8.7540027 13.742443,8.2222424 13.317357,7.7769555 12.850409,7.2878173 12.251139,7.0174569 11.593464,6.9992212 L 11.377537,6.9932341 11.191385,6.6684709 C 11.008146,6.3487892 11.004997,6.3408281 10.990171,6.1596752 10.900056,5.0586639 10.236732,4.0339473 9.2341001,3.4468605 9.0469919,3.3373 8.6427055,3.1722044 8.4113667,3.1108865 7.8049301,2.9501465 7.1021536,2.9600497 6.4906981,3.1379518 5.784818,3.3433267 5.0884683,3.8400369 4.6489624,4.4516726 4.4834676,4.6819826 4.2534142,5.1331663 4.1699752,5.391069 3.9269582,6.1422129 3.9349999,6.9195891 4.193469,7.6621514 c 0.041777,0.1200239 0.089627,0.2446567 0.1063331,0.2769618 0.016706,0.032305 0.030387,0.061656 0.030402,0.065224 1.56e-5,0.00357 -0.1144635,0.00313 -0.2543979,-9.71e-4 C 3.791182,7.9950225 3.5743771,8.0231101 3.3597118,8.0961388 2.7071059,8.3181536 2.2268706,8.8403297 2.0443403,9.526387 c -0.061777,0.2321949 -0.057656,0.742272 0.00784,0.970298 0.2103236,0.732258 0.7118184,1.236 1.4444376,1.450909 0.1447558,0.04246 0.2212464,0.045 1.7047413,0.05655 l 1.5531849,0.01209 -0.2747773,0.481732 -0.2747772,0.481732 -1.2675824,-0.0022 c -0.9610927,-0.0017 -1.3094623,-0.0093 -1.4407893,-0.03166 z"
     id="path4" />
</svg>
