<?xml version="1.0" encoding="UTF-8" standalone="no"?>
<svg
   viewBox="0 0 16 16"
   version="1.1"
   id="svg3"
   sodipodi:docname="state-sync.svg"
   inkscape:version="1.3.2 (091e20ef0f, 2023-11-25, custom)"
   xmlns:inkscape="http://www.inkscape.org/namespaces/inkscape"
   xmlns:sodipodi="http://sodipodi.sourceforge.net/DTD/sodipodi-0.dtd"
   xmlns="http://www.w3.org/2000/svg"
   xmlns:svg="http://www.w3.org/2000/svg">
  <sodipodi:namedview
     id="namedview3"
     pagecolor="#505050"
     bordercolor="#ffffff"
     borderopacity="1"
     inkscape:showpageshadow="0"
     inkscape:pageopacity="0"
     inkscape:pagecheckerboard="1"
     inkscape:deskcolor="#d1d1d1"
     inkscape:zoom="46.1875"
     inkscape:cx="7.9891746"
     inkscape:cy="7.9891746"
     inkscape:window-width="2560"
     inkscape:window-height="1388"
     inkscape:window-x="2560"
     inkscape:window-y="28"
     inkscape:window-maximized="1"
     inkscape:current-layer="svg3" />
  <defs
     id="defs3051">
    <style
       type="text/css"
       id="current-color-scheme">.ColorScheme-Text{color:#232629;}.ColorScheme-Highlight { color: #3daee9; } </style>
  </defs>
  <path
     style="fill:currentColor;fill-opacity:1;stroke:none"
     d="M 7.5 2 C 5.0147186 2 3 4.0147186 3 6.5 C 3.0015312 6.7197442 3.0191564 6.939081 3.0527344 7.15625 C 1.8279505 7.563833 1.0011929 8.7091793 1 10 C 1 11.656854 2.3431458 13 4 13 L 11.5 13 C 13.432997 13 15 11.432997 15 9.5 C 14.656395 8.322754 13.437922 6.8177523 11.982422 6.1835938 C 11.952541 6.1705745 12.000846 6.047336 11.970703 6.0351562 C 11.732775 3.7441623 9.803314 2.0026739 7.5 2 z M 7.5 3 C 9.4329966 3 11 4.5670034 11 6.5 C 10.998359 6.6892144 10.981376 6.8779841 10.949219 7.0644531 C 11.129854 7.0226102 11.314584 7.0009929 11.5 7 C 12.880712 7 14 8.1192881 14 9.5 C 14 10.880712 12.880712 12 11.5 12 L 4 12 C 2.8954305 12 2 11.104569 2 10 C 2 8.8954305 2.8954305 8 4 8 C 4.119895 8.000332 4.2395173 8.0114445 4.3574219 8.0332031 C 4.1233957 7.5559094 4.0011632 7.031579 4 6.5 C 4 4.5670034 5.5670034 3 7.5 3 z "
     class="ColorScheme-Text"
     id="path1" />
  <path
     style="fill:currentColor;fill-opacity:1;stroke:none"
     d="M 11 6 C 8.784 6 7 7.784 7 10 C 7 12.216 8.784 14 11 14 C 13.216 14 15 12.216 15 10 C 15 7.784 13.216 6 11 6 z "
     class="ColorScheme-Highlight"
     id="path2" />
  <path
     style="opacity:1;fill:#ffffff"
     d="M 11.050781 7.0039062 A 3 3 0 0 0 8.8789062 7.8789062 A 3 3 0 0 0 8.5546875 11.738281 L 9.2792969 11.013672 A 2 2 0 0 1 9.5859375 8.5859375 A 2 2 0 0 1 12.015625 8.2773438 L 12.734375 7.5585938 A 3 3 0 0 0 11.050781 7.0039062 z M 13.445312 8.2617188 L 12.720703 8.9863281 A 2 2 0 0 1 12.414062 11.414062 A 2 2 0 0 1 9.984375 11.722656 L 9.265625 12.441406 A 3 3 0 0 0 13.121094 12.121094 A 3 3 0 0 0 13.445312 8.2617188 z "
     id="path3" />
  <path
     style="fill:#ffffff;stroke:#cccccc;stroke-width:0.0216509"
     d="M 3.4966171,12.945841 C 2.8786586,12.840755 2.3506874,12.563602 1.8939695,12.104546 1.5417426,11.750516 1.3126352,11.387468 1.1704518,10.958047 1.0663054,10.643505 1.038323,10.480579 1.0245948,10.108803 1.0144016,9.8327593 1.0195151,9.7133776 1.0491704,9.5350545 1.1803051,8.7465171 1.5888689,8.0791697 2.2416884,7.5871976 2.4082065,7.4617076 2.8683725,7.2170999 2.9959505,7.1862588 3.0575412,7.1713697 3.058061,7.16991 3.0445644,7.0497451 3.0370611,6.9829402 3.0247995,6.8016238 3.0173165,6.64682 2.9681446,5.629579 3.3381621,4.5140735 3.9964895,3.6948701 4.1374783,3.5194278 4.4886132,3.1659359 4.6657645,3.0211024 6.414497,1.5913934 8.9598898,1.6956563 10.600618,3.2642026 c 0.721936,0.6901754 1.187891,1.6005671 1.337898,2.6140112 0.01675,0.1131258 0.02688,0.2093326 0.02252,0.2137927 -0.0044,0.00446 -0.08562,-0.00755 -0.180571,-0.026678 -0.09496,-0.019133 -0.312146,-0.046327 -0.482644,-0.06043 -0.170499,-0.014103 -0.313044,-0.027877 -0.316766,-0.030608 -0.0037,-0.00273 -0.02501,-0.09123 -0.04731,-0.1966642 C 10.726449,4.7974699 10.119701,3.9654202 9.2341001,3.4468605 9.0469919,3.3373 8.6427055,3.1722044 8.4113667,3.1108865 7.8049301,2.9501465 7.1021536,2.9600497 6.4906981,3.1379518 5.784818,3.3433267 5.0884683,3.8400369 4.6489624,4.4516726 4.4834676,4.6819826 4.2534142,5.1331663 4.1699752,5.391069 3.9269582,6.1422129 3.9349999,6.9195891 4.193469,7.6621514 c 0.041777,0.1200239 0.089627,0.2446567 0.1063331,0.2769618 0.016706,0.032305 0.030387,0.061656 0.030402,0.065224 1.56e-5,0.00357 -0.1144635,0.00313 -0.2543979,-9.71e-4 C 3.791182,7.9950225 3.5743771,8.0231101 3.3597118,8.0961388 2.7071059,8.3181536 2.2268706,8.8403297 2.0443403,9.526387 c -0.061777,0.2321949 -0.057656,0.742272 0.00784,0.970298 0.2103146,0.732227 0.7103541,1.234594 1.4444376,1.451163 0.147269,0.04345 0.2063707,0.04493 2.0893098,0.05235 l 1.9377537,0.0076 0.071407,0.117399 c 0.1254093,0.206184 0.3277692,0.46484 0.5182771,0.662462 l 0.1850957,0.192007 -2.3143182,-0.0022 c -1.8442951,-0.0018 -2.3494954,-0.0082 -2.4875251,-0.03166 z"
     id="path4" />
</svg>
