<?xml version="1.0" encoding="UTF-8" standalone="no"?>
<svg
   width="24"
   height="24"
   version="1.1"
   id="svg6"
   sodipodi:docname="device-notifier-symbolic.svg"
   inkscape:version="1.3.2 (091e20ef0f, 2023-11-25, custom)"
   viewBox="0 0 24 24"
   xmlns:inkscape="http://www.inkscape.org/namespaces/inkscape"
   xmlns:sodipodi="http://sodipodi.sourceforge.net/DTD/sodipodi-0.dtd"
   xmlns="http://www.w3.org/2000/svg"
   xmlns:svg="http://www.w3.org/2000/svg">
  <sodipodi:namedview
     id="namedview1"
     pagecolor="#505050"
     bordercolor="#ffffff"
     borderopacity="1"
     inkscape:showpageshadow="0"
     inkscape:pageopacity="0"
     inkscape:pagecheckerboard="1"
     inkscape:deskcolor="#d1d1d1"
     inkscape:zoom="30.791667"
     inkscape:cx="11.983762"
     inkscape:cy="11.983762"
     inkscape:window-width="2560"
     inkscape:window-height="1388"
     inkscape:window-x="2560"
     inkscape:window-y="28"
     inkscape:window-maximized="1"
     inkscape:current-layer="svg6" />
  <defs
     id="defs10" />
  <namedview
     id="namedview8"
     pagecolor="#ffffff"
     bordercolor="#000000"
     borderopacity="0.25"
     inkscape:showpageshadow="2"
     inkscape:pageopacity="0.0"
     inkscape:pagecheckerboard="0"
     inkscape:deskcolor="#d1d1d1"
     showgrid="false"
     inkscape:zoom="35.136364"
     inkscape:cx="9.4773609"
     inkscape:cy="10.98577"
     inkscape:window-width="1920"
     inkscape:window-height="1011"
     inkscape:window-x="0"
     inkscape:window-y="0"
     inkscape:window-maximized="1"
     inkscape:current-layer="svg6" />
  <style
     type="text/css"
     id="current-color-scheme">.ColorScheme-Text{color:#31363b;}.ColorScheme-Background{color:#eff0f1;}.ColorScheme-Highlight{color:#3daee9;}.ColorScheme-ViewText{color:#31363b;}.ColorScheme-ViewBackground{color:#fcfcfc;}.ColorScheme-ViewHover{color:#93cee9;}.ColorScheme-ViewFocus{color:#3daee9;}.ColorScheme-ButtonText{color:#31363b;}.ColorScheme-ButtonBackground{color:#eff0f1;}.ColorScheme-ButtonHover{color:#93cee9;}.ColorScheme-ButtonFocus { color: #3daee9; } </style>
  <g
     transform="translate(1,1)"
     id="g1">
    <g
       id="22-22-device-notifier"
       transform="translate(-358,-534.36218)">
      <rect
         y="534.36218"
         x="358"
         height="21.999985"
         width="21.999985"
         id="rect4157"
         style="opacity:0.2;fill:none;fill-opacity:1;stroke:none" />
      <path
         inkscape:connector-curvature="0"
         id="rect4159"
         d="m 365,537.36218 v 8 h -1 v 1 7 h 1 9 v -1 -6 -1 h -1 v -8 z m 1,2 h 1 v 4 h -1 z m 5,0 h 1 v 4 h -1 z m -3,2 h 2 v 2 h -2 z m -3,5 h 8 v 6 h -8 z m 4,1 -1,1 h 2 z m -3,3 v 1 h 6 v -1 z"
         style="opacity:1;fill:currentColor;fill-opacity:1;stroke:none"
         class="ColorScheme-Text" />
    </g>
  </g>
  <path
     style="opacity:1;fill:#ffffff;stroke:#cccccc;stroke-width:0.0324763"
     d="M 7.014885,15.994587 V 12 h 0.5033829 0.503383 V 8.0054127 4.0108254 H 12 15.978349 V 8.0054127 12 h 0.503383 0.503383 v 3.994587 3.994588 H 12 7.014885 Z m 8.99594,0 V 12.97429 H 12 7.9891746 v 3.020297 3.020298 H 12 16.010825 Z M 10.002706,8.0054127 V 5.9918809 H 9.4993234 8.9959405 v 2.0135318 2.0135323 h 0.5033829 0.5033826 z m 3.020298,0.9905278 V 7.9729364 H 12 10.976996 V 8.9959405 10.018945 H 12 13.023004 Z M 15.00406,8.0054127 V 5.9918809 h -0.503383 -0.503383 v 2.0135318 2.0135323 h 0.503383 0.503383 z"
     id="path1" />
  <path
     style="opacity:1;fill:#ffffff;stroke:#cccccc;stroke-width:0.0324763"
     d="m 11.512862,14.50067 0.486339,-0.487151 0.479425,0.478626 c 0.263684,0.263244 0.479425,0.482462 0.479425,0.487151 0,0.0047 -0.434594,0.0085 -0.965764,0.0085 h -0.965764 z"
     id="path2" />
  <path
     style="opacity:1;fill:#ffffff;stroke:#cccccc;stroke-width:0.0324763"
     d="M 9.0284168,17.488498 V 17.001353 H 12 14.971583 v 0.487145 0.487145 H 12 9.0284168 Z"
     id="path3" />
</svg>
