<?xml version="1.0" encoding="UTF-8" standalone="no"?>
<svg
   width="24"
   height="24"
   viewBox="0 0 24 24"
   version="1.1"
   id="svg1"
   sodipodi:docname="kalarm-symbolic.svg"
   inkscape:version="1.3.2 (091e20ef0f, 2023-11-25, custom)"
   xmlns:inkscape="http://www.inkscape.org/namespaces/inkscape"
   xmlns:sodipodi="http://sodipodi.sourceforge.net/DTD/sodipodi-0.dtd"
   xmlns="http://www.w3.org/2000/svg"
   xmlns:svg="http://www.w3.org/2000/svg">
  <defs
     id="defs1" />
  <sodipodi:namedview
     id="namedview1"
     pagecolor="#505050"
     bordercolor="#ffffff"
     borderopacity="1"
     inkscape:showpageshadow="0"
     inkscape:pageopacity="0"
     inkscape:pagecheckerboard="1"
     inkscape:deskcolor="#d1d1d1"
     inkscape:zoom="30.791667"
     inkscape:cx="11.983762"
     inkscape:cy="11.983762"
     inkscape:window-width="2560"
     inkscape:window-height="1388"
     inkscape:window-x="2560"
     inkscape:window-y="28"
     inkscape:window-maximized="1"
     inkscape:current-layer="svg1" />
  <style
     type="text/css"
     id="current-color-scheme">.ColorScheme-Text{color:#31363b;}.ColorScheme-Background{color:#eff0f1;}.ColorScheme-Highlight{color:#3daee9;}.ColorScheme-ViewText{color:#31363b;}.ColorScheme-ViewBackground{color:#fcfcfc;}.ColorScheme-ViewHover{color:#93cee9;}.ColorScheme-ViewFocus{color:#3daee9;}.ColorScheme-ButtonText{color:#31363b;}.ColorScheme-ButtonBackground{color:#eff0f1;}.ColorScheme-ButtonHover{color:#93cee9;}.ColorScheme-ButtonFocus { color: #3daee9; } </style>
  <g
     transform="translate(1,1)"
     id="g1">
    <g
       transform="translate(-326,-534.3622) translate(0,2e-05)"
       id="kalarm">
      <rect
         y="534.36218"
         x="326"
         height="22"
         width="22"
         id="rect4178"
         style="opacity:1;fill:none;fill-opacity:1;stroke:none;stroke-width:0.1;stroke-linecap:square;stroke-linejoin:miter;stroke-miterlimit:4;stroke-dasharray:none;stroke-dashoffset:0;stroke-opacity:1" />
      <path
         class="ColorScheme-Text"
         style="fill:currentColor;fill-opacity:1;stroke:none"
         d="m 337,537.3622 a 1.5,1.5 0 0 0 -1.5,1.5 1.5,1.5 0 0 0 0.16797,0.68555 5,5 0 0 0 -3.66797,4.81445 3.5,6 0 0 1 -3,5.93164 l 0,1.02149 0,0.0469 11.08789,0 a 1.5,1.5 0 0 0 -0.0879,0.5 1.5,1.5 0 0 0 1.5,1.5 1.5,1.5 0 0 0 1.5,-1.5 1.5,1.5 0 0 0 -0.0879,-0.5 l 2.08789,0 0,-0.0469 0,-1.02148 a 3.5,6 0 0 1 -3,-5.93165 5,5 0 0 0 -3.66602,-4.81836 1.5,1.5 0 0 0 0.16602,-0.68164 1.5,1.5 0 0 0 -1.5,-1.5 z m 0,3 a 4,4 0 0 1 4,4 4.5,7 0 0 0 2.19531,6 l -12.39062,0 a 4.5,7 0 0 0 2.19531,-6 4,4 0 0 1 4,-4 z"
         id="path4183" />
    </g>
  </g>
  <path
     style="fill:#ffffff;stroke:#cccccc;stroke-width:0.0324763"
     d="m 16.149322,19.939109 c -0.588884,-0.158593 -1.012377,-0.62122 -1.112601,-1.215411 -0.03674,-0.217791 -0.01339,-0.526268 0.0529,-0.699013 0.01674,-0.04362 -0.593709,-0.04904 -5.5218673,-0.04904 H 4.0270636 v -0.51527 -0.515269 l 0.202977,-0.07332 c 1.01797,-0.367724 1.8857718,-1.495155 2.381947,-3.094578 C 6.851742,13.004355 6.9698361,12.220718 7.0157112,11.098216 7.048672,10.29171 7.1022134,9.9453483 7.273426,9.4310432 7.7631118,7.9600803 8.9662951,6.7524841 10.40866,6.2843096 c 0.125034,-0.040585 0.235922,-0.078536 0.246417,-0.084337 0.01049,-0.0058 -0.01677,-0.1171055 -0.0606,-0.2473437 -0.06851,-0.2035894 -0.07753,-0.278619 -0.06432,-0.5350261 0.01327,-0.2575737 0.03142,-0.3320486 0.133176,-0.5463095 0.359035,-0.7560248 1.246741,-1.0645089 1.998462,-0.6944794 0.63688,0.3135003 0.961367,1.0646003 0.754357,1.7461361 -0.03856,0.126936 -0.07028,0.2398911 -0.0705,0.2510115 -2.17e-4,0.01112 0.126466,0.062849 0.281517,0.1149519 0.369177,0.1240574 0.922275,0.4088361 1.252487,0.6448794 0.979717,0.700324 1.699219,1.7589611 1.964385,2.8902938 0.0931,0.3971944 0.108363,0.5367634 0.139368,1.2741294 0.05079,1.207913 0.16929,1.941394 0.457254,2.830275 0.48666,1.502213 1.346021,2.588103 2.329287,2.943291 l 0.202977,0.07332 v 0.515269 0.51527 H 18.93022 c -0.832021,0 -1.039505,0.0084 -1.02682,0.04143 0.05478,0.142762 0.09304,0.451196 0.07524,0.606649 -0.105243,0.919317 -0.975752,1.545264 -1.82932,1.315388 z m 1.759066,-3.2544 c -0.966149,-1.095028 -1.599242,-2.63827 -1.816077,-4.42691 -0.0272,-0.224382 -0.06342,-0.728577 -0.08049,-1.120433 -0.0417,-0.957359 -0.135367,-1.3706845 -0.447659,-1.975339 -0.58054,-1.1240334 -1.644135,-1.8984241 -2.91023,-2.1189043 -0.403406,-0.07025 -1.192367,-0.045348 -1.570794,0.049579 C 9.6064449,7.4631248 8.4829614,8.5655834 8.1166256,10.0037 8.0291393,10.347144 8.0141706,10.475645 7.9881184,11.106901 7.9474558,12.09217 7.8827916,12.621299 7.7122798,13.364005 7.4096674,14.682109 6.8540372,15.82058 6.0916123,16.684709 L 5.8122357,17.001353 H 12 18.187764 Z"
     id="path1" />
</svg>
