<?xml version="1.0" encoding="UTF-8" standalone="no"?>
<svg
   width="24"
   height="24"
   version="1.1"
   id="svg6"
   sodipodi:docname="kdeconnect-symbolic.svg"
   inkscape:version="1.3.2 (091e20ef0f, 2023-11-25, custom)"
   viewBox="0 0 24 24"
   xmlns:inkscape="http://www.inkscape.org/namespaces/inkscape"
   xmlns:sodipodi="http://sodipodi.sourceforge.net/DTD/sodipodi-0.dtd"
   xmlns="http://www.w3.org/2000/svg"
   xmlns:svg="http://www.w3.org/2000/svg">
  <sodipodi:namedview
     id="namedview1"
     pagecolor="#505050"
     bordercolor="#ffffff"
     borderopacity="1"
     inkscape:showpageshadow="0"
     inkscape:pageopacity="0"
     inkscape:pagecheckerboard="1"
     inkscape:deskcolor="#d1d1d1"
     inkscape:zoom="30.791667"
     inkscape:cx="11.983762"
     inkscape:cy="11.983762"
     inkscape:window-width="2560"
     inkscape:window-height="1388"
     inkscape:window-x="2560"
     inkscape:window-y="28"
     inkscape:window-maximized="1"
     inkscape:current-layer="svg6" />
  <defs
     id="defs10" />
  <namedview
     id="namedview8"
     pagecolor="#ffffff"
     bordercolor="#000000"
     borderopacity="0.25"
     inkscape:showpageshadow="2"
     inkscape:pageopacity="0.0"
     inkscape:pagecheckerboard="0"
     inkscape:deskcolor="#d1d1d1"
     showgrid="false"
     inkscape:zoom="35.136364"
     inkscape:cx="9.4773609"
     inkscape:cy="10.98577"
     inkscape:window-width="1920"
     inkscape:window-height="1011"
     inkscape:window-x="0"
     inkscape:window-y="0"
     inkscape:window-maximized="1"
     inkscape:current-layer="svg6" />
  <style
     type="text/css"
     id="current-color-scheme">.ColorScheme-Text{color:#31363b;}.ColorScheme-Background{color:#eff0f1;}.ColorScheme-Highlight{color:#3daee9;}.ColorScheme-ViewText{color:#31363b;}.ColorScheme-ViewBackground{color:#fcfcfc;}.ColorScheme-ViewHover{color:#93cee9;}.ColorScheme-ViewFocus{color:#3daee9;}.ColorScheme-ButtonText{color:#31363b;}.ColorScheme-ButtonBackground{color:#eff0f1;}.ColorScheme-ButtonHover{color:#93cee9;}.ColorScheme-ButtonFocus { color: #3daee9; } </style>
  <g
     transform="translate(1,1)"
     id="g1">
    <g
       id="22-22-kdeconnect"
       transform="translate(-356,-534.36218)">
      <rect
         style="opacity:1;fill:none;fill-opacity:1;stroke:none;stroke-width:0.138587;stroke-linecap:square;stroke-linejoin:miter;stroke-miterlimit:4;stroke-dasharray:none;stroke-dashoffset:0;stroke-opacity:1"
         id="rect4444"
         width="22"
         height="22"
         x="356"
         y="534.36218" />
      <path
         style="opacity:1;fill:currentColor;fill-opacity:1;stroke:none;stroke-width:0.1;stroke-linecap:square;stroke-linejoin:miter;stroke-miterlimit:4;stroke-dasharray:none;stroke-dashoffset:0;stroke-opacity:1"
         d="M 40,8 V 24 H 50 V 8 Z m 3,1 h 4 v 1 h -4 z m -2,2 h 8 v 5.5 l -1.107422,-0.277344 c -0.0672,-0.252122 -0.166996,-0.494401 -0.296875,-0.720703 l 0.585938,-0.976562 -0.707032,-0.707032 -0.976562,0.585938 C 46.271331,14.272906 46.028379,14.171786 45.775391,14.103516 L 45.5,13 h -1 l -0.277344,1.107422 c -0.252122,0.0672 -0.494401,0.166996 -0.720703,0.296875 l -0.976562,-0.585938 -0.707032,0.707032 0.585938,0.976562 c -0.131391,0.226716 -0.232511,0.469668 -0.300781,0.722656 L 41,16.5 Z m 4,4 c 0.06653,-6e-5 0.133016,0.0032 0.199219,0.0098 0.0662,0.0065 0.132038,0.01626 0.197265,0.0293 0.06592,0.01363 0.131105,0.03058 0.195313,0.05078 0.0636,0.01965 0.126177,0.04247 0.1875,0.06836 0.06129,0.02564 0.121256,0.05433 0.179687,0.08594 0.05836,0.0323 0.115076,0.0675 0.169922,0.105468 0.05538,0.03766 0.108832,0.07807 0.160156,0.121094 0.05108,0.0431 0.09997,0.08873 0.146485,0.136719 0.04604,0.04729 0.08971,0.09683 0.130859,0.148437 0.0418,0.05268 0.08091,0.10744 0.117188,0.164063 0.03609,0.05624 0.06933,0.114258 0.09961,0.173828 0.02968,0.05918 0.05641,0.119806 0.08008,0.181641 0.02463,0.06204 0.04614,0.125266 0.06445,0.189453 0.01757,0.06435 0.03191,0.129532 0.04297,0.195312 0.01114,0.06597 0.01896,0.132462 0.02344,0.199219 0.0036,0.04679 0.0056,0.0937 0.0059,0.140625 6e-5,0.06653 -0.0032,0.133016 -0.0098,0.199219 -0.0065,0.0662 -0.01626,0.132038 -0.0293,0.197265 -0.01363,0.06592 -0.03058,0.131105 -0.05078,0.195313 -0.01965,0.0636 -0.04247,0.126177 -0.06836,0.1875 -0.02564,0.06129 -0.05432,0.121256 -0.08594,0.179687 -0.0323,0.05836 -0.0675,0.115076 -0.105468,0.169922 -0.03766,0.05538 -0.07807,0.108832 -0.121094,0.160156 -0.0431,0.05108 -0.08873,0.09997 -0.136719,0.146485 -0.04729,0.04604 -0.09683,0.08972 -0.148437,0.130859 -0.05268,0.0418 -0.10744,0.08091 -0.164063,0.117188 -0.05624,0.03609 -0.114258,0.06933 -0.173828,0.09961 -0.05918,0.02968 -0.119806,0.05641 -0.181641,0.08008 -0.06204,0.02463 -0.125266,0.04614 -0.189453,0.06445 -0.06435,0.01757 -0.129532,0.03191 -0.195312,0.04297 -0.06597,0.01114 -0.132462,0.01896 -0.199219,0.02344 -0.02795,0.0025 -0.05595,0.0045 -0.08398,0.0059 h -0.136719 c -0.03976,-7.68e-4 -0.07949,-0.0027 -0.119141,-0.0059 -0.0662,-0.0065 -0.132038,-0.01626 -0.197265,-0.0293 -0.06592,-0.01363 -0.131105,-0.03058 -0.195313,-0.05078 -0.0636,-0.01965 -0.126177,-0.04247 -0.1875,-0.06836 -0.06129,-0.02564 -0.121256,-0.05432 -0.179687,-0.08594 -0.05836,-0.0323 -0.115076,-0.0675 -0.169922,-0.105469 -0.05538,-0.03766 -0.108832,-0.07807 -0.160156,-0.121094 -0.03011,-0.02646 -0.05942,-0.05381 -0.08789,-0.08203 l -0.08789,-0.08789 c -0.03532,-0.0371 -0.0692,-0.07554 -0.101562,-0.115234 -0.0418,-0.05268 -0.08091,-0.10744 -0.117188,-0.164063 -0.03609,-0.05624 -0.06933,-0.114258 -0.09961,-0.173828 -0.02968,-0.05918 -0.05641,-0.119805 -0.08008,-0.18164 -0.02463,-0.06204 -0.04614,-0.125267 -0.06445,-0.189454 -0.01757,-0.06435 -0.03191,-0.129532 -0.04297,-0.195312 -0.01114,-0.06597 -0.01896,-0.132462 -0.02344,-0.199219 -0.0036,-0.04679 -0.0056,-0.0937 -0.0059,-0.140625 -6e-5,-0.06653 0.0032,-0.133016 0.0098,-0.199218 0.0065,-0.0662 0.01626,-0.132039 0.0293,-0.197266 0.01363,-0.06592 0.03058,-0.131105 0.05078,-0.195313 0.01965,-0.0636 0.04247,-0.126177 0.06836,-0.1875 0.02564,-0.06129 0.05432,-0.121256 0.08594,-0.179687 0.0323,-0.05836 0.0675,-0.115076 0.105468,-0.169922 0.03766,-0.05538 0.07807,-0.108832 0.121094,-0.160156 0.0431,-0.05108 0.08873,-0.09997 0.136719,-0.146485 0.04729,-0.04604 0.09683,-0.08971 0.148437,-0.130859 0.05268,-0.0418 0.10744,-0.08091 0.164063,-0.117188 0.05624,-0.03609 0.114258,-0.06933 0.173828,-0.09961 0.05918,-0.02968 0.119806,-0.05641 0.181641,-0.08008 0.06204,-0.02463 0.125266,-0.04614 0.189453,-0.06445 0.06435,-0.01757 0.129532,-0.03191 0.195312,-0.04297 0.06597,-0.01114 0.132462,-0.01896 0.199219,-0.02344 C 44.906121,15.004859 44.953025,15.001602 45,15 Z m -4,2.5 1.107422,0.277344 c 0.0672,0.252122 0.166996,0.494401 0.296875,0.720703 l -0.585938,0.976562 0.707032,0.707032 0.976562,-0.585938 c 0.226716,0.131391 0.469668,0.232511 0.722656,0.300781 L 44.5,21 h 1 l 0.277344,-1.107422 c 0.252122,-0.0672 0.494401,-0.166996 0.720703,-0.296875 l 0.976562,0.585938 0.707032,-0.707032 -0.585938,-0.976562 c 0.131391,-0.226716 0.232511,-0.469668 0.300781,-0.722656 L 49,17.5 v 3.5 1 h -2 -4 -2 v -1 z"
         transform="translate(322,529.36218)"
         id="rect4403"
         inkscape:connector-curvature="0"
         sodipodi:nodetypes="ccccccccccccccccccccccccccccccccccccccccccccccccccccccccccccccccccccccccccccccccccccccccccccccccccccccccccccccccccccccc"
         class="ColorScheme-Text" />
    </g>
  </g>
  <path
     style="fill:#ffffff;stroke:#cccccc;stroke-width:0.0324763"
     d="M 7.014885,12 V 4.0108254 H 12 16.985115 V 12 19.989175 H 12 7.014885 Z m 8.99594,3.747227 c 0,-2.137191 -0.0031,-2.260086 -0.05683,-2.246162 -0.03126,0.0081 -0.285201,0.07099 -0.564317,0.13976 l -0.507484,0.125031 -0.05668,0.180671 c -0.03117,0.09937 -0.09928,0.265347 -0.151351,0.368839 l -0.09467,0.188168 0.289919,0.481696 0.28992,0.481696 -0.3459,0.344827 -0.345899,0.344827 -0.482275,-0.288306 -0.482275,-0.288306 -0.269671,0.126372 c -0.148319,0.0695 -0.313189,0.135076 -0.366376,0.145713 -0.09558,0.01912 -0.09835,0.02583 -0.238247,0.576202 l -0.141541,0.55686 H 12 11.512855 l -0.141648,-0.557282 -0.141648,-0.557282 -0.104557,-0.01961 c -0.05751,-0.01079 -0.221293,-0.07607 -0.363972,-0.145065 L 10.501615,15.580421 10.019439,15.870889 9.5372628,16.161358 9.188967,15.814142 8.8406711,15.466926 9.129096,14.987713 9.417521,14.5085 9.3074377,14.269135 C 9.2468919,14.137484 9.1797947,13.970473 9.1583327,13.897998 L 9.1193111,13.766226 8.6110764,13.641011 c -0.2795291,-0.06887 -0.5338098,-0.131844 -0.5650683,-0.139946 -0.053724,-0.01392 -0.056833,0.108971 -0.056833,2.246162 v 2.260892 H 12 16.010825 Z m -3.378966,-0.844052 c 1.134536,-0.374969 1.685638,-1.642837 1.192896,-2.744389 -0.387542,-0.866375 -1.376417,-1.339856 -2.303247,-1.102812 -1.000469,0.255877 -1.6091127,1.132797 -1.51303,2.17994 0.06269,0.683154 0.532716,1.320357 1.188656,1.611416 0.441593,0.195946 0.950846,0.215769 1.434725,0.05584 z m -3.9984156,-2.54425 0.4656491,-0.116783 0.1089053,-0.281695 c 0.059898,-0.154932 0.1334421,-0.319143 0.1634317,-0.364913 0.053954,-0.08234 0.051423,-0.08841 -0.2410973,-0.578212 L 8.8347085,10.522327 9.1791552,10.176763 9.5236018,9.8311989 10.00906,10.123383 l 0.485458,0.292183 0.249358,-0.112909 c 0.137147,-0.0621 0.30375,-0.130415 0.37023,-0.151813 0.136063,-0.04379 0.11639,0.0037 0.286889,-0.692116 L 11.51042,9.0121786 H 12 12.48958 l 0.109425,0.4465494 c 0.170647,0.696387 0.150739,0.648442 0.286889,0.690951 0.06648,0.02076 0.232622,0.08911 0.369205,0.151905 l 0.248333,0.114167 0.467088,-0.279594 c 0.256898,-0.1537769 0.481539,-0.2795941 0.499202,-0.2795941 0.01766,0 0.181388,0.1497971 0.363833,0.3328821 l 0.331717,0.332882 -0.292835,0.490341 -0.292835,0.490341 0.08519,0.169617 c 0.04686,0.09329 0.117232,0.259114 0.156389,0.368499 l 0.0712,0.198882 0.469912,0.11785 c 0.258452,0.06482 0.510102,0.128009 0.559223,0.140426 l 0.08931,0.02257 V 9.7597526 6.9986468 H 12 7.9891746 v 2.7611058 2.7611054 l 0.08931,-0.02257 c 0.04912,-0.01242 0.298852,-0.07513 0.554959,-0.139358 z M 14.013532,5.5047361 V 5.0013532 H 12 9.9864682 l -0.00905,0.4694132 c -0.00498,0.2581772 -0.00174,0.4884648 0.00719,0.5117501 0.013159,0.034292 0.3974968,0.040747 2.0225828,0.03397 l 2.006337,-0.00837 z"
     id="path1" />
</svg>
