<?xml version="1.0" encoding="UTF-8" standalone="no"?>
<svg
   width="24"
   height="24"
   version="1.1"
   id="svg6"
   sodipodi:docname="konversation-symbolic.svg"
   inkscape:version="1.3.2 (091e20ef0f, 2023-11-25, custom)"
   viewBox="0 0 24 24"
   xmlns:inkscape="http://www.inkscape.org/namespaces/inkscape"
   xmlns:sodipodi="http://sodipodi.sourceforge.net/DTD/sodipodi-0.dtd"
   xmlns="http://www.w3.org/2000/svg"
   xmlns:svg="http://www.w3.org/2000/svg">
  <sodipodi:namedview
     id="namedview1"
     pagecolor="#505050"
     bordercolor="#ffffff"
     borderopacity="1"
     inkscape:showpageshadow="0"
     inkscape:pageopacity="0"
     inkscape:pagecheckerboard="1"
     inkscape:deskcolor="#d1d1d1"
     inkscape:zoom="30.791667"
     inkscape:cx="11.983762"
     inkscape:cy="11.983762"
     inkscape:window-width="2560"
     inkscape:window-height="1388"
     inkscape:window-x="2560"
     inkscape:window-y="28"
     inkscape:window-maximized="1"
     inkscape:current-layer="svg6" />
  <defs
     id="defs10" />
  <namedview
     id="namedview8"
     pagecolor="#ffffff"
     bordercolor="#000000"
     borderopacity="0.25"
     inkscape:showpageshadow="2"
     inkscape:pageopacity="0.0"
     inkscape:pagecheckerboard="0"
     inkscape:deskcolor="#d1d1d1"
     showgrid="false"
     inkscape:zoom="35.136364"
     inkscape:cx="9.4773609"
     inkscape:cy="10.98577"
     inkscape:window-width="1920"
     inkscape:window-height="1011"
     inkscape:window-x="0"
     inkscape:window-y="0"
     inkscape:window-maximized="1"
     inkscape:current-layer="svg6" />
  <style
     type="text/css"
     id="current-color-scheme">.ColorScheme-Text{color:#31363b;}.ColorScheme-Background{color:#eff0f1;}.ColorScheme-Highlight{color:#3daee9;}.ColorScheme-ViewText{color:#31363b;}.ColorScheme-ViewBackground{color:#fcfcfc;}.ColorScheme-ViewHover{color:#93cee9;}.ColorScheme-ViewFocus{color:#3daee9;}.ColorScheme-ButtonText{color:#31363b;}.ColorScheme-ButtonBackground{color:#eff0f1;}.ColorScheme-ButtonHover{color:#93cee9;}.ColorScheme-ButtonFocus { color: #3daee9; } </style>
  <g
     transform="translate(1,1)"
     id="g1">
    <g
       id="konversation"
       transform="translate(-326,-534.36218)">
      <path
         sodipodi:nodetypes="cccccccccccccccccccccccccccccccccccccc"
         inkscape:connector-curvature="0"
         id="rect3353"
         d="m 344,538.3622 -12,3.41797 v 1.04297 4.53906 0.58203 l 1,0.28516 v 2.13281 0.30078 l 6,1.69922 v -1 -1.42383 l 5,1.42383 v -1.04297 -10.91406 z m -1,1.32813 v 10.34375 l -10,-2.84766 v -4.64844 z m -12,2.375 -1,0.28515 v 0.0117 1 3 1 0.0117 l 1,0.28516 v -0.29688 -0.74609 -3.50782 -0.74609 z m 3,6.44921 4,1.13868 v 1.42578 l -4,-1.13282 z"
         style="opacity:1;fill:currentColor;fill-opacity:1;stroke:none;stroke-width:0.1;stroke-linecap:round;stroke-linejoin:miter;stroke-miterlimit:4;stroke-dasharray:none;stroke-opacity:0.299435"
         class="ColorScheme-Text" />
      <rect
         y="534.36218"
         x="326"
         height="22"
         width="22"
         id="rect4170"
         style="opacity:1;fill:none;fill-opacity:1;stroke:none" />
    </g>
  </g>
  <path
     style="fill:#ffffff;stroke:#cccccc;stroke-width:0.0324763"
     d="m 5.4639417,14.134085 -0.4629866,-0.131565 0.00832,-2.502033 0.00832,-2.5020334 0.2598106,-0.074587 C 5.4202977,8.8828439 5.6358593,8.8212935 5.7564276,8.7870882 l 0.2192152,-0.062192 v 2.7742228 c 0,1.525823 -0.010961,2.772492 -0.024357,2.770377 -0.013396,-0.0021 -0.2327012,-0.06305 -0.4873441,-0.135411 z"
     id="path1" />
  <path
     style="fill:#ffffff;stroke:#cccccc;stroke-width:0.0324763"
     d="M 13.753721,18.918291 C 13.646549,18.885033 12.988904,18.696903 12.292287,18.500224 11.59567,18.303545 10.448444,17.979699 9.7428958,17.780565 9.0373478,17.581432 8.3614344,17.389791 8.240866,17.354697 L 8.0216509,17.29089 V 16.075778 14.860667 L 7.8024357,14.796335 C 7.6818674,14.760953 7.4589986,14.696667 7.3071719,14.653477 l -0.2760488,-0.07853 -0.00828,-3.0711 -0.00828,-3.0711003 0.1057124,-0.033579 C 7.1784105,8.3807032 7.9201624,8.1685987 8.7686062,7.9278281 9.6170501,7.6870575 11.728823,7.0861785 13.461434,6.5925414 c 1.732612,-0.4936371 3.661705,-1.0430118 4.286875,-1.2208328 0.625169,-0.1778209 1.162246,-0.331227 1.193504,-0.3409025 0.054,-0.016714 0.05683,0.3059867 0.05683,6.4636219 0,3.564669 -0.0069,6.481215 -0.01535,6.481215 -0.0084,0 -1.119701,-0.314209 -2.469468,-0.698241 -1.349766,-0.384033 -2.468164,-0.698241 -2.485329,-0.698241 -0.0194,0 -0.03121,0.454718 -0.03121,1.201624 0,0.660893 -0.01096,1.200803 -0.02436,1.199799 -0.0134,-0.001 -0.112043,-0.02904 -0.219215,-0.06229 z m -0.738215,-1.921926 -0.0087,-0.719468 -1.981056,-0.563065 C 9.9361299,15.404146 9.0336942,15.150639 9.0202977,15.150485 c -0.013397,-1.55e-4 -0.024357,0.32566 -0.024357,0.724034 v 0.724316 l 1.1772663,0.332051 c 0.647497,0.182628 1.528011,0.43282 1.956698,0.555982 0.428688,0.123161 0.805287,0.225063 0.836887,0.226447 0.05355,0.0023 0.05686,-0.04634 0.04871,-0.71695 z m 5.008851,-5.499748 c 0,-2.8489851 -0.0077,-5.1799729 -0.01701,-5.1799729 -0.01496,0 -3.726411,1.0547969 -8.443069,2.3995236 l -1.5588633,0.4444345 -0.00833,2.3395828 -0.00833,2.339584 0.3818087,0.106423 c 0.8321133,0.231937 8.9425256,2.543239 9.2316056,2.630818 0.169689,0.05141 0.3341,0.09484 0.365359,0.09652 0.0539,0.0029 0.05683,-0.264097 0.05683,-5.176918 z"
     id="path2" />
</svg>
