<?xml version="1.0" encoding="UTF-8" standalone="no"?>
<svg
   width="24"
   height="24"
   viewBox="0 0 24 24"
   version="1.1"
   id="svg1"
   sodipodi:docname="kteatime-symbolic.svg"
   inkscape:version="1.3.2 (091e20ef0f, 2023-11-25, custom)"
   xmlns:inkscape="http://www.inkscape.org/namespaces/inkscape"
   xmlns:sodipodi="http://sodipodi.sourceforge.net/DTD/sodipodi-0.dtd"
   xmlns="http://www.w3.org/2000/svg"
   xmlns:svg="http://www.w3.org/2000/svg">
  <defs
     id="defs1" />
  <sodipodi:namedview
     id="namedview1"
     pagecolor="#505050"
     bordercolor="#ffffff"
     borderopacity="1"
     inkscape:showpageshadow="0"
     inkscape:pageopacity="0"
     inkscape:pagecheckerboard="1"
     inkscape:deskcolor="#d1d1d1"
     inkscape:zoom="30.791667"
     inkscape:cx="11.983762"
     inkscape:cy="11.983762"
     inkscape:window-width="2560"
     inkscape:window-height="1388"
     inkscape:window-x="2560"
     inkscape:window-y="28"
     inkscape:window-maximized="1"
     inkscape:current-layer="svg1" />
  <style
     type="text/css"
     id="current-color-scheme">.ColorScheme-Text{color:#31363b;}.ColorScheme-Background{color:#eff0f1;}.ColorScheme-Highlight{color:#3daee9;}.ColorScheme-ViewText{color:#31363b;}.ColorScheme-ViewBackground{color:#fcfcfc;}.ColorScheme-ViewHover{color:#93cee9;}.ColorScheme-ViewFocus{color:#3daee9;}.ColorScheme-ButtonText{color:#31363b;}.ColorScheme-ButtonBackground{color:#eff0f1;}.ColorScheme-ButtonHover{color:#93cee9;}.ColorScheme-ButtonFocus { color: #3daee9; } </style>
  <g
     transform="translate(1,1)"
     id="g1">
    <g
       id="kteatime"
       transform="translate(-1.22125e-15,-1.22125e-15)">
      <rect
         y="1.2212453e-015"
         x="1.2212453e-015"
         height="22"
         width="22"
         id="rect3825"
         style="fill:#566060;fill-opacity:0;stroke:none" />
      <path
         inkscape:connector-curvature="0"
         style="opacity:1;fill:currentColor;fill-opacity:1;stroke:none"
         d="m 10,2 0,2 1,0 0,-2 -1,0 z M 7,3 7,4 8,4 8,3 7,3 Z m 6,0 0,1 1,0 0,-1 -1,0 z m -8,2 0,12 12,0 0,-3 1,0 c 1.108,0 2,-0.892 2,-2 L 20,8 C 20,6.892 19.108,6 18,6 L 17,6 17,5 5,5 Z M 6,6 9,6 9,7 8,7 C 7.446,7 7,7.446 7,8 l 0,5 c 0,0.554 0.446,1 1,1 l 3,0 c 0.554,0 1,-0.446 1,-1 L 12,8 C 12,7.446 11.554,7 11,7 L 10,7 10,6 16,6 16,16 6,16 6,6 Z m 11,1 1,0 c 0.554,0 1,0.446 1,1 l 0,4 c 0,0.554 -0.446,1 -1,1 l -1,0 0,-6 z m -9,2 3,0 0,4 -3,0 0,-4 z m -5,9 0,1 16,0 0,-1 -16,0 z"
         id="rect4168"
         class="ColorScheme-Text" />
    </g>
  </g>
  <path
     style="fill:#ffffff;stroke:#cccccc;stroke-width:0.0324763"
     d="M 6.0081191,12 V 6.0243572 H 12 17.991881 v 0.4827499 0.4827498 l 0.657645,0.017656 c 0.721376,0.019366 0.891413,0.050173 1.254251,0.2272403 0.313476,0.1529785 0.704566,0.5479394 0.859582,0.8680889 0.221871,0.4582219 0.216396,0.3849389 0.215863,2.8890959 -3.9e-4,1.838158 -0.0091,2.294659 -0.04666,2.453258 -0.141563,0.597294 -0.525,1.074385 -1.074222,1.3366 -0.345226,0.164821 -0.593163,0.204814 -1.273764,0.205462 l -0.592693,5.63e-4 v 1.493911 1.493911 H 12 6.0081191 Z M 17.017591,12 V 6.9986468 h -3.020297 -3.020298 v 0.5003944 0.5003944 l 0.625169,0.012007 c 0.569799,0.010944 0.640166,0.018709 0.794493,0.087672 0.210574,0.094098 0.433281,0.327669 0.515361,0.5405005 0.0596,0.1545447 0.06227,0.278418 0.06227,2.8894769 v 2.728011 l -0.07652,0.146144 c -0.104251,0.199118 -0.280966,0.378155 -0.475583,0.481831 l -0.162381,0.0865 H 10.506089 8.7523681 L 8.5678505,14.880971 C 8.3678004,14.782732 8.2260768,14.64176 8.1111601,14.426702 L 8.037889,14.289581 V 11.496617 8.7036536 L 8.1385261,8.5250338 c 0.058158,-0.1032245 0.16642,-0.2287868 0.256484,-0.2974711 0.237819,-0.1813645 0.4335029,-0.22215 1.0658484,-0.22215 H 10.002706 V 7.5020298 6.9986468 H 8.4925575 6.9824087 V 12 17.001353 H 12 17.017591 Z m -5.001353,0 V 9.9864682 H 10.506089 8.9959405 V 12 14.013532 h 1.5101485 1.510149 z m 7.426926,1.908466 c 0.207581,-0.109449 0.374533,-0.277605 0.471971,-0.475374 l 0.07404,-0.150277 V 10.993234 8.7036536 L 19.902764,8.541272 C 19.748254,8.2509163 19.497481,8.0692197 19.16395,8.0059667 19.068157,7.9878 18.765254,7.9729364 18.490831,7.9729364 h -0.49895 v 3.0227356 3.022735 l 0.641407,-0.01056 c 0.626445,-0.01031 0.645337,-0.01263 0.809876,-0.09938 z"
     id="path1" />
  <path
     style="fill:#ffffff;stroke:#cccccc;stroke-width:0.0324763"
     d="M 8.0216509,4.4979702 V 4.0108254 H 8.5087957 8.9959405 V 4.4979702 4.985115 H 8.5087957 8.0216509 Z"
     id="path2" />
  <path
     style="fill:#ffffff;stroke:#cccccc;stroke-width:0.0324763"
     d="M 11.009472,3.9945873 V 3.0040595 h 0.487145 0.487145 V 3.9945873 4.985115 h -0.487145 -0.487145 z"
     id="path3" />
  <path
     style="fill:#ffffff;stroke:#cccccc;stroke-width:0.0324763"
     d="M 14.02977,4.4979702 V 4.0108254 h 0.470907 0.470906 V 4.4979702 4.985115 H 14.500677 14.02977 Z"
     id="path4" />
  <path
     style="fill:#ffffff;stroke:#cccccc;stroke-width:0.0324763"
     d="M 4.0270636,19.50203 V 19.014885 H 12 19.972936 v 0.487145 0.487145 H 12 4.0270636 Z"
     id="path5" />
</svg>
