<?xml version="1.0" encoding="UTF-8" standalone="no"?>
<svg
   width="24"
   height="24"
   viewBox="0 0 24 24"
   version="1.1"
   id="svg1"
   sodipodi:docname="ktorrent-symbolic.svg"
   inkscape:version="1.3.2 (091e20ef0f, 2023-11-25, custom)"
   xmlns:inkscape="http://www.inkscape.org/namespaces/inkscape"
   xmlns:sodipodi="http://sodipodi.sourceforge.net/DTD/sodipodi-0.dtd"
   xmlns="http://www.w3.org/2000/svg"
   xmlns:svg="http://www.w3.org/2000/svg">
  <defs
     id="defs1" />
  <sodipodi:namedview
     id="namedview1"
     pagecolor="#505050"
     bordercolor="#ffffff"
     borderopacity="1"
     inkscape:showpageshadow="0"
     inkscape:pageopacity="0"
     inkscape:pagecheckerboard="1"
     inkscape:deskcolor="#d1d1d1"
     inkscape:zoom="30.791667"
     inkscape:cx="11.983762"
     inkscape:cy="11.983762"
     inkscape:window-width="2560"
     inkscape:window-height="1388"
     inkscape:window-x="2560"
     inkscape:window-y="28"
     inkscape:window-maximized="1"
     inkscape:current-layer="svg1" />
  <style
     type="text/css"
     id="current-color-scheme">.ColorScheme-Text{color:#31363b;}.ColorScheme-Background{color:#eff0f1;}.ColorScheme-Highlight{color:#3daee9;}.ColorScheme-ViewText{color:#31363b;}.ColorScheme-ViewBackground{color:#fcfcfc;}.ColorScheme-ViewHover{color:#93cee9;}.ColorScheme-ViewFocus{color:#3daee9;}.ColorScheme-ButtonText{color:#31363b;}.ColorScheme-ButtonBackground{color:#eff0f1;}.ColorScheme-ButtonHover{color:#93cee9;}.ColorScheme-ButtonFocus { color: #3daee9; } </style>
  <g
     transform="translate(1,1)"
     id="g1">
    <g
       id="ktorrent">
      <path
         id="rect4163"
         d="M 8 3 L 8 9 L 9 9 L 9 4 L 13 4 L 13 9 L 14 9 L 14 3 L 13 3 L 9 3 L 8 3 z M 5.7929688 10 L 5 10.816406 L 11 17 L 17 10.816406 L 16.207031 10 L 11 15.367188 L 5.7929688 10 z M 4 17 L 4 19 L 5 19 L 17 19 L 18 19 L 18 17 L 17 17 L 17 18 L 5 18 L 5 17 L 4 17 z "
         style="fill:currentColor;fill-opacity:1;stroke:none"
         class="ColorScheme-Text" />
      <rect
         y="0"
         x="0"
         height="22"
         width="22"
         id="rect4183"
         style="opacity:1;fill:none;fill-opacity:1;stroke:none;stroke-width:0.1;stroke-linecap:square;stroke-linejoin:miter;stroke-miterlimit:4;stroke-dasharray:none;stroke-dashoffset:0;stroke-opacity:1" />
    </g>
  </g>
  <path
     style="fill:#ffffff;stroke:#cccccc;stroke-width:0.0324763"
     d="M 9.0284168,6.9986468 V 4.0108254 H 12 14.971583 v 2.9878214 2.9878214 h -0.470705 -0.470705 l -0.0083,-2.4925575 -0.0083,-2.4925575 H 12 9.9864682 l -0.00832,2.4925575 -0.00832,2.4925575 h -0.470705 -0.470705 z"
     id="path1" />
  <path
     style="fill:#ffffff;stroke:#cccccc;stroke-width:0.0324763"
     d="M 11.141778,17.092133 C 10.670264,16.604585 10.04149,15.95724 9.7445037,15.653586 9.4475172,15.349932 8.7311196,14.611908 8.1525088,14.013532 7.5738981,13.415156 6.8550516,12.676567 6.5550722,12.372224 l -0.545417,-0.553351 0.3992775,-0.398319 0.3992774,-0.398319 0.2062545,0.220953 c 0.1822912,0.195282 1.0423266,1.08388 2.7119079,2.801974 1.1044085,1.136499 1.5754905,1.621715 1.9184715,1.976033 l 0.355847,0.367609 2.354188,-2.424434 c 1.294803,-1.333438 2.463795,-2.541665 2.59776,-2.684949 l 0.243572,-0.260515 0.396255,0.400689 0.396255,0.400689 -0.511369,0.520169 c -0.281253,0.286093 -0.751854,0.768613 -1.045781,1.072267 -0.293927,0.303653 -0.775787,0.800541 -1.070801,1.104195 -1.323374,1.362131 -1.609626,1.657021 -2.111879,2.175608 -0.293926,0.303485 -0.695377,0.717001 -0.892113,0.918925 l -0.357701,0.367134 z"
     id="path2" />
  <path
     style="fill:#ffffff;stroke:#cccccc;stroke-width:0.0324763"
     d="M 5.0013532,18.998647 V 18.008119 H 5.488498 5.9756428 v 0.503383 0.503383 H 12 18.024357 v -0.503383 -0.503383 h 0.487145 0.487145 v 0.990528 0.990528 H 12 5.0013532 Z"
     id="path3" />
</svg>
