<?xml version="1.0" encoding="UTF-8" standalone="no"?>
<svg
   viewBox="0 0 22 22"
   version="1.1"
   id="svg1"
   sodipodi:docname="drive-removable-media.svg"
   inkscape:version="1.3.2 (091e20ef0f, 2023-11-25, custom)"
   xmlns:inkscape="http://www.inkscape.org/namespaces/inkscape"
   xmlns:sodipodi="http://sodipodi.sourceforge.net/DTD/sodipodi-0.dtd"
   xmlns="http://www.w3.org/2000/svg"
   xmlns:svg="http://www.w3.org/2000/svg">
  <sodipodi:namedview
     id="namedview1"
     pagecolor="#505050"
     bordercolor="#ffffff"
     borderopacity="1"
     inkscape:showpageshadow="0"
     inkscape:pageopacity="0"
     inkscape:pagecheckerboard="1"
     inkscape:deskcolor="#d1d1d1"
     inkscape:zoom="53.818182"
     inkscape:cx="10.990709"
     inkscape:cy="11"
     inkscape:window-width="2560"
     inkscape:window-height="1388"
     inkscape:window-x="2560"
     inkscape:window-y="28"
     inkscape:window-maximized="1"
     inkscape:current-layer="svg1" />
  <defs
     id="defs3051">
    <style
       type="text/css"
       id="current-color-scheme">
      .ColorScheme-Text {
        color:#232629;
      }
      </style>
  </defs>
  <path
     style="fill:currentColor;fill-opacity:1;stroke:none"
     d="m 7,1033.3622 0,8 -1,0 0,1 0,7 1,0 9,0 0,-1 0,-6 0,-1 -1,0 0,-8 -8,0 z m 1,2 1,0 0,4 -1,0 0,-4 z m 5,0 1,0 0,4 -1,0 0,-4 z m -3,2 2,0 0,2 -2,0 0,-2 z m -3,5 8,0 0,6 -8,0 0,-6 z m 4,1 -1,1 2,0 -1,-1 z m -3,3 0,1 6,0 0,-1 -6,0 z"
     transform="translate(0,-1030.3622)"
     class="ColorScheme-Text"
     id="path1" />
  <path
     style="fill:#ffffff;stroke:#cccccc;stroke-width:0.0185811"
     d="M 6.0016892,15.004223 V 11.009291 H 6.5033784 7.0050676 V 7.0050676 3.0008446 H 11 14.994932 v 4.004223 4.0042234 h 0.50169 0.501689 v 3.994932 3.994932 H 11 6.0016892 Z m 9.0118248,0 V 11.994088 H 11 6.9864865 v 3.010135 3.010135 H 11 15.013514 Z M 9.0118243,6.995777 V 4.9890203 H 8.5008446 7.9898649 V 6.995777 9.0025338 H 8.5008446 9.0118243 Z M 12.003378,7.9991554 V 6.995777 H 11 9.9966216 V 7.9991554 9.0025338 H 11 12.003378 Z M 14.010135,6.995777 V 4.9890203 h -0.51098 -0.510979 V 6.995777 9.0025338 h 0.510979 0.51098 z"
     id="path2" />
  <path
     style="fill:#ffffff;stroke:#cccccc;stroke-width:0.0185811"
     d="M 10.512291,13.494554 11,13.006845 l 0.487709,0.487709 0.487709,0.48771 H 11 10.024582 Z"
     id="path3" />
  <path
     style="fill:#ffffff;stroke:#cccccc;stroke-width:0.0185811"
     d="M 8.0084459,16.5 V 16.007601 H 11 13.991554 V 16.5 16.992399 H 11 8.0084459 Z"
     id="path4" />
</svg>
