<?xml version="1.0" encoding="UTF-8" standalone="no"?>
<svg
   width="16"
   height="16"
   version="1.1"
   id="svg8"
   sodipodi:docname="blender-symbolic.svg"
   inkscape:version="1.3.2 (091e20ef0f, 2023-11-25, custom)"
   xmlns:inkscape="http://www.inkscape.org/namespaces/inkscape"
   xmlns:sodipodi="http://sodipodi.sourceforge.net/DTD/sodipodi-0.dtd"
   xmlns="http://www.w3.org/2000/svg"
   xmlns:svg="http://www.w3.org/2000/svg"
   xmlns:rdf="http://www.w3.org/1999/02/22-rdf-syntax-ns#"
   xmlns:cc="http://creativecommons.org/ns#"
   xmlns:dc="http://purl.org/dc/elements/1.1/">
  <metadata
     id="metadata14">
    <rdf:RDF>
      <cc:Work
         rdf:about="">
        <dc:format>image/svg+xml</dc:format>
        <dc:type
           rdf:resource="http://purl.org/dc/dcmitype/StillImage" />
        <dc:title />
      </cc:Work>
    </rdf:RDF>
  </metadata>
  <defs
     id="defs12" />
  <sodipodi:namedview
     pagecolor="#ffffff"
     bordercolor="#666666"
     borderopacity="1"
     objecttolerance="10"
     gridtolerance="10"
     guidetolerance="10"
     inkscape:pageopacity="0"
     inkscape:pageshadow="2"
     inkscape:window-width="2560"
     inkscape:window-height="1388"
     id="namedview10"
     showgrid="true"
     inkscape:zoom="64"
     inkscape:cx="8.84375"
     inkscape:cy="9.046875"
     inkscape:current-layer="svg8"
     inkscape:showpageshadow="0"
     inkscape:pagecheckerboard="1"
     inkscape:deskcolor="#d1d1d1"
     inkscape:window-x="2560"
     inkscape:window-y="28"
     inkscape:window-maximized="1">
    <inkscape:grid
       type="xygrid"
       id="grid821"
       originx="0"
       originy="0"
       spacingy="1"
       spacingx="1"
       units="px"
       visible="true" />
  </sodipodi:namedview>
  <path
     id="path6"
     style="fill:#000000;stroke-width:0.31751338"
     d="m 5.025875,9.973537 c 0.00317,0.186699 0.063186,0.550569 0.1527243,0.835379 0.188285,0.601368 0.5077036,1.157969 0.9525398,1.648847 a 4.9239967,4.9239967 0 0 0 1.6659926,1.19607 5.3567674,5.3567674 0 0 0 2.1883012,0.455315 5.3732778,5.3732778 0 0 0 2.1876651,-0.462615 c 0.648364,-0.29021 1.209411,-0.696309 1.665361,-1.201474 0.443884,-0.492145 0.762985,-1.050334 0.951584,-1.652018 0.09495,-0.304181 0.154313,-0.612485 0.178761,-0.9220612 0.02382,-0.3048124 0.01365,-0.6105787 -0.02954,-0.9157088 A 4.2584888,4.2584888 0 0 0 14.332188,7.2934066 4.6572855,4.6572855 0 0 0 13.224385,6.071933 l 6.35e-4,-6.349e-4 -4.4826535,-3.4424796 -0.011436,-0.0092 C 8.4362856,2.3941763 7.9416,2.3948112 7.6183715,2.6211983 7.2910154,2.8501252 7.2541836,3.2282837 7.5450257,3.4673714 l -9.522e-4,9.522e-4 1.8695183,1.5208892 -5.6993642,0.00571 h -0.00793 c -0.470881,3.218e-4 -0.9233375,0.3098971 -1.0135114,0.700121 -0.091444,0.3981618 0.2286095,0.7280583 0.7178977,0.7302809 v 0.00126 l 2.8884195,-0.00538 -5.1551462,3.9565333 -0.019687,0.01492 C 0.63847452,10.764779 0.48098788,11.384246 0.78707079,11.776057 1.098234,12.174855 1.758979,12.175173 2.2504895,11.777957 L 5.0636584,9.476049 c 0,0 -0.040641,0.3111643 -0.037785,0.4975444 z m 7.228825,1.040175 c -0.579463,0.591208 -1.390388,0.925869 -2.2692671,0.927453 -0.8788765,0.0019 -1.6904406,-0.330212 -2.2702198,-0.920152 A 2.696958,2.696958 0 0 1 7.0954272,10.05101 2.5229608,2.5229608 0 0 1 6.9528636,8.9676543 2.5626502,2.5626502 0 0 1 7.2640265,7.9471662 2.8182481,2.8182481 0 0 1 7.9536654,7.1270299 C 8.5169342,6.667588 9.2338791,6.4192928 9.9847985,6.4183401 10.735719,6.4173874 11.452664,6.6637778 12.015931,7.1213144 a 2.8049127,2.8049127 0 0 1 0.689641,0.8172796 c 0.172407,0.3124333 0.279411,0.6572522 0.311159,1.0198523 A 2.5248661,2.5248661 0 0 1 12.874168,10.041804 2.7115636,2.7115636 0 0 1 12.2547,11.013712 M 8.1117872,9.0054378 C 8.1381408,8.527263 8.372783,8.1052877 8.7261755,7.8065081 9.0732176,7.5128085 9.5396447,7.3334137 10.048937,7.3334137 c 0.50929,0 0.97572,0.1793948 1.322758,0.4730944 0.353393,0.2987796 0.587719,0.7207549 0.614706,1.1986127 0.02699,0.492146 -0.170501,0.9493659 -0.517227,1.2875182 -0.353393,0.3445 -0.85697,0.561045 -1.420237,0.561045 -0.5632696,0 -1.0671632,-0.216545 -1.4205557,-0.561045 C 8.2816566,9.9541697 8.0844812,9.4972668 8.1117872,9.0054378" />
  <path
     style="fill:#ffffff;stroke:#cccccc;stroke-width:0.015625"
     d="M 9.515625,14.084443 C 8.5720714,13.998876 7.6392061,13.659842 6.9111266,13.137883 6.4308647,12.793584 5.9403,12.275291 5.6492564,11.804688 5.308821,11.25422 5.1010722,10.669274 5.0443763,10.101563 c -0.0144,-0.1441933 -0.013567,-0.2236705 0.00422,-0.4023442 0.012188,-0.122461 0.01697,-0.2226563 0.010626,-0.2226563 -0.00634,0 -0.6533174,0.5250995 -1.4377196,1.1668885 -0.7844023,0.641789 -1.4673578,1.193517 -1.517679,1.226063 -0.1251298,0.08093 -0.3181509,0.15307 -0.4866319,0.181876 -0.1659307,0.02837 -0.3479731,0.01236 -0.4972535,-0.04374 -0.1887545,-0.07093 -0.35745655,-0.23971 -0.43552196,-0.435715 -0.0293494,-0.07369 -0.0348333,-0.117255 -0.0346241,-0.275058 2.3363e-4,-0.176276 0.003496,-0.195918 0.0544962,-0.328125 0.0618777,-0.160404 0.1406167,-0.28602 0.26034458,-0.415341 C 1.0143467,10.499708 2.1051046,9.6522994 3.6813666,8.4427791 L 6.3150342,6.421875 4.7629858,6.4139821 3.2109375,6.4060891 3.1144725,6.3699811 C 2.9186592,6.2966861 2.7584494,6.1441119 2.7106927,5.9854453 2.5963163,5.6054428 2.9402014,5.1625131 3.4453125,5.039243 3.5660675,5.0097733 3.6697088,5.0083236 6.497208,4.9965561 L 9.4241033,4.984375 8.4893955,4.2238742 C 7.9753061,3.8055989 7.5289211,3.4364583 7.4974288,3.4035618 7.3990277,3.3007733 7.3671713,3.2211036 7.3673006,3.078125 c 1.019e-4,-0.1125627 0.00544,-0.1348458 0.05365,-0.223954 0.1635466,-0.3022891 0.612522,-0.4633182 1.0090477,-0.361904 0.067373,0.017231 0.1563354,0.05063 0.1976934,0.074219 0.041358,0.023589 0.3371637,0.2443018 0.6573461,0.4904726 0.3201823,0.2461709 1.3344932,1.0253066 2.2540252,1.7314125 0.919531,0.7061061 1.739623,1.3397397 1.822425,1.4080747 0.190574,0.1572748 0.524032,0.500057 0.670572,0.6893225 0.625929,0.8084262 0.93669,1.6912878 0.93669,2.661107 0,2.0447967 -1.495437,3.8354927 -3.664062,4.3874967 -0.444037,0.113026 -0.751741,0.152292 -1.25,0.159514 -0.2062504,0.003 -0.4488285,-0.0013 -0.5390629,-0.0094 z m 0.999782,-2.177497 c 0.665695,-0.11434 1.214762,-0.383395 1.678811,-0.822656 0.411198,-0.389233 0.698069,-0.912472 0.800073,-1.45929 0.04403,-0.2360418 0.04073,-0.7061667 -0.0065,-0.9325415 C 12.731994,7.4677722 11.677176,6.5694469 10.329299,6.4284163 10.109122,6.4053788 9.6594017,6.4178906 9.4533428,6.4527867 8.2376346,6.6586664 7.2876649,7.4800383 7.0156021,8.5605294 c -0.2179875,0.8657322 0.023658,1.7610986 0.6523668,2.4172066 0.2675153,0.279174 0.4969774,0.451928 0.8192122,0.616755 0.3058046,0.156423 0.6843092,0.276398 1.0050064,0.318559 0.06875,0.009 0.1460938,0.01939 0.171875,0.023 0.1116938,0.01565 0.7098295,-0.0048 0.8513445,-0.02911 z"
     id="path1" />
  <path
     style="fill:#ffffff;stroke:#cccccc;stroke-width:0.015625"
     d="M 9.8367497,10.835346 C 9.1897644,10.761873 8.6540767,10.429181 8.33959,9.9055246 8.0851244,9.4818105 8.0513602,8.9161825 8.2529822,8.4546472 8.4948664,7.9009471 9.0222987,7.5016807 9.6816563,7.3731405 c 0.2035369,-0.039679 0.5585357,-0.036146 0.7665997,0.00763 0.413495,0.086995 0.750178,0.2627739 1.020203,0.5326361 0.682469,0.6820587 0.682469,1.6786309 0,2.3606894 -0.346151,0.345942 -0.815326,0.543921 -1.346124,0.568025 -0.08877,0.004 -0.217282,9.83e-4 -0.2855853,-0.0068 z"
     id="path2" />
</svg>
