<?xml version="1.0" encoding="UTF-8" standalone="no"?>
<svg
   id="svg1"
   width="16"
   height="16"
   version="1.1"
   sodipodi:docname="org.inkscape.Inkscape-symbolic.svg"
   inkscape:version="1.3.2 (091e20ef0f, 2023-11-25, custom)"
   xmlns:inkscape="http://www.inkscape.org/namespaces/inkscape"
   xmlns:sodipodi="http://sodipodi.sourceforge.net/DTD/sodipodi-0.dtd"
   xmlns:xlink="http://www.w3.org/1999/xlink"
   xmlns="http://www.w3.org/2000/svg"
   xmlns:svg="http://www.w3.org/2000/svg"
   xmlns:rdf="http://www.w3.org/1999/02/22-rdf-syntax-ns#"
   xmlns:cc="http://creativecommons.org/ns#"
   xmlns:dc="http://purl.org/dc/elements/1.1/">
  <metadata
     id="metadata182">
    <rdf:RDF>
      <cc:Work
         rdf:about="">
        <dc:format>image/svg+xml</dc:format>
        <dc:type
           rdf:resource="http://purl.org/dc/dcmitype/StillImage" />
        <dc:title />
      </cc:Work>
    </rdf:RDF>
  </metadata>
  <sodipodi:namedview
     id="base"
     showgrid="true"
     inkscape:pagecheckerboard="true"
     inkscape:snap-global="false"
     inkscape:zoom="49.964073"
     inkscape:cx="8.6662271"
     inkscape:cy="8.245925"
     inkscape:window-width="2560"
     inkscape:window-height="1388"
     inkscape:window-x="2560"
     inkscape:window-y="28"
     inkscape:window-maximized="1"
     inkscape:current-layer="inkscape-logo"
     pagecolor="#505050"
     bordercolor="#ffffff"
     borderopacity="1"
     inkscape:showpageshadow="0"
     inkscape:pageopacity="0"
     inkscape:deskcolor="#d1d1d1">
    <inkscape:grid
       id="GridFromPre046Settings"
       type="xygrid"
       originx="0pt"
       originy="0pt"
       spacingx="1pt"
       spacingy="1pt"
       color="#3f3fff"
       empcolor="#3f3fff"
       opacity="0.15"
       empopacity="0.38"
       empspacing="5"
       units="px"
       visible="true" />
  </sodipodi:namedview>
  <defs
     id="defs3">
    <linearGradient
       gradientUnits="userSpaceOnUse"
       id="BlackTransparent">
      <stop
         id="stop12"
         offset="0"
         style="stop-color:black;stop-opacity:1" />
      <stop
         id="stop14"
         offset="1"
         style="stop-color:black;stop-opacity:0" />
    </linearGradient>
    <linearGradient
       gradientUnits="userSpaceOnUse"
       id="WhiteTransparent">
      <stop
         id="stop7"
         offset="0"
         style="stop-color:white;stop-opacity:1" />
      <stop
         id="stop9"
         offset="1"
         style="stop-color:white;stop-opacity:0" />
    </linearGradient>
    <linearGradient
       inkscape:collect="always"
       xlink:href="#linearGradient5785"
       id="linearGradient9175"
       gradientUnits="userSpaceOnUse"
       x1="82.118591"
       y1="20"
       x2="60"
       y2="40" />
    <linearGradient
       gradientUnits="userSpaceOnUse"
       id="linearGradient5785">
      <stop
         id="stop5787"
         offset="0"
         style="stop-color:#c0cdf9;stop-opacity:1" />
      <stop
         id="stop5789"
         offset="1"
         style="stop-color:#07092d;stop-opacity:0.28804347" />
    </linearGradient>
    <clipPath
       clipPathUnits="userSpaceOnUse"
       id="clipPath9086">
      <path
         inkscape:connector-curvature="0"
         d="m 54.100001,12.5 -41.2,42.2 c -15.6,15.6 10.1,14.3 19.4,20.2 4.3,2.8 -13.8,6.4 -10.1,10.1 3.6,3.7 21.7,7.1 25.3,10.7 3.6,3.7 -7.3,7.6 -3.7,11.3 3.5,3.7 11.9,0.2 13.4,8.6 1.1,6.2 15.4,3.1 21.8,-2.2 4,-3.4 -6.9,-3.4 -3.3,-7.1 9,-9.1 17,-4.1 20.3,-12.5 1.8,-4.5 -13.6,-7.7 -9.5,-10.6 C 96.300001,76.3 132.3,72.8 115.7,56.2 L 73.000001,12.5 c -5.3,-5 -14,-5 -18.9,0 z m -9.9,64.7 c 0.9,0 30.8,4 19.3,7.1 -4.4,1.2 -24.6,-7.1 -19.3,-7.1 z M 101.4,93.8 c 0,2.1 16.3,3.3 15.4,-0.5 -1.3,-6.4 -13.6,-5.9 -15.4,0.5 z m -69.499999,11.1 c 3.7,3.2 9.3,-0.7 11.1,-5.2 -3.6,-4.7 -16.9,0.3 -11.1,5.2 z m 67.5,-6.7 c -4.6,4.2 0.799999,8.6 5.299999,5.7 1.2,-0.8 -0.1,-4.7 -5.299999,-5.7 z"
         id="use9088"
         style="opacity:1;fill:#ffffff;fill-opacity:1" />
    </clipPath>
  </defs>
  <g
     id="inkscape-logo"
     label="#inkscape_options"
     transform="matrix(1.0329834,0,0,1.0338481,-0.31473882,-0.20784698)">
    <path
       id="use42"
       style="opacity:1;fill:#000000;fill-opacity:1;stroke:none;stroke-width:0.13205;stroke-opacity:1"
       d="M 6.7518419,1.1023692 1.3516805,6.7164257 c -2.04472154,2.0753388 1.3238253,1.9023939 2.5427943,2.6872972 0.5636092,0.372497 -1.8087921,0.8514211 -1.3238263,1.3436491 0.4718589,0.492227 2.8442602,0.944545 3.3161191,1.42347 0.4718589,0.492227 -0.9568247,1.011062 -0.4849658,1.503289 0.458751,0.492227 1.5597548,0.02661 1.7563634,1.144097 0.1441791,0.824814 2.0185067,0.412407 2.8573678,-0.292676 C 10.53982,14.073234 9.1111364,14.073234 9.5829943,13.581007 10.762643,12.370393 11.811218,13.035565 12.243755,11.918076 12.479684,11.31942 10.461177,10.89371 10.998571,10.507909 12.283076,9.5899709 17.001663,9.1243511 14.82587,6.9159779 L 9.2291006,1.1023692 c -0.6946814,-0.66517262 -1.8350059,-0.66517262 -2.4772587,0 z M 12.951542,11.918076 c 0,0.279372 2.136471,0.439014 2.018507,-0.06652 -0.170394,-0.85142 -1.782577,-0.784903 -2.018507,0.06652 z m -9.1094959,1.476683 c 0.4849658,0.42571 1.218969,-0.09312 1.4548984,-0.69178 -0.4718589,-0.625262 -2.2151154,0.03991 -1.4548984,0.69178 z m 8.8473529,-0.891332 c -0.602931,0.558745 0.104857,1.144098 0.694681,0.758298 0.157286,-0.106429 -0.01311,-0.625263 -0.694681,-0.758298 z"
       inkscape:connector-curvature="0" />
    <path
       inkscape:connector-curvature="0"
       d="M 6.6806634,0.72729095 0.98423807,6.6493461 C -1.1726608,8.8385418 2.3806918,8.6561088 3.6665354,9.4840739 4.2610652,9.8770065 1.7585095,10.382205 2.2700816,10.901438 c 0.4977459,0.519232 3.0003017,0.996365 3.4980476,1.501564 0.4977459,0.519232 -1.0093181,1.066531 -0.5115722,1.585763 0.4839197,0.519232 1.6453268,0.02807 1.8527209,1.206864 0.152089,0.870065 2.1292463,0.435033 3.0141281,-0.308732 C 10.676457,14.409764 9.1693929,14.409764 9.6671388,13.890532 10.911504,12.613501 12.017606,13.315166 12.473873,12.136369 12.722746,11.50487 10.593499,11.055804 11.160376,10.648838 12.515351,9.6805402 17.49281,9.1893745 15.197649,6.8598457 L 9.2938293,0.72729095 c -0.7327925,-0.7016653 -1.9356784,-0.7016653 -2.6131659,0 z M 5.3118621,9.8068399 c 0.1244365,0 4.2584927,0.5613321 2.6684711,0.9963651 C 7.3719771,10.971604 4.5790696,9.8068399 5.3118621,9.8068399 Z m 7.9086289,2.3295291 c 0,0.294699 2.253683,0.463099 2.129247,-0.07017 -0.179742,-0.898131 -1.880374,-0.827965 -2.129247,0.07017 z m -9.6092607,1.557697 c 0.5115722,0.449065 1.2858436,-0.09823 1.5347166,-0.729732 -0.4977459,-0.659566 -2.3366405,0.0421 -1.5347166,0.729732 z m 9.3327357,-0.940232 c -0.636009,0.589399 0.11061,1.206865 0.732793,0.799899 0.165915,-0.112267 -0.01383,-0.659566 -0.732793,-0.799899 z"
       id="use32"
       style="opacity:0.1;fill:none;stroke-width:0.13929406" />
    <path
       class="full-specularity"
       d="m 8.9014208,1.5014727 2.1364722,2.208373 c 0.196608,0.1995518 0.196608,0.6119589 0.07864,0.73169 L 10.054855,3.5635078 9.8451388,4.8539422 8.9669564,4.3750183 7.5382737,5.292957 7.0664148,3.363956 6.3061979,5.0401912 4.4056554,5.0268909 c -0.3670016,0 -0.3145729,-0.3857993 0.065535,-0.7715998 0.7471091,-0.8381175 2.2020075,-2.2615868 2.6607595,-2.7538146 0.4718589,-0.4922277 1.2976114,-0.4789243 1.7694703,0 z"
       id="icecap"
       inkscape:connector-curvature="0"
       style="opacity:1;fill:#ffffff;fill-opacity:1;stroke-width:0.13205" />
    <path
       style="opacity:1;fill:#ffffff;fill-opacity:0.983141;stroke:none;stroke-width:0.13205;stroke-opacity:1"
       d="m 5.4542305,9.7097019 c 0.1179642,0 4.0370134,0.5321381 2.5296873,0.9445461 C 7.4072016,10.813889 4.7595491,9.7097019 5.4542305,9.7097019 Z"
       id="path858"
       inkscape:connector-curvature="0" />
    <path
       style="fill:#ffffff;stroke:#cccccc;stroke-width:0.0200144"
       d="M 7.6948122,15.560326 C 7.532168,15.539061 7.3519537,15.473447 7.2658884,15.404158 7.1711506,15.327888 7.1135332,15.220744 7.0756229,15.050344 6.9929003,14.678522 6.7802627,14.428036 6.4568107,14.321387 6.3895682,14.299215 6.1769384,14.248952 5.9843,14.20969 5.6094812,14.133297 5.443497,14.071206 5.3168514,13.960009 c -0.096818,-0.08501 -0.1331723,-0.15725 -0.1329389,-0.264175 2.694e-4,-0.123358 0.076598,-0.243327 0.3447305,-0.541828 0.2693885,-0.299899 0.3401894,-0.415885 0.3401894,-0.557296 0,-0.125024 -0.055792,-0.210999 -0.2047625,-0.315538 C 5.4277807,12.115357 5.1168162,11.989715 4.0772925,11.64005 2.9204771,11.250932 2.5801501,11.105733 2.3759156,10.914165 2.2823934,10.826443 2.2767511,10.815622 2.2880913,10.74574 2.3133487,10.590097 2.4978826,10.457511 3.1627968,10.11727 3.6601095,9.8627912 3.8027324,9.7573339 3.8027324,9.6440927 c 0,-0.074003 -0.047532,-0.1202894 -0.2201582,-0.2143879 C 3.3452519,9.3003407 3.043166,9.1958806 2.2431225,8.9665286 1.4299944,8.7334255 1.1024592,8.6173331 0.86244805,8.477159 0.61661284,8.3335834 0.46512734,8.1454927 0.43112438,7.9416094 0.39879911,7.7477853 0.52322241,7.4306122 0.74749799,7.1351269 0.88983957,6.9475903 6.5834085,1.0086566 6.7941399,0.82790428 7.1211721,0.54739661 7.5433326,0.41259853 8.0217225,0.43593071 c 0.3639025,0.0177484 0.6876111,0.12927296 0.9931206,0.34215145 0.075396,0.0525357 1.0247209,1.02463594 2.6117419,2.67439864 1.37131,1.4255243 2.724362,2.8318662 3.006782,3.1252043 0.662477,0.6880857 0.802618,0.8744392 0.898925,1.1953442 0.165098,0.5501272 -0.195923,1.0320365 -1.110164,1.4819012 -0.30638,0.1507585 -0.748882,0.3297925 -1.282687,0.5189681 -0.943894,0.3345074 -1.138722,0.4055174 -1.35097,0.4923904 -0.309517,0.126685 -0.680563,0.320226 -0.768711,0.400966 -0.04805,0.04402 -0.07189,0.08354 -0.07189,0.119186 0,0.139967 0.107751,0.230896 0.630453,0.532027 0.389176,0.224206 0.540414,0.329712 0.648268,0.452241 0.110337,0.125349 0.136435,0.224268 0.09128,0.345986 -0.118474,0.31936 -0.338496,0.547692 -0.649553,0.674086 -0.06467,0.02628 -0.291452,0.09786 -0.503971,0.159068 -0.731015,0.210553 -1.030427,0.365416 -1.4697989,0.760213 -0.1659688,0.14913 -0.2385592,0.269959 -0.216054,0.359626 0.01859,0.07407 0.1432405,0.172159 0.3708176,0.291805 0.2265183,0.11909 0.3076403,0.197168 0.2879983,0.277192 -0.04551,0.185407 -0.6454383,0.555213 -1.2015107,0.740632 -0.2977957,0.0993 -0.5390603,0.153317 -0.8070755,0.180701 -0.2281617,0.02331 -0.2577942,0.02333 -0.4339096,3.08e-4 z m 0.3038284,-4.764789 c 0.1769511,-0.05449 0.2395861,-0.08751 0.2784202,-0.146778 0.028667,-0.04375 0.028669,-0.05359 2.2e-5,-0.10899 C 8.1728682,10.33824 7.1058352,10.064554 5.6191928,9.858041 5.2681712,9.8092798 5.2622501,9.8090985 5.2125681,9.8455889 c -0.037762,0.027736 -0.037177,0.030286 0.020887,0.09106 0.175983,0.1841941 1.2488793,0.6234231 1.9538567,0.7998811 0.4287092,0.107308 0.6113415,0.12059 0.811329,0.05901 z M 8.2150989,4.801658 8.9477419,4.3295265 9.3823978,4.566489 c 0.239061,0.1303295 0.4448709,0.2396736 0.4573557,0.2429872 0.025631,0.0068 0.028453,-0.00756 0.1496241,-0.7615676 0.04732,-0.2944616 0.090951,-0.5352098 0.096957,-0.5349958 0.006,2.139e-4 0.249592,0.1981814 0.541301,0.4399275 0.29171,0.2417461 0.537596,0.4397135 0.546414,0.4399275 0.03975,9.643e-4 0.08051,-0.1565987 0.08016,-0.309834 C 11.253576,3.8115241 11.21264,3.7362705 10.879009,3.393201 10.723377,3.2331664 10.191104,2.6840478 9.6961811,2.1729373 9.0929291,1.5499551 8.7577002,1.2186696 8.6791527,1.1678726 8.4582078,1.0249863 8.2471067,0.96614279 7.9557165,0.96621795 7.7190837,0.96627899 7.5540133,1.0044604 7.3552851,1.1051 7.2299612,1.1685664 7.1427702,1.2491311 6.5286153,1.8689452 4.83031,3.5828995 4.1530287,4.3062891 4.0422087,4.5246221 3.9517759,4.7027888 3.9470877,4.8468196 4.0290526,4.9288014 l 0.054769,0.054779 0.6049913,0.015077 c 0.3327453,0.00829 0.8116398,0.012795 1.0642099,0.010007 L 6.2122412,5.0035953 6.5964646,4.1554142 C 6.8487789,3.598425 6.984465,3.3201413 6.9916894,3.3448318 c 0.00605,0.020679 0.1063803,0.4293801 0.2229544,0.9082242 0.2366481,0.9720651 0.2490466,1.0207334 0.2600377,1.0207334 0.00428,0 0.3374637,-0.212459 0.7404174,-0.4721314 z"
       id="path1"
       transform="matrix(0.96806977,0,0,0.96726008,0.30468914,0.20104209)" />
    <path
       style="fill:#999999;stroke:#cccccc;stroke-width:0.0200144;opacity:0.3"
       d="M 7.4688807,5.190298 C 7.4596953,5.1646668 7.3497749,4.7226434 7.224613,4.2080236 7.0994511,3.6934039 6.9910908,3.2723513 6.9838122,3.2723513 c -0.00728,0 -0.1878624,0.3870271 -0.4012976,0.8600602 L 6.194451,4.9924717 5.7924236,4.9930299 c -0.221115,3.07e-4 -0.6887214,-0.00543 -1.0391252,-0.012752 l -0.637098,-0.01331 -0.061666,-0.055109 C 4.0027758,4.8656029 3.9931622,4.8428224 3.9946939,4.7700575 3.9970341,4.658886 4.0576275,4.5229912 4.1695014,4.3780102 4.3882261,4.0945581 5.1623726,3.2827022 6.4376855,1.9993409 7.1759478,1.2564196 7.2678937,1.1706348 7.3859976,1.1145735 7.5794403,1.0227504 7.7271339,0.99067235 7.9549179,0.9910077 c 0.402084,5.9196e-4 0.6217184,0.0948646 0.9440908,0.4052276 0.3439257,0.3311133 2.1739033,2.2324805 2.2338053,2.3209485 0.03017,0.044557 0.06389,0.1135561 0.07494,0.1533311 0.04186,0.1507063 0.01384,0.482613 -0.04075,0.482613 -0.0094,0 -0.257205,-0.1989515 -0.550642,-0.4421147 C 10.322924,3.6678499 10.076432,3.4764624 10.0686,3.4857076 10.060769,3.4949527 10.01127,3.7711185 9.9586031,4.0994094 9.9059358,4.4277005 9.8570449,4.7167598 9.8499564,4.7417636 9.8375955,4.7853653 9.8194647,4.7775535 9.4067592,4.5508136 9.1700891,4.4207873 8.9655515,4.3141091 8.9522312,4.3137506 8.938911,4.3133924 8.6371942,4.5001936 8.2817494,4.7288645 7.9263048,4.9575354 7.6017578,5.1653908 7.560534,5.190765 L 7.485581,5.2369 Z"
       id="path3"
       transform="matrix(0.96806977,0,0,0.96726008,0.30468914,0.20104209)" />
    <path
       style="opacity:0.3;fill:#999999;stroke:#cccccc;stroke-width:0.0200144"
       d="M 7.5354145,10.788168 C 6.9052742,10.68724 5.5908956,10.196827 5.2934746,9.9516673 5.1449468,9.8292381 5.2182393,9.8203928 5.7453003,9.8971387 7.138608,10.10002 8.1643088,10.367688 8.2642854,10.554496 c 0.043178,0.08068 -0.092761,0.178774 -0.3229496,0.233045 -0.147544,0.03479 -0.1922175,0.03486 -0.4059213,6.27e-4 z"
       id="path4"
       transform="matrix(0.96806977,0,0,0.96726008,0.30468914,0.20104209)" />
    <path
       style="opacity:1;fill:#ffffff;stroke:#cccccc;stroke-width:0.0200144"
       d="M 3.9654841,13.778562 C 3.8248364,13.750577 3.7108603,13.684407 3.6063627,13.57007 3.47527,13.426633 3.4429021,13.316587 3.4931255,13.185079 c 0.07198,-0.188477 0.328411,-0.371508 0.6398442,-0.456698 0.1671707,-0.04573 0.4795554,-0.06054 0.6130829,-0.02908 0.1404478,0.0331 0.2734223,0.10128 0.3454178,0.177114 l 0.057853,0.06094 -0.087875,0.154124 c -0.2592296,0.454664 -0.7422309,0.757467 -1.0959643,0.687083 z"
       id="path5"
       transform="matrix(0.96806977,0,0,0.96726008,0.30468914,0.20104209)" />
    <path
       style="opacity:1;fill:#ffffff;stroke:#cccccc;stroke-width:0.0200144"
       d="m 13.879973,12.359704 c -0.37714,-0.03427 -0.706494,-0.119125 -0.780711,-0.201133 -0.03434,-0.03794 -0.03337,-0.04391 0.02684,-0.166215 0.166841,-0.338902 0.575814,-0.555167 1.054091,-0.557403 0.423515,-0.002 0.764905,0.16934 0.898901,0.451097 0.09882,0.20778 0.07931,0.287241 -0.09196,0.374616 -0.173316,0.08842 -0.702815,0.135784 -1.107158,0.09904 z"
       id="path6"
       transform="matrix(0.96806977,0,0,0.96726008,0.30468914,0.20104209)" />
    <path
       style="opacity:1;fill:#ffffff;stroke:#cccccc;stroke-width:0.0200144"
       d="m 12.894218,13.583378 c -0.145114,-0.05181 -0.212768,-0.111174 -0.28803,-0.252746 -0.07828,-0.147253 -0.02964,-0.347221 0.131398,-0.540171 0.04861,-0.05825 0.04999,-0.05856 0.153848,-0.03458 0.253484,0.05851 0.533827,0.261322 0.618193,0.447225 0.05227,0.115169 0.05181,0.224855 -0.0012,0.277826 -0.120149,0.120149 -0.42312,0.170681 -0.614244,0.102447 z"
       id="path7"
       transform="matrix(0.96806977,0,0,0.96726008,0.30468914,0.20104209)" />
  </g>
</svg>
