<?xml version="1.0" encoding="UTF-8" standalone="no"?>
<!-- This Source Code Form is subject to the terms of the Mozilla Public
   - License, v. 2.0. If a copy of the MPL was not distributed with this
   - file, You can obtain one at http://mozilla.org/MPL/2.0/. -->

<svg
   width="32"
   height="32"
   viewBox="0 0 32 32"
   fill="none"
   version="1.1"
   id="svg1"
   sodipodi:docname="thunderbird-symbolic.svg"
   inkscape:version="1.3.2 (091e20ef0f, 2023-11-25, custom)"
   xmlns:inkscape="http://www.inkscape.org/namespaces/inkscape"
   xmlns:sodipodi="http://sodipodi.sourceforge.net/DTD/sodipodi-0.dtd"
   xmlns="http://www.w3.org/2000/svg"
   xmlns:svg="http://www.w3.org/2000/svg">
  <defs
     id="defs1" />
  <sodipodi:namedview
     id="namedview1"
     pagecolor="#505050"
     bordercolor="#ffffff"
     borderopacity="1"
     inkscape:showpageshadow="0"
     inkscape:pageopacity="0"
     inkscape:pagecheckerboard="1"
     inkscape:deskcolor="#d1d1d1"
     inkscape:zoom="23.09375"
     inkscape:cx="15.978349"
     inkscape:cy="15.978349"
     inkscape:window-width="2560"
     inkscape:window-height="1388"
     inkscape:window-x="2560"
     inkscape:window-y="28"
     inkscape:window-maximized="1"
     inkscape:current-layer="svg1" />
  <path
     fill-rule="evenodd"
     clip-rule="evenodd"
     d="M13.2644 6.39002L13.2613 6.39001L13.2571 6.39001C10.6971 7.44144 10.4228 9.79162 10.8343 11.0559C10.8343 11.0559 10.8343 11.0655 10.8336 11.0829C12.3157 10.0405 14.211 9.47869 16.0003 9.47869C20.3461 9.47869 23.8691 12.3533 23.8691 15.8993C23.8691 19.4453 20.3461 22.3199 16.0003 22.3199C15.9667 22.3199 15.9294 22.3185 15.89 22.317C15.6835 22.3093 15.4175 22.2994 15.3096 22.475C15.1813 22.6841 15.4643 23.0057 15.6274 23.1901C17.3263 25.112 19.7905 25.3535 20.4377 25.4169C20.4793 25.421 20.5134 25.4243 20.5393 25.4273C14.8306 25.9794 8.13354 22.3325 8.13144 15.993C8.13094 14.4987 8.68295 13.2287 9.5642 12.2178L9.55312 12.2163C9.74707 8.97243 8.50157 5.09323 6.17175 4.33044C6.0069 4.27647 5.84356 4.40046 5.823 4.57269C5.51659 7.13857 4.85315 8.02797 4.13749 8.9874C3.06378 10.4268 2.2835 12.0904 2.31753 13.9174C1.92785 13.1019 1.61194 12.2504 1.37745 11.3701C1.34567 11.2508 1.14944 10.8844 0.93354 11.0073C0.761036 11.1054 0.631132 11.3738 0.538253 11.6537C0.183211 12.9862 0 14.4078 0 15.7843C0 24.4995 7.29965 31.7842 16 31.7842C24.8365 31.7842 32 24.6208 32 15.7843C32 12.4152 30.9587 9.28927 29.1803 6.71088C29.2544 6.70952 29.3287 6.70883 29.4032 6.70883C30.0938 6.70883 30.7674 6.76788 31.4167 6.8801C30.4378 5.79241 29.1172 4.91319 27.58 4.3421C28.6062 3.96993 29.7274 3.73934 30.9059 3.68092C29.0036 2.12725 26.2278 1.14819 23.1366 1.14819C18.6625 1.14819 14.272 2.86777 13.2644 6.39002ZM14.1733 18.6117C13.0145 17.4055 9.54358 13.3991 9.54358 13.3991L9.81225 13.4106L15.2456 17.4689C15.6527 17.7646 16.2329 17.7616 16.6362 17.4618L21.9641 13.4158L22.247 13.3939C22.247 13.3939 18.8896 17.3055 17.6037 18.5942C16.3178 19.8829 15.3322 19.8179 14.1733 18.6117ZM17.8727 5.16837C17.8727 5.16837 17.9463 6.00203 17.1043 6.2672C16.1417 6.57032 15.7151 5.76065 15.7151 5.76065C15.7151 5.76065 15.8361 5.20461 16.6171 4.94743C17.4513 4.67271 17.8727 5.16837 17.8727 5.16837Z"
     fill="black"
     id="path1" />
  <path
     style="fill:#ffffff;stroke:#cccccc;stroke-width:0.0433018"
     d="M 14.744249,31.713063 C 12.027312,31.481707 9.438219,30.55518 7.1231394,28.985788 3.5928884,26.592632 1.1064589,22.849843 0.30863889,18.728011 0.10426816,17.672156 0.04065427,16.973672 0.04046924,15.783491 0.04026111,14.444686 0.14995639,13.443656 0.43431331,12.189445 0.57046404,11.588926 0.64998106,11.369822 0.80754386,11.161028 1.0394676,10.853696 1.2634955,11.041263 1.4473638,11.696714 1.593963,12.21931 1.9408857,13.159402 2.153382,13.609886 l 0.1572106,0.33328 0.034753,-0.475802 C 2.4517216,12.010995 3.0210757,10.569467 4.0472702,9.1583221 4.5171356,8.5121988 4.7792242,8.1204789 4.9454008,7.8159675 5.3165458,7.1358627 5.5927344,6.2277707 5.761933,5.1312585 5.8627209,4.478088 5.9153823,4.3518268 6.0870183,4.3518268 c 0.2940536,0 0.9577068,0.4248898 1.4208806,0.9096884 1.1265429,1.1791391 1.8678807,3.2392857 2.0177442,5.6072268 0.024116,0.381055 0.031329,0.844069 0.016028,1.028919 -0.025836,0.312133 -0.041325,0.353484 -0.2172769,0.580075 -1.0424366,1.342453 -1.3939452,2.857417 -1.1136386,4.799666 0.6146979,4.259253 4.6425714,7.579412 9.8984984,8.159291 0.458746,0.05061 2.154894,0.05615 2.329176,0.0076 0.07539,-0.021 -0.05936,-0.05348 -0.443818,-0.106969 -1.708822,-0.237762 -3.17465,-0.939972 -4.197887,-2.011011 -0.753177,-0.788362 -0.669967,-1.004262 0.387053,-1.004262 2.686723,0 5.33734,-1.289301 6.676664,-3.247632 0.688015,-1.006002 1.007818,-1.999073 1.010986,-3.139378 0.0025,-0.896767 -0.144956,-1.577132 -0.508286,-2.345376 -0.991268,-2.095982 -3.175062,-3.578035 -5.934184,-4.027292 -0.65805,-0.1071476 -2.198342,-0.107103 -2.812754,8.18e-5 -1.269832,0.2215236 -2.561389,0.6963192 -3.422699,1.2582342 -0.166712,0.108763 -0.315064,0.198166 -0.329672,0.198676 -0.06655,0.0023 -0.14644,-0.584804 -0.144222,-1.0599664 0.0026,-0.566397 0.06884,-0.8975758 0.283412,-1.4179196 0.338047,-0.8197715 1.120432,-1.6048931 1.999722,-2.0067165 l 0.275956,-0.1261081 0.122656,-0.3464141 c 0.82114,-2.3191368 3.361202,-4.0300153 6.907168,-4.6523775 1.284449,-0.2254372 3.14315,-0.2913567 4.358516,-0.1545763 1.880162,0.2115981 3.638817,0.7783947 5.037966,1.6236847 0.427455,0.2582455 1.175214,0.7800214 1.11785,0.7800214 -0.129603,0 -1.003828,0.103468 -1.312708,0.1553643 -0.674163,0.113269 -1.926928,0.4570237 -1.926928,0.5287428 0,0.016947 0.121786,0.07722 0.270636,0.1339388 0.445734,0.1698471 1.35195,0.6445734 1.821884,0.9544039 0.489116,0.3224781 1.105729,0.8255428 1.436573,1.17203 l 0.216509,0.2267467 -0.281462,-0.030632 c -1.028157,-0.1118978 -1.8623,-0.1463959 -1.86169,-0.076995 1.57e-4,0.017862 0.0401,0.090934 0.08875,0.1623816 0.223504,0.3281871 0.794743,1.3142309 1.009887,1.7432175 1.228908,2.4503708 1.775579,5.0451438 1.665315,7.9044028 -0.127582,3.308288 -1.353312,6.562744 -3.473412,9.222303 -2.508021,3.146188 -6.168458,5.251714 -10.13792,5.831447 -1.16872,0.17069 -2.518671,0.218285 -3.594046,0.126713 z M 17.310284,6.198306 c 0.357733,-0.1826502 0.60022,-0.5902276 0.565028,-0.9497103 -0.01692,-0.172871 -0.211362,-0.3103848 -0.533398,-0.3772392 -0.370507,-0.076917 -0.83303,0.035189 -1.204951,0.2920569 -0.191792,0.1324607 -0.418424,0.4409423 -0.418424,0.5695395 0,0.1337028 0.254542,0.3953996 0.497655,0.5116418 0.298899,0.1429166 0.761883,0.1233287 1.09409,-0.046289 z"
     id="path2" />
  <path
     style="fill:#ffffff;stroke:#cccccc;stroke-width:0.0433018"
     d="m 15.314393,19.401529 c -0.511686,-0.21039 -0.787368,-0.437336 -1.578124,-1.299136 -1.118277,-1.218747 -4.0799767,-4.584481 -4.0799767,-4.636566 0,-0.117016 0.5126597,0.241152 2.9469307,2.058865 1.549666,1.157162 2.822755,2.077834 2.920458,2.112013 0.220106,0.077 0.772933,0.05011 0.952638,-0.04633 0.07145,-0.03835 1.333348,-0.984462 2.804222,-2.102481 2.280057,-1.733084 2.88996,-2.166858 2.88996,-2.055391 0,0.0268 -2.136596,2.471661 -3.095223,3.541792 -1.042047,1.163252 -1.922739,2.035995 -2.247888,2.227601 -0.551164,0.324791 -1.04889,0.390466 -1.512997,0.199638 z"
     id="path3" />
</svg>
