<?xml version="1.0" encoding="UTF-8" standalone="no"?>
<svg
   width="22"
   height="22"
   version="1.1"
   id="svg6"
   sodipodi:docname="device-notifier-symbolic.svg"
   inkscape:version="1.3.2 (091e20ef0f, 2023-11-25, custom)"
   xmlns:inkscape="http://www.inkscape.org/namespaces/inkscape"
   xmlns:sodipodi="http://sodipodi.sourceforge.net/DTD/sodipodi-0.dtd"
   xmlns="http://www.w3.org/2000/svg"
   xmlns:svg="http://www.w3.org/2000/svg">
  <sodipodi:namedview
     id="namedview1"
     pagecolor="#505050"
     bordercolor="#ffffff"
     borderopacity="1"
     inkscape:showpageshadow="0"
     inkscape:pageopacity="0"
     inkscape:pagecheckerboard="1"
     inkscape:deskcolor="#d1d1d1"
     inkscape:zoom="53.818182"
     inkscape:cx="10.990709"
     inkscape:cy="11"
     inkscape:window-width="2560"
     inkscape:window-height="1388"
     inkscape:window-x="2560"
     inkscape:window-y="28"
     inkscape:window-maximized="1"
     inkscape:current-layer="svg6" />
  <defs
     id="defs10" />
  <namedview
     id="namedview8"
     pagecolor="#ffffff"
     bordercolor="#000000"
     borderopacity="0.25"
     inkscape:showpageshadow="2"
     inkscape:pageopacity="0.0"
     inkscape:pagecheckerboard="0"
     inkscape:deskcolor="#d1d1d1"
     showgrid="false"
     inkscape:zoom="35.136364"
     inkscape:cx="9.4773609"
     inkscape:cy="10.98577"
     inkscape:window-width="1920"
     inkscape:window-height="1011"
     inkscape:window-x="0"
     inkscape:window-y="0"
     inkscape:window-maximized="1"
     inkscape:current-layer="svg6" />
  <style
     type="text/css"
     id="current-color-scheme">.ColorScheme-Text{color:#31363b;}.ColorScheme-Background{color:#eff0f1;}.ColorScheme-Highlight{color:#3daee9;}.ColorScheme-ViewText{color:#31363b;}.ColorScheme-ViewBackground{color:#fcfcfc;}.ColorScheme-ViewHover{color:#93cee9;}.ColorScheme-ViewFocus{color:#3daee9;}.ColorScheme-ButtonText{color:#31363b;}.ColorScheme-ButtonBackground{color:#eff0f1;}.ColorScheme-ButtonHover{color:#93cee9;}.ColorScheme-ButtonFocus { color: #3daee9; } </style>
  <g
     id="22-22-device-notifier"
     transform="translate(-358,-534.36218)">
    <rect
       y="534.36218"
       x="358"
       height="21.999985"
       width="21.999985"
       id="rect4157"
       style="opacity:0.2;fill:none;fill-opacity:1;stroke:none" />
    <path
       inkscape:connector-curvature="0"
       id="rect4159"
       d="m 365,537.36218 v 8 h -1 v 1 7 h 1 9 v -1 -6 -1 h -1 v -8 z m 1,2 h 1 v 4 h -1 z m 5,0 h 1 v 4 h -1 z m -3,2 h 2 v 2 h -2 z m -3,5 h 8 v 6 h -8 z m 4,1 -1,1 h 2 z m -3,3 v 1 h 6 v -1 z"
       style="opacity:1;fill:currentColor;fill-opacity:1;stroke:none"
       class="ColorScheme-Text" />
  </g>
  <path
     style="fill:#ffffff;stroke:#cccccc;stroke-width:0.0185811"
     d="M 6.0016892,15.004223 V 11.009291 H 6.5033784 7.0050676 V 7.0050676 3.0008446 H 11 14.994932 v 4.004223 4.0042234 h 0.50169 0.501689 v 3.994932 3.994932 H 11 6.0016892 Z m 9.0072348,-0.0046 0.0047,-3.00549 h -4.01357 -4.0135695 v 2.997748 c 0,1.648761 0.00559,3.003341 0.01243,3.010177 0.00684,0.0068 1.810827,0.01032 4.0088675,0.0077 l 3.996439,-0.0047 z M 9.0118243,6.995777 V 4.9890203 H 8.5008446 7.9898649 V 6.995777 9.0025338 H 8.5008446 9.0118243 Z M 12.003378,7.9991554 V 6.995777 H 11 9.9966216 V 7.9991554 9.0025338 H 11 12.003378 Z M 14.010135,6.995777 V 4.9890203 h -0.51098 -0.510979 V 6.995777 9.0025338 h 0.510979 0.51098 z"
     id="path1" />
  <path
     style="fill:#ffffff;stroke:#cccccc;stroke-width:0.0185811"
     d="m 10.033784,13.986775 c 0,-0.0077 0.217398,-0.231348 0.483108,-0.49691 L 11,13.007025 l 0.483108,0.48284 c 0.26571,0.265562 0.483108,0.489171 0.483108,0.49691 0,0.0077 -0.434797,0.01407 -0.966216,0.01407 -0.531419,0 -0.966216,-0.0063 -0.966216,-0.01407 z"
     id="path2" />
  <path
     style="fill:#ffffff;stroke:#cccccc;stroke-width:0.0185811"
     d="M 8.0084459,16.5 V 16.007601 H 11 13.991554 V 16.5 16.992399 H 11 8.0084459 Z"
     id="path3" />
</svg>
