<?xml version="1.0" encoding="UTF-8" standalone="no"?>
<svg
   width="22"
   height="22"
   version="1.1"
   id="svg2"
   sodipodi:docname="notification-disabled.svg"
   inkscape:version="1.3.2 (091e20ef0f, 2023-11-25, custom)"
   xmlns:inkscape="http://www.inkscape.org/namespaces/inkscape"
   xmlns:sodipodi="http://sodipodi.sourceforge.net/DTD/sodipodi-0.dtd"
   xmlns="http://www.w3.org/2000/svg"
   xmlns:svg="http://www.w3.org/2000/svg">
  <defs
     id="defs2" />
  <sodipodi:namedview
     id="namedview2"
     pagecolor="#505050"
     bordercolor="#ffffff"
     borderopacity="1"
     inkscape:showpageshadow="0"
     inkscape:pageopacity="0"
     inkscape:pagecheckerboard="1"
     inkscape:deskcolor="#d1d1d1"
     inkscape:zoom="53.818182"
     inkscape:cx="10.990709"
     inkscape:cy="11"
     inkscape:window-width="2560"
     inkscape:window-height="1388"
     inkscape:window-x="2560"
     inkscape:window-y="28"
     inkscape:window-maximized="1"
     inkscape:current-layer="svg2" />
  <style
     type="text/css"
     id="current-color-scheme">.ColorScheme-Text{color:#232629;}.ColorScheme-ButtonFocus{color:#3daee9;}.ColorScheme-NegativeText { color: #da4453; } </style>
  <g
     id="notification-disabled"
     transform="translate(-1 -41) translate(0,40)">
    <path
       d="m1 1h22v22h-22z"
       fill="none"
       id="path1" />
    <path
       id="strikethrough"
       d="m4 4.707031 15.292969 15.292969.707031-.707031-15.2929688-15.292969z"
       fill="#da4453" />
    <path
       d="m12 4a1 1 0 0 0-1 1 1 1 0 0 0 0.009766 0.128906 3.9999999 3.9999999 0 0 0-2.2402348 1.519532l0.7167969 0.716796a3 3 0 0 1 2.5136719-1.365234 3 3 0 0 1 3 3c0 3 0.585938 4 2.585938 6h-0.464844l1 1h0.878906v-1c-2-2-3-3-3-6a3.9999999 3.9999999 0 0 0-3.009766-3.871094 1 1 0 0 0 0.009766-0.128906 1 1 0 0 0-1-1zm-4.0527344 6.068359c-0.2253625 2.204726-1.2061347 3.19051-2.9472656 4.931641v1h8.878906l-1-1h-6.4648435c1.4796441-1.479644 2.1821771-2.415859 2.4492187-4.015625zm2.3222656 6.931641a2 2 0 0 0-0.2695312 1 2 2 0 0 0 2 2 2 2 0 0 0 2-2 2 2 0 0 0-0.271484-1z"
       class="ColorScheme-Text"
       fill="currentColor"
       fill-rule="evenodd"
       id="path2" />
  </g>
  <path
     style="fill:#ffffff;stroke:#cccccc;stroke-width:0.0185811"
     d="m 16.630068,14.493243 -0.492136,-0.492398 h 0.228976 0.228976 L 16.22474,13.615287 C 15.177783,12.527671 14.708585,11.85184 14.396987,10.982597 14.144297,10.277688 14.010939,9.313409 14.010078,8.1849662 14.009696,7.6831273 13.970567,7.4146838 13.840804,7.0236486 13.593334,6.2779049 13.032459,5.6447851 12.309966,5.2956271 11.17309,4.7462106 9.8303912,4.9589269 8.9236919,5.8320956 8.8162215,5.9355916 8.6733765,6.0937939 8.6062585,6.1836563 L 8.4842257,6.3470422 8.1348493,5.9980289 C 7.9426923,5.8060715 7.785473,5.6473903 7.785473,5.645404 c 0,-0.00199 0.051741,-0.068961 0.1149804,-0.148832 C 8.3730588,4.89967 9.0955801,4.4122629 9.8386824,4.1890584 l 0.1672296,-0.050231 0.01157,-0.1834342 c 0.01766,-0.2800003 0.10251,-0.4702792 0.293067,-0.6572518 0.20083,-0.1970525 0.414482,-0.2833462 0.699992,-0.2827261 0.536078,0.00116 0.974253,0.4380859 0.974253,0.9714667 v 0.1431442 l 0.228539,0.075184 c 0.459466,0.1511535 0.765838,0.3077328 1.146461,0.5859291 0.921376,0.6734294 1.51025,1.7208857 1.615498,2.8735561 0.01073,0.1175254 0.01962,0.3432855 0.01976,0.5016892 6.23e-4,0.7259409 0.09963,1.4928359 0.268223,2.0776764 0.187454,0.650257 0.531935,1.305137 1.003631,1.907966 0.27384,0.349968 0.612259,0.722063 1.176083,1.293114 l 0.543496,0.550463 v 0.495019 0.495019 h -0.432141 -0.432142 z"
     id="path3" />
  <path
     style="fill:#ffffff;stroke:#cccccc;stroke-width:0.0185811"
     d="M 4.0135135,14.490258 V 13.994873 L 4.5481444,13.454362 C 5.5670772,12.424223 6.0350398,11.832775 6.3871621,11.130068 6.6608068,10.583973 6.8469712,9.947805 6.9328052,9.2654761 L 6.9546577,9.091763 7.4046342,9.5414585 7.8546108,9.991154 7.8281032,10.133246 c -0.1590296,0.852466 -0.5162153,1.640899 -1.0703034,2.362531 -0.297253,0.387136 -0.6039507,0.734322 -1.074888,1.216786 l -0.2723248,0.278991 3.2269001,0.0047 3.2268999,0.0047 0.492084,0.492347 0.492084,0.492347 H 8.431034 4.0135135 Z"
     id="path4" />
  <path
     style="fill:#ffffff;stroke:#cccccc;stroke-width:0.0185811"
     d="M 10.879223,18.987242 C 10.507412,18.955718 10.185935,18.846208 9.8851351,18.648609 9.7262513,18.544236 9.4648446,18.281579 9.3538858,18.114818 9.1369647,17.788806 9.0341244,17.474077 9.017484,17.085304 9.002606,16.737701 9.056749,16.468853 9.2073934,16.142314 l 0.062148,-0.134713 h 1.7285516 1.728551 l 0.06425,0.134713 c 0.148626,0.311618 0.206463,0.596239 0.191621,0.94299 -0.02127,0.496842 -0.198671,0.918026 -0.536548,1.273843 -0.238725,0.2514 -0.499846,0.419695 -0.818913,0.527796 -0.217672,0.07375 -0.544299,0.117555 -0.747832,0.100299 z"
     id="path5" />
</svg>
