<?xml version="1.0" encoding="UTF-8" standalone="no"?>
<svg
   width="22"
   height="22"
   version="1.1"
   id="svg1"
   sodipodi:docname="notifications-disabled.svg"
   inkscape:version="1.3.2 (091e20ef0f, 2023-11-25, custom)"
   xmlns:inkscape="http://www.inkscape.org/namespaces/inkscape"
   xmlns:sodipodi="http://sodipodi.sourceforge.net/DTD/sodipodi-0.dtd"
   xmlns="http://www.w3.org/2000/svg"
   xmlns:svg="http://www.w3.org/2000/svg">
  <defs
     id="defs1" />
  <sodipodi:namedview
     id="namedview1"
     pagecolor="#505050"
     bordercolor="#ffffff"
     borderopacity="1"
     inkscape:showpageshadow="0"
     inkscape:pageopacity="0"
     inkscape:pagecheckerboard="1"
     inkscape:deskcolor="#d1d1d1"
     inkscape:zoom="53.818182"
     inkscape:cx="10.990709"
     inkscape:cy="11"
     inkscape:window-width="2560"
     inkscape:window-height="1388"
     inkscape:window-x="2560"
     inkscape:window-y="28"
     inkscape:window-maximized="1"
     inkscape:current-layer="svg1" />
  <style
     type="text/css"
     id="current-color-scheme">.ColorScheme-Text{color:#232629;}.ColorScheme-NegativeText { color: #da4453; } </style>
  <path
     id="strikethrough"
     d="m4 4.707031 15.292969 15.292969.707031-.707031-15.2929688-15.292969z"
     fill="#da4453" />
  <path
     d="m12 4a1 1 0 0 0-1 1 1 1 0 0 0 0.009766 0.128906 3.9999999 3.9999999 0 0 0-2.2402348 1.519532l0.7167969 0.716796a3 3 0 0 1 2.5136719-1.365234 3 3 0 0 1 3 3c0 3 0.585938 4 2.585938 6h-0.464844l1 1h0.878906v-1c-2-2-3-3-3-6a3.9999999 3.9999999 0 0 0-3.009766-3.871094 1 1 0 0 0 0.009766-0.128906 1 1 0 0 0-1-1zm-4.0527344 6.068359c-0.2253625 2.204726-1.2061347 3.19051-2.9472656 4.931641v1h8.878906l-1-1h-6.4648435c1.4796441-1.479644 2.1821771-2.415859 2.4492187-4.015625zm2.3222656 6.931641a2 2 0 0 0-0.2695312 1 2 2 0 0 0 2 2 2 2 0 0 0 2-2 2 2 0 0 0-0.271484-1z"
     class="ColorScheme-Text"
     fill="currentColor"
     fill-rule="evenodd"
     id="path1" />
  <path
     style="opacity:1;fill:#ffffff;stroke:#cccccc;stroke-width:0.0185811"
     d="M 17.633446,15.496622 17.14131,15.004223 h 0.229618 0.229617 L 17.288304,14.683699 C 16.223397,13.590542 15.693737,12.832676 15.395017,11.974682 15.141899,11.24767 15.044606,10.57433 15.01389,9.3369932 14.996267,8.6270988 14.980925,8.4879961 14.883319,8.1530928 14.645418,7.3368069 14.065739,6.6551113 13.297987,6.2887589 12.460688,5.8892201 11.488367,5.8968841 10.660242,6.3095496 10.225587,6.5261437 9.8660965,6.827176 9.5909758,7.2049376 L 9.4860095,7.3490645 9.1341581,6.9972132 8.7823067,6.6453618 8.8645486,6.5381638 C 8.9892183,6.3756637 9.25998,6.098316 9.4477854,5.9407403 9.8606015,5.5943723 10.433463,5.2937924 10.94149,5.156995 l 0.07466,-0.020103 5.69e-4,-0.153497 c 7.05e-4,-0.1897782 0.0489,-0.3554878 0.147371,-0.5066948 0.353833,-0.5433296 1.073607,-0.6258863 1.527314,-0.17518 0.195036,0.193746 0.296775,0.4337779 0.296775,0.7001805 v 0.1280935 l 0.261342,0.087974 c 0.143738,0.048386 0.339548,0.1245203 0.435134,0.1691877 1.029627,0.4811474 1.805606,1.3803714 2.138279,2.4778924 0.11789,0.3889299 0.174764,0.842454 0.175292,1.3978202 4.56e-4,0.4791725 0.0564,1.0388195 0.151126,1.5118685 0.218447,1.090871 0.686442,1.944781 1.64092,2.994044 0.102261,0.112416 0.414004,0.434901 0.692762,0.716634 l 0.506834,0.512242 v 0.495782 0.495781 h -0.432142 -0.432141 z"
     id="path2" />
  <path
     style="opacity:1;fill:#ffffff;stroke:#cccccc;stroke-width:0.0185811"
     d="m 5.0176821,15.491976 7.902e-4,-0.497044 0.4992328,-0.505826 c 0.6997864,-0.709029 1.060187,-1.117514 1.3980228,-1.584545 0.4549256,-0.628898 0.7529777,-1.295342 0.914841,-2.045581 0.038554,-0.1787 0.1217027,-0.690214 0.1220331,-0.750727 5.54e-5,-0.01014 0.2013994,0.182175 0.4474311,0.427365 l 0.4473306,0.445801 -0.010362,0.09291 c -0.0057,0.0511 -0.039188,0.209967 -0.074421,0.353041 -0.2825337,1.147335 -0.7630681,1.912633 -2.0353267,3.241456 l -0.3211255,0.335402 h 3.2307664 3.2307671 l 0.492135,0.492399 0.492136,0.492398 H 9.4344124 5.0168919 Z"
     id="path3" />
  <path
     style="opacity:1;fill:#ffffff;stroke:#cccccc;stroke-width:0.0185811"
     d="m 11.624798,19.95508 c -0.601203,-0.119457 -1.128937,-0.519353 -1.403186,-1.063277 -0.153349,-0.304141 -0.216919,-0.615536 -0.201305,-0.986089 0.01196,-0.283883 0.05917,-0.482238 0.172047,-0.722859 l 0.08063,-0.171875 h 1.727768 1.727769 l 0.06722,0.141618 c 0.50083,1.055136 -0.02004,2.318278 -1.121763,2.720358 -0.08326,0.03039 -0.22331,0.06779 -0.311226,0.08312 -0.195043,0.03401 -0.564265,0.03351 -0.737952,-9.98e-4 z"
     id="path4" />
</svg>
