<?xml version="1.0" encoding="UTF-8" standalone="no"?>
<svg
   width="22"
   height="22"
   version="1.1"
   id="svg3"
   sodipodi:docname="notification-active.svg"
   inkscape:version="1.3.2 (091e20ef0f, 2023-11-25, custom)"
   xmlns:inkscape="http://www.inkscape.org/namespaces/inkscape"
   xmlns:sodipodi="http://sodipodi.sourceforge.net/DTD/sodipodi-0.dtd"
   xmlns="http://www.w3.org/2000/svg"
   xmlns:svg="http://www.w3.org/2000/svg">
  <defs
     id="defs3" />
  <sodipodi:namedview
     id="namedview3"
     pagecolor="#505050"
     bordercolor="#ffffff"
     borderopacity="1"
     inkscape:showpageshadow="0"
     inkscape:pageopacity="0"
     inkscape:pagecheckerboard="1"
     inkscape:deskcolor="#d1d1d1"
     inkscape:zoom="53.818182"
     inkscape:cx="10.990709"
     inkscape:cy="11"
     inkscape:window-width="2560"
     inkscape:window-height="1388"
     inkscape:window-x="2560"
     inkscape:window-y="28"
     inkscape:window-maximized="1"
     inkscape:current-layer="svg3" />
  <style
     type="text/css"
     id="current-color-scheme">.ColorScheme-Text{color:#232629;}.ColorScheme-ButtonFocus{color:#3daee9;}.ColorScheme-NegativeText { color: #da4453; } </style>
  <g
     id="notification-active"
     transform="translate(-1 39) translate(0,-40)">
    <path
       d="m1 1h22v22h-22z"
       fill="none"
       id="path1" />
    <path
       d="m6.3457031 3.345703a7.9999995 7.9999995 0 0 0 -2.3457031 5.654297h1a7 7 0 0 1 2.0527344-4.947266zm11.3085939 0-.707031.707031a7 7 0 0 1 2.052734 4.947266h1a7.9999995 7.9999995 0 0 0 -2.345703-5.654297zm-1.416016 1.416016-.708984.708984a5 5 0 0 1 1.470703 3.529297h1a6 6 0 0 0 -1.761719-4.238281zm-8.472656.003906a6 6 0 0 0 -1.765625 4.234375h1a5 5 0 0 1 1.4667969-3.533203z"
       class="ColorScheme-Text"
       fill="currentColor"
       fill-rule="evenodd"
       id="path2" />
    <path
       d="m10.269531 17a2 2 0 0 0-0.269531 1 2 2 0 0 0 2 2 2 2 0 0 0 2-2 2 2 0 0 0-0.271484-1zm1.730469-13a1 1 0 0 0-1 1 1 1 0 0 0 0.0098 0.128906 3.9999999 3.9999999 0 0 0-3.0098 3.871094c0 3-1 4-3 6v1h14v-1c-2-2-3-3-3-6a3.9999999 3.9999999 0 0 0-3.009766-3.871094 1 1 0 0 0 0.009766-0.128906 1 1 0 0 0-1-1zm0 2a3 3 0 0 1 3 3c0 3 0.585938 4 2.585938 6h-11.171876c2-2 2.5859375-3 2.5859375-6a3 3 0 0 1 3-3z"
       class="ColorScheme-Text"
       fill="currentColor"
       fill-rule="evenodd"
       id="path3" />
  </g>
  <path
     style="fill:#ffffff;stroke:#cccccc;stroke-width:0.0185811"
     d="m 4.0140874,14.488598 5.74e-4,-0.497044 0.5430269,-0.548142 C 5.1100769,12.88582 5.4607758,12.500027 5.7378389,12.145165 6.2488257,11.490693 6.5983258,10.797025 6.7812726,10.074214 6.9238361,9.5109553 6.9801927,9.0377964 7.0051891,8.1942568 7.0154169,7.849103 7.0341778,7.5400489 7.0519995,7.4231419 7.2941855,5.8344329 8.430345,4.5663413 9.9919764,4.1417715 c 0.016073,-0.00437 0.023227,-0.051242 0.023227,-0.152174 0,-0.4385335 0.308691,-0.8336428 0.743734,-0.951944 0.144513,-0.039297 0.401642,-0.028287 0.5508,0.023585 0.406186,0.1412575 0.67506,0.5099388 0.67506,0.9256442 v 0.1431442 l 0.228539,0.075184 c 0.459466,0.1511535 0.765838,0.3077328 1.146461,0.5859291 0.921376,0.6734294 1.51025,1.7208857 1.615498,2.8735561 0.01073,0.1175254 0.01962,0.3432855 0.01976,0.5016892 6.23e-4,0.7259409 0.09963,1.4928359 0.268223,2.0776757 0.187582,0.650704 0.529012,1.299547 1.003996,1.907966 0.271675,0.347995 0.610485,0.720636 1.175718,1.293114 l 0.543496,0.550463 v 0.495019 0.495019 H 11 4.0135135 Z M 16.321083,13.71686 C 15.214751,12.579839 14.714946,11.869585 14.396987,10.982597 14.144577,10.278467 14.010564,9.3104333 14.010231,8.1888792 14.010046,7.5668101 13.931094,7.1664381 13.720302,6.7186201 13.386177,6.0087855 12.767655,5.4416827 12.040541,5.1785008 11.120262,4.8454028 10.130184,4.966227 9.3091216,5.5118293 9.0680105,5.6720495 8.6694601,6.0703141 8.5121023,6.308277 8.3717375,6.5205427 8.2145285,6.8388901 8.1496558,7.0422297 8.0301052,7.4169542 7.9899589,7.702389 7.9896872,8.1795887 7.9891789,9.0721513 7.897481,9.9373067 7.7400032,10.53532 7.4554975,11.615715 6.9379109,12.421997 5.733022,13.66174 l -0.3295712,0.339105 h 5.5969762 5.596976 z"
     id="path4" />
  <path
     style="fill:#ffffff;stroke:#cccccc;stroke-width:0.0185811"
     d="M 10.879223,18.987242 C 10.507412,18.955718 10.185935,18.846208 9.8851351,18.648609 9.7262513,18.544236 9.4648446,18.281579 9.3538858,18.114818 9.1369647,17.788806 9.0341244,17.474077 9.017484,17.085304 9.002606,16.737701 9.056749,16.468853 9.2073934,16.142314 l 0.062148,-0.134713 h 1.7285516 1.728551 l 0.06425,0.134713 c 0.148626,0.311618 0.206463,0.596239 0.191621,0.94299 -0.02127,0.496842 -0.198671,0.918026 -0.536548,1.273843 -0.238725,0.2514 -0.499846,0.419695 -0.818913,0.527796 -0.217672,0.07375 -0.544299,0.117555 -0.747832,0.100299 z"
     id="path5" />
  <path
     style="fill:#ffffff;stroke:#cccccc;stroke-width:0.0185811"
     d="m 16.009924,7.9410895 c -0.0064,-0.031936 -0.01161,-0.1117 -0.01161,-0.1772525 0,-0.2780486 -0.08027,-0.7657808 -0.187175,-1.1372796 C 15.59995,5.8926682 15.23208,5.2317878 14.71188,4.6517409 l -0.167869,-0.1871818 0.347571,-0.3462998 0.347571,-0.3462998 0.130675,0.1393581 c 0.465334,0.4962553 0.902622,1.1748778 1.165373,1.8085297 0.258335,0.6230032 0.418838,1.343385 0.442632,1.9866561 l 0.01083,0.292652 h -0.48356 -0.483561 z"
     id="path6" />
  <path
     style="fill:#ffffff;stroke:#cccccc;stroke-width:0.0185811"
     d="M 18.004876,7.8365709 C 18.004282,7.3327492 17.891987,6.6075709 17.727413,6.0447648 17.420187,4.9941176 16.894865,4.0662639 16.140802,3.2423986 l -0.178571,-0.1951013 0.342798,-0.3432771 0.342798,-0.343277 0.0771,0.073851 c 0.142267,0.1362618 0.484385,0.5361785 0.667213,0.7799324 0.812835,1.0837063 1.33682,2.3571257 1.5215,3.6976352 0.04443,0.3225112 0.07622,0.7115246 0.07622,0.9327682 v 0.154225 h -0.492399 -0.492398 z"
     id="path7" />
  <path
     style="fill:#ffffff;stroke:#cccccc;stroke-width:0.0185811"
     d="M 5.0170775,7.8086993 C 5.0174035,7.474189 5.0801718,7.01502 5.1831665,6.5937083 5.3465954,5.9251836 5.6156235,5.3069716 5.998727,4.7195946 6.173322,4.4519044 6.4863987,4.0621173 6.673894,3.8789975 l 0.09968,-0.097354 0.3419269,0.3423019 0.3419268,0.342302 -0.15121,0.1597429 C 6.5797316,5.3934729 6.0708617,6.5670556 6.0111729,7.6126912 6.0051649,7.7179408 5.9957908,7.8479519 5.9903416,7.9016047 l -0.00991,0.097551 H 5.498663 5.0168919 Z"
     id="path8" />
  <path
     style="fill:#ffffff;stroke:#cccccc;stroke-width:0.0185811"
     d="m 3.0101351,7.8439146 c 0,-0.7428982 0.190024,-1.7653876 0.4730551,-2.5454365 C 3.8538807,4.2768355 4.4637976,3.2800365 5.1630091,2.5531177 L 5.3489607,2.3597973 5.693893,2.7035961 6.0388252,3.047395 5.8603702,3.2416225 C 4.7194613,4.4833694 4.0693361,6.0446094 4.0011227,7.7065034 l -0.012012,0.292652 H 3.4996229 3.0101351 Z"
     id="path9" />
</svg>
