<?xml version="1.0" encoding="UTF-8" standalone="no"?>
<svg
   viewBox="0 0 22 22"
   version="1.1"
   id="svg1"
   sodipodi:docname="object.svg"
   inkscape:version="1.3.2 (091e20ef0f, 2023-11-25, custom)"
   xmlns:inkscape="http://www.inkscape.org/namespaces/inkscape"
   xmlns:sodipodi="http://sodipodi.sourceforge.net/DTD/sodipodi-0.dtd"
   xmlns="http://www.w3.org/2000/svg"
   xmlns:svg="http://www.w3.org/2000/svg">
  <sodipodi:namedview
     id="namedview1"
     pagecolor="#505050"
     bordercolor="#ffffff"
     borderopacity="1"
     inkscape:showpageshadow="0"
     inkscape:pageopacity="0"
     inkscape:pagecheckerboard="1"
     inkscape:deskcolor="#d1d1d1"
     inkscape:zoom="53.818182"
     inkscape:cx="10.990709"
     inkscape:cy="11"
     inkscape:window-width="2560"
     inkscape:window-height="1388"
     inkscape:window-x="2560"
     inkscape:window-y="28"
     inkscape:window-maximized="1"
     inkscape:current-layer="svg1" />
  <defs
     id="defs3051">
    <style
       type="text/css"
       id="current-color-scheme">.ColorScheme-Text{color:#232629;}.ColorScheme-Highlight { color: #3daee9; } </style>
  </defs>
  <path
     style="fill:currentColor;fill-opacity:1;stroke:none"
     d="M 3 3 L 3 19 L 19 19 L 19 3 L 3 3 z M 4 4 L 18 4 L 18 7 L 18 18 L 4 18 L 4 7 L 4 4 z M 7.5 5 A 2.5 2.5 0 0 0 5 7.5 A 2.5 2.5 0 0 0 7.5 10 A 2.5 2.5 0 0 0 10 7.5 A 2.5 2.5 0 0 0 7.5 5 z M 12 5 L 12 10 L 17 10 L 17 5 L 12 5 z M 6 12 L 6 17 L 9 17 L 9 12 L 6 12 z M 14.5 12 L 12 17 L 17 17 L 14.5 12 z "
     class="ColorScheme-Text"
     id="path1" />
  <path
     style="fill:#ffffff;stroke:#cccccc;stroke-width:0.0185811"
     d="m 12.021959,16.98308 c 0,-0.01859 2.473537,-4.955758 2.479583,-4.94924 0.0034,0.0037 0.563176,1.120869 1.243905,2.48263 l 1.237689,2.475929 h -2.480588 c -1.364324,0 -2.480589,-0.0042 -2.480589,-0.0093 z"
     id="path2" />
  <path
     style="fill:#ffffff;stroke:#cccccc;stroke-width:0.0185811"
     d="m 6.0016892,14.502534 v -2.489865 h 1.495777 1.495777 v 2.489865 2.489865 h -1.495777 -1.495777 z"
     id="path3" />
  <path
     style="fill:#ffffff;stroke:#cccccc;stroke-width:0.0185811"
     d="M 7.2280405,9.9775595 C 7.2127111,9.974556 7.1374578,9.9619913 7.0608108,9.9496377 6.7568986,9.9006548 6.3797907,9.7461392 6.0947422,9.5538025 5.9360224,9.4467062 5.6449968,9.1729013 5.5285517,9.0211149 5.3242993,8.7548714 5.1639091,8.4212867 5.0800378,8.0882814 5.0145324,7.8281968 4.9974002,7.3675137 5.0432339,7.0986257 5.1968205,6.1975933 5.8312034,5.4426712 6.6798986,5.1509779 6.9834232,5.0466577 7.1597995,5.0180235 7.4974662,5.0182484 c 0.206329,1.375e-4 0.3466602,0.010021 0.4586223,0.032301 1.0112687,0.2012364 1.773575,0.9562263 1.9869981,1.9679272 0.07976,0.3780925 0.047536,0.891014 -0.079558,1.2663334 C 9.6565603,8.8960084 9.1988139,9.4276072 8.6292384,9.7182399 8.4181671,9.8259414 8.1098319,9.9256136 7.8810414,9.9601018 7.7271934,9.9832929 7.3137237,9.9943469 7.2280405,9.9775595 Z"
     id="path4" />
  <path
     style="fill:#ffffff;stroke:#cccccc;stroke-width:0.0185811"
     d="M 12.003378,7.4974662 V 5.0076014 h 2.489865 2.489865 v 2.4898648 2.4898649 h -2.489865 -2.489865 z"
     id="path5" />
  <path
     style="fill:#ffffff;stroke:#cccccc;stroke-width:0.0185811"
     d="M 3.0101351,11 V 3.0008446 H 11 18.989865 V 11 18.999155 H 11 3.0101351 Z M 18.005068,11 V 3.9856419 H 11 3.9949324 V 11 18.014358 H 11 18.005068 Z"
     id="path6" />
</svg>
