<?xml version="1.0" encoding="UTF-8" standalone="no"?>
<svg
   viewBox="0 0 24 24"
   width="24"
   height="24"
   version="1.1"
   id="svg2"
   sodipodi:docname="auth-sim-missing.svg"
   inkscape:version="1.3.2 (091e20ef0f, 2023-11-25, custom)"
   xmlns:inkscape="http://www.inkscape.org/namespaces/inkscape"
   xmlns:sodipodi="http://sodipodi.sourceforge.net/DTD/sodipodi-0.dtd"
   xmlns="http://www.w3.org/2000/svg"
   xmlns:svg="http://www.w3.org/2000/svg">
  <defs
     id="defs2" />
  <sodipodi:namedview
     id="namedview2"
     pagecolor="#505050"
     bordercolor="#ffffff"
     borderopacity="1"
     inkscape:showpageshadow="0"
     inkscape:pageopacity="0"
     inkscape:pagecheckerboard="1"
     inkscape:deskcolor="#d1d1d1"
     inkscape:zoom="30.791667"
     inkscape:cx="11.983762"
     inkscape:cy="11.983762"
     inkscape:window-width="2560"
     inkscape:window-height="1388"
     inkscape:window-x="2560"
     inkscape:window-y="28"
     inkscape:window-maximized="1"
     inkscape:current-layer="svg2" />
  <style
     type="text/css"
     id="current-color-scheme">.ColorScheme-Text{color:#232629;}.ColorScheme-NegativeText { color: #da4453; } </style>
  <g
     transform="translate(1,1)"
     id="g2">
    <path
       d="m5.1210938 3 2 2h.8789062v.8789062l1 1v-1.8789062h4v3h-2.878906l1 1h3.171875l1 1h.707031v3h-.707031l-.085938.085938.707031.707031.085938-.085938v.171875l1 1v-9.5859372l-2.292969-2.2929688zm8.8789062 2h1c.554 0 1 .446 1 1v3.2929688l-1.292969-1.2929688h-.707031zm-9 2.1210938v11.8789062h11.878906l-1.24414-1.244141c-.173646.145663-.38935.244141-.634766.244141h-1v-1.878906l-1-1v2.878906h-4v-3h3.878906l-1-1h-4.1718748l-1-1h-.7070312v-3h.7070312l.5859376-.5859375-.7070313-.7070313-.5859375.5859376v-1.171875zm1 6.5859372 1.2929688 1.292969h.7070312v3h-1c-.554 0-1-.446-1-1z"
       class="ColorScheme-Text"
       fill="currentColor"
       id="path1" />
    <path
       d="m3.5 2.7929688-.7070312.7070312 15.353516 15.353516.353516.353515.707031-.707031-.353515-.353516-15-15z"
       class="ColorScheme-NegativeText"
       fill="currentColor"
       stroke-linecap="square"
       stroke-miterlimit="0"
       id="path2" />
  </g>
  <path
     style="fill:#ffffff;stroke:#cccccc;stroke-width:0.0324763"
     d="M 6.0081191,14.070771 V 8.1523683 l 0.4871448,0.4863326 0.4871448,0.4863327 v 0.6005766 0.6005768 l 0.3010011,-0.29975 0.3010011,-0.2997494 0.3397775,0.3409374 0.3397775,0.340938 -0.2909811,0.292336 -0.290981,0.292335 H 7.3322062 6.9824087 v 1.510149 1.510149 h 0.3495134 0.3495134 l 0.502597,0.503383 0.502597,0.503383 h 2.0955215 2.095522 l 0.486332,0.487144 0.486333,0.487145 H 11.90996 9.9695815 l 0.00844,1.50203 0.00844,1.50203 H 12 14.013532 l 0.0085,-1.41195 0.0085,-1.41195 0.470556,0.469716 0.470556,0.469717 v 0.95279 0.95279 l 0.641408,-0.01056 0.641407,-0.01056 0.193961,-0.106336 0.193962,-0.106337 0.6016,0.6016 0.6016,0.601601 H 11.92682 6.0081191 Z m 3.0202977,3.433965 V 15.994587 H 8.6633483 8.2982798 l -0.6587501,-0.657645 -0.6587502,-0.657646 0.00893,1.786198 c 0.00873,1.74632 0.010483,1.789549 0.078346,1.936316 0.083496,0.180577 0.278165,0.402997 0.4152916,0.474492 0.2191579,0.114266 0.3585697,0.134234 0.952373,0.13641 l 0.5926928,0.0022 z"
     id="path3" />
  <path
     style="fill:#ffffff;stroke:#cccccc;stroke-width:0.0324763"
     d="m 17.496617,15.353195 c -0.393568,-0.394226 -0.479026,-0.496399 -0.479026,-0.57272 0,-0.08064 -0.0067,-0.08733 -0.05087,-0.05067 -0.04387,0.03641 -0.0981,-0.005 -0.393929,-0.300832 -0.198632,-0.198632 -0.333638,-0.358291 -0.320686,-0.379247 0.01433,-0.02319 0.155817,-0.03619 0.393929,-0.03619 h 0.371561 V 12.503383 10.993234 H 16.668078 16.318565 L 15.815968,10.489851 15.313371,9.9864682 H 13.721232 12.129093 L 11.64276,9.4993234 11.156428,9.0121786 h 1.436671 1.436671 V 7.5020298 5.9918809 H 12 9.97023 v 0.917036 0.9170359 L 9.4993234,7.3558863 9.0284168,6.8858199 V 6.4388504 5.9918809 H 8.5816677 8.1349187 L 7.1447903,5.0013532 6.1546618,4.0108254 h 4.7739912 4.77399 l 1.144728,1.1450679 1.144727,1.1450679 -0.0082,4.7660298 -0.0082,4.76603 z M 17.01065,8.135318 C 17.001389,6.7604203 17.001053,6.7544115 16.924001,6.5839206 16.820054,6.3539198 16.548632,6.1068712 16.327856,6.0413078 16.205299,6.0049122 16.00457,5.9918809 15.566501,5.9918809 h -0.594918 v 1.5101489 1.5101488 h 0.365663 0.365663 l 0.649222,0.6499275 0.649222,0.6499269 0.0093,-0.3982354 c 0.0051,-0.2190298 0.0051,-1.0193456 0,-1.7784796 z"
     id="path4" />
</svg>
