<?xml version="1.0" encoding="UTF-8" standalone="no"?>
<svg
   height="24"
   width="24"
   viewBox="0 0 24 24"
   version="1.1"
   id="svg2"
   sodipodi:docname="battery-030-charging.svg"
   inkscape:version="1.3.2 (091e20ef0f, 2023-11-25, custom)"
   xmlns:inkscape="http://www.inkscape.org/namespaces/inkscape"
   xmlns:sodipodi="http://sodipodi.sourceforge.net/DTD/sodipodi-0.dtd"
   xmlns="http://www.w3.org/2000/svg"
   xmlns:svg="http://www.w3.org/2000/svg">
  <sodipodi:namedview
     id="namedview2"
     pagecolor="#505050"
     bordercolor="#ffffff"
     borderopacity="1"
     inkscape:showpageshadow="0"
     inkscape:pageopacity="0"
     inkscape:pagecheckerboard="1"
     inkscape:deskcolor="#d1d1d1"
     inkscape:zoom="30.791667"
     inkscape:cx="11.983762"
     inkscape:cy="11.983762"
     inkscape:window-width="2560"
     inkscape:window-height="1388"
     inkscape:window-x="2560"
     inkscape:window-y="28"
     inkscape:window-maximized="1"
     inkscape:current-layer="svg2" />
  <defs
     id="defs1">
    <style
       type="text/css"
       id="current-color-scheme">.ColorScheme-Text{color:#232629;}.ColorScheme-PositiveText { color: #27ae60; } </style>
  </defs>
  <g
     transform="translate(1,1)"
     id="g2">
    <path
       style="fill:currentColor;fill-opacity:1;stroke:none"
       class="ColorScheme-Text"
       d="M3 7v8h6L7 7zM1 5v12h19v-4h.5c.277 0 .5-.223.5-.5v-3c0-.277-.223-.5-.5-.5H20V5H4zm1 1h17v10H2z"
       fill-rule="evenodd"
       id="path1" />
    <path
       d="M12 8a3 3 0 0 0-2.826 2H8v2h1.176A3 3 0 0 0 12 14v-1h2v-1h-2v-2h2V9h-2z"
       class="ColorScheme-PositiveText"
       fill="currentColor"
       id="path2" />
  </g>
  <path
     style="fill:#ffffff;stroke:#cccccc;stroke-width:0.0324763"
     d="M 4.0270636,12 V 8.0054127 h 1.977 1.977 l 0.5074386,2.0295793 0.5074383,2.02958 v 0.471097 0.471097 l 0.1217862,3.5e-5 0.1217862,3.5e-5 0.3663147,1.469518 c 0.2014733,0.808235 0.3658847,1.48048 0.3653585,1.493876 -5.257e-4,0.0134 -1.3381685,0.02436 -2.9725393,0.02436 H 4.0270636 Z"
     id="path3" />
  <path
     style="fill:#ffffff;stroke:#cccccc;stroke-width:0.0324763"
     d="M 2.0135318,12 V 6.0243572 h 9.4830852 9.483085 v 1.9972937 1.9972941 h 0.317151 c 0.375106,0 0.504069,0.0517 0.616009,0.246953 0.07239,0.126258 0.07254,0.129908 0.07254,1.734102 0,1.604194 -1.53e-4,1.607844 -0.07254,1.734102 -0.11194,0.195253 -0.240903,0.246953 -0.616009,0.246953 h -0.317151 v 1.997294 1.997294 H 11.496617 2.0135318 Z M 20.005413,12 V 6.9986468 H 11.496617 2.9878214 V 12 17.001353 h 8.5087956 8.508796 z"
     id="path4" />
</svg>
