<?xml version="1.0" encoding="UTF-8" standalone="no"?>
<svg
   height="24"
   width="24"
   viewBox="0 0 24 24"
   version="1.1"
   id="svg3"
   sodipodi:docname="battery-missing.svg"
   inkscape:version="1.3.2 (091e20ef0f, 2023-11-25, custom)"
   xmlns:inkscape="http://www.inkscape.org/namespaces/inkscape"
   xmlns:sodipodi="http://sodipodi.sourceforge.net/DTD/sodipodi-0.dtd"
   xmlns="http://www.w3.org/2000/svg"
   xmlns:svg="http://www.w3.org/2000/svg">
  <sodipodi:namedview
     id="namedview3"
     pagecolor="#505050"
     bordercolor="#ffffff"
     borderopacity="1"
     inkscape:showpageshadow="0"
     inkscape:pageopacity="0"
     inkscape:pagecheckerboard="1"
     inkscape:deskcolor="#d1d1d1"
     inkscape:zoom="30.791667"
     inkscape:cx="11.983762"
     inkscape:cy="11.983762"
     inkscape:window-width="2560"
     inkscape:window-height="1388"
     inkscape:window-x="2560"
     inkscape:window-y="28"
     inkscape:window-maximized="1"
     inkscape:current-layer="svg3" />
  <defs
     id="defs1">
    <style
       type="text/css"
       id="current-color-scheme">.ColorScheme-Text{color:#232629;}.ColorScheme-NegativeText { color: #da4453; } </style>
  </defs>
  <g
     transform="translate(1,1)"
     id="g3">
    <path
       style="fill:currentColor;fill-opacity:1;stroke:none"
       class="ColorScheme-Text"
       d="M3 15V7h15v8zM1 5v12h19v-4h.5c.277 0 .5-.223.5-.5v-3c0-.277-.223-.5-.5-.5H20V5H4zm1 1h17v10H2z"
       id="path1" />
    <path
       style="fill:currentColor;fill-opacity:1;stroke:none"
       class="ColorScheme-NegativeText"
       d="M15 11h6c.554 0 1 .446 1 1v6c0 .554-.446 1-1 1h-6c-.554 0-1-.446-1-1v-6c0-.554.446-1 1-1z"
       id="path2" />
    <path
       d="M15.707 12l-.707.707L17.293 15 15 17.293l.707.707L18 15.707 20.293 18l.707-.707L18.707 15 21 12.707 20.293 12 18 14.293z"
       fill="#fff"
       id="path3" />
  </g>
  <path
     style="fill:#ffffff;stroke:#cccccc;stroke-width:0.0324763"
     d="M 4.0270636,12 V 8.0054127 h 7.4857914 7.485792 V 10.002706 12 h -1.601793 c -1.813301,0 -1.786709,-0.0032 -2.066207,0.2481 -0.0928,0.08343 -0.199438,0.223102 -0.25188,0.329894 l -0.09095,0.1852 -0.01005,1.615696 -0.01005,1.615697 H 9.4973959 4.0270636 Z"
     id="path4" />
  <path
     style="fill:#ffffff;stroke:#cccccc;stroke-width:0.0324763"
     d="M 2.0135318,12 V 6.0243572 h 9.4830852 9.483085 v 1.9972937 1.9972941 h 0.317151 c 0.375106,0 0.504069,0.0517 0.616009,0.246953 0.06966,0.121502 0.07256,0.158431 0.07307,0.930313 L 21.986468,12 H 20.99594 20.005413 V 9.4993234 6.9986468 H 11.496617 2.9878214 V 12 17.001353 h 5.9918809 5.9918807 v 0.487145 0.487145 H 8.4925575 2.0135318 Z"
     id="path5" />
</svg>
