<?xml version="1.0" encoding="UTF-8" standalone="no"?>
<svg
   viewBox="0 0 24 24"
   width="24"
   height="24"
   version="1.1"
   id="svg2"
   sodipodi:docname="call-missed.svg"
   inkscape:version="1.3.2 (091e20ef0f, 2023-11-25, custom)"
   xmlns:inkscape="http://www.inkscape.org/namespaces/inkscape"
   xmlns:sodipodi="http://sodipodi.sourceforge.net/DTD/sodipodi-0.dtd"
   xmlns="http://www.w3.org/2000/svg"
   xmlns:svg="http://www.w3.org/2000/svg">
  <defs
     id="defs2" />
  <sodipodi:namedview
     id="namedview2"
     pagecolor="#505050"
     bordercolor="#ffffff"
     borderopacity="1"
     inkscape:showpageshadow="0"
     inkscape:pageopacity="0"
     inkscape:pagecheckerboard="1"
     inkscape:deskcolor="#d1d1d1"
     inkscape:zoom="30.791667"
     inkscape:cx="11.983762"
     inkscape:cy="11.983762"
     inkscape:window-width="2560"
     inkscape:window-height="1388"
     inkscape:window-x="2560"
     inkscape:window-y="28"
     inkscape:window-maximized="1"
     inkscape:current-layer="svg2" />
  <style
     type="text/css"
     id="current-color-scheme">.ColorScheme-Text{color:#232629;}.ColorScheme-NegativeText { color: #da4453; } </style>
  <g
     transform="translate(1,1)"
     id="g2">
    <path
       d="m8 12.99999c-2.56828 0-4.78334 1.3818-6 3.43361l.00001.56641-.00001.99999s.00001.99999 1.00003 1h3c1 0 1-1 1-1v-.5c0-.831.66901-1.5 1.5-1.5l4.99997-.00001c.83098 0 1.5.669 1.5 1.50001v.5s0 .99999 1 .99999h3c1 0 1-.99999 1-.99999v-.99999-.56641c-1.21666-2.05181-3.43208-3.4336-6-3.4336z"
       class="ColorScheme-Text"
       fill="currentColor"
       id="path1" />
    <path
       d="m4.5 3.7929688-.7070312.7070312 7.2070312 7.207031 7-6.9999998v3.2929688h1v-5h-5v1h3.292969l-6.292969 6.292969z"
       class="ColorScheme-NegativeText"
       fill="currentColor"
       id="path2" />
  </g>
  <path
     style="fill:#ffffff;stroke:#cccccc;stroke-width:0.0324763"
     d="M 3.7256022,19.954397 C 3.4513279,19.888311 3.2526609,19.719427 3.1224216,19.441641 3.0368425,19.259111 3.0365003,19.255195 3.026586,18.344844 l -0.00995,-0.913613 0.1443018,-0.223068 c 1.0153892,-1.569631 2.6399522,-2.682728 4.447637,-3.047375 0.7212111,-0.145483 0.9336712,-0.15189 4.6349972,-0.139773 3.417908,0.01119 3.499425,0.01291 3.882764,0.08211 1.970697,0.355709 3.575956,1.406492 4.688463,3.069011 l 0.16861,0.251968 -0.01,0.917179 c -0.0099,0.913106 -0.01035,0.917973 -0.09514,1.095799 -0.104378,0.218895 -0.257558,0.377898 -0.450686,0.467816 -0.14278,0.06648 -0.187254,0.06804 -1.932341,0.06804 h -1.786198 l -0.154924,-0.07696 c -0.193162,-0.09595 -0.391497,-0.317556 -0.463195,-0.517535 -0.03732,-0.10408 -0.06247,-0.322507 -0.07926,-0.68832 -0.01967,-0.428625 -0.03858,-0.572278 -0.09448,-0.717847 -0.1658,-0.431793 -0.529541,-0.779787 -0.954811,-0.913476 l -0.23439,-0.07368 h -2.744249 c -2.7031146,0 -2.7472207,0.001 -2.9424904,0.06819 -0.3685433,0.126774 -0.706624,0.40408 -0.8632654,0.708082 -0.1395105,0.270755 -0.1638651,0.390345 -0.1891376,0.928733 -0.017105,0.364396 -0.042644,0.584643 -0.079815,0.68832 -0.071726,0.200055 -0.2723256,0.424196 -0.4642227,0.518703 l -0.1538968,0.07579 -1.7212449,0.0055 c -0.9466847,0.003 -1.7765237,-0.0078 -1.8440866,-0.02407 z"
     id="path3" />
</svg>
