<?xml version="1.0" encoding="UTF-8" standalone="no"?>
<svg
   viewBox="0 0 24 24"
   width="24"
   height="24"
   version="1.1"
   id="svg3"
   sodipodi:docname="camera-ready.svg"
   inkscape:version="1.3.2 (091e20ef0f, 2023-11-25, custom)"
   xmlns:inkscape="http://www.inkscape.org/namespaces/inkscape"
   xmlns:sodipodi="http://sodipodi.sourceforge.net/DTD/sodipodi-0.dtd"
   xmlns="http://www.w3.org/2000/svg"
   xmlns:svg="http://www.w3.org/2000/svg">
  <sodipodi:namedview
     id="namedview3"
     pagecolor="#505050"
     bordercolor="#ffffff"
     borderopacity="1"
     inkscape:showpageshadow="0"
     inkscape:pageopacity="0"
     inkscape:pagecheckerboard="1"
     inkscape:deskcolor="#d1d1d1"
     inkscape:zoom="30.791667"
     inkscape:cx="11.983762"
     inkscape:cy="11.983762"
     inkscape:window-width="2560"
     inkscape:window-height="1388"
     inkscape:window-x="2560"
     inkscape:window-y="28"
     inkscape:window-maximized="1"
     inkscape:current-layer="svg3" />
  <defs
     id="defs3051">
    <style
       type="text/css"
       id="current-color-scheme">.ColorScheme-Text{color:#232629;}.ColorScheme-NeutralText { color: #f67400; } </style>
  </defs>
  <g
     transform="translate(1,1)"
     id="g3">
    <g
       transform="translate(0,-1030.3622)"
       id="g2">
      <path
         style="opacity:1;fill:currentColor;fill-opacity:1;stroke:none"
         d="M 11 4 A 6 6 0 0 0 6.546875 6 L 4 6 C 3.446 6 3 6.446 3 7 L 3 13 C 3 13.554 3.446 14 4 14 L 6.5371094 14 A 6 6 0 0 0 11 16 A 6 6 0 0 0 15.453125 14 L 18 14 C 18.554 14 19 13.554 19 13 L 19 7 C 19 6.446 18.554 6 18 6 L 15.462891 6 A 6 6 0 0 0 11 4 z M 11 16 C 10.446 16 10 16.446 10 17 C 10 17.028 10.013325 17.052078 10.015625 17.080078 C 8.3941076 17.311278 7 18 7 18 L 7 19 L 15 19 L 15 18 C 15 18 13.605887 17.311178 11.984375 17.080078 C 11.986675 17.052078 12 17.028 12 17 C 12 16.446 11.554 16 11 16 z M 11 5 A 5 5 0 0 1 14.091797 6.0839844 A 5 5 0 0 1 14.291016 6.2480469 A 5 5 0 0 1 14.474609 6.4199219 A 5 5 0 0 1 14.658203 6.6074219 A 5 5 0 0 1 14.835938 6.8085938 A 5 5 0 0 1 14.992188 7 L 16.189453 7 L 18 7 L 18 8 L 17 8 L 17 12 L 18 12 L 18 13 L 16.1875 13 L 14.992188 13 A 5 5 0 0 1 13.990234 14 A 5 5 0 0 1 11 15 A 5 5 0 0 1 7.9082031 13.916016 A 5 5 0 0 1 7.7089844 13.751953 A 5 5 0 0 1 7.5253906 13.580078 A 5 5 0 0 1 7.3417969 13.392578 A 5 5 0 0 1 7.1640625 13.191406 A 5 5 0 0 1 7.0078125 13 L 5.8105469 13 L 4 13 L 4 12 L 5 12 L 5 8 L 4 8 L 4 7 L 5.8125 7 L 7.0078125 7 A 5 5 0 0 1 7.328125 6.6152344 A 5 5 0 0 1 8.0097656 6 A 5 5 0 0 1 11 5 z "
         transform="translate(0,1030.3622)"
         class="ColorScheme-Text"
         id="path1" />
      <path
         style="fill:currentColor;fill-opacity:1;stroke:none"
         class="ColorScheme-NeutralText"
         d="m 12.999978,1040.3622 a 1.9999826,1.9999826 0 0 1 -1.999983,2 1.9999826,1.9999826 0 0 1 -1.9999824,-2 1.9999826,1.9999826 0 0 1 1.9999824,-2 1.9999826,1.9999826 0 0 1 1.999983,2 z"
         id="path2" />
    </g>
  </g>
  <path
     style="fill:#ffffff;stroke:#cccccc;stroke-width:0.0324763"
     d="m 8.028924,19.494812 0.00896,-0.494362 0.3247632,-0.142306 c 0.6676174,-0.292538 1.9238048,-0.663213 2.5006768,-0.737898 l 0.162381,-0.02102 0.004,-0.169641 c 0.0099,-0.419048 0.367071,-0.828581 0.770802,-0.883919 0.264885,-0.03631 0.193909,-0.06672 -0.199382,-0.08543 C 10.545794,16.910025 9.4365947,16.509842 8.4985117,15.840843 8.354095,15.737852 8.0807113,15.504388 7.8909928,15.322035 l -0.3449433,-0.331552 -1.3941344,-0.0094 -1.3941343,-0.0095 -0.1845176,-0.09061 C 4.3580762,14.775299 4.2105103,14.619491 4.1028089,14.38424 l -0.076966,-0.168116 0.00873,-3.259618 0.00873,-3.2596183 0.06989,-0.1299053 C 4.2128032,7.3818315 4.4068634,7.1972545 4.5953992,7.1083388 L 4.7577808,7.0317577 6.1415912,7.0314404 7.5254017,7.0311231 7.8241507,6.7396798 C 9.0153473,5.5776135 10.602421,4.9606823 12.227334,5.0280637 c 1.503849,0.062361 2.840662,0.6384995 3.948296,1.7016339 l 0.314043,0.3014255 1.376273,3.173e-4 1.376273,3.173e-4 0.167932,0.078189 c 0.222765,0.1037196 0.414522,0.3067741 0.49642,0.5256665 0.06519,0.1742411 0.06637,0.2341243 0.06637,3.3861278 v 3.208751 l -0.09895,0.198016 c -0.111083,0.222295 -0.265215,0.373472 -0.483974,0.474691 -0.141925,0.06567 -0.20325,0.06875 -1.544276,0.07762 l -1.396481,0.0092 -0.259811,0.254094 c -0.630263,0.616395 -1.301915,1.049663 -2.092715,1.349967 -0.570407,0.21661 -1.346321,0.374763 -1.838622,0.374763 -0.26813,0 -0.301367,0.04352 -0.05865,0.07679 0.403148,0.05526 0.76081,0.464819 0.770802,0.882651 l 0.004,0.168373 0.25981,0.0398 c 0.626563,0.09599 1.73844,0.430985 2.419486,0.728969 l 0.308525,0.134992 0.009,0.494362 0.009,0.494363 H 12 8.0199592 Z m 4.370537,-3.500788 c 1.285369,-0.113776 2.355596,-0.635372 3.264045,-1.590795 0.173164,-0.182117 0.314843,-0.344302 0.314843,-0.36041 0,-0.01698 0.63466,-0.02929 1.510149,-0.02929 h 1.510149 V 13.493911 12.97429 H 18.511502 18.024357 V 10.993234 9.0121786 h 0.487145 0.487145 V 8.4925575 7.9729364 H 17.496272 15.993896 L 15.766907,7.7075268 C 15.205475,7.0510639 14.399361,6.5197225 13.537624,6.2381181 12.954384,6.0475229 12.696441,6.0097172 11.983762,6.0103751 11.267902,6.011036 10.962048,6.0599151 10.357888,6.2702094 9.5334976,6.557161 8.7354164,7.0999092 8.2072956,7.732755 L 8.0068602,7.9729364 H 6.5041066 5.0013532 V 8.4925575 9.0121786 H 5.488498 5.9756428 V 10.993234 12.97429 H 5.488498 5.0013532 v 0.519621 0.519621 l 1.5020297,0.0012 1.5020298,0.0012 0.1136671,0.147171 c 0.2117664,0.274187 0.7380439,0.750045 1.0924411,0.987781 0.7083127,0.475149 1.5023391,0.759055 2.3516661,0.840843 0.394847,0.03802 0.430911,0.03812 0.836274,0.0022 z"
     id="path3" />
</svg>
