<?xml version="1.0" encoding="UTF-8" standalone="no"?>
<svg
   viewBox="0 0 24 24"
   width="24"
   height="24"
   version="1.1"
   id="svg2"
   sodipodi:docname="camera-off.svg"
   inkscape:version="1.3.2 (091e20ef0f, 2023-11-25, custom)"
   xmlns:inkscape="http://www.inkscape.org/namespaces/inkscape"
   xmlns:sodipodi="http://sodipodi.sourceforge.net/DTD/sodipodi-0.dtd"
   xmlns="http://www.w3.org/2000/svg"
   xmlns:svg="http://www.w3.org/2000/svg">
  <defs
     id="defs2" />
  <sodipodi:namedview
     id="namedview2"
     pagecolor="#505050"
     bordercolor="#ffffff"
     borderopacity="1"
     inkscape:showpageshadow="0"
     inkscape:pageopacity="0"
     inkscape:pagecheckerboard="1"
     inkscape:deskcolor="#d1d1d1"
     inkscape:zoom="30.791667"
     inkscape:cx="11.983762"
     inkscape:cy="11.983762"
     inkscape:window-width="2560"
     inkscape:window-height="1388"
     inkscape:window-x="2560"
     inkscape:window-y="28"
     inkscape:window-maximized="1"
     inkscape:current-layer="svg2" />
  <style
     type="text/css"
     id="current-color-scheme">.ColorScheme-Text{color:#232629;}.ColorScheme-NegativeText { color: #da4453; } </style>
  <g
     transform="translate(1,1)"
     id="g2">
    <path
       d="m11 4a6 6 0 0 0 -3.6894531 1.2929688l.703125.703125a5 5 0 0 1 2.9863281-.9960938 5 5 0 0 1 3.091797 1.0839844 5 5 0 0 1 .199219.1640625 5 5 0 0 1 .183593.171875 5 5 0 0 1 .183594.1875 5 5 0 0 1 .177735.2011719 5 5 0 0 1 .15625.1914062h1.197265 1.810547v1h-1v4h1v1h-1.8125-1.171875l1 1h1.984375c.554 0 1-.446 1-1v-6c0-.554-.446-1-1-1h-2.537109a6 6 0 0 0 -4.462891-2zm-7.0136719 2.0019531c-.5473276.0076274-.9863281.4488411-.9863281.9980469v6c0 .554.446 1 1 1h2.5371094a6 6 0 0 0 4.4628906 2 6 6 0 0 0 2.449219-.535156l-.763672-.763672a5 5 0 0 1 -1.685547.298828 5 5 0 0 1 -3.0917969-1.083984 5 5 0 0 1 -.1992187-.164063 5 5 0 0 1 -.1835938-.171875 5 5 0 0 1 -.1835937-.1875 5 5 0 0 1 -.1777344-.201172 5 5 0 0 1 -.15625-.191406h-1.1972656-1.8105469v-1h1v-4h-1v-1h.984375zm7.0136719 9.9980469c-.554 0-1 .446-1 1 0 .028.013325.052078.015625.080078-1.6215174.2312-3.015625.919922-3.015625.919922v1h8v-1s-1.394113-.688822-3.015625-.919922c.0023-.028.015625-.052078.015625-.080078 0-.554-.446-1-1-1zm0-9a3 3 0 0 0 -1.5488281.4355469l4.1132811 4.1132811a3 3 0 0 0 .435547-1.548828 3 3 0 0 0 -3-3zm-3 3.015625a3 3 0 0 0 2.984375 2.984375z"
       style="fill:currentColor;fill-opacity:1;stroke:none"
       class="ColorScheme-Text"
       id="path1" />
    <path
       d="m-.49999997 4.7426407h1v21.6274173h-1z"
       style="fill:currentColor;fill-opacity:1;stroke:none"
       class="ColorScheme-NegativeText"
       transform="matrix(.70710678 -.70710678 .70710678 .70710678 0 0)"
       id="path2" />
  </g>
  <path
     style="fill:#ffffff;stroke:#cccccc;stroke-width:0.0324763"
     d="m 8.028924,19.494812 0.00896,-0.494362 0.3247632,-0.142306 c 0.6676174,-0.292538 1.9238048,-0.663213 2.5006768,-0.737898 l 0.162381,-0.02102 0.004,-0.169641 c 0.0099,-0.419048 0.367071,-0.828581 0.770802,-0.883919 0.264885,-0.03631 0.193909,-0.06672 -0.199382,-0.08543 C 10.545794,16.910025 9.4365947,16.509842 8.4985117,15.840843 8.354095,15.737852 8.0807113,15.504388 7.8909928,15.322035 L 7.5460495,14.990483 6.1519151,14.981034 C 4.8135227,14.971961 4.7518715,14.968849 4.6099874,14.903199 4.3912282,14.80198 4.2370958,14.650803 4.1260135,14.428508 l -0.09895,-0.198016 v -3.208751 c 0,-3.1227365 0.00173,-3.2133751 0.064561,-3.3813033 C 4.1615051,7.4536644 4.3861659,7.2078971 4.572788,7.1140696 4.6317998,7.0844004 4.7487145,7.0524721 4.8325986,7.0431179 L 4.985115,7.0261101 5.4556016,7.4995233 5.9260881,7.9729364 H 5.4637206 5.0013532 V 8.4925575 9.0121786 H 5.488498 5.9756428 V 10.993234 12.97429 H 5.488498 5.0013532 v 0.519621 0.519621 l 1.5020297,0.0012 1.5020298,0.0012 0.1136671,0.147171 c 0.2117664,0.274187 0.7380439,0.750045 1.0924411,0.987781 1.2481091,0.837254 2.7120531,1.069452 4.1637291,0.660415 l 0.303532,-0.08553 0.37045,0.369399 0.370451,0.3694 -0.273741,0.105424 c -0.61274,0.235982 -1.380244,0.398803 -1.879929,0.398815 -0.274754,8e-6 -0.312128,0.04313 -0.06655,0.07679 0.403148,0.05526 0.76081,0.464819 0.770802,0.882651 l 0.004,0.168373 0.25981,0.0398 c 0.626563,0.09599 1.73844,0.430985 2.419486,0.728969 l 0.308525,0.134992 0.009,0.494362 0.009,0.494363 H 12 8.0199592 Z"
     id="path3" />
  <path
     style="fill:#ffffff;stroke:#cccccc;stroke-width:0.0324763"
     d="M 12.520485,10.474477 10.476057,8.4298557 10.750884,8.3020793 c 0.667688,-0.3104315 1.394404,-0.3667 2.090817,-0.161889 0.776709,0.2284253 1.45588,0.7950314 1.819322,1.5177882 0.202796,0.4032895 0.284057,0.7214625 0.302682,1.1851395 0.02366,0.589107 -0.06269,1.011555 -0.304461,1.489503 l -0.09433,0.186478 z"
     id="path4" />
  <path
     style="fill:#ffffff;stroke:#cccccc;stroke-width:0.0324763"
     d="M 11.518043,13.947032 C 10.501211,13.776366 9.6097025,13.056415 9.2276965,12.097429 9.1145447,11.813373 9.0196022,11.376391 9.0343524,11.207545 l 0.010302,-0.117933 1.4450586,1.445722 1.44506,1.445721 -0.129769,-0.0038 c -0.07137,-0.0021 -0.200505,-0.01569 -0.286962,-0.0302 z"
     id="path5" />
  <path
     style="fill:#ffffff;stroke:#cccccc;stroke-width:0.0324763"
     d="m 16.547091,14.501846 -0.486739,-0.488314 h 1.469147 1.469148 V 13.493911 12.97429 H 18.511502 18.024357 V 10.993234 9.0121786 h 0.487145 0.487145 V 8.4925575 7.9729364 H 17.496272 15.993896 L 15.766907,7.7075268 C 15.070329,6.8930437 14.019899,6.2912006 12.904336,6.0674198 12.462505,5.9787889 11.462232,5.9866765 11.022331,6.0822602 10.387158,6.2202736 9.7116934,6.4987383 9.2413803,6.8164684 L 9.0159135,6.9687874 8.6796438,6.6345967 8.3433742,6.300406 8.4504422,6.2089526 C 8.6214807,6.0628581 9.1146768,5.7664976 9.4668471,5.598197 9.8897692,5.3960844 10.371673,5.2371223 10.895805,5.1268365 c 0.379645,-0.079883 0.489285,-0.088932 1.087957,-0.089794 0.496778,-7.147e-4 0.744075,0.013409 0.974289,0.055642 1.267338,0.232498 2.303524,0.7596798 3.217579,1.6370124 l 0.314043,0.3014255 1.376273,3.173e-4 1.376273,3.173e-4 0.167932,0.078189 c 0.222765,0.1037196 0.414522,0.3067741 0.49642,0.5256665 0.06519,0.1742411 0.06637,0.2341243 0.06637,3.3861275 v 3.208751 l -0.09895,0.198016 c -0.111083,0.222295 -0.265215,0.373472 -0.483974,0.474691 -0.139668,0.06462 -0.208504,0.06889 -1.251989,0.07767 l -1.104195,0.0093 z"
     id="path6" />
</svg>
