<?xml version="1.0" encoding="UTF-8" standalone="no"?>
<svg
   viewBox="0 0 24 24"
   width="24"
   height="24"
   version="1.1"
   id="svg2"
   sodipodi:docname="disk-quota-low.svg"
   inkscape:version="1.3.2 (091e20ef0f, 2023-11-25, custom)"
   xmlns:inkscape="http://www.inkscape.org/namespaces/inkscape"
   xmlns:sodipodi="http://sodipodi.sourceforge.net/DTD/sodipodi-0.dtd"
   xmlns="http://www.w3.org/2000/svg"
   xmlns:svg="http://www.w3.org/2000/svg">
  <sodipodi:namedview
     id="namedview2"
     pagecolor="#505050"
     bordercolor="#ffffff"
     borderopacity="1"
     inkscape:showpageshadow="0"
     inkscape:pageopacity="0"
     inkscape:pagecheckerboard="1"
     inkscape:deskcolor="#d1d1d1"
     inkscape:zoom="30.791667"
     inkscape:cx="11.983762"
     inkscape:cy="11.983762"
     inkscape:window-width="2560"
     inkscape:window-height="1388"
     inkscape:window-x="2560"
     inkscape:window-y="28"
     inkscape:window-maximized="1"
     inkscape:current-layer="svg2" />
  <defs
     id="defs1">
    <style
       type="text/css"
       id="current-color-scheme">.ColorScheme-Text{color:#232629;}.ColorScheme-NeutralText { color: #f67400; } </style>
  </defs>
  <g
     transform="translate(1,1)"
     id="g2">
    <path
       style="fill:currentColor;fill-opacity:1;stroke:none"
       d="m 16,12 c -1.656854,0 -3,0.447715 -3,1 v 5 c 0,0.552285 1.343146,1 3,1 1.656854,0 3,-0.447715 3,-1 v -5 c 0,-0.552285 -1.343146,-1 -3,-1 z m -0.1,1 c 0.03333,-1.85e-4 0.06667,-1.85e-4 0.1,0 0.739186,8.7e-4 1.451386,0.09268 2,0.257812 V 13.74 c -0.547637,0.16593 -1.259945,0.25853 -2,0.26 -0.756362,-0.01228 -1.470815,-0.119444 -2,-0.3 v -0.5 c 0.546482,-0.136873 1.216806,-0.207434 1.9,-0.2 z M 14,14.74 c 0.547637,0.16593 1.259945,0.25853 2,0.26 0.740055,-0.0015 1.452363,-0.09407 2,-0.26 v 1 c -0.547637,0.16593 -1.259945,0.25853 -2,0.26 -0.756362,-0.01228 -1.470815,-0.119444 -2,-0.3 z"
       class="ColorScheme-NeutralText"
       id="path1" />
    <path
       style="fill:currentColor;fill-opacity:1;stroke:none"
       d="m 4,3 v 16 h 8 V 16 H 7 L 5,14 V 11.9 C 5.6,11.7 6,11.1 6,10.5 6,9.9 5.6,9.3 5,9.1 V 7 C 5,5.3 6.3,4 8,4 h 4 c 1.66,0 3,1.34 3,3 V 9.1 C 14.4,9.3 14,9.9 14,10.5 c 6.76e-4,0.2 0,0.3 0.1,0.5 H 16 V 3 Z m 2,14 h 5 v 1 H 6 Z"
       class="ColorScheme-Text"
       id="path2" />
  </g>
  <path
     style="fill:#ffffff;stroke:#cccccc;stroke-width:0.0324763"
     d="M 5.0013532,12 V 4.0108254 h 5.9918808 5.991881 V 8.0054127 12 h -0.938636 -0.938637 l -0.03488,-0.100072 c -0.104766,-0.300533 -0.06729,-0.68797 0.100258,-1.036599 0.124857,-0.259792 0.429102,-0.568799 0.669873,-0.680358 l 0.171679,-0.07955 -0.01166,-1.3006979 C 15.992151,7.580591 15.987109,7.4863375 15.919616,7.2422192 15.830473,6.9197953 15.630855,6.4974913 15.444828,6.2377794 15.281828,6.0102157 14.927229,5.6616477 14.703959,5.5095129 14.474167,5.3529333 14.046959,5.1575723 13.753721,5.0749712 13.494505,5.0019534 13.488232,5.0017856 11.009472,5.0015697 L 8.5250338,5.0013532 8.232747,5.077922 C 7.1312976,5.366463 6.3568254,6.1489891 6.0680296,7.2651511 6.003916,7.5129425 5.9972269,7.637203 5.9844752,8.8173207 l -0.013861,1.2828143 0.1721951,0.08101 c 0.3705696,0.174338 0.7106456,0.600069 0.8043535,1.006945 0.1450375,0.629747 -0.2027202,1.347104 -0.7844427,1.618154 l -0.1864007,0.08685 -3.381e-4,1.055677 -3.381e-4,1.055677 0.9988401,0.99845 0.9988402,0.99845 h 2.5086015 2.508603 v 1.493911 1.493911 H 8.9959405 5.0013532 Z m 7.0148848,6.495264 V 17.975643 H 9.4993234 6.9824087 v 0.519621 0.519621 h 2.5169147 2.5169146 z"
     id="path3" />
</svg>
