<?xml version="1.0" encoding="UTF-8" standalone="no"?>
<svg
   width="24"
   height="24"
   viewBox="0 0 24 24"
   version="1.1"
   id="svg1"
   sodipodi:docname="flightmode-on.svg"
   inkscape:version="1.3.2 (091e20ef0f, 2023-11-25, custom)"
   xmlns:inkscape="http://www.inkscape.org/namespaces/inkscape"
   xmlns:sodipodi="http://sodipodi.sourceforge.net/DTD/sodipodi-0.dtd"
   xmlns="http://www.w3.org/2000/svg"
   xmlns:svg="http://www.w3.org/2000/svg">
  <defs
     id="defs1" />
  <sodipodi:namedview
     id="namedview1"
     pagecolor="#505050"
     bordercolor="#ffffff"
     borderopacity="1"
     inkscape:showpageshadow="0"
     inkscape:pageopacity="0"
     inkscape:pagecheckerboard="1"
     inkscape:deskcolor="#d1d1d1"
     inkscape:zoom="30.791667"
     inkscape:cx="11.983762"
     inkscape:cy="11.983762"
     inkscape:window-width="2560"
     inkscape:window-height="1388"
     inkscape:window-x="2560"
     inkscape:window-y="28"
     inkscape:window-maximized="1"
     inkscape:current-layer="svg1" />
  <style
     type="text/css"
     id="current-color-scheme">.ColorScheme-Text{color:#31363b;}.ColorScheme-Background{color:#eff0f1;}.ColorScheme-Highlight{color:#3498db;}.ColorScheme-ViewText{color:#31363b;}.ColorScheme-ViewBackground{color:#fcfcfc;}.ColorScheme-ViewHover{color:#93cee9;}.ColorScheme-ViewFocus{color:#3daee9;}.ColorScheme-ButtonText{color:#31363b;}.ColorScheme-ButtonBackground{color:#eff0f1;}.ColorScheme-ButtonHover{color:#93cee9;}.ColorScheme-ButtonFocus{color:#3daee9;}.ColorScheme-NegativeText { color: #e74c3c; } </style>
  <g
     transform="translate(1,1)"
     id="g1">
    <g
       transform="translate(-21,0) translate(66,1.33227e-15)"
       id="flightmode-on">
      <rect
         style="opacity:1;fill:none;fill-opacity:1;stroke:none"
         id="rect4528"
         width="22"
         height="22"
         x="-45"
         y="-1.3322676e-15" />
      <path
         class="ColorScheme-Text"
         id="path4467"
         transform="translate(21,0)"
         d="M -58 3 C -60.761424 3 -63 5.2385763 -63 8 L -62 8 C -62 5.790861 -60.209139 4 -58 4 L -58 3 z M -55 3 C -55 3 -56 3 -56 6 L -56 8.5 L -57.099609 9.0507812 L -57.099609 9 L -57.900391 9 L -57.900391 9.3007812 L -58 9.3007812 L -58 9.5 L -60 10.5 L -60 10 L -60.099609 10 L -60.099609 9.6992188 L -60.900391 9.6992188 L -60.900391 10 L -61 10 L -61 11 L -63 12 L -63 13 L -60.808594 12.726562 L -60.699219 13 L -60.550781 13 L -60.158203 12.644531 L -57.40625 12.300781 L -57.300781 12.300781 L -57.294922 12.287109 L -56 12.125 L -56 15 C -56 15.487991 -55.75948 15.971967 -55.515625 16.34375 L -58 18 L -58 19 L -55 18 L -52 19 L -52 18 L -54.484375 16.34375 C -54.24052 15.971967 -54 15.487991 -54 15 L -54 12.125 L -52.705078 12.287109 L -52.699219 12.300781 L -52.59375 12.300781 L -49.841797 12.644531 L -49.699219 13 L -49.300781 13 L -49.191406 12.726562 L -47 13 L -47 12 L -49 11 L -49 10 L -49.099609 10 L -49.099609 9.6992188 L -49.900391 9.6992188 L -49.900391 10 L -50 10 L -50 10.5 L -52 9.5 L -52 9.3007812 L -52.099609 9.3007812 L -52.099609 9 L -52.900391 9 L -52.900391 9.0507812 L -54 8.5 L -54 6 C -54 3 -55 3 -55 3 z M -58 5 C -59.656854 5 -61 6.3431458 -61 8 L -60 8 C -60 6.8954305 -59.104569 6 -58 6 L -58 5 z M -58 7 C -58 7 -59 7 -59 8 L -58 8 L -58 7 z "
         style="fill:currentColor;fill-opacity:1;fill-rule:evenodd;stroke:none;stroke-width:1px;stroke-linecap:butt;stroke-linejoin:miter;stroke-opacity:1" />
    </g>
  </g>
  <path
     style="opacity:1;fill:#ffffff;stroke:#cccccc;stroke-width:0.0324763"
     d="m 9.0293271,19.477673 9.106e-4,-0.479026 1.2328573,-0.81985 1.232857,-0.819849 -0.159532,-0.300584 c -0.322178,-0.607033 -0.307197,-0.497282 -0.31951,-2.340683 l -0.01081,-1.617907 -0.08762,0.01767 c -0.09088,0.01833 -0.424897,0.06093 -2.7182074,0.346678 l -1.3640054,0.169957 -0.1948579,0.173342 c -0.2392719,0.212853 -0.3148313,0.221414 -0.3859266,0.04373 -0.028588,-0.07145 -0.071683,-0.129905 -0.095766,-0.129905 -0.024084,0 -0.5028219,0.05842 -1.0638625,0.129834 -0.5610405,0.07141 -1.0310345,0.129867 -1.044431,0.129906 -0.013396,3.9e-5 -0.024357,-0.219176 -0.024357,-0.487144 V 13.006627 L 5.0175913,12.51168 6.0081191,12.016733 v -0.495511 c 0,-0.418804 0.00754,-0.495512 0.048714,-0.495512 0.036806,0 0.048714,-0.03969 0.048714,-0.162381 V 10.700947 H 6.495263 6.8849788 v 0.162382 c 0,0.122688 0.011908,0.162381 0.048714,0.162381 0.038972,0 0.048714,0.04871 0.048714,0.243573 0,0.133965 0.0074,0.243572 0.016441,0.243572 0.00904,0 0.4693945,-0.226568 1.0230041,-0.503484 0.984517,-0.492457 1.0065629,-0.505616 1.0065629,-0.600812 0,-0.06486 0.016249,-0.09733 0.048714,-0.09733 0.036204,0 0.048714,-0.03816 0.048714,-0.148597 v -0.148598 l 0.4303113,0.0076 0.4303112,0.0076 0.5084487,-0.2548376 0.50845,-0.2548368 0.0152,-1.7232536 c 0.01601,-1.8151641 0.03403,-2.0717618 0.187674,-2.6725521 0.07033,-0.2749889 0.213309,-0.6048822 0.34503,-0.796054 0.09723,-0.1411179 0.34671,-0.3168935 0.449766,-0.3168935 0.08258,0 0.27514,0.1236068 0.392394,0.2518798 0.122524,0.1340392 0.328421,0.5764451 0.400743,0.8610677 0.15263,0.6006676 0.170768,0.8596223 0.187203,2.6726433 l 0.01562,1.7233446 0.508267,0.2547458 0.508267,0.2547464 0.430311,-0.0076 0.430311,-0.0076 v 0.148598 c 0,0.110436 0.01251,0.148597 0.04871,0.148597 0.03247,0 0.04871,0.03247 0.04871,0.09733 0,0.0952 0.02205,0.108355 1.006563,0.600812 0.55361,0.276916 1.013961,0.503484 1.023004,0.503484 0.009,0 0.01644,-0.109607 0.01644,-0.243572 0,-0.194858 0.0097,-0.243573 0.04872,-0.243573 0.03681,0 0.04871,-0.03969 0.04871,-0.162381 v -0.162382 h 0.389716 0.389716 v 0.162382 c 0,0.122688 0.01191,0.162381 0.04871,0.162381 0.04117,0 0.04871,0.07671 0.04871,0.495512 v 0.495511 l 0.990528,0.494947 0.990527,0.494947 v 0.490069 0.490069 l -0.121786,-0.01907 c -0.20621,-0.03229 -1.94575,-0.246448 -2.00184,-0.246448 -0.0314,0 -0.07412,0.05326 -0.105368,0.131348 l -0.05256,0.131349 -0.195405,-0.0096 -0.195404,-0.0096 -0.06465,-0.1705 c -0.03556,-0.09378 -0.07867,-0.170501 -0.0958,-0.170501 -0.01713,0 -0.552252,-0.06533 -1.189155,-0.145187 -0.636904,-0.07985 -1.282229,-0.159723 -1.434056,-0.17749 -0.421896,-0.04937 -1.302505,-0.162173 -1.419158,-0.18179 l -0.103867,-0.01747 -0.0108,1.616853 c -0.01231,1.842197 0.0027,1.732629 -0.319506,2.339628 l -0.159532,0.300584 1.232857,0.819849 1.232857,0.81985 9.11e-4,0.479026 c 5e-4,0.263464 -0.01005,0.479025 -0.02344,0.479025 -0.01339,0 -0.682093,-0.219245 -1.485997,-0.487211 l -1.461643,-0.487212 -1.460823,0.487212 c -0.8034533,0.267966 -1.4719673,0.487211 -1.4855869,0.487211 -0.01362,0 -0.024353,-0.215561 -0.023853,-0.479025 z"
     id="path4" />
  <path
     style="opacity:1;fill:#ffffff;stroke:#cccccc;stroke-width:0.0324763"
     d="m 4.0270636,8.7555952 c 0,-0.1232586 0.02841,-0.3902861 0.063133,-0.5933943 C 4.3721874,6.5127308 5.4882337,5.0877501 7.0129347,4.4304156 7.5431896,4.2018102 8.0794194,4.0727657 8.6955345,4.0254956 l 0.300406,-0.023048 V 4.4937813 4.985115 L 8.8579161,4.9853065 C 8.424696,4.9859074 7.6542794,5.1835566 7.2041736,5.4095717 6.6220004,5.7019029 6.0514287,6.2011353 5.6828151,6.7407131 5.2907452,7.3146261 5.0013532,8.1773219 5.0013532,8.7721939 V 8.9797023 H 4.5142084 4.0270636 Z"
     id="path5" />
  <path
     style="opacity:1;fill:#ffffff;stroke:#cccccc;stroke-width:0.0324763"
     d="M 6.0248289,8.744249 C 6.1288652,7.6930191 6.7450624,6.7929547 7.6806495,6.3256315 8.0383215,6.1469753 8.5099811,6.0243572 8.8395234,6.0243572 H 8.9959405 V 6.511502 6.9986468 L 8.8579161,6.9991269 C 8.6394025,6.9998868 8.324003,7.0874158 8.0737141,7.2167569 7.7470138,7.385585 7.3618386,7.7775945 7.2030774,8.1028417 7.0961169,8.3219671 6.9824087,8.7396289 6.9824087,8.9133805 c 0,0.06385 -0.018276,0.066322 -0.4904409,0.066322 H 6.0015269 Z"
     id="path6" />
  <path
     style="opacity:1;fill:#ffffff;stroke:#cccccc;stroke-width:0.0324763"
     d="M 8.0315722,8.8195418 C 8.0807817,8.4040445 8.390044,8.1122441 8.8741543,8.0245344 L 8.9959405,8.0024695 V 8.4910859 8.9797023 H 8.504272 8.0126036 Z"
     id="path7" />
</svg>
