<?xml version="1.0" encoding="UTF-8" standalone="no"?>
<svg
   viewBox="0 0 24 24"
   width="24"
   height="24"
   version="1.1"
   id="svg2"
   sodipodi:docname="input-touchpad-off.svg"
   inkscape:version="1.3.2 (091e20ef0f, 2023-11-25, custom)"
   xmlns:inkscape="http://www.inkscape.org/namespaces/inkscape"
   xmlns:sodipodi="http://sodipodi.sourceforge.net/DTD/sodipodi-0.dtd"
   xmlns="http://www.w3.org/2000/svg"
   xmlns:svg="http://www.w3.org/2000/svg">
  <defs
     id="defs2" />
  <sodipodi:namedview
     id="namedview2"
     pagecolor="#505050"
     bordercolor="#ffffff"
     borderopacity="1"
     inkscape:showpageshadow="0"
     inkscape:pageopacity="0"
     inkscape:pagecheckerboard="1"
     inkscape:deskcolor="#d1d1d1"
     inkscape:zoom="30.791667"
     inkscape:cx="11.983762"
     inkscape:cy="11.983762"
     inkscape:window-width="2560"
     inkscape:window-height="1388"
     inkscape:window-x="2560"
     inkscape:window-y="28"
     inkscape:window-maximized="1"
     inkscape:current-layer="svg2" />
  <style
     type="text/css"
     id="current-color-scheme">.ColorScheme-Text{color:#232629;}.ColorScheme-NegativeText { color: #da4453; } </style>
  <g
     transform="translate(1,1)"
     id="g2">
    <path
       d="m5.0175781 3 1 1h11.9824219v11.984375l1 1v-13.984375zm-2.0175781 2.015625v13.984375h13.984375l-1-1h-11.984375v-11.984375zm2 9.984375v2h5v-2zm7 0v2h2.984375l-2-2z"
       style="fill:currentColor;fill-opacity:1;stroke:none"
       class="ColorScheme-Text"
       id="path1" />
    <path
       d="m-.49999994 4.7426407h1v21.6274173h-1z"
       style="fill:currentColor;fill-opacity:1;stroke:none"
       class="ColorScheme-NegativeText"
       transform="matrix(.70710678 -.70710678 .70710678 .70710678 0 0)"
       id="path2" />
  </g>
  <path
     style="fill:#ffffff;stroke:#cccccc;stroke-width:0.0324763"
     d="m 6.0081191,17.001353 v -0.974289 h 2.4844384 2.4844385 v 0.974289 0.97429 H 8.4925575 6.0081191 Z"
     id="path3" />
  <path
     style="fill:#ffffff;stroke:#cccccc;stroke-width:0.0324763"
     d="M 4.0270636,13.031529 V 6.0738839 l 0.4871448,0.4863326 0.4871448,0.4863327 v 5.9841678 5.984168 h 5.9841678 5.984168 l 0.486333,0.487145 0.486332,0.487145 H 10.984709 4.0270636 Z"
     id="path4" />
  <path
     style="fill:#ffffff;stroke:#cccccc;stroke-width:0.0324763"
     d="m 13.023004,17.001353 v -0.974289 h 0.479229 0.479228 l 0.973884,0.974289 0.973884,0.97429 h -1.453113 -1.453112 z"
     id="path5" />
  <path
     style="fill:#ffffff;stroke:#cccccc;stroke-width:0.0324763"
     d="m 19.477267,17.431271 -0.47862,-0.479419 V 10.968484 4.985115 H 13.014479 7.030311 L 6.5439783,4.4979702 6.0576457,4.0108254 h 6.9576453 6.957645 v 6.9499326 c 0,3.822463 -0.0038,6.949932 -0.0085,6.949932 -0.0047,0 -0.223904,-0.215738 -0.487144,-0.479419 z"
     id="path6" />
</svg>
