<?xml version="1.0" encoding="UTF-8" standalone="no"?>
<svg
   width="24"
   height="24"
   viewBox="0 0 24 24"
   version="1.1"
   id="svg2"
   sodipodi:docname="input-keyboard-virtual-on.svg"
   inkscape:version="1.3.2 (091e20ef0f, 2023-11-25, custom)"
   xmlns:inkscape="http://www.inkscape.org/namespaces/inkscape"
   xmlns:sodipodi="http://sodipodi.sourceforge.net/DTD/sodipodi-0.dtd"
   xmlns="http://www.w3.org/2000/svg"
   xmlns:svg="http://www.w3.org/2000/svg">
  <defs
     id="defs2" />
  <sodipodi:namedview
     id="namedview2"
     pagecolor="#505050"
     bordercolor="#ffffff"
     borderopacity="1"
     inkscape:showpageshadow="0"
     inkscape:pageopacity="0"
     inkscape:pagecheckerboard="1"
     inkscape:deskcolor="#d1d1d1"
     inkscape:zoom="30.791667"
     inkscape:cx="11.983762"
     inkscape:cy="11.983762"
     inkscape:window-width="2560"
     inkscape:window-height="1388"
     inkscape:window-x="2560"
     inkscape:window-y="28"
     inkscape:window-maximized="1"
     inkscape:current-layer="svg2" />
  <style
     type="text/css"
     id="current-color-scheme">.ColorScheme-Text{color:#31363b;}.ColorScheme-Background{color:#eff0f1;}.ColorScheme-Highlight{color:#3daee9;}.ColorScheme-ViewText{color:#31363b;}.ColorScheme-ViewBackground{color:#fcfcfc;}.ColorScheme-ViewHover{color:#93cee9;}.ColorScheme-ViewFocus{color:#3daee9;}.ColorScheme-ButtonText{color:#31363b;}.ColorScheme-ButtonBackground{color:#eff0f1;}.ColorScheme-ButtonHover{color:#93cee9;}.ColorScheme-ButtonFocus { color: #3daee9; } </style>
  <g
     transform="translate(1,1)"
     id="g2">
    <g
       id="22-22-input-keyboard-virtual-on"
       transform="translate(16,42.000007) translate(-16,-42)">
      <path
         class="ColorScheme-Text"
         transform="translate(0,-1030.3622)"
         d="m2 1038.3622v11h18v-11zm1 1h16v1h-16zm0 2h16v7h-16zm1 1v1h2v-1zm3 0v1h2v-1zm3 0v1h2v-1zm3 0v1h2v-1zm3 0v1h2v-1zm-12 2v1h2v-1zm3 0v1h2v-1zm3 0v1h2v-1zm3 0v1h2v-1zm3 0v1h2v-1zm-12 2v1h2v-1zm3 0v1h8v-1zm9 0v1h2v-1z"
         fill="currentColor"
         id="path1" />
      <path
         d="M 4.5,2 A 2.4999997,2.4999855 0 0 0 2,4.5 2.4999997,2.4999855 0 0 0 4.5,7 2.4999997,2.4999855 0 0 0 7,4.5 2.4999997,2.4999855 0 0 0 4.5,2 Z"
         fill="#11d116"
         id="path2" />
      <rect
         width="22"
         height="22"
         fill="none"
         id="rect2" />
    </g>
  </g>
  <path
     style="fill:#ffffff;stroke:#cccccc;stroke-width:0.0324763"
     d="M 3.0202977,14.500677 V 9.0121786 H 12 20.979702 v 5.4884984 5.488498 H 12 3.0202977 Z M 20.005413,15.507442 V 12 H 12 3.9945873 v 3.507442 3.507443 H 12 20.005413 Z m 0,-5.001353 V 9.9864682 H 12 3.9945873 V 10.506089 11.02571 H 12 20.005413 Z"
     id="path3" />
  <path
     style="fill:#ffffff;stroke:#cccccc;stroke-width:0.0324763"
     d="m 17.017591,13.493911 v -0.487145 h 0.990528 0.990528 v 0.487145 0.487144 h -0.990528 -0.990528 z"
     id="path4" />
  <path
     style="fill:#ffffff;stroke:#cccccc;stroke-width:0.0324763"
     d="m 17.017591,17.488498 v -0.487145 h 0.990528 0.990528 v 0.487145 0.487145 h -0.990528 -0.990528 z"
     id="path5" />
  <path
     style="fill:#ffffff;stroke:#cccccc;stroke-width:0.0324763"
     d="m 13.997294,15.507442 v -0.487144 h 0.990527 0.990528 v 0.487144 0.487145 h -0.990528 -0.990527 z"
     id="path6" />
  <path
     style="fill:#ffffff;stroke:#cccccc;stroke-width:0.0324763"
     d="m 17.017591,15.507442 v -0.487144 h 0.990528 0.990528 v 0.487144 0.487145 h -0.990528 -0.990528 z"
     id="path7" />
  <path
     style="fill:#ffffff;stroke:#cccccc;stroke-width:0.0324763"
     d="M 8.0216509,17.488498 V 17.001353 H 12 15.978349 v 0.487145 0.487145 H 12 8.0216509 Z"
     id="path8" />
  <path
     style="fill:#ffffff;stroke:#cccccc;stroke-width:0.0324763"
     d="M 11.009472,15.507442 V 15.020298 H 12 12.990528 v 0.487144 0.487145 H 12 11.009472 Z"
     id="path9" />
  <path
     style="fill:#ffffff;stroke:#cccccc;stroke-width:0.0324763"
     d="M 11.009472,13.493911 V 13.006766 H 12 12.990528 v 0.487145 0.487144 H 12 11.009472 Z"
     id="path10" />
  <path
     style="fill:#ffffff;stroke:#cccccc;stroke-width:0.0324763"
     d="m 13.997294,13.493911 v -0.487145 h 0.990527 0.990528 v 0.487145 0.487144 h -0.990528 -0.990527 z"
     id="path11" />
  <path
     style="fill:#ffffff;stroke:#cccccc;stroke-width:0.0324763"
     d="m 8.0216509,13.493911 v -0.487145 h 0.9905277 0.9905274 v 0.487145 0.487144 H 9.0121786 8.0216509 Z"
     id="path12" />
  <path
     style="fill:#ffffff;stroke:#cccccc;stroke-width:0.0324763"
     d="m 8.0216509,15.507442 v -0.487144 h 0.9905277 0.9905274 v 0.487144 0.487145 H 9.0121786 8.0216509 Z"
     id="path13" />
  <path
     style="fill:#ffffff;stroke:#cccccc;stroke-width:0.0324763"
     d="m 5.0013532,15.507442 v -0.487144 h 0.9905277 0.9905278 v 0.487144 0.487145 H 5.9918809 5.0013532 Z"
     id="path14" />
  <path
     style="fill:#ffffff;stroke:#cccccc;stroke-width:0.0324763"
     d="m 5.0013532,17.488498 v -0.487145 h 0.9905277 0.9905278 v 0.487145 0.487145 H 5.9918809 5.0013532 Z"
     id="path15" />
  <path
     style="fill:#ffffff;stroke:#cccccc;stroke-width:0.0324763"
     d="m 5.0013532,13.493911 v -0.487145 h 0.9905277 0.9905278 v 0.487145 0.487144 H 5.9918809 5.0013532 Z"
     id="path16" />
</svg>
