<?xml version="1.0" encoding="UTF-8" standalone="no"?>
<svg
   width="24"
   height="24"
   viewBox="0 0 24 24"
   version="1.1"
   id="svg1"
   sodipodi:docname="input-num-on.svg"
   inkscape:version="1.3.2 (091e20ef0f, 2023-11-25, custom)"
   xmlns:inkscape="http://www.inkscape.org/namespaces/inkscape"
   xmlns:sodipodi="http://sodipodi.sourceforge.net/DTD/sodipodi-0.dtd"
   xmlns="http://www.w3.org/2000/svg"
   xmlns:svg="http://www.w3.org/2000/svg">
  <defs
     id="defs1" />
  <sodipodi:namedview
     id="namedview1"
     pagecolor="#505050"
     bordercolor="#ffffff"
     borderopacity="1"
     inkscape:showpageshadow="0"
     inkscape:pageopacity="0"
     inkscape:pagecheckerboard="1"
     inkscape:deskcolor="#d1d1d1"
     inkscape:zoom="30.791667"
     inkscape:cx="11.983762"
     inkscape:cy="11.983762"
     inkscape:window-width="2560"
     inkscape:window-height="1388"
     inkscape:window-x="2560"
     inkscape:window-y="28"
     inkscape:window-maximized="1"
     inkscape:current-layer="svg1" />
  <style
     type="text/css"
     id="current-color-scheme">.ColorScheme-Text{color:#31363b;}.ColorScheme-Background{color:#eff0f1;}.ColorScheme-Highlight{color:#3daee9;}.ColorScheme-ViewText{color:#31363b;}.ColorScheme-ViewBackground{color:#fcfcfc;}.ColorScheme-ViewHover{color:#93cee9;}.ColorScheme-ViewFocus{color:#3daee9;}.ColorScheme-ButtonText{color:#31363b;}.ColorScheme-ButtonBackground{color:#eff0f1;}.ColorScheme-ButtonHover{color:#93cee9;}.ColorScheme-ButtonFocus { color: #3daee9; } </style>
  <g
     transform="translate(1,1)"
     id="g1">
    <g
       id="22-22-input-num-on"
       transform="translate(-8,84.999986) translate(-16,-202)">
      <rect
         x="24"
         y="117"
         width="22"
         height="22"
         opacity=".00100002"
         id="rect1" />
      <path
         class="ColorScheme-Text"
         d="m28 120v14l7 2 7-2v-14zm1 1h12v10h-12zm6 2v1h-1v1h1v3h-1v1h3v-1h-1v-5zm-6 9h12v1h-12z"
         fill="currentColor"
         id="path1" />
    </g>
  </g>
  <path
     style="fill:#ffffff;stroke:#cccccc;stroke-width:0.0324763"
     d="M 8.4925575,18.986024 5.0175913,17.989556 5.0093981,11.000191 5.0012049,4.0108254 H 12 18.998795 l -0.0082,6.9893326 -0.0082,6.989332 -3.491205,0.998761 c -1.920162,0.549319 -3.498511,0.997744 -3.507442,0.996501 -0.0089,-0.0012 -1.579973,-0.450671 -3.4912045,-0.998728 z M 18.024357,16.49797 V 15.994587 H 12 5.9756428 v 0.503383 0.503383 H 12 18.024357 Z m 0,-6.495264 V 4.985115 H 12 5.9756428 v 5.017591 5.017592 H 12 18.024357 Z"
     id="path2" />
  <path
     style="fill:#ffffff;stroke:#cccccc;stroke-width:0.0324763"
     d="M 11.009472,12.487145 V 12 h 0.503383 0.503383 V 10.489851 8.9797023 H 11.512855 11.009472 V 8.4925575 8.0054127 h 0.503383 0.503383 V 7.5020298 6.9986468 h 0.487145 0.487145 V 9.4993234 12 h 0.503383 0.503383 v 0.487145 0.487145 h -1.493911 -1.493911 z"
     id="path3" />
</svg>
