<?xml version="1.0" encoding="UTF-8" standalone="no"?>
<svg
   width="24"
   height="24"
   viewBox="0 0 24 24"
   version="1.1"
   id="svg1"
   sodipodi:docname="input-keyboard-battery.svg"
   inkscape:version="1.3.2 (091e20ef0f, 2023-11-25, custom)"
   xmlns:inkscape="http://www.inkscape.org/namespaces/inkscape"
   xmlns:sodipodi="http://sodipodi.sourceforge.net/DTD/sodipodi-0.dtd"
   xmlns="http://www.w3.org/2000/svg"
   xmlns:svg="http://www.w3.org/2000/svg">
  <defs
     id="defs1" />
  <sodipodi:namedview
     id="namedview1"
     pagecolor="#505050"
     bordercolor="#ffffff"
     borderopacity="1"
     inkscape:showpageshadow="0"
     inkscape:pageopacity="0"
     inkscape:pagecheckerboard="1"
     inkscape:deskcolor="#d1d1d1"
     inkscape:zoom="30.791667"
     inkscape:cx="11.983762"
     inkscape:cy="11.983762"
     inkscape:window-width="2560"
     inkscape:window-height="1388"
     inkscape:window-x="2560"
     inkscape:window-y="28"
     inkscape:window-maximized="1"
     inkscape:current-layer="svg1" />
  <style
     type="text/css"
     id="current-color-scheme">.ColorScheme-Text{color:#31363b;}.ColorScheme-Background{color:#eff0f1;}.ColorScheme-Highlight{color:#3daee9;}.ColorScheme-ViewText{color:#31363b;}.ColorScheme-ViewBackground{color:#fcfcfc;}.ColorScheme-ViewHover{color:#93cee9;}.ColorScheme-ViewFocus{color:#3daee9;}.ColorScheme-ButtonText{color:#31363b;}.ColorScheme-ButtonBackground{color:#eff0f1;}.ColorScheme-ButtonHover{color:#93cee9;}.ColorScheme-ButtonFocus { color: #3daee9; } </style>
  <g
     transform="translate(1,1)"
     id="g1">
    <g
       id="22-22-input-keyboard-battery"
       transform="translate(-332,-396.36218) translate(-16,-138)">
      <rect
         x="348"
         y="534.36218"
         width="22"
         height="22"
         ry="0"
         fill="none"
         id="rect1" />
      <path
         class="ColorScheme-Text"
         transform="translate(332,396.36218)"
         d="m20 141v14l7 2 7-2v-5h-1v2h-12v-10h8v-1zm12 0-2 5h2v3l2-5h-2zm-5.5625 3-2.4375 6h1.074219l0.40625-1h3.039062l0.40625 1h1.074219l-2.439453-6h-0.537109l-0.023438 0.00977-0.023438-0.00977zm0.5625 1.25781 1.113281 2.74219h-2.226562zm-6 7.74219h12v1h-12z"
         fill="currentColor"
         id="path1" />
    </g>
  </g>
  <path
     style="fill:#ffffff;stroke:#cccccc;stroke-width:0.0324763"
     d="m 9.0965014,12.803962 c 0.1809209,-0.459 2.3136806,-5.6990008 2.3392766,-5.747395 0.0263,-0.049726 0.08807,-0.054987 0.571868,-0.048714 l 0.542382,0.00703 0.621492,1.526387 c 0.611959,1.502973 1.756919,4.312345 1.790468,4.393245 0.0136,0.03279 -0.09281,0.03956 -0.510697,0.03248 L 13.923418,12.958051 13.728784,12.479026 13.53415,12 h -1.533966 -1.533966 l -0.15488,0.381597 c -0.08518,0.209878 -0.174114,0.429093 -0.197622,0.487145 l -0.04274,0.105548 H 9.550169 9.0293646 Z m 4.0238216,-1.802609 c -3.08e-4,-0.06853 -1.094588,-2.7088419 -1.121389,-2.7057252 -0.02705,0.00315 -1.116975,2.6392172 -1.118726,2.7057252 -3.52e-4,0.0134 0.503554,0.02436 1.119792,0.02436 0.616238,0 1.120384,-0.01096 1.120323,-0.02436 z"
     id="path2" />
  <path
     style="fill:#ffffff;stroke:#cccccc;stroke-width:0.0324763"
     d="M 17.017591,10.430311 V 8.9797023 h -0.992716 c -0.930721,0 -0.99158,-0.00355 -0.974531,-0.056834 0.01,-0.031258 0.448745,-1.1309878 0.974985,-2.443843 l 0.956801,-2.3870095 0.0015,1.4533153 0.0015,1.4533153 h 0.994316 c 0.931335,0 0.993314,0.0036 0.978515,0.056834 -0.02189,0.078727 -1.910792,4.7951666 -1.927141,4.8119076 -0.0073,0.0074 -0.01321,-0.639242 -0.01321,-1.437077 z"
     id="path3" />
  <path
     style="fill:#ffffff;stroke:#cccccc;stroke-width:0.0324763"
     d="M 8.4925575,18.986024 5.0175913,17.989556 5.0093981,11.000191 5.0012049,4.0108254 H 9.4992494 13.997294 V 4.4979702 4.985115 H 9.9864682 5.9756428 v 5.017591 5.017592 H 12 18.024357 v -1.006766 -1.006766 h 0.487347 0.487346 l -0.0083,2.491364 -0.0083,2.491364 -3.491205,0.998759 c -1.920162,0.549318 -3.498511,0.997742 -3.507442,0.996499 -0.0089,-0.0012 -1.579973,-0.450671 -3.4912045,-0.998728 z M 18.024357,16.49797 V 15.994587 H 12 5.9756428 v 0.503383 0.503383 H 12 18.024357 Z"
     id="path4" />
</svg>
