<?xml version="1.0" encoding="UTF-8" standalone="no"?>
<svg
   width="24"
   height="24"
   viewBox="0 0 24 24"
   version="1.1"
   id="svg1"
   sodipodi:docname="input-keyboard-brightness.svg"
   inkscape:version="1.3.2 (091e20ef0f, 2023-11-25, custom)"
   xmlns:inkscape="http://www.inkscape.org/namespaces/inkscape"
   xmlns:sodipodi="http://sodipodi.sourceforge.net/DTD/sodipodi-0.dtd"
   xmlns="http://www.w3.org/2000/svg"
   xmlns:svg="http://www.w3.org/2000/svg">
  <defs
     id="defs1" />
  <sodipodi:namedview
     id="namedview1"
     pagecolor="#505050"
     bordercolor="#ffffff"
     borderopacity="1"
     inkscape:showpageshadow="0"
     inkscape:pageopacity="0"
     inkscape:pagecheckerboard="1"
     inkscape:deskcolor="#d1d1d1"
     inkscape:zoom="30.791667"
     inkscape:cx="11.983762"
     inkscape:cy="11.983762"
     inkscape:window-width="2560"
     inkscape:window-height="1388"
     inkscape:window-x="2560"
     inkscape:window-y="28"
     inkscape:window-maximized="1"
     inkscape:current-layer="svg1" />
  <style
     type="text/css"
     id="current-color-scheme">.ColorScheme-Text{color:#31363b;}.ColorScheme-Background{color:#eff0f1;}.ColorScheme-Highlight{color:#3daee9;}.ColorScheme-ViewText{color:#31363b;}.ColorScheme-ViewBackground{color:#fcfcfc;}.ColorScheme-ViewHover{color:#93cee9;}.ColorScheme-ViewFocus{color:#3daee9;}.ColorScheme-ButtonText{color:#31363b;}.ColorScheme-ButtonBackground{color:#eff0f1;}.ColorScheme-ButtonHover{color:#93cee9;}.ColorScheme-ButtonFocus { color: #3daee9; } </style>
  <g
     transform="translate(1,1)"
     id="g1">
    <g
       id="22-22-input-keyboard-brightness"
       transform="translate(-354,-428.36218) translate(-16,-106)">
      <rect
         x="370"
         y="534.36218"
         width="22"
         height="22"
         ry="0"
         fill="none"
         id="rect1" />
      <path
         class="ColorScheme-Text"
         transform="translate(354,428.36218)"
         d="m20 109v14l7 2 7-2v-9h-1v6h-12v-10h8v-1zm12 0c-1.10457 0-2 0.89543-2 2s0.89543 2 2 2 2-0.89543 2-2-0.89543-2-2-2zm0 1v2c-0.55228 0-1-0.44771-1-1 0-0.55228 0.44772-1 1-1zm-5.5625 2-2.4375 6h1.074219l0.40625-1h3.039062l0.40625 1h1.074219l-2.439453-6h-0.537109l-0.023438 0.00977-0.023438-0.00977zm0.5625 1.25781 1.113281 2.74219h-2.226562zm-6 7.74219h12v1h-12z"
         fill="currentColor"
         id="path1" />
    </g>
  </g>
  <path
     style="fill:#ffffff;stroke:#cccccc;stroke-width:0.0324763"
     d="m 9.0965014,12.803962 c 0.1809209,-0.459 2.3136806,-5.6990008 2.3392766,-5.747395 0.0263,-0.049726 0.08807,-0.054987 0.571868,-0.048714 l 0.542382,0.00703 0.621492,1.526387 c 0.611959,1.502973 1.756919,4.312345 1.790468,4.393245 0.0136,0.03279 -0.09281,0.03956 -0.510697,0.03248 L 13.923418,12.958051 13.728784,12.479026 13.53415,12 h -1.533966 -1.533966 l -0.15488,0.381597 c -0.08518,0.209878 -0.174114,0.429093 -0.197622,0.487145 l -0.04274,0.105548 H 9.550169 9.0293646 Z m 4.0238216,-1.802609 c -3.08e-4,-0.06853 -1.094588,-2.7088419 -1.121389,-2.7057252 -0.02705,0.00315 -1.116975,2.6392172 -1.118726,2.7057252 -3.52e-4,0.0134 0.503554,0.02436 1.119792,0.02436 0.616238,0 1.120384,-0.01096 1.120323,-0.02436 z"
     id="path2" />
  <path
     style="fill:#ffffff;stroke:#cccccc;stroke-width:0.0324763"
     d="M 8.4925575,18.986024 5.0175913,17.989556 5.0093981,11.000191 5.0012049,4.0108254 H 9.4992494 13.997294 V 4.4979702 4.985115 H 9.9864682 5.9756428 v 5.017591 5.017592 H 12 18.024357 v -3.00406 -3.0040594 h 0.487259 0.487259 l -0.0082,4.4886564 -0.0082,4.488656 -3.491205,0.998761 c -1.920162,0.549318 -3.498511,0.997743 -3.507442,0.9965 -0.0089,-0.0012 -1.579973,-0.450671 -3.4912045,-0.998728 z M 18.024357,16.49797 V 15.994587 H 12 5.9756428 v 0.503383 0.503383 H 12 18.024357 Z"
     id="path3" />
  <path
     style="fill:#ffffff;stroke:#cccccc;stroke-width:0.0324763"
     d="M 16.49797,7.923007 C 15.796631,7.7289775 15.241012,7.1560478 15.066124,6.4465494 c -0.06194,-0.2512702 -0.05411,-0.7205398 0.01594,-0.9562328 0.111355,-0.3746414 0.247688,-0.6040703 0.52254,-0.8793607 0.268388,-0.2688162 0.502817,-0.4114056 0.867551,-0.5276793 0.265986,-0.084794 0.855469,-0.072364 1.130009,0.023827 0.330027,0.1156322 0.549295,0.2538567 0.796994,0.5024153 0.394585,0.3959542 0.578777,0.8485778 0.57576,1.414838 -0.0044,0.8232611 -0.507275,1.5350381 -1.30142,1.8420026 -0.181085,0.069996 -0.282691,0.085904 -0.607193,0.095063 -0.278395,0.00786 -0.440738,-0.00312 -0.568336,-0.038416 z M 17.017591,5.9918809 V 4.985115 h -0.0753 c -0.135759,0 -0.398663,0.094937 -0.533608,0.1926908 -0.276032,0.1999563 -0.457977,0.6038481 -0.415675,0.9227372 0.06394,0.4819854 0.471692,0.8864641 0.902793,0.8955399 l 0.121786,0.00256 z"
     id="path4" />
</svg>
