<?xml version="1.0" encoding="UTF-8" standalone="no"?>
<svg
   width="24"
   height="24"
   viewBox="0 0 24 24"
   version="1.1"
   id="svg1"
   sodipodi:docname="klipper-symbolic.svg"
   inkscape:version="1.3.2 (091e20ef0f, 2023-11-25, custom)"
   xmlns:inkscape="http://www.inkscape.org/namespaces/inkscape"
   xmlns:sodipodi="http://sodipodi.sourceforge.net/DTD/sodipodi-0.dtd"
   xmlns="http://www.w3.org/2000/svg"
   xmlns:svg="http://www.w3.org/2000/svg">
  <defs
     id="defs1" />
  <sodipodi:namedview
     id="namedview1"
     pagecolor="#505050"
     bordercolor="#ffffff"
     borderopacity="1"
     inkscape:showpageshadow="0"
     inkscape:pageopacity="0"
     inkscape:pagecheckerboard="1"
     inkscape:deskcolor="#d1d1d1"
     inkscape:zoom="30.791667"
     inkscape:cx="11.983762"
     inkscape:cy="11.983762"
     inkscape:window-width="2560"
     inkscape:window-height="1388"
     inkscape:window-x="2560"
     inkscape:window-y="28"
     inkscape:window-maximized="1"
     inkscape:current-layer="svg1" />
  <style
     type="text/css"
     id="current-color-scheme">.ColorScheme-Text{color:#31363b;}.ColorScheme-Background{color:#eff0f1;}.ColorScheme-Highlight{color:#3daee9;}.ColorScheme-ViewText{color:#31363b;}.ColorScheme-ViewBackground{color:#fcfcfc;}.ColorScheme-ViewHover{color:#93cee9;}.ColorScheme-ViewFocus{color:#3daee9;}.ColorScheme-ButtonText{color:#31363b;}.ColorScheme-ButtonBackground{color:#eff0f1;}.ColorScheme-ButtonHover{color:#93cee9;}.ColorScheme-ButtonFocus { color: #3daee9; } </style>
  <g
     transform="translate(1,1)"
     id="g1">
    <g
       id="22-22-klipper"
       transform="translate(49,4.999999) translate(-49,-5)">
      <path
         inkscape:connector-curvature="0"
         style="opacity:1;fill:currentColor;fill-opacity:1;stroke:none"
         d="M 7,3 7,5 5,5 4,5 4,19 5,19 18,19 18,18 18,5 17,5 15,5 15,3 7,3 Z M 5,6 6,6 6,8 16,8 16,6 17,6 17,18 5,18 5,6 Z m 2,3 0,1 8,0 0,-1 -8,0 z m 0,3 0,1 6,0 0,-1 -6,0 z m 0,3 0,1 3,0 0,-1 -3,0 z"
         id="path4146"
         class="ColorScheme-Text" />
      <rect
         style="opacity:1;fill:none;fill-opacity:1;stroke:none;stroke-width:0.1;stroke-linecap:square;stroke-linejoin:miter;stroke-miterlimit:4;stroke-dasharray:none;stroke-dashoffset:0;stroke-opacity:1"
         id="rect4148"
         width="22"
         height="22"
         x="0"
         y="0" />
    </g>
  </g>
  <path
     style="fill:#ffffff;stroke:#cccccc;stroke-width:0.0324763"
     d="M 5.0013532,13.006766 V 6.0243572 H 6.511502 8.0216509 V 5.0175913 4.0108254 H 12 15.978349 v 1.0067659 1.0067659 h 1.510149 1.510149 v 6.9824088 6.982409 H 12 5.0013532 Z m 13.0230038,0 V 6.9986468 H 17.504736 16.985115 V 7.9891746 8.9797023 H 12 7.014885 V 7.9891746 6.9986468 H 6.4952639 5.9756428 v 6.0081192 6.008119 H 12 18.024357 Z"
     id="path1" />
  <path
     style="fill:#ffffff;stroke:#cccccc;stroke-width:0.0324763"
     d="m 8.0216509,13.493911 v -0.487145 h 2.9878211 2.987822 v 0.487145 0.487144 H 11.009472 8.0216509 Z"
     id="path2" />
  <path
     style="fill:#ffffff;stroke:#cccccc;stroke-width:0.0324763"
     d="m 8.0216509,16.514208 v -0.487144 h 1.4776725 1.4776726 v 0.487144 0.487145 H 9.4993234 8.0216509 Z"
     id="path3" />
  <path
     style="fill:#ffffff;stroke:#cccccc;stroke-width:0.0324763"
     d="M 8.0216509,10.506089 V 10.018945 H 12 15.978349 v 0.487144 0.487145 H 12 8.0216509 Z"
     id="path4" />
</svg>
