<?xml version="1.0" encoding="UTF-8" standalone="no"?>
<svg
   width="24"
   height="24"
   viewBox="0 0 24 24"
   version="1.1"
   id="svg1"
   sodipodi:docname="kpackagekit-security.svg"
   inkscape:version="1.3.2 (091e20ef0f, 2023-11-25, custom)"
   xmlns:inkscape="http://www.inkscape.org/namespaces/inkscape"
   xmlns:sodipodi="http://sodipodi.sourceforge.net/DTD/sodipodi-0.dtd"
   xmlns="http://www.w3.org/2000/svg"
   xmlns:svg="http://www.w3.org/2000/svg">
  <defs
     id="defs1" />
  <sodipodi:namedview
     id="namedview1"
     pagecolor="#505050"
     bordercolor="#ffffff"
     borderopacity="1"
     inkscape:showpageshadow="0"
     inkscape:pageopacity="0"
     inkscape:pagecheckerboard="1"
     inkscape:deskcolor="#d1d1d1"
     inkscape:zoom="30.791667"
     inkscape:cx="11.983762"
     inkscape:cy="11.983762"
     inkscape:window-width="2560"
     inkscape:window-height="1388"
     inkscape:window-x="2560"
     inkscape:window-y="28"
     inkscape:window-maximized="1"
     inkscape:current-layer="svg1" />
  <style
     type="text/css"
     id="current-color-scheme">.ColorScheme-Text{color:#31363b;}.ColorScheme-Background{color:#eff0f1;}.ColorScheme-Highlight{color:#3daee9;}.ColorScheme-ViewText{color:#31363b;}.ColorScheme-ViewBackground{color:#fcfcfc;}.ColorScheme-ViewHover{color:#93cee9;}.ColorScheme-ViewFocus{color:#3daee9;}.ColorScheme-ButtonText{color:#31363b;}.ColorScheme-ButtonBackground{color:#eff0f1;}.ColorScheme-ButtonHover{color:#93cee9;}.ColorScheme-ButtonFocus { color: #3daee9; } </style>
  <g
     transform="translate(1,1)"
     id="g1">
    <g
       id="kpackagekit-security"
       transform="translate(-22,2.66454e-15)">
      <g
         id="g4225">
        <path
           sodipodi:nodetypes="ccccccccccccccccccccccccc"
           inkscape:connector-curvature="0"
           id="path4185"
           d="m 29,7 -3,3 0,9 5.099609,0 L 35,19 l 5.099609,0 0,-9 -3,-3 L 35,7 31.099609,7 Z m 0.3,1 3.7,0 3.7,0 2,2 -11.4,0 z m 1.7,3 4,0 0,5 -1,-1 -1,1 -1,-1 -1,1 z"
           style="fill:currentColor;fill-rule:evenodd;stroke:none;stroke-width:1px;stroke-linecap:butt;stroke-linejoin:miter;stroke-opacity:1"
           class="ColorScheme-Text" />
        <path
           inkscape:connector-curvature="0"
           style="fill:#fdbc4b;fill-opacity:1;fill-rule:evenodd;stroke:none;stroke-width:1px;stroke-linecap:butt;stroke-linejoin:miter;stroke-opacity:1"
           d="m 38,3 c 0,1 -2,1 -2,1 l 0,3 c 0,1 1,1 2,2 1,-1 2,-1 2,-2 l 0,-3 c 0,0 -2,0 -2,-1 z"
           id="path4191" />
      </g>
      <rect
         style="opacity:1;fill:none;fill-opacity:0.59905659;stroke:none"
         id="rect4208"
         width="22"
         height="22"
         x="22"
         y="-2.6645353e-15" />
    </g>
  </g>
  <path
     style="fill:#ffffff;stroke:#cccccc;stroke-width:0.0324763"
     d="M 5.0013532,15.499193 V 11.00921 L 6.5035125,9.5073115 8.0056718,8.0054127 h 3.4814842 3.481484 l 0.02044,0.1217862 c 0.05743,0.3421277 0.162382,0.5280032 0.407526,0.7217784 l 0.16538,0.130725 H 11.929648 8.2973066 L 7.2988563,9.9785425 C 6.7497086,10.527905 6.300406,10.988256 6.300406,11.001547 c 0,0.01329 2.5648173,0.02416 5.699594,0.02416 3.134777,0 5.699594,-0.01107 5.699594,-0.0246 0,-0.01353 -0.37211,-0.396492 -0.826912,-0.851031 -0.454802,-0.4545391 -0.821349,-0.8319983 -0.814549,-0.838798 0.02105,-0.021054 0.476711,0.3013669 0.715197,0.5060691 l 0.226645,0.1945389 0.223987,-0.1932585 c 0.410099,-0.3538385 0.272277,-0.408394 1.127648,0.4463705 l 0.744466,0.743938 v 4.490116 4.490116 H 12.048714 5.0013532 Z m 5.5047488,1.015003 0.487919,-0.487158 0.486345,0.487158 c 0.26749,0.267937 0.500971,0.487157 0.518847,0.487157 0.01788,0 0.252065,-0.21922 0.520421,-0.487157 l 0.487919,-0.487158 0.486345,0.487158 c 0.26749,0.267937 0.497489,0.487157 0.511109,0.487157 0.01362,0 0.02476,-1.125304 0.02476,-2.500676 V 12 H 12 9.97023 v 2.500677 c 0,1.375372 0.010789,2.500676 0.023976,2.500676 0.013187,0 0.24354,-0.21922 0.511896,-0.487157 z"
     id="path1" />
</svg>
