<?xml version="1.0" encoding="UTF-8" standalone="no"?>
<svg
   width="24"
   height="24"
   viewBox="0 0 24 24"
   version="1.1"
   id="svg1"
   sodipodi:docname="kpackagekit-inactive.svg"
   inkscape:version="1.3.2 (091e20ef0f, 2023-11-25, custom)"
   xmlns:inkscape="http://www.inkscape.org/namespaces/inkscape"
   xmlns:sodipodi="http://sodipodi.sourceforge.net/DTD/sodipodi-0.dtd"
   xmlns="http://www.w3.org/2000/svg"
   xmlns:svg="http://www.w3.org/2000/svg">
  <defs
     id="defs1" />
  <sodipodi:namedview
     id="namedview1"
     pagecolor="#505050"
     bordercolor="#ffffff"
     borderopacity="1"
     inkscape:showpageshadow="0"
     inkscape:pageopacity="0"
     inkscape:pagecheckerboard="1"
     inkscape:deskcolor="#d1d1d1"
     inkscape:zoom="30.791667"
     inkscape:cx="11.983762"
     inkscape:cy="11.983762"
     inkscape:window-width="2560"
     inkscape:window-height="1388"
     inkscape:window-x="2560"
     inkscape:window-y="28"
     inkscape:window-maximized="1"
     inkscape:current-layer="svg1" />
  <style
     type="text/css"
     id="current-color-scheme">.ColorScheme-Text{color:#31363b;}.ColorScheme-Background{color:#eff0f1;}.ColorScheme-Highlight{color:#3daee9;}.ColorScheme-ViewText{color:#31363b;}.ColorScheme-ViewBackground{color:#fcfcfc;}.ColorScheme-ViewHover{color:#93cee9;}.ColorScheme-ViewFocus{color:#3daee9;}.ColorScheme-ButtonText{color:#31363b;}.ColorScheme-ButtonBackground{color:#eff0f1;}.ColorScheme-ButtonHover{color:#93cee9;}.ColorScheme-ButtonFocus { color: #3daee9; } </style>
  <g
     transform="translate(1,1)"
     id="g1">
    <g
       id="kpackagekit-inactive"
       transform="translate(22,2.66454e-15)">
      <path
         style="fill:currentColor;fill-rule:evenodd;stroke:none;stroke-width:1px;stroke-linecap:butt;stroke-linejoin:miter;stroke-opacity:1"
         d="m -15,7 -3,3 0,9 5.099609,0 L -9,19 l 5.099609,0 0,-9 -3,-3 L -9,7 -12.900391,7 Z m 0.3,1 3.7,0 3.7,0 2,2 -11.4,0 z m 1.7,3 4,0 0,5 -1,-1 -1,1 -1,-1 -1,1 z"
         id="path4204"
         inkscape:connector-curvature="0"
         sodipodi:nodetypes="ccccccccccccccccccccccccc"
         class="ColorScheme-Text" />
      <rect
         y="-2.6645353e-15"
         x="-22"
         height="22"
         width="22"
         id="rect4214"
         style="opacity:1;fill:none;fill-opacity:0.59905659;stroke:none" />
    </g>
  </g>
  <path
     style="fill:#ffffff;stroke:#cccccc;stroke-width:0.0324763"
     d="M 5.0013532,15.499193 V 11.00921 L 6.5035125,9.5073115 8.0056718,8.0054127 h 4.0433032 4.043303 l 1.501899,1.5021594 1.501899,1.5021589 v 4.489722 4.489722 H 12.048714 5.0013532 Z m 5.5047488,1.015003 0.487919,-0.487158 0.486345,0.487158 c 0.26749,0.267937 0.500971,0.487157 0.518847,0.487157 0.01788,0 0.252065,-0.21922 0.520421,-0.487157 l 0.487919,-0.487158 0.486345,0.487158 c 0.26749,0.267937 0.497489,0.487157 0.511109,0.487157 0.01362,0 0.02476,-1.125304 0.02476,-2.500676 V 12 H 12 9.97023 v 2.500677 c 0,1.375372 0.010789,2.500676 0.023976,2.500676 0.013187,0 0.24354,-0.21922 0.511896,-0.487157 z m 7.193492,-5.512649 c 0,-0.01329 -0.449303,-0.473642 -0.99845,-1.0230045 L 15.702693,8.9797023 H 12.00039 8.2980864 L 7.2992461,9.9781527 C 6.749884,10.5273 6.300406,10.987652 6.300406,11.001157 c 0,0.0135 2.5648173,0.02455 5.699594,0.02455 3.134777,0 5.699594,-0.01087 5.699594,-0.02416 z"
     id="path1" />
</svg>
