<?xml version="1.0" encoding="UTF-8" standalone="no"?>
<svg
   width="24"
   height="24"
   viewBox="0 0 24 24"
   version="1.1"
   id="svg1"
   sodipodi:docname="mail-unread.svg"
   inkscape:version="1.3.2 (091e20ef0f, 2023-11-25, custom)"
   xmlns:inkscape="http://www.inkscape.org/namespaces/inkscape"
   xmlns:sodipodi="http://sodipodi.sourceforge.net/DTD/sodipodi-0.dtd"
   xmlns="http://www.w3.org/2000/svg"
   xmlns:svg="http://www.w3.org/2000/svg">
  <defs
     id="defs1" />
  <sodipodi:namedview
     id="namedview1"
     pagecolor="#505050"
     bordercolor="#ffffff"
     borderopacity="1"
     inkscape:showpageshadow="0"
     inkscape:pageopacity="0"
     inkscape:pagecheckerboard="1"
     inkscape:deskcolor="#d1d1d1"
     inkscape:zoom="30.791667"
     inkscape:cx="11.983762"
     inkscape:cy="11.983762"
     inkscape:window-width="2560"
     inkscape:window-height="1388"
     inkscape:window-x="2560"
     inkscape:window-y="28"
     inkscape:window-maximized="1"
     inkscape:current-layer="svg1" />
  <style
     type="text/css"
     id="current-color-scheme">.ColorScheme-Text{color:#31363b;}.ColorScheme-Background{color:#eff0f1;}.ColorScheme-Highlight{color:#3daee9;}.ColorScheme-ViewText{color:#31363b;}.ColorScheme-ViewBackground{color:#fcfcfc;}.ColorScheme-ViewHover{color:#93cee9;}.ColorScheme-ViewFocus{color:#3daee9;}.ColorScheme-ButtonText{color:#31363b;}.ColorScheme-ButtonBackground{color:#eff0f1;}.ColorScheme-ButtonHover{color:#93cee9;}.ColorScheme-ButtonFocus { color: #3daee9; } </style>
  <g
     transform="translate(1,1)"
     id="g1">
    <g
       id="mail-unread">
      <path
         id="rect4144"
         d="m 1,3 0,1 0,8 0,6 0,0.414062 L 1,19 l 1,0 6,0 6,0 6,0 1,0 0,-0.585938 L 21,18 21,12 21,3 20.951172,3 20,3 19.537109,3 2.4628906,3 2,3 1,3 Z M 2,4 2.0488281,4 2.2714844,4.2226562 8.0234375,9.9765625 6,12 2,16 2,12 2,4.2226562 2,4 Z M 3.4628906,4 18.537109,4 11,11.537109 3.4628906,4 Z M 19.951172,4 20,4 20,4.2226562 20,12 20,16 16,12 13.976562,9.9765625 19.728516,4.2226562 19.951172,4 Z m -11.2207032,6.683594 1.4531252,1.451172 0.814453,0.814453 0.002,0 0.816406,-0.814453 1.453125,-1.451172 L 14.585938,12 19.537109,16.951172 20,17.414062 20,18 14,18 8,18 2,18 2,17.414062 2.4628906,16.951172 7.4140625,12 8.7304688,10.683594 Z"
         style="fill:currentColor"
         class="ColorScheme-Text" />
      <rect
         y="0"
         x="0"
         height="22"
         width="22"
         id="rect4193"
         style="opacity:1;fill:none;fill-opacity:1;stroke:none;stroke-width:0.1;stroke-linecap:square;stroke-linejoin:miter;stroke-miterlimit:4;stroke-dasharray:none;stroke-dashoffset:0;stroke-opacity:1" />
    </g>
  </g>
  <path
     style="fill:#ffffff;stroke:#cccccc;stroke-width:0.0324763"
     d="M 2.0135318,12 V 4.0108254 H 12 21.986468 V 12 19.989175 H 12 2.0135318 Z m 18.9986472,6.714421 v -0.300465 l -3.369419,-3.367992 -3.369418,-3.367991 -1.138706,1.116281 -1.138707,1.11628 -1.1302,-1.122026 -1.1301998,-1.122026 -3.3738537,3.373737 -3.3738541,3.373737 v 0.300465 0.300464 H 12 21.012179 Z M 6.0509297,7.9755296 C 4.4072571,6.3308016 3.0456463,4.985115 3.0251278,4.985115 c -0.027957,0 -0.037306,1.5077734 -0.037306,6.016216 v 6.016217 L 6.0136232,13.991746 9.039425,10.965944 Z M 21.012179,10.993234 c 0,-4.7846616 -0.0083,-6.0081887 -0.0406,-6.0084615 -0.02233,-1.884e-4 -1.380767,1.3479848 -3.018755,2.9959404 l -2.97816,2.9962831 3.010571,3.012179 c 1.655814,1.656698 3.014253,3.012178 3.018755,3.012178 0.0045,0 0.0082,-2.703653 0.0082,-6.008119 z M 15.783491,8.7686062 19.566878,4.985115 H 12 4.4331221 L 8.2165088,8.7686062 C 10.297371,10.849526 11.999943,12.552097 12,12.552097 c 5.7e-5,0 1.702629,-1.702571 3.783491,-3.7834908 z"
     id="path1" />
</svg>
