<?xml version="1.0" encoding="UTF-8" standalone="no"?>
<svg
   viewBox="0 0 24 24"
   width="24"
   height="24"
   version="1.1"
   id="svg2"
   sodipodi:docname="mic-off.svg"
   inkscape:version="1.3.2 (091e20ef0f, 2023-11-25, custom)"
   xmlns:inkscape="http://www.inkscape.org/namespaces/inkscape"
   xmlns:sodipodi="http://sodipodi.sourceforge.net/DTD/sodipodi-0.dtd"
   xmlns="http://www.w3.org/2000/svg"
   xmlns:svg="http://www.w3.org/2000/svg">
  <defs
     id="defs2" />
  <sodipodi:namedview
     id="namedview2"
     pagecolor="#505050"
     bordercolor="#ffffff"
     borderopacity="1"
     inkscape:showpageshadow="0"
     inkscape:pageopacity="0"
     inkscape:pagecheckerboard="1"
     inkscape:deskcolor="#d1d1d1"
     inkscape:zoom="49.333333"
     inkscape:cx="11.989865"
     inkscape:cy="12"
     inkscape:window-width="2560"
     inkscape:window-height="1388"
     inkscape:window-x="2560"
     inkscape:window-y="28"
     inkscape:window-maximized="1"
     inkscape:current-layer="svg2" />
  <style
     type="text/css"
     id="current-color-scheme">.ColorScheme-Text{color:#232629;}.ColorScheme-NegativeText { color: #da4453; } </style>
  <g
     transform="translate(1,1)"
     id="g2">
    <path
       d="m11 3c-1.385 0-2.5 1.115-2.5 2.5v1.0917969l4.992188 4.9902341c.000908-.027831.007812-.053971.007812-.082031v-6c0-1.385-1.115-2.5-2.5-2.5zm-5.5 7v1c.0009163 2.235554 1.6341118 4.198898 4 4.808594v2.191406h-2v1h7v-1h-2v-2.193359c.359986-.09277.696636-.225313 1.019531-.376953l-.751953-.751954c-.542799.206376-1.13986.322266-1.767578.322266-2.4852814 0-4.5-1.790861-4.5-4v-1zm10 0v1c0 .723829-.23306 1.392777-.611328 1.978516l.71875.71875c.558683-.787154.89175-1.711219.892578-2.697266v-1zm-7 .408203v1.091797c0 1.385 1.115 2.5 2.5 2.5.323798 0 .630577-.064693.914062-.175781z"
       style="fill:currentColor;fill-opacity:1;stroke:none"
       class="ColorScheme-Text"
       id="path1" />
    <path
       d="m-.5 4.7426407h1v21.6274173h-1z"
       style="fill:currentColor;fill-opacity:1;stroke:none"
       class="ColorScheme-NegativeText"
       transform="matrix(.70710678 -.70710678 .70710678 .70710678 0 0)"
       id="path2" />
  </g>
  <path
     style="fill:#ffffff;stroke:#cccccc;stroke-width:0.0202703;opacity:0.3"
     d="M 11.992935,10.067289 9.5027628,7.5770254 9.512653,6.8695938 c 0.00743,-0.5312546 0.017658,-0.742768 0.04108,-0.8493235 0.1731999,-0.7879429 0.650805,-1.4084937 1.349646,-1.753589 0.35207,-0.1738558 0.686563,-0.25016 1.096621,-0.25016 0.662238,0 1.239421,0.2300911 1.71986,0.6856145 0.365468,0.3465142 0.590566,0.7545845 0.727104,1.3181345 0.0313,0.1292108 0.03496,0.3927965 0.04086,2.9493243 0.0036,1.5440874 0.004,2.9830504 8.83e-4,3.1976954 l -0.0056,0.390262 z"
     id="path3" />
  <path
     style="opacity:0.3;fill:#ffffff;stroke:#cccccc;stroke-width:0.0202703"
     d="M 11.625,14.960363 C 10.72077,14.818224 9.9674202,14.200181 9.6596132,13.347973 9.5338942,12.999902 9.5232789,12.912492 9.5131432,12.141892 l -0.00933,-0.70946 1.6943928,1.692568 1.694393,1.692568 -0.05984,0.02486 c -0.09296,0.03861 -0.361808,0.104178 -0.518571,0.126465 -0.187945,0.02672 -0.488628,0.023 -0.689189,-0.0085 z"
     id="path4" />
  <path
     style="opacity:0.3;fill:#ffffff;stroke:#cccccc;stroke-width:0.0202703"
     d="M 8.5135135,19.5 V 19.003378 H 9.5067568 10.5 v -1.101116 -1.101116 l -0.1875,-0.05601 C 8.4644469,16.193083 7.0741134,14.810918 6.6505805,13.10473 6.5374712,12.649073 6.5231259,12.506661 6.5122451,11.731419 L 6.5022164,11.016892 H 6.9992167 7.496217 l 0.00928,0.744932 c 0.010446,0.838778 0.021525,0.92456 0.1799864,1.393581 0.3388972,1.003086 1.1082622,1.850792 2.1321505,2.349258 0.6619761,0.322273 1.2658891,0.470087 2.0132171,0.492755 0.613875,0.01862 1.171875,-0.05637 1.699342,-0.228378 l 0.236057,-0.07698 0.367533,0.367534 0.367534,0.367534 -0.135674,0.06087 c -0.176854,0.07935 -0.600838,0.23599 -0.749086,0.276749 L 13.5,16.796796 v 1.103291 1.103291 h 0.993243 0.993243 V 19.5 19.996622 H 12 8.5135135 Z"
     id="path5" />
  <path
     style="opacity:0.3;fill:#ffffff;stroke:#cccccc;stroke-width:0.0202703"
     d="m 16.251521,14.325852 c -0.186647,-0.18689 -0.339359,-0.34579 -0.339359,-0.353111 0,-0.0073 0.04242,-0.08476 0.09427,-0.17208 0.185009,-0.311601 0.351149,-0.737714 0.435244,-1.11631 0.03943,-0.177501 0.04487,-0.273487 0.05288,-0.932662 l 0.0089,-0.734797 h 0.494885 0.494885 l -6.9e-5,0.5625 c -3.8e-5,0.309375 -0.0096,0.667399 -0.02135,0.795608 -0.06449,0.706262 -0.325522,1.464652 -0.714717,2.076483 -0.07049,0.110816 -0.136729,0.204338 -0.147194,0.207827 -0.01047,0.0035 -0.17174,-0.146568 -0.358388,-0.333458 z"
     id="path6" />
</svg>
