<?xml version="1.0" encoding="UTF-8" standalone="no"?>
<svg
   width="24"
   height="24"
   viewBox="0 0 24 24"
   version="1.1"
   id="svg1"
   sodipodi:docname="network-wireless-off.svg"
   inkscape:version="1.3.2 (091e20ef0f, 2023-11-25, custom)"
   xmlns:inkscape="http://www.inkscape.org/namespaces/inkscape"
   xmlns:sodipodi="http://sodipodi.sourceforge.net/DTD/sodipodi-0.dtd"
   xmlns="http://www.w3.org/2000/svg"
   xmlns:svg="http://www.w3.org/2000/svg">
  <defs
     id="defs1" />
  <sodipodi:namedview
     id="namedview1"
     pagecolor="#505050"
     bordercolor="#ffffff"
     borderopacity="1"
     inkscape:showpageshadow="0"
     inkscape:pageopacity="0"
     inkscape:pagecheckerboard="1"
     inkscape:deskcolor="#d1d1d1"
     inkscape:zoom="49.333333"
     inkscape:cx="11.989865"
     inkscape:cy="12"
     inkscape:window-width="2560"
     inkscape:window-height="1388"
     inkscape:window-x="2560"
     inkscape:window-y="28"
     inkscape:window-maximized="1"
     inkscape:current-layer="svg1" />
  <style
     type="text/css"
     id="current-color-scheme">.ColorScheme-Text{color:#31363b;}.ColorScheme-Background{color:#eff0f1;}.ColorScheme-Highlight{color:#3498db;}.ColorScheme-ViewText{color:#31363b;}.ColorScheme-ViewBackground{color:#fcfcfc;}.ColorScheme-ViewHover{color:#93cee9;}.ColorScheme-ViewFocus{color:#3daee9;}.ColorScheme-ButtonText{color:#31363b;}.ColorScheme-ButtonBackground{color:#eff0f1;}.ColorScheme-ButtonHover{color:#93cee9;}.ColorScheme-ButtonFocus{color:#3daee9;}.ColorScheme-NegativeText { color: #e74c3c; } </style>
  <g
     transform="translate(1,1)"
     id="g1">
    <g
       id="network-wireless-off"
       transform="translate(-278) translate(44,-44)">
      <g
         transform="matrix(-1,0,0,1,498,-23.75)"
         id="g1692">
        <rect
           style="opacity:0.2;fill:none;fill-opacity:1;stroke:none;stroke-width:3.56737041px;stroke-linecap:butt;stroke-linejoin:miter;stroke-miterlimit:4;stroke-dasharray:none;stroke-dashoffset:0;stroke-opacity:1"
           id="rect4504-5"
           width="22"
           height="22"
           x="242"
           y="67.75" />
        <path
           inkscape:connector-curvature="0"
           style="opacity:0.35;fill:currentColor;fill-opacity:1;stroke:none"
           d="m 253,70.75 c -4.155,0 -7.90594,1.671562 -10.61719,4.382812 l 0.70899,0.708985 C 245.6223,73.311297 249.122,71.75 253,71.75 c 1.69618,0 3.31246,0.313499 4.81445,0.861328 l 0.78125,-0.779297 C 256.86662,71.139948 254.98194,70.75 253,70.75 Z m 7.98828,2.306641 -0.72851,0.728515 c 0.96232,0.583504 1.85746,1.265664 2.64843,2.056641 l 0.70899,-0.708985 c -0.79015,-0.790152 -1.67788,-1.47827 -2.62891,-2.076171 z"
           id="path4506-3"
           class="ColorScheme-Text" />
        <path
           inkscape:connector-curvature="0"
           style="opacity:0.35;fill:currentColor;fill-opacity:1;stroke:none"
           d="m 253,74.75 c -3.047,0 -5.79691,1.226594 -7.78516,3.214844 l 0.70703,0.707031 C 247.72937,76.864365 250.23,75.75 253,75.75 c 0.52789,0 1.04149,0.05283 1.54688,0.130859 l 0.85937,-0.861328 C 254.63141,74.847689 253.82805,74.75 253,74.75 Z m 5.0625,1.232422 -0.74805,0.75 c 1.02987,0.491318 1.96689,1.142666 2.76367,1.939453 l 0.70704,-0.707031 c -0.79457,-0.794566 -1.71446,-1.460811 -2.72266,-1.982422 z"
           id="path4508-5"
           class="ColorScheme-Text" />
        <path
           inkscape:connector-curvature="0"
           style="opacity:0.35;fill:currentColor;fill-opacity:1;stroke:none"
           d="m 251.51953,78.908203 c -1.3423,0.286856 -2.54134,0.953446 -3.47461,1.886719 l 0.70899,0.708984 c 0.28116,-0.28116 0.59127,-0.532975 0.92382,-0.753906 z m 3.48438,0.132813 -0.82422,0.824218 c 1.18703,0.234927 2.24547,0.817737 3.0664,1.638672 l 0.70899,-0.708984 c -0.81012,-0.810119 -1.82098,-1.419124 -2.95117,-1.753906 z"
           id="path4510-6"
           class="ColorScheme-Text" />
        <path
           inkscape:connector-curvature="0"
           id="path4512-2"
           d="m 253,82.75 c -1.108,0 -2,0.892004 -2,2 0,1.107996 0.892,2 2,2 1.108,0 2,-0.892004 2,-2 0,-1.107996 -0.892,-2 -2,-2 z m 0,1 c 0.554,0 1,0.446 1,1 0,0.554 -0.446,1 -1,1 -0.554,0 -1,-0.446 -1,-1 0,-0.554 0.446,-1 1,-1 z"
           style="opacity:0.35;fill:currentColor;fill-opacity:1;stroke:none"
           class="ColorScheme-Text" />
        <rect
           style="opacity:1;fill:currentColor;fill-opacity:1;stroke:none"
           id="rect1560"
           width="22.763676"
           height="1.0021172"
           x="113.27978"
           y="234.42577"
           transform="rotate(-45)"
           class="ColorScheme-NegativeText" />
      </g>
    </g>
  </g>
  <path
     style="fill:#ffffff;stroke:#cccccc;stroke-width:0.0202703;opacity:0.3"
     d="m 11.708385,19.974263 c -0.190272,-0.02777 -0.45491,-0.115672 -0.635613,-0.211123 -0.446747,-0.235982 -0.791437,-0.634967 -0.949475,-1.099036 -0.08448,-0.248056 -0.109436,-0.402915 -0.10963,-0.680161 -5.16e-4,-0.736939 0.401612,-1.400226 1.059105,-1.746931 0.752886,-0.397007 1.668093,-0.272824 2.287968,0.310451 0.28075,0.264173 0.456159,0.556404 0.569108,0.948131 0.03985,0.138212 0.04608,0.206386 0.04608,0.504406 0,0.376392 -0.02412,0.504331 -0.151534,0.803749 -0.342695,0.805319 -1.235262,1.299061 -2.116008,1.170514 z m 0.559881,-1.008494 c 0.592787,-0.164375 0.900696,-0.836852 0.637007,-1.391228 -0.364451,-0.766215 -1.447183,-0.766344 -1.810181,-2.17e-4 -0.364466,0.769226 0.352108,1.61912 1.173174,1.391445 z"
     id="path1" />
  <path
     style="opacity:0.3;fill:#ffffff;stroke:#cccccc;stroke-width:0.0202703"
     d="M 7.4021437,14.395391 7.0536783,14.046499 7.1805554,13.923926 c 0.7020824,-0.67826 1.5939194,-1.21428 2.5795797,-1.550402 l 0.222973,-0.07604 0.4097839,0.407816 0.409784,0.407815 -0.196946,0.04435 C 9.6580911,13.37089 8.6991122,13.881917 7.924291,14.586368 l -0.1736819,0.157908 z"
     id="path2" />
  <path
     style="opacity:0.3;fill:#ffffff;stroke:#cccccc;stroke-width:0.0202703"
     d="m 16.023649,14.540883 c -0.122635,-0.110656 -0.31419,-0.266943 -0.425676,-0.347304 -0.153355,-0.11054 -0.430764,-0.372888 -1.139505,-1.077637 -0.515241,-0.51234 -0.934372,-0.933957 -0.931401,-0.936928 0.003,-0.003 0.123518,0.02549 0.267884,0.06325 1.065624,0.278725 2.069386,0.818181 2.877346,1.546386 0.122635,0.110529 0.233996,0.214418 0.247467,0.230863 0.0204,0.0249 -0.03383,0.08781 -0.324324,0.376231 l -0.348818,0.346329 z"
     id="path3" />
  <path
     style="opacity:0.3;fill:#ffffff;stroke:#cccccc;stroke-width:0.0202703"
     d="M 18.962076,11.804948 C 18.818132,11.656358 18.407107,11.297985 18.160412,11.105976 16.018458,9.4388467 13.280199,8.7081702 10.638221,9.0987562 l -0.175968,0.026015 -0.42107,-0.4214285 C 9.8095943,8.471557 9.624253,8.2780846 9.6293132,8.2734039 9.6612458,8.243866 10.448268,8.1133852 10.873321,8.0671592 c 0.599096,-0.065154 1.598415,-0.07026 2.190868,-0.011195 1.584478,0.1579655 3.077031,0.6333769 4.431005,1.4113731 0.726185,0.4172676 1.464747,0.9664577 2.026965,1.5072407 l 0.25149,0.241901 -0.344371,0.346152 c -0.189404,0.190384 -0.349376,0.346153 -0.355492,0.346153 -0.0061,0 -0.05639,-0.04673 -0.11171,-0.103836 z"
     id="path4" />
  <path
     style="opacity:0.3;fill:#ffffff;stroke:#cccccc;stroke-width:0.0202703"
     d="M 21.675187,8.8611624 C 19.545678,6.8222574 16.784222,5.4980801 13.869033,5.1179446 12.796133,4.9780404 11.629279,4.9606668 10.582917,5.0690168 9.5476597,5.1762169 8.3535394,5.4413881 7.4297327,5.7692258 L 7.1918711,5.8536374 6.8091803,5.4713442 C 6.5987004,5.2610829 6.4331476,5.0834624 6.4412853,5.0766318 6.4605472,5.0604639 6.6259941,4.9983118 7.0130551,4.8618397 10.043948,3.7931914 13.335192,3.7261082 16.439672,4.6697034 c 1.894835,0.5759281 3.787928,1.6146155 5.290058,2.902508 0.228053,0.1955281 0.734838,0.6572678 0.820185,0.7472844 l 0.06005,0.063336 -0.343611,0.3440572 c -0.188986,0.1892315 -0.350012,0.3440572 -0.357836,0.3440572 -0.0078,0 -0.112824,-0.094403 -0.233332,-0.2097835 z"
     id="path5" />
  <path
     style="opacity:0.3;fill:#ffffff;stroke:#cccccc;stroke-width:0.0202703"
     d="M 4.5707223,11.563064 4.2263514,11.217344 4.4414561,11.008286 C 4.8574599,10.603976 5.4679202,10.125425 6.0180806,9.7723411 6.3259644,9.5747464 6.885882,9.2533784 6.9222665,9.2533784 c 0.023372,0 0.7532286,0.7250283 0.738946,0.7340579 -0.00505,0.00319 -0.1323274,0.068968 -0.2828341,0.1461647 -0.8144992,0.417766 -1.6196395,0.983664 -2.2325562,1.569165 -0.1186154,0.11331 -0.2190539,0.206018 -0.2231966,0.206018 -0.00414,0 -0.1624992,-0.155574 -0.3519033,-0.34572 z"
     id="path6" />
  <path
     style="opacity:0.3;fill:#ffffff;stroke:#cccccc;stroke-width:0.0202703"
     d="M 1.7379521,8.7312016 C 1.5513352,8.5443422 1.3986486,8.3855019 1.3986486,8.3782232 c 0,-0.024088 0.5928009,-0.5656667 0.9020271,-0.8240854 0.4657468,-0.3892221 1.1319809,-0.8752063 1.623555,-1.1843017 l 0.083014,-0.052198 0.3595654,0.3599821 0.3595654,0.3599821 -0.158796,0.097735 C 3.805743,7.6042279 3.024351,8.2042377 2.343815,8.8429054 2.2101706,8.9683277 2.0955219,9.0709459 2.0890403,9.0709459 c -0.00648,0 -0.1644714,-0.1528848 -0.3510882,-0.3397443 z"
     id="path7" />
</svg>
