<?xml version="1.0" encoding="UTF-8" standalone="no"?>
<svg
   width="24"
   height="24"
   viewBox="0 0 24 24"
   version="1.1"
   id="svg1"
   sodipodi:docname="network-wired.svg"
   inkscape:version="1.3.2 (091e20ef0f, 2023-11-25, custom)"
   xmlns:inkscape="http://www.inkscape.org/namespaces/inkscape"
   xmlns:sodipodi="http://sodipodi.sourceforge.net/DTD/sodipodi-0.dtd"
   xmlns="http://www.w3.org/2000/svg"
   xmlns:svg="http://www.w3.org/2000/svg">
  <defs
     id="defs1" />
  <sodipodi:namedview
     id="namedview1"
     pagecolor="#505050"
     bordercolor="#ffffff"
     borderopacity="1"
     inkscape:showpageshadow="0"
     inkscape:pageopacity="0"
     inkscape:pagecheckerboard="1"
     inkscape:deskcolor="#d1d1d1"
     inkscape:zoom="49.333333"
     inkscape:cx="11.989865"
     inkscape:cy="12"
     inkscape:window-width="2560"
     inkscape:window-height="1388"
     inkscape:window-x="2560"
     inkscape:window-y="28"
     inkscape:window-maximized="1"
     inkscape:current-layer="svg1" />
  <style
     type="text/css"
     id="current-color-scheme">.ColorScheme-Text{color:#31363b;}.ColorScheme-Background{color:#eff0f1;}.ColorScheme-Highlight{color:#3498db;}.ColorScheme-ViewText{color:#31363b;}.ColorScheme-ViewBackground{color:#fcfcfc;}.ColorScheme-ViewHover{color:#93cee9;}.ColorScheme-ViewFocus{color:#3daee9;}.ColorScheme-ButtonText{color:#31363b;}.ColorScheme-ButtonBackground{color:#eff0f1;}.ColorScheme-ButtonHover{color:#93cee9;}.ColorScheme-ButtonFocus{color:#3daee9;}.ColorScheme-NegativeText { color: #e74c3c; } </style>
  <g
     transform="translate(1,1)"
     id="g1">
    <g
       transform="translate(110,0) translate(-110,0)"
       id="network-wired">
      <path
         class="ColorScheme-Text"
         id="rect4467-4"
         transform="translate(-110,0)"
         d="m 113,3 0,6 2,0 0,8 1,0 0,-8 2,0 0,-6 z m 6,0 0,1 9,0 0,10 -11,0 0,1 0,1 1,0 1,0 0,1 0,0.726562 0,0.273438 -2,0 0,1 2,0 1,0 2,0 3,0 0,-1 -1,0 -1,0 0,-2 1,0 4,0 1,0 0,-13 -1,0 z m -5,1 3,0 0,4 -3,0 z m 1,1 0,2 1,0 0,-2 z m -2,5 0,6 1,0 0,-6 z"
         style="fill:currentColor;fill-opacity:1;stroke:none" />
      <rect
         style="opacity:1;fill:none;fill-opacity:1;stroke:none"
         id="rect4509-9"
         width="22"
         height="22"
         x="0"
         y="0" />
    </g>
  </g>
  <path
     style="fill:#ffffff;stroke:#cccccc;stroke-width:0.0202703"
     d="M 6,13.986486 V 9.9831081 H 5.0067568 4.0135135 V 6.9932432 4.0033784 H 6.5067568 9 V 6.9932432 9.9831081 H 7.9966216 6.9932432 v 4.0033779 4.003379 H 6.4966216 6 Z M 8.0067568,7.0033784 V 4.9966216 H 6.4966216 4.9864865 v 2.0067568 2.0067567 h 1.5101351 1.5101352 z"
     id="path1" />
  <path
     style="fill:#ffffff;stroke:#cccccc;stroke-width:0.0202703"
     d="M 6,7.0033784 V 6.0101351 H 6.4966216 6.9932432 V 7.0033784 7.9966216 H 6.4966216 6 Z"
     id="path2" />
  <path
     style="fill:#ffffff;stroke:#cccccc;stroke-width:0.0202703"
     d="M 4.0135135,14.006757 V 11.016892 H 4.5 4.9864865 v 2.989865 2.989865 H 4.5 4.0135135 Z"
     id="path3" />
  <path
     style="fill:#ffffff;stroke:#cccccc;stroke-width:0.0202703"
     d="M 8.0067568,19.5 V 19.003378 H 9.0101351 10.013514 V 18 16.996622 H 9.0101351 8.0067568 v -0.993244 -0.993243 h 5.5033782 5.503379 V 10.003378 4.9966216 h -4.5 -4.5 V 4.5 4.0033784 H 15 19.986486 V 10.5 16.996622 h -3 -3 V 18 19.003378 h 1.003379 1.003378 V 19.5 19.996622 H 12 8.0067568 Z"
     id="path4" />
</svg>
