<?xml version="1.0" encoding="UTF-8" standalone="no"?>
<svg
   width="24"
   height="24"
   viewBox="0 0 24 24"
   version="1.1"
   id="svg1"
   sodipodi:docname="network-wireless-100-limited.svg"
   inkscape:version="1.3.2 (091e20ef0f, 2023-11-25, custom)"
   xmlns:inkscape="http://www.inkscape.org/namespaces/inkscape"
   xmlns:sodipodi="http://sodipodi.sourceforge.net/DTD/sodipodi-0.dtd"
   xmlns="http://www.w3.org/2000/svg"
   xmlns:svg="http://www.w3.org/2000/svg">
  <defs
     id="defs1" />
  <sodipodi:namedview
     id="namedview1"
     pagecolor="#505050"
     bordercolor="#ffffff"
     borderopacity="1"
     inkscape:showpageshadow="0"
     inkscape:pageopacity="0"
     inkscape:pagecheckerboard="1"
     inkscape:deskcolor="#d1d1d1"
     inkscape:zoom="30.791667"
     inkscape:cx="11.983762"
     inkscape:cy="11.983762"
     inkscape:window-width="2560"
     inkscape:window-height="1388"
     inkscape:window-x="2560"
     inkscape:window-y="28"
     inkscape:window-maximized="1"
     inkscape:current-layer="svg1" />
  <style
     type="text/css"
     id="current-color-scheme">.ColorScheme-Text{color:#31363b;}.ColorScheme-Background{color:#eff0f1;}.ColorScheme-Highlight{color:#3498db;}.ColorScheme-ViewText{color:#31363b;}.ColorScheme-ViewBackground{color:#fcfcfc;}.ColorScheme-ViewHover{color:#93cee9;}.ColorScheme-ViewFocus{color:#3daee9;}.ColorScheme-ButtonText{color:#31363b;}.ColorScheme-ButtonBackground{color:#eff0f1;}.ColorScheme-ButtonHover{color:#93cee9;}.ColorScheme-ButtonFocus{color:#3daee9;}.ColorScheme-NegativeText { color: #e74c3c; } </style>
  <g
     transform="translate(1,1)"
     id="g1">
    <g
       transform="translate(0,20) translate(22,-86)"
       id="network-wireless-100-limited">
      <rect
         y="66"
         x="-22"
         height="22"
         width="22"
         id="rect4283"
         style="opacity:0.55;fill:none;fill-opacity:1;stroke:none;stroke-width:3.56737041px;stroke-linecap:butt;stroke-linejoin:miter;stroke-miterlimit:4;stroke-dasharray:none;stroke-dashoffset:0;stroke-opacity:1" />
      <g
         id="g4323"
         transform="translate(-51.97466,56.97765)">
        <path
           class="ColorScheme-Text"
           id="path4327"
           d="m 40.97466,12.02235 c -4.155,0 -7.90594,1.67156 -10.61719,4.38281 l 0.70899,0.70899 c 2.5305,-2.5305 6.0302,-4.0918 9.9082,-4.0918 3.878,0 7.3777,1.5613 9.9082,4.0918 l 0.70899,-0.70899 C 48.8806,13.69391 45.12966,12.02235 40.97466,12.02235 Z"
           style="opacity:1;fill:currentColor;fill-opacity:1;stroke:none" />
        <path
           class="ColorScheme-Text"
           id="path4329"
           d="m 40.97466,16.02235 c -3.047,0 -5.79691,1.22659 -7.78516,3.21484 l 0.70704,0.70704 c 1.8075,-1.80751 4.30812,-2.92188 7.07812,-2.92188 2.77,0 5.27062,1.11437 7.07813,2.92188 l 0.70703,-0.70704 c -1.98825,-1.98825 -4.73816,-3.21484 -7.78516,-3.21484 z"
           style="opacity:1;fill:currentColor;fill-opacity:1;stroke:none" />
        <path
           class="ColorScheme-Text"
           id="path4331"
           d="m 40.97466,20.02235 c -1.939,0 -3.68983,0.77967 -4.95508,2.04492 l 0.70899,0.70899 c 1.0845,-1.0845 2.58409,-1.75391 4.24609,-1.75391 1.662,0 3.16159,0.66941 4.24609,1.75391 l 0.70899,-0.70899 c -1.26525,-1.26525 -3.01608,-2.04492 -4.95508,-2.04492 z"
           style="opacity:1;fill:currentColor;fill-opacity:1;stroke:none" />
        <path
           class="ColorScheme-Text"
           id="path4333"
           d="m 40.97466,24.02235 c -1.107996,0 -2,0.892004 -2,2 0,1.107996 0.892004,2 2,2 1.107996,0 2,-0.892004 2,-2 0,-1.107996 -0.892004,-2 -2,-2 z m 0,1 c 0.554,0 1,0.446 1,1 0,0.554 -0.446,1 -1,1 -0.554,0 -1,-0.446 -1,-1 0,-0.554 0.446,-1 1,-1 z"
           style="opacity:1;fill:currentColor;fill-opacity:1;stroke:none" />
      </g>
      <path
         style="opacity:1;fill:#fdbc4b;fill-opacity:1;stroke:none"
         d="m -4,78 v 5 h 2 v -5 z m 1,6 a 1,1 0 0 0 -1,1 1,1 0 0 0 1,1 1,1 0 0 0 1,-1 1,1 0 0 0 -1,-1 z"
         id="rect4343" />
    </g>
  </g>
  <path
     style="fill:#ffffff;stroke:#cccccc;stroke-width:0.0324763"
     d="m 11.634119,19.955286 c -0.718578,-0.128905 -1.335048,-0.702903 -1.552566,-1.445603 -0.06912,-0.236007 -0.07782,-0.707927 -0.01762,-0.956232 0.154775,-0.638449 0.608429,-1.157098 1.231628,-1.408084 0.235817,-0.09497 0.274275,-0.100634 0.688205,-0.101329 0.530561,-8.91e-4 0.751091,0.0617 1.133256,0.321634 0.395794,0.269204 0.705113,0.717775 0.819053,1.187779 0.06023,0.248467 0.05147,0.720034 -0.0178,0.958051 -0.140617,0.483161 -0.522174,0.980454 -0.927745,1.209154 -0.387378,0.218441 -0.92665,0.311723 -1.356409,0.23463 z m 0.663197,-0.988795 c 0.336145,-0.09983 0.587161,-0.370511 0.680138,-0.733437 0.09327,-0.364075 -0.01261,-0.70774 -0.298579,-0.969098 C 12.475045,17.077667 12.277761,17.001353 12,17.001353 c -0.277761,0 -0.475045,0.07631 -0.678875,0.262603 -0.22803,0.208407 -0.323111,0.421606 -0.324635,0.727925 -0.0034,0.687649 0.64109,1.17053 1.300826,0.97461 z"
     id="path1" />
  <path
     style="fill:#ffffff;stroke:#cccccc;stroke-width:0.0324763"
     d="m 7.4040206,14.384467 -0.3404211,-0.343545 0.211096,-0.193949 c 1.0326075,-0.948735 2.3729249,-1.574919 3.7834915,-1.767614 0.512342,-0.06999 1.373703,-0.06979 1.883626,4.32e-4 1.416722,0.195104 2.750483,0.818304 3.783491,1.767835 l 0.211097,0.194037 -0.343404,0.345387 -0.343403,0.345387 -0.218939,-0.198411 c -0.988961,-0.896235 -2.244569,-1.428806 -3.595636,-1.5251 -1.459382,-0.104014 -2.888721,0.312341 -4.0398904,1.176787 -0.1428959,0.107305 -0.3427581,0.273219 -0.4441385,0.368699 -0.1013803,0.09548 -0.1893275,0.173599 -0.1954382,0.173599 -0.00611,0 -0.1642997,-0.154595 -0.3515313,-0.343544 z"
     id="path2" />
  <path
     style="fill:#ffffff;stroke:#cccccc;stroke-width:0.0324763"
     d="M 4.576864,11.557341 4.2381597,11.215557 4.5142084,10.95427 C 6.0810675,9.4712023 8.1910363,8.4555193 10.36863,8.1361069 c 2.845445,-0.4173738 5.709652,0.2693497 8.02875,1.9249761 0.371026,0.264879 1.002473,0.789091 1.217345,1.010609 l 0.145172,0.149662 -0.337067,0.338217 -0.337066,0.338218 -0.279012,-0.255779 C 17.237688,10.203604 15.358463,9.3369282 13.201624,9.0569925 12.618494,8.9813082 11.374749,8.9810626 10.798376,9.0565179 9.4605834,9.2316537 8.2636949,9.6172055 7.1330087,10.237237 6.5142097,10.576566 5.6704978,11.192926 5.1203957,11.70752 l -0.2048274,0.191606 z"
     id="path3" />
  <path
     style="fill:#ffffff;stroke:#cccccc;stroke-width:0.0324763"
     d="M 1.7449446,8.7273766 1.3964382,8.3777862 1.6806278,8.1161557 C 2.4574904,7.4009602 3.0178911,6.9591415 3.8484438,6.4070538 4.4508704,6.0066068 5.6414179,5.3906122 6.3776759,5.098418 9.7432037,3.7627608 13.412679,3.6579773 16.806495,4.8006183 c 2.012304,0.6775091 3.742803,1.702666 5.368659,3.1804222 l 0.432258,0.3928836 -0.34916,0.3502458 -0.34916,0.3502457 -0.277956,-0.2667069 C 21.089382,8.2878804 20.434297,7.7687854 19.729364,7.3007282 16.483216,5.1453707 12.431514,4.4581399 8.5737483,5.4085647 6.2679806,5.9766289 3.9908196,7.2293404 2.3376592,8.839161 L 2.093451,9.0769669 Z"
     id="path4" />
</svg>
