<?xml version="1.0" encoding="UTF-8" standalone="no"?>
<svg
   width="24"
   height="24"
   viewBox="0 0 24 24"
   version="1.1"
   id="svg1"
   sodipodi:docname="network-mobile-0-5g.svg"
   inkscape:version="1.3.2 (091e20ef0f, 2023-11-25, custom)"
   xmlns:inkscape="http://www.inkscape.org/namespaces/inkscape"
   xmlns:sodipodi="http://sodipodi.sourceforge.net/DTD/sodipodi-0.dtd"
   xmlns="http://www.w3.org/2000/svg"
   xmlns:svg="http://www.w3.org/2000/svg">
  <defs
     id="defs1" />
  <sodipodi:namedview
     id="namedview1"
     pagecolor="#505050"
     bordercolor="#ffffff"
     borderopacity="1"
     inkscape:showpageshadow="0"
     inkscape:pageopacity="0"
     inkscape:pagecheckerboard="1"
     inkscape:deskcolor="#d1d1d1"
     inkscape:zoom="30.791667"
     inkscape:cx="11.983762"
     inkscape:cy="11.983762"
     inkscape:window-width="2560"
     inkscape:window-height="1388"
     inkscape:window-x="2560"
     inkscape:window-y="28"
     inkscape:window-maximized="1"
     inkscape:current-layer="svg1" />
  <style
     type="text/css"
     id="current-color-scheme">.ColorScheme-Text{color:#31363b;}.ColorScheme-Background{color:#eff0f1;}.ColorScheme-Highlight{color:#3498db;}.ColorScheme-ViewText{color:#31363b;}.ColorScheme-ViewBackground{color:#fcfcfc;}.ColorScheme-ViewHover{color:#93cee9;}.ColorScheme-ViewFocus{color:#3daee9;}.ColorScheme-ButtonText{color:#31363b;}.ColorScheme-ButtonBackground{color:#eff0f1;}.ColorScheme-ButtonHover{color:#93cee9;}.ColorScheme-ButtonFocus{color:#3daee9;}.ColorScheme-NegativeText { color: #e74c3c; } </style>
  <g
     transform="translate(1,1)"
     id="g1">
    <g
       transform="translate(0,-308) translate(-88,374)"
       id="network-mobile-0-5g">
      <rect
         style="opacity:0.55;fill:none;fill-opacity:1;stroke:none;stroke-width:3.56737041px;stroke-linecap:butt;stroke-linejoin:miter;stroke-miterlimit:4;stroke-dasharray:none;stroke-dashoffset:0;stroke-opacity:1"
         id="rect4852-0"
         width="22"
         height="22"
         x="88"
         y="-66" />
      <path
         style="opacity:0.35;fill:currentColor;fill-opacity:1;fill-rule:evenodd;stroke:none;stroke-width:1px;stroke-linecap:butt;stroke-linejoin:miter;stroke-opacity:1"
         d="m 91,-47 16,-16 v 16 z"
         id="path4854-2"
         class="ColorScheme-Text" />
      <path
         class="ColorScheme-Text"
         id="path5066-3"
         d="m 96,-63 v 4 1 h 4 v -1 -1 -1 h -2 v 1 h 1 v 1 h -2 v -3 h 3 v -1 h -3 z"
         style="opacity:1;fill:currentColor;fill-opacity:1;stroke:none" />
      <path
         style="opacity:1;fill:currentColor;fill-opacity:1;stroke:none;stroke-width:1;stroke-miterlimit:4;stroke-dasharray:none;stroke-opacity:1"
         d="m 91,-63 v 3 h 3 v 1 h -3 v 1 h 3 1 v -3 h -3 v -1 h 3 v -1 z"
         id="rect1642-3-6-7-3"
         class="ColorScheme-Text" />
    </g>
  </g>
  <path
     style="fill:#ffffff;stroke:#cccccc;stroke-width:0.0324763"
     d="M 4.0270636,8.4925575 V 8.0054127 H 5.5209743 7.014885 V 7.5020298 6.9986468 H 5.5209743 4.0270636 V 5.5047361 4.0108254 H 6.0081191 7.9891746 V 4.4979702 4.985115 H 6.4952639 5.0013532 V 5.5047361 6.0243572 H 6.4952639 7.9891746 V 7.5020298 8.9797023 H 6.0081191 4.0270636 Z"
     id="path1" />
  <path
     style="fill:#ffffff;stroke:#cccccc;stroke-width:0.0324763"
     d="M 9.0284168,6.4952639 V 4.0108254 h 1.9810552 1.981056 V 4.4979702 4.985115 h -1.493911 -1.493911 v 1.5101489 1.5101488 h 1.006766 1.006766 V 7.5020298 6.9986468 H 11.512855 11.009472 V 6.511502 6.0243572 H 12 12.990528 V 7.5020298 8.9797023 H 11.009472 9.0284168 Z"
     id="path2" />
  <path
     style="fill:#ffffff;stroke:#cccccc;stroke-width:0.0324763;opacity:0.3"
     d="m 11.983762,12.016238 c 4.385088,-4.3851149 7.983859,-7.9729362 7.997269,-7.9729362 0.01341,0 0.02438,3.5878213 0.02438,7.9729362 v 7.972937 H 12.008144 4.010875 Z"
     id="path3" />
</svg>
