<?xml version="1.0" encoding="UTF-8" standalone="no"?>
<svg
   width="24"
   height="24"
   viewBox="0 0 24 24"
   version="1.1"
   id="svg1"
   sodipodi:docname="network-mobile-40-5g-locked.svg"
   inkscape:version="1.3.2 (091e20ef0f, 2023-11-25, custom)"
   xmlns:inkscape="http://www.inkscape.org/namespaces/inkscape"
   xmlns:sodipodi="http://sodipodi.sourceforge.net/DTD/sodipodi-0.dtd"
   xmlns="http://www.w3.org/2000/svg"
   xmlns:svg="http://www.w3.org/2000/svg">
  <defs
     id="defs1" />
  <sodipodi:namedview
     id="namedview1"
     pagecolor="#505050"
     bordercolor="#ffffff"
     borderopacity="1"
     inkscape:showpageshadow="0"
     inkscape:pageopacity="0"
     inkscape:pagecheckerboard="1"
     inkscape:deskcolor="#d1d1d1"
     inkscape:zoom="30.791667"
     inkscape:cx="11.983762"
     inkscape:cy="11.983762"
     inkscape:window-width="2560"
     inkscape:window-height="1388"
     inkscape:window-x="2560"
     inkscape:window-y="28"
     inkscape:window-maximized="1"
     inkscape:current-layer="svg1" />
  <style
     type="text/css"
     id="current-color-scheme">.ColorScheme-Text{color:#31363b;}.ColorScheme-Background{color:#eff0f1;}.ColorScheme-Highlight{color:#3498db;}.ColorScheme-ViewText{color:#31363b;}.ColorScheme-ViewBackground{color:#fcfcfc;}.ColorScheme-ViewHover{color:#93cee9;}.ColorScheme-ViewFocus{color:#3daee9;}.ColorScheme-ButtonText{color:#31363b;}.ColorScheme-ButtonBackground{color:#eff0f1;}.ColorScheme-ButtonHover{color:#93cee9;}.ColorScheme-ButtonFocus{color:#3daee9;}.ColorScheme-NegativeText { color: #e74c3c; } </style>
  <g
     transform="translate(1,1)"
     id="g1">
    <g
       transform="translate(0,-308) translate(-44,396)"
       id="network-mobile-40-5g-locked">
      <rect
         y="-88"
         x="44"
         height="22"
         width="22"
         id="rect4874-8"
         style="opacity:0.55;fill:none;fill-opacity:1;stroke:none;stroke-width:3.56737041px;stroke-linecap:butt;stroke-linejoin:miter;stroke-miterlimit:4;stroke-dasharray:none;stroke-dashoffset:0;stroke-opacity:1" />
      <path
         class="ColorScheme-Text"
         style="opacity:0.35;fill:currentColor;fill-opacity:1;fill-rule:evenodd;stroke:none;stroke-width:1px;stroke-linecap:butt;stroke-linejoin:miter;stroke-opacity:1"
         d="m 63,-85 -16,16 h 11 v -3 l 1,-1 v -2 l 1,-1 1,-1 h 2 z"
         id="path4876-4" />
      <path
         class="ColorScheme-Text"
         id="path4878-5"
         d="m 62,-76 c -1.108,0 -2,0.892 -2,2 v 2 h -1 v 3 h 6 v -3 h -1 v -2 c 0,-1.108 -0.892,-2 -2,-2 z m 0,1 c 0.554,0 1,0.446 1,1 v 2 h -2 v -2 c 0,-0.554 0.446,-1 1,-1 z"
         style="opacity:1;fill:currentColor;fill-opacity:1;stroke:none;stroke-width:0.1;stroke-miterlimit:4;stroke-dasharray:none;stroke-opacity:1" />
      <path
         class="ColorScheme-Text"
         id="path4896-0"
         d="M 57,-79 47,-69 H 57 Z"
         style="opacity:1;fill:currentColor;fill-opacity:1;fill-rule:evenodd;stroke:none;stroke-width:1px;stroke-linecap:butt;stroke-linejoin:miter;stroke-opacity:1" />
      <path
         class="ColorScheme-Text"
         id="path5074-3"
         d="m 52,-85 v 4 1 h 4 v -1 -1 -1 h -2 v 1 h 1 v 1 h -2 v -3 h 3 v -1 h -3 z"
         style="opacity:1;fill:currentColor;fill-opacity:1;stroke:none" />
      <path
         style="opacity:1;fill:currentColor;fill-opacity:1;stroke:none;stroke-width:1;stroke-miterlimit:4;stroke-dasharray:none;stroke-opacity:1"
         d="m 47,-85 v 3 h 3 v 1 h -3 v 1 h 3 1 v -3 h -3 v -1 h 3 v -1 z"
         id="rect1642-9"
         class="ColorScheme-Text" />
    </g>
  </g>
  <path
     style="opacity:0.3;fill:#ffffff;stroke:#cccccc;stroke-width:0.0324763"
     d="m 13.997294,14.995874 v -4.9933 l 2.979768,-2.9796361 c 1.638872,-1.6387999 2.990699,-2.9796361 3.004059,-2.9796361 0.01336,0 0.02429,1.7902571 0.02429,3.9783491 V 12 h -1.015586 -1.015586 l -0.997946,0.999858 -0.997946,0.999857 v 1.005962 1.005961 l -0.487145,0.486332 -0.487144,0.486333 v 1.502436 1.502436 h -0.503383 -0.503383 z"
     id="path1" />
  <path
     style="opacity:1;fill:#ffffff;stroke:#cccccc;stroke-width:0.0324763"
     d="m 8.9959405,15.036536 c 2.7239075,-2.723951 4.9562305,-4.952639 4.9607175,-4.952639 0.0045,0 0.0082,2.228688 0.0082,4.952639 v 4.952639 H 9.0040995 4.0433816 Z"
     id="path2" />
  <path
     style="opacity:1;fill:#ffffff;stroke:#cccccc;stroke-width:0.0324763"
     d="m 16.010825,18.495264 v -1.493911 h 0.501252 0.501252 l 0.0117,-1.209743 c 0.01092,-1.128403 0.01623,-1.221801 0.07903,-1.389092 0.247942,-0.660463 0.650887,-1.065042 1.286362,-1.291578 0.200478,-0.07147 0.289267,-0.08368 0.608224,-0.08368 0.320303,0 0.407392,0.01208 0.611678,0.08488 0.539448,0.192236 0.926636,0.531104 1.158011,1.013493 0.07752,0.161619 0.156789,0.371296 0.176155,0.465951 0.02129,0.104037 0.03521,0.614576 0.03521,1.290934 v 1.118834 h 0.503383 0.503383 v 1.493911 1.493911 h -2.987821 -2.987822 z m 3.988017,-2.638701 -0.0097,-1.14479 -0.0865,-0.162382 c -0.111829,-0.209919 -0.294326,-0.384188 -0.49807,-0.475613 -0.223729,-0.100393 -0.58884,-0.103405 -0.799645,-0.0066 -0.205435,0.09434 -0.406158,0.283298 -0.51005,0.48015 l -0.08679,0.164443 -0.0097,1.14479 -0.0097,1.14479 h 1.009862 1.009862 z"
     id="path3" />
  <path
     style="opacity:1;fill:#ffffff;stroke:#cccccc;stroke-width:0.0324763"
     d="M 9.0284168,6.4952639 V 4.0108254 h 1.9810552 1.981056 V 4.4979702 4.985115 h -1.493911 -1.493911 v 1.5101489 1.5101488 h 1.006766 1.006766 V 7.5020298 6.9986468 H 11.512855 11.009472 V 6.511502 6.0243572 H 12 12.990528 V 7.5020298 8.9797023 H 11.009472 9.0284168 Z"
     id="path4" />
  <path
     style="opacity:1;fill:#ffffff;stroke:#cccccc;stroke-width:0.0324763"
     d="M 4.0270636,8.4925575 V 8.0054127 H 5.5209743 7.014885 V 7.5020298 6.9986468 H 5.5209743 4.0270636 V 5.5047361 4.0108254 H 6.0081191 7.9891746 V 4.4979702 4.985115 H 6.4952639 5.0013532 V 5.5047361 6.0243572 H 6.4952639 7.9891746 V 7.5020298 8.9797023 H 6.0081191 4.0270636 Z"
     id="path5" />
</svg>
