<?xml version="1.0" encoding="UTF-8" standalone="no"?>
<svg
   width="24"
   height="24"
   viewBox="0 0 24 24"
   version="1.1"
   id="svg1"
   sodipodi:docname="network-wired-activated-locked.svg"
   inkscape:version="1.3.2 (091e20ef0f, 2023-11-25, custom)"
   xmlns:inkscape="http://www.inkscape.org/namespaces/inkscape"
   xmlns:sodipodi="http://sodipodi.sourceforge.net/DTD/sodipodi-0.dtd"
   xmlns="http://www.w3.org/2000/svg"
   xmlns:svg="http://www.w3.org/2000/svg">
  <defs
     id="defs1" />
  <sodipodi:namedview
     id="namedview1"
     pagecolor="#505050"
     bordercolor="#ffffff"
     borderopacity="1"
     inkscape:showpageshadow="0"
     inkscape:pageopacity="0"
     inkscape:pagecheckerboard="1"
     inkscape:deskcolor="#d1d1d1"
     inkscape:zoom="49.333333"
     inkscape:cx="11.989865"
     inkscape:cy="12"
     inkscape:window-width="2560"
     inkscape:window-height="1388"
     inkscape:window-x="2560"
     inkscape:window-y="28"
     inkscape:window-maximized="1"
     inkscape:current-layer="svg1" />
  <style
     type="text/css"
     id="current-color-scheme">.ColorScheme-Text{color:#31363b;}.ColorScheme-Background{color:#eff0f1;}.ColorScheme-Highlight{color:#3498db;}.ColorScheme-ViewText{color:#31363b;}.ColorScheme-ViewBackground{color:#fcfcfc;}.ColorScheme-ViewHover{color:#93cee9;}.ColorScheme-ViewFocus{color:#3daee9;}.ColorScheme-ButtonText{color:#31363b;}.ColorScheme-ButtonBackground{color:#eff0f1;}.ColorScheme-ButtonHover{color:#93cee9;}.ColorScheme-ButtonFocus{color:#3daee9;}.ColorScheme-NegativeText { color: #e74c3c; } </style>
  <g
     transform="translate(1,1)"
     id="g1">
    <g
       id="network-wired-activated-locked"
       transform="translate(-22,0)">
      <path
         class="ColorScheme-Text"
         id="path4571"
         d="m 25,3 0,6 2,0 0,7 c 0,1.662 1.338,3 3,3 l 1,0 1,0 2,0 0,-5 -5,0 0,1 0,1 1,0 1,0 0,1 0,0.726562 L 31,18 30,18 c -1.108,0 -2,-0.892 -2,-2 l 0,-7 2,0 0,-6 -5,0 z m 6,0 0,1 9,0 0,7 1,0 0,-8 -1,0 -9,0 z m -5,1 3,0 0,4 -3,0 0,-4 z m 1,1 0,2 1,0 0,-2 -1,0 z m -2,5 0,6 1,0 0,-6 -1,0 z m 13,2 c -1.108,0 -2,0.892 -2,2 l 0,2 -1,0 0,3 6,0 0,-3 -1,0 0,-2 c 0,-1.108 -0.892,-2 -2,-2 z m 0,1 c 0.554,0 1,0.446 1,1 l 0,2 -2,0 0,-2 c 0,-0.554 0.446,-1 1,-1 z"
         style="opacity:1;fill:currentColor;fill-opacity:1;stroke:none" />
      <rect
         y="0"
         x="22"
         height="22"
         width="22"
         id="rect4574"
         style="opacity:1;fill:none;fill-opacity:1;stroke:none" />
    </g>
  </g>
  <path
     style="opacity:0.3;fill:#ffffff;stroke:#cccccc;stroke-width:0.0202703"
     d="M 8.6756757,19.973349 C 8.0112018,19.904371 7.364686,19.593839 6.8961736,19.118623 6.6787506,18.89809 6.6454236,18.858181 6.5121701,18.658784 6.3667697,18.44121 6.2516088,18.20187 6.1621482,17.93133 6.0004285,17.442269 6.0119059,17.754978 6.0048965,13.646959 L 5.998645,9.9831081 H 5.0060792 4.0135135 V 6.9932432 4.0033784 H 6.5067568 9 V 6.9932432 9.9831081 H 7.9962484 6.9924969 l 0.00544,3.6739869 0.00544,3.673986 0.044388,0.155583 c 0.1091321,0.382515 0.2788328,0.678132 0.5361177,0.933912 0.2495266,0.248066 0.5171586,0.404793 0.8789454,0.514715 0.180373,0.0548 0.1901556,0.05552 0.8665541,0.0634 l 0.6841219,0.008 V 18.00164 16.996622 H 9.0101351 8.0067568 V 16.003378 15.010135 H 10.5 12.993243 v 2.493243 2.493244 l -2.072635,-0.0027 c -1.1399492,-0.0015 -2.1501688,-0.01074 -2.2449323,-0.02058 z M 8.0067568,7.0033784 V 4.9966216 H 6.4966216 4.9864865 v 2.0067568 2.0067567 h 1.5101351 1.5101352 z"
     id="path1" />
  <path
     style="opacity:0.3;fill:#ffffff;stroke:#cccccc;stroke-width:0.0202703"
     d="M 4.0135135,14.006757 V 11.016892 H 4.5 4.9864865 v 2.989865 2.989865 H 4.5 4.0135135 Z"
     id="path2" />
  <path
     style="opacity:0.3;fill:#ffffff;stroke:#cccccc;stroke-width:0.0202703"
     d="M 6,7.0033784 V 6.0101351 H 6.4966216 6.9932432 V 7.0033784 7.9966216 H 6.4966216 6 Z"
     id="path3" />
  <path
     style="opacity:0.3;fill:#ffffff;stroke:#cccccc;stroke-width:0.0202703"
     d="M 19.013514,8.4932432 V 4.9966216 h -4.5 -4.5 V 4.5 4.0033784 H 15 19.986486 V 7.9966216 11.989865 H 19.5 19.013514 Z"
     id="path4" />
  <path
     style="opacity:1;fill:#ffffff;stroke:#cccccc;stroke-width:0.0202703"
     d="M 14.006757,18.506757 V 17.016892 H 14.503378 15 l 5.23e-4,-0.998311 c 5.52e-4,-1.052843 0.01384,-1.307143 0.08115,-1.552487 0.255767,-0.93228 1.181245,-1.556608 2.138196,-1.442429 0.8419,0.100452 1.495971,0.675526 1.71756,1.510119 0.04101,0.154466 0.04342,0.217235 0.05064,1.322635 l 0.0076,1.160473 h 0.495417 0.495416 v 1.489865 1.489865 h -2.98988 -2.989865 z M 18,15.924433 c 0,-1.032488 -0.0022,-1.099612 -0.04024,-1.222746 -0.18595,-0.602035 -0.859054,-0.878333 -1.436627,-0.589712 -0.148049,0.07398 -0.342639,0.269558 -0.413175,0.415269 -0.115226,0.238028 -0.116714,0.256127 -0.116714,1.419582 v 1.070066 H 16.996622 18 Z"
     id="path5" />
</svg>
