<?xml version="1.0" encoding="UTF-8" standalone="no"?>
<svg
   width="24"
   height="24"
   viewBox="0 0 24 24"
   version="1.1"
   id="svg1"
   sodipodi:docname="network-vpn.svg"
   inkscape:version="1.3.2 (091e20ef0f, 2023-11-25, custom)"
   xmlns:inkscape="http://www.inkscape.org/namespaces/inkscape"
   xmlns:sodipodi="http://sodipodi.sourceforge.net/DTD/sodipodi-0.dtd"
   xmlns="http://www.w3.org/2000/svg"
   xmlns:svg="http://www.w3.org/2000/svg">
  <defs
     id="defs1" />
  <sodipodi:namedview
     id="namedview1"
     pagecolor="#505050"
     bordercolor="#ffffff"
     borderopacity="1"
     inkscape:showpageshadow="0"
     inkscape:pageopacity="0"
     inkscape:pagecheckerboard="1"
     inkscape:deskcolor="#d1d1d1"
     inkscape:zoom="49.333333"
     inkscape:cx="11.989865"
     inkscape:cy="12"
     inkscape:window-width="2560"
     inkscape:window-height="1388"
     inkscape:window-x="2560"
     inkscape:window-y="28"
     inkscape:window-maximized="1"
     inkscape:current-layer="svg1" />
  <style
     type="text/css"
     id="current-color-scheme">.ColorScheme-Text{color:#31363b;}.ColorScheme-Background{color:#eff0f1;}.ColorScheme-Highlight{color:#3498db;}.ColorScheme-ViewText{color:#31363b;}.ColorScheme-ViewBackground{color:#fcfcfc;}.ColorScheme-ViewHover{color:#93cee9;}.ColorScheme-ViewFocus{color:#3daee9;}.ColorScheme-ButtonText{color:#31363b;}.ColorScheme-ButtonBackground{color:#eff0f1;}.ColorScheme-ButtonHover{color:#93cee9;}.ColorScheme-ButtonFocus{color:#3daee9;}.ColorScheme-NegativeText { color: #e74c3c; } </style>
  <g
     transform="translate(1,1)"
     id="g1">
    <g
       id="network-vpn"
       transform="translate(-22,-128)">
      <rect
         style="opacity:1;fill:none;fill-opacity:1;stroke:none"
         id="rect6813"
         width="22.000004"
         height="22.000004"
         x="22.000002"
         y="127.99998" />
      <path
         class="ColorScheme-Text"
         style="fill:currentColor;fill-opacity:1;stroke:none"
         d="m 33.000002,130.99999 c 0,0 -2,2.65752 -8,3.32422 0,0 0,9.33388 8,12.67578 8,-3.3419 8,-12.67578 8,-12.67578 -6,-0.6667 -8,-3.32422 -8,-3.32422 z m 0,1.37695 c 1.587,1.3447 3.87716,2.24176 6.8457,2.69336 -0.16126,1.4452 -0.31587,2.53279 -0.68945,3.58399 -0.78509,2.2091 -1.70047,3.55303 -2.52148,4.51953 -1.27223,1.4977 -2.42758,2.10383 -3.63477,2.70703 -1.20719,-0.6032 -2.36254,-1.20933 -3.63477,-2.70703 -0.821,-0.9665 -1.73639,-2.31043 -2.52148,-4.51953 -0.37358,-1.0512 -0.52819,-2.13879 -0.68945,-3.58399 2.96854,-0.5516 5.2587,-1.34866 6.8457,-2.69336 z m 0,1.19922 c -1.74349,1.2103 -3.70215,1.82324 -5.66797,2.24024 0.93085,5.282 2.93609,7.54067 5.66797,8.95507 2.73189,-1.4144 4.73712,-3.67307 5.66797,-8.95507 -1.96582,-0.417 -3.92448,-1.02994 -5.66797,-2.24024 z"
         id="path4943-9-4-1-2" />
    </g>
  </g>
  <path
     style="opacity:1;fill:#ffffff;stroke:#cccccc;stroke-width:0.0202703"
     d="M 11.823403,17.666487 C 8.9227253,16.134344 7.2829919,13.594592 6.4374748,9.3243243 6.3977408,9.1236486 6.3628683,8.9286414 6.3599805,8.8909749 L 6.3547305,8.8224899 6.68919,8.7462889 c 2.1150774,-0.4818838 3.706725,-1.1083362 5.057064,-1.9903968 0.133581,-0.087257 0.254954,-0.1540144 0.269718,-0.1483492 0.01476,0.00567 0.115266,0.068157 0.22334,0.1388705 0.391277,0.256015 0.903058,0.5485223 1.223247,0.699145 0.07076,0.033287 0.228995,0.1080869 0.35163,0.1662213 0.891471,0.4225957 2.327111,0.8840918 3.597973,1.1565919 0.117061,0.0251 0.220116,0.051892 0.229012,0.059537 0.03835,0.03296 -0.29955,1.5636604 -0.494407,2.2396594 -0.403089,1.398397 -0.961433,2.654793 -1.601708,3.604192 -0.84693,1.255826 -1.916583,2.208622 -3.355776,2.989166 l -0.185717,0.100723 z"
     id="path1" />
  <path
     style="opacity:1;fill:#ffffff;stroke:#cccccc;stroke-width:0.0202703"
     d="M 11.753064,19.882008 C 10.697199,19.417991 9.6643498,18.770257 8.7796405,18.017275 8.4717004,17.755185 7.7803563,17.068511 7.527557,16.773649 6.4372989,15.501986 5.6245396,14.089334 5.0026568,12.385135 4.5006904,11.009553 4.1422563,9.3433342 4.0346248,7.8851351 4.0041693,7.472522 4.006485,7.3277027 4.043538,7.3277027 c 0.016514,0 0.2012264,-0.02304 0.410473,-0.0512 C 6.9856932,6.9357918 9.0627531,6.2248719 10.672297,5.148156 11.123893,4.8460575 11.403288,4.6215796 11.731192,4.2973925 l 0.268353,-0.265312 0.278944,0.2745283 c 1.552773,1.5281954 4.304974,2.6201188 7.591443,3.0118717 l 0.116554,0.013894 -2.72e-4,0.1446237 c -3.39e-4,0.180121 -0.0485,0.7756541 -0.09067,1.1210759 -0.209763,1.7183869 -0.691088,3.4585859 -1.364243,4.9323319 -0.96075,2.10338 -2.296081,3.780126 -4.015599,5.042301 -0.680608,0.499586 -1.513932,0.980543 -2.286287,1.319541 l -0.226666,0.09949 z m 0.610085,-1.174658 c 1.256235,-0.651731 1.892565,-1.1023 2.6989,-1.91102 1.307442,-1.311308 2.246044,-2.842678 3.030891,-4.945025 0.265928,-0.712334 0.442033,-1.432628 0.585611,-2.3952239 C 18.725461,9.1415621 18.851239,8.1440258 18.85132,8.085838 18.851338,8.072922 18.734284,8.044602 18.572635,8.018413 16.410299,7.6680922 14.533123,7.0314612 13.121503,6.1697003 12.763425,5.9511018 12.136488,5.5033474 12.060808,5.4121587 12.019728,5.3626606 11.988822,5.3752533 11.823153,5.50899 11.112651,6.0825456 10.134609,6.616514 9.0304054,7.0337074 8.0724878,7.3956308 6.9082551,7.7143733 5.5844595,7.9771348 c -0.2341217,0.046471 -0.4286698,0.087303 -0.4323292,0.090738 -0.00978,0.00918 0.070367,0.6843675 0.1406054,1.1844467 0.1472164,1.0481465 0.3100769,1.7530825 0.5749419,2.4886165 0.7419155,2.060309 1.721482,3.68511 3.0201214,5.009456 0.7827381,0.798232 1.490063,1.303038 2.727066,1.946259 0.195101,0.10145 0.36764,0.184601 0.383419,0.18478 0.01578,1.79e-4 0.179969,-0.07816 0.364865,-0.174081 z"
     id="path2" />
</svg>
