<?xml version="1.0" encoding="UTF-8" standalone="no"?>
<svg
   version="1.1"
   viewBox="0 0 24 24"
   width="24"
   height="24"
   id="svg2"
   sodipodi:docname="network-wired-available.svg"
   inkscape:version="1.3.2 (091e20ef0f, 2023-11-25, custom)"
   xmlns:inkscape="http://www.inkscape.org/namespaces/inkscape"
   xmlns:sodipodi="http://sodipodi.sourceforge.net/DTD/sodipodi-0.dtd"
   xmlns="http://www.w3.org/2000/svg"
   xmlns:svg="http://www.w3.org/2000/svg">
  <defs
     id="defs2" />
  <sodipodi:namedview
     id="namedview2"
     pagecolor="#505050"
     bordercolor="#ffffff"
     borderopacity="1"
     inkscape:showpageshadow="0"
     inkscape:pageopacity="0"
     inkscape:pagecheckerboard="1"
     inkscape:deskcolor="#d1d1d1"
     inkscape:zoom="49.333333"
     inkscape:cx="11.989865"
     inkscape:cy="12"
     inkscape:window-width="2560"
     inkscape:window-height="1388"
     inkscape:window-x="2560"
     inkscape:window-y="28"
     inkscape:window-maximized="1"
     inkscape:current-layer="svg2" />
  <style
     type="text/css"
     id="current-color-scheme">.ColorScheme-Text{color:#31363b;}.ColorScheme-Highlight { color: #3498db; } </style>
  <g
     transform="translate(1,1)"
     id="g2">
    <path
       class="ColorScheme-Text"
       d="m9 3v1h9v10h-11v1 1h1 1v1 0.726562 0.273438 1h1 2 3v-1h-1-1v-2h1 4 1v-13h-1-9zm-6 7v6h1v-6h-1z"
       fill="currentColor"
       id="path1" />
    <path
       class="ColorScheme-Highlight"
       d="m3 3v6h2v7c0 1.662 1.338 3 3 3h1v-1h-1c-1.108 0-2-0.892-2-2v-7h2v-6zm1 1h3v4h-3zm1 1v2h1v-2z"
       fill="currentColor"
       id="path2" />
    <rect
       width="22"
       height="22"
       fill="none"
       id="rect2" />
  </g>
  <path
     style="fill:#ffffff;stroke:#cccccc;stroke-width:0.0202703;opacity:0.3"
     d="m 10.013514,18.496622 v -1.5 H 9.0101351 8.0067568 v -0.993244 -0.993243 h 5.5033782 5.503379 V 10.003378 4.9966216 h -4.5 -4.5 V 4.5 4.0033784 H 15 19.986486 V 10.5 16.996622 h -3 -3 V 18 19.003378 h 1.003379 1.003378 V 19.5 19.996622 h -2.989865 -2.989864 z"
     id="path3" />
  <path
     style="opacity:0.3;fill:#ffffff;stroke:#cccccc;stroke-width:0.0202703"
     d="M 4.0135135,14.006757 V 11.016892 H 4.5 4.9864865 v 2.989865 2.989865 H 4.5 4.0135135 Z"
     id="path4" />
</svg>
