<?xml version="1.0" encoding="UTF-8" standalone="no"?>
<svg
   width="24"
   height="24"
   viewBox="0 0 24 24"
   version="1.1"
   id="svg1"
   sodipodi:docname="network-unavailable.svg"
   inkscape:version="1.3.2 (091e20ef0f, 2023-11-25, custom)"
   xmlns:inkscape="http://www.inkscape.org/namespaces/inkscape"
   xmlns:sodipodi="http://sodipodi.sourceforge.net/DTD/sodipodi-0.dtd"
   xmlns="http://www.w3.org/2000/svg"
   xmlns:svg="http://www.w3.org/2000/svg">
  <defs
     id="defs1" />
  <sodipodi:namedview
     id="namedview1"
     pagecolor="#505050"
     bordercolor="#ffffff"
     borderopacity="1"
     inkscape:showpageshadow="0"
     inkscape:pageopacity="0"
     inkscape:pagecheckerboard="1"
     inkscape:deskcolor="#d1d1d1"
     inkscape:zoom="30.791667"
     inkscape:cx="11.983762"
     inkscape:cy="11.983762"
     inkscape:window-width="2560"
     inkscape:window-height="1388"
     inkscape:window-x="2560"
     inkscape:window-y="28"
     inkscape:window-maximized="1"
     inkscape:current-layer="svg1" />
  <style
     type="text/css"
     id="current-color-scheme">.ColorScheme-Text{color:#31363b;}.ColorScheme-Background{color:#eff0f1;}.ColorScheme-Highlight{color:#3498db;}.ColorScheme-ViewText{color:#31363b;}.ColorScheme-ViewBackground{color:#fcfcfc;}.ColorScheme-ViewHover{color:#93cee9;}.ColorScheme-ViewFocus{color:#3daee9;}.ColorScheme-ButtonText{color:#31363b;}.ColorScheme-ButtonBackground{color:#eff0f1;}.ColorScheme-ButtonHover{color:#93cee9;}.ColorScheme-ButtonFocus{color:#3daee9;}.ColorScheme-NegativeText { color: #e74c3c; } </style>
  <g
     transform="translate(1,1)"
     id="g1">
    <g
       id="network-unavailable"
       transform="translate(-226,-76) translate(44,0)">
      <path
         sodipodi:nodetypes="cccssccccccccccccssccccccccccccccccccccccccccc"
         style="opacity:0.35;fill:currentColor;fill-opacity:1;stroke:none"
         d="m 185,79 v 6 h 2 v 7 c 0,1.662 1.338,3 3,3 h 1 1 2 v -5 h -5 v 1 1 h 1 1 V 93 93.726562 94 h -1 c -1.108,0 -2,-0.892 -2,-2 v -7 h 2 v -6 z m 6,0 v 1 h 9 v 7 h 1 v -8 h -1 z m -5,1 h 3 v 4 h -3 z m 1,1 v 2 h 1 v -2 z m -2,5 v 6 h 1 v -6 z"
         id="path1595"
         class="ColorScheme-Text"
         inkscape:connector-curvature="0" />
      <rect
         style="opacity:1;fill:none;fill-opacity:1;stroke:none"
         id="rect1597"
         width="22"
         height="22"
         x="182"
         y="76" />
      <path
         id="path1609"
         d="M 195.84845,89.003252 195,89.851689 197.15156,92.003252 195,94.154815 l 0.84845,0.848437 2.15156,-2.151564 2.15154,2.151564 L 201,94.154815 198.84844,92.003252 201,89.851689 l -0.84845,-0.848437 -2.15154,2.151563 z"
         class="ColorScheme-NegativeText"
         style="fill:currentColor;fill-opacity:1;stroke:none;stroke-width:1.19999874"
         inkscape:connector-curvature="0" />
    </g>
  </g>
  <path
     style="opacity:0.3;fill:#ffffff;stroke:#cccccc;stroke-width:0.0324763"
     d="M 8.5106234,19.952263 C 7.4500446,19.776384 6.5360278,19.014133 6.1866653,18.01418 6.0071547,17.500381 6.0081191,17.524206 6.0081191,13.603324 V 9.9864682 H 5.0013532 3.9945873 V 6.9986468 4.0108254 H 6.4952639 8.9959405 V 6.9986468 9.9864682 H 7.9891746 6.9824087 v 3.5737648 c 0,4.008303 -0.0085,3.850726 0.234528,4.346114 0.2308982,0.470657 0.6748472,0.846513 1.2050105,1.020185 0.1677424,0.05495 0.3133123,0.06813 0.8906374,0.08065 l 0.6901214,0.01496 V 18.011746 17.001353 H 9.0121786 8.0216509 v -0.990528 -0.990527 h 2.4844381 2.484439 v 2.484438 2.484439 l -2.151556,-0.0038 C 9.6556157,19.98329 8.6078592,19.968388 8.5106234,19.952263 Z M 8.0137796,7.0067659 8.0054127,5.0013532 6.5033829,4.9929098 5.0013532,4.9844663 v 2.0138562 2.0138561 h 1.5103966 1.5103967 z"
     id="path1" />
  <path
     style="opacity:0.3;fill:#ffffff;stroke:#cccccc;stroke-width:0.0324763"
     d="M 3.9945873,14.013532 V 11.02571 h 0.5033829 0.503383 v 2.987822 2.987821 H 4.4979702 3.9945873 Z"
     id="path2" />
  <path
     style="opacity:0.3;fill:#ffffff;stroke:#cccccc;stroke-width:0.0324763"
     d="M 6.0081191,6.9986468 V 6.0243572 H 6.4952639 6.9824087 V 6.9986468 7.9729364 H 6.4952639 6.0081191 Z"
     id="path3" />
  <path
     style="opacity:0.3;fill:#ffffff;stroke:#cccccc;stroke-width:0.0324763"
     d="M 18.998647,8.4925575 V 4.985115 h -4.49797 -4.497971 V 4.4979702 4.0108254 h 5.001354 5.001353 V 8.0054127 12 H 19.50203 18.998647 Z"
     id="path4" />
</svg>
