<?xml version="1.0" encoding="UTF-8" standalone="no"?>
<svg
   id="svg6"
   version="1.1"
   viewBox="0 0 24 24"
   width="24"
   height="24"
   sodipodi:docname="network-wired-unavailable.svg"
   inkscape:version="1.3.2 (091e20ef0f, 2023-11-25, custom)"
   xmlns:inkscape="http://www.inkscape.org/namespaces/inkscape"
   xmlns:sodipodi="http://sodipodi.sourceforge.net/DTD/sodipodi-0.dtd"
   xmlns="http://www.w3.org/2000/svg"
   xmlns:svg="http://www.w3.org/2000/svg">
  <defs
     id="defs1" />
  <sodipodi:namedview
     id="namedview1"
     pagecolor="#505050"
     bordercolor="#ffffff"
     borderopacity="1"
     inkscape:showpageshadow="0"
     inkscape:pageopacity="0"
     inkscape:pagecheckerboard="1"
     inkscape:deskcolor="#d1d1d1"
     inkscape:zoom="49.333333"
     inkscape:cx="11.989865"
     inkscape:cy="12"
     inkscape:window-width="2560"
     inkscape:window-height="1388"
     inkscape:window-x="2560"
     inkscape:window-y="28"
     inkscape:window-maximized="1"
     inkscape:current-layer="svg6" />
  <style
     id="current-color-scheme"
     type="text/css">.ColorScheme-Text{color:#232629;}.ColorScheme-NegativeText { color: #da4453; } </style>
  <g
     transform="translate(1,1)"
     id="g1">
    <path
       id="path1595"
       class="ColorScheme-Text"
       d="m3 3v6h2v7c0 1.662 1.338 3 3 3h4v-5h-5v2h2v2h-1c-1.108 0-2-0.892-2-2v-7h2v-6zm6 0v1h9v7h1v-8h-1zm-5 1h3v4h-3zm1 1v2h1v-2zm-2 5v6h1v-6z"
       fill="currentColor"
       opacity=".5" />
    <path
       id="path1609"
       class="ColorScheme-NegativeText"
       d="M 13.84845,13.003252 13,13.851689 15.15156,16.003252 13,18.154815 l 0.84845,0.848437 2.15156,-2.151564 2.15154,2.151564 L 19,18.154815 16.84844,16.003252 19,13.851689 18.15155,13.003252 16.00001,15.154815 Z"
       fill="currentColor" />
  </g>
  <path
     style="opacity:0.3;fill:#ffffff;stroke:#cccccc;stroke-width:0.0202703"
     d="M 8.6756757,19.973349 C 8.0093749,19.904182 7.3672133,19.595873 6.8910618,19.116537 6.6502058,18.87407 6.4939948,18.661186 6.3474742,18.375738 6.1497377,17.990513 6.0567059,17.66307 6.0203542,17.224378 6.0085958,17.082476 6.0005122,15.573545 6.0003209,13.484797 L 6,9.9831081 H 5.0067568 4.0135135 V 6.9932432 4.0033784 H 6.5067568 9 V 6.9932432 9.9831081 H 7.9966216 6.9932432 v 3.5953179 c 0,3.85997 -0.00263,3.754601 0.1011538,4.056709 0.1998144,0.581664 0.6573904,1.051186 1.2176598,1.249449 0.2923364,0.10345 0.4338539,0.118794 1.0955879,0.118794 H 10.013514 V 18 16.996622 H 9.0101351 8.0067568 V 16.003378 15.010135 H 10.5 12.993243 v 2.493243 2.493244 l -2.072635,-0.0027 c -1.1399492,-0.0015 -2.1501688,-0.01074 -2.2449323,-0.02058 z M 8.0067568,7.0033784 V 4.9966216 H 6.4966216 4.9864865 v 2.0067568 2.0067567 h 1.5101351 1.5101352 z"
     id="path1" />
  <path
     style="opacity:0.3;fill:#ffffff;stroke:#cccccc;stroke-width:0.0202703"
     d="M 4.0135135,14.006757 V 11.016892 H 4.5 4.9864865 v 2.989865 2.989865 H 4.5 4.0135135 Z"
     id="path2" />
  <path
     style="opacity:0.3;fill:#ffffff;stroke:#cccccc;stroke-width:0.0202703"
     d="M 6,7.0033784 V 6.0101351 H 6.4966216 6.9932432 V 7.0033784 7.9966216 H 6.4966216 6 Z"
     id="path3" />
  <path
     style="opacity:0.3;fill:#ffffff;stroke:#cccccc;stroke-width:0.0202703"
     d="M 19.013514,8.4932432 V 4.9966216 h -4.5 -4.5 V 4.5 4.0033784 H 15 19.986486 V 7.9966216 11.989865 H 19.5 19.013514 Z"
     id="path4" />
</svg>
