<?xml version="1.0" encoding="UTF-8" standalone="no"?>
<svg
   width="24"
   height="24"
   viewBox="0 0 24 24"
   version="1.1"
   id="svg1"
   sodipodi:docname="network-wireless-connected-60.svg"
   inkscape:version="1.3.2 (091e20ef0f, 2023-11-25, custom)"
   xmlns:inkscape="http://www.inkscape.org/namespaces/inkscape"
   xmlns:sodipodi="http://sodipodi.sourceforge.net/DTD/sodipodi-0.dtd"
   xmlns="http://www.w3.org/2000/svg"
   xmlns:svg="http://www.w3.org/2000/svg">
  <defs
     id="defs1" />
  <sodipodi:namedview
     id="namedview1"
     pagecolor="#505050"
     bordercolor="#ffffff"
     borderopacity="1"
     inkscape:showpageshadow="0"
     inkscape:pageopacity="0"
     inkscape:pagecheckerboard="1"
     inkscape:deskcolor="#d1d1d1"
     inkscape:zoom="30.791667"
     inkscape:cx="11.983762"
     inkscape:cy="11.983762"
     inkscape:window-width="2560"
     inkscape:window-height="1388"
     inkscape:window-x="2560"
     inkscape:window-y="28"
     inkscape:window-maximized="1"
     inkscape:current-layer="svg1" />
  <style
     type="text/css"
     id="current-color-scheme">.ColorScheme-Text{color:#31363b;}.ColorScheme-Background{color:#eff0f1;}.ColorScheme-Highlight{color:#3498db;}.ColorScheme-ViewText{color:#31363b;}.ColorScheme-ViewBackground{color:#fcfcfc;}.ColorScheme-ViewHover{color:#93cee9;}.ColorScheme-ViewFocus{color:#3daee9;}.ColorScheme-ButtonText{color:#31363b;}.ColorScheme-ButtonBackground{color:#eff0f1;}.ColorScheme-ButtonHover{color:#93cee9;}.ColorScheme-ButtonFocus{color:#3daee9;}.ColorScheme-NegativeText { color: #e74c3c; } </style>
  <g
     transform="translate(1,1)"
     id="g1">
    <g
       transform="translate(0,22) translate(-22,-44)"
       id="network-wireless-connected-60">
      <rect
         style="opacity:0.55;fill:none;fill-opacity:1;stroke:none;stroke-width:3.56737041px;stroke-linecap:butt;stroke-linejoin:miter;stroke-miterlimit:4;stroke-dasharray:none;stroke-dashoffset:0;stroke-opacity:1"
         id="rect4454"
         width="22"
         height="22"
         x="22"
         y="22" />
      <path
         class="ColorScheme-Text"
         id="path4456"
         d="m 33,25 c -4.155,0 -7.90594,1.67156 -10.61719,4.38281 L 23.0918,30.0918 C 25.6223,27.5613 29.122,26 33,26 c 3.878,0 7.3777,1.5613 9.9082,4.0918 l 0.70899,-0.70899 C 40.90594,26.67156 37.155,25 33,25 Z"
         style="opacity:0.35;fill:currentColor;fill-opacity:1;stroke:none" />
      <path
         class="ColorScheme-Text"
         id="path4458"
         d="m 33,29 c -3.047,0 -5.79691,1.22659 -7.78516,3.21484 l 0.70704,0.70704 C 27.72938,31.11437 30.23,30 33,30 c 2.77,0 5.27062,1.11437 7.07813,2.92188 l 0.70703,-0.70704 C 38.79691,30.22659 36.047,29 33,29 Z"
         style="opacity:0.35;fill:currentColor;fill-opacity:1;stroke:none" />
      <path
         class="ColorScheme-Text"
         id="path4460"
         d="m 33,33 c -1.939,0 -3.68983,0.77967 -4.95508,2.04492 l 0.70899,0.70899 C 29.83841,34.66941 31.338,34 33,34 c 1.662,0 3.16159,0.66941 4.24609,1.75391 l 0.70899,-0.70899 C 36.68983,33.77967 34.939,33 33,33 Z"
         style="opacity:1;fill:currentColor;fill-opacity:1;stroke:none" />
      <path
         class="ColorScheme-Text"
         id="path4462"
         d="m 33,37 c -1.107996,0 -2,0.892004 -2,2 0,1.107996 0.892004,2 2,2 1.107996,0 2,-0.892004 2,-2 0,-1.107996 -0.892004,-2 -2,-2 z m 0,1 c 0.554,0 1,0.446 1,1 0,0.554 -0.446,1 -1,1 -0.554,0 -1,-0.446 -1,-1 0,-0.554 0.446,-1 1,-1 z"
         style="opacity:1;fill:currentColor;fill-opacity:1;stroke:none" />
    </g>
  </g>
  <path
     style="fill:#ffffff;stroke:#cccccc;stroke-width:0.0324763"
     d="m 7.4040206,14.384467 -0.3404211,-0.343545 0.211096,-0.193949 c 1.0326075,-0.948735 2.3729249,-1.574919 3.7834915,-1.767614 0.512342,-0.06999 1.373703,-0.06979 1.883626,4.32e-4 1.416722,0.195104 2.750483,0.818304 3.783491,1.767835 l 0.211097,0.194037 -0.343404,0.345387 -0.343403,0.345387 -0.218939,-0.198411 c -0.988961,-0.896235 -2.244569,-1.428806 -3.595636,-1.5251 -1.459382,-0.104014 -2.888721,0.312341 -4.0398904,1.176787 -0.1428959,0.107305 -0.3427581,0.273219 -0.4441385,0.368699 -0.1013803,0.09548 -0.1893275,0.173599 -0.1954382,0.173599 -0.00611,0 -0.1642997,-0.154595 -0.3515313,-0.343544 z"
     id="path1" />
  <path
     style="fill:#ffffff;stroke:#cccccc;stroke-width:0.0324763"
     d="m 11.634119,19.955286 c -0.718578,-0.128905 -1.335048,-0.702903 -1.552566,-1.445603 -0.06912,-0.236007 -0.07782,-0.707927 -0.01762,-0.956232 0.154775,-0.638449 0.608429,-1.157098 1.231628,-1.408084 0.235817,-0.09497 0.274275,-0.100634 0.688205,-0.101329 0.530561,-8.91e-4 0.751091,0.0617 1.133256,0.321634 0.395794,0.269204 0.705113,0.717775 0.819053,1.187779 0.06023,0.248467 0.05147,0.720034 -0.0178,0.958051 -0.140617,0.483161 -0.522174,0.980454 -0.927745,1.209154 -0.387378,0.218441 -0.92665,0.311723 -1.356409,0.23463 z m 0.663197,-0.988795 c 0.336145,-0.09983 0.587161,-0.370511 0.680138,-0.733437 0.09327,-0.364075 -0.01261,-0.70774 -0.298579,-0.969098 C 12.475045,17.077667 12.277761,17.001353 12,17.001353 c -0.277761,0 -0.475045,0.07631 -0.678875,0.262603 -0.22803,0.208407 -0.323111,0.421606 -0.324635,0.727925 -0.0034,0.687649 0.64109,1.17053 1.300826,0.97461 z"
     id="path2" />
  <path
     style="fill:#ffffff;stroke:#cccccc;stroke-width:0.0324763;opacity:0.3"
     d="M 4.5729973,11.555784 4.2303663,11.213153 4.4634674,10.990937 C 6.1732646,9.3609841 8.3903136,8.3473479 10.863329,8.0649163 c 0.460557,-0.052598 1.812785,-0.052598 2.273342,0 2.123822,0.2425517 3.994372,0.9915118 5.602165,2.2430817 0.187551,0.145997 0.497378,0.407398 0.688506,0.580891 l 0.347503,0.315441 -0.344879,0.347044 -0.34488,0.347044 -0.148768,-0.132349 C 18.37832,11.269656 18.19318,11.117233 17.859316,10.87939 16.391473,9.833702 14.831081,9.2406832 13.023004,9.0413744 12.556108,8.9899074 11.429023,8.9896168 10.976996,9.040847 8.7191026,9.2967437 6.8485769,10.151397 5.1127533,11.720251 l -0.197125,0.178164 z"
     id="path3" />
  <path
     style="opacity:0.3;fill:#ffffff;stroke:#cccccc;stroke-width:0.0324763"
     d="M 1.7396637,8.7220794 1.3914169,8.3727491 1.7268316,8.0619439 C 4.0401888,5.9183185 6.7998164,4.599706 9.9052774,4.1540976 10.796585,4.0262022 12.185173,3.9800475 13.104195,4.0477702 c 3.427971,0.252607 6.566053,1.6218848 9.136463,3.9866244 l 0.367857,0.338423 -0.348524,0.3496076 -0.348523,0.3496076 -0.360335,-0.331124 C 20.633249,7.8974338 19.856053,7.3340626 18.787256,6.7374402 17.57223,6.0591902 16.220417,5.5600924 14.83511,5.2782834 11.376255,4.5746587 7.7816895,5.183162 4.7962051,6.9777117 3.9360389,7.4947505 3.2321529,8.0216483 2.4810324,8.710748 L 2.0879106,9.0714093 Z"
     id="path4" />
</svg>
