<?xml version="1.0" encoding="UTF-8" standalone="no"?>
<svg
   height="24"
   width="24"
   viewBox="0 0 24 24"
   version="1.1"
   id="svg1"
   sodipodi:docname="network-flightmode-off.svg"
   inkscape:version="1.3.2 (091e20ef0f, 2023-11-25, custom)"
   xmlns:inkscape="http://www.inkscape.org/namespaces/inkscape"
   xmlns:sodipodi="http://sodipodi.sourceforge.net/DTD/sodipodi-0.dtd"
   xmlns="http://www.w3.org/2000/svg"
   xmlns:svg="http://www.w3.org/2000/svg">
  <sodipodi:namedview
     id="namedview1"
     pagecolor="#505050"
     bordercolor="#ffffff"
     borderopacity="1"
     inkscape:showpageshadow="0"
     inkscape:pageopacity="0"
     inkscape:pagecheckerboard="1"
     inkscape:deskcolor="#d1d1d1"
     inkscape:zoom="49.333333"
     inkscape:cx="11.989865"
     inkscape:cy="12"
     inkscape:window-width="2560"
     inkscape:window-height="1388"
     inkscape:window-x="2560"
     inkscape:window-y="28"
     inkscape:window-maximized="1"
     inkscape:current-layer="svg1" />
  <defs
     id="defs4157">
    <style
       id="current-color-scheme"
       type="text/css">.ColorScheme-Text{color:#31363b;}.ColorScheme-NegativeText { color: #e74c3c; } </style>
  </defs>
  <g
     transform="translate(1,1)"
     id="g1">
    <path
       id="path1816"
       d="M 14.84845,13.999854 14,14.848291 16.15156,16.999854 14,19.151417 14.84845,19.999854 17.00001,17.84829 19.15155,19.999854 20,19.151417 17.84844,16.999854 20,14.848291 19.15155,13.999854 17.00001,16.151417 Z"
       class="ColorScheme-NegativeText"
       style="fill:currentColor;fill-opacity:1;stroke:none;stroke-width:1.2" />
    <path
       class="ColorScheme-Text"
       id="path1820"
       d="M 8,3 C 5.23858,3 3,5.238576 3,8 H 4 C 4,5.790861 5.79086,4 8,4 Z m 3,0 c 0,0 -1,0 -1,3 V 8.5 L 8.90039,9.050781 V 9 H 8.09961 V 9.550781 H 8 V 9.75 l -2,1 v -0.5 H 5.9004 V 9.699219 H 5.09962 V 10.25 H 5 v 1 l -2,1 v 1 L 5.1914,12.976562 5.30078,13.25 h 0.39844 l 0.14257,-0.355469 2.75196,-0.34375 h 0.10547 l 0.006,-0.01367 L 10,12.125 V 15 c 0,0.487991 0.24052,0.971967 0.48438,1.34375 L 8,18 v 1 l 3,-1 2,0.671875 v -1.34375 L 11.51563,16.34375 C 11.75948,15.971967 12,15.487991 12,15 v -2.875 l 1.29492,0.162109 0.006,0.01367 h 0.10547 l 2.75195,0.34375 0.14258,0.355469 h 0.39844 L 16.80864,12.72656 19,13 V 12 L 17,11 V 10 H 16.9004 V 9.449219 H 16.09962 V 10 H 16 v 0.5 l -2,-1 V 9.300781 H 13.9004 V 8.75 H 13.09962 V 8.80078 L 12,8.5 V 6 C 12,3 11,3 11,3 Z M 8,5 C 6.34315,5 5,6.343146 5,8 H 6 C 6,6.895431 6.89543,6 8,6 Z M 8,7 C 8,7 7,7 7,8 h 1 z"
       style="opacity:0.35;fill:currentColor;fill-opacity:1;fill-rule:evenodd;stroke:none;stroke-width:1px;stroke-linecap:butt;stroke-linejoin:miter;stroke-opacity:1" />
  </g>
  <path
     style="opacity:0.3;fill:#ffffff;stroke:#cccccc;stroke-width:0.0202703"
     d="m 9,19.501499 v -0.491712 l 1.236486,-0.824208 c 0.680068,-0.453315 1.236487,-0.834391 1.236487,-0.846837 0,-0.01245 -0.03093,-0.07399 -0.06873,-0.136766 -0.103185,-0.171362 -0.223834,-0.420715 -0.28228,-0.583403 -0.113327,-0.315457 -0.115208,-0.347877 -0.115208,-1.985677 0,-0.829343 -0.0058,-1.507896 -0.0128,-1.507896 -0.007,0 -0.314896,0.09489 -0.684122,0.210862 l -0.6713195,0.210861 -1.3682432,0.16583 c -0.7525338,0.09121 -1.383568,0.170042 -1.4022983,0.17519 -0.02051,0.0056 -0.060821,0.07772 -0.1013514,0.181243 L 6.6993243,14.24087 6.4995105,14.2353 6.2996968,14.22973 6.2490541,14.103041 c -0.02974,-0.0744 -0.062853,-0.12669 -0.080225,-0.12669 -0.016271,0 -0.5027166,0.05929 -1.0809913,0.131757 -0.5782747,0.07247 -1.0565645,0.131757 -1.0628664,0.131757 -0.0063,0 -0.011458,-0.223462 -0.011458,-0.496581 V 13.246703 L 5.0067568,12.75 6,12.253297 v -0.496581 -0.496581 h 0.050676 0.050676 v -0.273649 -0.273648 h 0.3952702 0.3952703 v 0.273648 0.273649 h 0.050676 0.050676 v 0.243243 c 0,0.133784 0.0046,0.243244 0.010216,0.243244 0.00562,0 0.4571391,-0.223498 1.0033783,-0.496663 L 9,10.753297 v -0.101311 c 0,-0.09455 0.00338,-0.10131 0.050676,-0.10131 h 0.050676 v -0.273649 -0.273649 h 0.3935811 c 0.2965056,0 0.395822,0.0062 0.4026667,0.02534 0.00607,0.01692 0.1900632,-0.065537 0.5540542,-0.2483106 l 0.544969,-0.2736486 0.0121,-1.6418919 c 0.0077,-1.040337 0.02068,-1.7124446 0.03552,-1.8344595 0.04999,-0.4111429 0.06784,-0.5247754 0.117778,-0.7498626 0.146501,-0.6603419 0.419429,-1.1284123 0.726303,-1.2456086 0.0922,-0.03521 0.102788,-0.035372 0.205036,-0.00314 0.201531,0.063527 0.434486,0.3353348 0.567986,0.6627168 0.127118,0.3117293 0.226473,0.7442156 0.283611,1.2345444 0.02825,0.2424543 0.03637,0.5814111 0.04634,1.9358108 l 0.01209,1.6418919 0.546447,0.1495123 c 0.359218,0.098285 0.549053,0.1416926 0.554054,0.1266891 0.0053,-0.015872 0.12747,-0.022823 0.401189,-0.022823 h 0.393581 v 0.2736485 0.273648 h 0.05068 c 0.0473,0 0.05068,0.0068 0.05068,0.101311 v 0.101311 l 0.993162,0.496662 c 0.546239,0.273164 0.99776,0.496662 1.003379,0.496662 0.0056,0 0.01022,-0.108825 0.01022,-0.241833 0,-0.235358 0.0012,-0.242007 0.04561,-0.248311 0.04445,-0.0063 0.04575,-0.01355 0.05125,-0.285193 l 0.0056,-0.278717 h 0.394126 0.394127 l 0.0056,0.278717 c 0.0055,0.271648 0.0068,0.27888 0.05125,0.285193 L 18,11.019711 v 0.495172 0.495171 l 0.993243,0.496703 0.993243,0.496702 v 0.495307 0.495307 l -0.06588,-0.0099 c -0.03623,-0.0055 -0.525427,-0.0672 -1.087097,-0.137176 l -1.021219,-0.127236 -0.04472,0.102977 c -0.02459,0.05664 -0.05061,0.119273 -0.05782,0.139189 -0.01156,0.03194 -0.03621,0.03553 -0.209186,0.03041 l -0.196083,-0.0058 -0.07043,-0.16888 c -0.03874,-0.09288 -0.08064,-0.172579 -0.09312,-0.1771 -0.02523,-0.0091 -4.069814,-0.515506 -4.117578,-0.515506 -0.02637,0 -0.03012,0.187479 -0.03012,1.507896 0,1.637859 -0.0019,1.670303 -0.115232,1.985677 -0.0549,0.152743 -0.238844,0.52839 -0.309196,0.631427 -0.02284,0.03345 -0.04158,0.07078 -0.04165,0.08297 -7.4e-5,0.01218 0.328007,0.240225 0.729069,0.506756 l 0.729202,0.484603 5.27e-4,0.663852 c 2.9e-4,0.365118 -0.0062,0.663851 -0.01452,0.663851 -0.0083,0 -0.454523,-0.148226 -0.991663,-0.329392 L 12.003162,18.993243 10.501581,19.493226 9,19.99321 Z"
     id="path1" />
  <path
     style="opacity:0.3;fill:#ffffff;stroke:#cccccc;stroke-width:0.0202703"
     d="m 8.0067568,8.9318207 c 0,-0.2118079 0.1109097,-0.4804718 0.2598223,-0.6293844 C 8.422232,8.1467834 8.7226115,8.0168919 8.9269124,8.0168919 H 9 V 8.5033784 8.9898649 H 8.5033784 8.0067568 Z"
     id="path2" />
  <path
     style="opacity:0.3;fill:#ffffff;stroke:#cccccc;stroke-width:0.0202703"
     d="M 6.0088283,8.8327703 C 6.0464873,8.3974909 6.1380832,8.047453 6.3045378,7.7027027 6.7303525,6.8207823 7.537446,6.21581 8.5100224,6.0495398 8.6367934,6.0278672 8.7988993,6.0101351 8.8702575,6.0101351 H 9 V 6.5037786 6.997422 L 8.8125,7.0094835 C 8.0063272,7.0613429 7.2682474,7.6868184 7.0642456,8.4910172 7.0373865,8.5968991 7.0091649,8.7524552 7.0015311,8.8366974 l -0.01388,0.1531675 H 6.4914442 5.995237 Z"
     id="path3" />
  <path
     style="opacity:0.3;fill:#ffffff;stroke:#cccccc;stroke-width:0.0202703"
     d="m 4.0135135,8.8084707 c 0,-0.61102 0.2014343,-1.4001669 0.5192212,-2.0341214 C 4.6849213,6.4707515 4.7800221,6.3145186 4.9732431,6.0506757 5.1574296,5.7991693 5.1936786,5.7570196 5.4496717,5.4966934 5.8558574,5.0836323 6.2874628,4.7718896 6.8006757,4.5208816 7.4308028,4.2126917 8.036774,4.0548818 8.7516892,4.0127893 L 9,3.9981694 V 4.4973955 4.9966216 H 8.8877147 c -0.061757,0 -0.2008618,0.00965 -0.3091217,0.021441 C 7.1931288,5.1689795 5.9979604,6.0136857 5.3925665,7.2698424 5.1865222,7.6973724 5.0472757,8.193286 5.0177466,8.6047295 c -0.0068,0.094763 -0.017273,0.2201858 -0.023271,0.2787162 l -0.010906,0.106419 H 4.4985414 4.0135135 Z"
     id="path4" />
</svg>
