<?xml version="1.0" encoding="UTF-8" standalone="no"?>
<svg
   width="24"
   height="24"
   viewBox="0 0 24 24"
   version="1.1"
   id="svg1"
   sodipodi:docname="network-bluetooth-inactive-symbolic.svg"
   inkscape:version="1.3.2 (091e20ef0f, 2023-11-25, custom)"
   xmlns:inkscape="http://www.inkscape.org/namespaces/inkscape"
   xmlns:sodipodi="http://sodipodi.sourceforge.net/DTD/sodipodi-0.dtd"
   xmlns="http://www.w3.org/2000/svg"
   xmlns:svg="http://www.w3.org/2000/svg">
  <defs
     id="defs1" />
  <sodipodi:namedview
     id="namedview1"
     pagecolor="#505050"
     bordercolor="#ffffff"
     borderopacity="1"
     inkscape:showpageshadow="0"
     inkscape:pageopacity="0"
     inkscape:pagecheckerboard="1"
     inkscape:deskcolor="#d1d1d1"
     inkscape:zoom="49.333333"
     inkscape:cx="11.989865"
     inkscape:cy="12"
     inkscape:window-width="2560"
     inkscape:window-height="1388"
     inkscape:window-x="2560"
     inkscape:window-y="28"
     inkscape:window-maximized="1"
     inkscape:current-layer="svg1" />
  <style
     type="text/css"
     id="current-color-scheme">.ColorScheme-Text{color:#232629;}.ColorScheme-Background{color:#eff0f1;}.ColorScheme-ViewBackground{color:#fcfcfc;}.ColorScheme-ButtonFocus{color:#3daee9;}.ColorScheme-PositiveText{color:#27ae60;}.ColorScheme-NeutralText{color:#f67400;}.ColorScheme-NegativeText { color: #da4453; } </style>
  <g
     transform="translate(1,1)"
     id="g1">
    <g
       id="22-22-preferences-system-bluetooth-inactive"
       transform="translate(-44,94) translate(-22,-94)">
      <rect
         id="rect4162"
         x="66"
         width="22"
         height="22"
         fill="none" />
      <path
         id="path4164"
         class="ColorScheme-Text"
         d="m76.998047 3v7.041013l-3.292969-3.2929692-2e-3 0.00195c-0.355749-0.3559538-0.996047-0.9960876-0.996047-0.9960876l-0.707031 0.7070313 4.544922 4.5410155-4.544922 4.541016 0.707031 0.707031s0.640351-0.640094 0.996094-0.996094h2e-3l3.294875-3.292968v7.039062h1l4-4-4-4 4-4-4-4zm1.001953 1.4160156 2.585938 2.5859375-2.585938 2.5859375zm0 8.0000004 2.585938 2.585937-2.585938 2.585938z"
         fill="currentColor"
         opacity=".5" />
    </g>
  </g>
  <path
     style="opacity:0.3;fill:#ffffff;stroke:#cccccc;stroke-width:0.0202703"
     d="M 12,16.474698 V 12.952774 L 9.8562924,15.09641 7.7125848,17.240046 7.3631378,16.890171 7.0136908,16.540295 9.2838726,14.270181 11.554054,12.000068 9.2836922,9.7296381 7.0133298,7.4592085 l 0.349754,-0.347747 0.349754,-0.3477468 2.1385136,2.1356602 2.1385136,2.1356601 0.0051,-3.5158281 0.0051,-3.5158285 h 0.491459 0.491459 l 2.001727,2.0016509 2.001728,2.0016508 -1.996622,1.9966979 -1.996622,1.996699 1.996622,1.996545 1.996622,1.996544 -2.001651,2.001728 -2.001651,2.001728 H 12.491592 12 Z m 2.295588,-1.773665 -1.302345,-1.302345 v 2.60469 2.604691 l 1.302345,-1.302345 1.302345,-1.302346 z m 0.01524,-7.9915535 C 13.602946,6.0015293 13.0169,5.4222973 13.008506,5.4222973 c -0.0084,0 -0.01526,1.1652782 -0.01526,2.5895074 v 2.5895073 l 1.302325,-1.3023251 1.302325,-1.3023251 z"
     id="path1" />
</svg>
