<?xml version="1.0" encoding="UTF-8" standalone="no"?>
<svg
   viewBox="0 0 24 24"
   width="24"
   height="24"
   version="1.1"
   id="svg2"
   sodipodi:docname="security-high.svg"
   inkscape:version="1.3.2 (091e20ef0f, 2023-11-25, custom)"
   xmlns:inkscape="http://www.inkscape.org/namespaces/inkscape"
   xmlns:sodipodi="http://sodipodi.sourceforge.net/DTD/sodipodi-0.dtd"
   xmlns="http://www.w3.org/2000/svg"
   xmlns:svg="http://www.w3.org/2000/svg">
  <sodipodi:namedview
     id="namedview2"
     pagecolor="#505050"
     bordercolor="#ffffff"
     borderopacity="1"
     inkscape:showpageshadow="0"
     inkscape:pageopacity="0"
     inkscape:pagecheckerboard="1"
     inkscape:deskcolor="#d1d1d1"
     inkscape:zoom="30.791667"
     inkscape:cx="11.983762"
     inkscape:cy="11.983762"
     inkscape:window-width="2560"
     inkscape:window-height="1388"
     inkscape:window-x="2560"
     inkscape:window-y="28"
     inkscape:window-maximized="1"
     inkscape:current-layer="svg2" />
  <defs
     id="defs3051">
    <style
       type="text/css"
       id="current-color-scheme">.ColorScheme-Text{color:#232629;}.ColorScheme-PositiveText { color: #27ae60; } </style>
  </defs>
  <g
     transform="translate(1,1)"
     id="g2">
    <g
       transform="translate(0,-1030.3622)"
       id="g1">
      <path
         style="opacity:1;fill:currentColor;fill-opacity:1;stroke:none"
         d="M 11 3 C 11 3 9 5.6575188 3 6.3242188 C 3 6.3242188 3 15.6581 11 19 C 19 15.6581 19 6.3242188 19 6.3242188 C 13 5.6575188 11 3 11 3 z M 11 4.3769531 C 12.586995 5.7216531 14.87716 6.6187125 17.845703 7.0703125 C 17.684444 8.5155125 17.529828 9.6030967 17.15625 10.654297 C 16.37116 12.863397 15.455775 14.207328 14.634766 15.173828 C 13.362538 16.671528 12.207192 17.277659 11 17.880859 C 9.792808 17.277659 8.6374614 16.671528 7.3652344 15.173828 C 6.5442254 14.207328 5.62884 12.863397 4.84375 10.654297 C 4.470172 9.6030967 4.3155559 8.5155125 4.1542969 7.0703125 C 7.1228399 6.6187125 9.413005 5.7216531 11 4.3769531 z M 11 5.5761719 C 9.256509 6.7864719 7.2978492 7.3994064 5.3320312 7.8164062 C 6.2628772 13.098406 8.268115 15.357084 11 16.771484 C 13.731885 15.357084 15.737124 13.098406 16.667969 7.8164062 C 14.702151 7.3994063 12.743491 6.7864719 11 5.5761719 z "
         transform="translate(0,1030.3622)"
         class="ColorScheme-Text"
         id="path4943-7" />
      <path
         style="fill:currentColor;fill-opacity:1;stroke:none"
         class="ColorScheme-PositiveText"
         d="m 15,1041.3622 c 2.216,0 4,1.784 4,4 0,2.216 -1.784,4 -4,4 -2.216,0 -4,-1.784 -4,-4 0,-2.216 1.784,-4 4,-4 z"
         id="rect4153" />
      <path
         style="fill:#ffffff"
         d="M 17 13 L 14 16 L 13 15 L 12 16 L 13 17 L 14 18 L 18 14 L 17 13 z "
         transform="translate(0,1030.3622)"
         id="path4142" />
    </g>
  </g>
  <path
     style="fill:#ffffff;stroke:#cccccc;stroke-width:0.0324763"
     d="M 11.675237,17.580241 C 9.5402048,16.381418 8.148434,14.698556 7.234614,12.210853 7.0242652,11.638217 6.7970057,10.885774 6.6559699,10.294993 6.5370721,9.7969467 6.3653586,8.9611449 6.3653586,8.8804665 c 0,-0.044265 0.054944,-0.06859 0.2516915,-0.1114332 C 8.6701911,8.3219486 10.517655,7.5957985 11.795241,6.7337327 11.896967,6.6650918 11.989109,6.608931 12,6.608931 c 0.01089,0 0.103033,0.056161 0.204759,0.1248017 1.216226,0.8206626 2.952275,1.5192239 4.894023,1.9692853 0.285792,0.066241 0.526286,0.1269406 0.534432,0.1348876 0.05217,0.050899 -0.366872,1.8366404 -0.623897,2.6587114 -0.165055,0.527911 -0.176124,0.551716 -0.252672,0.543395 -0.353875,-0.03847 -1.138211,-0.04325 -1.355081,-0.0083 -0.546128,0.0881 -0.9981,0.246711 -1.435785,0.50386 -1.648528,0.968547 -2.378982,2.958037 -1.756163,4.783141 l 0.09169,0.268677 -0.137266,0.08044 c -0.0755,0.04424 -0.150597,0.07956 -0.166889,0.07847 -0.01629,-0.0011 -0.161152,-0.07583 -0.32191,-0.166093 z"
     id="path2" />
  <path
     style="fill:#ffffff;stroke:#cccccc;stroke-width:0.0324763"
     d="M 11.555474,19.782232 C 8.1675758,18.200679 5.8231156,15.316904 4.6609931,11.301759 4.3168431,10.112718 4.0270636,8.3918657 4.0270636,7.5371769 V 7.3391838 L 4.6684709,7.249678 C 6.4857879,6.9960785 8.0823157,6.5284141 9.4668471,5.8441094 10.430954,5.3675994 11.067394,4.9397073 11.680261,4.3559836 l 0.319379,-0.3041912 0.323709,0.3077942 c 1.534356,1.4589186 4.182733,2.5320574 7.203038,2.9187158 l 0.446549,0.057167 -1.11e-4,0.2131853 c -2.58e-4,0.4965935 -0.128411,1.5184469 -0.29555,2.3566227 -0.205949,1.0328056 -0.497549,2.0156066 -0.908369,3.0615436 -0.02812,0.07159 -0.03706,0.06754 -0.309016,-0.139962 -0.154033,-0.117526 -0.348769,-0.252047 -0.432748,-0.298934 l -0.152689,-0.08525 0.156864,-0.408077 c 0.269283,-0.700534 0.445402,-1.3548 0.595039,-2.2105124 0.08715,-0.4983615 0.238683,-1.7357294 0.215231,-1.7574791 -0.01186,-0.010998 -0.138475,-0.037793 -0.28137,-0.059545 C 17.678153,7.8727924 16.567564,7.6044919 15.669824,7.3087898 14.348177,6.8734591 13.297481,6.3430533 12.369538,5.6427605 12.174273,5.4953992 12.006576,5.3748309 11.996879,5.3748309 c -0.0097,0 -0.137184,0.092726 -0.283304,0.2060572 C 10.75884,6.3213877 9.6193409,6.8974503 8.2165088,7.3487961 7.3952876,7.6130153 6.2593641,7.8823038 5.4397835,8.0070622 c -0.1428958,0.021752 -0.2695231,0.048547 -0.281394,0.059545 -0.011871,0.010998 0.020337,0.3488188 0.071573,0.7507132 0.2070603,1.6241736 0.419966,2.4716766 0.928704,3.6968456 0.7205348,1.735229 1.6434085,3.163404 2.7733493,4.291842 0.7760262,0.774995 1.5181142,1.300948 2.6435922,1.873641 l 0.419992,0.213711 0.408239,-0.202191 0.40824,-0.202191 0.364663,0.359307 0.364662,0.359306 -0.218605,0.127106 c -0.281833,0.16387 -0.768295,0.407392 -1.084807,0.543052 l -0.249153,0.106789 z"
     id="path3" />
</svg>
