<?xml version="1.0" encoding="UTF-8" standalone="no"?>
<svg
   viewBox="0 0 24 24"
   width="24"
   height="24"
   version="1.1"
   id="svg2"
   sodipodi:docname="security-low.svg"
   inkscape:version="1.3.2 (091e20ef0f, 2023-11-25, custom)"
   xmlns:inkscape="http://www.inkscape.org/namespaces/inkscape"
   xmlns:sodipodi="http://sodipodi.sourceforge.net/DTD/sodipodi-0.dtd"
   xmlns="http://www.w3.org/2000/svg"
   xmlns:svg="http://www.w3.org/2000/svg">
  <sodipodi:namedview
     id="namedview2"
     pagecolor="#505050"
     bordercolor="#ffffff"
     borderopacity="1"
     inkscape:showpageshadow="0"
     inkscape:pageopacity="0"
     inkscape:pagecheckerboard="1"
     inkscape:deskcolor="#d1d1d1"
     inkscape:zoom="30.791667"
     inkscape:cx="11.983762"
     inkscape:cy="11.983762"
     inkscape:window-width="2560"
     inkscape:window-height="1388"
     inkscape:window-x="2560"
     inkscape:window-y="28"
     inkscape:window-maximized="1"
     inkscape:current-layer="svg2" />
  <defs
     id="defs3051">
    <style
       type="text/css"
       id="current-color-scheme">.ColorScheme-Text{color:#232629;}.ColorScheme-NegativeText { color: #da4453; } </style>
  </defs>
  <g
     transform="translate(1,1)"
     id="g2">
    <path
       style="fill:currentColor;fill-opacity:1;stroke:none"
       d="M 11 3 C 11 3 9 5.6575188 3 6.3242188 C 3 6.3242188 3 15.6581 11 19 C 19 15.6581 19 6.3242188 19 6.3242188 C 13 5.6575188 11 3 11 3 z M 11 4.3769531 C 12.586995 5.7216531 14.87716 6.6187125 17.845703 7.0703125 C 17.684444 8.5155125 17.529828 9.6030969 17.15625 10.654297 C 16.37116 12.863397 15.455775 14.207328 14.634766 15.173828 C 13.362538 16.671528 12.207192 17.277659 11 17.880859 C 9.792808 17.277659 8.6374614 16.671528 7.3652344 15.173828 C 6.5442254 14.207328 5.62884 12.863397 4.84375 10.654297 C 4.470172 9.6030969 4.3155559 8.5155125 4.1542969 7.0703125 C 7.1228399 6.6187125 9.413005 5.7216531 11 4.3769531 z "
       class="ColorScheme-Text"
       id="path1" />
    <path
       style="fill:currentColor;fill-opacity:1;stroke:none"
       d="M 12 11 C 11.445981 11 11 11.446 11 12 L 11 18 C 11 18.5541 11.445981 19 12 19 L 18 19 C 18.554019 19 19 18.5541 19 18 L 19 12 C 19 11.446 18.554019 11 18 11 L 12 11 z "
       class="ColorScheme-NegativeText"
       id="path2" />
    <path
       style="fill:#ffffff"
       d="M 13 12 L 12 13 L 14 15 L 12 17 L 13 18 L 15 16 L 17 18 L 18 17 L 16 15 L 18 13 L 17 12 L 15 14 L 13 12 z "
       id="path4141" />
  </g>
  <path
     style="fill:#ffffff;stroke:#cccccc;stroke-width:0.0324763"
     d="M 11.556339,19.782636 C 8.1644743,18.199231 5.8242802,15.320927 4.6609931,11.301759 4.3168431,10.112718 4.0270636,8.3918657 4.0270636,7.5371769 V 7.3391838 L 4.6684709,7.2495023 C 6.4947668,6.9941495 8.0785452,6.5302778 9.4668471,5.8441094 10.430954,5.3675994 11.067394,4.9397073 11.680261,4.3559836 l 0.319379,-0.3041912 0.323709,0.3077942 c 1.534356,1.4589186 4.182733,2.5320574 7.203038,2.9187158 l 0.446549,0.057167 -1.11e-4,0.2131853 C 19.972329,8.5019737 19.6412,10.350643 19.241737,11.630269 L 19.126317,12 h -0.538216 c -0.49933,0 -0.536625,-0.0041 -0.516183,-0.05683 0.192455,-0.49643 0.389811,-1.231643 0.520886,-1.94046 C 18.698477,9.4312482 18.870417,8.0932953 18.841611,8.0666075 18.82974,8.0556097 18.703112,8.0288142 18.560217,8.0070622 17.678153,7.8727924 16.567564,7.6044919 15.669824,7.3087898 14.348177,6.8734591 13.297481,6.3430533 12.369538,5.6427605 12.174273,5.4953992 12.006576,5.3748309 11.996879,5.3748309 c -0.0097,0 -0.137184,0.092726 -0.283304,0.2060572 -0.957564,0.7426937 -2.0893795,1.314241 -3.5100717,1.7725261 -0.8019926,0.2587057 -1.9447832,0.5289876 -2.7637198,0.653648 -0.1428958,0.021752 -0.2695231,0.048547 -0.281394,0.059545 -0.011871,0.010998 0.020337,0.3488188 0.071573,0.7507132 0.2070603,1.6241736 0.419966,2.4716766 0.928704,3.6968456 0.7205348,1.735229 1.6434085,3.163404 2.7733493,4.291842 0.7735028,0.772475 1.5187542,1.301267 2.6330562,1.868284 l 0.409457,0.208353 0.01737,0.191589 c 0.02163,0.238567 0.11092,0.444609 0.268028,0.61851 0.06661,0.07373 0.113917,0.134049 0.105129,0.134049 -0.0088,0 -0.09664,0.03567 -0.195233,0.07928 l -0.179257,0.07928 z"
     id="path3" />
</svg>
