<?xml version="1.0" encoding="UTF-8" standalone="no"?>
<svg
   viewBox="0 0 24 24"
   width="24"
   height="24"
   version="1.1"
   id="svg2"
   sodipodi:docname="security-medium.svg"
   inkscape:version="1.3.2 (091e20ef0f, 2023-11-25, custom)"
   xmlns:inkscape="http://www.inkscape.org/namespaces/inkscape"
   xmlns:sodipodi="http://sodipodi.sourceforge.net/DTD/sodipodi-0.dtd"
   xmlns="http://www.w3.org/2000/svg"
   xmlns:svg="http://www.w3.org/2000/svg">
  <sodipodi:namedview
     id="namedview2"
     pagecolor="#505050"
     bordercolor="#ffffff"
     borderopacity="1"
     inkscape:showpageshadow="0"
     inkscape:pageopacity="0"
     inkscape:pagecheckerboard="1"
     inkscape:deskcolor="#d1d1d1"
     inkscape:zoom="30.791667"
     inkscape:cx="11.983762"
     inkscape:cy="11.983762"
     inkscape:window-width="2560"
     inkscape:window-height="1388"
     inkscape:window-x="2560"
     inkscape:window-y="28"
     inkscape:window-maximized="1"
     inkscape:current-layer="svg2" />
  <defs
     id="defs3051">
    <style
       type="text/css"
       id="current-color-scheme">.ColorScheme-Text{color:#232629;}.ColorScheme-NeutralText { color: #f67400; } </style>
  </defs>
  <g
     transform="translate(1,1)"
     id="g2">
    <g
       transform="translate(0,-1030.3622)"
       id="g1">
      <path
         style="opacity:1;fill:currentColor;fill-opacity:1;stroke:none"
         d="M 11 3 C 11 3 9 5.6575188 3 6.3242188 C 3 6.3242188 3 15.6581 11 19 C 19 15.6581 19 6.3242188 19 6.3242188 C 13 5.6575188 11 3 11 3 z M 11 4.3769531 C 12.586995 5.7217384 14.87716 6.6187292 17.845703 7.0703125 C 17.684444 8.5155125 17.529828 9.6030967 17.15625 10.654297 C 16.37116 12.863397 15.455775 14.207328 14.634766 15.173828 C 13.362538 16.671474 12.207192 17.277691 11 17.880859 C 9.7928082 17.277691 8.6374611 16.671474 7.3652344 15.173828 C 6.544225 14.207328 5.6288398 12.863397 4.84375 10.654297 C 4.4701723 9.6030967 4.3155563 8.5155125 4.1542969 7.0703125 C 7.1228397 6.6187292 9.4130046 5.7217384 11 4.3769531 z M 11 5.5761719 C 9.2565091 6.786444 7.2978494 7.3993841 5.3320312 7.8164062 C 6.2628766 13.098378 8.2681151 15.357097 11 16.771484 L 11 5.5761719 z "
         transform="translate(0,1030.3622)"
         class="ColorScheme-Text"
         id="path4943-9-4-1" />
      <path
         style="fill:currentColor;fill-opacity:1;stroke:none"
         class="ColorScheme-NeutralText"
         d="m 15.5,1041.3602 0.0039,0 a 0.5,0.5 0 0 1 0.439453,0.2695 l 0.0039,0 3.986328,6.9746 -0.002,0 a 0.5,0.5 0 0 1 0.06836,0.252 0.5,0.5 0 0 1 -0.5,0.5 l -8,0 a 0.5,0.5 0 0 1 -0.5,-0.5 0.5,0.5 0 0 1 0.06836,-0.252 l -0.002,0 3.986328,-6.9727 0.002,0 a 0.5,0.5 0 0 1 0.002,0 0.5,0.5 0 0 1 0.443359,-0.2715 l 0,0 z"
         id="path4250" />
      <path
         style="opacity:1;fill:#ffffff;fill-opacity:1;stroke:none"
         d="M 15 13 L 15 16 L 16 16 L 16 13 L 15 13 z M 15 17 L 15 18 L 16 18 L 16 17 L 15 17 z "
         transform="translate(0,1030.3622)"
         id="rect4241" />
    </g>
  </g>
  <path
     style="fill:#ffffff;stroke:#cccccc;stroke-width:0.0324763"
     d="M 11.675237,17.580241 C 9.5402048,16.381418 8.148434,14.698556 7.234614,12.210853 7.0242652,11.638217 6.7970057,10.885774 6.6559699,10.294993 6.5370721,9.7969467 6.3653586,8.9611449 6.3653586,8.8804665 c 0,-0.044265 0.054944,-0.06859 0.2516915,-0.1114332 2.054355,-0.447349 3.9006539,-1.1732232 5.1799729,-2.0365107 L 11.983762,6.6065108 V 12.17741 c 0,3.063994 -0.0037,5.57001 -0.0081,5.568924 -0.0045,-0.0011 -0.139648,-0.07583 -0.300406,-0.166093 z"
     id="path2" />
  <path
     style="fill:#ffffff;stroke:#cccccc;stroke-width:0.0324763"
     d="M 11.553744,19.781425 C 8.1677125,18.200743 5.8228668,15.316044 4.6609931,11.301759 4.3168431,10.112718 4.0270636,8.3918657 4.0270636,7.5371769 V 7.3391838 L 4.6684709,7.249678 C 6.4857879,6.9960785 8.0823157,6.5284141 9.4668471,5.8441094 10.430954,5.3675994 11.067394,4.9397073 11.680261,4.3559836 l 0.319379,-0.3041912 0.323709,0.3077942 c 1.534356,1.4589186 4.182733,2.5320574 7.203038,2.9187158 l 0.446549,0.057167 -1.11e-4,0.2131853 c -2.58e-4,0.4965935 -0.128411,1.5184469 -0.29555,2.3566227 -0.235562,1.1813126 -0.662148,2.5443556 -1.092628,3.4912046 -0.175234,0.385432 -0.43675,0.913797 -0.447126,0.903373 -0.02557,-0.02569 -0.600309,-1.042281 -0.600309,-1.061819 0,-0.01211 0.06767,-0.175056 0.150378,-0.362099 0.480475,-1.086594 0.746118,-1.950177 0.938766,-3.0518504 0.08715,-0.4983615 0.238683,-1.7357294 0.215231,-1.7574791 -0.01186,-0.010998 -0.138475,-0.037793 -0.28137,-0.059545 C 17.678153,7.8727924 16.567564,7.6044919 15.669824,7.3087898 14.348177,6.8734591 13.297481,6.3430533 12.369538,5.6427605 12.174273,5.4953992 12.006576,5.3748309 11.996879,5.3748309 c -0.0097,0 -0.137184,0.092726 -0.283304,0.2060572 C 10.75884,6.3213877 9.6193409,6.8974503 8.2165088,7.3487961 7.3952876,7.6130153 6.2593641,7.8823038 5.4397835,8.0070622 c -0.1428958,0.021752 -0.2695231,0.048547 -0.281394,0.059545 -0.011871,0.010998 0.020337,0.3488188 0.071573,0.7507132 0.2070603,1.6241736 0.419966,2.4716766 0.928704,3.6968456 0.7113877,1.713201 1.6279781,3.139032 2.7347714,4.254162 0.7918928,0.797858 1.5357771,1.327985 2.6815721,1.911017 l 0.419395,0.213407 0.144749,-0.07033 c 0.07961,-0.03868 0.150478,-0.0646 0.157481,-0.05759 0.007,0.007 -0.05688,0.135547 -0.141952,0.285653 C 12.021197,19.28601 12,19.348234 12,19.504558 c 0,0.146088 0.01672,0.203065 0.08638,0.294393 l 0.08638,0.113245 -0.09369,0.03536 c -0.08384,0.03165 -0.139075,0.01418 -0.525322,-0.166134 z"
     id="path3" />
</svg>
