<?xml version="1.0" encoding="UTF-8" standalone="no"?>
<svg
   version="1.1"
   viewBox="0 0 24 24"
   width="24"
   height="24"
   id="svg2"
   sodipodi:docname="smartphoneconnected.svg"
   inkscape:version="1.3.2 (091e20ef0f, 2023-11-25, custom)"
   xmlns:inkscape="http://www.inkscape.org/namespaces/inkscape"
   xmlns:sodipodi="http://sodipodi.sourceforge.net/DTD/sodipodi-0.dtd"
   xmlns="http://www.w3.org/2000/svg"
   xmlns:svg="http://www.w3.org/2000/svg">
  <sodipodi:namedview
     id="namedview2"
     pagecolor="#505050"
     bordercolor="#ffffff"
     borderopacity="1"
     inkscape:showpageshadow="0"
     inkscape:pageopacity="0"
     inkscape:pagecheckerboard="1"
     inkscape:deskcolor="#d1d1d1"
     inkscape:zoom="30.791667"
     inkscape:cx="11.983762"
     inkscape:cy="11.983762"
     inkscape:window-width="2560"
     inkscape:window-height="1388"
     inkscape:window-x="2560"
     inkscape:window-y="28"
     inkscape:window-maximized="1"
     inkscape:current-layer="svg2" />
  <defs
     id="defs1">
    <style
       id="current-color-scheme"
       type="text/css">.ColorScheme-PositiveText{color:#27ae60;}.ColorScheme-Text { color: #232629; } </style>
  </defs>
  <g
     transform="translate(1,1)"
     id="g2">
    <g
       fill="currentColor"
       id="g1">
      <path
         id="smartphone"
         class="ColorScheme-Text"
         d="m8 3c-1.108 0-2 0.892-2 2v12c0 1.108 0.892 2 2 2h6c1.108 0 2-0.892 2-2v-12c0-1.108-0.892-2-2-2h-6zm0 1h6c0.554 0 1 0.446 1 1v12c0 0.554-0.446 1-1 1h-6c-0.554 0-1-0.446-1-1v-12c0-0.554 0.446-1 1-1zm0.5 1a0.5 0.5 0 0 0-0.5 0.5 0.5 0.5 0 0 0 0.5 0.5 0.5 0.5 0 0 0 0.5-0.5 0.5 0.5 0 0 0-0.5-0.5zm1 11c-0.277 0-0.5 0.223-0.5 0.5s0.223 0.5 0.5 0.5h3c0.277 0 0.5-0.223 0.5-0.5s-0.223-0.5-0.5-0.5h-3z"
         fill="currentColor" />
      <path
         class="ColorScheme-PositiveText"
         d="m9 11-0.5 0.5 1.5 1.5 3.5-3.5-0.5-0.5-3 3z"
         fill="currentColor"
         id="path1" />
    </g>
  </g>
  <path
     style="fill:#ffffff;stroke:#cccccc;stroke-width:0.0324763"
     d="M 8.6499601,19.954138 C 8.2427746,19.884852 7.8626326,19.671121 7.5507442,19.336116 7.313633,19.08143 7.1642201,18.808958 7.0790401,18.475908 7.0162464,18.230386 7.014885,18.092965 7.014885,12 7.014885,5.9070348 7.016245,5.7696137 7.07904,5.5240924 7.1742032,5.1520086 7.3162634,4.9090207 7.6145107,4.6081934 7.8161983,4.4047611 7.9322693,4.3177399 8.1252947,4.2252465 8.5917394,4.0017368 8.4708163,4.008028 12.107752,4.0180518 l 3.269785,0.00901 0.238201,0.087011 c 0.616068,0.2250399 1.075489,0.6886278 1.281117,1.2927363 l 0.07202,0.2115923 0.009,6.2841676 c 0.0081,5.657557 0.0039,6.307657 -0.04284,6.519737 -0.147099,0.668019 -0.676563,1.249361 -1.346444,1.478372 l -0.211096,0.07217 -3.280108,0.0049 c -1.80406,0.0027 -3.3554206,-0.0079 -3.4474689,-0.02359 z m 6.7688259,-1.032843 c 0.226214,-0.102236 0.464366,-0.362935 0.537003,-0.587842 0.05094,-0.157725 0.05504,-0.629229 0.05504,-6.333453 0,-6.9459407 0.02255,-6.354796 -0.254125,-6.6625235 -0.07967,-0.088603 -0.219488,-0.2004775 -0.31072,-0.2486099 L 15.280108,5.0013532 H 12 8.7198917 L 8.5575101,5.0878572 C 8.3628931,5.1915336 8.1861783,5.3705705 8.0819277,5.5696888 l -0.076515,0.1461434 -0.00852,6.2192148 c -0.0096,7.013412 -0.031286,6.418619 0.2452112,6.726151 0.079875,0.08884 0.1908243,0.185299 0.2465529,0.214352 0.2637074,0.137476 0.2204103,0.135903 3.5600522,0.129362 l 3.198918,-0.0063 z"
     id="path2" />
  <path
     style="fill:#ffffff;stroke:#cccccc;stroke-width:0.0324763"
     d="m 10.270838,17.922695 c -0.122188,-0.06077 -0.221515,-0.207137 -0.250585,-0.369244 -0.027639,-0.154133 0.0898,-0.382044 0.242264,-0.470164 0.109097,-0.06305 0.17602,-0.06607 1.664624,-0.07501 1.669634,-0.01003 1.754043,-0.0033 1.910269,0.152959 0.194999,0.194998 0.186439,0.485621 -0.0202,0.685941 l -0.115768,0.112227 -1.662628,0.0078 c -1.474935,0.007 -1.67452,0.0019 -1.767974,-0.04455 z"
     id="path3" />
  <path
     style="fill:#ffffff;stroke:#cccccc;stroke-width:0.0324763"
     d="M 9.3797708,6.96712 C 8.8521922,6.8058722 8.9512915,6.0246 9.4993234,6.0246 9.9602702,6.0246 10.149646,6.6626491 9.759134,6.8999577 9.6348544,6.9754805 9.4906534,7.0010098 9.3797708,6.96712 Z"
     id="path4" />
</svg>
