<?xml version="1.0" encoding="UTF-8" standalone="no"?>
<svg
   viewBox="0 0 24 24"
   width="24"
   height="24"
   version="1.1"
   id="svg2"
   sodipodi:docname="state-information.svg"
   inkscape:version="1.3.2 (091e20ef0f, 2023-11-25, custom)"
   xmlns:inkscape="http://www.inkscape.org/namespaces/inkscape"
   xmlns:sodipodi="http://sodipodi.sourceforge.net/DTD/sodipodi-0.dtd"
   xmlns="http://www.w3.org/2000/svg"
   xmlns:svg="http://www.w3.org/2000/svg">
  <sodipodi:namedview
     id="namedview2"
     pagecolor="#505050"
     bordercolor="#ffffff"
     borderopacity="1"
     inkscape:showpageshadow="0"
     inkscape:pageopacity="0"
     inkscape:pagecheckerboard="1"
     inkscape:deskcolor="#d1d1d1"
     inkscape:zoom="30.791667"
     inkscape:cx="11.983762"
     inkscape:cy="11.983762"
     inkscape:window-width="2560"
     inkscape:window-height="1388"
     inkscape:window-x="2560"
     inkscape:window-y="28"
     inkscape:window-maximized="1"
     inkscape:current-layer="svg2" />
  <defs
     id="defs3051">
    <style
       type="text/css"
       id="current-color-scheme">.ColorScheme-Text{color:#232629;}.ColorScheme-Highlight { color: #3daee9; } </style>
  </defs>
  <g
     transform="translate(1,1)"
     id="g2">
    <g
       transform="translate(-421.71429,-525.79074)"
       id="g1">
      <path
         style="opacity:1;fill:currentColor;fill-opacity:1;stroke:none"
         d="m 432.71439,529.79077 a 6,6 0 0 0 -6,6 6,6 0 0 0 0.004,0.12891 4,4 0 0 0 -3.00391,3.87109 4,4 0 0 0 4,4 l 9,0 a 5,5 0 0 0 5,-5 5,5 0 0 0 -3.24219,-4.67578 6,6 0 0 0 -5.75781,-4.32422 z m 0,1 a 5,5 0 0 1 4.91992,4.11133 4.0000019,4.0000019 0 0 1 3.08008,3.88867 4.0000019,4.0000019 0 0 1 -4,4 l -9,0 a 2.9999979,2.9999979 0 0 1 -3,-3 2.9999979,2.9999979 0 0 1 3,-3 2.9999979,2.9999979 0 0 1 0.10742,0.006 5,5 0 0 1 -0.10742,-1.00586 5,5 0 0 1 5,-5 z"
         id="path4196-4"
         class="ColorScheme-Text" />
      <path
         style="fill:currentColor;fill-opacity:1;stroke:none"
         class="ColorScheme-Highlight"
         d="m 441.71429,540.29071 a 4.5,4.5 0 0 1 -4.5,4.5 4.5,4.5 0 0 1 -4.5,-4.5 4.5,4.5 0 0 1 4.5,-4.5 4.5,4.5 0 0 1 4.5,4.5 z"
         id="path4509" />
      <path
         style="opacity:1;fill:#ffffff"
         d="M 15 11.992188 L 15 12.992188 L 16 12.992188 L 16 11.992188 L 15 11.992188 z M 15 13.992188 L 15 16.992188 L 16 16.992188 L 16 13.992188 L 15 13.992188 z "
         transform="translate(421.71429,525.79074)"
         id="rect4241" />
    </g>
  </g>
  <path
     style="fill:#ffffff;stroke:#cccccc;stroke-width:0.0324763"
     d="M 6.5439783,18.960048 C 4.9665781,18.755595 3.6724636,17.682335 3.2000139,16.186767 2.9424988,15.371588 2.9654104,14.464433 3.2647451,13.623816 3.6486355,12.545743 4.5915362,11.619415 5.6800812,11.250933 l 0.3280379,-0.111044 v -0.167315 c 0,-0.24537 0.059132,-0.801706 0.1168926,-1.0997729 C 6.4817566,8.0318692 7.690647,6.4521478 9.3694181,5.6331628 12.108382,4.2969649 15.375079,5.2083305 17.031446,7.7707679 c 0.216094,0.3343036 0.483157,0.8822834 0.6084,1.24836 l 0.106924,0.3125359 0.235253,0.1033861 c 0.777784,0.3418106 1.519361,0.9324551 2.03166,1.6181561 0.622041,0.832591 0.969396,1.905061 0.964056,2.976564 -0.0015,0.308347 -0.04869,0.744095 -0.05926,0.547611 -0.01633,-0.303557 -0.380881,-1.168044 -0.677424,-1.606413 -0.155196,-0.22942 -0.470663,-0.607632 -0.593177,-0.711157 -0.03171,-0.02679 -0.0833,-0.09986 -0.11465,-0.162382 -0.215017,-0.428775 -0.738605,-1.025004 -1.177858,-1.341269 -0.328836,-0.236764 -0.75723,-0.454821 -1.124875,-0.572575 l -0.290474,-0.09304 -0.088,-0.3362082 C 16.610714,8.8324258 16.217543,8.1471474 15.540319,7.4681054 14.813614,6.7394487 14.015661,6.306382 12.990528,6.0842778 12.697512,6.0207933 12.555841,6.0104579 11.983762,6.0108309 11.36969,6.0112313 11.287839,6.0183226 10.929575,6.1021623 9.9259258,6.3370327 9.1655903,6.7571852 8.4596808,7.4669966 7.5973669,8.3340766 7.1315289,9.3275 7.0092607,10.560091 c -0.03156,0.318158 -0.031449,0.490497 5.365e-4,0.831326 0.022193,0.23648 0.048734,0.470153 0.058981,0.519273 L 7.0874095,12 H 6.8584124 c -0.5670043,0 -1.2355807,0.248069 -1.7322055,0.642718 -0.4902816,0.389609 -0.8314529,0.897229 -1.023987,1.523563 -0.08043,0.261648 -0.087792,0.330761 -0.087509,0.82154 2.607e-4,0.451967 0.011536,0.576535 0.072022,0.79567 0.3085856,1.117977 1.2216763,1.957075 2.3707919,2.178672 0.1945647,0.03752 0.7936988,0.04622 3.2638701,0.04741 l 3.0255591,0.0015 0.194858,0.26155 c 0.107172,0.143853 0.300856,0.362414 0.430409,0.485691 l 0.235552,0.224141 -3.483184,-0.0049 c -1.9157498,-0.0027 -3.5270253,-0.01055 -3.5806113,-0.0175 z"
     id="path2" />
</svg>
