<?xml version="1.0" encoding="UTF-8" standalone="no"?>
<svg
   viewBox="0 0 24 24"
   width="24"
   height="24"
   version="1.1"
   id="svg2"
   sodipodi:docname="state-download.svg"
   inkscape:version="1.3.2 (091e20ef0f, 2023-11-25, custom)"
   xmlns:inkscape="http://www.inkscape.org/namespaces/inkscape"
   xmlns:sodipodi="http://sodipodi.sourceforge.net/DTD/sodipodi-0.dtd"
   xmlns="http://www.w3.org/2000/svg"
   xmlns:svg="http://www.w3.org/2000/svg">
  <sodipodi:namedview
     id="namedview2"
     pagecolor="#505050"
     bordercolor="#ffffff"
     borderopacity="1"
     inkscape:showpageshadow="0"
     inkscape:pageopacity="0"
     inkscape:pagecheckerboard="1"
     inkscape:deskcolor="#d1d1d1"
     inkscape:zoom="30.791667"
     inkscape:cx="11.983762"
     inkscape:cy="11.983762"
     inkscape:window-width="2560"
     inkscape:window-height="1388"
     inkscape:window-x="2560"
     inkscape:window-y="28"
     inkscape:window-maximized="1"
     inkscape:current-layer="svg2" />
  <defs
     id="defs3051">
    <style
       type="text/css"
       id="current-color-scheme">.ColorScheme-Text{color:#232629;}.ColorScheme-PositiveText { color: #27ae60; } </style>
  </defs>
  <g
     transform="translate(1,1)"
     id="g2">
    <path
       style="fill:currentColor;fill-opacity:1;stroke:none"
       d="M 11 4 A 6 6 0 0 0 5 10 A 6 6 0 0 0 5.0039062 10.128906 A 4 4 0 0 0 2 14 A 4 4 0 0 0 6 18 L 15 18 A 5 5 0 0 0 20 13 A 5 5 0 0 0 16.757812 8.3242188 A 6 6 0 0 0 11 4 z M 11 5 A 5 5 0 0 1 15.919922 9.1113281 A 4.0000019 4.0000019 0 0 1 19 13 A 4.0000019 4.0000019 0 0 1 15 17 L 6 17 A 2.9999979 2.9999979 0 0 1 3 14 A 2.9999979 2.9999979 0 0 1 6 11 A 2.9999979 2.9999979 0 0 1 6.1074219 11.005859 A 5 5 0 0 1 6 10 A 5 5 0 0 1 11 5 z "
       class="ColorScheme-Text"
       id="path1" />
    <path
       style="fill:currentColor;fill-opacity:1;stroke:none"
       class="ColorScheme-PositiveText"
       d="M 12 11 L 12 15 A 4 3.9999852 0 0 0 16 19 A 4 3.9999852 0 0 0 20 15 L 20 11 L 16 11 L 12 11 z "
       id="path2" />
    <path
       style="opacity:1;fill:#ffffff"
       d="M 15.5 12 L 15.5 16.085938 L 13.707031 14.292969 L 13 15 L 16 18 L 19 15 L 18.292969 14.292969 L 16.5 16.085938 L 16.5 12 L 15.5 12 z "
       id="rect3373" />
  </g>
  <path
     style="fill:#ffffff;stroke:#cccccc;stroke-width:0.0324763"
     d="M 6.5439783,18.960048 C 5.6376729,18.842578 4.8255364,18.447071 4.1886815,17.813028 3.0588801,16.688215 2.7146452,14.998306 3.3116207,13.507385 3.5135052,13.003188 3.7818495,12.601111 4.1886121,12.193335 4.6409819,11.739839 5.1511979,11.421296 5.7239727,11.234764 l 0.2841464,-0.09254 v -0.168485 c 0,-0.247192 0.059122,-0.80299 0.1171108,-1.1009419 C 6.3664602,8.6333365 6.9433517,7.5766796 7.8642385,6.6875646 9.3581664,5.2451797 11.473425,4.6924426 13.510149,5.2122344 14.997796,5.5918965 16.366041,6.6247431 17.142352,7.9540746 17.34026,8.2929668 17.575939,8.8045 17.66819,9.0953888 l 0.07274,0.2293536 0.344693,0.1596529 c 0.893718,0.4139481 1.707242,1.1481287 2.200047,1.9854767 0.09711,0.165007 0.198201,0.351789 0.224642,0.415071 L 20.558382,12 h -0.535306 -0.535305 l -0.169205,-0.250751 c -0.480124,-0.711512 -1.2697,-1.303548 -2.088066,-1.565664 l -0.290474,-0.09304 -0.088,-0.3362082 C 16.675573,9.0802146 16.41592,8.5386632 16.009852,7.9978422 15.268464,7.0104266 14.229732,6.3521823 12.990528,6.084498 12.700076,6.0217566 12.553242,6.0108372 12,6.0108372 c -0.713242,0 -1.034035,0.048014 -1.613761,0.2415346 C 9.1827982,6.6540982 8.0810507,7.6177368 7.5093775,8.7686062 7.1093758,9.5738738 6.928396,10.524022 7.0097972,11.391417 c 0.022193,0.23648 0.04832,0.467988 0.058062,0.514463 l 0.017712,0.0845 -0.335749,0.01803 c -1.3074899,0.07022 -2.4356874,1.081063 -2.7083315,2.426617 -0.073739,0.363918 -0.05012,1.011824 0.049749,1.364702 0.3145487,1.111422 1.2234847,1.942054 2.3662857,2.162434 0.1957137,0.03774 0.8487719,0.0463 3.6535856,0.04786 l 3.415276,0.0019 0.146143,0.228423 c 0.08038,0.125633 0.253364,0.343991 0.384411,0.48524 l 0.238267,0.256816 -3.8269,-0.0049 c -2.1047955,-0.0027 -3.8707437,-0.01055 -3.9243297,-0.0175 z"
     id="path3" />
</svg>
