<?xml version="1.0" encoding="UTF-8" standalone="no"?>
<svg
   viewBox="0 0 24 24"
   width="24"
   height="24"
   version="1.1"
   id="svg2"
   sodipodi:docname="telegram-attention-panel.svg"
   inkscape:version="1.3.2 (091e20ef0f, 2023-11-25, custom)"
   xmlns:inkscape="http://www.inkscape.org/namespaces/inkscape"
   xmlns:sodipodi="http://sodipodi.sourceforge.net/DTD/sodipodi-0.dtd"
   xmlns="http://www.w3.org/2000/svg"
   xmlns:svg="http://www.w3.org/2000/svg">
  <sodipodi:namedview
     id="namedview2"
     pagecolor="#505050"
     bordercolor="#ffffff"
     borderopacity="1"
     inkscape:showpageshadow="0"
     inkscape:pageopacity="0"
     inkscape:pagecheckerboard="1"
     inkscape:deskcolor="#d1d1d1"
     inkscape:zoom="30.791667"
     inkscape:cx="11.983762"
     inkscape:cy="11.983762"
     inkscape:window-width="2560"
     inkscape:window-height="1388"
     inkscape:window-x="2560"
     inkscape:window-y="28"
     inkscape:window-maximized="1"
     inkscape:current-layer="svg2" />
  <defs
     id="defs1">
    <style
       id="current-color-scheme"
       type="text/css">.ColorScheme-Text{color:#232629;}.ColorScheme-Highlight { color: #3daee9; } </style>
  </defs>
  <g
     transform="translate(1,1)"
     id="g2">
    <path
       class="ColorScheme-Text"
       style="fill:currentColor"
       d="m17.268 4.1992c-0.82205 0.0147-1.5875 0.34034-5.1738 1.832-1.2632 0.52541-3.7689 1.6078-7.498 3.2324l-0.0058593 0.0019531-0.0019532 0.0019531c-0.0144 6e-3 -0.014797 0.0050188-0.029297 0.011719h0.0058593c-0.34073 0.13685-0.6345 0.2752-0.90039 0.47266-0.27344 0.20307-0.59072 0.5085-0.65625 1.0312-0.0442 0.35219 0.087795 0.78214 0.29688 1.0391 0.20904 0.25693 0.43187 0.38212 0.63086 0.47852 0.39798 0.19278 0.76956 0.28117 1.1484 0.4043 0.69094 0.22461 1.4963 0.50618 2.291 0.52344 0.65397 0.0141 1.2549-0.266 1.834-0.63867-0.11036 0.36111-0.15244 0.83261 0.039062 1.1992 0.21638 0.4144 0.53879 0.68124 0.93359 0.94141 0.70504 0.4646 1.2297 0.82648 1.8203 1.2266 0.004081-0.37969 0.061636-0.74756 0.16602-1.0957-0.44363-0.30234-0.8821-0.60079-1.4375-0.9668-1.2728-0.83875-0.44607-1.2993 0.2793-2.0527 0.18983-0.19717 3.4869-3.1985 3.5508-3.4707 8e-3 -0.034 0.014853-0.16151-0.060547-0.22852-0.0754-0.067-0.18534-0.043591-0.26562-0.025391-0.11379 0.0258-1.9262 1.2254-5.4375 3.5957-0.5145 0.35329-0.98287 0.52464-1.4004 0.51562-0.4603-0.01-1.3457-0.26064-2.0039-0.47461-0.80733-0.26243-1.4484-0.40001-1.3926-0.8457 0.0291-0.23215 0.34872-0.4702 0.95898-0.71289 3.7582-1.6374 6.2656-2.7187 7.5195-3.2402 3.5801-1.4891 4.3237-1.7473 4.8086-1.7559 0.10664-2e-3 0.34555 0.025091 0.5 0.15039 0.13042 0.10582 0.16642 0.24733 0.18359 0.34766 0.0172 0.10035 0.038484 0.32922 0.021485 0.50781-0.12333 1.2958-0.50748 3.7402-0.88086 5.9551 0.33504 0.097836 0.65217 0.23672 0.94531 0.41406 0.38653-2.2736 0.79448-4.8528 0.92969-6.2734 0.0321-0.33717 0.00495-0.5574-0.03125-0.77148-0.0296-0.17305-0.13619-0.63012-0.53906-0.95703-0.49099-0.39826-0.84596-0.37873-1.1465-0.37305h-0.001953z"
       id="path1" />
    <path
       class="ColorScheme-Highlight"
       style="fill:currentColor"
       d="m16 13a3 3 0 0 0-3 3 3 3 0 0 0 3 3 3 3 0 0 0 3-3 3 3 0 0 0-3-3z"
       id="path2" />
  </g>
  <path
     style="fill:#ffffff;stroke:#cccccc;stroke-width:0.0324763"
     d="m 11.918809,16.20634 c -0.562652,-0.38145 -1.108438,-0.770105 -1.212858,-0.863678 -0.480947,-0.430986 -0.656198,-0.943497 -0.529452,-1.548345 0.02339,-0.111638 0.03189,-0.202977 0.01888,-0.202977 -0.01301,0 -0.116681,0.05652 -0.2303816,0.125591 -0.8677075,0.527151 -1.5304806,0.60906 -2.6740647,0.330477 C 6.7356309,13.912133 5.2923576,13.445004 4.985115,13.301109 4.3189021,12.989091 3.9957874,12.493543 4.0335227,11.841689 4.0531626,11.502422 4.1858154,11.222335 4.4489357,10.964577 4.7949737,10.625591 4.7867498,10.629554 8.3464141,9.0863724 13.279032,6.9479899 16.119692,5.768756 17.119057,5.4446141 c 0.986051,-0.3198234 1.612039,-0.31133 2.130478,0.028906 0.254772,0.1671997 0.409616,0.3446249 0.545954,0.6255751 0.263086,0.5421363 0.239599,1.084405 -0.164853,3.8061818 -0.165612,1.114499 -0.570513,3.597073 -0.590506,3.62058 -0.0073,0.0086 -0.07449,-0.01972 -0.149207,-0.06302 -0.07472,-0.0433 -0.274685,-0.133648 -0.444374,-0.20077 -0.241216,-0.09542 -0.306971,-0.134806 -0.301404,-0.180551 0.0039,-0.03218 0.06669,-0.423869 0.139499,-0.870418 C 18.809732,8.990564 19.013587,7.4677452 18.993317,6.9172146 18.979047,6.5296301 18.923087,6.406888 18.7047,6.2841678 18.491047,6.164108 18.089586,6.1692711 17.667118,6.2975121 16.661897,6.6026484 13.977845,7.7014144 9.4668471,9.654443 c -2.5223422,1.092043 -3.7523196,1.630802 -3.9439989,1.727561 -0.6132597,0.309573 -0.7122899,0.725413 -0.2346607,0.985371 0.1997764,0.108732 0.279917,0.137659 1.1096474,0.400519 1.6948225,0.536925 2.194284,0.580781 2.8871796,0.253512 0.1321974,-0.06244 1.4621025,-0.928418 2.9553455,-1.924396 1.493242,-0.995978 2.797949,-1.8537858 2.89935,-1.9062399 0.153165,-0.079232 0.199782,-0.089949 0.27547,-0.063331 0.05309,0.018671 0.103866,0.068324 0.121687,0.1189977 0.02524,0.071778 0.01501,0.1094241 -0.0586,0.2156529 -0.113207,0.1633581 -1.237129,1.2707123 -2.227925,2.1950843 -1.365929,1.274355 -1.790767,1.68694 -1.964085,1.907439 -0.282392,0.359262 -0.300687,0.605434 -0.06767,0.910601 0.132363,0.173351 0.324601,0.317293 1.246439,0.933298 0.541257,0.361686 0.687858,0.474349 0.671757,0.516245 -0.04216,0.109701 -0.110416,0.484886 -0.132447,0.728015 -0.01252,0.138134 -0.0317,0.250244 -0.04264,0.249133 -0.01093,-0.0011 -0.48023,-0.314115 -1.042882,-0.695565 z"
     id="path3" />
</svg>
