<?xml version="1.0" encoding="UTF-8" standalone="no"?>
<svg
   width="24"
   height="24"
   viewBox="0 0 24 24"
   version="1.1"
   id="svg1"
   sodipodi:docname="touchpad_disabled.svg"
   inkscape:version="1.3.2 (091e20ef0f, 2023-11-25, custom)"
   xmlns:inkscape="http://www.inkscape.org/namespaces/inkscape"
   xmlns:sodipodi="http://sodipodi.sourceforge.net/DTD/sodipodi-0.dtd"
   xmlns="http://www.w3.org/2000/svg"
   xmlns:svg="http://www.w3.org/2000/svg">
  <defs
     id="defs1" />
  <sodipodi:namedview
     id="namedview1"
     pagecolor="#505050"
     bordercolor="#ffffff"
     borderopacity="1"
     inkscape:showpageshadow="0"
     inkscape:pageopacity="0"
     inkscape:pagecheckerboard="1"
     inkscape:deskcolor="#d1d1d1"
     inkscape:zoom="49.333333"
     inkscape:cx="11.989865"
     inkscape:cy="12"
     inkscape:window-width="2560"
     inkscape:window-height="1388"
     inkscape:window-x="2560"
     inkscape:window-y="28"
     inkscape:window-maximized="1"
     inkscape:current-layer="svg1" />
  <style
     type="text/css"
     id="current-color-scheme">.ColorScheme-Text{color:#31363b;}.ColorScheme-Background{color:#eff0f1;}.ColorScheme-Highlight{color:#3daee9;}.ColorScheme-ViewText{color:#31363b;}.ColorScheme-ViewBackground{color:#fcfcfc;}.ColorScheme-ViewHover{color:#93cee9;}.ColorScheme-ViewFocus{color:#3daee9;}.ColorScheme-ButtonText{color:#31363b;}.ColorScheme-ButtonBackground{color:#eff0f1;}.ColorScheme-ButtonHover{color:#93cee9;}.ColorScheme-ButtonFocus{color:#3daee9;}.ColorScheme-NegativeText { color: #da4453; } </style>
  <g
     transform="translate(1,1)"
     id="g1">
    <g
       id="22-22-touchpad_disabled"
       inkscape:label="#22-22-touchpad_disabled"
       transform="translate(0,-10)">
      <path
         id="path17"
         class="ColorScheme-Text"
         d="m 4,13 c -0.554,0 -1,0.446 -1,1 l 0,14 c 0,0.554 0.446,1 1,1 l 14,0 c 0.554,0 1,-0.446 1,-1 l 0,-14 c 0,-0.554 -0.446,-1 -1,-1 L 4,13 Z m 0,1 14,0 0,11 -14,0 0,-11 z m 0,12 6,0 0,2 -6,0 0,-2 z m 8,0 6,0 0,2 -6,0 0,-2 z"
         style="fill:currentColor;fill-opacity:0.6;stroke:none" />
      <path
         id="path19"
         d="M 0 10 L 0 32 L 22 32 L 22 10 L 0 10 z "
         style="opacity:1;fill:none" />
      <path
         id="path21"
         class="ColorScheme-NegativeText"
         d="M 8.8476562,17 8,17.847656 10.152344,20 8,22.152344 8.8476562,23 11,20.847656 13.152344,23 14,22.152344 11.847656,20 14,17.847656 13.152344,17 11,19.152344 8.8476562,17 Z"
         style="fill:currentColor;fill-opacity:1;stroke:none" />
    </g>
  </g>
  <path
     style="opacity:0.3;fill:#ffffff;stroke:#cccccc;stroke-width:0.0202703"
     d="m 4.7793576,19.965229 c -0.3485743,-0.08477 -0.6221628,-0.338773 -0.7256027,-0.673672 -0.039819,-0.12892 -0.040241,-0.205267 -0.040241,-7.279298 0,-7.8394779 -0.00914,-7.255508 0.1172211,-7.4896615 C 4.2098553,4.3759827 4.388278,4.2018619 4.5355996,4.1274942 4.7996286,3.9942128 4.2089982,4.0040075 12.001825,4.003678 c 6.910969,-2.922e-4 7.090001,6.588e-4 7.236487,0.038438 0.08261,0.021306 0.19581,0.064208 0.251553,0.095338 0.131452,0.07341 0.309866,0.2541045 0.379485,0.3843336 0.126276,0.236215 0.117136,-0.3472703 0.117136,7.4782124 0,6.34648 -0.0034,7.149963 -0.03107,7.256048 -0.08179,0.313999 -0.300342,0.551439 -0.627711,0.681952 l -0.121622,0.04849 -7.155405,0.0035 C 6.001064,19.99289 4.8773592,19.989099 4.7793596,19.96527 Z M 11.006757,18 V 16.996622 H 7.9966216 4.9864865 V 18 19.003378 h 3.0101351 3.0101354 z m 8.006757,0 V 16.996622 H 16.003378 12.993243 V 18 19.003378 h 3.010135 3.010136 z m 0,-7.5 V 4.9966216 H 12 4.9864865 V 10.5 16.003378 H 12 19.013514 Z"
     id="path1" />
</svg>
