<?xml version="1.0" encoding="UTF-8" standalone="no"?>
<svg
   width="24"
   height="24"
   viewBox="0 0 24 24"
   version="1.1"
   id="svg1"
   sodipodi:docname="wallet-open.svg"
   inkscape:version="1.3.2 (091e20ef0f, 2023-11-25, custom)"
   xmlns:inkscape="http://www.inkscape.org/namespaces/inkscape"
   xmlns:sodipodi="http://sodipodi.sourceforge.net/DTD/sodipodi-0.dtd"
   xmlns="http://www.w3.org/2000/svg"
   xmlns:svg="http://www.w3.org/2000/svg">
  <defs
     id="defs1" />
  <sodipodi:namedview
     id="namedview1"
     pagecolor="#505050"
     bordercolor="#ffffff"
     borderopacity="1"
     inkscape:showpageshadow="0"
     inkscape:pageopacity="0"
     inkscape:pagecheckerboard="1"
     inkscape:deskcolor="#d1d1d1"
     inkscape:zoom="30.791667"
     inkscape:cx="11.983762"
     inkscape:cy="11.983762"
     inkscape:window-width="2560"
     inkscape:window-height="1388"
     inkscape:window-x="2560"
     inkscape:window-y="28"
     inkscape:window-maximized="1"
     inkscape:current-layer="svg1" />
  <style
     type="text/css"
     id="current-color-scheme">.ColorScheme-Text{color:#31363b;}.ColorScheme-Background{color:#eff0f1;}.ColorScheme-Highlight{color:#3daee9;}.ColorScheme-ViewText{color:#31363b;}.ColorScheme-ViewBackground{color:#fcfcfc;}.ColorScheme-ViewHover{color:#93cee9;}.ColorScheme-ViewFocus{color:#3daee9;}.ColorScheme-ButtonText{color:#31363b;}.ColorScheme-ButtonBackground{color:#eff0f1;}.ColorScheme-ButtonHover{color:#93cee9;}.ColorScheme-ButtonFocus { color: #3daee9; } </style>
  <g
     transform="translate(1,1)"
     id="g1">
    <g
       id="wallet-open">
      <path
         id="rect4188"
         d="M 3,3 3,7 2,7 2,8 2,18 c 0,0.554 0.446,1 1,1 l 16,0 1,0 0,-1 0,-10 C 20,7.446 19.554,7 19,7 l -5,0 0,-4 z m 1,1 9,0 0,3 -2.507812,0 C 10.021704,6.3726797 9.284143,6.0024532 8.5,6 7.7137941,6.0006144 6.9736765,6.3710349 6.5019531,7 L 4,7 Z M 3,8 4,8 6.0507812,8 10.945312,8 13,8 l 1,0 5,0 0,3 -2,0 -5,0 c -1.108,0 -2,0.892 -2,2 0,1.108 0.892,2 2,2 l 5,0 2,0 0,3 -16,0 z m 10,4 c 0.552285,0 1,0.447715 1,1 0,0.552285 -0.447715,1 -1,1 -0.552285,0 -1,-0.447715 -1,-1 0,-0.552285 0.447715,-1 1,-1 z"
         style="opacity:1;fill:currentColor;fill-opacity:1;stroke:none"
         inkscape:connector-curvature="0"
         sodipodi:nodetypes="ccccsscccssccccccccccccccccccccssscccccsssss"
         class="ColorScheme-Text" />
      <rect
         y="0"
         x="0"
         height="22"
         width="22"
         id="rect4216"
         style="opacity:1;fill:none;fill-opacity:1;stroke:none" />
    </g>
  </g>
  <path
     style="fill:#ffffff;stroke:#cccccc;stroke-width:0.0324763"
     d="M 3.7346287,19.945313 C 3.4284098,19.862676 3.1357933,19.575458 3.0525494,19.275817 3.0322536,19.202761 3.0205941,17.133167 3.0204788,13.583221 L 3.0202977,8.0054127 h 0.5033829 0.503383 V 6.0081191 4.0108254 h 5.4722598 5.4722596 v 1.99655 1.9965499 l 2.623175,0.00886 2.623175,0.00886 0.216672,0.1066814 c 0.244754,0.1205086 0.388409,0.2773163 0.483625,0.5279046 0.05945,0.1564494 0.06147,0.3458393 0.06147,5.7473587 v 5.585579 l -8.549391,-0.0022 C 5.8274802,19.98529 3.8476119,19.975802 3.7346287,19.945313 Z M 20.005413,17.505666 v -1.509218 l -3.677943,-0.009 -3.677944,-0.009 -0.277483,-0.09938 c -0.348832,-0.124927 -0.59515,-0.287558 -0.839631,-0.554366 -0.710905,-0.775827 -0.683941,-1.960617 0.06163,-2.708221 0.361102,-0.362084 0.749574,-0.545168 1.266576,-0.596928 0.09824,-0.0098 1.746009,-0.01824 3.661705,-0.01867 L 20.005413,12 V 10.489851 8.9797023 H 12 3.9945873 v 5.0175917 5.017591 H 12 20.005413 Z m -5.563109,-2.600937 c 0.369903,-0.180748 0.582007,-0.550367 0.554707,-0.96665 -0.03356,-0.511662 -0.359388,-0.852715 -0.906494,-0.94884 -0.163175,-0.02867 -0.487907,0.06043 -0.665463,0.182594 -0.709392,0.488075 -0.502876,1.604472 0.335731,1.814915 0.189206,0.04748 0.490772,0.01119 0.681519,-0.08202 z M 7.7648132,7.7365146 c 0.3164057,-0.3115651 0.707168,-0.5349841 1.1248108,-0.643113 0.3267842,-0.084605 0.8496348,-0.090287 1.164352,-0.012652 0.474832,0.1171313 0.970383,0.407768 1.271707,0.7458456 l 0.160067,0.1795908 1.263891,-0.00851 1.263891,-0.00851 V 6.4952639 5.0013532 l -4.5060895,-0.00823 -4.5060893,-0.00823 v 1.5102627 1.5102628 h 1.2451921 1.2451921 z"
     id="path1" />
</svg>
