<?xml version="1.0" encoding="UTF-8" standalone="no"?>
<svg
   viewBox="0 0 32 32"
   version="1.1"
   id="svg1"
   sodipodi:docname="configure.svg"
   inkscape:version="1.3.2 (091e20ef0f, 2023-11-25, custom)"
   xmlns:inkscape="http://www.inkscape.org/namespaces/inkscape"
   xmlns:sodipodi="http://sodipodi.sourceforge.net/DTD/sodipodi-0.dtd"
   xmlns="http://www.w3.org/2000/svg"
   xmlns:svg="http://www.w3.org/2000/svg">
  <sodipodi:namedview
     id="namedview1"
     pagecolor="#505050"
     bordercolor="#ffffff"
     borderopacity="1"
     inkscape:showpageshadow="0"
     inkscape:pageopacity="0"
     inkscape:pagecheckerboard="1"
     inkscape:deskcolor="#d1d1d1"
     inkscape:zoom="37"
     inkscape:cx="15.986486"
     inkscape:cy="16"
     inkscape:window-width="2560"
     inkscape:window-height="1388"
     inkscape:window-x="2560"
     inkscape:window-y="28"
     inkscape:window-maximized="1"
     inkscape:current-layer="svg1" />
  <defs
     id="defs3051">
    <style
       type="text/css"
       id="current-color-scheme">.ColorScheme-Text{color:#232629;}.ColorScheme-Highlight { color: #3daee9; } </style>
  </defs>
  <path
     style="fill:currentColor;fill-opacity:1;stroke:none"
     d="M18.5 6A3.5 3.5 0 0 0 15.04102 9H4V10H15.04A3.5 3.5 0 0 0 18.5 13 3.5 3.5 0 0 0 21.958984 10H28V9H21.961A3.5 3.5 0 0 0 18.5 6M7.5 19A3.5 3.5 0 0 0 4 22.5 3.5 3.5 0 0 0 7.5 26 3.5 3.5 0 0 0 10.960938 23H28V22H10.959A3.5 3.5 0 0 0 7.5 19m0 1A2.5 2.5 0 0 1 10 22.5 2.5 2.5 0 0 1 7.5 25 2.5 2.5 0 0 1 5 22.5 2.5 2.5 0 0 1 7.5 20"
     class="ColorScheme-Text"
     id="path1" />
  <path
     style="fill:#ffffff;stroke:#cccccc;stroke-width:0.027027"
     d="M 17.986486,12.94901 C 16.521117,12.706064 15.400808,11.642964 15.091034,10.201414 L 15.044849,9.9864865 H 9.5224243 4 V 9.5 9.0135135 h 5.5258024 5.5258026 l 0.01716,-0.1013513 c 0.184805,-1.0916402 0.919842,-2.0668224 1.920401,-2.5478201 0.45514,-0.2187992 0.872555,-0.3217009 1.389214,-0.3424708 1.000656,-0.040227 1.946075,0.3493221 2.64926,1.0915965 0.447051,0.471902 0.741673,1.0352256 0.881328,1.6851179 l 0.04619,0.2149278 H 24.977576 28 V 9.5 9.9864865 h -3.025802 -3.025803 l -0.01702,0.1013515 c -0.05965,0.355149 -0.221866,0.807304 -0.404449,1.127321 -0.502001,0.879865 -1.338787,1.486956 -2.351249,1.705839 -0.264799,0.05725 -0.919794,0.07267 -1.18919,0.02801 z"
     id="path2" />
  <path
     style="fill:#ffffff;stroke:#cccccc;stroke-width:0.027027"
     d="M 6.9864865,25.948914 C 6.2168015,25.821646 5.6232993,25.522113 5.0795086,24.986486 4.3627395,24.280478 4.0251472,23.484339 4.0251472,22.5 c 0,-0.753499 0.192505,-1.368584 0.6267687,-2.002626 0.2924781,-0.427029 0.8279668,-0.886801 1.3184602,-1.132034 0.2077998,-0.103894 0.6471864,-0.249515 0.9080023,-0.30093 0.2833251,-0.05585 0.9967673,-0.04903 1.2837838,0.01227 1.0236805,0.218641 1.8593118,0.822252 2.3647628,1.708164 0.182583,0.320017 0.344803,0.772172 0.404449,1.127321 l 0.01702,0.101352 H 19.474198 28 V 22.5 22.986486 h -8.522424 -8.522425 l -0.04733,0.222973 c -0.147714,0.695848 -0.490184,1.310187 -1.0044468,1.801825 -0.4921714,0.470519 -1.0562308,0.767126 -1.7276965,0.9085 -0.2858006,0.06017 -0.9091062,0.07544 -1.1891892,0.02913 z M 8.1216216,24.934082 C 8.9856892,24.709281 9.6689132,24.039823 9.920977,23.170983 10.003501,22.886532 10.022915,22.31873 9.9606357,22.011092 9.7635759,21.037679 9.0439738,20.29337 8.0636062,20.048929 c -0.255497,-0.0637 -0.8717154,-0.0637 -1.1272124,0 -0.9968913,0.248561 -1.752948,1.050066 -1.9099685,2.024783 -0.047332,0.293814 -0.020939,0.84191 0.052837,1.097271 0.2704016,0.935942 1.0236302,1.620972 1.9840238,1.804386 0.2682173,0.05122 0.7794013,0.03128 1.0583359,-0.04129 z"
     id="path3" />
</svg>
