<?xml version="1.0" encoding="UTF-8" standalone="no"?>
<svg
   viewBox="0 0 32 32"
   version="1.1"
   id="svg2"
   sodipodi:docname="document-replace.svg"
   inkscape:version="1.3.2 (091e20ef0f, 2023-11-25, custom)"
   xmlns:inkscape="http://www.inkscape.org/namespaces/inkscape"
   xmlns:sodipodi="http://sodipodi.sourceforge.net/DTD/sodipodi-0.dtd"
   xmlns="http://www.w3.org/2000/svg"
   xmlns:svg="http://www.w3.org/2000/svg">
  <sodipodi:namedview
     id="namedview2"
     pagecolor="#505050"
     bordercolor="#ffffff"
     borderopacity="1"
     inkscape:showpageshadow="0"
     inkscape:pageopacity="0"
     inkscape:pagecheckerboard="1"
     inkscape:deskcolor="#d1d1d1"
     inkscape:zoom="37"
     inkscape:cx="15.986486"
     inkscape:cy="16"
     inkscape:window-width="2560"
     inkscape:window-height="1388"
     inkscape:window-x="2560"
     inkscape:window-y="28"
     inkscape:window-maximized="1"
     inkscape:current-layer="svg2" />
  <defs
     id="defs1">
    <style
       type="text/css"
       id="current-color-scheme">.ColorScheme-Text{color:#232629;}.ColorScheme-NegativeText { color: #da4453; } </style>
  </defs>
  <path
     style="fill:currentColor; fill-opacity:1; stroke:none"
     d="M 21 20.707 L 24.293 24 L 21 27.293 C 21.013 27.318 21.707 28 21.707 28 L 25 24.707 L 28.293 28 L 29 27.293 L 25.707 24 L 29 20.707 L 28.293 20 L 25 23.293 L 21.707 20 L 21 20.707 Z M 17 7 L 22 7 L 22 13 L 28 13 L 28 19 L 29 19 L 29 12 L 23 6 L 16 6 L 17 7 Z M 12 28 L 20 28 L 20 27 L 13 27 L 13 26 L 12 26 L 12 28 Z"
     class="ColorScheme-NegativeText"
     id="path1" />
  <path
     style="fill:currentColor; fill-opacity:1; stroke:none"
     d="M 20 26 L 20 10 L 14 4 L 3 4 L 3 26 L 20 26 Z M 4 25 L 4 5 L 13 5 L 13 11 L 19 11 L 19 25 L 4 25 Z"
     class="ColorScheme-Text"
     id="path2" />
  <path
     style="fill:#ffffff;stroke:#cccccc;stroke-width:0.027027"
     d="M 3,15 V 4.0135135 H 8.4932886 13.986577 L 16.993289,7.0203154 20,10.027118 v 7.979684 7.979684 H 11.5 3 Z m 16,3 v -7.013514 h -3 -3 v -2.9999995 -3 H 8.5 4 V 15 25.013514 h 7.5 7.5 z"
     id="path3" />
</svg>
