<?xml version="1.0" encoding="UTF-8" standalone="no"?>
<svg
   viewBox="0 0 32 32"
   version="1.1"
   id="svg1"
   sodipodi:docname="document-print-direct.svg"
   inkscape:version="1.3.2 (091e20ef0f, 2023-11-25, custom)"
   xmlns:inkscape="http://www.inkscape.org/namespaces/inkscape"
   xmlns:sodipodi="http://sodipodi.sourceforge.net/DTD/sodipodi-0.dtd"
   xmlns="http://www.w3.org/2000/svg"
   xmlns:svg="http://www.w3.org/2000/svg">
  <sodipodi:namedview
     id="namedview1"
     pagecolor="#505050"
     bordercolor="#ffffff"
     borderopacity="1"
     inkscape:showpageshadow="0"
     inkscape:pageopacity="0"
     inkscape:pagecheckerboard="1"
     inkscape:deskcolor="#d1d1d1"
     inkscape:zoom="37"
     inkscape:cx="15.986486"
     inkscape:cy="16"
     inkscape:window-width="2560"
     inkscape:window-height="1388"
     inkscape:window-x="2560"
     inkscape:window-y="28"
     inkscape:window-maximized="1"
     inkscape:current-layer="svg1" />
  <defs
     id="defs3051">
    <style
       type="text/css"
       id="current-color-scheme">.ColorScheme-Text{color:#232629;}.ColorScheme-Highlight { color: #3daee9; } </style>
  </defs>
  <path
     style="fill:currentColor;fill-opacity:1;stroke:none"
     id="path8"
     d="m 7,4 0,8 -3,0 0,12 6,0 0,4 11,0 0,-1 -10,0 0,-3 11,0 0,-5 -14,0 0,4 -3,0 0,-10 22,0 0,5 1,0 0,-6 -3,0 0,-8 z m 1,1 16,0 0,7 -16,0 z m 2,2 0,1 12,0 0,-1 z m 0,3 0,1 12,0 0,-1 z m 12,5 0,1 4,0 0,-1 z"
     class="ColorScheme-Text" />
  <path
     style="fill:currentColor;fill-opacity:1;stroke:none"
     id="path10"
     d="M 24,28 29,23.5 24,19 Z"
     class="ColorScheme-Highlight" />
  <path
     style="fill:#ffffff;stroke:#cccccc;stroke-width:0.027027"
     d="m 22,15.5 v -0.486486 h 2 2 V 15.5 15.986486 h -2 -2 z"
     id="path1" />
  <path
     style="fill:#ffffff;stroke:#cccccc;stroke-width:0.027027"
     d="m 10,25.986486 v -2 H 7 4 V 18 12.013514 H 5.5 7 v -4.0000005 -4 h 9 9 v 4 4.0000005 H 26.5 28 V 15 17.986486 H 27.5 27 v -2.5 -2.5 H 16 5 V 18 23.013514 H 6.5 8 v -2 -2 h 7 7 V 21.5 23.986486 H 16.5 11 V 25.5 27.013514 h 5 5 V 27.5 27.986486 H 15.5 10 Z M 24,8.5 V 4.9864865 H 16 8 V 8.5 12.013514 h 8 8 z"
     id="path2" />
  <path
     style="fill:#ffffff;stroke:#cccccc;stroke-width:0.027027"
     d="m 10,10.5 v -0.486486 h 6 6 V 10.5 10.986486 h -6 -6 z"
     id="path3" />
  <path
     style="fill:#ffffff;stroke:#cccccc;stroke-width:0.027027"
     d="M 10,7.5 V 7.0135135 h 6 6 V 7.5 7.9864865 h -6 -6 z"
     id="path4" />
</svg>
