<?xml version="1.0" encoding="UTF-8" standalone="no"?>
<svg
   width="32"
   height="32"
   version="1.1"
   id="svg1"
   sodipodi:docname="window-list.svg"
   inkscape:version="1.3.2 (091e20ef0f, 2023-11-25, custom)"
   xmlns:inkscape="http://www.inkscape.org/namespaces/inkscape"
   xmlns:sodipodi="http://sodipodi.sourceforge.net/DTD/sodipodi-0.dtd"
   xmlns="http://www.w3.org/2000/svg"
   xmlns:svg="http://www.w3.org/2000/svg">
  <defs
     id="defs1" />
  <sodipodi:namedview
     id="namedview1"
     pagecolor="#505050"
     bordercolor="#ffffff"
     borderopacity="1"
     inkscape:showpageshadow="0"
     inkscape:pageopacity="0"
     inkscape:pagecheckerboard="1"
     inkscape:deskcolor="#d1d1d1"
     inkscape:zoom="37"
     inkscape:cx="15.986486"
     inkscape:cy="16"
     inkscape:window-width="2560"
     inkscape:window-height="1388"
     inkscape:window-x="2560"
     inkscape:window-y="28"
     inkscape:window-maximized="1"
     inkscape:current-layer="svg1" />
  <style
     type="text/css"
     id="current-color-scheme">.ColorScheme-Text{color:#232629;}.ColorScheme-ButtonFocus { color: #3daee9; } </style>
  <g
     id="window-list"
     transform="translate(-286 -545.36218) translate(0,-16)">
    <path
       id="rect3004"
       d="m286 561.36218h32v32h-32z"
       fill="#333"
       opacity="0" />
    <path
       id="rect3008"
       d="m290 565.3622v10h10v-10zm1 1h8v8h-8z"
       class="ColorScheme-Text"
       fill="currentColor" />
    <path
       id="rect3010"
       d="m304 565.3622v10h10v-10zm1 1h8v8h-8z"
       class="ColorScheme-Text"
       fill="currentColor" />
    <path
       id="rect3012"
       d="m290 579.3622v10h10v-10zm1 1h8v8h-8z"
       class="ColorScheme-Text"
       fill="currentColor" />
    <path
       id="rect3014"
       d="m304 579.3622v10h10v-10zm1 1h8v8h-8z"
       class="ColorScheme-Text"
       fill="currentColor" />
  </g>
  <path
     style="fill:#ffffff;stroke:#cccccc;stroke-width:0.027027"
     d="m 18,23 v -4.986486 h 5 5 V 23 27.986486 h -5 -5 z m 9,0 V 18.986486 H 23 19 V 23 27.013514 h 4 4 z"
     id="path1" />
  <path
     style="fill:#ffffff;stroke:#cccccc;stroke-width:0.027027"
     d="m 4,23 v -4.986486 h 5 5 V 23 27.986486 H 9 4 Z m 9,0 V 18.986486 H 9 5 V 23 27.013514 h 4 4 z"
     id="path2" />
  <path
     style="fill:#ffffff;stroke:#cccccc;stroke-width:0.027027"
     d="M 4,9 V 4.0135135 h 5 5 V 9 13.986486 H 9 4 Z m 9,0 V 4.9864865 H 9 5 V 9 13.013514 h 4 4 z"
     id="path3" />
  <path
     style="fill:#ffffff;stroke:#cccccc;stroke-width:0.027027"
     d="M 18,9 V 4.0135135 h 5 5 V 9 13.986486 h -5 -5 z m 9,0 V 4.9864865 H 23 19 V 9 13.013514 h 4 4 z"
     id="path4" />
</svg>
