<?xml version="1.0" encoding="UTF-8" standalone="no"?>
<svg
   width="32"
   height="32"
   version="1.1"
   id="svg6"
   sodipodi:docname="device-notifier-symbolic.svg"
   inkscape:version="1.3.2 (091e20ef0f, 2023-11-25, custom)"
   xmlns:inkscape="http://www.inkscape.org/namespaces/inkscape"
   xmlns:sodipodi="http://sodipodi.sourceforge.net/DTD/sodipodi-0.dtd"
   xmlns="http://www.w3.org/2000/svg"
   xmlns:svg="http://www.w3.org/2000/svg">
  <sodipodi:namedview
     id="namedview1"
     pagecolor="#505050"
     bordercolor="#ffffff"
     borderopacity="1"
     inkscape:showpageshadow="0"
     inkscape:pageopacity="0"
     inkscape:pagecheckerboard="1"
     inkscape:deskcolor="#d1d1d1"
     inkscape:zoom="23.09375"
     inkscape:cx="15.978349"
     inkscape:cy="15.978349"
     inkscape:window-width="2560"
     inkscape:window-height="1388"
     inkscape:window-x="2560"
     inkscape:window-y="28"
     inkscape:window-maximized="1"
     inkscape:current-layer="svg6" />
  <defs
     id="defs10" />
  <namedview
     id="namedview8"
     pagecolor="#ffffff"
     bordercolor="#000000"
     borderopacity="0.25"
     inkscape:showpageshadow="2"
     inkscape:pageopacity="0.0"
     inkscape:pagecheckerboard="0"
     inkscape:deskcolor="#d1d1d1"
     showgrid="false"
     inkscape:zoom="24.15625"
     inkscape:cx="13.785252"
     inkscape:cy="15.979301"
     inkscape:window-width="1920"
     inkscape:window-height="1011"
     inkscape:window-x="0"
     inkscape:window-y="0"
     inkscape:window-maximized="1"
     inkscape:current-layer="svg6" />
  <style
     type="text/css"
     id="current-color-scheme">.ColorScheme-Text{color:#31363b;}.ColorScheme-Background{color:#eff0f1;}.ColorScheme-Highlight{color:#3daee9;}.ColorScheme-ViewText{color:#31363b;}.ColorScheme-ViewBackground{color:#fcfcfc;}.ColorScheme-ViewHover{color:#93cee9;}.ColorScheme-ViewFocus{color:#3daee9;}.ColorScheme-ButtonText{color:#31363b;}.ColorScheme-ButtonBackground{color:#eff0f1;}.ColorScheme-ButtonHover{color:#93cee9;}.ColorScheme-ButtonFocus { color: #3daee9; } </style>
  <g
     id="device-notifier"
     transform="translate(-321,-529.36218)">
    <path
       id="rect4196"
       transform="translate(321,529.36218)"
       d="M 9,2 V 16 H 8 7 v 14 h 1 16 1 V 16 H 24 23 V 2 Z m 1,3 h 2 v 8 h -2 z m 10,0 h 2 v 8 h -2 z m -7,3 h 2 v 5 h -2 z m 4,0 h 2 v 5 H 17 Z M 8,17 H 24 V 29 H 8 Z m 8,1 -2,2 h 4 z m -6,7 v 1 h 12 v -1 z m 1,2 v 1 h 10 v -1 z"
       style="opacity:1;fill:currentColor;fill-opacity:1;stroke:none;stroke-width:0.1;stroke-linecap:square;stroke-linejoin:miter;stroke-miterlimit:4;stroke-dasharray:none;stroke-dashoffset:0;stroke-opacity:1"
       inkscape:connector-curvature="0"
       class="ColorScheme-Text" />
    <rect
       y="529.36218"
       x="321"
       height="31.999985"
       width="31.999985"
       id="rect4151"
       style="opacity:0.2;fill:none;fill-opacity:1;stroke:none" />
  </g>
  <path
     style="opacity:1;fill:#ffffff;stroke:#cccccc;stroke-width:0.0433018"
     d="M 7.014885,22.993234 V 16 H 8.0108254 9.0067659 V 9.0067659 2.0135318 H 16 22.993234 V 9.0067659 16 h 0.995941 0.99594 v 6.993234 6.993234 H 16 7.014885 Z m 17.006918,0.01083 0.01098,-6.00812 H 16.000152 7.9675237 v 5.990077 c 0,3.294542 0.013042,6.003119 0.028982,6.019059 0.01594,0.01594 3.6256833,0.02406 8.0216513,0.01804 l 7.992668,-0.01094 z M 12.037889,9.0067659 V 5.0013532 h -1.017591 -1.017592 v 4.0054127 4.0054131 h 1.017592 1.017591 z M 15.02571,10.500677 V 7.9891746 h -1.017591 -1.017591 v 2.5115024 2.511502 h 1.017591 1.017591 z m 3.983762,0 V 7.9891746 H 17.991881 16.97429 v 2.5115024 2.511502 h 1.017591 1.017591 z M 21.997294,9.0067659 V 5.0013532 h -1.017592 -1.017591 v 4.0054127 4.0054131 h 1.017591 1.017592 z"
     id="path1" />
  <path
     style="opacity:1;fill:#ffffff;stroke:#cccccc;stroke-width:0.0433018"
     d="m 15.025714,19.009468 0.973572,-0.974293 0.963821,0.963107 c 0.530102,0.529709 0.963821,0.968141 0.963821,0.974294 0,0.0062 -0.871827,0.01119 -1.937393,0.01119 h -1.937392 z"
     id="path2" />
  <path
     style="opacity:1;fill:#ffffff;stroke:#cccccc;stroke-width:0.0433018"
     d="m 10.002706,25.504736 v -0.49797 H 16 21.997294 v 0.49797 0.49797 H 16 10.002706 Z"
     id="path3" />
  <path
     style="opacity:1;fill:#ffffff;stroke:#cccccc;stroke-width:0.0433018"
     d="m 10.998647,27.496617 v -0.49797 H 16 21.001353 v 0.49797 0.49797 H 16 10.998647 Z"
     id="path4" />
</svg>
