<?xml version="1.0" encoding="UTF-8" standalone="no"?>
<!-- Created with Inkscape (http://www.inkscape.org/) -->

<svg
   width="32"
   height="32"
   viewBox="0 0 8.4666664362 8.46666656336"
   version="1.1"
   id="svg2117"
   inkscape:version="1.3.2 (091e20ef0f, 2023-11-25, custom)"
   sodipodi:docname="hotspot-symbolic.svg"
   xmlns:inkscape="http://www.inkscape.org/namespaces/inkscape"
   xmlns:sodipodi="http://sodipodi.sourceforge.net/DTD/sodipodi-0.dtd"
   xmlns="http://www.w3.org/2000/svg"
   xmlns:svg="http://www.w3.org/2000/svg"
   xmlns:rdf="http://www.w3.org/1999/02/22-rdf-syntax-ns#">
  <sodipodi:namedview
     id="namedview1"
     pagecolor="#505050"
     bordercolor="#ffffff"
     borderopacity="1"
     inkscape:showpageshadow="0"
     inkscape:pageopacity="0"
     inkscape:pagecheckerboard="1"
     inkscape:deskcolor="#d1d1d1"
     inkscape:zoom="23.09375"
     inkscape:cx="15.978349"
     inkscape:cy="15.978349"
     inkscape:window-width="2560"
     inkscape:window-height="1388"
     inkscape:window-x="2560"
     inkscape:window-y="28"
     inkscape:window-maximized="1"
     inkscape:current-layer="layer1" />
  <defs
     id="defs2111">
    <style
       id="current-color-scheme"
       type="text/css">.ColorScheme-Text { color: #fcfcfc; } </style>
  </defs>
  <namedview
     id="base"
     pagecolor="#ffffff"
     bordercolor="#666666"
     borderopacity="1.0"
     inkscape:pageopacity="0.0"
     inkscape:pageshadow="2"
     inkscape:zoom="14.4218749848"
     inkscape:cx="33.7223902809"
     inkscape:cy="14.109125668"
     inkscape:document-units="mm"
     inkscape:current-layer="layer1"
     showgrid="true"
     fit-margin-top="0"
     fit-margin-left="0"
     fit-margin-right="0"
     fit-margin-bottom="0"
     units="px"
     inkscape:window-width="1920"
     inkscape:window-height="1080"
     inkscape:window-x="324"
     inkscape:window-y="246"
     inkscape:window-maximized="0"
     width="22px">
    <grid
       type="xygrid"
       id="grid2133" />
  </namedview>
  <metadata
     id="metadata2114">
    <RDF>
      <Work
         rdf:about="">
        <format>image/svg+xml</format>
        <type
           rdf:resource="http://purl.org/dc/dcmitype/StillImage" />
        <title />
      </Work>
    </RDF>
  </metadata>
  <g
     inkscape:label="Layer 1"
     inkscape:groupmode="layer"
     id="layer1"
     transform="translate(-63.7191734314,-138.640630955)">
    <path
       style="opacity:1;fill:#4d4d4d;fill-opacity:1;fill-rule:nonzero;stroke:none;stroke-width:0.0207703896;stroke-linecap:round;stroke-linejoin:round;stroke-miterlimit:4;stroke-dasharray:none;stroke-dashoffset:0;stroke-opacity:1"
       d="M 68.2267719673,139.991307965 C 68.1484710891,140.045051363 68.0757293492,140.101488348 68.0078043329,140.160073726 68.0077654992,140.160123257 68.0077005377,140.160166816 68.0076617153,140.160216344 V 140.160263885 L 68.0072813942,140.160644201 67.7438166497,140.432761163 67.461383581,140.901121803 67.2896228208,141.415595905 67.2255393697,141.980319419 C 67.2170802466,142.264172634 67.2465840604,142.546213835 67.3079255849,142.809030613 L 67.3082583631,142.812453468 H 67.308781298 C 67.3674772256,143.062619756 67.3786216222,143.180754273 67.490441674,143.380450499 68.7586640379,143.158142455 69.599196128,144.138364359 69.3156532957,145.196560613 69.1660717578,145.754806492 68.7054735026,146.023653443 68.2638053558,146.124493404 67.6413492675,146.232726741 67.1165213287,145.896732645 66.9901705541,145.425185139 66.9655020101,145.269679126 67.0038911665,145.060672027 67.0928086593,145.007929624 67.0414633499,145.025791858 66.9789531012,145.046393775 66.9040762439,145.116985584 66.7779786285,145.235866897 66.7748809652,145.277868404 66.6100435022,145.324020763 66.6907148562,145.096676262 66.2478807273,144.911850669 66.3278738039,144.424181988 66.3297250644,144.412895974 66.3078619886,144.517552755 66.3095929084,144.505958451 66.1144884762,145.583547069 67.2182497798,146.796583387 68.4428872199,146.468442778 69.2726250424,146.261337215 69.7672406533,145.65208145 69.9307832302,144.964383305 70.0252238071,144.567259769 69.99603245,144.157756684 69.9102461013,143.814066371 69.8403724912,143.53412808 69.6976635459,143.238779354 69.4829597141,142.967575348 69.4141717102,142.880685501 69.3424622051,142.801146808 69.2693165224,142.727167335 L 69.2676526355,142.724742811 69.2614249404,142.719323292 C 69.0967703409,142.553927624 68.9260510532,142.417245994 68.7624962981,142.287948499 L 68.2780197112,141.868981555 C 68.2689951408,141.859390993 68.2599692671,141.849809297 68.251207348,141.840077447 L 68.1003640341,141.641219088 C 68.0883695281,141.621862977 68.077040054,141.60202969 68.0661354848,141.581889603 L 67.9506141292,141.251013635 67.9095398753,140.795773937 67.965874362,140.410607687 C 67.9683301208,140.4023344 67.9709470466,140.394171212 67.9735757835,140.385982147 Z"
       id="path1795"
       inkscape:connector-curvature="0" />
    <path
       style="opacity:1;fill:#4d4d4d;fill-opacity:1;fill-rule:nonzero;stroke:none;stroke-width:0.0207703896;stroke-linecap:round;stroke-linejoin:round;stroke-miterlimit:4;stroke-dasharray:none;stroke-dashoffset:0;stroke-opacity:1"
       d="M 68.5194573809,140.540697423 C 68.4777931366,140.607308077 68.4419578515,140.678846798 68.4097834067,140.753342283 L 68.3124697406,140.942122236 68.172132691,141.385049163 C 68.1655947418,141.401958804 68.1596630516,141.41941756 68.1552561141,141.438198492 L 68.3751745439,141.798453967 68.487320575,141.915734285 C 68.5007089448,141.930522626 68.5144433158,141.945156261 68.5290603927,141.959423226 L 68.4897926396,141.705371331 C 68.4888199309,141.697865316 68.4878355986,141.6904409 68.4868927184,141.682885076 L 68.4769093928,140.777635044 Z"
       id="path1793"
       inkscape:connector-curvature="0" />
    <path
       style="opacity:1;fill:#4d4d4d;fill-opacity:1;fill-rule:nonzero;stroke:none;stroke-width:0.0207703896;stroke-linecap:round;stroke-linejoin:round;stroke-miterlimit:4;stroke-dasharray:none;stroke-dashoffset:0;stroke-opacity:1"
       d="M 66.4297008021,142.938110063 66.4445331747,143.430715926 66.3395656226,143.638987136 66.3276807103,144.006611257 66.4280369153,144.190827404 C 66.4351853596,144.205872361 66.4426005419,144.220410999 66.4500477741,144.234611423 66.4901861004,144.054775089 66.5657765775,143.882953312 66.6734365954,143.733400883 L 66.7064766536,143.523798561 66.6105416355,143.158028488 Z"
       id="path1791"
       inkscape:connector-curvature="0" />
    <path
       sodipodi:type="inkscape:offset"
       inkscape:radius="0"
       inkscape:original="M 67.853515625 143.662109375 C 67.8121851999 143.663064158 67.771501065 143.666630559 67.73046875 143.671875 C 67.1143694879 143.750742691 66.6638332437 144.287542451 66.646484375 144.9140625 C 66.6475729678 144.915762485 66.6492944679 144.916263228 66.650390625 144.91796875 C 66.6856148894 144.972774476 66.7233945856 145.030651551 66.7578125 145.095703125 C 66.7769558788 145.074996065 66.7862650982 145.066608532 66.8203125 145.033203125 C 66.9102395449 144.944971734 67.004896115 144.907237427 67.05078125 144.890625 A 0.154170786369 0.160445735058 0 0 1 67.1796875 145.181640625 C 67.2069422879 145.164816145 67.1757989652 145.189821982 67.1640625 145.244140625 C 67.1528818502 145.295886876 67.1516336872 145.363014645 67.158203125 145.4140625 C 67.2565168774 145.776910742 67.6541859513 146.056167608 68.16015625 145.966796875 C 68.534814681 145.877006291 68.899835152 145.656073232 69.021484375 145.18359375 C 69.1014310531 144.87308485 69.0753276955 144.577964215 68.966796875 144.326171875 C 68.7492489037 143.918443759 68.3263821609 143.65108908 67.853515625 143.662109375 z "
       style="opacity:1;fill:#4d4d4d;fill-opacity:1;fill-rule:nonzero;stroke:none;stroke-width:0.0197276119;stroke-linecap:round;stroke-linejoin:round;stroke-miterlimit:4;stroke-dasharray:none;stroke-dashoffset:0;stroke-opacity:1"
       id="path1767"
       d="M 67.853515625,143.662109375 C 67.8121851999,143.663064158 67.771501065,143.666630559 67.73046875,143.671875 67.1143694879,143.750742691 66.6638332437,144.287542451 66.646484375,144.9140625 66.6475729678,144.915762485 66.6492944679,144.916263228 66.650390625,144.91796875 66.6856148894,144.972774476 66.7233945856,145.030651551 66.7578125,145.095703125 66.7769558788,145.074996065 66.7862650982,145.066608532 66.8203125,145.033203125 66.9102395449,144.944971734 67.004896115,144.907237427 67.05078125,144.890625 A 0.154170786369,0.160445735058 0 0 1 67.1796875,145.181640625 C 67.2069422879,145.164816145 67.1757989652,145.189821982 67.1640625,145.244140625 67.1528818502,145.295886876 67.1516336872,145.363014645 67.158203125,145.4140625 67.2565168774,145.776910742 67.6541859513,146.056167608 68.16015625,145.966796875 68.534814681,145.877006291 68.899835152,145.656073232 69.021484375,145.18359375 69.1014310531,144.87308485 69.0753276955,144.577964215 68.966796875,144.326171875 68.7492489037,143.918443759 68.3263821609,143.65108908 67.853515625,143.662109375 Z"
       transform="matrix(1.00923485576,0,0,1.00923485576,-0.629246685393,-1.35311936793)" />
    <path
       style="opacity:1;fill:#4d4d4d;fill-opacity:1;fill-rule:nonzero;stroke:none;stroke-width:0.0207703896;stroke-linecap:round;stroke-linejoin:round;stroke-miterlimit:4;stroke-dasharray:none;stroke-dashoffset:0;stroke-opacity:1"
       d="M 68.6416695337,139.199661481 68.6190406576,139.450480679 68.5530556234,139.549743471 68.5245318341,139.735528425 68.5641799009,139.835123995 C 68.5740271979,139.864491246 68.5856019122,139.891096562 68.5961265463,139.915275846 L 68.6172816922,139.968425176 68.6641557884,139.803272429 C 68.671366145,139.778668912 68.6784481785,139.754016739 68.6853584699,139.728397478 L 68.7462567647,139.513755954 68.7199673403,139.322313781 Z"
       id="path1797"
       inkscape:connector-curvature="0" />
    <path
       style="fill:#ffffff;stroke:#cccccc;stroke-width:0.0433018"
       d="m 10.094182,20.718976 -0.2259175,-0.410451 0.016144,-0.70304 0.016144,-0.70304 0.1986105,-0.401155 0.198611,-0.401155 -0.02378,-0.898511 c -0.01308,-0.494182 -0.01359,-0.898512 -0.0011,-0.898512 0.01245,0 0.16481,0.172814 0.338578,0.384031 l 0.315942,0.38403 0.18505,0.687688 c 0.113037,0.420073 0.17648,0.738241 0.163029,0.817594 -0.01211,0.07145 -0.02745,0.159134 -0.03408,0.194858 -0.0066,0.03572 -0.02737,0.162381 -0.04608,0.281461 -0.01871,0.11908 -0.05849,0.245738 -0.08839,0.281461 -0.208031,0.248533 -0.556029,0.999746 -0.711685,1.536297 l -0.07511,0.258894 z"
       id="path1"
       transform="matrix(0.26458333,0,0,0.26458333,63.719173,138.64063)" />
    <path
       style="fill:#ffffff;stroke:#cccccc;stroke-width:0.0433018"
       d="m 15.566982,27.704137 c -1.095557,-0.154053 -2.040045,-0.829255 -2.470942,-1.766442 -0.09895,-0.21521 -0.120091,-0.322867 -0.123296,-0.627817 -0.0039,-0.371231 0.06261,-0.635529 0.177623,-0.705805 0.163315,-0.09979 0.243456,-0.489595 0.150027,-0.729723 -0.07201,-0.185079 -0.310532,-0.339844 -0.523761,-0.339844 -0.253039,0 -0.754719,0.257941 -1.072177,0.551264 -0.287263,0.265424 -0.243024,0.281476 -0.543206,-0.197099 -0.151962,-0.24227 -0.160639,-0.274471 -0.137982,-0.51203 0.245014,-2.568931 2.25194,-4.485491 4.690956,-4.479736 1.295562,0.0031 2.366184,0.453059 3.298398,1.386379 0.849328,0.850335 1.2213,1.767703 1.22173,3.013062 3.57e-4,1.032597 -0.215143,1.839886 -0.681987,2.554804 -0.524599,0.803364 -1.227843,1.317648 -2.290081,1.674739 -0.469835,0.157944 -0.557441,0.173497 -1.039242,0.1845 -0.289385,0.0066 -0.584612,0.0038 -0.65606,-0.0063 z"
       id="path2"
       transform="matrix(0.26458333,0,0,0.26458333,63.719173,138.64063)" />
    <path
       style="fill:#ffffff;stroke:#cccccc;stroke-width:0.0433018"
       d="M 15.26387,29.700662 C 13.212194,29.33434 11.292343,27.809155 10.332474,25.783017 9.8910672,24.851276 9.7250399,24.11996 9.7286144,23.123139 c 0.00137,-0.381055 0.02249,-0.780514 0.04694,-0.887686 l 0.044456,-0.194858 0.00474,0.290175 c 0.00899,0.550055 0.1636428,0.961225 0.6328706,1.682628 0.365313,0.561642 0.496752,0.838501 0.497296,1.047495 3.06e-4,0.117156 0.01899,0.162382 0.0671,0.162382 0.149493,0 0.451969,-0.204182 0.805419,-0.543686 0.303353,-0.291384 0.720707,-0.58216 0.835578,-0.58216 0.01198,0 -0.02631,0.07087 -0.08509,0.157496 -0.163995,0.24166 -0.212016,0.468973 -0.213716,1.011651 l -0.0016,0.497971 0.190213,0.389716 c 0.229172,0.469533 0.467521,0.78834 0.854486,1.142922 0.540045,0.494854 1.314768,0.858675 2.1323,1.001361 0.381627,0.06661 1.280293,0.05563 1.636607,-0.01999 0.452457,-0.09603 0.946181,-0.267584 1.400196,-0.486537 1.813912,-0.874779 2.764905,-2.451237 2.76424,-4.582272 -3.11e-4,-0.997014 -0.208338,-1.808762 -0.676919,-2.641407 -0.76254,-1.354998 -2.094959,-2.298336 -3.732788,-2.642773 -0.350736,-0.07376 -1.213205,-0.145898 -1.493911,-0.124953 -0.71223,0.05314 -0.884942,0.06832 -1.025254,0.09005 -0.157914,0.02447 -0.160262,0.02259 -0.28623,-0.229344 -0.153604,-0.3072 -0.278329,-0.685735 -0.397585,-1.206653 -0.04907,-0.214343 -0.10842,-0.47253 -0.131888,-0.573748 -0.02347,-0.101218 -0.06151,-0.266847 -0.08454,-0.368065 -0.247516,-1.087771 -0.324242,-2.438666 -0.197401,-3.475596 0.03783,-0.309261 0.09735,-0.795958 0.132264,-1.081549 0.05182,-0.423904 0.120415,-0.690285 0.373512,-1.4506093 0.306051,-0.9194055 0.316953,-0.9428996 0.849776,-1.8315486 0.52249,-0.8714147 0.558615,-0.919356 1.129869,-1.4994517 0.555645,-0.5642469 1.062982,-0.99578 1.112493,-0.9462696 0.01216,0.012159 -0.179191,0.3424962 -0.425221,0.7340829 -0.367306,0.5846116 -0.449323,0.7457916 -0.458482,0.9010082 -0.0061,0.1039678 -0.018,0.2001776 -0.02637,0.2137995 -0.0084,0.013622 -0.02876,0.131939 -0.04532,0.2629268 -0.01656,0.1309878 -0.03671,0.2489162 -0.04478,0.2620631 -0.0081,0.013147 -0.02816,0.1667637 -0.04464,0.3413705 -0.04218,0.446948 0.09052,1.7490834 0.220934,2.1678792 0.169775,0.545215 0.325396,0.967215 0.410703,1.113699 0.175796,0.301869 0.700014,0.961009 0.884574,1.112242 0.107186,0.08783 0.219724,0.18383 0.250086,0.21333 0.138853,0.134917 1.311511,1.132331 1.783119,1.516648 1.189781,0.969558 1.924831,1.692409 2.475254,2.434169 0.857098,1.155042 1.349127,2.244713 1.626566,3.602268 0.116888,0.571955 0.132199,0.739392 0.14745,1.612515 0.02179,1.247292 -0.06399,1.877421 -0.392004,2.879567 -0.697877,2.132181 -2.255951,3.796159 -4.342008,4.637143 -0.502734,0.202674 -1.194044,0.400228 -1.671794,0.477744 -0.467732,0.07589 -1.54646,0.07069 -1.996281,-0.0096 z"
       id="path3"
       transform="matrix(0.26458333,0,0,0.26458333,63.719173,138.64063)" />
    <path
       style="fill:#ffffff;stroke:#cccccc;stroke-width:0.0433018"
       d="m 17.836526,12.17784 c -0.301849,-0.331369 -1.051522,-1.513886 -1.044513,-1.647591 0.0023,-0.04327 0.03327,-0.16019 0.06889,-0.25981 0.03562,-0.09962 0.154917,-0.473416 0.265101,-0.8306555 0.140787,-0.4564599 0.311165,-0.8744154 0.573197,-1.4061121 0.205074,-0.416122 0.38056,-0.733493 0.389968,-0.7052687 0.0094,0.028224 -0.01181,0.2046202 -0.04715,0.3919909 -0.05148,0.2729536 -0.0607,0.6369491 -0.04638,1.8311144 0.02442,2.036403 0.03325,2.182213 0.17227,2.843621 0.01126,0.05358 0.0055,0.09708 -0.01282,0.09665 -0.01832,-4.29e-4 -0.161669,-0.141701 -0.318562,-0.313938 z"
       id="path4"
       transform="matrix(0.26458333,0,0,0.26458333,63.719173,138.64063)" />
    <path
       style="fill:#ffffff;stroke:#cccccc;stroke-width:0.0433018"
       d="m 18.330135,4.5653484 -0.176516,-0.4336393 0.07291,-0.3795255 c 0.04989,-0.2597113 0.108368,-0.4266009 0.185221,-0.5286421 0.09399,-0.1248003 0.117875,-0.2161978 0.146441,-0.5604833 0.01877,-0.2262517 0.02971,-0.435724 0.0243,-0.4654939 -0.01954,-0.1075689 0.04107,-0.049799 0.181731,0.173207 0.183932,0.2916099 0.272929,0.8557232 0.179198,1.1358537 -0.03203,0.095714 -0.139497,0.4663114 -0.238824,0.8235509 -0.09933,0.3572395 -0.1845,0.6538656 -0.189271,0.6591691 -0.0048,0.0053 -0.08811,-0.185495 -0.185191,-0.4239966 z"
       id="path5"
       transform="matrix(0.26458333,0,0,0.26458333,63.719173,138.64063)" />
  </g>
</svg>
