<?xml version="1.0" encoding="UTF-8" standalone="no"?>
<svg
   width="32"
   height="32"
   version="1.1"
   id="svg6"
   sodipodi:docname="kdeconnect-symbolic.svg"
   inkscape:version="1.3.2 (091e20ef0f, 2023-11-25, custom)"
   xmlns:inkscape="http://www.inkscape.org/namespaces/inkscape"
   xmlns:sodipodi="http://sodipodi.sourceforge.net/DTD/sodipodi-0.dtd"
   xmlns="http://www.w3.org/2000/svg"
   xmlns:svg="http://www.w3.org/2000/svg">
  <sodipodi:namedview
     id="namedview1"
     pagecolor="#505050"
     bordercolor="#ffffff"
     borderopacity="1"
     inkscape:showpageshadow="0"
     inkscape:pageopacity="0"
     inkscape:pagecheckerboard="1"
     inkscape:deskcolor="#d1d1d1"
     inkscape:zoom="23.09375"
     inkscape:cx="15.978349"
     inkscape:cy="15.978349"
     inkscape:window-width="2560"
     inkscape:window-height="1388"
     inkscape:window-x="2560"
     inkscape:window-y="28"
     inkscape:window-maximized="1"
     inkscape:current-layer="svg6" />
  <defs
     id="defs10" />
  <namedview
     id="namedview8"
     pagecolor="#ffffff"
     bordercolor="#000000"
     borderopacity="0.25"
     inkscape:showpageshadow="2"
     inkscape:pageopacity="0.0"
     inkscape:pagecheckerboard="0"
     inkscape:deskcolor="#d1d1d1"
     showgrid="false"
     inkscape:zoom="24.15625"
     inkscape:cx="13.785252"
     inkscape:cy="15.979301"
     inkscape:window-width="1920"
     inkscape:window-height="1011"
     inkscape:window-x="0"
     inkscape:window-y="0"
     inkscape:window-maximized="1"
     inkscape:current-layer="svg6" />
  <style
     type="text/css"
     id="current-color-scheme">.ColorScheme-Text{color:#31363b;}.ColorScheme-Background{color:#eff0f1;}.ColorScheme-Highlight{color:#3daee9;}.ColorScheme-ViewText{color:#31363b;}.ColorScheme-ViewBackground{color:#fcfcfc;}.ColorScheme-ViewHover{color:#93cee9;}.ColorScheme-ViewFocus{color:#3daee9;}.ColorScheme-ButtonText{color:#31363b;}.ColorScheme-ButtonBackground{color:#eff0f1;}.ColorScheme-ButtonHover{color:#93cee9;}.ColorScheme-ButtonFocus { color: #3daee9; } </style>
  <g
     id="kdeconnect"
     transform="translate(-321,-529.36218)">
    <rect
       y="529.36218"
       x="321"
       height="32"
       width="32"
       id="rect4436"
       style="opacity:1;fill:none;fill-opacity:1;stroke:none;stroke-width:0.1;stroke-linecap:square;stroke-linejoin:miter;stroke-miterlimit:4;stroke-dasharray:none;stroke-dashoffset:0;stroke-opacity:1" />
    <path
       style="opacity:1;fill:currentColor;fill-opacity:1;stroke:none"
       d="m 8,2 v 24 1 3 H 24 V 2 Z m 5,1 h 6 V 4 H 13 Z M 9,5 H 23 V 28 H 9 Z m 6.5,7 -0.277344,1.107422 c -0.25213,0.0672 -0.494403,0.166995 -0.720703,0.296875 l -0.976562,-0.585938 -0.707032,0.707032 0.585938,0.976562 c -0.13139,0.22672 -0.232511,0.469666 -0.300781,0.722656 L 12,15.5 v 1 l 1.107422,0.277344 c 0.0672,0.25213 0.166995,0.494403 0.296875,0.720703 l -0.585938,0.976562 0.707032,0.707032 0.976562,-0.585938 c 0.22672,0.13139 0.469666,0.232511 0.722656,0.300781 L 15.5,20 h 1 l 0.277344,-1.107422 c 0.25213,-0.0672 0.494403,-0.166995 0.720703,-0.296875 l 0.976562,0.585938 0.707032,-0.707032 -0.585938,-0.976562 c 0.13139,-0.22672 0.232511,-0.469666 0.300781,-0.722656 L 20,16.5 v -1 l -1.107422,-0.277344 c -0.0672,-0.25213 -0.166995,-0.494403 -0.296875,-0.720703 l 0.585938,-0.976562 -0.707032,-0.707032 -0.976562,0.585938 c -0.22672,-0.13139 -0.469666,-0.232511 -0.722656,-0.300781 L 16.5,12 Z m 0.5,2 c 0.0665,2e-5 0.133019,0.0028 0.199219,0.0098 0.0662,0.006 0.132035,0.0163 0.197265,0.0293 0.0659,0.0136 0.131103,0.03058 0.195313,0.05078 0.0636,0.0197 0.12618,0.04246 0.1875,0.06836 0.0613,0.0256 0.121257,0.05434 0.179687,0.08594 0.0584,0.0323 0.115072,0.0675 0.169922,0.105468 0.0554,0.0377 0.108837,0.0781 0.160156,0.121094 0.0511,0.0431 0.09999,0.0887 0.146485,0.136719 0.046,0.0473 0.0897,0.0968 0.130859,0.148437 0.0418,0.0527 0.08091,0.107443 0.117188,0.164063 0.0361,0.0562 0.06931,0.114258 0.09961,0.173828 0.0297,0.0592 0.05638,0.119801 0.08008,0.181641 0.0247,0.062 0.04615,0.125263 0.06445,0.189453 0.0176,0.0643 0.03187,0.129532 0.04297,0.195312 0.0111,0.066 0.01894,0.132459 0.02344,0.199219 C 17.998141,15.906175 18,15.95311 18,16 c -2e-5,0.0665 -0.0028,0.133019 -0.0098,0.199219 -0.006,0.0662 -0.0163,0.132035 -0.0293,0.197265 -0.0136,0.0659 -0.03058,0.131103 -0.05078,0.195313 -0.0197,0.0636 -0.04246,0.12618 -0.06836,0.1875 -0.0256,0.0613 -0.05434,0.121257 -0.08594,0.179687 -0.0323,0.0584 -0.0675,0.115072 -0.105468,0.169922 -0.0377,0.0554 -0.07809,0.108836 -0.121094,0.160156 -0.0431,0.0511 -0.0887,0.09999 -0.136719,0.146485 -0.0473,0.046 -0.09681,0.0897 -0.148437,0.130859 -0.0527,0.0418 -0.107433,0.08091 -0.164063,0.117188 -0.0562,0.0361 -0.114258,0.06931 -0.173828,0.09961 -0.0592,0.0297 -0.119801,0.05638 -0.181641,0.08008 -0.062,0.0246 -0.125263,0.04615 -0.189453,0.06445 -0.0643,0.0176 -0.129532,0.03187 -0.195312,0.04297 -0.066,0.0111 -0.132459,0.01894 -0.199219,0.02344 -0.0279,0.004 -0.05588,0.0068 -0.08398,0.0098 h -0.136719 c -0.0398,-0.002 -0.0795,-0.0048 -0.119141,-0.0098 -0.0662,-0.006 -0.132035,-0.0163 -0.197265,-0.0293 -0.0659,-0.0136 -0.131103,-0.03058 -0.195313,-0.05078 -0.0636,-0.0197 -0.12618,-0.04246 -0.1875,-0.06836 -0.0613,-0.0256 -0.121257,-0.05434 -0.179687,-0.08594 -0.0584,-0.0323 -0.115072,-0.06751 -0.169922,-0.105469 -0.0554,-0.0377 -0.108826,-0.07809 -0.160156,-0.121094 -0.0301,-0.0264 -0.05939,-0.05383 -0.08789,-0.08203 l -0.08789,-0.08789 c -0.0353,-0.0371 -0.0692,-0.0755 -0.101562,-0.115234 -0.0418,-0.0527 -0.0809,-0.107433 -0.117188,-0.164063 -0.0361,-0.0562 -0.06931,-0.114258 -0.09961,-0.173828 -0.0297,-0.0592 -0.05638,-0.1198 -0.08008,-0.18164 -0.0247,-0.062 -0.04615,-0.125263 -0.06445,-0.189454 -0.0176,-0.0644 -0.03187,-0.129532 -0.04297,-0.195312 -0.0111,-0.066 -0.01894,-0.132459 -0.02344,-0.199219 -0.004,-0.0468 -0.0059,-0.0937 -0.0059,-0.140625 2e-5,-0.0665 0.0028,-0.133019 0.0098,-0.199218 0.006,-0.0662 0.0163,-0.132036 0.0293,-0.197266 0.0136,-0.0659 0.03058,-0.131103 0.05078,-0.195313 0.0197,-0.0636 0.04246,-0.12618 0.06836,-0.1875 0.0256,-0.0613 0.05434,-0.121257 0.08594,-0.179687 0.0323,-0.0584 0.0675,-0.115072 0.105468,-0.169922 0.0377,-0.0554 0.07809,-0.108826 0.121094,-0.160156 0.0431,-0.0511 0.0887,-0.100005 0.136719,-0.146485 0.0473,-0.046 0.09681,-0.0897 0.148437,-0.130859 0.0527,-0.0418 0.107433,-0.0809 0.164063,-0.117188 0.0562,-0.0361 0.114258,-0.06931 0.173828,-0.09961 0.0592,-0.0297 0.119801,-0.05638 0.181641,-0.08008 0.062,-0.0246 0.125263,-0.04615 0.189453,-0.06445 0.0643,-0.0176 0.129532,-0.03187 0.195312,-0.04297 0.066,-0.0111 0.132459,-0.01894 0.199219,-0.02344 C 15.906075,14.004766 15.95298,14.002 16,14 Z"
       transform="translate(321,529.36218)"
       id="path4241"
       class="ColorScheme-Text" />
  </g>
  <path
     style="fill:#ffffff;stroke:#cccccc;stroke-width:0.0433018"
     d="m 15.374588,19.430745 -0.137507,-0.553017 -0.246416,-0.09121 c -0.135529,-0.05017 -0.306732,-0.116216 -0.380451,-0.146777 -0.128588,-0.05331 -0.153219,-0.04393 -0.606224,0.230686 l -0.47219,0.286251 -0.34306,-0.341212 -0.34306,-0.341211 0.288473,-0.481972 0.288473,-0.481971 -0.08021,-0.159756 c -0.04411,-0.08787 -0.112334,-0.258022 -0.151599,-0.378126 l -0.07139,-0.21837 -0.529944,-0.129741 -0.529944,-0.129741 V 16 15.505424 l 0.524038,-0.128295 0.524038,-0.128295 0.15301,-0.387083 0.153009,-0.387083 -0.283977,-0.47446 -0.283978,-0.474461 0.34306,-0.341211 0.34306,-0.341212 0.47219,0.286251 c 0.453005,0.274621 0.477636,0.283994 0.606224,0.230686 0.07372,-0.03056 0.244922,-0.09661 0.380451,-0.146777 l 0.246416,-0.09121 0.137507,-0.553017 0.137506,-0.553017 H 16 16.487906 l 0.137507,0.553017 0.137506,0.553017 0.246416,0.09121 c 0.135529,0.05017 0.306731,0.116216 0.380451,0.146777 0.128588,0.05331 0.153219,0.04394 0.606224,-0.230686 l 0.47219,-0.286251 0.34306,0.341212 0.34306,0.341211 -0.283978,0.474461 -0.283977,0.47446 0.15301,0.387083 0.153009,0.387083 0.524038,0.128295 0.524038,0.128295 V 16 16.494576 l -0.531998,0.130244 c -0.486141,0.119017 -0.53425,0.139692 -0.558134,0.239857 -0.01438,0.06029 -0.08079,0.231691 -0.147584,0.380899 l -0.121448,0.271287 0.286512,0.478695 0.286512,0.478695 -0.34306,0.341211 -0.34306,0.341212 -0.47219,-0.286251 c -0.453005,-0.274621 -0.477636,-0.283994 -0.606224,-0.230686 -0.07372,0.03056 -0.244922,0.09661 -0.380451,0.146777 l -0.246416,0.09121 -0.137506,0.553017 -0.137507,0.553017 H 16 15.512094 Z m 1.014079,-1.461051 c 0.411536,-0.08717 0.731445,-0.257181 1.017525,-0.540736 1.280229,-1.268933 0.391899,-3.440912 -1.40344,-3.431429 -1.537694,0.0081 -2.476385,1.577157 -1.773447,2.964339 0.242214,0.477987 0.837733,0.918747 1.381419,1.022426 0.312102,0.05952 0.439324,0.05713 0.777943,-0.0146 z"
     id="path1" />
  <path
     style="fill:#ffffff;stroke:#cccccc;stroke-width:0.0433018"
     d="M 8.0108254,16 V 2.0135318 H 16 23.989175 V 16 29.986468 H 16 8.0108254 Z M 23.025791,16.508796 23.036697,5.0013532 H 16.000081 8.9634641 V 16.490753 c 0,6.31917 0.013049,11.502449 0.028998,11.518398 0.015949,0.01595 3.1775189,0.02407 7.0257109,0.01804 l 6.996712,-0.01096 z M 19.009472,3.4857916 V 2.9661705 H 16 12.990528 V 3.4857916 4.0054127 H 16 19.009472 Z"
     id="path2" />
</svg>
