<?xml version="1.0" encoding="UTF-8" standalone="no"?>
<svg
   width="32"
   height="32"
   version="1.1"
   id="svg1"
   sodipodi:docname="yakuake-symbolic.svg"
   inkscape:version="1.3.2 (091e20ef0f, 2023-11-25, custom)"
   xmlns:inkscape="http://www.inkscape.org/namespaces/inkscape"
   xmlns:sodipodi="http://sodipodi.sourceforge.net/DTD/sodipodi-0.dtd"
   xmlns="http://www.w3.org/2000/svg"
   xmlns:svg="http://www.w3.org/2000/svg">
  <defs
     id="defs1" />
  <sodipodi:namedview
     id="namedview1"
     pagecolor="#505050"
     bordercolor="#ffffff"
     borderopacity="1"
     inkscape:showpageshadow="0"
     inkscape:pageopacity="0"
     inkscape:pagecheckerboard="1"
     inkscape:deskcolor="#d1d1d1"
     inkscape:zoom="23.09375"
     inkscape:cx="15.978349"
     inkscape:cy="15.978349"
     inkscape:window-width="2560"
     inkscape:window-height="1388"
     inkscape:window-x="2560"
     inkscape:window-y="28"
     inkscape:window-maximized="1"
     inkscape:current-layer="svg1" />
  <style
     type="text/css"
     id="current-color-scheme">.ColorScheme-Background{color:#181818;}.ColorScheme-ButtonBackground{color:#343434;}.ColorScheme-Highlight{color:#1a73e8;}.ColorScheme-Text{color:#232629;}.ColorScheme-ViewBackground{color:#242424;}.ColorScheme-NegativeText { color: #ff4747; } </style>
  <g
     id="yakuake">
    <rect
       id="rect11"
       width="32"
       height="32"
       opacity=".001" />
    <path
       id="rect43"
       class="ColorScheme-Text"
       d="m4.1016 8.3691v0.046875h23.797v-0.046875h-23.797zm23.797 0.046875v16.566h-23.797v-16.566h-0.93555v17.5h25.668v-17.5h-0.93555zm-11.061 4.0469-3.5 3.5 1.2383 1.2383 3.5-3.5-1.2383-1.2383z"
       fill-opacity=".3"
       style="fill:currentColor" />
    <path
       id="path1467"
       d="m17.458 13.083-3.5 3.5"
       color="#000000"
       fill="#2980b9"
       stroke-width="1.75"
       style="-inkscape-stroke:none" />
    <path
       id="rect63"
       class="ColorScheme-Text"
       d="m2.5833 6.0833h26.833c0.32317 0 0.58333 0.26017 0.58333 0.58333v1.1667c0 0.32317-0.26017 0.58333-0.58333 0.58333h-26.833c-0.32317 0-0.58333-0.26017-0.58333-0.58333v-1.1667c0-0.32317 0.26017-0.58333 0.58333-0.58333zm8.493 6.3804-1.2379 1.2379 2.8835 2.881-2.8835 2.881 1.2379 1.2379 4.119-4.119zm4.9244 8.7873v1.75h6.4158v-1.75z"
       style="fill:currentColor" />
  </g>
  <path
     style="fill:#ffffff;stroke:#cccccc;stroke-width:0.0433018"
     d="m 10.457,20.067398 -0.6058498,-0.609603 1.4411858,-1.41496 c 0.792653,-0.778227 1.440555,-1.434338 1.439784,-1.458022 -7.72e-4,-0.02369 -0.644511,-0.686386 -1.430532,-1.47267 l -1.4291285,-1.429606 0.5959355,-0.594795 0.595935,-0.594795 2.045644,2.045983 2.045643,2.045984 -2.046383,2.046044 -2.046384,2.046043 z"
     id="path1" />
  <path
     style="fill:#ffffff;stroke:#cccccc;stroke-width:0.0433018"
     d="m 16.021651,22.127199 v -0.844384 h 3.182679 3.182679 v 0.844384 0.844384 H 19.20433 16.021651 Z"
     id="path2" />
  <path
     style="fill:#ffffff;stroke:#cccccc;stroke-width:0.0433018"
     d="M 2.2894854,8.3059827 C 2.0592201,8.163075 2.0351827,8.0633998 2.0351827,7.2514746 c 0,-0.8387051 0.038008,-0.97011 0.3143207,-1.0867046 0.2098337,-0.088543 27.0911596,-0.088543 27.3009936,0 0.276313,0.1165946 0.31432,0.2479995 0.31432,1.0867046 0,0.8169286 -0.02469,0.9166878 -0.261535,1.056594 -0.110312,0.065163 -1.205809,0.07073 -13.709963,0.06967 C 3.5064721,8.3766794 2.3940126,8.3708545 2.2894854,8.3059827 Z"
     id="path3" />
  <path
     style="fill:#ffffff;stroke:#cccccc;stroke-width:0.0433018;opacity:0.3"
     d="m 14.583643,15.940529 -0.593624,-0.611706 1.416139,-1.418161 1.416139,-1.418161 0.606307,0.606307 0.606307,0.606307 -1.428822,1.423561 -1.428822,1.42356 z"
     id="path4" />
  <path
     style="opacity:0.3;fill:#ffffff;stroke:#cccccc;stroke-width:0.0433018"
     d="M 3.2043302,17.169147 V 8.4221922 h 0.4330176 0.4330176 v 8.2922868 8.292287 H 16 27.929635 V 16.714479 8.4221922 h 0.433017 0.433018 v 8.7469548 8.746956 H 16 3.2043302 Z"
     id="path5" />
</svg>
