<?xml version="1.0" encoding="UTF-8" standalone="no"?>
<svg
   width="24"
   height="24"
   viewBox="0 0 24 24"
   version="1.1"
   id="svg1"
   sodipodi:docname="applications-all-symbolic.svg"
   inkscape:version="1.3.2 (091e20ef0f, 2023-11-25, custom)"
   xmlns:inkscape="http://www.inkscape.org/namespaces/inkscape"
   xmlns:sodipodi="http://sodipodi.sourceforge.net/DTD/sodipodi-0.dtd"
   xmlns="http://www.w3.org/2000/svg"
   xmlns:svg="http://www.w3.org/2000/svg">
  <defs
     id="defs1" />
  <sodipodi:namedview
     id="namedview1"
     pagecolor="#505050"
     bordercolor="#ffffff"
     borderopacity="1"
     inkscape:showpageshadow="0"
     inkscape:pageopacity="0"
     inkscape:pagecheckerboard="1"
     inkscape:deskcolor="#d1d1d1"
     inkscape:zoom="49.333333"
     inkscape:cx="11.989865"
     inkscape:cy="12"
     inkscape:window-width="2560"
     inkscape:window-height="1388"
     inkscape:window-x="2560"
     inkscape:window-y="28"
     inkscape:window-maximized="1"
     inkscape:current-layer="svg1" />
  <style
     type="text/css"
     id="current-color-scheme">.ColorScheme-Text{color:#31363b;}.ColorScheme-Background{color:#E9E8E8;}.ColorScheme-ViewText{color:#31363b;}.ColorScheme-ViewBackground{color:#ffffff;}.ColorScheme-ViewHover{color:#000000;}.ColorScheme-ViewFocus{color:#5a5a5a;}.ColorScheme-ButtonText{color:#31363b;}.ColorScheme-ButtonBackground{color:#E9E8E8;}.ColorScheme-ButtonHover{color:#1489ff;}.ColorScheme-ButtonFocus { color: #2B74C7; } </style>
  <g
     transform="translate(1,1)"
     id="g1">
    <g
       transform="matrix(1.0000029,0,0,1.000001,-420.71555,-516.79125) translate(-2.6353e-15,-10)"
       id="22-22-applications-other">
      <rect
         style="opacity:0.01000001;fill:#000000;fill-opacity:0.00392157;stroke:none"
         id="rect3028"
         width="22"
         height="22"
         x="-7.1556997e-08"
         y="2.0000052"
         transform="matrix(0.99999706,0,0,0.99999899,420.71433,524.79072)" />
      <path
         style="fill:currentColor;fill-opacity:1;stroke:none"
         d="m 423.71432,529.79072 0,6.99999 6.99998,0 0,-6.99999 -6.99998,0 z m 8.99998,0 0,6.99999 6.99998,0 0,-6.99999 -6.99998,0 z m -7.99998,1 4.99999,0 0,4.99999 -4.99999,0 0,-4.99999 z m 8.99997,0 4.99999,0 0,4.99999 -4.99999,0 0,-4.99999 z m -9.99997,7.99999 0,6.99999 6.99998,0 0,-6.99999 -6.99998,0 z m 8.99998,0 0,6.99999 0.99999,0 4.99999,0 1,0 0,-1 0,-4.99999 0,-1 -1,0 -4.99999,0 -0.99999,0 z m -7.99998,1 4.99999,0 0,4.99999 -4.99999,0 0,-4.99999 z m 8.99997,0 4.99999,0 0,4.99999 -4.99999,0 0,-4.99999 z"
         id="rect4298"
         class="ColorScheme-Text" />
    </g>
  </g>
  <path
     style="fill:#ffffff;stroke:#cccccc;stroke-width:0.0202703"
     d="M 4.0135135,7.5 V 4.0033784 H 7.5 10.986486 V 7.5 10.996622 H 7.5 4.0135135 Z m 6.0000005,0 V 4.9966216 H 7.5 4.9864865 V 7.5 10.003378 H 7.5 10.013514 Z"
     id="path1" />
  <path
     style="fill:#ffffff;stroke:#cccccc;stroke-width:0.0202703"
     d="M 13.013514,7.5 V 4.0033784 H 16.5 19.986486 V 7.5 10.996622 H 16.5 13.013514 Z m 6,0 V 4.9966216 H 16.5 13.986486 V 7.5 10.003378 H 16.5 19.013514 Z"
     id="path2" />
  <path
     style="fill:#ffffff;stroke:#cccccc;stroke-width:0.0202703"
     d="M 4.0135135,16.5 V 13.003378 H 7.5 10.986486 V 16.5 19.996622 H 7.5 4.0135135 Z m 6.0000005,0 V 13.996622 H 7.5 4.9864865 V 16.5 19.003378 H 7.5 10.013514 Z"
     id="path3" />
  <path
     style="fill:#ffffff;stroke:#cccccc;stroke-width:0.0202703"
     d="M 13.013514,16.5 V 13.003378 H 16.5 19.986486 V 16.5 19.996622 H 16.5 13.013514 Z m 6,0 V 13.996622 H 16.5 13.986486 V 16.5 19.003378 H 16.5 19.013514 Z"
     id="path4" />
</svg>
