<?xml version="1.0" encoding="UTF-8" standalone="no"?>
<svg
   sodipodi:docname="drive-optical-symbolic.svg"
   viewBox="0 0 16 16"
   inkscape:version="1.3.2 (091e20ef0f, 2023-11-25, custom)"
   version="1.1"
   id="svg4159"
   height="16"
   width="16"
   xmlns:inkscape="http://www.inkscape.org/namespaces/inkscape"
   xmlns:sodipodi="http://sodipodi.sourceforge.net/DTD/sodipodi-0.dtd"
   xmlns="http://www.w3.org/2000/svg"
   xmlns:svg="http://www.w3.org/2000/svg"
   xmlns:rdf="http://www.w3.org/1999/02/22-rdf-syntax-ns#"
   xmlns:cc="http://creativecommons.org/ns#"
   xmlns:dc="http://purl.org/dc/elements/1.1/">
  <title
     id="title4518">Boston Icons</title>
  <defs
     id="defs4161">
    <inkscape:perspective
       id="perspective4709"
       inkscape:persp3d-origin="8 : 5.3333333 : 1"
       inkscape:vp_z="16 : 8 : 1"
       inkscape:vp_y="0 : 1000 : 0"
       inkscape:vp_x="0 : 8 : 1"
       sodipodi:type="inkscape:persp3d" />
  </defs>
  <sodipodi:namedview
     inkscape:document-rotation="0"
     inkscape:guide-bbox="true"
     showguides="true"
     inkscape:window-maximized="1"
     inkscape:window-y="28"
     inkscape:window-x="2560"
     inkscape:window-height="1388"
     inkscape:window-width="2560"
     inkscape:document-units="px"
     inkscape:grid-bbox="true"
     showgrid="false"
     inkscape:current-layer="layer1"
     inkscape:cy="11.442574"
     inkscape:cx="15.136634"
     inkscape:zoom="22.197802"
     inkscape:pageshadow="2"
     inkscape:pageopacity="0"
     borderopacity="1"
     bordercolor="#00fff6"
     pagecolor="#ffffff"
     id="base"
     inkscape:showpageshadow="0"
     inkscape:pagecheckerboard="1"
     inkscape:deskcolor="#d1d1d1">
    <inkscape:grid
       id="grid4707"
       type="xygrid"
       originx="0"
       originy="0"
       spacingy="1"
       spacingx="1"
       units="px"
       visible="false" />
  </sodipodi:namedview>
  <metadata
     id="metadata4164">
    <rdf:RDF>
      <cc:Work
         rdf:about="">
        <dc:format>image/svg+xml</dc:format>
        <dc:type
           rdf:resource="http://purl.org/dc/dcmitype/StillImage" />
        <dc:title>Boston Icons</dc:title>
        <cc:license
           rdf:resource="dribbble.com/chrisdiaz" />
        <dc:creator>
          <cc:Agent>
            <dc:title>Christian Díaz</dc:title>
          </cc:Agent>
        </dc:creator>
        <dc:description>diazchris.deviantart.com | dribbble.com/chrisdiaz</dc:description>
        <dc:date>2019</dc:date>
        <dc:publisher>
          <cc:Agent>
            <dc:title>Christian Díaz</dc:title>
          </cc:Agent>
        </dc:publisher>
        <dc:subject>
          <rdf:Bag>
            <rdf:li>GNOME icon Theme</rdf:li>
          </rdf:Bag>
        </dc:subject>
        <dc:identifier>christiandiaz.design [at] gmail [dot] com</dc:identifier>
      </cc:Work>
    </rdf:RDF>
  </metadata>
  <g
     inkscape:groupmode="layer"
     inkscape:label="Layer 1"
     id="layer1">
    <path
       id="path842"
       style="fill:#252627;stroke-width:2;stroke-linecap:square;stroke-linejoin:round"
       d="M 1,0 V 8 H 3 V 7 4 h 10 v 3 1 h 2 V 0 H 13 V 3 H 3 V 0 Z m 3,5 v 1 h 8 V 5 Z M 5.0019531,7 A 5,5 0 0 0 3,11 5,5 0 0 0 8,16 5,5 0 0 0 13,11 5,5 0 0 0 11,7 Z M 8,10 a 1,1 0 0 1 1,1 1,1 0 0 1 -1,1 1,1 0 0 1 -1,-1 1,1 0 0 1 1,-1 z" />
    <path
       style="fill:#ffffff;stroke:#cccccc;stroke-width:0.0450495"
       d="M 4.994248,6.9905922 C 4.0325987,7.7955553 3.2839485,8.8974353 3.0835113,10.151833 c -0.2139931,1.185672 0.034693,2.436074 0.6776824,3.454261 0.9539953,1.627495 2.9054817,2.577608 4.7749839,2.350494 1.8405984,-0.169427 3.4915594,-1.476099 4.1299484,-3.203267 0.26437,-0.620008 0.33654,-1.295951 0.298712,-1.964134 C 12.985581,9.3952757 12.225724,8.0882138 11.206152,7.1805712 11.056207,6.906083 10.75662,6.9956649 10.500582,6.985225 8.6654836,6.988815 6.8276584,6.978065 4.994248,6.990595 Z m 3.0025672,3.0166448 c 0.6154726,-0.0275 1.1307507,0.620427 0.9668926,1.212905 -0.07106,0.481819 -0.5714832,0.831371 -1.0509208,0.753964 -0.6836591,0.0335 -1.1135007,-0.847952 -0.8111548,-1.414308 0.1622749,-0.337233 0.524185,-0.555223 0.895183,-0.552561 z"
       id="path1" />
    <path
       style="fill:#ffffff;stroke:#cccccc;stroke-width:0.0450495"
       d="m 3.9894329,5.0230198 c 0.01429,0.3188427 -0.027663,0.6609825 0.019973,0.9660128 2.6579208,0 5.3158416,0 7.9737621,0 0.03223,-0.3090315 0.03413,-0.6770639 0,-0.9859859 -2.6579205,0 -5.3158413,0 -7.9737621,0 z"
       id="path2" />
    <path
       style="fill:#ffffff;stroke:#cccccc;stroke-width:0.0450495"
       d="m 1.0161655,0.02252475 c 0,2.65792085 0,5.31584165 0,7.97376245 0.6358383,0.046562 1.3075299,0.00657 1.9571019,0.019973 0.046598,-0.9887114 0.00669,-2.0132538 0.019973,-3.0157652 0,-0.3312134 0,-0.6624272 0,-0.9936408 3.3353645,0 6.6707289,0 10.0060936,0 0,1.329811 0,2.659622 0,3.9894329 0.635838,0.046562 1.30753,0.00657 1.957102,0.019973 0.04661,-0.9811957 0.0066,-1.998255 0.01997,-2.9932405 0,-1.6668317 0,-3.3336633 0,-5.00049505 -0.635838,-0.04656227 -1.30753,-0.006567 -1.957102,-0.01997312 -0.04658,0.97370215 -0.0066,1.98325937 -0.01997,2.97071577 -0.1555,0.1156477 -0.529712,0.012583 -0.765842,0.047601 -3.0800836,0 -6.1601678,0 -9.2402516,0 0,-0.9994479 0,-1.9988958 0,-2.99834375 C 2.3574022,-0.02403752 1.6857106,0.01595777 1.0361386,0.00255163 Z"
       id="path3" />
  </g>
</svg>
