<?xml version="1.0" encoding="UTF-8" standalone="no"?>
<!-- Created with Inkscape (http://www.inkscape.org/) -->

<svg
   width="16"
   height="16"
   id="svg4159"
   version="1.1"
   inkscape:version="1.3.2 (091e20ef0f, 2023-11-25, custom)"
   viewBox="0 0 16 16"
   sodipodi:docname="drive-harddisk-solidstate-symbolic.svg"
   xmlns:inkscape="http://www.inkscape.org/namespaces/inkscape"
   xmlns:sodipodi="http://sodipodi.sourceforge.net/DTD/sodipodi-0.dtd"
   xmlns="http://www.w3.org/2000/svg"
   xmlns:svg="http://www.w3.org/2000/svg"
   xmlns:rdf="http://www.w3.org/1999/02/22-rdf-syntax-ns#"
   xmlns:cc="http://creativecommons.org/ns#"
   xmlns:dc="http://purl.org/dc/elements/1.1/">
  <title
     id="title4518">Boston Icons</title>
  <defs
     id="defs4161">
    <inkscape:perspective
       sodipodi:type="inkscape:persp3d"
       inkscape:vp_x="0 : 8 : 1"
       inkscape:vp_y="0 : 1000 : 0"
       inkscape:vp_z="16 : 8 : 1"
       inkscape:persp3d-origin="8 : 5.3333333 : 1"
       id="perspective4709" />
  </defs>
  <sodipodi:namedview
     id="base"
     pagecolor="#ffffff"
     bordercolor="#00fff6"
     borderopacity="1"
     inkscape:pageopacity="0"
     inkscape:pageshadow="2"
     inkscape:zoom="22.197802"
     inkscape:cx="5.1356436"
     inkscape:cy="5.9465347"
     inkscape:current-layer="layer1"
     showgrid="false"
     inkscape:grid-bbox="true"
     inkscape:document-units="px"
     inkscape:window-width="2560"
     inkscape:window-height="1388"
     inkscape:window-x="2560"
     inkscape:window-y="28"
     inkscape:window-maximized="1"
     showguides="true"
     inkscape:guide-bbox="true"
     inkscape:pagecheckerboard="0"
     inkscape:showpageshadow="0"
     inkscape:deskcolor="#d1d1d1">
    <inkscape:grid
       type="xygrid"
       id="grid4707"
       originx="0"
       originy="0"
       spacingy="1"
       spacingx="1"
       units="px"
       visible="false" />
  </sodipodi:namedview>
  <metadata
     id="metadata4164">
    <rdf:RDF>
      <cc:Work
         rdf:about="">
        <dc:format>image/svg+xml</dc:format>
        <dc:type
           rdf:resource="http://purl.org/dc/dcmitype/StillImage" />
        <dc:title>Boston Icons</dc:title>
        <cc:license
           rdf:resource="dribbble.com/chrisdiaz" />
        <dc:creator>
          <cc:Agent>
            <dc:title>Christian Díaz</dc:title>
          </cc:Agent>
        </dc:creator>
        <dc:description>diazchris.deviantart.com | dribbble.com/chrisdiaz</dc:description>
        <dc:date>2019</dc:date>
        <dc:publisher>
          <cc:Agent>
            <dc:title>Christian Díaz</dc:title>
          </cc:Agent>
        </dc:publisher>
        <dc:subject>
          <rdf:Bag>
            <rdf:li>GNOME icon Theme</rdf:li>
          </rdf:Bag>
        </dc:subject>
        <dc:identifier>christiandiaz.design [at] gmail [dot] com</dc:identifier>
      </cc:Work>
    </rdf:RDF>
  </metadata>
  <g
     id="layer1"
     inkscape:label="Layer 1"
     inkscape:groupmode="layer">
    <path
       id="path852"
       style="opacity:1;fill:#252627;fill-opacity:1;stroke:none;stroke-width:2;stroke-linecap:square;stroke-linejoin:bevel;stroke-miterlimit:4;stroke-dasharray:none;stroke-opacity:1"
       d="M 3 0 C 2.965375 0 2.9321362 0.0024575195 2.8984375 0.005859375 C 2.8647388 0.0092612305 2.8314355 0.012892578 2.7988281 0.01953125 C 2.7336133 0.032808594 2.6692344 0.052890625 2.609375 0.078125 C 2.5495156 0.10335938 2.4926367 0.13405077 2.4394531 0.16992188 C 2.3862695 0.20579296 2.3381562 0.24778125 2.2929688 0.29296875 C 2.2477813 0.33815625 2.205793 0.38626954 2.1699219 0.43945312 C 2.1340508 0.49263672 2.1033594 0.54951562 2.078125 0.609375 C 2.0528906 0.66923438 2.0328086 0.73361329 2.0195312 0.79882812 C 2.0128926 0.83143555 2.0092612 0.86473877 2.0058594 0.8984375 C 2.0024575 0.93213623 2 0.965375 2 1 L 2 15 C 2 15.034625 2.0024575 15.067865 2.0058594 15.101562 C 2.0092612 15.135262 2.0128926 15.168564 2.0195312 15.201172 C 2.0328087 15.266387 2.0528906 15.330766 2.078125 15.390625 C 2.1033594 15.450484 2.1340508 15.507363 2.1699219 15.560547 C 2.205793 15.61373 2.2477813 15.661844 2.2929688 15.707031 C 2.3381561 15.752219 2.3862695 15.794207 2.4394531 15.830078 C 2.4926367 15.865949 2.5495156 15.896641 2.609375 15.921875 C 2.6692344 15.947109 2.7336133 15.967191 2.7988281 15.980469 C 2.8314355 15.987107 2.8647388 15.990739 2.8984375 15.994141 C 2.9321362 15.997542 2.965375 16 3 16 L 13 16 C 13.034625 16 13.067865 15.997542 13.101562 15.994141 C 13.135262 15.990739 13.168564 15.987107 13.201172 15.980469 C 13.266387 15.967191 13.330766 15.947109 13.390625 15.921875 C 13.450484 15.896641 13.507363 15.865949 13.560547 15.830078 C 13.61373 15.794207 13.661844 15.752219 13.707031 15.707031 C 13.752219 15.661844 13.794207 15.61373 13.830078 15.560547 C 13.865949 15.507363 13.896641 15.450484 13.921875 15.390625 C 13.947109 15.330766 13.967191 15.266387 13.980469 15.201172 C 13.987107 15.168564 13.990739 15.135261 13.994141 15.101562 C 13.997542 15.067865 14 15.034625 14 15 L 14 1 C 14 0.965375 13.997542 0.93213623 13.994141 0.8984375 C 13.990739 0.86473877 13.987107 0.83143555 13.980469 0.79882812 C 13.967191 0.73361329 13.947109 0.66923438 13.921875 0.609375 C 13.896641 0.54951562 13.865949 0.49263672 13.830078 0.43945312 C 13.794207 0.38626954 13.752219 0.33815625 13.707031 0.29296875 C 13.661844 0.24778125 13.61373 0.20579296 13.560547 0.16992188 C 13.507363 0.13405078 13.450484 0.10335938 13.390625 0.078125 C 13.330766 0.052890625 13.266387 0.032808594 13.201172 0.01953125 C 13.168564 0.012892578 13.135261 0.0092612305 13.101562 0.005859375 C 13.067865 0.0024575195 13.034625 0 13 0 L 3 0 z M 4 2 L 12 2 L 12 12 L 4 12 L 4 2 z M 7 4 L 7 5 L 6 5 L 5 5 L 5 6 L 6 6 L 6 7 L 5 7 L 5 8 L 6 8 L 6 9 L 6 10 L 7 10 L 7 9 L 8 9 L 8 10 L 9 10 L 9 9 L 10 9 L 11 9 L 11 8 L 10 8 L 10 7 L 11 7 L 11 6 L 10 6 L 10 5 L 10 4 L 9 4 L 9 5 L 8 5 L 8 4 L 7 4 z M 7 6 L 9 6 L 9 8 L 7 8 L 7 6 z M 4 13 L 7 13 L 7 14 L 4 14 L 4 13 z M 11 13 L 12 13 L 12 14 L 11 14 L 11 13 z " />
    <path
       style="fill:#ffffff;stroke:#cccccc;stroke-width:0.0450495"
       d="M 9.2088406,0.0096786 C 7.0419643,0.01567303 4.8739836,0.01606117 2.7078096,0.02806795 2.3699808,0.18494165 2.0956392,0.48205367 2.0072546,0.84371038 2.0190115,5.5381871 1.980014,10.233106 2.0374256,14.927287 c -0.034055,0.306851 0.072089,0.609335 0.3135955,0.807573 0.2588961,0.316251 0.6939244,0.196465 1.047479,0.227292 3.2022214,0.02473 6.405267,0.04624 9.6072809,-3.26e-4 0.416235,0.04681 0.827925,-0.270942 0.926482,-0.667343 0.08566,-1.574678 0.03232,-3.154777 0.0512,-4.731517 1.93e-4,-3.2665756 0.0038,-6.5337184 -8.4e-5,-9.79994 C 13.837413,0.33853806 13.434378,-0.0301935 12.960847,0.02934463 11.710489,0.00103411 10.45943,0.01177407 9.2088406,0.0096786 Z m -1.2125534,1.969948 c 1.3373193,0 2.6746378,0 4.0119578,0 0,3.3353645 0,6.670729 0,10.0060934 -2.6746385,0 -5.3492771,0 -8.0239154,0 0,-3.3353644 0,-6.6707289 0,-10.0060934 1.3373192,0 2.6746383,0 4.0119576,0 z M 5.4960397,13.016755 c 0.5039033,0 1.0078065,0 1.51171,0 0,0.332064 0,0.664129 0,0.996193 -1.0078067,0 -2.0156134,0 -3.0234201,0 0,-0.332064 0,-0.664129 0,-0.996193 0.5039033,0 1.0078067,0 1.5117101,0 z m 6.0141093,0 c 0.275978,-0.0048 0.629416,-0.08712 0.498096,0.315347 -0.05476,0.202226 0.116821,0.630785 -0.0901,0.680846 -0.302031,0 -0.604062,0 -0.906094,0 0,-0.332064 0,-0.664129 0,-0.996193 0.166033,0 0.332064,0 0.498098,0 z"
       id="path1" />
    <path
       style="fill:#ffffff;stroke:#cccccc;stroke-width:0.0450495"
       d="m 7.0077497,4.0319307 c 0,0.3237054 0,0.6474107 0,0.971116 -0.6728323,0.013684 -1.3681204,-0.026846 -2.0272277,0.019973 0.01429,0.3188427 -0.027663,0.6609825 0.019973,0.9660128 0.3387218,0 0.6774436,0 1.0161655,0 0,0.3320641 0,0.6641282 0,0.9961924 -0.3422069,0.014317 -0.7076596,-0.027486 -1.0361386,0.019973 0.013383,0.3342349 -0.026722,0.6906255 0.019973,1.0110622 0.3387218,0 0.6774436,0 1.0161655,0 0.013403,0.6579319 -0.026616,1.3379924 0.019973,1.9821783 0.3188427,-0.014291 0.6609824,0.027663 0.9660127,-0.019973 0,-0.3237054 0,-0.6474105 0,-0.9711159 0.3320642,0 0.6641283,0 0.9961924,0 0.013525,0.3275184 -0.026683,0.6772941 0.019973,0.9910891 0.3188426,-0.014291 0.6609824,0.027663 0.9660127,-0.019973 0,-0.3237054 0,-0.6474105 0,-0.9711159 0.6728324,-0.013684 1.3681208,0.026845 2.0272278,-0.019973 -0.01397,-0.3179652 0.02698,-0.658248 -0.01945,-0.9630211 -0.331389,-0.00835 -0.662778,-0.01668 -0.9941689,-0.024989 0,-0.332416 0,-0.6648321 0,-0.9972482 0.3346239,-0.022398 0.6931469,0.00987 1.0136139,-0.044962 -0.01435,-0.3178225 0.02772,-0.6590101 -0.01997,-0.9630211 -0.338722,0 -0.677443,0 -1.0161657,0 C 9.9625107,5.3362038 10.00253,4.6561434 9.9559407,4.0119576 9.6370979,4.0262481 9.2949583,3.9842944 8.989928,4.0319307 c 0,0.3237054 0,0.6474107 0,0.971116 -0.3320642,0 -0.6641283,0 -0.9961924,0 -0.013525,-0.3275185 0.026683,-0.6772939 -0.019973,-0.9910891 -0.3182483,0.01417 -0.6618192,-0.027489 -0.9660129,0.019973 z m 0.9885375,1.9571019 c 0.3312136,0 0.6624272,0 0.9936408,0 0,0.6774437 0,1.3548873 0,2.032331 -0.6624272,0 -1.3248544,0 -1.9872816,0 0,-0.6774437 0,-1.3548873 0,-2.032331 0.3312136,0 0.6624272,0 0.9936408,0 z"
       id="path2" />
  </g>
</svg>
