<?xml version="1.0" encoding="UTF-8" standalone="no"?>
<!-- Created with Inkscape (http://www.inkscape.org/) -->

<svg
   width="16"
   height="16"
   id="svg4159"
   version="1.1"
   inkscape:version="1.3.2 (091e20ef0f, 2023-11-25, custom)"
   viewBox="0 0 16 16"
   sodipodi:docname="drive-harddisk-usb-symbolic.svg"
   xmlns:inkscape="http://www.inkscape.org/namespaces/inkscape"
   xmlns:sodipodi="http://sodipodi.sourceforge.net/DTD/sodipodi-0.dtd"
   xmlns="http://www.w3.org/2000/svg"
   xmlns:svg="http://www.w3.org/2000/svg"
   xmlns:rdf="http://www.w3.org/1999/02/22-rdf-syntax-ns#"
   xmlns:cc="http://creativecommons.org/ns#"
   xmlns:dc="http://purl.org/dc/elements/1.1/">
  <title
     id="title4518">Boston Icons</title>
  <defs
     id="defs4161">
    <inkscape:perspective
       sodipodi:type="inkscape:persp3d"
       inkscape:vp_x="0 : 8 : 1"
       inkscape:vp_y="0 : 1000 : 0"
       inkscape:vp_z="16 : 8 : 1"
       inkscape:persp3d-origin="8 : 5.3333333 : 1"
       id="perspective4709" />
  </defs>
  <sodipodi:namedview
     id="base"
     pagecolor="#ffffff"
     bordercolor="#00fff6"
     borderopacity="1"
     inkscape:pageopacity="0"
     inkscape:pageshadow="2"
     inkscape:zoom="22.197802"
     inkscape:cx="11.262376"
     inkscape:cy="4.7752476"
     inkscape:current-layer="layer1"
     showgrid="false"
     inkscape:grid-bbox="true"
     inkscape:document-units="px"
     inkscape:window-width="2560"
     inkscape:window-height="1388"
     inkscape:window-x="2560"
     inkscape:window-y="28"
     inkscape:window-maximized="1"
     showguides="true"
     inkscape:guide-bbox="true"
     inkscape:pagecheckerboard="0"
     inkscape:showpageshadow="0"
     inkscape:deskcolor="#d1d1d1">
    <inkscape:grid
       type="xygrid"
       id="grid4707"
       originx="0"
       originy="0"
       spacingy="1"
       spacingx="1"
       units="px"
       visible="false" />
  </sodipodi:namedview>
  <metadata
     id="metadata4164">
    <rdf:RDF>
      <cc:Work
         rdf:about="">
        <dc:format>image/svg+xml</dc:format>
        <dc:type
           rdf:resource="http://purl.org/dc/dcmitype/StillImage" />
        <dc:title>Boston Icons</dc:title>
        <cc:license
           rdf:resource="dribbble.com/chrisdiaz" />
        <dc:creator>
          <cc:Agent>
            <dc:title>Christian Díaz</dc:title>
          </cc:Agent>
        </dc:creator>
        <dc:date>2022</dc:date>
        <dc:publisher>
          <cc:Agent>
            <dc:title>Christian Díaz</dc:title>
          </cc:Agent>
        </dc:publisher>
        <dc:subject>
          <rdf:Bag>
            <rdf:li>GNOME icon Theme</rdf:li>
          </rdf:Bag>
        </dc:subject>
        <dc:identifier>christiandiaz.design [at] gmail [dot] com</dc:identifier>
        <dc:description>dribbble.com/chrisdiaz | diazchris.deviantart.com</dc:description>
      </cc:Work>
    </rdf:RDF>
  </metadata>
  <g
     id="layer1"
     inkscape:label="Layer 1"
     inkscape:groupmode="layer">
    <path
       id="path824"
       style="opacity:1;fill:#252627;fill-opacity:1;stroke:none;stroke-width:2;stroke-linecap:square;stroke-linejoin:bevel;stroke-miterlimit:4;stroke-dasharray:none;stroke-opacity:1"
       d="M 3 0 C 2.965375 0 2.9321362 0.0024575195 2.8984375 0.005859375 C 2.8647388 0.0092612305 2.8314355 0.012892578 2.7988281 0.01953125 C 2.7336133 0.032808594 2.6692344 0.052890625 2.609375 0.078125 C 2.5495156 0.10335938 2.4926367 0.13405077 2.4394531 0.16992188 C 2.3862695 0.20579296 2.3381562 0.24778125 2.2929688 0.29296875 C 2.2477813 0.33815625 2.205793 0.38626954 2.1699219 0.43945312 C 2.1340508 0.49263672 2.1033594 0.54951562 2.078125 0.609375 C 2.0528906 0.66923438 2.0328086 0.73361329 2.0195312 0.79882812 C 2.0128926 0.83143555 2.0092612 0.86473877 2.0058594 0.8984375 C 2.0024575 0.93213623 2 0.965375 2 1 L 2 15 C 2 15.034625 2.0024575 15.067865 2.0058594 15.101562 C 2.0092612 15.135262 2.0128926 15.168564 2.0195312 15.201172 C 2.0328087 15.266387 2.0528906 15.330766 2.078125 15.390625 C 2.1033594 15.450484 2.1340508 15.507363 2.1699219 15.560547 C 2.205793 15.61373 2.2477813 15.661844 2.2929688 15.707031 C 2.3381561 15.752219 2.3862695 15.794207 2.4394531 15.830078 C 2.4926367 15.865949 2.5495156 15.896641 2.609375 15.921875 C 2.6692344 15.947109 2.7336133 15.967191 2.7988281 15.980469 C 2.8314355 15.987107 2.8647388 15.990739 2.8984375 15.994141 C 2.9321362 15.997542 2.965375 16 3 16 L 6 16 L 6 14 L 4 14 L 4 12 L 6 12 L 6 11 L 4 11 L 4 2 L 12 2 L 12 7 L 14 7 L 14 1 C 14 0.965375 13.997542 0.93213623 13.994141 0.8984375 C 13.990739 0.86473877 13.987107 0.83143555 13.980469 0.79882812 C 13.967191 0.73361329 13.947109 0.66923438 13.921875 0.609375 C 13.896641 0.54951562 13.865949 0.49263672 13.830078 0.43945312 C 13.794207 0.38626954 13.752219 0.33815625 13.707031 0.29296875 C 13.661844 0.24778125 13.61373 0.20579296 13.560547 0.16992188 C 13.507363 0.13405078 13.450484 0.10335938 13.390625 0.078125 C 13.330766 0.052890625 13.266387 0.032808594 13.201172 0.01953125 C 13.168564 0.012892578 13.135261 0.0092612305 13.101562 0.005859375 C 13.067865 0.0024575195 13.034625 0 13 0 L 3 0 z M 5 3 L 5 4 L 7 4 L 7 3 L 5 3 z M 8 8 L 8 12 L 7 12 L 7 16 L 8 16 L 8 13 L 13 13 L 13 16 C 13.008634 16 13.0169 16.000282 13.025391 16 L 14 16 L 14 15.025391 C 14.000282 15.0169 14 15.008634 14 15 L 14 12 L 13 12 L 13 8 L 8 8 z M 9 10 L 10 10 L 10 11 L 9 11 L 9 10 z M 11 10 L 12 10 L 12 11 L 11 11 L 11 10 z M 13.816406 15.580078 C 13.802398 15.599559 13.786956 15.618475 13.771484 15.636719 C 13.787001 15.618422 13.802362 15.599619 13.816406 15.580078 z M 13.636719 15.771484 C 13.618475 15.786956 13.599559 15.802398 13.580078 15.816406 C 13.599619 15.802362 13.618422 15.787001 13.636719 15.771484 z " />
    <path
       style="fill:#ffffff;stroke:#cccccc;stroke-width:0.0450495"
       d="M 9.2088406,0.0096786 C 7.0419643,0.01567303 4.8739836,0.01606117 2.7078096,0.02806795 2.3699808,0.18494165 2.0956392,0.48205367 2.0072546,0.84371038 2.0190115,5.5381871 1.980014,10.233106 2.0374256,14.927287 c -0.034055,0.306851 0.072089,0.609335 0.3135955,0.807573 0.2842747,0.335252 0.7602401,0.196426 1.1403156,0.241437 0.8332956,0.01499 1.6667755,0.0095 2.5001595,0.01373 0.046767,-0.635714 0.0066,-1.307551 0.020061,-1.957102 -0.6592105,-0.04657 -1.35428,-0.0066 -2.0272277,-0.01997 0,-0.677444 0,-1.354888 0,-2.032331 0.6728323,-0.01368 1.3681204,0.02684 2.0272277,-0.01997 -0.01429,-0.318843 0.027663,-0.660983 -0.019973,-0.966013 -0.6690849,0 -1.3381697,0 -2.0072546,0 0,-3.0050017 0,-6.0100028 0,-9.0150044 2.6746383,0 5.3492769,0 8.0239154,0 0,1.660174 0,3.3203481 0,4.980522 0.635838,0.046562 1.30753,0.00657 1.957102,0.019973 0.04662,-0.9811958 0.0066,-1.998255 0.01997,-2.9932405 -0.02034,-1.0911572 0.04205,-2.18756 -0.04593,-3.27567975 C 13.824011,0.27040807 13.360095,-0.03591691 12.907035,0.02754003 11.674528,0.0023542 10.441529,0.01117788 9.2088406,0.0096786 Z"
       id="path1" />
    <path
       style="fill:#ffffff;stroke:#cccccc;stroke-width:0.0450495"
       d="m 7.9988388,8.0413367 c 0,1.3147945 0,2.6295893 0,3.9443833 -0.3275185,0.01352 -0.6772939,-0.02668 -0.9910891,0.01997 0,1.321452 0,2.642905 0,3.964357 0.3090316,0.03223 0.6770639,0.03413 0.9859859,0 0,-0.984432 0,-1.968863 0,-2.953295 1.6685328,0 3.3370654,0 5.0055984,0 0.01337,0.98831 -0.02661,1.998717 0.01997,2.973268 0.318843,-0.01429 0.660983,0.02766 0.966013,-0.01997 0,-1.321452 0,-2.642905 0,-3.964357 -0.313779,-0.0467 -0.663512,-0.0066 -0.991089,-0.01997 0,-1.314794 0,-2.6295888 0,-3.9443833 -0.981196,-0.046616 -1.998255,-0.00665 -2.993241,-0.019973 -0.6643823,0.013263 -1.3516609,-0.026554 -2.0021512,0.019973 z m 1.4840821,1.9571018 c 0.2759788,-0.00483 0.6294161,-0.087121 0.4980962,0.3153465 -0.054756,0.202226 0.1168219,0.630785 -0.090099,0.680846 -0.3020311,0 -0.6040623,0 -0.9060934,0 0,-0.332064 0,-0.664128 0,-0.9961925 0.166032,0 0.3320641,0 0.4980962,0 z m 2.0272281,0 c 0.275978,-0.00483 0.629416,-0.087121 0.498096,0.3153465 -0.05476,0.202226 0.116821,0.630785 -0.0901,0.680846 -0.302031,0 -0.604062,0 -0.906094,0 0,-0.332064 0,-0.664128 0,-0.9961925 0.166032,0 0.332065,0 0.498098,0 z"
       id="path2" />
    <path
       style="fill:#ffffff;stroke:#cccccc;stroke-width:0.0450495"
       d="M 4.980522,3.0408416 C 4.994812,3.3596843 4.952859,3.701824 5.000495,4.0068543 5.6651133,3.9935203 6.3518193,4.0335103 7.0026463,3.9868813 6.988356,3.6680386 7.0303097,3.3258988 6.9826733,3.0208685 6.3182908,3.0341318 5.6310122,2.994315 4.980522,3.0408416 Z"
       id="path3" />
  </g>
</svg>
