<?xml version="1.0" encoding="UTF-8" standalone="no"?>
<svg
   width="16"
   height="16"
   id="svg4159"
   version="1.1"
   inkscape:version="1.3.2 (091e20ef0f, 2023-11-25, custom)"
   viewBox="0 0 16 16"
   sodipodi:docname="media-removable-symbolic.svg"
   xmlns:inkscape="http://www.inkscape.org/namespaces/inkscape"
   xmlns:sodipodi="http://sodipodi.sourceforge.net/DTD/sodipodi-0.dtd"
   xmlns="http://www.w3.org/2000/svg"
   xmlns:svg="http://www.w3.org/2000/svg"
   xmlns:rdf="http://www.w3.org/1999/02/22-rdf-syntax-ns#"
   xmlns:cc="http://creativecommons.org/ns#"
   xmlns:dc="http://purl.org/dc/elements/1.1/">
  <title
     id="title4518">Boston Icons</title>
  <defs
     id="defs4161">
    <inkscape:perspective
       sodipodi:type="inkscape:persp3d"
       inkscape:vp_x="0 : 8 : 1"
       inkscape:vp_y="0 : 1000 : 0"
       inkscape:vp_z="16 : 8 : 1"
       inkscape:persp3d-origin="8 : 5.3333333 : 1"
       id="perspective4709" />
  </defs>
  <sodipodi:namedview
     id="base"
     pagecolor="#ffffff"
     bordercolor="#00fff6"
     borderopacity="1"
     inkscape:pageopacity="0"
     inkscape:pageshadow="2"
     inkscape:zoom="31.392433"
     inkscape:cx="9.8112816"
     inkscape:cy="9.078621"
     inkscape:current-layer="layer1"
     showgrid="false"
     inkscape:grid-bbox="true"
     inkscape:document-units="px"
     inkscape:window-width="2560"
     inkscape:window-height="1388"
     inkscape:window-x="2560"
     inkscape:window-y="28"
     inkscape:window-maximized="1"
     showguides="false"
     inkscape:guide-bbox="true"
     inkscape:document-rotation="0"
     inkscape:showpageshadow="0"
     inkscape:pagecheckerboard="1"
     inkscape:deskcolor="#d1d1d1">
    <inkscape:grid
       type="xygrid"
       id="grid4707"
       originx="0"
       originy="0"
       spacingy="1"
       spacingx="1"
       units="px"
       visible="false" />
  </sodipodi:namedview>
  <metadata
     id="metadata4164">
    <rdf:RDF>
      <cc:Work
         rdf:about="">
        <dc:format>image/svg+xml</dc:format>
        <dc:type
           rdf:resource="http://purl.org/dc/dcmitype/StillImage" />
        <dc:title>Boston Icons</dc:title>
        <cc:license
           rdf:resource="dribbble.com/chrisdiaz" />
        <dc:creator>
          <cc:Agent>
            <dc:title>Christian Díaz</dc:title>
          </cc:Agent>
        </dc:creator>
        <dc:description>dribbble.com/chrisdiaz | diazchris.deviantart.com</dc:description>
        <dc:date>2020</dc:date>
        <dc:publisher>
          <cc:Agent>
            <dc:title>Christian Díaz</dc:title>
          </cc:Agent>
        </dc:publisher>
        <dc:subject>
          <rdf:Bag>
            <rdf:li>GNOME icon Theme</rdf:li>
          </rdf:Bag>
        </dc:subject>
        <dc:identifier>christiandiaz.design [at] gmail [dot] com</dc:identifier>
      </cc:Work>
    </rdf:RDF>
  </metadata>
  <g
     id="layer1"
     inkscape:label="Layer 1"
     inkscape:groupmode="layer">
    <path
       d="m 4,0 v 6 h 8 V 0 Z M 5,2 H 7 V 4 H 5 Z m 4,0 h 2 V 4 H 9 Z M 4,7 C 3.446,7 3,7.446 3,8 v 8 H 13 V 8 C 13,7.446 12.554,7 12,7 Z"
       style="fill:#252627;stroke-width:2;stroke-linecap:round;stroke-linejoin:round"
       id="rect834" />
    <path
       style="fill:#ffffff;stroke:#cccccc;stroke-width:0.0318548"
       d="M 5.2180917,7.0079961 C 4.7066066,7.0266925 4.1862954,6.974226 3.6800394,7.0574581 3.36469,7.1574209 3.1198932,7.4342676 3.0220977,7.7406566 c -0.00563,2.7448224 -0.011229,5.4896454 -0.016795,8.2344684 0.3829172,0.04671 0.8018256,0.0067 1.1985994,0.02003 2.9314306,0 5.8628609,0 8.7942919,0 0.04584,-0.383062 0.005,-0.801845 0.01746,-1.198659 -0.01402,-2.292195 0.01036,-4.584986 -0.03475,-6.8767844 0.01354,-0.425253 -0.356315,-0.7780461 -0.73266,-0.8998373 -2.3433809,-0.00382 -4.6867602,-0.011277 -7.0301449,-0.011882 z"
       id="path1" />
    <path
       style="fill:#ffffff;stroke:#cccccc;stroke-width:0.0318548"
       d="m 3.9937346,0.01592741 c 0,1.98561649 0,3.97123309 0,5.95684949 0.383005,0.04656 0.8018113,0.00669 1.1985995,0.019971 2.2616915,0 4.5233831,0 6.7850749,0 0.04656,-0.3830047 0.0067,-0.801811 0.01997,-1.1985993 0,-1.5927406 0,-3.1854811 0,-4.77822159 -0.383005,-0.04655981 -0.801811,-0.00668751 -1.198599,-0.01997148 -2.2616918,0 -4.5233834,0 -6.7850749,0 z M 5.9887043,2.0108971 c 0.3331275,0 0.666255,0 0.9993825,0 0,0.666255 0,1.3325099 0,1.998765 -0.6601389,-0.00506 -1.3210689,0.012795 -1.9806599,-0.018105 -0.030894,-0.6595911 -0.013046,-1.3205212 -0.018105,-1.98066 0.3331275,0 0.666255,0 0.9993824,0 z m 4.0137057,0 c 0.333128,0 0.666255,0 0.999383,0 0,0.666255 0,1.3325099 0,1.998765 -0.666255,0 -1.33251,0 -1.9987651,0 0,-0.6662551 0,-1.33251 0,-1.998765 0.3331277,0 0.6662551,0 0.9993821,0 z"
       id="path2" />
  </g>
</svg>
