<?xml version="1.0" encoding="UTF-8" standalone="no"?>
<svg
   width="16"
   height="16"
   id="svg4159"
   version="1.1"
   inkscape:version="1.3.2 (091e20ef0f, 2023-11-25, custom)"
   viewBox="0 0 16 16"
   sodipodi:docname="phone-symbolic.svg"
   xmlns:inkscape="http://www.inkscape.org/namespaces/inkscape"
   xmlns:sodipodi="http://sodipodi.sourceforge.net/DTD/sodipodi-0.dtd"
   xmlns="http://www.w3.org/2000/svg"
   xmlns:svg="http://www.w3.org/2000/svg"
   xmlns:rdf="http://www.w3.org/1999/02/22-rdf-syntax-ns#"
   xmlns:cc="http://creativecommons.org/ns#"
   xmlns:dc="http://purl.org/dc/elements/1.1/">
  <title
     id="title4518">Boston Icons</title>
  <defs
     id="defs4161">
    <inkscape:perspective
       sodipodi:type="inkscape:persp3d"
       inkscape:vp_x="0 : 8 : 1"
       inkscape:vp_y="0 : 1000 : 0"
       inkscape:vp_z="16 : 8 : 1"
       inkscape:persp3d-origin="8 : 5.3333333 : 1"
       id="perspective4709" />
  </defs>
  <sodipodi:namedview
     id="base"
     pagecolor="#ffffff"
     bordercolor="#00fff6"
     borderopacity="1"
     inkscape:pageopacity="0"
     inkscape:pageshadow="2"
     inkscape:zoom="31.392433"
     inkscape:cx="9.8112816"
     inkscape:cy="9.078621"
     inkscape:current-layer="layer1"
     showgrid="false"
     inkscape:grid-bbox="true"
     inkscape:document-units="px"
     inkscape:window-width="2560"
     inkscape:window-height="1388"
     inkscape:window-x="2560"
     inkscape:window-y="28"
     inkscape:window-maximized="1"
     showguides="false"
     inkscape:guide-bbox="true"
     inkscape:document-rotation="0"
     inkscape:showpageshadow="0"
     inkscape:pagecheckerboard="1"
     inkscape:deskcolor="#d1d1d1">
    <inkscape:grid
       type="xygrid"
       id="grid4707"
       originx="0"
       originy="0"
       spacingy="1"
       spacingx="1"
       units="px"
       visible="false" />
  </sodipodi:namedview>
  <metadata
     id="metadata4164">
    <rdf:RDF>
      <cc:Work
         rdf:about="">
        <dc:format>image/svg+xml</dc:format>
        <dc:type
           rdf:resource="http://purl.org/dc/dcmitype/StillImage" />
        <dc:title>Boston Icons</dc:title>
        <cc:license
           rdf:resource="dribbble.com/chrisdiaz" />
        <dc:creator>
          <cc:Agent>
            <dc:title>Christian Díaz</dc:title>
          </cc:Agent>
        </dc:creator>
        <dc:description>dribbble.com/chrisdiaz | diazchris.deviantart.com</dc:description>
        <dc:date>2020</dc:date>
        <dc:publisher>
          <cc:Agent>
            <dc:title>Christian Díaz</dc:title>
          </cc:Agent>
        </dc:publisher>
        <dc:subject>
          <rdf:Bag>
            <rdf:li>GNOME icon Theme</rdf:li>
          </rdf:Bag>
        </dc:subject>
        <dc:identifier>christiandiaz.design [at] gmail [dot] com</dc:identifier>
      </cc:Work>
    </rdf:RDF>
  </metadata>
  <g
     id="layer1"
     inkscape:label="Layer 1"
     inkscape:groupmode="layer">
    <path
       d="M 4,0 C 3.446,0 3,0.446 3,1 v 14 c 0,0.554 0.446,1 1,1 h 8 c 0.554,0 1,-0.446 1,-1 V 1 C 13,0.446 12.554,0 12,0 Z m 1,2 h 6 V 14 H 5 Z m 1,10 v 1 h 4 v -1 z"
       style="fill:#252627;stroke-width:6;stroke-linecap:round;stroke-linejoin:round"
       id="rect834" />
    <path
       style="fill:#ffffff;stroke:#cccccc;stroke-width:0.0318548"
       d="M 9.4599453,2.4886571e-4 C 7.5513895,0.00570934 5.6422069,0.00532309 3.7340433,0.01393648 3.4003003,0.15092038 3.087708,0.43422343 3.0221629,0.79637026 c 0.00166,4.83444334 -0.00332,9.66972374 0.00249,14.50364474 0.1573422,0.367891 0.5033485,0.701565 0.9284557,0.673741 2.509904,0.03372 5.0204141,0.0017 7.5305474,0.0067 0.276269,-0.01335 0.564353,0.02404 0.83388,-0.01839 0.372328,-0.15993 0.700335,-0.523509 0.660749,-0.952102 0.04147,-2.895515 0.01403,-5.7916892 0.02252,-8.6874664 -0.0014,-1.8453644 0.0027,-3.691357 -0.0021,-5.53632882 C 12.862712,0.45602286 12.623163,0.07657359 12.231003,0.04336485 11.310359,-0.02996771 10.38271,0.01104293 9.4599453,2.4886571e-4 Z M 7.9955574,2.0108971 c 1.0020784,0 2.0041569,0 3.0062356,0 0,3.9897735 0,7.9795471 0,11.9693209 -2.0041572,0 -4.008314,0 -6.0124711,0 0,-3.9897738 0,-7.9795474 0,-11.9693209 1.0020785,0 2.0041571,0 3.0062355,0 z"
       id="path1" />
    <path
       style="fill:#ffffff;stroke:#cccccc;stroke-width:0.0318548"
       d="m 6.0005877,12.025191 c 0.013268,0.322467 -0.026567,0.66693 0.019972,0.975616 1.3166654,0 2.633331,0 3.9499964,0 0.046538,-0.308686 0.0067,-0.653149 0.019971,-0.975616 -0.3830047,-0.04656 -0.801811,-0.0067 -1.1985993,-0.01997 -0.9237895,0 -1.847579,0 -2.7713685,0 z"
       id="path2" />
  </g>
</svg>
