<?xml version="1.0" encoding="UTF-8" standalone="no"?>
<svg
   version="1.1"
   viewBox="0 0 64 64"
   id="svg1"
   sodipodi:docname="smartphoneconnected.svg"
   inkscape:version="1.3.2 (091e20ef0f, 2023-11-25, custom)"
   xmlns:inkscape="http://www.inkscape.org/namespaces/inkscape"
   xmlns:sodipodi="http://sodipodi.sourceforge.net/DTD/sodipodi-0.dtd"
   xmlns="http://www.w3.org/2000/svg"
   xmlns:svg="http://www.w3.org/2000/svg">
  <defs
     id="defs1" />
  <sodipodi:namedview
     id="namedview1"
     pagecolor="#505050"
     bordercolor="#ffffff"
     borderopacity="1"
     inkscape:showpageshadow="0"
     inkscape:pageopacity="0"
     inkscape:pagecheckerboard="1"
     inkscape:deskcolor="#d1d1d1"
     inkscape:zoom="11.546875"
     inkscape:cx="31.956698"
     inkscape:cy="31.956698"
     inkscape:window-width="2560"
     inkscape:window-height="1388"
     inkscape:window-x="2560"
     inkscape:window-y="28"
     inkscape:window-maximized="1"
     inkscape:current-layer="svg1" />
  <style
     id="current-color-scheme"
     type="text/css">.ColorScheme-PositiveText{color:#27ae60;}.ColorScheme-Text { color: #31363b; } </style>
  <path
     id="smartphone"
     class="ColorScheme-Text"
     d="m22 6c-2.216 0-4 1.784-4 4v44c0 2.216 1.784 4 4 4h20c2.216 0 4-1.784 4-4v-44c0-2.216-1.784-4-4-4h-20zm0 1h20c1.662 0 3 1.338 3 3v44c0 1.662-1.338 3-3 3h-20c-1.662 0-3-1.338-3-3v-44c0-1.662 1.338-3 3-3zm0 2c-0.55228 0-1 0.44772-1 1 0 0.55228 0.44772 1 1 1s1-0.44772 1-1c0-0.55228-0.44772-1-1-1zm5.5 45c-0.277 0-0.5 0.223-0.5 0.5s0.223 0.5 0.5 0.5h9c0.277 0 0.5-0.223 0.5-0.5s-0.223-0.5-0.5-0.5h-9z"
     fill="currentColor" />
  <path
     id="checkmark"
     class="ColorScheme-PositiveText"
     d="m38 27-8 8-4-3-1 1 5 4 9-9z"
     fill="currentColor" />
  <path
     style="fill:#ffffff;stroke:#cccccc;stroke-width:0.0866035"
     d="M 21.227244,57.887385 C 20.191551,57.683986 19.038011,56.836671 18.549814,55.92072 17.977813,54.847538 18.016092,56.563137 18.016092,32 c 0,-24.5481432 -0.03767,-22.8486813 0.530055,-23.9138411 0.514829,-0.9659185 1.626107,-1.7658914 2.748863,-1.9788177 0.630232,-0.1195211 20.766385,-0.121306 21.410355,-0.0019 1.596311,0.2959961 2.935027,1.6602203 3.196607,3.2575179 0.113386,0.6923809 0.113386,44.5816969 0,45.2740779 -0.26158,1.597297 -1.600296,2.961522 -3.196607,3.257518 -0.580379,0.107617 -20.928221,0.100822 -21.478121,-0.0072 z M 43.3683,56.690741 c 0.649496,-0.352199 1.085053,-0.811687 1.394013,-1.470605 l 0.228215,-0.486712 V 32 9.2665765 L 44.760127,8.7750888 C 44.436844,8.0854643 43.924106,7.5623083 43.27989,7.2647735 L 42.738836,7.014885 H 31.956698 21.17456 L 20.766107,7.2179106 C 20.113781,7.542156 19.608955,8.0452116 19.294116,8.6847405 L 19.009472,9.2629343 V 31.998179 54.733424 l 0.228215,0.486712 c 0.406388,0.866703 1.007909,1.390843 1.936873,1.687709 0.274667,0.08777 2.552657,0.107239 10.998647,0.09398 l 10.652233,-0.01671 z"
     id="path1" />
  <path
     style="fill:#ffffff;stroke:#cccccc;stroke-width:0.0866035"
     d="M 21.607578,10.877906 C 21.303106,10.745497 21.112,10.453626 21.066715,10.051861 21.026307,9.6933643 21.04797,9.6356569 21.328108,9.355519 c 0.252564,-0.2525641 0.36843,-0.3054513 0.669186,-0.3054513 0.300756,0 0.416622,0.052887 0.669186,0.3054513 0.2815,0.2815002 0.301937,0.3366257 0.260639,0.703022 -0.05705,0.506154 -0.342652,0.809617 -0.808357,0.858913 -0.185887,0.01968 -0.41592,0.0019 -0.511184,-0.03955 z"
     id="path2" />
  <path
     style="fill:#ffffff;stroke:#cccccc;stroke-width:0.0866035"
     d="m 27.153361,54.780215 c -0.205465,-0.227036 -0.113401,-0.588551 0.178106,-0.699381 0.289422,-0.110038 9.042962,-0.111818 9.332074,-0.0019 0.28509,0.108391 0.367112,0.39062 0.191442,0.658728 l -0.139085,0.212268 h -4.704472 c -4.562243,0 -4.709116,-0.0051 -4.858065,-0.169717 z"
     id="path3" />
</svg>
