<?xml version="1.0" encoding="UTF-8" standalone="no"?>
<!-- Created with Inkscape (http://www.inkscape.org/) -->

<svg
   width="48"
   height="48"
   viewBox="0 0 12.6999996543 12.699999845"
   version="1.1"
   id="svg2117"
   inkscape:version="1.3.2 (091e20ef0f, 2023-11-25, custom)"
   sodipodi:docname="hotspot.svg"
   xmlns:inkscape="http://www.inkscape.org/namespaces/inkscape"
   xmlns:sodipodi="http://sodipodi.sourceforge.net/DTD/sodipodi-0.dtd"
   xmlns="http://www.w3.org/2000/svg"
   xmlns:svg="http://www.w3.org/2000/svg"
   xmlns:rdf="http://www.w3.org/1999/02/22-rdf-syntax-ns#">
  <sodipodi:namedview
     id="namedview1"
     pagecolor="#505050"
     bordercolor="#ffffff"
     borderopacity="1"
     inkscape:showpageshadow="0"
     inkscape:pageopacity="0"
     inkscape:pagecheckerboard="1"
     inkscape:deskcolor="#d1d1d1"
     inkscape:zoom="15.395833"
     inkscape:cx="23.967524"
     inkscape:cy="23.967524"
     inkscape:window-width="2560"
     inkscape:window-height="1388"
     inkscape:window-x="2560"
     inkscape:window-y="28"
     inkscape:window-maximized="1"
     inkscape:current-layer="layer1" />
  <defs
     id="defs2111">
    <style
       id="current-color-scheme"
       type="text/css">.ColorScheme-Text { color: #fcfcfc; } </style>
  </defs>
  <namedview
     id="base"
     pagecolor="#ffffff"
     bordercolor="#666666"
     borderopacity="1.0"
     inkscape:pageopacity="0.0"
     inkscape:pageshadow="2"
     inkscape:zoom="14.4218749848"
     inkscape:cx="17.2743657732"
     inkscape:cy="17.7197584724"
     inkscape:document-units="mm"
     inkscape:current-layer="layer1"
     showgrid="true"
     fit-margin-top="0"
     fit-margin-left="0"
     fit-margin-right="0"
     fit-margin-bottom="0"
     units="px"
     inkscape:window-width="1920"
     inkscape:window-height="1080"
     inkscape:window-x="479"
     inkscape:window-y="245"
     inkscape:window-maximized="0"
     width="22px"
     inkscape:snap-global="false">
    <grid
       type="xygrid"
       id="grid2133" />
  </namedview>
  <metadata
     id="metadata2114">
    <RDF>
      <Work
         rdf:about="">
        <format>image/svg+xml</format>
        <type
           rdf:resource="http://purl.org/dc/dcmitype/StillImage" />
        <title />
      </Work>
    </RDF>
  </metadata>
  <g
     inkscape:label="Layer 1"
     inkscape:groupmode="layer"
     id="layer1"
     transform="translate(-63.7191734314,-134.407297622)">
    <path
       style="opacity:1;fill:#4d4d4d;fill-opacity:1;fill-rule:nonzero;stroke:none;stroke-width:0.0296053439;stroke-linecap:round;stroke-linejoin:round;stroke-miterlimit:4;stroke-dasharray:none;stroke-dashoffset:0;stroke-opacity:1"
       d="M 70.4012174494,136.683773832 C 70.2896102765,136.760377681 70.1859268935,136.84082087 70.08910909,136.924326299 70.0890537379,136.924396899 70.0889611442,136.924458986 70.0889058082,136.924529582 V 136.924597345 L 70.0883637126,136.925139433 69.7128308198,137.313004876 69.31026118,137.980588793 69.0654397513,138.713901131 68.9740975726,139.518837121 C 68.9620402517,139.923430984 69.0040938956,140.325442071 69.0915278337,140.700051376 L 69.0920021634,140.704930187 H 69.0927475354 C 69.1764105376,141.061507952 69.1922953479,141.229892519 69.3516795099,141.514532126 71.1593567151,141.197662471 72.357420038,142.594834483 71.9532685822,144.103148246 71.7400605959,144.898851255 71.0835408953,145.282055745 70.4540034704,145.425789292 69.5667776068,145.580061084 68.8187072931,145.101147539 68.6386115767,144.429021181 68.6034499474,144.207368668 68.6581684297,143.909457687 68.784908132,143.834280618 68.7117224289,143.859740785 68.6226226347,143.889105995 68.5158959344,143.989724946 68.3361610618,144.159173968 68.3317457672,144.219041361 68.0967925501,144.284825225 68.2117785115,143.96077679 67.5805791388,143.697333233 67.6945983087,143.002228349 67.6972370269,142.986141683 67.666074208,143.135315584 67.668541397,143.118789492 67.3904467626,144.654744414 68.9637072611,146.383761472 70.7092601294,145.916041996 71.8919377029,145.620841394 72.596944483,144.752430783 72.8300520174,143.772211307 72.9646641193,143.206166121 72.9230558396,142.622475585 72.8007791542,142.132592137 72.7011838972,141.733578461 72.49777185,141.312599321 72.1917409569,140.926035171 72.0936930829,140.8021856 71.9914810091,140.688814092 71.887221861,140.58336649 L 71.8848502182,140.579910663 71.8759734922,140.572185882 C 71.6412809219,140.33643702 71.3979439697,140.141616085 71.1648190769,139.957320222 L 70.4742640863,139.360140251 C 70.4614007978,139.346470219 70.4485356515,139.332812824 70.4360467364,139.318941406 L 70.2210402614,139.035496063 C 70.2039437366,139.007906579 70.1877951236,138.979636946 70.1722521544,138.950930012 L 70.007592291,138.479311657 69.9490465701,137.830429845 70.0293436618,137.281428132 C 70.0328440095,137.269635695 70.0365740787,137.258000189 70.0403209829,137.246327799 Z"
       id="path1795"
       inkscape:connector-curvature="0" />
    <path
       style="opacity:1;fill:#4d4d4d;fill-opacity:1;fill-rule:nonzero;stroke:none;stroke-width:0.0296053439;stroke-linecap:round;stroke-linejoin:round;stroke-miterlimit:4;stroke-dasharray:none;stroke-dashoffset:0;stroke-opacity:1"
       d="M 70.9242337356,137.466853225 C 70.8648470643,137.561797586 70.8137687756,137.66376623 70.7679085132,137.769949336 L 70.6292012163,138.039029292 70.4291699814,138.670360936 C 70.4198510306,138.694463312 70.411396219,138.719348377 70.4051147335,138.746118022 L 70.7185783214,139.259612838 70.8784271223,139.426779862 C 70.8975104089,139.447858615 70.9170868729,139.468716857 70.9379215131,139.489052461 L 70.8819507116,139.126936295 C 70.8805642487,139.116237499 70.8791612179,139.105655012 70.8778172713,139.09488522 L 70.8635874086,137.804575338 Z"
       id="path1793"
       inkscape:connector-curvature="0" />
    <path
       style="opacity:1;fill:#4d4d4d;fill-opacity:1;fill-rule:nonzero;stroke:none;stroke-width:0.0296053439;stroke-linecap:round;stroke-linejoin:round;stroke-miterlimit:4;stroke-dasharray:none;stroke-dashoffset:0;stroke-opacity:1"
       d="M 67.839738742,140.884036445 67.8608802568,141.586178605 67.7112633942,141.883040677 67.6943230802,142.407038489 67.8373670994,142.669613365 C 67.8475562273,142.691057889 67.8581255536,142.711780726 67.8687405626,142.732021484 67.9259522469,142.475689432 68.0336961145,142.230781032 68.1871507182,142.017614536 L 68.2342447939,141.718855147 68.0975025709,141.197500026 Z"
       id="path1791"
       inkscape:connector-curvature="0" />
    <path
       style="opacity:1;fill:#4d4d4d;fill-opacity:1;fill-rule:nonzero;stroke:none;stroke-width:0.0283786822;stroke-linecap:round;stroke-linejoin:round;stroke-miterlimit:4;stroke-dasharray:none;stroke-dashoffset:0;stroke-opacity:1"
       d="M 69.9219989522,141.790826268 C 68.9173872306,141.790826246 68.1029885136,142.605224963 68.1029885356,143.609836684 68.1033607718,143.703472844 68.1109625762,143.796940485 68.1257261658,143.889406183 68.1462776115,143.921284384 68.1675067781,143.952832724 68.1846372986,143.986557876 68.1999039519,144.016613601 68.2076076228,144.051584399 68.2177102152,144.085776626 68.223217795,144.081648477 68.2375682215,144.078964724 68.2430316671,144.074407811 68.2821286348,144.041798085 68.3319639813,143.984170912 68.426999766,143.894573826 68.5504103065,143.778225817 68.6656427925,143.724624201 68.7411924744,143.709055434 68.9087702075,143.674522152 68.9534995284,143.704644605 69.0988978922,143.727527324 68.9804537065,143.776644412 68.9440154262,143.830652819 68.8528135681,143.947283787 68.8495939463,143.951401111 68.7995624982,144.011407733 68.7783995056,144.10541367 68.7576456936,144.197602029 68.7550961798,144.312087269 68.7685809835,144.402553156 68.933081757,144.997096594 69.6054448208,145.438555622 70.4310118103,145.295005142 70.6055962998,145.254733884 70.7790714356,145.193074443 70.944158783,145.112070571 71.4418926025,144.773945113 71.7402079539,144.211556834 71.7410093689,143.609836684 71.7410093908,142.605224963 70.9266106738,141.790826246 69.9219989522,141.790826268 Z"
       id="path1767"
       inkscape:connector-curvature="0"
       sodipodi:nodetypes="sccscssscssccccs" />
    <path
       style="opacity:1;fill:#4d4d4d;fill-opacity:1;fill-rule:nonzero;stroke:none;stroke-width:0.0296053439;stroke-linecap:round;stroke-linejoin:round;stroke-miterlimit:4;stroke-dasharray:none;stroke-dashoffset:0;stroke-opacity:1"
       d="M 71.0190554135,135.555390242 70.9868010513,135.912898641 70.8927484264,136.05438415 70.8520916732,136.319195145 70.9086045597,136.461154983 C 70.9226405323,136.503013975 70.9391387015,136.540936208 70.9541401253,136.575400464 L 70.9842938871,136.651157551 71.0511064884,136.41575494 C 71.0613838638,136.380685998 71.0714783322,136.345547703 71.0813280057,136.309030957 L 71.1681301805,136.003088875 71.1306582083,135.730214289 Z"
       id="path1797"
       inkscape:connector-curvature="0" />
    <path
       style="opacity:1;fill:#ffffff;stroke:#cccccc;stroke-width:0.0649526"
       d="m 23.317997,43.74508 c -0.800746,-0.07692 -1.800658,-0.359137 -2.695534,-0.760807 -3.347228,-1.502414 -5.802174,-5.1415 -5.796108,-8.591851 0.0016,-0.886567 0.04468,-1.40919 0.107848,-1.306987 0.0251,0.04061 0.05238,0.204288 0.06064,0.363735 0.03232,0.62446 0.36418,1.374553 1.032337,2.333387 0.403258,0.578691 0.624494,1.123019 0.560336,1.378644 -0.03854,0.153559 -0.02857,0.164421 0.112708,0.122805 0.36825,-0.108472 0.705968,-0.334052 1.161754,-0.775998 0.510694,-0.495186 0.786054,-0.706393 1.012436,-0.776559 0.126707,-0.03927 0.122457,-0.01555 -0.06495,0.362533 -0.190559,0.384438 -0.200529,0.443426 -0.200529,1.186409 0,0.770643 0.0035,0.789233 0.245623,1.296298 0.780153,1.633983 2.178109,2.669749 4.132317,3.061694 0.735375,0.14749 2.16315,0.101971 2.864279,-0.09132 1.079618,-0.297629 2.278997,-0.874887 2.955345,-1.422398 0.818325,-0.662443 1.553979,-1.5862 1.939389,-2.435284 0.413902,-0.911851 0.692501,-2.365669 0.6567,-3.426868 -0.04313,-1.27836 -0.26437,-2.171844 -0.812211,-3.280108 -1.322548,-2.675469 -4.063261,-4.270503 -7.337328,-4.270162 -0.517998,5.4e-5 -1.171158,0.03732 -1.451468,0.08281 -0.588068,0.09543 -0.525749,0.138614 -0.822959,-0.57022 -0.293157,-0.699169 -0.625975,-2.047011 -0.918256,-3.718745 -0.187624,-1.073134 -0.233041,-3.016054 -0.09641,-4.124492 0.05725,-0.464412 0.132326,-1.114457 0.166847,-1.444546 0.09748,-0.932079 0.863769,-3.209401 1.345845,-3.999689 0.20008,-0.327998 0.508779,-0.844804 0.685998,-1.148458 0.423577,-0.725769 0.492153,-0.811301 1.358676,-1.694637 0.685377,-0.6986752 1.522091,-1.4081004 1.585712,-1.3444792 0.01505,0.01505 -0.101942,0.230042 -0.259982,0.4777596 -1.006604,1.5777806 -0.983586,1.5254436 -1.14075,2.5938326 -0.112265,0.763163 -0.134282,1.122079 -0.101604,1.656293 0.09006,1.472234 0.171586,1.944233 0.496186,2.872598 0.363586,1.039867 0.286595,0.892938 0.881063,1.681415 0.477841,0.633788 1.430721,1.507176 3.525948,3.231802 2.642827,2.175369 3.638529,3.277595 4.742991,5.250416 0.635452,1.135063 1.045239,2.339138 1.31811,3.873007 0.115372,0.64853 0.140937,1.046775 0.142467,2.219314 0.0017,1.312325 -0.01273,1.499038 -0.176997,2.287575 -0.231518,1.111394 -0.487977,1.887582 -0.927332,2.806615 -1.203435,2.517319 -3.204422,4.360826 -5.807398,5.35035 -1.622654,0.616854 -3.025535,0.83419 -4.481732,0.694315 z"
       id="path1"
       transform="matrix(0.26458333,0,0,0.26458333,63.719173,134.4073)" />
    <path
       style="opacity:1;fill:#ffffff;stroke:#cccccc;stroke-width:0.0649526"
       d="m 15.354227,30.840722 -0.314737,-0.572792 0.01608,-0.97429 0.01609,-0.97429 0.291944,-0.597093 0.291944,-0.597093 -0.04287,-1.31901 -0.04287,-1.319009 0.492344,0.589101 0.492344,0.589102 0.259078,1.002238 0.259077,1.002238 -0.09314,0.528857 c -0.07572,0.429929 -0.160917,0.645228 -0.455461,1.150964 -0.199336,0.342264 -0.473151,0.946384 -0.608704,1.342988 l -0.246385,0.720881 z"
       id="path2"
       transform="matrix(0.26458333,0,0,0.26458333,63.719173,134.4073)" />
    <path
       style="opacity:1;fill:#ffffff;stroke:#cccccc;stroke-width:0.0649526"
       d="M 23.480379,41.207953 C 22.346315,41.089315 21.128923,40.551479 20.341681,39.821296 20.03281,39.534812 19.566771,38.9022 19.353827,38.480359 19.01792,37.814931 18.963813,36.958458 19.220726,36.373478 c 0.134383,-0.305985 0.733945,-0.981908 0.924676,-1.042443 0.100199,-0.0318 0.114509,-0.06057 0.05816,-0.116919 -0.04552,-0.04552 -0.308368,-0.07474 -0.672303,-0.07474 -0.789181,0 -1.136911,0.166037 -1.931663,0.922346 l -0.580243,0.552176 -0.06696,-0.185164 c -0.03683,-0.10184 -0.131628,-0.302078 -0.210672,-0.444974 -0.129888,-0.234812 -0.143645,-0.35043 -0.142978,-1.201624 9.53e-4,-1.215785 0.155411,-1.913717 0.661203,-2.987703 0.458826,-0.974258 1.177578,-1.8404 2.097748,-2.52792 2.662115,-1.989042 6.394582,-1.761209 8.815421,0.538101 1.149974,1.092244 1.829598,2.42838 2.079499,4.088281 0.227017,1.507894 -0.147504,3.196138 -1.011386,4.559065 -0.596413,0.940948 -1.520816,1.820756 -2.259415,2.150416 -1.233738,0.550658 -2.286281,0.732695 -3.501436,0.605575 z"
       id="path3"
       transform="matrix(0.26458333,0,0,0.26458333,63.719173,134.4073)" />
    <path
       style="opacity:1;fill:#ffffff;stroke:#cccccc;stroke-width:0.0649526"
       d="m 26.792963,18.694242 c -0.370048,-0.412324 -0.490031,-0.577108 -0.747872,-1.027124 -0.06141,-0.107172 -0.262287,-0.439111 -0.446404,-0.737642 l -0.334758,-0.542784 0.288336,-0.886174 c 0.158585,-0.487396 0.338421,-1.061546 0.399635,-1.27589 0.118363,-0.414451 1.118307,-2.472419 1.174175,-2.41655 0.0182,0.0182 -0.0014,0.268896 -0.04353,0.557104 -0.09147,0.6256 -0.04645,5.541195 0.05451,5.951462 0.0902,0.36654 0.138565,0.811915 0.08816,0.811872 -0.02339,-2e-5 -0.217906,-0.195443 -0.43225,-0.434274 z"
       id="path4"
       transform="matrix(0.26458333,0,0,0.26458333,63.719173,134.4073)" />
    <path
       style="opacity:1;fill:#ffffff;stroke:#cccccc;stroke-width:0.0649526"
       d="M 27.190751,7.7936793 C 26.957496,7.1842761 26.955304,7.1696847 27.027322,6.7057226 c 0.05006,-0.3224942 0.12973,-0.5522794 0.253538,-0.7312527 0.137468,-0.1987208 0.190536,-0.3691736 0.222439,-0.714479 0.02305,-0.2494226 0.0577,-0.5541054 0.07702,-0.677073 l 0.03512,-0.2235773 0.188749,0.3032523 c 0.124222,0.1995813 0.213501,0.4627846 0.261153,0.7699073 0.07962,0.513175 0.05343,0.7863063 -0.136151,1.4200032 -0.06947,0.2322057 -0.201858,0.6779431 -0.294198,0.9905277 -0.09234,0.3125846 -0.176873,0.5683356 -0.187852,0.5683356 -0.01098,0 -0.126356,-0.2779593 -0.256391,-0.6176874 z"
       id="path5"
       transform="matrix(0.26458333,0,0,0.26458333,63.719173,134.4073)" />
  </g>
</svg>
