<?xml version="1.0" encoding="UTF-8" standalone="no"?>
<svg
   width="16"
   height="16"
   version="1.1"
   id="svg6"
   sodipodi:docname="kdeconnect-symbolic.svg"
   inkscape:version="1.3.2 (091e20ef0f, 2023-11-25, custom)"
   xmlns:inkscape="http://www.inkscape.org/namespaces/inkscape"
   xmlns:sodipodi="http://sodipodi.sourceforge.net/DTD/sodipodi-0.dtd"
   xmlns="http://www.w3.org/2000/svg"
   xmlns:svg="http://www.w3.org/2000/svg">
  <sodipodi:namedview
     id="namedview1"
     pagecolor="#505050"
     bordercolor="#ffffff"
     borderopacity="1"
     inkscape:showpageshadow="0"
     inkscape:pageopacity="0"
     inkscape:pagecheckerboard="1"
     inkscape:deskcolor="#d1d1d1"
     inkscape:zoom="46.1875"
     inkscape:cx="7.9891746"
     inkscape:cy="7.9891746"
     inkscape:window-width="2560"
     inkscape:window-height="1388"
     inkscape:window-x="2560"
     inkscape:window-y="28"
     inkscape:window-maximized="1"
     inkscape:current-layer="svg6" />
  <defs
     id="defs10" />
  <namedview
     id="namedview8"
     pagecolor="#ffffff"
     bordercolor="#000000"
     borderopacity="0.25"
     inkscape:showpageshadow="2"
     inkscape:pageopacity="0.0"
     inkscape:pagecheckerboard="0"
     inkscape:deskcolor="#d1d1d1"
     showgrid="false"
     inkscape:zoom="48.3125"
     inkscape:cx="6.8926261"
     inkscape:cy="7.9896507"
     inkscape:window-width="1920"
     inkscape:window-height="1011"
     inkscape:window-x="0"
     inkscape:window-y="0"
     inkscape:window-maximized="1"
     inkscape:current-layer="svg6" />
  <style
     type="text/css"
     id="current-color-scheme">.ColorScheme-Text{color:#31363b;}.ColorScheme-Background{color:#eff0f1;}.ColorScheme-Highlight{color:#3daee9;}.ColorScheme-ViewText{color:#31363b;}.ColorScheme-ViewBackground{color:#fcfcfc;}.ColorScheme-ViewHover{color:#93cee9;}.ColorScheme-ViewFocus{color:#3daee9;}.ColorScheme-ButtonText{color:#31363b;}.ColorScheme-ButtonBackground{color:#eff0f1;}.ColorScheme-ButtonHover{color:#93cee9;}.ColorScheme-ButtonFocus { color: #3daee9; } </style>
  <g
     id="16-16-kdeconnect"
     transform="translate(-303,-537.36218)">
    <rect
       y="537.36218"
       x="303"
       height="16"
       width="16"
       id="rect4442"
       style="opacity:1;fill:none;fill-opacity:1;stroke:none;stroke-width:0.10079;stroke-linecap:square;stroke-linejoin:miter;stroke-miterlimit:4;stroke-dasharray:none;stroke-dashoffset:0;stroke-opacity:1" />
    <path
       style="opacity:1;fill:currentColor;fill-opacity:1;stroke:none"
       d="m -14,10 v 12 h 2 v -1 -1 h -1 v -7 h 6 v 1 h 1 v -4 z m 3,1 h 2 v 1 h -2 z m 2.5,3 -0.2773438,1.107422 a 3,3 0 0 0 -0.7207031,0.296875 l -0.9765621,-0.585938 -0.707032,0.707032 0.585938,0.976562 a 3,3 0 0 0 -0.300781,0.722656 L -12,17.5 v 1 l 1.107422,0.277344 a 3,3 0 0 0 0.296875,0.720703 l -0.585938,0.976562 0.707032,0.707032 0.9765621,-0.585938 a 3,3 0 0 0 0.7226563,0.300781 L -8.5,22 h 1 l 0.2773438,-1.107422 a 3,3 0 0 0 0.7207031,-0.296875 l 0.9765625,0.585938 0.7070312,-0.707032 -0.5859375,-0.976562 a 3,3 0 0 0 0.3007813,-0.722656 L -4,18.5 v -1 l -1.1074219,-0.277344 a 3,3 0 0 0 -0.296875,-0.720703 l 0.5859375,-0.976562 -0.7070312,-0.707032 -0.9765625,0.585938 A 3,3 0 0 0 -7.2246094,15.103516 L -7.5,14 Z m 0.5,2 a 2,2 0 0 1 0.1992188,0.0098 2,2 0 0 1 0.1972656,0.0293 2,2 0 0 1 0.1953125,0.05078 2,2 0 0 1 0.1875,0.06836 2,2 0 0 1 0.1796875,0.08594 2,2 0 0 1 0.1699218,0.105468 2,2 0 0 1 0.1601563,0.121094 2,2 0 0 1 0.1464844,0.136719 2,2 0 0 1 0.1308593,0.148437 2,2 0 0 1 0.1171876,0.164063 2,2 0 0 1 0.099609,0.173828 2,2 0 0 1 0.080078,0.181641 2,2 0 0 1 0.064453,0.189453 2,2 0 0 1 0.042969,0.195312 2,2 0 0 1 0.023437,0.199219 A 2,2 0 0 1 -6,18 a 2,2 0 0 1 -0.00977,0.199219 2,2 0 0 1 -0.029297,0.197265 2,2 0 0 1 -0.050781,0.195313 2,2 0 0 1 -0.068359,0.1875 2,2 0 0 1 -0.085937,0.179687 2,2 0 0 1 -0.1054688,0.169922 2,2 0 0 1 -0.1210937,0.160156 2,2 0 0 1 -0.1367188,0.146485 2,2 0 0 1 -0.1484375,0.130859 2,2 0 0 1 -0.1640625,0.117188 2,2 0 0 1 -0.1738281,0.09961 2,2 0 0 1 -0.1816406,0.08008 2,2 0 0 1 -0.1894532,0.06445 2,2 0 0 1 -0.1953124,0.04297 2,2 0 0 1 -0.1992188,0.02344 2,2 0 0 1 -0.083984,0.0098 h -0.1367187 a 2,2 0 0 1 -0.1191407,-0.0098 2,2 0 0 1 -0.1972656,-0.0293 2,2 0 0 1 -0.1953125,-0.05078 2,2 0 0 1 -0.1875,-0.06836 2,2 0 0 1 -0.1796875,-0.08594 2,2 0 0 1 -0.1699218,-0.105469 2,2 0 0 1 -0.1601563,-0.121094 2,2 0 0 1 -0.087891,-0.08203 l -0.087891,-0.08789 a 2,2 0 0 1 -0.1015624,-0.115234 2,2 0 0 1 -0.1171876,-0.164063 2,2 0 0 1 -0.099609,-0.173828 2,2 0 0 1 -0.080078,-0.18164 2,2 0 0 1 -0.064453,-0.189454 2,2 0 0 1 -0.042969,-0.195312 2,2 0 0 1 -0.023437,-0.199219 A 2,2 0 0 1 -10,18.003906 a 2,2 0 0 1 0.00977,-0.199218 2,2 0 0 1 0.029297,-0.197266 2,2 0 0 1 0.050781,-0.195313 2,2 0 0 1 0.068359,-0.1875 2,2 0 0 1 0.085937,-0.179687 2,2 0 0 1 0.1054688,-0.169922 2,2 0 0 1 0.1210937,-0.160156 2,2 0 0 1 0.1367188,-0.146485 2,2 0 0 1 0.1484375,-0.130859 2,2 0 0 1 0.1640625,-0.117188 2,2 0 0 1 0.1738281,-0.09961 2,2 0 0 1 0.1816406,-0.08008 2,2 0 0 1 0.1894532,-0.06445 2,2 0 0 1 0.1953124,-0.04297 2,2 0 0 1 0.1992188,-0.02344 A 2,2 0 0 1 -8,16 Z"
       transform="translate(321,529.36218)"
       id="rect4148"
       class="ColorScheme-Text" />
  </g>
  <path
     style="fill:#ffffff;stroke:#cccccc;stroke-width:0.0216509"
     d="M 4.0054127,8 V 2.0027064 H 8 11.994587 v 1.9918809 1.9918809 h -0.49797 -0.49797 V 5.488498 4.9905277 H 8 5.0013532 v 3.5074425 3.5074428 h 0.4979702 0.4979702 v 0.99594 0.995941 H 5.0013532 4.0054127 Z M 9.0067659,3.5074425 V 2.9986468 H 8 6.9932341 V 3.5074425 4.0162382 H 8 9.0067659 Z"
     id="path1" />
  <path
     style="fill:#ffffff;stroke:#cccccc;stroke-width:0.0216509"
     d="M 9.3723252,13.445313 9.2350181,12.893332 9.0938284,12.847511 c -0.077654,-0.0252 -0.2441639,-0.09414 -0.3700211,-0.1532 L 8.4949759,12.586932 8.0093283,12.879513 7.5236806,13.172094 7.1826793,12.83258 C 6.9951286,12.645847 6.8416779,12.484861 6.8416779,12.474834 c 0,-0.01003 0.1280736,-0.231908 0.284608,-0.493067 l 0.2846079,-0.474835 -0.09804,-0.210841 C 7.2589317,11.180129 7.1928652,11.01705 7.1660393,10.933694 7.1392134,10.850338 7.114307,10.77867 7.1106917,10.774432 7.1070764,10.770193 6.86239,10.706262 6.5669442,10.632361 L 6.02977,10.497997 6.0239707,10.001033 6.0181714,9.5040684 6.5652427,9.3675828 7.1123139,9.2310972 7.1617188,9.0756298 c 0.027173,-0.085507 0.094471,-0.2501495 0.1495515,-0.365872 L 7.4114169,8.4993535 7.1265474,8.024082 C 6.9698692,7.7626828 6.8416779,7.5406064 6.8416779,7.5305791 c 0,-0.010027 0.1541924,-0.1721979 0.3426497,-0.3603791 L 7.5269773,6.8280524 8.0124738,7.1196578 8.4979702,7.4112633 8.6928281,7.3183495 C 8.8,7.2672469 8.9558863,7.2033574 9.0392422,7.1763729 9.1225981,7.1493883 9.2016704,7.1166287 9.2149582,7.1035738 9.228246,7.0905189 9.2700856,6.95318 9.307935,6.7983762 9.3457842,6.6435724 9.406799,6.4024357 9.443523,6.2625169 L 9.510294,6.0081191 h 0.490209 0.490208 l 0.136691,0.549503 0.13669,0.5495031 0.17728,0.057668 c 0.0975,0.031718 0.263506,0.1009481 0.368892,0.1538455 l 0.191612,0.096177 0.488383,-0.2934438 0.488383,-0.2934438 0.346348,0.3463484 0.346348,0.3463484 -0.291913,0.487567 -0.291912,0.4875671 0.09212,0.1905504 c 0.05067,0.1048028 0.118155,0.2701184 0.149975,0.3673678 l 0.05785,0.1768171 0.54989,0.1367868 0.549889,0.1367868 -0.0058,0.4969641 -0.0058,0.496964 -0.537174,0.134364 c -0.295446,0.0739 -0.539801,0.137832 -0.54301,0.142071 -0.0032,0.0042 -0.03271,0.08565 -0.06557,0.180913 -0.03285,0.09526 -0.101467,0.256659 -0.152475,0.358655 l -0.09274,0.185449 0.290953,0.484058 0.290952,0.484058 -0.34217,0.342672 c -0.188194,0.18847 -0.350375,0.342672 -0.360402,0.342672 -0.01003,0 -0.230128,-0.127007 -0.489113,-0.282238 l -0.470881,-0.282238 -0.186081,0.08929 c -0.102345,0.04911 -0.267202,0.116047 -0.366351,0.148754 l -0.180269,0.05947 -0.140547,0.555676 -0.140547,0.555676 H 9.9999257 9.5096323 Z m 1.1391768,-1.502902 c 0.954293,-0.25475 1.587239,-1.170277 1.483133,-2.1452847 C 11.904008,8.9483551 11.329971,8.2827813 10.489851,8.052388 10.259068,7.9890984 9.7297282,7.9932057 9.497902,8.060085 9.1289371,8.1665271 8.8635345,8.3159877 8.6096266,8.5603139 8.3383667,8.8213376 8.1517718,9.1407615 8.0516089,9.5155616 c -0.068211,0.2552398 -0.068796,0.7307914 -0.00121,0.9804334 0.200406,0.740191 0.7919024,1.310179 1.5304479,1.474795 0.2173283,0.04844 0.6977632,0.03379 0.9306502,-0.02838 z"
     id="path2" />
</svg>
