<?xml version="1.0" encoding="UTF-8" standalone="no"?>
<svg
   width="22"
   height="22"
   version="1.1"
   id="svg2"
   sodipodi:docname="input-mouse-battery.svg"
   inkscape:version="1.3.2 (091e20ef0f, 2023-11-25, custom)"
   xmlns:inkscape="http://www.inkscape.org/namespaces/inkscape"
   xmlns:sodipodi="http://sodipodi.sourceforge.net/DTD/sodipodi-0.dtd"
   xmlns="http://www.w3.org/2000/svg"
   xmlns:svg="http://www.w3.org/2000/svg">
  <defs
     id="defs2" />
  <sodipodi:namedview
     id="namedview2"
     pagecolor="#505050"
     bordercolor="#ffffff"
     borderopacity="1"
     inkscape:showpageshadow="0"
     inkscape:pageopacity="0"
     inkscape:pagecheckerboard="1"
     inkscape:deskcolor="#d1d1d1"
     inkscape:zoom="53.818182"
     inkscape:cx="10.990709"
     inkscape:cy="11"
     inkscape:window-width="2560"
     inkscape:window-height="1388"
     inkscape:window-x="2560"
     inkscape:window-y="28"
     inkscape:window-maximized="1"
     inkscape:current-layer="svg2" />
  <style
     type="text/css"
     id="current-color-scheme">.ColorScheme-Text{color:#31363b;}.ColorScheme-Background{color:#eff0f1;}.ColorScheme-Highlight{color:#3daee9;}.ColorScheme-ViewText{color:#31363b;}.ColorScheme-ViewBackground{color:#fcfcfc;}.ColorScheme-ViewHover{color:#93cee9;}.ColorScheme-ViewFocus{color:#3daee9;}.ColorScheme-ButtonText{color:#31363b;}.ColorScheme-ButtonBackground{color:#eff0f1;}.ColorScheme-ButtonHover{color:#93cee9;}.ColorScheme-ButtonFocus { color: #3daee9; } </style>
  <g
     id="22-22-input-mouse-battery"
     transform="translate(-310,-268.36219) translate(-16,-266)">
    <rect
       x="326"
       y="534.36218"
       width="22"
       height="22"
       ry="0"
       fill="none"
       id="rect1" />
    <path
       class="ColorScheme-Text"
       transform="translate(326,534.3622)"
       d="m13.5 3c-3.047 0-5.5 2.676-5.5 6v4c0 3.324 2.453 6 5.5 6s5.5-2.676 5.5-6v-4c0-3.324-2.453-6-5.5-6zm0 1c2.493 0 4.5 2.007 4.5 4.5v5c0 2.493-2.007 4.5-4.5 4.5s-4.5-2.007-4.5-4.5v-5c0-2.493 2.007-4.5 4.5-4.5zm0 2c-0.277 0-0.5 0.223-0.5 0.5v2c0 0.277 0.223 0.5 0.5 0.5s0.5-0.223 0.5-0.5v-2c0-0.277-0.223-0.5-0.5-0.5z"
       fill="currentColor"
       id="path1" />
    <path
       class="ColorScheme-Text"
       d="m331 537.3622-2 5h2v3l2-5h-2z"
       fill="currentColor"
       id="path2" />
  </g>
  <path
     style="fill:#ffffff;stroke:#cccccc;stroke-width:0.0185811"
     d="M 5.017758,9.4625755 5.0168919,7.9994754 4.0154015,7.9946701 3.013911,7.9898649 4.0014657,5.5207657 4.9890203,3.0516663 l 0.00476,1.4794953 0.00476,1.4794954 0.9921084,0.00481 0.9921086,0.00481 -0.9820702,2.452696 -0.9820631,2.452703 z"
     id="path3" />
  <path
     style="fill:#ffffff;stroke:#cccccc;stroke-width:0.0185811"
     d="M 13.257601,18.988034 C 12.121588,18.905014 11.169745,18.549051 10.321791,17.890123 8.9857817,16.851938 8.1585482,15.259298 8.0266002,13.471284 7.9978223,13.081318 8.0120467,8.4995255 8.0427233,8.2778716 8.2149695,7.0333082 8.5870198,6.0839129 9.2466298,5.2057524 10.563164,3.4530061 12.646105,2.6659099 14.688345,3.1494513 c 0.93696,0.2218442 1.803937,0.7138693 2.5188,1.4294636 0.978719,0.9797214 1.578757,2.2554022 1.748607,3.7175378 0.0357,0.3072878 0.03624,5.1199383 6.15e-4,5.4070943 -0.186969,1.506924 -0.768837,2.739845 -1.758378,3.725834 -0.859803,0.856715 -1.917555,1.380005 -3.077313,1.522404 -0.224046,0.02751 -0.705805,0.04774 -0.863075,0.03625 z m 0.538852,-0.992474 c 1.124131,-0.07982 2.130415,-0.538357 2.90169,-1.322209 0.214437,-0.217933 0.291068,-0.305781 0.42746,-0.490031 0.432379,-0.584094 0.719434,-1.281758 0.836821,-2.033827 0.03105,-0.198911 0.03335,-0.417913 0.03335,-3.168074 V 8.027027 L 17.954699,7.794204 C 17.809128,6.9691251 17.501169,6.2779839 17.00696,5.6672297 16.858001,5.4831418 16.549677,5.1674156 16.388514,5.0339354 14.988172,3.8741292 13.032414,3.665389 11.417832,4.5034091 11.005298,4.7175274 10.706688,4.9326382 10.370621,5.2577917 9.6425559,5.9622146 9.2224145,6.7763211 9.0363456,7.8432126 9.007162,8.0105475 9.0036752,8.2785718 8.9974542,10.83277 c -0.00483,1.984191 -6.658e-4,2.88064 0.014231,3.061528 0.099138,1.203821 0.710385,2.353913 1.6528868,3.10999 0.725716,0.582171 1.592962,0.924709 2.507875,0.990542 0.290386,0.02089 0.339221,0.02095 0.624006,7.3e-4 z"
     id="path4" />
  <path
     style="fill:#ffffff;stroke:#cccccc;stroke-width:0.0185811"
     d="m 13.326631,8.9606006 c -0.08279,-0.026529 -0.219505,-0.1501257 -0.269553,-0.2436913 -0.0408,-0.076283 -0.04106,-0.082745 -0.04625,-1.170911 -0.0058,-1.2073516 -0.005,-1.2173713 0.108144,-1.3538714 0.03176,-0.038334 0.09685,-0.092683 0.144642,-0.1207771 0.07542,-0.044335 0.106518,-0.051037 0.23554,-0.050758 0.176499,3.819e-4 0.265773,0.038992 0.369001,0.1595912 0.12706,0.1484411 0.125131,0.1265138 0.119321,1.3563063 -0.0052,1.0979807 -0.0054,1.1041117 -0.04624,1.1804199 -0.05328,0.099598 -0.188209,0.2175259 -0.280549,0.2451917 -0.08751,0.026219 -0.249822,0.025489 -0.334053,-0.0015 z"
     id="path5" />
</svg>
