<?xml version="1.0" encoding="UTF-8" standalone="no"?>
<svg
   viewBox="0 0 16 16"
   version="1.1"
   id="svg2"
   sodipodi:docname="amarok_cart_remove.svg"
   inkscape:version="1.3.2 (091e20ef0f, 2023-11-25, custom)"
   xmlns:inkscape="http://www.inkscape.org/namespaces/inkscape"
   xmlns:sodipodi="http://sodipodi.sourceforge.net/DTD/sodipodi-0.dtd"
   xmlns="http://www.w3.org/2000/svg"
   xmlns:svg="http://www.w3.org/2000/svg">
  <sodipodi:namedview
     id="namedview2"
     pagecolor="#505050"
     bordercolor="#ffffff"
     borderopacity="1"
     inkscape:showpageshadow="0"
     inkscape:pageopacity="0"
     inkscape:pagecheckerboard="1"
     inkscape:deskcolor="#d1d1d1"
     inkscape:zoom="46.1875"
     inkscape:cx="7.9891746"
     inkscape:cy="7.9891746"
     inkscape:window-width="2560"
     inkscape:window-height="1388"
     inkscape:window-x="2560"
     inkscape:window-y="28"
     inkscape:window-maximized="1"
     inkscape:current-layer="svg2" />
  <defs
     id="defs3051">
    <style
       type="text/css"
       id="current-color-scheme">.ColorScheme-Text{color:#232629;}.ColorScheme-NegativeText { color: #da4453; } </style>
  </defs>
  <path
     style="fill:currentColor;fill-opacity:1;stroke:none"
     d="M 8 2 C 6.343 2 5 3.343 5 5 L 2 5 L 2 14 L 8 14 L 8 13 L 3 13 L 3 6 L 5 6 L 5 7.0878906 C 4.401 7.2998906 4.001 7.865 4 8.5 C 4 9.328 4.672 10 5.5 10 C 6.328 10 7 9.328 7 8.5 C 6.999 7.865 6.599 7.2998906 6 7.0878906 L 6 6 L 10 6 L 10 8 L 11 8 L 11 6 L 13 6 L 13 8 L 14 8 L 14 5 L 11 5 C 11 3.343 9.657 2 8 2 z M 8 3 C 9.105 3 10 3.895 10 5 L 6 5 C 6 3.895 6.895 3 8 3 z M 5.5 8 C 5.776 8 6 8.224 6 8.5 C 6 8.776 5.776 9 5.5 9 C 5.224 9 5 8.776 5 8.5 C 5 8.224 5.224 8 5.5 8 z "
     class="ColorScheme-Text"
     id="path1" />
  <path
     style="fill:currentColor;fill-opacity:1;stroke:none"
     d="M 9,9.83 10.667,11.497 9,13.164 9.833,13.997 11.5,12.33 13.167,13.997 14,13.164 12.333,11.497 14,9.83 13.167,8.997 11.5,10.664 9.833,8.997 Z"
     class="ColorScheme-NegativeText"
     id="path2" />
  <path
     style="opacity:0.3;fill:#ffffff;stroke:#cccccc;stroke-width:0.0216509"
     d="M 2.0135318,9.5047361 V 5.0121786 h 1.4912043 1.4912044 l 0.013532,-0.067659 c 0.00744,-0.037212 0.013532,-0.1138793 0.013532,-0.170371 0,-0.2770836 0.1363262,-0.7726035 0.3046731,-1.1074286 0.4264281,-0.8481239 1.2268707,-1.4446622 2.1635271,-1.6123919 0.2728444,-0.048859 0.744747,-0.048859 1.0175914,0 1.0906661,0.1953086 1.9779569,0.962623 2.3274739,2.0127612 0.07598,0.2282882 0.140364,0.5463749 0.140895,0.6961042 1.69e-4,0.047632 0.0063,0.1231394 0.01373,0.1677943 l 0.01342,0.081191 h 1.491078 1.491078 V 6.5060893 8 H 13.499323 13.012179 V 6.9932341 5.9864682 H 12.005413 10.998647 V 6.9932341 8 h -0.49797 -0.497971 V 6.9932341 5.9864682 H 8 5.9972936 l 5.82e-4,0.5575101 5.822e-4,0.5575102 0.1349227,0.060213 c 0.3823101,0.1706159 0.6920885,0.5417172 0.808213,0.968204 0.061103,0.2244111 0.051913,0.5918861 -0.020305,0.811908 C 6.8424375,9.1820447 6.7272896,9.3694753 6.5490592,9.547706 6.371376,9.7253891 6.1843544,9.8404988 5.9431664,9.9206268 c -0.1504524,0.049984 -0.208761,0.057543 -0.443843,0.057543 -0.235082,0 -0.2933906,-0.00756 -0.443843,-0.057543 C 4.8290405,9.8453986 4.6370589,9.7301943 4.4706605,9.5696888 3.9543798,9.0716913 3.8644727,8.3184145 4.2480502,7.7045722 4.3737548,7.5034059 4.6158212,7.2852124 4.8242301,7.1852159 l 0.1745012,-0.083727 0.00131,-0.5575102 0.00131,-0.5575101 H 3.9945873 2.9878214 V 9.4939107 13.001353 H 5.488498 7.9891746 v 0.49797 0.497971 H 5.0013532 2.0135318 Z M 5.7372832,8.9449236 C 6.088281,8.7688403 6.0942642,8.2505721 5.7474986,8.0600457 5.5442784,7.9483886 5.2442466,7.9962652 5.1218715,8.1598785 5.027625,8.2858843 4.9978537,8.3684218 4.9984922,8.5019326 c 0.00187,0.3901672 0.3855223,0.6202137 0.738791,0.442991 z M 9.9964144,4.8227334 C 9.9373402,3.9416366 9.2397211,3.1793712 8.3478504,3.0214015 c -0.1650776,-0.029239 -0.5306232,-0.029239 -0.6957008,0 C 7.1924393,3.1028262 6.7485692,3.360801 6.453986,3.7177677 6.1811847,4.0483396 5.9972936,4.5231981 5.9972936,4.8970752 v 0.1151034 h 2.0059112 2.0059112 z"
     id="path3" />
</svg>
