<?xml version="1.0" encoding="UTF-8" standalone="no"?>
<svg
   viewBox="0 0 16 16"
   version="1.1"
   id="svg2"
   sodipodi:docname="archive-remove.svg"
   inkscape:version="1.3.2 (091e20ef0f, 2023-11-25, custom)"
   xmlns:inkscape="http://www.inkscape.org/namespaces/inkscape"
   xmlns:sodipodi="http://sodipodi.sourceforge.net/DTD/sodipodi-0.dtd"
   xmlns="http://www.w3.org/2000/svg"
   xmlns:svg="http://www.w3.org/2000/svg">
  <defs
     id="defs2" />
  <sodipodi:namedview
     id="namedview2"
     pagecolor="#505050"
     bordercolor="#ffffff"
     borderopacity="1"
     inkscape:showpageshadow="0"
     inkscape:pageopacity="0"
     inkscape:pagecheckerboard="1"
     inkscape:deskcolor="#d1d1d1"
     inkscape:zoom="46.1875"
     inkscape:cx="7.9891746"
     inkscape:cy="7.9891746"
     inkscape:window-width="2560"
     inkscape:window-height="1388"
     inkscape:window-x="2560"
     inkscape:window-y="28"
     inkscape:window-maximized="1"
     inkscape:current-layer="svg2" />
  <style
     type="text/css"
     id="current-color-scheme">.ColorScheme-Text{color:#232629;}.ColorScheme-NegativeText { color: #da4453; } </style>
  <path
     d="m2 2v12h7v-1h-6v-10h5v1h1v-1h4v6h1v-7zm6 2h-1v1h1zm0 1v1h1v-1zm0 1h-1v1 1h2v-1h-1z"
     style="fill:currentColor;fill-opacity:1;stroke:none"
     class="ColorScheme-Text"
     id="path1" />
  <path
     d="m9.0000005 11h4.9999995v1h-4.9999995z"
     style="fill:currentColor;fill-opacity:1;stroke:none"
     class="ColorScheme-NegativeText"
     id="path2" />
  <path
     style="opacity:0.3;fill:#ffffff;stroke:#cccccc;stroke-width:0.0216509"
     d="M 2.0135318,8 V 2.0027064 H 8 13.986468 v 3.496617 3.4966171 H 13.499323 13.012179 V 5.9972936 2.9986468 H 10.998647 8.985115 V 3.4966171 3.9945873 H 8.4979702 8.0108254 V 3.4966171 2.9986468 H 5.4993234 2.9878214 V 8 13.001353 H 5.9864682 8.985115 v 0.49797 0.497971 H 5.4993234 2.0135318 Z"
     id="path3" />
  <path
     style="opacity:0.3;fill:#ffffff;stroke:#cccccc;stroke-width:0.0216509"
     d="M 7.014885,7.0040595 V 6.0081191 H 7.5020298 7.9891746 V 6.5060893 7.0040595 H 8.4871448 8.985115 V 7.5020298 8 H 8 7.014885 Z"
     id="path4" />
  <path
     style="opacity:0.3;fill:#ffffff;stroke:#cccccc;stroke-width:0.0216509"
     d="M 8.0108254,5.4993234 V 5.0121786 H 8.4979702 8.985115 V 5.4993234 5.9864682 H 8.4979702 8.0108254 Z"
     id="path5" />
  <path
     style="opacity:0.3;fill:#ffffff;stroke:#cccccc;stroke-width:0.0216509"
     d="M 7.014885,4.5033829 V 4.0162382 H 7.5020298 7.9891746 V 4.5033829 4.9905277 H 7.5020298 7.014885 Z"
     id="path6" />
</svg>
