<?xml version="1.0" encoding="UTF-8" standalone="no"?>
<svg
   viewBox="0 0 16 16"
   version="1.1"
   id="svg2"
   sodipodi:docname="bookmark-remove.svg"
   inkscape:version="1.3.2 (091e20ef0f, 2023-11-25, custom)"
   xmlns:inkscape="http://www.inkscape.org/namespaces/inkscape"
   xmlns:sodipodi="http://sodipodi.sourceforge.net/DTD/sodipodi-0.dtd"
   xmlns="http://www.w3.org/2000/svg"
   xmlns:svg="http://www.w3.org/2000/svg">
  <sodipodi:namedview
     id="namedview2"
     pagecolor="#505050"
     bordercolor="#ffffff"
     borderopacity="1"
     inkscape:showpageshadow="0"
     inkscape:pageopacity="0"
     inkscape:pagecheckerboard="1"
     inkscape:deskcolor="#d1d1d1"
     inkscape:zoom="46.1875"
     inkscape:cx="7.9891746"
     inkscape:cy="7.9891746"
     inkscape:window-width="2560"
     inkscape:window-height="1388"
     inkscape:window-x="2560"
     inkscape:window-y="28"
     inkscape:window-maximized="1"
     inkscape:current-layer="svg2" />
  <defs
     id="defs3051">
    <style
       type="text/css"
       id="current-color-scheme">.ColorScheme-Text{color:#232629;}.ColorScheme-NegativeText { color: #da4453; } </style>
  </defs>
  <g
     transform="translate(-421.71-531.79)"
     id="g2">
    <path
       style="fill:currentColor;fill-opacity:1;stroke:none"
       d="m425.71 533.79v12l4-1.594v-1l-3 1.188v-9.594h6v5h1v-6h-7z"
       class="ColorScheme-Text"
       id="path1" />
    <path
       style="fill:currentColor;fill-opacity:1;stroke:none"
       class="ColorScheme-NegativeText"
       d="m431.42 540.82l-.707.707 1.793 1.793-1.793 1.793.707.707 1.793-1.793 1.793 1.793.707-.707-1.793-1.793 1.793-1.793-.707-.707-1.793 1.793z"
       id="path2" />
  </g>
  <path
     style="opacity:0.3;fill:#ffffff;stroke:#cccccc;stroke-width:0.0216509"
     d="M 4.0054127,7.9916997 V 2.0027064 H 8 11.994587 V 5.0013532 8 H 11.507442 11.020298 V 5.4993234 2.9986468 H 8 4.9797023 v 4.7920613 c 0,2.6356339 0.00519,4.7972559 0.011542,4.8036039 0.00635,0.0063 0.2767137,-0.09396 0.6008119,-0.222897 0.3240982,-0.128942 0.9935997,-0.394398 1.487781,-0.589902 l 0.8985115,-0.355463 0.00584,0.477619 c 0.00321,0.262691 -0.00166,0.48474 -0.010825,0.493442 -0.016009,0.0152 -3.8524543,1.550453 -3.9300592,1.572714 -0.03602,0.01033 -0.037889,-0.284616 -0.037889,-5.9781253 z"
     id="path3" />
</svg>
