<?xml version="1.0" encoding="UTF-8" standalone="no"?>
<svg
   viewBox="0 0 16 16"
   version="1.1"
   id="svg2"
   sodipodi:docname="delete-comment-symbolic.svg"
   inkscape:version="1.3.2 (091e20ef0f, 2023-11-25, custom)"
   xmlns:inkscape="http://www.inkscape.org/namespaces/inkscape"
   xmlns:sodipodi="http://sodipodi.sourceforge.net/DTD/sodipodi-0.dtd"
   xmlns="http://www.w3.org/2000/svg"
   xmlns:svg="http://www.w3.org/2000/svg">
  <sodipodi:namedview
     id="namedview2"
     pagecolor="#505050"
     bordercolor="#ffffff"
     borderopacity="1"
     inkscape:showpageshadow="0"
     inkscape:pageopacity="0"
     inkscape:pagecheckerboard="1"
     inkscape:deskcolor="#d1d1d1"
     inkscape:zoom="46.1875"
     inkscape:cx="7.9891746"
     inkscape:cy="7.9891746"
     inkscape:window-width="2560"
     inkscape:window-height="1388"
     inkscape:window-x="2560"
     inkscape:window-y="28"
     inkscape:window-maximized="1"
     inkscape:current-layer="svg2" />
  <defs
     id="defs3051">
    <style
       type="text/css"
       id="current-color-scheme">.ColorScheme-Text{color:#232629;}.ColorScheme-NegativeText { color: #da4453; } </style>
  </defs>
  <path
     style="fill:currentColor;fill-opacity:1;stroke:none"
     d="m 2,2 0,9 3,3 0,-3 2,0 0,-1 -4,0 0,-7 10,0 0,4 1,0 0,-5 z"
     class="ColorScheme-Text"
     id="path1" />
  <path
     style="fill:currentColor;fill-opacity:1;stroke:none"
     class="ColorScheme-NegativeText"
     d="M 8.99,8 8,8.99 10.01,11 8,13.01 8.99,14 11,11.99 13.01,14 14,13.01 11.99,11 14,8.99 13.01,8 11,10.01 Z"
     id="path2" />
  <path
     style="opacity:0.3;fill:#ffffff;stroke:#cccccc;stroke-width:0.0216509"
     d="M 3.4912043,12.476326 2.0135318,10.998529 V 6.5006177 2.0027064 H 8 13.986468 V 4.4925575 6.9824087 H 13.499323 13.012179 V 4.9905277 2.9986468 H 8 2.9878214 v 3.5074425 3.5074427 h 2.0027063 2.0027064 v 0.486928 0.486929 l -1.0013532,0.0056 -1.0013532,0.0056 -0.010825,1.477738 -0.010825,1.477737 z"
     id="path3" />
</svg>
