<?xml version="1.0" encoding="UTF-8" standalone="no"?>
<svg
   viewBox="0 0 16 16"
   version="1.1"
   id="svg2"
   sodipodi:docname="deletecell.svg"
   inkscape:version="1.3.2 (091e20ef0f, 2023-11-25, custom)"
   xmlns:inkscape="http://www.inkscape.org/namespaces/inkscape"
   xmlns:sodipodi="http://sodipodi.sourceforge.net/DTD/sodipodi-0.dtd"
   xmlns="http://www.w3.org/2000/svg"
   xmlns:svg="http://www.w3.org/2000/svg">
  <sodipodi:namedview
     id="namedview2"
     pagecolor="#505050"
     bordercolor="#ffffff"
     borderopacity="1"
     inkscape:showpageshadow="0"
     inkscape:pageopacity="0"
     inkscape:pagecheckerboard="1"
     inkscape:deskcolor="#d1d1d1"
     inkscape:zoom="46.1875"
     inkscape:cx="7.9891746"
     inkscape:cy="7.9891746"
     inkscape:window-width="2560"
     inkscape:window-height="1388"
     inkscape:window-x="2560"
     inkscape:window-y="28"
     inkscape:window-maximized="1"
     inkscape:current-layer="svg2" />
  <defs
     id="defs3051">
    <style
       type="text/css"
       id="current-color-scheme">.ColorScheme-Text{color:#232629;}.ColorScheme-NegativeText { color: #da4453; } </style>
  </defs>
  <path
     style="fill:currentColor;fill-opacity:1;stroke:none"
     d="M 2 2 L 2 14 L 7 14 L 7 13 L 7 10 L 7 9 L 7 6 L 9 6 L 9 7 L 10 7 L 10 6 L 13 6 L 13 7 L 14 7 L 14 2 L 2 2 z M 3 3 L 6 3 L 6 5 L 3 5 L 3 3 z M 7 3 L 9 3 L 9 5 L 7 5 L 7 3 z M 10 3 L 13 3 L 13 5 L 10 5 L 10 3 z M 3 6 L 6 6 L 6 9 L 3 9 L 3 6 z M 3 10 L 6 10 L 6 13 L 3 13 L 3 10 z "
     class="ColorScheme-Text"
     id="path1" />
  <path
     style="fill:currentColor;fill-opacity:1;stroke:none"
     class="ColorScheme-NegativeText"
     d="M 8.99,8 8,8.99 10.01,11 8,13.01 8.99,14 11,11.99 13.01,14 14,13.01 11.99,11 14,8.99 13.01,8 11,10.01 Z"
     id="path2" />
  <path
     style="opacity:0.3;fill:#ffffff;stroke:#cccccc;stroke-width:0.0216509"
     d="M 2.0135318,8 V 2.0027064 H 8 13.986468 V 4.4925575 6.9824087 H 13.499323 13.012179 V 6.4842912 5.9861737 l -1.510149,0.00556 -1.5101491,0.00556 -0.00582,0.4925576 -0.00582,0.4925575 H 9.4935043 9.0067659 V 6.4844384 5.9864682 H 8 6.9932341 V 9.9918809 13.997294 H 4.5033829 2.0135318 Z m 4.0054127,3.496617 V 9.9918809 H 4.5033829 2.9878214 v 1.5047361 1.504736 H 4.5033829 6.0189445 Z M 6.0081191,7.5020298 V 5.9972936 l -1.5101489,-0.00556 -1.5101488,-0.00556 v 1.5158561 1.515856 l 1.5101488,-0.00556 1.5101489,-0.00556 z M 6.0189445,4.0054127 V 2.9986468 H 4.5033829 2.9878214 v 1.0067659 1.0067659 h 1.5155615 1.5155616 z m 2.9878214,0 V 2.9986468 H 8 6.9932341 V 4.0054127 5.0121786 H 8 9.0067659 Z m 4.0054131,0 V 2.9986468 H 11.496617 9.9810555 v 1.0067659 1.0067659 h 1.5155615 1.515562 z"
     id="path3" />
</svg>
