<?xml version="1.0" encoding="UTF-8" standalone="no"?>
<svg
   viewBox="0 0 16 16"
   version="1.1"
   id="svg2"
   sodipodi:docname="irc-channel-joined.svg"
   inkscape:version="1.3.2 (091e20ef0f, 2023-11-25, custom)"
   xmlns:inkscape="http://www.inkscape.org/namespaces/inkscape"
   xmlns:sodipodi="http://sodipodi.sourceforge.net/DTD/sodipodi-0.dtd"
   xmlns="http://www.w3.org/2000/svg"
   xmlns:svg="http://www.w3.org/2000/svg">
  <sodipodi:namedview
     id="namedview2"
     pagecolor="#505050"
     bordercolor="#ffffff"
     borderopacity="1"
     inkscape:showpageshadow="0"
     inkscape:pageopacity="0"
     inkscape:pagecheckerboard="1"
     inkscape:deskcolor="#d1d1d1"
     inkscape:zoom="46.1875"
     inkscape:cx="7.9891746"
     inkscape:cy="7.9891746"
     inkscape:window-width="2560"
     inkscape:window-height="1388"
     inkscape:window-x="2560"
     inkscape:window-y="28"
     inkscape:window-maximized="1"
     inkscape:current-layer="svg2" />
  <defs
     id="defs3051">
    <style
       type="text/css"
       id="current-color-scheme">.ColorScheme-Text{color:#232629;}.ColorScheme-PositiveText { color: #27ae60; } </style>
  </defs>
  <path
     style="fill:currentColor;fill-opacity:1;stroke:none"
     d="m 4,2 0,2 -2,0 0,1 2,0 0,6 -2,0 0,1 2,0 0,2 1,0 0,-2 6,0 0,2 1,0 0,-2 2,0 0,-1 -2,0 0,-6 2.310547,0 0,-1 L 12,4 12,2 11,2 11,4 5,4 5,2 4,2 Z m 1,3 6,0 0,6 -6,0 0,-6 z"
     class="ColorScheme-Text"
     id="path1" />
  <path
     style="fill:currentColor;fill-opacity:1;stroke:none"
     class="ColorScheme-PositiveText"
     d="m 10.499991,6.9999781 c 1.939,0 3.5,1.561 3.5,3.4999999 0,1.939 -1.561,3.5 -3.5,3.5 -1.939,0 -3.5,-1.561 -3.5,-3.5 0,-1.9389999 1.561,-3.4999999 3.5,-3.4999999 z"
     id="path2" />
  <path
     style="fill:#ffffff;stroke:#cccccc;stroke-width:0.0216509"
     d="M 4.0054127,12.990528 V 11.983762 H 3.0094723 2.0135318 V 11.496617 11.009472 H 3.0094723 4.0054127 V 8 4.9905277 H 3.0094723 2.0135318 V 4.5033829 4.0162382 H 3.0094723 4.0054127 V 3.0094723 2.0027064 h 0.4869285 0.4869287 l 0.00563,1.0013531 0.00563,1.0013532 H 8 11.009472 l 0.0056,-1.0013532 0.0056,-1.0013531 h 0.486929 0.486928 v 1.0067659 1.0067659 h 1.158322 1.158322 v 0.4871447 0.4871448 h -1.158322 -1.158322 v 1.1583221 c 0,0.6370771 -0.0031,1.1583221 -0.0069,1.1583221 -0.0038,0 -0.111445,-0.039379 -0.239166,-0.087508 C 11.55399,7.1463749 11.344908,7.0894186 11.069012,7.03457 L 11.020302,7.02489 V 6.0077066 4.9905277 H 8 4.9797023 V 8 11.009472 h 1.0284168 1.0284168 v 0.05182 c 0,0.09112 0.1233571,0.543984 0.200536,0.7362 l 0.074642,0.185899 -1.1605932,0.0056 -1.1605933,0.0056 -0.00563,1.001353 -0.00563,1.001354 H 4.4923412 4.0054127 Z"
     id="path3" />
  <path
     style="fill:#ffffff;stroke:#cccccc;stroke-width:0.0216509"
     d="m 11.041949,13.975643 c 0.01786,-0.01154 0.05196,-0.02123 0.07578,-0.02152 0.08325,-10e-4 0.477898,-0.111321 0.663036,-0.185317 0.102694,-0.04104 0.192816,-0.07463 0.20027,-0.07463 0.0075,0 0.01355,0.0682 0.01355,0.151556 v 0.151557 l -0.492557,-3.32e-4 c -0.326015,-2.19e-4 -0.481577,-0.0074 -0.460081,-0.02132 z"
     id="path4" />
  <path
     style="fill:#ffffff;stroke:#cccccc;stroke-width:0.0216509"
     d="m 13.750901,11.829398 c 0.08247,-0.202653 0.142131,-0.401634 0.19134,-0.638165 l 0.04007,-0.192586 0.0021,0.492557 0.0021,0.492558 h -0.149192 -0.149193 z"
     id="path5" />
</svg>
