<?xml version="1.0" encoding="UTF-8" standalone="no"?>
<svg
   viewBox="0 0 16 16"
   version="1.1"
   id="svg2"
   sodipodi:docname="network-disconnect.svg"
   inkscape:version="1.3.2 (091e20ef0f, 2023-11-25, custom)"
   xmlns:inkscape="http://www.inkscape.org/namespaces/inkscape"
   xmlns:sodipodi="http://sodipodi.sourceforge.net/DTD/sodipodi-0.dtd"
   xmlns="http://www.w3.org/2000/svg"
   xmlns:svg="http://www.w3.org/2000/svg">
  <sodipodi:namedview
     id="namedview2"
     pagecolor="#505050"
     bordercolor="#ffffff"
     borderopacity="1"
     inkscape:showpageshadow="0"
     inkscape:pageopacity="0"
     inkscape:pagecheckerboard="1"
     inkscape:deskcolor="#d1d1d1"
     inkscape:zoom="46.1875"
     inkscape:cx="7.9891746"
     inkscape:cy="7.9891746"
     inkscape:window-width="2560"
     inkscape:window-height="1388"
     inkscape:window-x="2560"
     inkscape:window-y="28"
     inkscape:window-maximized="1"
     inkscape:current-layer="svg2" />
  <defs
     id="defs3051">
    <style
       type="text/css"
       id="current-color-scheme">.ColorScheme-Text{color:#232629;}.ColorScheme-NegativeText { color: #da4453; } </style>
  </defs>
  <path
     style="fill:currentColor;fill-opacity:1;stroke:none"
     d="M 13.300781 2 L 10.650391 4.6503906 L 9.5859375 3.5859375 L 6.5859375 6.5859375 L 9.4140625 9.4140625 L 12.414062 6.4140625 L 11.349609 5.3496094 L 14 2.6992188 L 13.300781 2 z M 5.5859375 7.5859375 L 3.5859375 9.5859375 L 4.6503906 10.650391 L 2 13.300781 L 2.6992188 14 L 5.3496094 11.349609 L 6.4140625 12.414062 L 8.4140625 10.414062 L 5.5859375 7.5859375 z "
     class="ColorScheme-Text"
     id="path1" />
  <path
     style="fill:currentColor;fill-opacity:1;stroke:none"
     d="M 9,9.83 10.667,11.497 9,13.164 9.833,13.997 11.5,12.33 13.167,13.997 14,13.164 12.333,11.497 14,9.83 13.167,8.997 11.5,10.664 9.833,8.997 Z"
     class="ColorScheme-NegativeText"
     id="path2" />
  <path
     style="opacity:0.3;fill:#ffffff;stroke:#cccccc;stroke-width:0.0216509"
     d="M 2.354437,13.634717 2.0135114,13.293791 3.3395221,11.967649 4.6655329,10.641507 4.1352998,10.110943 3.6050668,9.580378 4.5954804,8.5899644 5.585894,7.5995508 6.9932053,9.006737 8.4005164,10.413923 7.4101248,11.40449 6.4197333,12.395058 5.8890501,11.864693 5.3583669,11.334328 4.0378427,12.654985 c -0.7262883,0.726362 -1.3254643,1.320658 -1.3315021,1.320658 -0.00604,0 -0.1643945,-0.153417 -0.3519036,-0.340926 z"
     id="path3" />
  <path
     style="opacity:0.3;fill:#ffffff;stroke:#cccccc;stroke-width:0.0216509"
     d="M 8.0053518,7.9837014 6.6035214,6.5817466 8.0921299,5.0932553 9.5807383,3.6047641 l 0.5302187,0.5305504 0.530219,0.5305503 1.326138,-1.3260065 1.326138,-1.3260066 0.346602,0.3460944 0.346603,0.3460944 -1.326095,1.3262262 -1.326095,1.3262262 0.530218,0.5305498 0.530219,0.5305496 -1.482914,1.483032 c -0.815602,0.8156677 -1.4878397,1.483032 -1.4938606,1.483032 -0.00602,0 -0.6417709,-0.6308798 -1.4127776,-1.4019549 z"
     id="path4" />
  <path
     style="opacity:1;fill:#ffffff;stroke:#cccccc;stroke-width:0.0216509"
     d="M 2.3544283,13.613069 2.0351564,13.293797 3.3611701,11.967652 4.6871838,10.641507 4.1569508,10.110943 3.626718,9.5803783 4.606306,8.6007904 5.5858938,7.6212025 6.9823794,9.0175622 8.3788651,10.413922 7.3992474,11.393717 6.4196298,12.373512 5.8894231,11.843306 5.3592167,11.313099 4.0479241,12.62272 c -0.7212108,0.720292 -1.325452,1.309621 -1.3427582,1.309621 -0.017306,0 -0.1751381,-0.143672 -0.3507376,-0.319272 z"
     id="path5" />
  <path
     style="opacity:1;fill:#ffffff;stroke:#cccccc;stroke-width:0.0216509"
     d="M 8.0064638,7.9624927 6.6245236,6.5826306 8.102462,5.1045742 9.5804003,3.6265177 l 0.5304437,0.5304435 0.530443,0.5304434 1.326079,-1.3259469 1.326078,-1.3259469 0.335785,0.3352608 0.335785,0.3352607 -1.326099,1.3262303 -1.326099,1.3262303 0.530331,0.5308731 0.530331,0.530873 -1.462695,1.4610577 c -0.804482,0.8035819 -1.4761238,1.4610578 -1.4925369,1.4610578 -0.016413,0 -0.6517151,-0.6209379 -1.4117823,-1.3798618 z"
     id="path6" />
  <path
     style="opacity:0.5;fill:#1a1a1a;stroke:#cccccc;stroke-width:0.0216509"
     d="M 4.6034336,8.5970484 C 4.280658,8.9198382 3.9578823,9.242628 3.6351066,9.5654178 c 0.061329,0.128363 0.2108841,0.2203345 0.3056986,0.3348853 0.2428561,0.2446999 0.488365,0.4868709 0.7261434,0.7365369 -0.855269,0.894222 -1.7531741,1.74914 -2.6061824,2.645975 0.024535,0.09888 0.1448378,0.159869 0.2066037,0.240877 0.1455426,0.129766 0.2784143,0.293005 0.4352133,0.397565 0.3901066,-0.339865 0.7477985,-0.724728 1.1234972,-1.083751 0.5123499,-0.504689 1.0239072,-1.010182 1.5358952,-1.515238 0.3503686,0.341503 0.6829452,0.703965 1.0502792,1.026641 0.1374128,-0.0795 0.2402588,-0.225558 0.3633239,-0.330228 0.5293408,-0.528212 1.0688037,-1.048067 1.577855,-1.595516 C 8.2911591,10.301437 8.157844,10.2138 8.0687615,10.105962 7.2516395,9.2744463 6.423378,8.4540333 5.6000084,7.6287212 5.4717354,7.6902403 5.3799831,7.8399281 5.2655712,7.9349109 5.0448587,8.1556234 4.8241461,8.3763359 4.6034336,8.5970484 Z"
     id="path7" />
  <path
     style="opacity:0.5;fill:#1a1a1a;stroke:#cccccc;stroke-width:0.0216509"
     d="M 13.279305,2.043048 C 12.399947,2.9223303 11.520577,3.8016015 10.641196,4.6808611 10.289725,4.3383686 9.9561197,3.9747769 9.5877029,3.651091 9.4619001,3.7215373 9.3685081,3.8573784 9.2560093,3.9523096 8.3825781,4.8195395 7.5039147,5.682432 6.652571,6.571211 6.674475,6.669076 6.7975943,6.7311104 6.8561401,6.81398 c 0.8191966,0.8151987 1.6344471,1.6348798 2.4697641,2.4335827 0.041712,0.05076 0.109267,0.1052665 0.1565467,0.026879 C 10.459436,8.3440457 11.405131,7.3812079 12.365908,6.434117 12.30983,6.3108503 12.16499,6.224176 12.075217,6.1148003 11.823296,5.8626825 11.571338,5.610602 11.319393,5.358508 12.192331,4.4778299 13.082597,3.6134167 13.938557,2.7164665 13.910364,2.6151116 13.791712,2.5494356 13.728543,2.464664 13.589403,2.3229298 13.447801,2.1836385 13.307552,2.0430058 l -0.02165,3.24e-5 z"
     id="path8" />
</svg>
