<?xml version="1.0" encoding="UTF-8" standalone="no"?>
<svg
   viewBox="0 0 22 22"
   version="1.1"
   id="svg1"
   sodipodi:docname="folder-drawing.svg"
   inkscape:version="1.3.2 (091e20ef0f, 2023-11-25, custom)"
   xmlns:inkscape="http://www.inkscape.org/namespaces/inkscape"
   xmlns:sodipodi="http://sodipodi.sourceforge.net/DTD/sodipodi-0.dtd"
   xmlns="http://www.w3.org/2000/svg"
   xmlns:svg="http://www.w3.org/2000/svg">
  <sodipodi:namedview
     id="namedview1"
     pagecolor="#505050"
     bordercolor="#ffffff"
     borderopacity="1"
     inkscape:showpageshadow="0"
     inkscape:pageopacity="0"
     inkscape:pagecheckerboard="1"
     inkscape:deskcolor="#d1d1d1"
     inkscape:zoom="53.818182"
     inkscape:cx="10.990709"
     inkscape:cy="11"
     inkscape:window-width="2560"
     inkscape:window-height="1388"
     inkscape:window-x="2560"
     inkscape:window-y="28"
     inkscape:window-maximized="1"
     inkscape:current-layer="svg1" />
  <defs
     id="defs3051">
    <style
       type="text/css"
       id="current-color-scheme" />
  </defs>
  <path
     style="fill:currentColor"
     d="M 6 3 L 6 6 L 7 6 L 7 9.0566406 C 5.83827 9.2937706 5.00291 10.31432 5 11.5 C 5.002 12.68641 5.83756 13.708033 7 13.945312 L 7 17 L 6 17 L 6 20 L 9 20 L 9 17 L 8 17 L 8 15.179688 A 10 8.5000048 0 0 0 17 20 A 10 8.5000048 0 0 0 18 19.957031 L 18 18.943359 A 9 7.5000057 0 0 1 17 19 A 9 7.5000057 0 0 1 8.4472656 13.804688 C 9.3815656 13.421168 9.99849 12.51481 10 11.5 C 9.99957 10.48259 9.3812494 9.5722531 8.4433594 9.1894531 A 9 7.5000057 0 0 1 17 4 A 9 7.5000057 0 0 1 18 4.0507812 L 18 3.0507812 A 10 8.5000048 0 0 0 17 3 A 10 8.5000048 0 0 0 8 7.8105469 L 8 6 L 9 6 L 9 3 L 6 3 z M 7 4 L 8 4 L 8 5 L 7 5 L 7 4 z M 7.5 10 A 1.5 1.5 0 0 1 8.7636719 10.695312 A 1.5 1.5 0 0 1 8.9355469 11.070312 C 8.935974 11.071724 8.937077 11.072805 8.9375 11.074219 A 1.5 1.5 0 0 1 8.9375 11.078125 A 1.5 1.5 0 0 1 9 11.5 A 1.5 1.5 0 0 1 8.9375 11.927734 A 1.5 1.5 0 0 1 8.765625 12.302734 C 8.7648446 12.303953 8.7644557 12.305425 8.7636719 12.306641 A 1.5 1.5 0 0 1 8.7617188 12.308594 A 1.5 1.5 0 0 1 8.4941406 12.619141 A 1.5 1.5 0 0 1 7.5 13 A 1.5 1.5 0 0 1 6.3300781 12.4375 A 1.5 1.5 0 0 1 6.0917969 12.011719 C 6.0898664 12.006432 6.0878097 12.001408 6.0859375 11.996094 A 1.5 1.5 0 0 1 6 11.5 A 1.5 1.5 0 0 1 6.0839844 11.009766 C 6.0870238 11.001057 6.0905543 10.993009 6.09375 10.984375 A 1.5 1.5 0 0 1 6.3261719 10.570312 C 6.3265254 10.56987 6.3258178 10.568801 6.3261719 10.568359 A 1.5 1.5 0 0 1 7.5 10 z M 7 18 L 8 18 L 8 19 L 7 19 L 7 18 z "
     class="ColorScheme-Text"
     id="path1" />
  <path
     style="fill:#ffffff;stroke:#cccccc;stroke-width:0.0185811"
     d="M 6.0016892,18.497466 V 17.01098 h 0.5016892 0.5016892 v -1.54223 c 0,-1.514669 -6.452e-4,-1.54223 -0.036097,-1.54223 -0.066235,0 -0.4199897,-0.125409 -0.5783409,-0.205026 C 6.1390789,13.595017 5.9689905,13.470048 5.7490491,13.250106 5.3874902,12.888547 5.1803576,12.513236 5.0609853,12.003378 5.0331578,11.884523 5.0262481,11.78211 5.02651,11.492399 5.0268103,11.16023 5.0310431,11.113402 5.0773567,10.929876 5.2641339,10.189738 5.7262976,9.6122905 6.4011824,9.2758318 6.5679166,9.1927076 6.8980123,9.0768581 6.9681276,9.0768581 c 0.036569,0 0.03694,-0.01548 0.03694,-1.5422297 V 5.9923986 H 6.5033784 6.0016892 v -1.495777 -1.495777 h 1.495777 1.495777 v 1.495777 1.495777 H 8.4915541 7.9898649 l 8.276e-4,0.9151183 c 7.378e-4,0.8160703 0.00383,0.911096 0.028584,0.8779561 0.015266,-0.020439 0.095159,-0.1458615 0.1775396,-0.2787162 0.5322805,-0.8584057 1.312538,-1.6985946 2.1992989,-2.3682261 1.361698,-1.028277 3.126828,-1.7472291 4.924673,-2.0058596 0.817337,-0.1175787 1.855404,-0.1521802 2.540276,-0.084674 l 0.125422,0.012363 v 0.4926226 0.4926226 l -0.07897,-0.011135 c -0.191013,-0.026934 -0.905153,-0.050682 -1.193834,-0.0397 -0.685433,0.026076 -1.229969,0.089085 -1.848817,0.2139295 C 12.151183,4.75615 9.8873708,6.3396688 8.7553302,8.4822715 8.6510273,8.6796845 8.4358108,9.1528978 8.4358108,9.1848237 c 0,0.00761 0.054623,0.037629 0.1213843,0.066713 0.171633,0.074772 0.4758516,0.2814252 0.6449482,0.4381088 0.2812731,0.2606261 0.5377799,0.6614805 0.6601453,1.0316385 0.1712404,0.518006 0.1655964,1.081784 -0.016032,1.601474 -0.2049013,0.586278 -0.6537409,1.095403 -1.2215758,1.38565 -0.098769,0.05049 -0.1819898,0.09405 -0.1849358,0.09682 -0.00769,0.0072 0.1730614,0.419604 0.2608455,0.595107 0.4991428,0.997911 1.3070585,1.947895 2.2715375,2.670978 1.466318,1.099319 3.275304,1.756352 5.256328,1.909125 0.320815,0.02474 1.156426,0.02503 1.442152,5.02e-4 0.117525,-0.01009 0.236677,-0.01848 0.264781,-0.01865 l 0.0511,-3.03e-4 v 0.49029 0.49029 l -0.06039,0.0114 c -0.13224,0.02497 -1.309895,0.0345 -1.63049,0.01319 -1.56464,-0.104005 -3.003906,-0.485414 -4.329392,-1.1473 C 10.962983,18.3189 10.150427,17.73977 9.402161,16.992399 8.8980442,16.488885 8.4074726,15.860804 8.0851048,15.306166 c -0.043064,-0.07409 -0.08211,-0.134713 -0.086769,-0.134713 -0.00466,0 -0.00847,0.413893 -0.00847,0.919763 V 17.01098 H 8.491555 8.9932441 v 1.486486 1.486487 h -1.495777 -1.495777 z m 2.0067567,0.0093 v -0.51098 H 7.4974662 6.9864865 v 0.51098 0.510979 H 7.4974662 8.0084459 Z M 7.8708231,12.959656 C 8.3118079,12.847554 8.6777618,12.540112 8.87287,12.117825 8.9683831,11.9111 8.9994107,11.760401 8.9997275,11.501689 9.0000536,11.235352 8.9681794,11.092066 8.8550585,10.851351 8.7078663,10.538134 8.4610213,10.291289 8.1478041,10.144097 7.9077352,10.03128 7.7638082,9.9991771 7.4974662,9.9990409 7.0910586,9.998833 6.7728447,10.124105 6.473657,10.402086 6.1633767,10.690374 5.9985923,11.07179 5.9985923,11.501689 c 0,0.984814 0.9188244,1.700332 1.8722308,1.457967 z M 8.0084459,4.4966216 V 3.9856419 H 7.4974662 6.9864865 v 0.5109797 0.5109798 h 0.5109797 0.5109797 z"
     id="path2" />
</svg>
