<?xml version="1.0" encoding="UTF-8" standalone="no"?>
<svg
   viewBox="0 0 22 22"
   version="1.1"
   id="svg1"
   sodipodi:docname="folder.svg"
   inkscape:version="1.3.2 (091e20ef0f, 2023-11-25, custom)"
   xmlns:inkscape="http://www.inkscape.org/namespaces/inkscape"
   xmlns:sodipodi="http://sodipodi.sourceforge.net/DTD/sodipodi-0.dtd"
   xmlns="http://www.w3.org/2000/svg"
   xmlns:svg="http://www.w3.org/2000/svg">
  <sodipodi:namedview
     id="namedview1"
     pagecolor="#505050"
     bordercolor="#ffffff"
     borderopacity="1"
     inkscape:showpageshadow="0"
     inkscape:pageopacity="0"
     inkscape:pagecheckerboard="1"
     inkscape:deskcolor="#d1d1d1"
     inkscape:zoom="53.818182"
     inkscape:cx="10.990709"
     inkscape:cy="11"
     inkscape:window-width="2560"
     inkscape:window-height="1388"
     inkscape:window-x="2560"
     inkscape:window-y="28"
     inkscape:window-maximized="1"
     inkscape:current-layer="svg1" />
  <defs
     id="defs3051">
    <style
       type="text/css"
       id="current-color-scheme" />
  </defs>
  <path
     style="fill:currentColor"
     d="M 3 3 L 3 4 L 3 19 L 4 19 L 19 19 L 19 18 L 19 5 L 12 5 L 10 3 L 10 3 L 10 3 L 4 3 L 3 3 z M 4 4 L 7 4 L 9.6 4 L 10.6 5 L 6.6 9 L 6.6 9 L 4 9 L 4 4 z M 9 8 L 18 8 L 18 18 L 4 18 L 4 10 L 5.6 10 L 7 10 L 7 10 L 7 10 L 9 8 z "
     class="ColorScheme-Text"
     id="path1" />
  <path
     style="opacity:1;fill:#ffffff;stroke:#cccccc;stroke-width:0.0185811"
     d="M 3.0101351,11 V 3.0008446 H 6.4987976 9.98746 l 1.003249,1.0033784 1.00325,1.0033784 h 3.497953 3.497953 v 6.9957766 6.995777 H 11 3.0101351 Z M 18.005068,13.006757 V 7.9991554 H 13.494445 8.9838224 L 7.9898649,8.9932432 6.9959073,9.9873311 H 5.4954198 3.9949324 v 4.0135139 4.013513 H 11 18.005068 Z M 8.6076076,7.0005007 10.609705,4.9984674 10.103543,4.4920547 9.5973818,3.9856419 H 6.7961571 3.9949324 v 2.5084459 2.508446 H 5.3002212 6.60551 Z"
     id="path2" />
</svg>
