<?xml version="1.0" encoding="UTF-8" standalone="no"?>
<svg
   viewBox="0 0 22 22"
   version="1.1"
   id="svg1"
   sodipodi:docname="user-trash-full.svg"
   inkscape:version="1.3.2 (091e20ef0f, 2023-11-25, custom)"
   xmlns:inkscape="http://www.inkscape.org/namespaces/inkscape"
   xmlns:sodipodi="http://sodipodi.sourceforge.net/DTD/sodipodi-0.dtd"
   xmlns="http://www.w3.org/2000/svg"
   xmlns:svg="http://www.w3.org/2000/svg">
  <sodipodi:namedview
     id="namedview1"
     pagecolor="#505050"
     bordercolor="#ffffff"
     borderopacity="1"
     inkscape:showpageshadow="0"
     inkscape:pageopacity="0"
     inkscape:pagecheckerboard="1"
     inkscape:deskcolor="#d1d1d1"
     inkscape:zoom="53.818182"
     inkscape:cx="10.990709"
     inkscape:cy="11"
     inkscape:window-width="2560"
     inkscape:window-height="1388"
     inkscape:window-x="2560"
     inkscape:window-y="28"
     inkscape:window-maximized="1"
     inkscape:current-layer="svg1" />
  <defs
     id="defs3051">
    <style
       type="text/css"
       id="current-color-scheme" />
  </defs>
  <path
     style="fill:currentColor"
     d="M 8 3 L 8 5 L 4 5 L 4 6 L 5 6 L 5 19 L 17 19 L 17 6 L 18 6 L 18 5 L 14 5 L 14 3 L 8 3 z M 9 4 L 13 4 L 13 5 L 9 5 L 9 4 z M 8 9 L 9 9 L 9 15 L 8 15 L 8 9 z M 13 9 L 14 9 L 14 15 L 13 15 L 13 9 z "
     class="ColorScheme-Text"
     id="path1" />
  <path
     style="fill:#ffffff;stroke:#cccccc;stroke-width:0.0185811"
     d="M 5.0168919,12.495777 V 5.9923986 H 4.5152027 4.0135135 V 5.5 5.0076014 H 6.0109797 8.0084459 V 4.004223 3.0008446 H 11 13.991554 V 4.004223 5.0076014 h 1.997466 1.997466 V 5.5 5.9923986 h -0.501689 -0.501689 v 6.5033784 6.503378 H 11 5.0168919 Z M 9.0118243,11.994088 V 8.9839527 H 8.5008446 7.9898649 v 3.0101353 3.010135 h 0.5109797 0.5109797 z m 4.9983107,0 V 8.9839527 h -0.51098 -0.510979 v 3.0101353 3.010135 h 0.510979 0.51098 z M 13.006757,4.4966216 V 3.9856419 H 11 8.9932432 V 4.4966216 5.0076014 H 11 13.006757 Z"
     id="path2" />
</svg>
