<?xml version="1.0" encoding="UTF-8" standalone="no"?>
<svg
   width="22"
   height="22"
   version="1.1"
   id="svg1"
   sodipodi:docname="preferences-desktop-display-randr-symbolic.svg"
   inkscape:version="1.3.2 (091e20ef0f, 2023-11-25, custom)"
   xmlns:inkscape="http://www.inkscape.org/namespaces/inkscape"
   xmlns:sodipodi="http://sodipodi.sourceforge.net/DTD/sodipodi-0.dtd"
   xmlns="http://www.w3.org/2000/svg"
   xmlns:svg="http://www.w3.org/2000/svg">
  <defs
     id="defs1" />
  <sodipodi:namedview
     id="namedview1"
     pagecolor="#505050"
     bordercolor="#ffffff"
     borderopacity="1"
     inkscape:showpageshadow="0"
     inkscape:pageopacity="0"
     inkscape:pagecheckerboard="1"
     inkscape:deskcolor="#d1d1d1"
     inkscape:zoom="33.590909"
     inkscape:cx="10.985115"
     inkscape:cy="10.985115"
     inkscape:window-width="2560"
     inkscape:window-height="1388"
     inkscape:window-x="2560"
     inkscape:window-y="28"
     inkscape:window-maximized="1"
     inkscape:current-layer="svg1" />
  <style
     type="text/css"
     id="current-color-scheme">.ColorScheme-Text{color:#232629;}.ColorScheme-Background{color:#eff0f1;}.ColorScheme-ViewBackground{color:#fcfcfc;}.ColorScheme-ButtonFocus{color:#3daee9;}.ColorScheme-PositiveText{color:#27ae60;}.ColorScheme-NeutralText{color:#f67400;}.ColorScheme-NegativeText { color: #da4453; } </style>
  <g
     id="22-22-preferences-desktop-display-randr"
     transform="translate(-1,-1)">
    <rect
       id="rect3832"
       x="1"
       y="1"
       width="22"
       height="22"
       fill-opacity="0" />
    <path
       id="rect7235"
       class="ColorScheme-Text"
       d="m7 19h10v1h-10zm3-2h4v2h-4zm-6-13v13h16v-13zm1 1h14v9h-14z"
       fill="currentColor" />
    <path
       id="rect3018"
       class="ColorScheme-Text"
       d="m6 9 4 4h-4z"
       fill="currentColor" />
    <path
       id="path3028"
       class="ColorScheme-Text"
       d="m18 10-4-4h4z"
       fill="currentColor" />
  </g>
  <path
     style="fill:#ffffff;stroke:#cccccc;stroke-width:0.02977"
     d="m 6.0135318,18.502305 v -0.476044 l 1.4959405,-0.0077 1.4959404,-0.0077 0.00784,-1.004736 0.00784,-1.004736 H 6.0139277 3.0067659 V 9.511502 3.0216509 H 11 18.993234 V 9.511502 16.001353 H 15.986072 12.97891 l 0.0078,1.004736 0.0078,1.004736 1.495941,0.0077 1.49594,0.0077 v 0.476044 0.476044 H 11 6.0135318 Z M 18.010825,8.4993234 V 3.9742896 H 11 3.9891746 V 8.4993234 13.024357 H 11 18.010825 Z"
     id="path1" />
  <path
     style="fill:#ffffff;stroke:#cccccc;stroke-width:0.02977"
     d="M 5.0013532,10.010233 V 8.0380582 l 1.9648173,1.9646478 c 1.0806495,1.080557 1.9648173,1.968036 1.9648173,1.972176 0,0.0041 -0.8841678,0.0075 -1.9648173,0.0075 H 5.0013532 Z"
     id="path2" />
  <path
     style="fill:#ffffff;stroke:#cccccc;stroke-width:0.02977"
     d="M 15.018945,6.9810555 13.054296,5.0162382 h 1.972176 1.972175 v 1.9648173 c 0,1.0806495 -0.0034,1.9648173 -0.0075,1.9648173 -0.0041,0 -0.891619,-0.8841678 -1.972175,-1.9648173 z"
     id="path3" />
</svg>
