<?xml version="1.0" encoding="UTF-8" standalone="no"?>
<svg
   width="22"
   height="22"
   version="1.1"
   id="svg1"
   sodipodi:docname="preferences-system-bluetooth-activated-symbolic.svg"
   inkscape:version="1.3.2 (091e20ef0f, 2023-11-25, custom)"
   xmlns:inkscape="http://www.inkscape.org/namespaces/inkscape"
   xmlns:sodipodi="http://sodipodi.sourceforge.net/DTD/sodipodi-0.dtd"
   xmlns="http://www.w3.org/2000/svg"
   xmlns:svg="http://www.w3.org/2000/svg">
  <defs
     id="defs1" />
  <sodipodi:namedview
     id="namedview1"
     pagecolor="#505050"
     bordercolor="#ffffff"
     borderopacity="1"
     inkscape:showpageshadow="0"
     inkscape:pageopacity="0"
     inkscape:pagecheckerboard="1"
     inkscape:deskcolor="#d1d1d1"
     inkscape:zoom="33.590909"
     inkscape:cx="10.985115"
     inkscape:cy="10.985115"
     inkscape:window-width="2560"
     inkscape:window-height="1388"
     inkscape:window-x="2560"
     inkscape:window-y="28"
     inkscape:window-maximized="1"
     inkscape:current-layer="svg1" />
  <style
     type="text/css"
     id="current-color-scheme">.ColorScheme-Text{color:#232629;}.ColorScheme-Background{color:#eff0f1;}.ColorScheme-ViewBackground{color:#fcfcfc;}.ColorScheme-ButtonFocus{color:#3daee9;}.ColorScheme-PositiveText{color:#27ae60;}.ColorScheme-NeutralText{color:#f67400;}.ColorScheme-NegativeText { color: #da4453; } </style>
  <g
     id="22-22-preferences-system-bluetooth-activated"
     transform="translate(0,94) translate(-66,-94)">
    <rect
       id="rect4674"
       x="66"
       width="22"
       height="22"
       fill="none" />
    <path
       id="path4676"
       class="ColorScheme-Text"
       d="m76.998047 3v7.041013l-3.292969-3.2929692-2e-3 0.00195c-0.355749-0.3559538-0.996047-0.9960876-0.996047-0.9960876l-0.707031 0.7070313 4.544922 4.5410155-4.544922 4.541016 0.707031 0.707031s0.640351-0.640094 0.996094-0.996094h2e-3l3.294875-3.292968v7.039062h1l4-4-4-4 4-4-4-4h-1.001953zm1.001953 1.4160156 2.585938 2.5859375-2.585938 2.5859375v-5.171875zm-11 5.5839844a1 1 0 0 0-1 1 1 1 0 0 0 1 1 1 1 0 0 0 1-1 1 1 0 0 0-1-1zm4 0a1 1 0 0 0-1 1 1 1 0 0 0 1 1 1 1 0 0 0 1-1 1 1 0 0 0-1-1zm12 0a1 1 0 0 0-1 1 1 1 0 0 0 1 1 1 1 0 0 0 1-1 1 1 0 0 0-1-1zm4 0a1 1 0 0 0-1 1 1 1 0 0 0 1 1 1 1 0 0 0 1-1 1 1 0 0 0-1-1zm-9 2.416016 2.585938 2.585937-2.585938 2.585938v-5.171875z"
       fill="currentColor" />
  </g>
  <path
     style="opacity:1;fill:#ffffff;stroke:#cccccc;stroke-width:0.02977"
     d="M 11.007565,15.466511 11,11.954673 9.4067156,13.538906 C 8.530409,14.410234 7.5620145,15.370404 7.2547276,15.672617 L 6.6960242,16.222094 6.3532807,15.879351 6.0105373,15.536607 8.2889761,13.275746 10.567415,11.014885 8.2902663,8.7372038 6.0131176,6.459523 6.3558836,6.1177293 6.6986495,5.7759358 8.8345168,7.9116486 c 1.1747272,1.174642 2.1458802,2.1357124 2.1581182,2.1357124 0.01224,0 0.02225,-1.5807845 0.02225,-3.5128549 V 3.0216509 h 0.498564 0.498564 L 13.999241,5.008713 15.986469,6.9957749 13.984522,8.9978875 11.982574,11 l 2.001948,2.002113 2.001947,2.002112 -1.987228,1.987062 -1.987228,1.987062 h -0.498442 -0.498442 z m 2.306921,0.840114 c 0.700037,-0.699895 1.272794,-1.286048 1.272794,-1.302564 0,-0.01652 -0.582747,-0.612659 -1.294993,-1.324765 L 11.997294,12.38456 v 2.5973 c 0,1.428516 0.01,2.597301 0.0222,2.597301 0.01221,0 0.594956,-0.572641 1.294993,-1.272536 z M 14.58728,6.9961971 c 0,-0.034184 -2.533449,-2.5753581 -2.567529,-2.5753581 -0.01235,0 -0.02246,1.1687852 -0.02246,2.5973006 V 9.6154403 L 13.292287,8.3207037 C 14.004533,7.6085985 14.58728,7.0125706 14.58728,6.9961971 Z"
     id="path1" />
  <path
     style="opacity:1;fill:#ffffff;stroke:#cccccc;stroke-width:0.02977"
     d="m 0.70984036,11.942706 c -0.30886419,-0.1154 -0.5361445,-0.33622 -0.63761645,-0.619492 -0.05989757,-0.167212 -0.05948498,-0.480357 8.5491e-4,-0.648851 0.07922519,-0.221229 0.255073,-0.424384 0.46659642,-0.539054 0.17633872,-0.09559 0.2085453,-0.102833 0.4576184,-0.102833 0.24838126,0 0.28158136,0.0074 0.45504036,0.101459 C 1.7986639,10.321729 1.9778931,10.617481 1.9771802,11 1.9764748,11.378548 1.791927,11.683334 1.4545359,11.863161 1.2988686,11.946131 1.228398,11.96498 1.0427033,11.973314 c -0.14032873,0.0063 -0.26469122,-0.0051 -0.33286294,-0.03061 z"
     id="path2" />
  <path
     style="opacity:1;fill:#ffffff;stroke:#cccccc;stroke-width:0.02977"
     d="M 4.7133043,11.941338 C 4.5332118,11.882444 4.3942172,11.788757 4.2589584,11.635095 3.836306,11.154937 3.9957078,10.402073 4.5808663,10.114706 c 0.1429684,-0.07021 0.2044279,-0.08223 0.4204869,-0.08223 0.2162415,0 0.2774711,0.012 0.4209921,0.08248 0.1961484,0.09633 0.3913298,0.295921 0.4819112,0.492808 0.099876,0.21709 0.091684,0.590173 -0.017856,0.813231 -0.097108,0.197742 -0.2979437,0.39319 -0.4928078,0.479588 -0.1737892,0.07705 -0.5080572,0.09708 -0.680288,0.04076 z"
     id="path3" />
  <path
     style="opacity:1;fill:#ffffff;stroke:#cccccc;stroke-width:0.02977"
     d="m 16.677279,11.927824 c -0.418661,-0.149405 -0.688873,-0.563565 -0.653686,-1.001921 0.02801,-0.348957 0.237413,-0.655448 0.554062,-0.81095 0.143521,-0.07048 0.20475,-0.08248 0.420992,-0.08248 0.21689,0 0.2773,0.01191 0.422811,0.08337 0.591547,0.290489 0.741447,1.049101 0.303542,1.536157 -0.261634,0.291 -0.689532,0.403648 -1.047721,0.275824 z"
     id="path4" />
  <path
     style="opacity:1;fill:#ffffff;stroke:#cccccc;stroke-width:0.02977"
     d="M 20.715253,11.942706 C 20.27077,11.776636 20.02364,11.440183 20.02282,11 c -5.12e-4,-0.274597 0.09173,-0.497711 0.286135,-0.692119 0.209167,-0.209166 0.376022,-0.275405 0.693751,-0.275405 0.249073,0 0.28128,0.0072 0.457619,0.102833 0.326076,0.176771 0.513915,0.49282 0.513915,0.864691 0,0.538075 -0.390394,0.947867 -0.926879,0.972936 -0.140509,0.0066 -0.263618,-0.0046 -0.332108,-0.03023 z"
     id="path5" />
</svg>
