<?xml version="1.0" encoding="UTF-8" standalone="no"?>
<svg
   width="22"
   height="22"
   version="1.1"
   id="svg1"
   sodipodi:docname="preferences-system-bluetooth-symbolic.svg"
   inkscape:version="1.3.2 (091e20ef0f, 2023-11-25, custom)"
   xmlns:inkscape="http://www.inkscape.org/namespaces/inkscape"
   xmlns:sodipodi="http://sodipodi.sourceforge.net/DTD/sodipodi-0.dtd"
   xmlns="http://www.w3.org/2000/svg"
   xmlns:svg="http://www.w3.org/2000/svg">
  <defs
     id="defs1" />
  <sodipodi:namedview
     id="namedview1"
     pagecolor="#505050"
     bordercolor="#ffffff"
     borderopacity="1"
     inkscape:showpageshadow="0"
     inkscape:pageopacity="0"
     inkscape:pagecheckerboard="1"
     inkscape:deskcolor="#d1d1d1"
     inkscape:zoom="33.590909"
     inkscape:cx="10.985115"
     inkscape:cy="10.985115"
     inkscape:window-width="2560"
     inkscape:window-height="1388"
     inkscape:window-x="2560"
     inkscape:window-y="28"
     inkscape:window-maximized="1"
     inkscape:current-layer="svg1" />
  <style
     type="text/css"
     id="current-color-scheme">.ColorScheme-Text{color:#232629;}.ColorScheme-Background{color:#eff0f1;}.ColorScheme-ViewBackground{color:#fcfcfc;}.ColorScheme-ButtonFocus{color:#3daee9;}.ColorScheme-PositiveText{color:#27ae60;}.ColorScheme-NeutralText{color:#f67400;}.ColorScheme-NegativeText { color: #da4453; } </style>
  <g
     id="22-22-preferences-system-bluetooth"
     transform="translate(-22,94) translate(-44,-94)">
    <rect
       id="rect4645"
       x="66"
       width="22"
       height="22"
       fill="none" />
    <path
       id="rect4163-9"
       class="ColorScheme-Text"
       d="m76.998047 3v7.041013l-3.292969-3.2929692-2e-3 0.00195c-0.355749-0.3559538-0.996047-0.9960876-0.996047-0.9960876l-0.707031 0.7070313 4.544922 4.5410155-4.544922 4.541016 0.707031 0.707031s0.640351-0.640094 0.996094-0.996094h2e-3l3.294875-3.292968v7.039062h1l4-4-4-4 4-4-4-4zm1.001953 1.4160156 2.585938 2.5859375-2.585938 2.5859375zm0 8.0000004 2.585938 2.585937-2.585938 2.585938z"
       fill="currentColor" />
  </g>
  <path
     style="fill:#ffffff;stroke:#cccccc;stroke-width:0.02977"
     d="M 11.007565,15.466511 11,11.954673 9.4067156,13.538906 C 8.530409,14.410234 7.5620145,15.370404 7.2547276,15.672617 L 6.6960242,16.222094 6.353176,15.879246 6.0103277,15.536398 8.2890737,13.275642 10.56782,11.014885 8.2904687,8.7372038 6.0131176,6.459523 6.3558836,6.1177293 6.6986495,5.7759358 8.8345168,7.9116486 c 1.1747272,1.174642 2.1458802,2.1357124 2.1581182,2.1357124 0.01224,0 0.02225,-1.5807845 0.02225,-3.5128549 V 3.0216509 h 0.498564 0.498564 L 13.999241,5.008713 15.986469,6.9957749 13.984522,8.9978875 11.982574,11 l 2.001948,2.002113 2.001947,2.002112 -1.987228,1.987062 -1.987228,1.987062 h -0.498442 -0.498442 z m 2.306921,0.840114 c 0.700037,-0.699895 1.272794,-1.286048 1.272794,-1.302564 0,-0.01652 -0.582747,-0.612659 -1.294993,-1.324765 L 11.997294,12.38456 v 2.5973 c 0,1.428516 0.01,2.597301 0.0222,2.597301 0.01221,0 0.594956,-0.572641 1.294993,-1.272536 z M 14.58728,6.9961971 c 0,-0.034184 -2.533449,-2.5753581 -2.567529,-2.5753581 -0.01235,0 -0.02246,1.1687852 -0.02246,2.5973006 V 9.6154403 L 13.292287,8.3207037 C 14.004533,7.6085985 14.58728,7.0125706 14.58728,6.9961971 Z"
     id="path1" />
</svg>
