<?xml version="1.0" encoding="UTF-8" standalone="no"?>
<svg
   width="32"
   height="32"
   version="1.1"
   id="svg8"
   sodipodi:docname="input-keyboard-symbolic.svg"
   inkscape:version="1.3.2 (091e20ef0f, 2023-11-25, custom)"
   xmlns:inkscape="http://www.inkscape.org/namespaces/inkscape"
   xmlns:sodipodi="http://sodipodi.sourceforge.net/DTD/sodipodi-0.dtd"
   xmlns="http://www.w3.org/2000/svg"
   xmlns:svg="http://www.w3.org/2000/svg">
  <sodipodi:namedview
     id="namedview1"
     pagecolor="#505050"
     bordercolor="#ffffff"
     borderopacity="1"
     inkscape:showpageshadow="0"
     inkscape:pageopacity="0"
     inkscape:pagecheckerboard="1"
     inkscape:deskcolor="#d1d1d1"
     inkscape:zoom="37"
     inkscape:cx="15.986486"
     inkscape:cy="16"
     inkscape:window-width="2560"
     inkscape:window-height="1388"
     inkscape:window-x="2560"
     inkscape:window-y="28"
     inkscape:window-maximized="1"
     inkscape:current-layer="svg8" />
  <defs
     id="defs12" />
  <namedview
     id="namedview10"
     pagecolor="#ffffff"
     bordercolor="#000000"
     borderopacity="0.25"
     inkscape:showpageshadow="2"
     inkscape:pageopacity="0.0"
     inkscape:pagecheckerboard="0"
     inkscape:deskcolor="#d1d1d1"
     showgrid="false"
     inkscape:zoom="24.15625"
     inkscape:cx="13.785252"
     inkscape:cy="15.979301"
     inkscape:window-width="1920"
     inkscape:window-height="1011"
     inkscape:window-x="0"
     inkscape:window-y="0"
     inkscape:window-maximized="1"
     inkscape:current-layer="svg8" />
  <style
     type="text/css"
     id="current-color-scheme">.ColorScheme-Text{color:#31363b;}.ColorScheme-Background{color:#eff0f1;}.ColorScheme-Highlight{color:#3daee9;}.ColorScheme-ViewText{color:#31363b;}.ColorScheme-ViewBackground{color:#fcfcfc;}.ColorScheme-ViewHover{color:#93cee9;}.ColorScheme-ViewFocus{color:#3daee9;}.ColorScheme-ButtonText{color:#31363b;}.ColorScheme-ButtonBackground{color:#eff0f1;}.ColorScheme-ButtonHover{color:#93cee9;}.ColorScheme-ButtonFocus { color: #3daee9; } </style>
  <g
     id="input-keyboard"
     transform="matrix(1.4545455,0,0,1.4545455,0,2.5532709e-6)">
    <rect
       width="22"
       height="22"
       fill="none"
       id="rect3"
       x="0"
       y="0" />
    <path
       class="ColorScheme-Text"
       transform="matrix(0.68749998,0,0,0.68749998,-15.124999,22.000003)"
       d="m 47,-28 c 0,0.839286 -0.09344,1.439871 -0.248047,1.845703 -0.154602,0.405832 -0.347892,0.621232 -0.628906,0.785156 C 45.561021,-25.041291 44.5,-25 43,-25 c -1.5,0 -2.935631,-0.0273 -4.099609,0.554688 -0.58199,0.290994 -1.080576,0.752947 -1.408203,1.408203 C 37.21931,-22.491354 37.067093,-21.815455 37.021484,-21 H 25 V -4 H 51 V -21 H 38.021484 c 0.04382,-0.685454 0.170932,-1.207097 0.361328,-1.587891 0.234873,-0.469744 0.548787,-0.757791 0.966797,-0.966797 C 40.185631,-23.972698 41.5,-24 43,-24 c 1.5,0 2.688979,0.04129 3.626953,-0.505859 0.468986,-0.273576 0.838197,-0.714426 1.058594,-1.292969 C 47.905944,-26.377371 48,-27.089286 48,-28 Z m -21,8 h 24 v 2 H 26 Z m 0,3 H 50 V -5 H 26 Z m 1,2 v 2 h 1 v -2 z m 2,0 v 2 h 2 v -2 z m 3,0 v 2 h 2 v -2 z m 3,0 v 2 h 2 v -2 z m 3,0 v 2 h 2 v -2 z m 3,0 v 2 h 2 v -2 z m 3,0 v 2 h 2 v -2 z m 3,0 v 2 h 2 v -2 z m -20,3 v 2 h 3 v -2 z m 4,0 v 2 h 2 v -2 z m 3,0 v 2 h 2 v -2 z m 3,0 v 2 h 2 v -2 z m 3,0 v 2 h 2 v -2 z m 3,0 v 2 h 2 v -2 z m 3,0 v 2 h 3 v -2 z m -19,3 v 2 h 2 v -2 z m 3,0 v 2 h 2 v -2 z m 3,0 v 2 h 10 v -2 z m 11,0 v 2 h 2 v -2 z m 3,0 v 2 h 2 v -2 z"
       fill="currentColor"
       id="path5" />
  </g>
  <path
     style="fill:#ffffff;stroke:#cccccc;stroke-width:0.027027"
     d="m 3,19.5 v -8.486486 h 6.0118576 6.0118574 l 0.0136,-0.114865 c 0.0075,-0.06318 0.0269,-0.236487 0.04314,-0.385135 0.111255,-1.0179175 0.437855,-1.7765548 1.013008,-2.3530467 0.374675,-0.3755465 0.752464,-0.6043341 1.327933,-0.8041892 0.749613,-0.260334 1.542903,-0.3422546 3.321842,-0.3430362 2.443421,-0.00107 3.194379,-0.1221357 3.662569,-0.5904441 C 24.769731,6.0587875 25,5.2377606 25,4.3042197 V 4.0135135 h 0.495888 0.495887 l -0.01,0.277027 c -0.0282,0.7822544 -0.103658,1.2801517 -0.270215,1.7829625 -0.334527,1.0098851 -1.075306,1.6060002 -2.244034,1.8058043 -0.472013,0.080695 -1.006343,0.1062757 -2.237809,0.1071351 -1.701489,0.00119 -2.481222,0.050883 -3.148649,0.200676 -0.544262,0.1221511 -0.933045,0.3110978 -1.248879,0.6069511 -0.48301,0.4524524 -0.702371,1.0214948 -0.816509,2.1180925 l -0.01055,0.101352 H 22.502572 29 V 19.5 27.986486 H 16 3 Z M 28,21 V 14.986486 H 16 4 V 21 27.013514 h 12 12 z m 0,-8 V 11.986486 H 16 4 V 13 14.013514 h 12 12 z"
     id="path1" />
  <path
     style="fill:#ffffff;stroke:#cccccc;stroke-width:0.027027"
     d="m 16,18 v -0.986486 h 1 1 V 18 18.986486 h -1 -1 z"
     id="path2" />
  <path
     style="fill:#ffffff;stroke:#cccccc;stroke-width:0.027027"
     d="m 13,18 v -0.986486 h 1 1 V 18 18.986486 h -1 -1 z"
     id="path3" />
  <path
     style="fill:#ffffff;stroke:#cccccc;stroke-width:0.027027"
     d="m 10,18 v -0.986486 h 1 1 V 18 18.986486 h -1 -1 z"
     id="path4" />
  <path
     style="fill:#ffffff;stroke:#cccccc;stroke-width:0.027027"
     d="M 7,18 V 17.013514 H 8 9 V 18 18.986486 H 8 7 Z"
     id="path6" />
  <path
     style="fill:#ffffff;stroke:#cccccc;stroke-width:0.027027"
     d="M 5,18 V 17.013514 H 5.5 6 V 18 18.986486 H 5.5 5 Z"
     id="path7" />
  <path
     style="fill:#ffffff;stroke:#cccccc;stroke-width:0.027027"
     d="M 5,21 V 20.013514 H 6.5 8 V 21 21.986486 H 6.5 5 Z"
     id="path8" />
  <path
     style="fill:#ffffff;stroke:#cccccc;stroke-width:0.027027"
     d="M 5,24 V 23.013514 H 6 7 V 24 24.986486 H 6 5 Z"
     id="path9" />
  <path
     style="fill:#ffffff;stroke:#cccccc;stroke-width:0.027027"
     d="m 8,24 v -0.986486 h 1 1 V 24 24.986486 H 9 8 Z"
     id="path10" />
  <path
     style="fill:#ffffff;stroke:#cccccc;stroke-width:0.027027"
     d="m 9,21 v -0.986486 h 1 1 V 21 21.986486 H 10 9 Z"
     id="path11" />
  <path
     style="fill:#ffffff;stroke:#cccccc;stroke-width:0.027027"
     d="m 11,24 v -0.986486 h 5 5 V 24 24.986486 h -5 -5 z"
     id="path12" />
  <path
     style="fill:#ffffff;stroke:#cccccc;stroke-width:0.027027"
     d="m 12,21 v -0.986486 h 1 1 V 21 21.986486 h -1 -1 z"
     id="path13" />
  <path
     style="fill:#ffffff;stroke:#cccccc;stroke-width:0.027027"
     d="m 15,21 v -0.986486 h 1 1 V 21 21.986486 h -1 -1 z"
     id="path14" />
  <path
     style="fill:#ffffff;stroke:#cccccc;stroke-width:0.027027"
     d="m 18,21 v -0.986486 h 1 1 V 21 21.986486 h -1 -1 z"
     id="path15" />
  <path
     style="fill:#ffffff;stroke:#cccccc;stroke-width:0.027027"
     d="m 19,18 v -0.986486 h 1 1 V 18 18.986486 h -1 -1 z"
     id="path16" />
  <path
     style="fill:#ffffff;stroke:#cccccc;stroke-width:0.027027"
     d="m 21,21 v -0.986486 h 1 1 V 21 21.986486 h -1 -1 z"
     id="path17" />
  <path
     style="fill:#ffffff;stroke:#cccccc;stroke-width:0.027027"
     d="m 22,18 v -0.986486 h 1 1 V 18 18.986486 h -1 -1 z"
     id="path18" />
  <path
     style="fill:#ffffff;stroke:#cccccc;stroke-width:0.027027"
     d="m 22,24 v -0.986486 h 1 1 V 24 24.986486 h -1 -1 z"
     id="path19" />
  <path
     style="fill:#ffffff;stroke:#cccccc;stroke-width:0.027027"
     d="M 24,21 V 20.013514 H 25.5 27 V 21 21.986486 H 25.5 24 Z"
     id="path20" />
  <path
     style="fill:#ffffff;stroke:#cccccc;stroke-width:0.027027"
     d="m 25,24 v -0.986486 h 1 1 V 24 24.986486 h -1 -1 z"
     id="path21" />
  <path
     style="fill:#ffffff;stroke:#cccccc;stroke-width:0.027027"
     d="m 25,18 v -0.986486 h 1 1 V 18 18.986486 h -1 -1 z"
     id="path22" />
</svg>
