<?xml version="1.0" encoding="UTF-8" standalone="no"?>
<svg
   viewBox="0 0 24 24"
   width="24"
   height="24"
   version="1.1"
   id="svg1"
   sodipodi:docname="drive-removable-media.svg"
   inkscape:version="1.3.2 (091e20ef0f, 2023-11-25, custom)"
   xmlns:inkscape="http://www.inkscape.org/namespaces/inkscape"
   xmlns:sodipodi="http://sodipodi.sourceforge.net/DTD/sodipodi-0.dtd"
   xmlns="http://www.w3.org/2000/svg"
   xmlns:svg="http://www.w3.org/2000/svg">
  <sodipodi:namedview
     id="namedview1"
     pagecolor="#505050"
     bordercolor="#ffffff"
     borderopacity="1"
     inkscape:showpageshadow="0"
     inkscape:pageopacity="0"
     inkscape:pagecheckerboard="1"
     inkscape:deskcolor="#d1d1d1"
     inkscape:zoom="49.333333"
     inkscape:cx="11.989865"
     inkscape:cy="12"
     inkscape:window-width="2560"
     inkscape:window-height="1388"
     inkscape:window-x="2560"
     inkscape:window-y="28"
     inkscape:window-maximized="1"
     inkscape:current-layer="svg1" />
  <defs
     id="defs3051">
    <style
       type="text/css"
       id="current-color-scheme">
      .ColorScheme-Text {
        color:#232629;
      }
      </style>
  </defs>
  <g
     transform="translate(1,1)"
     id="g1">
    <path
       style="fill:currentColor;fill-opacity:1;stroke:none"
       d="m 7,1033.3622 0,8 -1,0 0,1 0,7 1,0 9,0 0,-1 0,-6 0,-1 -1,0 0,-8 -8,0 z m 1,2 1,0 0,4 -1,0 0,-4 z m 5,0 1,0 0,4 -1,0 0,-4 z m -3,2 2,0 0,2 -2,0 0,-2 z m -3,5 8,0 0,6 -8,0 0,-6 z m 4,1 -1,1 2,0 -1,-1 z m -3,3 0,1 6,0 0,-1 -6,0 z"
       transform="translate(0,-1030.3622)"
       class="ColorScheme-Text"
       id="path1" />
  </g>
  <path
     style="fill:#ffffff;stroke:#cccccc;stroke-width:0.0202703"
     d="M 7.0135135,16.003378 V 12.010135 H 7.5101351 8.0067568 V 8.0067568 4.0033784 H 12 15.993243 v 4.0033784 4.0033782 h 0.496622 0.496621 v 3.993243 3.993244 H 12 7.0135135 Z m 9.0000005,-0.01014 v -3.01013 H 12 7.9864865 v 3.010135 3.010135 H 12 16.013514 Z m -6,-7.9966214 V 5.9898649 H 9.5067568 9 V 7.9966216 10.003378 H 9.5067568 10.013514 Z M 13.013514,9 V 7.9966216 H 12 10.986486 V 9 10.003378 H 12 13.013514 Z M 15,7.9966216 V 5.9898649 H 14.493243 13.986486 V 7.9966216 10.003378 H 14.493243 15 Z"
     id="path2" />
  <path
     style="fill:#ffffff;stroke:#cccccc;stroke-width:0.0202703"
     d="M 11.508498,14.498363 12,14.006861 l 0.491502,0.491502 0.491502,0.491502 H 12 11.016996 Z"
     id="path3" />
  <path
     style="fill:#ffffff;stroke:#cccccc;stroke-width:0.0202703"
     d="m 9,17.503378 v -0.486486 h 3 3 v 0.486486 0.486487 H 12 9 Z"
     id="path4" />
</svg>
