<?xml version="1.0" encoding="UTF-8" standalone="no"?>
<svg
   viewBox="0 0 24 24"
   width="24"
   height="24"
   version="1.1"
   id="svg1"
   sodipodi:docname="network-vpn.svg"
   inkscape:version="1.3.2 (091e20ef0f, 2023-11-25, custom)"
   xmlns:inkscape="http://www.inkscape.org/namespaces/inkscape"
   xmlns:sodipodi="http://sodipodi.sourceforge.net/DTD/sodipodi-0.dtd"
   xmlns="http://www.w3.org/2000/svg"
   xmlns:svg="http://www.w3.org/2000/svg">
  <sodipodi:namedview
     id="namedview1"
     pagecolor="#505050"
     bordercolor="#ffffff"
     borderopacity="1"
     inkscape:showpageshadow="0"
     inkscape:pageopacity="0"
     inkscape:pagecheckerboard="1"
     inkscape:deskcolor="#d1d1d1"
     inkscape:zoom="49.333333"
     inkscape:cx="11.989865"
     inkscape:cy="12"
     inkscape:window-width="2560"
     inkscape:window-height="1388"
     inkscape:window-x="2560"
     inkscape:window-y="28"
     inkscape:window-maximized="1"
     inkscape:current-layer="svg1" />
  <defs
     id="defs3051">
    <style
       type="text/css"
       id="current-color-scheme">
      .ColorScheme-Text {
        color:#232629;
      }
      </style>
  </defs>
  <g
     transform="translate(1,1)"
     id="g1">
    <path
       transform="translate(0,-1030.3622)"
       d="m 11,1033.3622 c 0,0 -2,2.6581 -8,3.3248 0,0 0,9.3333 8,12.6752 8,-3.3419 8,-12.6752 8,-12.6752 -6,-0.6667 -8,-3.3248 -8,-3.3248 z m 0,4.6667 c 1.104566,0 2,0.8954 2,2 0,0.8284 -0.511334,1.5297 -1.229166,1.8333 l 0.5625,2.8333 -2.666668,0 0.5625,-2.8333 C 9.511334,1041.5586 9,1040.8573 9,1040.0289 c 0,-1.1046 0.895434,-2 2,-2 z"
       style="fill:currentColor;fill-opacity:1;stroke:none"
       class="ColorScheme-Text"
       id="path1" />
  </g>
  <path
     style="fill:#ffffff;stroke:#cccccc;stroke-width:0.0202703"
     d="M 11.614865,19.81743 C 11.16889,19.608283 10.922061,19.481578 10.59915,19.296032 8.0121746,17.809551 6.1226313,15.470666 4.9922419,12.355777 4.4912777,10.975326 4.1404418,9.3306817 4.0342393,7.8648649 c -0.029659,-0.409362 -0.027541,-0.5371622 0.0089,-0.5371622 0.069032,0 0.6981525,-0.086503 1.0446941,-0.143643 C 7.9420666,6.7134332 10.318842,5.6843086 11.712458,4.3156522 l 0.29091,-0.2856991 0.216221,0.221789 c 0.827386,0.8486906 2.167597,1.6341462 3.743908,2.1941882 0.876499,0.3114079 2.05189,0.6007934 3.080422,0.758411 0.416482,0.063824 0.858736,0.1233614 0.916348,0.1233614 0.02894,0 0.03107,0.031898 0.01934,0.2900382 -0.0635,1.3975889 -0.415808,3.1567821 -0.918205,4.5849621 -1.13963,3.239664 -3.11126,5.680689 -5.790371,7.168914 -0.46548,0.25857 -1.200495,0.605583 -1.27871,0.603699 -0.02365,-5.7e-4 -0.1935,-0.07162 -0.377453,-0.157886 z m 1.722973,-4.495232 c 0,-0.0067 -0.12316,-0.633856 -0.273688,-1.393582 -0.150528,-0.759725 -0.273377,-1.39044 -0.272997,-1.401589 3.8e-4,-0.01115 0.08196,-0.06541 0.181283,-0.120577 0.23805,-0.132221 0.430344,-0.293565 0.594697,-0.498981 0.798932,-0.998542 0.466456,-2.4791061 -0.68258,-3.039618 C 12.555233,8.7072047 12.419635,8.6781201 12,8.6781201 c -0.426509,0 -0.559556,0.029481 -0.902027,0.1998742 -0.715369,0.3559248 -1.1429771,1.0932214 -1.0985344,1.8941287 0.039229,0.706953 0.4283114,1.313063 1.0627174,1.655495 0.08064,0.04353 0.146788,0.08826 0.146998,0.09941 2.11e-4,0.01115 -0.122776,0.641864 -0.273304,1.401589 -0.150528,0.759726 -0.273688,1.386838 -0.273688,1.393582 0,0.0067 0.602027,0.01226 1.337838,0.01226 0.735811,0 1.337838,-0.0055 1.337838,-0.01226 z"
     id="path2" />
</svg>
