<?xml version="1.0" encoding="UTF-8" standalone="no"?>
<svg
   viewBox="0 0 24 24"
   width="24"
   height="24"
   version="1.1"
   id="svg2"
   sodipodi:docname="archive-remove.svg"
   inkscape:version="1.3.2 (091e20ef0f, 2023-11-25, custom)"
   xmlns:inkscape="http://www.inkscape.org/namespaces/inkscape"
   xmlns:sodipodi="http://sodipodi.sourceforge.net/DTD/sodipodi-0.dtd"
   xmlns="http://www.w3.org/2000/svg"
   xmlns:svg="http://www.w3.org/2000/svg">
  <defs
     id="defs2" />
  <sodipodi:namedview
     id="namedview2"
     pagecolor="#505050"
     bordercolor="#ffffff"
     borderopacity="1"
     inkscape:showpageshadow="0"
     inkscape:pageopacity="0"
     inkscape:pagecheckerboard="1"
     inkscape:deskcolor="#d1d1d1"
     inkscape:zoom="49.333333"
     inkscape:cx="11.989865"
     inkscape:cy="12"
     inkscape:window-width="2560"
     inkscape:window-height="1388"
     inkscape:window-x="2560"
     inkscape:window-y="28"
     inkscape:window-maximized="1"
     inkscape:current-layer="svg2" />
  <style
     type="text/css"
     id="current-color-scheme">.ColorScheme-Text{color:#232629;}.ColorScheme-NegativeText { color: #da4453; } </style>
  <g
     transform="translate(1,1)"
     id="g2">
    <path
       d="m3 3v16h11v-1h-10v-14h7v1h1v-1h6v10h1v-11zm8 2h-1v1h1zm0 1v1h1v-1zm0 1h-1v1h1zm0 1v1h1v-1zm0 1h-1v1 1h2v-1h-1z"
       style="fill:currentColor;fill-opacity:1;stroke:none"
       class="ColorScheme-Text"
       id="path1" />
    <path
       d="m14 16h5v1h-5z"
       style="fill:currentColor;fill-opacity:1;stroke:none"
       class="ColorScheme-NegativeText"
       id="path2" />
  </g>
  <path
     style="fill:#ffffff;stroke:#cccccc;stroke-width:0.0202703"
     d="M 11.006757,10.996622 V 10.003378 H 11.503378 12 v 0.506757 0.506757 h 0.496622 0.496621 v 0.486486 0.486487 H 12 11.006757 Z"
     id="path3" />
  <path
     style="fill:#ffffff;stroke:#cccccc;stroke-width:0.0202703"
     d="M 12,9.4966216 V 9.0101351 h 0.496622 0.496621 V 9.4966216 9.9831081 H 12.496622 12 Z"
     id="path4" />
  <path
     style="fill:#ffffff;stroke:#cccccc;stroke-width:0.0202703"
     d="M 11.006757,8.5033784 V 8.0168919 H 11.503378 12 v 0.4864865 0.4864865 h -0.496622 -0.496621 z"
     id="path5" />
  <path
     style="fill:#ffffff;stroke:#cccccc;stroke-width:0.0202703"
     d="M 12,7.5 V 7.0033784 h 0.496622 0.496621 V 7.5 7.9966216 H 12.496622 12 Z"
     id="path6" />
  <path
     style="fill:#ffffff;stroke:#cccccc;stroke-width:0.0202703"
     d="M 11.006757,6.4966216 V 6.0101351 H 11.503378 12 v 0.4864865 0.4864865 h -0.496622 -0.496621 z"
     id="path7" />
  <path
     style="fill:#ffffff;stroke:#cccccc;stroke-width:0.0202703"
     d="M 4.0135135,12 V 4.0033784 H 12 19.986486 V 9.4966216 14.989865 H 19.5 19.013514 V 9.9932432 4.9966216 H 16.003378 12.993243 V 5.4932432 5.9898649 H 12.496622 12 V 5.4932432 4.9966216 H 8.4932432 4.9864865 V 12 19.003378 H 9.9932432 15 V 19.5 19.996622 H 9.5067568 4.0135135 Z"
     id="path8" />
</svg>
