<?xml version="1.0" encoding="UTF-8" standalone="no"?>
<svg
   viewBox="0 0 24 24"
   width="24"
   height="24"
   version="1.1"
   id="svg1"
   sodipodi:docname="deep-history.svg"
   inkscape:version="1.3.2 (091e20ef0f, 2023-11-25, custom)"
   xmlns:inkscape="http://www.inkscape.org/namespaces/inkscape"
   xmlns:sodipodi="http://sodipodi.sourceforge.net/DTD/sodipodi-0.dtd"
   xmlns="http://www.w3.org/2000/svg"
   xmlns:svg="http://www.w3.org/2000/svg">
  <sodipodi:namedview
     id="namedview1"
     pagecolor="#505050"
     bordercolor="#ffffff"
     borderopacity="1"
     inkscape:showpageshadow="0"
     inkscape:pageopacity="0"
     inkscape:pagecheckerboard="1"
     inkscape:deskcolor="#d1d1d1"
     inkscape:zoom="49.333333"
     inkscape:cx="11.989865"
     inkscape:cy="12"
     inkscape:window-width="2560"
     inkscape:window-height="1388"
     inkscape:window-x="2560"
     inkscape:window-y="28"
     inkscape:window-maximized="1"
     inkscape:current-layer="svg1" />
  <defs
     id="defs3051">
    <style
       type="text/css"
       id="current-color-scheme">.ColorScheme-Text{color:#232629;}.ColorScheme-Highlight { color: #3daee9; } </style>
  </defs>
  <g
     transform="translate(1,1)"
     id="g1">
    <path
       style="fill:currentColor;fill-opacity:1;stroke:none"
       d="m11 3c-4.431998 0-8 3.568002-8 8 0 4.431998 3.568002 8 8 8 1.896399 0 3.632791-.656291 5-1.751953v-1.248047h-.09375c-1.261408 1.237774-2.99118 2-4.90625 2-3.877999 0-7-3.122001-7-7 0-3.877999 3.122001-7 7-7 3.877999 0 7 3.122001 7 7 0 .696167-.105435 1.366247-.292969 2h1.033203c.163714-.639651.259766-1.307916.259766-2 0-4.431998-3.568002-8-8-8m-1 2v7h1 5v-1h-5v-6h-1"
       class="ColorScheme-Text"
       id="path1" />
    <path
       style="fill:currentColor;fill-opacity:1;stroke:none"
       d="m13.65625 14v1h.845703 1.998047a1.5 1.5 0 0 1 1.5 1.5 1.5 1.5 0 0 1 -1.5 1.5v1a2.5 2.5 0 0 0 2.5 -2.5 2.5 2.5 0 0 0 -2.5 -2.5h-2.84375"
       class="ColorScheme-Highlight"
       id="path10" />
  </g>
  <path
     style="fill:#ffffff;stroke:#cccccc;stroke-width:0.0202703"
     d="M 11.006757,9.4966216 V 6.0101351 H 11.503378 12 v 3 2.9999999 h 2.493243 2.493243 v 0.486487 0.486486 h -2.989864 -2.989865 z"
     id="path2" />
  <path
     style="fill:#ffffff;stroke:#cccccc;stroke-width:0.0202703"
     d="M 11.498803,19.974471 C 10.397961,19.907931 9.2940566,19.602632 8.3162149,19.094285 6.0208508,17.901003 4.4374617,15.662356 4.0869868,13.114865 3.9757854,12.306577 3.993924,11.371739 4.1363461,10.570946 4.7250927,7.260616 7.3809882,4.6501409 10.703166,4.1164303 c 0.485149,-0.07794 0.759281,-0.099194 1.286699,-0.09976 0.547054,-5.873e-4 0.856124,0.024252 1.359468,0.1092601 3.123926,0.5275861 5.634678,2.85419 6.402932,5.9333156 0.147104,0.589587 0.212064,1.081499 0.22818,1.727916 0.01698,0.68097 -0.03257,1.209344 -0.178216,1.900338 l -0.06516,0.309122 h -0.503672 c -0.390106,0 -0.503672,-0.0057 -0.503672,-0.0254 0,-0.01397 0.01836,-0.08922 0.04081,-0.167229 0.178821,-0.621424 0.268409,-1.491546 0.225311,-2.188352 -0.0626,-1.012117 -0.294404,-1.8920235 -0.72536,-2.7533869 C 17.322775,6.968023 15.593641,5.616954 13.530405,5.1585556 12.469648,4.9228823 11.297609,4.9421613 10.247163,5.212562 8.5045251,5.6611438 7.0265509,6.7406641 6.05433,8.2750299 5.8696897,8.5664307 5.5385889,9.2423341 5.4236161,9.5625586 5.1256173,10.39255 5.000796,11.103112 4.9990019,11.97973 c -0.00105,0.513052 0.016264,0.740036 0.091226,1.195946 0.2283288,1.388669 0.8959987,2.706068 1.878865,3.707241 0.3912574,0.398544 0.7105588,0.666808 1.1187448,0.939923 0.9076936,0.607332 1.9074375,0.979987 3.0405403,1.133362 0.338977,0.04588 1.373929,0.05219 1.682433,0.01026 0.752823,-0.102332 1.325609,-0.256573 1.97884,-0.532867 0.668256,-0.282649 1.454483,-0.793715 1.960464,-1.274347 0.246912,-0.234542 0.236371,-0.255688 0.236371,0.474209 v 0.616566 l -0.22804,0.168364 c -1.529677,1.129371 -3.36008,1.670902 -5.259643,1.556083 z"
     id="path3" />
</svg>
