<?xml version="1.0" encoding="UTF-8" standalone="no"?>
<svg
   viewBox="0 0 24 24"
   version="1.1"
   width="24"
   height="24"
   id="svg2"
   sodipodi:docname="document-replace.svg"
   inkscape:version="1.3.2 (091e20ef0f, 2023-11-25, custom)"
   xmlns:inkscape="http://www.inkscape.org/namespaces/inkscape"
   xmlns:sodipodi="http://sodipodi.sourceforge.net/DTD/sodipodi-0.dtd"
   xmlns="http://www.w3.org/2000/svg"
   xmlns:svg="http://www.w3.org/2000/svg">
  <sodipodi:namedview
     id="namedview2"
     pagecolor="#505050"
     bordercolor="#ffffff"
     borderopacity="1"
     inkscape:showpageshadow="0"
     inkscape:pageopacity="0"
     inkscape:pagecheckerboard="1"
     inkscape:deskcolor="#d1d1d1"
     inkscape:zoom="49.333333"
     inkscape:cx="11.989865"
     inkscape:cy="12"
     inkscape:window-width="2560"
     inkscape:window-height="1388"
     inkscape:window-x="2560"
     inkscape:window-y="28"
     inkscape:window-maximized="1"
     inkscape:current-layer="svg2" />
  <defs
     id="defs1">
    <style
       type="text/css"
       id="current-color-scheme">.ColorScheme-Text{color:#232629;}.ColorScheme-NegativeText { color: #da4453; } </style>
  </defs>
  <g
     transform="translate(1,1)"
     id="g2">
    <path
       style="fill:currentColor; fill-opacity:1; stroke:none"
       d="M 13 6 L 15 6 L 15 10 L 19 10 L 19 13 L 20 13 L 20 9 L 16 5 L 12 5 L 13 6 Z M 8 19 L 13 19 L 13 18 L 9 18 L 9 17 L 8 17 L 8 19 Z M 15.707 14 L 15 14.707 L 16.793 16.5 L 15 18.293 L 15.707 19 L 17.5 17.207 L 19.293 19 L 20 18.293 L 18.207 16.5 L 20 14.707 L 19.293 14 L 17.5 15.793 L 15.707 14 Z"
       class="ColorScheme-NegativeText"
       id="path1" />
    <path
       style="fill:currentColor; fill-opacity:1; stroke:none"
       d="M 13 16 L 3 16 L 3 4 L 9 4 L 9 8 L 13 8 L 13 16 Z M 14 11 L 14 7 L 10 3 L 2 3 L 2 17 L 14 17 L 14 11 Z"
       class="ColorScheme-Text"
       id="path2" />
  </g>
  <path
     style="fill:#ffffff;stroke:#cccccc;stroke-width:0.0202703"
     d="M 3,10.996622 V 4.0033784 H 6.9983491 10.996698 L 12.998349,6.0051058 15,8.0068332 v 4.9915158 4.991516 H 9 3 Z m 11.006757,2.006756 V 8.9898649 H 12.010135 10.013514 V 6.9932432 4.9966216 H 7.0033784 3.9932432 v 6.0101354 6.010135 H 9 14.006757 Z"
     id="path3" />
</svg>
