<?xml version="1.0" encoding="UTF-8" standalone="no"?>
<svg
   viewBox="0 0 24 24"
   width="24"
   height="24"
   version="1.1"
   id="svg2"
   sodipodi:docname="edit-table-insert-row-below.svg"
   inkscape:version="1.3.2 (091e20ef0f, 2023-11-25, custom)"
   xmlns:inkscape="http://www.inkscape.org/namespaces/inkscape"
   xmlns:sodipodi="http://sodipodi.sourceforge.net/DTD/sodipodi-0.dtd"
   xmlns="http://www.w3.org/2000/svg"
   xmlns:svg="http://www.w3.org/2000/svg">
  <sodipodi:namedview
     id="namedview2"
     pagecolor="#505050"
     bordercolor="#ffffff"
     borderopacity="1"
     inkscape:showpageshadow="0"
     inkscape:pageopacity="0"
     inkscape:pagecheckerboard="1"
     inkscape:deskcolor="#d1d1d1"
     inkscape:zoom="49.333333"
     inkscape:cx="11.989865"
     inkscape:cy="12"
     inkscape:window-width="2560"
     inkscape:window-height="1388"
     inkscape:window-x="2560"
     inkscape:window-y="28"
     inkscape:window-maximized="1"
     inkscape:current-layer="svg2" />
  <defs
     id="defs3051">
    <style
       type="text/css"
       id="current-color-scheme">.ColorScheme-Text{color:#232629;}.ColorScheme-Highlight { color: #3daee9; } </style>
  </defs>
  <g
     transform="translate(1,1)"
     id="g2">
    <path
       style="fill:currentColor;fill-opacity:1;stroke:none"
       d="M 3 3 L 3 13 L 3 19 L 4 19 L 4 13 L 4 9 L 5 9 L 6 9 L 6 13 L 7 13 L 7 9 L 9 9 L 9 13 L 10 13 L 10 9 L 12 9 L 12 13 L 12 19 L 13 19 L 13 13 L 13 9 L 15 9 L 15 13 L 16 13 L 16 9 L 18 9 L 18 13 L 19 13 L 19 4 L 19 3 L 4 3 L 3 3 z M 4 4 L 6 4 L 6 7 L 6 8 L 5 8 L 4 8 L 4 4 z M 7 4 L 9 4 L 9 8 L 7 8 L 7 7 L 7 4 z M 10 4 L 12 4 L 12 8 L 10 8 L 10 4 z M 13 4 L 15 4 L 15 7 L 15 8 L 13 8 L 13 4 z M 16 4 L 18 4 L 18 8 L 17.099609 8 L 16 8 L 16 7 L 16 4 z M 14 14 L 16.5 19 L 19 14 L 14 14 z "
       class="ColorScheme-Text"
       id="path1" />
    <path
       style="fill:currentColor;fill-opacity:1;stroke:none"
       class="ColorScheme-Highlight"
       d="M 4,13 9.29297,13 12,13 l 0,1 -2.29297,0 -4,4 2.58594,0 L 12,14.29297 12,15.70703 9.70703,18 12,18 l 0,1 -8,0 0,-1 0.29297,0 4,-4 L 4,14 4,13"
       id="path2" />
  </g>
  <path
     style="fill:#ffffff;stroke:#cccccc;stroke-width:0.0202703"
     d="M 4.0135135,12 V 4.0033784 H 12 19.986486 V 9 13.996622 H 19.5 19.013514 V 11.989865 9.9831081 H 18 16.986486 v 2.0067569 2.006757 H 16.5 16.013514 V 11.989865 9.9831081 H 15 13.986486 v 5.0067569 5.006757 H 13.5 13.013514 V 14.989865 9.9831081 H 12 10.986486 v 2.0067569 2.006757 H 10.5 10.013514 V 11.989865 9.9831081 H 9 7.9864865 v 2.0067569 2.006757 H 7.5 7.0135135 V 11.989865 9.9831081 H 6 4.9864865 v 5.0067569 5.006757 H 4.5 4.0135135 Z m 3,-4.9966216 V 4.9966216 H 6 4.9864865 V 7.0033784 9.0101351 H 6 7.0135135 Z m 3.0000005,0 V 4.9966216 H 9 7.9864865 V 7.0033784 9.0101351 H 9 10.013514 Z m 3,0 V 4.9966216 H 12 10.986486 V 7.0033784 9.0101351 H 12 13.013514 Z m 3,0 V 4.9966216 H 15 13.986486 V 7.0033784 9.0101351 H 15 16.013514 Z m 3,0 V 4.9966216 H 18 16.986486 V 7.0033784 9.0101351 H 18 19.013514 Z"
     id="path3" />
  <path
     style="fill:#ffffff;stroke:#cccccc;stroke-width:0.0202703"
     d="m 16.261247,17.492143 -1.240955,-2.482008 h 2.483114 2.483114 l -1.238723,2.478041 c -0.681297,1.362922 -1.240268,2.479825 -1.242159,2.482007 -0.0019,0.0022 -0.561867,-1.112936 -1.244391,-2.47804 z"
     id="path4" />
</svg>
