<?xml version="1.0" encoding="UTF-8" standalone="no"?>
<svg
   viewBox="0 0 24 24"
   width="24"
   height="24"
   version="1.1"
   id="svg2"
   sodipodi:docname="edit-table-insert-column-left.svg"
   inkscape:version="1.3.2 (091e20ef0f, 2023-11-25, custom)"
   xmlns:inkscape="http://www.inkscape.org/namespaces/inkscape"
   xmlns:sodipodi="http://sodipodi.sourceforge.net/DTD/sodipodi-0.dtd"
   xmlns="http://www.w3.org/2000/svg"
   xmlns:svg="http://www.w3.org/2000/svg">
  <sodipodi:namedview
     id="namedview2"
     pagecolor="#505050"
     bordercolor="#ffffff"
     borderopacity="1"
     inkscape:showpageshadow="0"
     inkscape:pageopacity="0"
     inkscape:pagecheckerboard="1"
     inkscape:deskcolor="#d1d1d1"
     inkscape:zoom="49.333333"
     inkscape:cx="11.989865"
     inkscape:cy="12"
     inkscape:window-width="2560"
     inkscape:window-height="1388"
     inkscape:window-x="2560"
     inkscape:window-y="28"
     inkscape:window-maximized="1"
     inkscape:current-layer="svg2" />
  <defs
     id="defs3051">
    <style
       type="text/css"
       id="current-color-scheme">.ColorScheme-Text{color:#232629;}.ColorScheme-Highlight { color: #3daee9; } </style>
  </defs>
  <g
     transform="translate(1,1)"
     id="g2">
    <path
       style="fill:currentColor;fill-opacity:1;stroke:none"
       d="M 3 3 L 3 4 L 9 4 L 13 4 L 13 5 L 13 6 L 9 6 L 9 7 L 13 7 L 13 9 L 9 9 L 9 10 L 13 10 L 13 12 L 9 12 L 3 12 L 3 13 L 9 13 L 13 13 L 13 15 L 9 15 L 9 16 L 13 16 L 13 18 L 9 18 L 9 19 L 18 19 L 19 19 L 19 4 L 19 3 L 9 3 L 3 3 z M 14 4 L 18 4 L 18 6 L 15 6 L 14 6 L 14 5 L 14 4 z M 14 7 L 15 7 L 18 7 L 18 9 L 14 9 L 14 7 z M 14 10 L 18 10 L 18 12 L 14 12 L 14 10 z M 14 13 L 18 13 L 18 15 L 15 15 L 14 15 L 14 13 z M 8 14 L 3 16.5 L 8 19 L 8 14 z M 14 16 L 15 16 L 18 16 L 18 18 L 14 18 L 14 17.099609 L 14 16 z "
       class="ColorScheme-Text"
       id="path1" />
    <path
       style="fill:currentColor;fill-opacity:1;stroke:none"
       class="ColorScheme-Highlight"
       d="M 3 3 L 3 4 L 3 12 L 3 13 L 9 13 L 9 12 L 9 9.2929688 L 9 4 L 9 3 L 3 3 z M 4 4 L 8 4 L 8 8.2929688 L 4 4.2929688 L 4 4 z M 4 5.7070312 L 8 9.7070312 L 8 12 L 7.7070312 12 L 4 8.2929688 L 4 5.7070312 z M 4 9.7070312 L 6.2929688 12 L 4 12 L 4 9.7070312 z "
       id="path2" />
  </g>
  <path
     style="fill:#ffffff;stroke:#cccccc;stroke-width:0.0202703"
     d="m 10.013514,19.5 v -0.496622 h 1.996621 1.996622 V 18 16.996622 H 12.010135 10.013514 V 16.5 16.003378 h 1.996621 1.996622 V 15 13.996622 H 12.010135 10.013514 V 13.5 13.003378 h 1.996621 1.996622 V 12 10.996622 H 12.010135 10.013514 V 10.5 10.003378 h 1.996621 1.996622 V 9 7.9966216 H 12.010135 10.013514 V 7.5 7.0033784 h 1.996621 1.996622 V 6 4.9966216 H 12.010135 10.013514 V 4.5 4.0033784 H 15 19.986486 V 12 19.996622 H 15 10.013514 Z m 9,-1.5 V 16.996622 H 17.006757 15 V 18 19.003378 h 2.006757 2.006757 z m 0,-3 V 13.996622 H 17.006757 15 V 15 16.003378 h 2.006757 2.006757 z m 0,-3 V 10.996622 H 17.006757 15 V 12 13.003378 h 2.006757 2.006757 z m 0,-3 V 7.9966216 H 17.006757 15 V 9 10.003378 h 2.006757 2.006757 z m 0,-3 V 4.9966216 H 17.006757 15 V 6 7.0033784 h 2.006757 2.006757 z"
     id="path3" />
  <path
     style="fill:#ffffff;stroke:#cccccc;stroke-width:0.0202703"
     d="M 6.4994479,18.737609 C 5.1408674,18.057531 4.0325904,17.498054 4.0366102,17.494325 c 0.00402,-0.0037 1.122427,-0.564204 2.4853493,-1.245501 L 9,15.010102 v 2.483125 c 0,1.365718 -0.00684,2.482621 -0.015203,2.482006 -0.00836,-6.16e-4 -1.1267686,-0.557546 -2.4853491,-1.237624 z"
     id="path4" />
</svg>
