<?xml version="1.0" encoding="UTF-8" standalone="no"?>
<svg
   viewBox="0 0 24 24"
   width="24"
   height="24"
   version="1.1"
   id="svg2"
   sodipodi:docname="edit-table-insert-row-above.svg"
   inkscape:version="1.3.2 (091e20ef0f, 2023-11-25, custom)"
   xmlns:inkscape="http://www.inkscape.org/namespaces/inkscape"
   xmlns:sodipodi="http://sodipodi.sourceforge.net/DTD/sodipodi-0.dtd"
   xmlns="http://www.w3.org/2000/svg"
   xmlns:svg="http://www.w3.org/2000/svg">
  <sodipodi:namedview
     id="namedview2"
     pagecolor="#505050"
     bordercolor="#ffffff"
     borderopacity="1"
     inkscape:showpageshadow="0"
     inkscape:pageopacity="0"
     inkscape:pagecheckerboard="1"
     inkscape:deskcolor="#d1d1d1"
     inkscape:zoom="49.333333"
     inkscape:cx="11.989865"
     inkscape:cy="12"
     inkscape:window-width="2560"
     inkscape:window-height="1388"
     inkscape:window-x="2560"
     inkscape:window-y="28"
     inkscape:window-maximized="1"
     inkscape:current-layer="svg2" />
  <defs
     id="defs3051">
    <style
       type="text/css"
       id="current-color-scheme">.ColorScheme-Text{color:#232629;}.ColorScheme-Highlight { color: #3daee9; } </style>
  </defs>
  <g
     transform="translate(1,1)"
     id="g2">
    <path
       style="fill:currentColor;fill-opacity:1;stroke:none"
       d="M 3 3 L 3 9 L 3 19 L 4 19 L 19 19 L 19 18 L 19 9 L 18 9 L 18 13 L 16 13 L 16 9 L 15 9 L 15 13 L 13 13 L 13 9 L 13 3 L 12 3 L 12 9 L 12 13 L 10 13 L 10 9 L 9 9 L 9 13 L 7 13 L 7 9 L 6 9 L 6 13 L 5 13 L 4 13 L 4 9 L 4 3 L 3 3 z M 16.5 3 L 14 8 L 19 8 L 16.5 3 z M 4 14 L 5 14 L 6 14 L 6 15 L 6 18 L 4 18 L 4 14 z M 7 14 L 9 14 L 9 18 L 7 18 L 7 15 L 7 14 z M 10 14 L 12 14 L 12 18 L 10 18 L 10 14 z M 13 14 L 15 14 L 15 15 L 15 18 L 13 18 L 13 14 z M 16 14 L 17.099609 14 L 18 14 L 18 18 L 16 18 L 16 15 L 16 14 z "
       class="ColorScheme-Text"
       id="path1" />
    <path
       style="fill:currentColor;fill-opacity:1;stroke:none"
       d="M 3 3 L 3 9 L 4 9 L 9.2929688 9 L 12 9 L 13 9 L 13 3 L 12 3 L 4 3 L 3 3 z M 4 4 L 4.2929688 4 L 8.2929688 8 L 4 8 L 4 4 z M 5.7070312 4 L 8.2929688 4 L 12 7.7070312 L 12 8 L 9.7070312 8 L 5.7070312 4 z M 9.7070312 4 L 12 4 L 12 6.2929688 L 9.7070312 4 z "
       class="ColorScheme-Highlight"
       id="path2" />
  </g>
  <path
     style="fill:#ffffff;stroke:#cccccc;stroke-width:0.0202703"
     d="M 4.0135135,15 V 10.003378 H 4.5 4.9864865 v 2.006757 2.006757 H 6 7.0135135 V 12.010135 10.003378 H 7.5 7.9864865 v 2.006757 2.006757 H 9 10.013514 V 12.010135 10.003378 H 10.5 10.986486 v 2.006757 2.006757 H 12 13.013514 V 12.010135 10.003378 H 13.5 13.986486 v 2.006757 2.006757 H 15 16.013514 V 12.010135 10.003378 H 16.5 16.986486 v 2.006757 2.006757 H 18 19.013514 V 12.010135 10.003378 H 19.5 19.986486 V 15 19.996622 H 12 4.0135135 Z m 3,1.996622 V 14.989865 H 6 4.9864865 v 2.006757 2.006756 H 6 7.0135135 Z m 3.0000005,0 V 14.989865 H 9 7.9864865 v 2.006757 2.006756 H 9 10.013514 Z m 3,0 V 14.989865 H 12 10.986486 v 2.006757 2.006756 H 12 13.013514 Z m 3,0 V 14.989865 H 15 13.986486 v 2.006757 2.006756 H 15 16.013514 Z m 3,0 V 14.989865 H 18 16.986486 v 2.006757 2.006756 H 18 19.013514 Z"
     id="path3" />
  <path
     style="fill:#ffffff;stroke:#cccccc;stroke-width:0.0202703"
     d="m 16.258959,6.5118243 c 0.681298,-1.3629223 1.240269,-2.4798257 1.24216,-2.4820077 0.0019,-0.00218 0.561866,1.1129364 1.244391,2.4780406 l 1.240955,2.4820077 h -2.483114 -2.483114 z"
     id="path4" />
</svg>
