<?xml version="1.0" encoding="UTF-8" standalone="no"?>
<svg
   viewBox="0 0 24 24"
   width="24"
   height="24"
   version="1.1"
   id="svg2"
   sodipodi:docname="edit-table-insert-row-under.svg"
   inkscape:version="1.3.2 (091e20ef0f, 2023-11-25, custom)"
   xmlns:inkscape="http://www.inkscape.org/namespaces/inkscape"
   xmlns:sodipodi="http://sodipodi.sourceforge.net/DTD/sodipodi-0.dtd"
   xmlns="http://www.w3.org/2000/svg"
   xmlns:svg="http://www.w3.org/2000/svg">
  <sodipodi:namedview
     id="namedview2"
     pagecolor="#505050"
     bordercolor="#ffffff"
     borderopacity="1"
     inkscape:showpageshadow="0"
     inkscape:pageopacity="0"
     inkscape:pagecheckerboard="1"
     inkscape:deskcolor="#d1d1d1"
     inkscape:zoom="49.333333"
     inkscape:cx="11.989865"
     inkscape:cy="12"
     inkscape:window-width="2560"
     inkscape:window-height="1388"
     inkscape:window-x="2560"
     inkscape:window-y="28"
     inkscape:window-maximized="1"
     inkscape:current-layer="svg2" />
  <defs
     id="defs3051">
    <style
       type="text/css"
       id="current-color-scheme">.ColorScheme-Text{color:#232629;}.ColorScheme-Highlight { color: #3daee9; } </style>
  </defs>
  <g
     transform="translate(1,1)"
     id="g2">
    <path
       style="fill:currentColor;fill-opacity:1;stroke:none"
       d="M 3 3 L 3 8 L 4 8 L 4 4 L 6 4 L 6 7 L 6 8 L 7 8 L 7 7 L 7 4 L 9 4 L 9 8 L 10 8 L 10 4 L 12 4 L 12 8 L 13 8 L 13 4 L 15 4 L 15 7 L 15 8 L 16 8 L 16 7 L 16 4 L 18 4 L 18 8 L 19 8 L 19 4 L 19 3 L 4 3 L 3 3 z M 14 9 L 16.5 14 L 19 9 L 14 9 z M 3 14 L 3 19 L 4 19 L 12 19 L 13 19 L 15 19 L 16 19 L 18 19 L 19 19 L 19 18 L 19 14 L 18 14 L 18 18 L 16 18 L 16 14 L 15 14 L 15 18 L 13 18 L 13 14 L 12 14 L 12 18 L 10 18 L 10 14 L 9 14 L 9 18 L 7 18 L 7 14 L 6 14 L 6 18 L 4 18 L 4 14 L 3 14 z "
       class="ColorScheme-Text"
       id="path1" />
    <path
       style="fill:currentColor;fill-opacity:1;stroke:none"
       class="ColorScheme-Highlight"
       d="M 3,8 3,9 4,9 7.28125,9 4,12.28125 4,12.292969 3.292969,13 3,13 l 0,1 1,0 7,0 2,0 0,-1 -0.28125,0 L 13,12.71875 13,11.28125 11.28125,13 11,13 8.71875,13 11,10.71875 12.71875,9 13,9 13,8 11,8 8.292969,8 4,8 3,8 M 8.71875,9 11,9 11.28125,9 11,9.28125 7.28125,13 l -2.5625,0 4,-4"
       id="path2" />
  </g>
  <path
     style="fill:#ffffff;stroke:#cccccc;stroke-width:0.0202703"
     d="m 16.258153,12.499415 c -0.682086,-1.364137 -1.236568,-2.483837 -1.232182,-2.488223 0.0044,-0.0044 1.121164,-0.0057 2.481728,-0.0028 l 2.473754,0.0051 -1.241571,2.483075 -1.241571,2.483074 z"
     id="path3" />
  <path
     style="fill:#ffffff;stroke:#cccccc;stroke-width:0.0202703"
     d="M 4.0135135,6.4966216 V 4.0033784 H 12 19.986486 V 6.4966216 8.9898649 H 19.5 19.013514 V 6.9932432 4.9966216 H 18 16.986486 V 6.9932432 8.9898649 H 16.5 16.013514 V 6.9932432 4.9966216 H 15 13.986486 V 6.9932432 8.9898649 H 13.5 13.013514 V 6.9932432 4.9966216 H 12 10.986486 V 6.9932432 8.9898649 H 10.5 10.013514 V 6.9932432 4.9966216 H 9 7.9864865 V 6.9932432 8.9898649 H 7.5 7.0135135 V 6.9932432 4.9966216 H 6 4.9864865 V 6.9932432 8.9898649 H 4.5 4.0135135 Z"
     id="path4" />
  <path
     style="fill:#ffffff;stroke:#cccccc;stroke-width:0.0202703"
     d="M 4.0135135,17.503378 V 15.010135 H 4.5 4.9864865 v 1.996622 1.996621 H 6 7.0135135 V 17.006757 15.010135 H 7.5 7.9864865 v 1.996622 1.996621 H 9 10.013514 V 17.006757 15.010135 H 10.5 10.986486 v 1.996622 1.996621 H 12 13.013514 V 17.006757 15.010135 H 13.5 13.986486 v 1.996622 1.996621 H 15 16.013514 V 17.006757 15.010135 H 16.5 16.986486 v 1.996622 1.996621 H 18 19.013514 V 17.006757 15.010135 H 19.5 19.986486 v 2.493243 2.493244 H 12 4.0135135 Z"
     id="path5" />
</svg>
