<?xml version="1.0" encoding="UTF-8" standalone="no"?>
<svg
   viewBox="0 0 24 24"
   width="24"
   height="24"
   version="1.1"
   id="svg3"
   sodipodi:docname="format-text-uppercase.svg"
   inkscape:version="1.3.2 (091e20ef0f, 2023-11-25, custom)"
   xmlns:inkscape="http://www.inkscape.org/namespaces/inkscape"
   xmlns:sodipodi="http://sodipodi.sourceforge.net/DTD/sodipodi-0.dtd"
   xmlns="http://www.w3.org/2000/svg"
   xmlns:svg="http://www.w3.org/2000/svg">
  <sodipodi:namedview
     id="namedview3"
     pagecolor="#505050"
     bordercolor="#ffffff"
     borderopacity="1"
     inkscape:showpageshadow="0"
     inkscape:pageopacity="0"
     inkscape:pagecheckerboard="1"
     inkscape:deskcolor="#d1d1d1"
     inkscape:zoom="30.791667"
     inkscape:cx="11.983762"
     inkscape:cy="11.983762"
     inkscape:window-width="2560"
     inkscape:window-height="1388"
     inkscape:window-x="2560"
     inkscape:window-y="28"
     inkscape:window-maximized="1"
     inkscape:current-layer="svg3" />
  <defs
     id="defs3051">
    <style
       type="text/css"
       id="current-color-scheme">.ColorScheme-Text{color:#232629;}.ColorScheme-Highlight { color: #3daee9; } </style>
  </defs>
  <g
     transform="translate(1,1)"
     id="g3">
    <g
       transform="translate(-421.71429,-525.79074)"
       id="g2">
      <path
         style="fill:currentColor;fill-opacity:1;stroke:none"
         d="M 4.828125 7 L 0.65429688 19 L 1.6621094 19 L 3.1582031 15 L 8.3652344 15 L 9.8554688 19 L 11 19 L 6.7695312 7 L 4.828125 7 z M 12 7 L 12 19 L 13 19 L 18 19 A 3.5 3.5 0 0 0 21.5 15.5 A 3.5 3.5 0 0 0 19.066406 12.169922 A 3 3 0 0 0 20 10 A 3 3 0 0 0 17 7 L 13 7 L 12 7 z M 13 8 L 17 8 A 2 2 0 0 1 19 10 A 2 2 0 0 1 17 12 L 13 12 L 13 8 z M 5.7675781 8.0292969 L 7.9921875 14 L 3.5332031 14 L 5.7675781 8.0292969 z M 13 13 L 18 13 A 2.5 2.5 0 0 1 20.5 15.5 A 2.5 2.5 0 0 1 18 18 L 13 18 L 13 13 z "
         transform="translate(421.71429,525.79074)"
         class="ColorScheme-Text"
         id="path1" />
      <path
         style="fill:currentColor;fill-opacity:1;stroke:none"
         d="m 434.71429,531.79074 3,-4 3,4 z"
         class="ColorScheme-Highlight"
         id="path2" />
    </g>
  </g>
  <path
     style="fill:#ffffff;stroke:#cccccc;stroke-width:0.0324763"
     d="m 1.6894129,19.964817 c 3.543e-4,-0.0134 0.9337785,-2.706089 2.0742759,-5.983762 l 2.0736315,-5.9594041 0.9589162,-0.0086 0.9589166,-0.0086 0.03198,0.089788 c 0.017589,0.049383 0.1345929,0.3820749 0.2600077,0.7393144 0.2833572,0.8071313 1.7338204,4.9204737 2.9202422,8.2814607 0.491808,1.393234 0.920901,2.609879 0.953539,2.703654 l 0.05934,0.170501 -0.558467,-5.08e-4 -0.558467,-5.09e-4 -0.109332,-0.299897 C 10.581945,19.216323 9.5546108,16.457184 9.4603216,16.213802 l -0.084927,-0.219215 -2.6173321,4.26e-4 -2.6173319,4.26e-4 -0.7456409,1.996868 -0.7456409,1.996868 h -0.48034 c -0.2641871,0 -0.4800503,-0.01096 -0.4796959,-0.02436 z m 7.3065276,-4.972356 c 0,-0.01531 -0.1328941,-0.384323 -0.2953199,-0.820027 C 8.5381945,13.736729 8.2911436,13.073342 8.1516179,12.698241 7.5275276,11.020433 6.9706107,9.5262338 6.8773666,9.2794462 6.8215512,9.1317208 6.7662729,9.0221132 6.7545256,9.0358738 6.7427786,9.0496344 6.6877345,9.185115 6.6322058,9.3369418 6.5595741,9.5355312 4.6588376,14.619653 4.5226179,14.979702 c -0.012195,0.03223 0.4469689,0.0406 2.2289819,0.0406 1.2343875,0 2.2443407,-0.01253 2.2443407,-0.02784 z"
     id="path3" />
  <path
     style="fill:#ffffff;stroke:#cccccc;stroke-width:0.0324763"
     d="M 13.023004,13.995738 V 8.0023024 l 2.703654,0.011344 c 2.670289,0.011204 2.707017,0.012233 2.976243,0.083368 1.182049,0.3123215 2.053902,1.2643778 2.245496,2.4520626 0.05272,0.326808 0.02383,0.871649 -0.06401,1.207351 -0.09598,0.366783 -0.32177,0.801929 -0.58882,1.134771 -0.125842,0.156844 -0.224339,0.288497 -0.218883,0.292562 0.0055,0.0041 0.111741,0.04749 0.236189,0.0965 1.0742,0.423064 1.89012,1.424805 2.111637,2.592547 0.06291,0.331647 0.06291,0.918668 0,1.250315 -0.282782,1.490705 -1.507046,2.650605 -2.987432,2.830371 -0.192272,0.02335 -1.339664,0.03552 -3.35318,0.03558 l -3.060893,9.2e-5 z m 6.608931,4.94454 c 0.912863,-0.26693 1.583549,-0.949613 1.80621,-1.838517 0.09935,-0.396621 0.07762,-1.012753 -0.04878,-1.383222 -0.273783,-0.802417 -0.88924,-1.393454 -1.714524,-1.646496 -0.237082,-0.07269 -0.245497,-0.07293 -2.957651,-0.08317 l -2.719891,-0.01027 v 2.5192 2.519199 l 2.719891,-0.0099 c 2.479318,-0.009 2.737127,-0.01491 2.91475,-0.06685 z m -1.211341,-5.968724 c 0.09465,-0.01937 0.306935,-0.0999 0.471734,-0.178968 0.691246,-0.331643 1.111238,-1.011362 1.112605,-1.800648 9.64e-4,-0.556976 -0.189335,-1.0062135 -0.597987,-1.4116655 -0.268847,-0.2667416 -0.481004,-0.3953473 -0.862968,-0.5231169 -0.165055,-0.055212 -0.344476,-0.06052 -2.362652,-0.069892 l -2.184032,-0.010143 v 2.0148234 2.014822 h 2.1256 c 1.39967,0 2.184375,-0.01203 2.2977,-0.03521 z"
     id="path4" />
</svg>
