<?xml version="1.0" encoding="UTF-8" standalone="no"?>
<svg
   viewBox="0 0 24 24"
   width="24"
   height="24"
   version="1.1"
   id="svg2"
   sodipodi:docname="format-precision-more.svg"
   inkscape:version="1.3.2 (091e20ef0f, 2023-11-25, custom)"
   xmlns:inkscape="http://www.inkscape.org/namespaces/inkscape"
   xmlns:sodipodi="http://sodipodi.sourceforge.net/DTD/sodipodi-0.dtd"
   xmlns="http://www.w3.org/2000/svg"
   xmlns:svg="http://www.w3.org/2000/svg">
  <sodipodi:namedview
     id="namedview2"
     pagecolor="#505050"
     bordercolor="#ffffff"
     borderopacity="1"
     inkscape:showpageshadow="0"
     inkscape:pageopacity="0"
     inkscape:pagecheckerboard="1"
     inkscape:deskcolor="#d1d1d1"
     inkscape:zoom="30.791667"
     inkscape:cx="11.983762"
     inkscape:cy="11.983762"
     inkscape:window-width="2560"
     inkscape:window-height="1388"
     inkscape:window-x="2560"
     inkscape:window-y="28"
     inkscape:window-maximized="1"
     inkscape:current-layer="svg2" />
  <defs
     id="defs3051">
    <style
       type="text/css"
       id="current-color-scheme">.ColorScheme-Text{color:#232629;}.ColorScheme-Highlight { color: #3daee9; } </style>
  </defs>
  <g
     transform="translate(1,1)"
     id="g2">
    <path
       style="fill:currentColor;fill-opacity:1;stroke:none"
       d="M 7.5 3 C 5.567 3 4 4.7909 4 7 L 4 8 L 4 10 C 4 12.2091 5.567 14 7.5 14 C 9.433 14 11 12.2091 11 10 L 11 8 L 11 7 C 11 4.7909 9.433 3 7.5 3 z M 15.5 3 C 13.567 3 12 4.7909 12 7 L 12 8 L 12 10 C 12 12.2091 13.567 14 15.5 14 C 17.433 14 19 12.2091 19 10 L 19 8 L 19 7 C 19 4.7909 17.433 3 15.5 3 z M 7.5 4 C 8.88071 4 10 5.3432 10 7 L 10 10 C 10 11.6569 8.88071 13 7.5 13 C 6.11929 13 5 11.6569 5 10 L 5 7 C 5 5.3432 6.11929 4 7.5 4 z M 15.5 4 C 16.88071 4 18 5.3431 18 7 L 18 10 C 18 11.6569 16.88071 13 15.5 13 C 14.11929 13 13 11.6569 13 10 L 13 7 C 13 5.3431 14.11929 4 15.5 4 z M 3 13 L 3 14 L 4 14 L 4 13 L 3 13 z "
       class="ColorScheme-Text"
       id="path1" />
    <path
       style="fill:currentColor;fill-opacity:1;stroke:none"
       d="M 15 15 L 15 17 L 13 17 L 13 18 L 15 18 L 15 20 L 16 20 L 16 18 L 18 18 L 18 17 L 16 17 L 16 15 L 15 15 z "
       class="ColorScheme-Highlight"
       id="path2" />
  </g>
  <path
     style="fill:#ffffff;stroke:#cccccc;stroke-width:0.0324763"
     d="m 4.0270636,14.500677 v -0.487145 h 0.4871448 0.4871448 v 0.487145 0.487144 H 4.5142084 4.0270636 Z"
     id="path3" />
  <path
     style="fill:#ffffff;stroke:#cccccc;stroke-width:0.0324763"
     d="M 7.9891746,14.941796 C 6.5623203,14.684301 5.4552193,13.512311 5.1028813,11.886333 L 5.0184327,11.496617 5.018012,9.5155616 C 5.0176033,7.5906037 5.0196536,7.5243417 5.0904174,7.1755582 5.3564372,5.8643886 6.0757536,4.8672171 7.1285521,4.3501396 7.6335786,4.102098 7.9502206,4.0300828 8.5250338,4.0325318 c 0.5006306,0.00213 0.7474289,0.051113 1.1937379,0.2369121 0.8992843,0.3743728 1.7069433,1.2961793 2.0362413,2.3240265 0.215065,0.6712854 0.212511,0.6363623 0.212511,2.905853 0,1.8582376 -0.0058,2.0895546 -0.05821,2.3382946 -0.328918,1.559924 -1.336672,2.708962 -2.680346,3.05612 -0.3244137,0.08382 -0.9148251,0.106703 -1.2397974,0.04806 z M 8.947226,13.964969 c 0.1250338,-0.02609 0.3608103,-0.113311 0.5239476,-0.193825 0.6687554,-0.330055 1.1819644,-1.000592 1.4301484,-1.868573 l 0.08822,-0.308525 0.01203,-1.932341 c 0.01041,-1.6719839 0.0049,-1.9750594 -0.04082,-2.2493927 C 10.836662,6.6679105 10.534672,6.0900784 10.017095,5.6067188 9.4153955,5.0447974 8.603596,4.8523227 7.8502392,5.092965 6.8680571,5.4067002 6.1480263,6.3921924 6.0079521,7.6144677 c -0.044229,0.3859368 -0.041271,3.4178093 0.00369,3.7847203 0.052816,0.43099 0.1399106,0.734252 0.3163086,1.101377 0.5317422,1.106679 1.5650345,1.68438 2.6192733,1.464404 z"
     id="path4" />
  <path
     style="fill:#ffffff;stroke:#cccccc;stroke-width:0.0324763"
     d="m 16.140731,14.967261 c -0.702619,-0.09017 -1.396086,-0.442246 -1.92797,-0.978855 -0.347574,-0.35066 -0.511422,-0.580393 -0.734861,-1.030355 -0.209156,-0.421198 -0.332118,-0.803496 -0.40707,-1.265608 -0.0693,-0.427237 -0.0693,-3.9590019 0,-4.3862396 0.24594,-1.5163226 1.219858,-2.7380865 2.505965,-3.1436913 1.131043,-0.3567014 2.326416,-0.04026 3.218748,0.8520715 0.540165,0.5401655 0.919414,1.2590519 1.102063,2.0890208 0.0538,0.2444915 0.05909,0.4588726 0.05909,2.395719 0,1.9562846 -0.0049,2.1493786 -0.06062,2.4032476 -0.331148,1.507953 -1.350043,2.655638 -2.651152,2.986264 -0.271035,0.06887 -0.855275,0.110369 -1.104195,0.07843 z m 1.023004,-1.065788 c 0.312722,-0.104772 0.48362,-0.199657 0.763193,-0.423739 0.493112,-0.395236 0.860132,-1.032232 1.010483,-1.753783 0.05551,-0.26642 0.06097,-0.462004 0.06161,-2.2100954 7.69e-4,-2.1024039 -0.0061,-2.1970139 -0.196185,-2.7179694 -0.381249,-1.0446371 -1.20778,-1.7335659 -2.160753,-1.8010244 -1.137732,-0.080537 -2.180518,0.7790998 -2.540697,2.0944613 l -0.08633,0.3152777 -0.01027,1.9853554 c -0.0099,1.9141748 -0.0078,1.9974188 0.05829,2.3218038 0.237211,1.164013 0.999488,2.025335 1.996469,2.255874 0.301091,0.06962 0.785547,0.04059 1.104195,-0.06616 z"
     id="path5" />
</svg>
