<?xml version="1.0" encoding="UTF-8" standalone="no"?>
<svg
   viewBox="0 0 24 24"
   width="24"
   height="24"
   version="1.1"
   id="svg2"
   sodipodi:docname="format-text-lowercase.svg"
   inkscape:version="1.3.2 (091e20ef0f, 2023-11-25, custom)"
   xmlns:inkscape="http://www.inkscape.org/namespaces/inkscape"
   xmlns:sodipodi="http://sodipodi.sourceforge.net/DTD/sodipodi-0.dtd"
   xmlns="http://www.w3.org/2000/svg"
   xmlns:svg="http://www.w3.org/2000/svg">
  <sodipodi:namedview
     id="namedview2"
     pagecolor="#505050"
     bordercolor="#ffffff"
     borderopacity="1"
     inkscape:showpageshadow="0"
     inkscape:pageopacity="0"
     inkscape:pagecheckerboard="1"
     inkscape:deskcolor="#d1d1d1"
     inkscape:zoom="30.791667"
     inkscape:cx="11.983762"
     inkscape:cy="11.983762"
     inkscape:window-width="2560"
     inkscape:window-height="1388"
     inkscape:window-x="2560"
     inkscape:window-y="28"
     inkscape:window-maximized="1"
     inkscape:current-layer="svg2" />
  <defs
     id="defs3051">
    <style
       type="text/css"
       id="current-color-scheme">.ColorScheme-Text{color:#232629;}.ColorScheme-Highlight { color: #3daee9; } </style>
  </defs>
  <g
     transform="translate(1,1)"
     id="g2">
    <path
       style="fill:currentColor;fill-opacity:1;stroke:none"
       d="M 12 7 L 12 15 L 12 19 L 13 19 L 13 17.638672 A 4 4 0 0 0 16 19 A 4 4 0 0 0 20 15 A 4 4 0 0 0 16 11 A 4 4 0 0 0 13 12.361328 L 13 7 L 12 7 z M 6 11 A 4 4 0 0 0 2 15 A 4 4 0 0 0 6 19 A 4 4 0 0 0 9 17.638672 L 9 19 L 10 19 L 10 11 L 9 11 L 9 12.361328 A 4 4 0 0 0 6 11 z M 6 12 A 3 3 0 0 1 9 15 A 3 3 0 0 1 6 18 A 3 3 0 0 1 3 15 A 3 3 0 0 1 6 12 z M 16 12 A 3 3 0 0 1 19 15 A 3 3 0 0 1 16 18 A 3 3 0 0 1 13 15 A 3 3 0 0 1 16 12 z "
       class="ColorScheme-Text"
       id="path1" />
    <path
       style="fill:currentColor;fill-opacity:1;stroke:none"
       d="M 13 3 L 16 7 L 19 3 L 13 3 z "
       class="ColorScheme-Highlight"
       id="path2" />
  </g>
  <path
     style="fill:#ffffff;stroke:#cccccc;stroke-width:0.0324763"
     d="M 6.5157382,19.957015 C 5.6287308,19.844985 4.7955745,19.429456 4.1651852,18.784699 3.8537411,18.466156 3.6746125,18.221403 3.4785923,17.84657 2.7909725,16.53169 2.8780363,15.002014 3.7115429,13.753721 c 0.2041683,-0.30577 0.7472027,-0.848298 1.0462379,-1.045263 0.5254408,-0.346089 1.0677968,-0.554471 1.7184627,-0.660259 0.069918,-0.01137 0.3110543,-0.02031 0.5358592,-0.01988 1.0426328,0.002 1.9767761,0.380908 2.7500714,1.115463 l 0.2405319,0.228482 V 12.686131 12 h 0.487145 0.487145 v 3.994587 3.994588 h -0.487145 -0.487145 v -0.686479 -0.686479 l -0.2760386,0.265009 c -0.5503379,0.528346 -1.2362449,0.88561 -1.9708761,1.026558 -0.3294366,0.06321 -0.9380856,0.08737 -1.2400531,0.04923 z m 0.995421,-0.990513 c 1.153997,-0.20124 2.0656975,-1.025085 2.3965913,-2.165646 0.09969,-0.343624 0.1222185,-1.01879 0.046408,-1.390842 C 9.8328939,14.81489 9.575266,14.33533 9.1420839,13.898381 8.6021726,13.353774 8.0749715,13.098387 7.2948273,13.00353 6.283224,12.880531 5.1629141,13.381306 4.5630438,14.224628 c -0.4139396,0.581933 -0.5933749,1.198931 -0.5596051,1.924233 0.035964,0.772431 0.3098808,1.409091 0.8369144,1.945227 0.7139542,0.726285 1.6866944,1.044029 2.6708061,0.872414 z"
     id="path3" />
  <path
     style="fill:#ffffff;stroke:#cccccc;stroke-width:0.0324763"
     d="M 13.023004,13.997294 V 8.0054127 h 0.487145 0.487145 v 2.6828313 2.682832 l 0.26993,-0.255227 c 0.753213,-0.712184 1.687238,-1.085541 2.720673,-1.087531 0.224805,-4.33e-4 0.465942,0.0085 0.53586,0.01988 1.181894,0.192158 2.162688,0.805513 2.779175,1.737999 0.449284,0.679578 0.63618,1.262162 0.666789,2.078484 0.104575,2.788976 -2.648211,4.818945 -5.27761,3.891833 -0.544889,-0.192125 -1.022088,-0.486976 -1.426888,-0.881644 l -0.267929,-0.261223 v 0.687763 0.687764 h -0.487145 -0.487145 z m 4.725305,4.922144 c 1.03405,-0.269025 1.894731,-1.11667 2.161924,-2.129181 0.08759,-0.33193 0.118227,-0.935377 0.06442,-1.268946 -0.197353,-1.22338 -1.132586,-2.205477 -2.35571,-2.473753 -0.301454,-0.06612 -0.936611,-0.0649 -1.238386,0.0024 -1.202109,0.268012 -2.114564,1.196255 -2.335895,2.376309 -0.07349,0.391833 -0.05085,1.033181 0.04873,1.380243 0.319898,1.114959 1.23212,1.942723 2.383202,2.162555 0.322296,0.06155 0.936547,0.03759 1.271722,-0.04961 z"
     id="path4" />
</svg>
