<?xml version="1.0" encoding="UTF-8" standalone="no"?>
<svg
   viewBox="0 0 24 24"
   width="24"
   height="24"
   version="1.1"
   id="svg2"
   sodipodi:docname="format-segment-curve.svg"
   inkscape:version="1.3.2 (091e20ef0f, 2023-11-25, custom)"
   xmlns:inkscape="http://www.inkscape.org/namespaces/inkscape"
   xmlns:sodipodi="http://sodipodi.sourceforge.net/DTD/sodipodi-0.dtd"
   xmlns="http://www.w3.org/2000/svg"
   xmlns:svg="http://www.w3.org/2000/svg">
  <sodipodi:namedview
     id="namedview2"
     pagecolor="#505050"
     bordercolor="#ffffff"
     borderopacity="1"
     inkscape:showpageshadow="0"
     inkscape:pageopacity="0"
     inkscape:pagecheckerboard="1"
     inkscape:deskcolor="#d1d1d1"
     inkscape:zoom="30.791667"
     inkscape:cx="11.983762"
     inkscape:cy="11.983762"
     inkscape:window-width="2560"
     inkscape:window-height="1388"
     inkscape:window-x="2560"
     inkscape:window-y="28"
     inkscape:window-maximized="1"
     inkscape:current-layer="svg2" />
  <defs
     id="defs3051">
    <style
       type="text/css"
       id="current-color-scheme">.ColorScheme-Text{color:#232629;}.ColorScheme-Highlight { color: #3daee9; } </style>
  </defs>
  <g
     transform="translate(1,1)"
     id="g2">
    <path
       style="fill:currentColor;fill-opacity:1;stroke:none"
       d="m16 3v1 1 1h3v-3h-3m1 1h1v1h-1v-1m-14 12v3h3v-3h-1-1-1m1 1h1v1h-1v-1"
       class="ColorScheme-Text"
       id="path1" />
    <path
       style="fill:currentColor;fill-opacity:1;stroke:none"
       d="M16 4A12 12 0 0 0 4 16H5A11 11 0 0 1 16 5V4"
       class="ColorScheme-Highlight"
       id="path2" />
  </g>
  <path
     style="fill:#ffffff;stroke:#cccccc;stroke-width:0.0324763"
     d="m 4.0270636,18.495264 v -1.493911 h 1.4776725 1.4776726 v 1.493911 1.493911 H 5.5047361 4.0270636 Z m 1.9810555,0 V 17.975643 H 5.5047361 5.0013532 v 0.519621 0.519621 h 0.5033829 0.503383 z"
     id="path3" />
  <path
     style="fill:#ffffff;stroke:#cccccc;stroke-width:0.0324763"
     d="M 17.017591,5.5047361 V 4.0108254 h 1.477673 1.477672 v 1.4939107 1.4939107 h -1.477672 -1.477673 z m 1.981056,0 V 4.985115 h -0.503383 -0.503383 v 0.5196211 0.5196211 h 0.503383 0.503383 z"
     id="path4" />
</svg>
