<?xml version="1.0" encoding="UTF-8" standalone="no"?>
<svg
   viewBox="0 0 24 24"
   width="24"
   height="24"
   version="1.1"
   id="svg2"
   sodipodi:docname="gnumeric-link-external.svg"
   inkscape:version="1.3.2 (091e20ef0f, 2023-11-25, custom)"
   xmlns:inkscape="http://www.inkscape.org/namespaces/inkscape"
   xmlns:sodipodi="http://sodipodi.sourceforge.net/DTD/sodipodi-0.dtd"
   xmlns="http://www.w3.org/2000/svg"
   xmlns:svg="http://www.w3.org/2000/svg">
  <sodipodi:namedview
     id="namedview2"
     pagecolor="#505050"
     bordercolor="#ffffff"
     borderopacity="1"
     inkscape:showpageshadow="0"
     inkscape:pageopacity="0"
     inkscape:pagecheckerboard="1"
     inkscape:deskcolor="#d1d1d1"
     inkscape:zoom="49.333333"
     inkscape:cx="11.989865"
     inkscape:cy="12"
     inkscape:window-width="2560"
     inkscape:window-height="1388"
     inkscape:window-x="2560"
     inkscape:window-y="28"
     inkscape:window-maximized="1"
     inkscape:current-layer="svg2" />
  <defs
     id="defs3051">
    <style
       type="text/css"
       id="current-color-scheme">.ColorScheme-Text{color:#232629;}.ColorScheme-Highlight { color: #3daee9; } </style>
  </defs>
  <g
     transform="translate(1,1)"
     id="g2">
    <path
       style="fill:currentColor;fill-opacity:1;stroke:none"
       d="M 6 5 L 6 7 L 3 7 L 3 8 L 6 8 L 6 10 L 10 10 L 10 9 L 7 9 L 7 6 L 10 6 L 10 5 L 6 5 z M 12 5 L 12 6 L 15 6 L 15 9 L 12 9 L 12 10 L 16 10 L 16 8 L 19 8 L 19 7 L 16 7 L 16 5 L 12 5 z M 10 7 L 10 8 L 12 8 L 12 7 L 10 7 z "
       class="ColorScheme-Text"
       id="path1" />
    <path
       style="fill:currentColor;fill-opacity:1;stroke:none"
       d="M 16 14 L 16 16 L 14 16 L 14 17 L 16 17 L 16 19 L 17 19 L 17 17 L 19 17 L 19 16 L 17 16 L 17 14 L 16 14 z "
       class="ColorScheme-Highlight"
       id="path2" />
  </g>
  <path
     style="fill:#ffffff;stroke:#cccccc;stroke-width:0.0202703"
     d="M 11.006757,8.5033784 V 8.0168919 H 12 12.993243 V 8.5033784 8.9898649 H 12 11.006757 Z"
     id="path3" />
  <path
     style="fill:#ffffff;stroke:#cccccc;stroke-width:0.0202703"
     d="M 7.0135135,9.9932432 V 8.9898649 h -1.5 -1.5 V 8.5033784 8.0168919 h 1.5 1.5 V 7.0135135 6.0101351 H 9 10.986486 v 0.4864865 0.4864865 h -1.4999995 -1.5 v 1.5101351 1.5101348 h 1.5 1.4999995 V 10.5 10.996622 H 9 7.0135135 Z"
     id="path4" />
  <path
     style="fill:#ffffff;stroke:#cccccc;stroke-width:0.0202703"
     d="m 13.013514,10.5 v -0.496622 h 1.5 1.5 V 8.4932432 6.9831081 h -1.5 -1.5 V 6.4966216 6.0101351 H 15 16.986486 v 1.0033784 1.0033784 h 1.5 1.5 v 0.4864865 0.4864865 h -1.5 -1.5 V 9.9932432 10.996622 H 15 13.013514 Z"
     id="path5" />
</svg>
