<?xml version="1.0" encoding="UTF-8" standalone="no"?>
<svg
   height="24"
   width="24"
   viewBox="0 0 24 24"
   version="1.1"
   id="svg2"
   sodipodi:docname="input-mouse-click-left.svg"
   inkscape:version="1.3.2 (091e20ef0f, 2023-11-25, custom)"
   xmlns:inkscape="http://www.inkscape.org/namespaces/inkscape"
   xmlns:sodipodi="http://sodipodi.sourceforge.net/DTD/sodipodi-0.dtd"
   xmlns="http://www.w3.org/2000/svg"
   xmlns:svg="http://www.w3.org/2000/svg">
  <defs
     id="defs2" />
  <sodipodi:namedview
     id="namedview2"
     pagecolor="#505050"
     bordercolor="#ffffff"
     borderopacity="1"
     inkscape:showpageshadow="0"
     inkscape:pageopacity="0"
     inkscape:pagecheckerboard="1"
     inkscape:deskcolor="#d1d1d1"
     inkscape:zoom="49.333333"
     inkscape:cx="11.989865"
     inkscape:cy="12"
     inkscape:window-width="2560"
     inkscape:window-height="1388"
     inkscape:window-x="2560"
     inkscape:window-y="28"
     inkscape:window-maximized="1"
     inkscape:current-layer="svg2" />
  <style
     type="text/css"
     id="current-color-scheme">.ColorScheme-Text{color:#232629;}.ColorScheme-Highlight { color: #3daee9; } </style>
  <g
     transform="translate(1,1)"
     id="g2">
    <path
       d="M10 3a5 5 0 0 0-5 5v6a5 5 0 0 0 5 5h2a5 5 0 0 0 5-5V8a5 5 0 0 0-5-5zm0 1h2a4 4 0 0 1 4 4v6a4 4 0 0 1-4 4h-2a4 4 0 0 1-4-4V8a4 4 0 0 1 4-4zm0 1v5h2V5z"
       fill="currentColor"
       class="ColorScheme-Text"
       id="path1" />
    <path
       d="M10 4a4 4 0 0 0-4 4v3h4z"
       fill="currentColor"
       class="ColorScheme-Highlight"
       id="path2" />
  </g>
  <path
     style="fill:#ffffff;stroke:#cccccc;stroke-width:0.0202703"
     d="M 11.006757,8.5033784 V 6.0101351 H 12 12.993243 V 8.5033784 10.996622 H 12 11.006757 Z"
     id="path3" />
  <path
     style="fill:#ffffff;stroke:#cccccc;stroke-width:0.0202703"
     d="M 10.611486,19.975884 C 9.4519113,19.880345 8.3866131,19.400679 7.5556837,18.599965 6.7110477,17.786042 6.2262649,16.833958 6.0477704,15.638514 6.016154,15.426767 6.0125483,15.109134 6.0084228,12.172297 6.0059249,10.394088 6.0116169,8.8229282 6.0210717,8.6808316 6.0874307,7.6835205 6.4322471,6.7736479 7.059773,5.9399931 7.227496,5.7171767 7.751144,5.2002725 7.9906644,5.0210902 8.6688943,4.5137148 9.4265443,4.1951609 10.272664,4.0616235 c 0.256776,-0.040525 0.372166,-0.044567 1.51066,-0.052918 1.301252,-0.00954 1.646132,0.00309 2.072651,0.075918 0.971606,0.1659066 1.877371,0.6264084 2.590999,1.3172955 0.867856,0.8401997 1.364995,1.8436872 1.516415,3.0609193 0.02081,0.1673311 0.02648,0.9236115 0.02648,3.5371617 0,3.55094 0.0019,3.476957 -0.101807,3.993243 -0.198539,0.988531 -0.684047,1.871947 -1.420795,2.585239 -0.772509,0.747915 -1.657085,1.185214 -2.754425,1.361678 -0.244966,0.03939 -0.356254,0.04273 -1.581081,0.0474 -0.724662,0.0028 -1.408784,-0.0025 -1.520271,-0.01168 z m 2.966264,-1.012462 c 0.848747,-0.124869 1.588253,-0.487568 2.209121,-1.08349 0.665116,-0.638392 1.094659,-1.517489 1.199195,-2.454256 0.02836,-0.254143 0.0279,-6.5627574 -4.96e-4,-6.8441365 -0.187724,-1.8599791 -1.666556,-3.3503164 -3.536246,-3.5637589 -0.105915,-0.012091 -0.719739,-0.020896 -1.463488,-0.020993 -1.379547,-1.791e-4 -1.52497,0.00804 -1.941917,0.109771 C 8.7843225,5.413884 7.7490763,6.3184029 7.2697616,7.5304051 7.1770246,7.7649021 7.1041834,8.0223386 7.0403452,8.3412159 c -0.031443,0.1570602 -0.035155,0.4662858 -0.04198,3.4966221 -0.00796,3.534714 -0.00678,3.587624 0.089379,4.023648 0.081344,0.368828 0.1653606,0.605617 0.3341587,0.941776 0.5976919,1.190295 1.7551542,2.005724 3.0901911,2.177032 0.07696,0.0099 0.737399,0.01907 1.467636,0.02043 1.221537,0.0023 1.349317,-7.09e-4 1.59802,-0.0373 z"
     id="path4" />
</svg>
