<?xml version="1.0" encoding="UTF-8" standalone="no"?>
<svg
   viewBox="0 0 24 24"
   width="24"
   height="24"
   version="1.1"
   id="svg2"
   sodipodi:docname="network-disconnect.svg"
   inkscape:version="1.3.2 (091e20ef0f, 2023-11-25, custom)"
   xmlns:inkscape="http://www.inkscape.org/namespaces/inkscape"
   xmlns:sodipodi="http://sodipodi.sourceforge.net/DTD/sodipodi-0.dtd"
   xmlns="http://www.w3.org/2000/svg"
   xmlns:svg="http://www.w3.org/2000/svg">
  <sodipodi:namedview
     id="namedview2"
     pagecolor="#505050"
     bordercolor="#ffffff"
     borderopacity="1"
     inkscape:showpageshadow="0"
     inkscape:pageopacity="0"
     inkscape:pagecheckerboard="1"
     inkscape:deskcolor="#d1d1d1"
     inkscape:zoom="30.791667"
     inkscape:cx="11.983762"
     inkscape:cy="11.983762"
     inkscape:window-width="2560"
     inkscape:window-height="1388"
     inkscape:window-x="2560"
     inkscape:window-y="28"
     inkscape:window-maximized="1"
     inkscape:current-layer="svg2" />
  <defs
     id="defs3051">
    <style
       type="text/css"
       id="current-color-scheme">.ColorScheme-Text{color:#232629;}.ColorScheme-NegativeText { color: #da4453; } </style>
  </defs>
  <g
     transform="translate(1,1)"
     id="g2">
    <path
       style="fill:currentColor;fill-opacity:1;stroke:none"
       d="M 18.292969 3 L 14.792969 6.5 L 13.292969 5 L 11.292969 7 L 9.5 8.7929688 L 11 10.292969 L 11.707031 11 L 13.207031 12.5 L 15 10.707031 L 17 8.7070312 L 15.5 7.2070312 L 19 3.7070312 L 18.292969 3 z M 8.7929688 9.5 L 8 10.292969 L 6 12.292969 L 7.5 13.792969 L 3 18.292969 L 3.7070312 19 L 8.2070312 14.5 L 9.7070312 16 L 11.707031 14 L 12.5 13.207031 L 11 11.707031 L 10.292969 11 L 8.7929688 9.5 z "
       class="ColorScheme-Text"
       id="path1" />
    <path
       style="fill:currentColor;fill-opacity:1;stroke:none"
       d="M 14.833984 14 L 14 14.833984 L 15.666016 16.5 L 14 18.166016 L 14.833984 19 L 16.5 17.333984 L 18.166016 19 L 19 18.166016 L 17.333984 16.5 L 19 14.833984 L 18.166016 14 L 16.5 15.666016 L 14.833984 14 z "
       class="ColorScheme-NegativeText"
       id="path2" />
  </g>
  <path
     style="fill:#ffffff;stroke:#cccccc;stroke-width:0.0324763"
     d="M 4.3596923,19.623959 4.0269526,19.291219 6.275817,17.04218 8.5246815,14.793141 7.7780583,14.045988 7.0314355,13.298835 l 1.380165,-1.380165 1.380165,-1.380165 1.8347095,1.834925 1.834708,1.834924 -1.379919,1.380206 -1.37992,1.380206 -0.7473245,-0.746817 -0.7473249,-0.746817 -2.2406068,2.240783 c -1.2323338,1.232431 -2.2480428,2.240783 -2.2571313,2.240783 -0.00909,0 -0.1662573,-0.149733 -0.3492642,-0.332739 z"
     id="path3" />
  <path
     style="fill:#ffffff;stroke:#cccccc;stroke-width:0.0324763"
     d="m 12.365359,11.650501 c -0.995806,-0.995903 -1.810555,-1.8252693 -1.810555,-1.8430361 0,-0.017766 0.844061,-0.8762699 1.875692,-1.9077857 l 1.875692,-1.8754827 0.746582,0.7471123 0.746583,0.7471121 1.745556,-1.7453317 1.745556,-1.7453318 0.34147,0.340308 0.341471,0.3403081 -1.745648,1.7458725 -1.745648,1.7458726 0.746581,0.7471113 0.746582,0.7471112 -1.883337,1.8835469 c -1.035835,1.03595 -1.890691,1.883501 -1.89968,1.883446 -0.009,-5.6e-5 -0.831092,-0.814931 -1.826897,-1.810833 z"
     id="path4" />
</svg>
