<?xml version="1.0" encoding="UTF-8" standalone="no"?>
<svg
   width="24"
   height="24"
   viewBox="0 0 24 24"
   version="1.1"
   id="svg1"
   sodipodi:docname="notifications-disabled.svg"
   inkscape:version="1.3.2 (091e20ef0f, 2023-11-25, custom)"
   xmlns:inkscape="http://www.inkscape.org/namespaces/inkscape"
   xmlns:sodipodi="http://sodipodi.sourceforge.net/DTD/sodipodi-0.dtd"
   xmlns="http://www.w3.org/2000/svg"
   xmlns:svg="http://www.w3.org/2000/svg">
  <defs
     id="defs1" />
  <sodipodi:namedview
     id="namedview1"
     pagecolor="#505050"
     bordercolor="#ffffff"
     borderopacity="1"
     inkscape:showpageshadow="0"
     inkscape:pageopacity="0"
     inkscape:pagecheckerboard="1"
     inkscape:deskcolor="#d1d1d1"
     inkscape:zoom="49.333333"
     inkscape:cx="11.989865"
     inkscape:cy="12"
     inkscape:window-width="2560"
     inkscape:window-height="1388"
     inkscape:window-x="2560"
     inkscape:window-y="28"
     inkscape:window-maximized="1"
     inkscape:current-layer="svg1" />
  <style
     type="text/css"
     id="current-color-scheme">.ColorScheme-Text{color:#232629;}.ColorScheme-NegativeText { color: #da4453; } </style>
  <g
     transform="translate(1,1)"
     id="g1">
    <path
       id="strikethrough"
       d="m4 4.707031 15.292969 15.292969.707031-.707031-15.2929688-15.292969z"
       fill="#da4453" />
    <path
       d="m12 4a1 1 0 0 0-1 1 1 1 0 0 0 0.009766 0.128906 3.9999999 3.9999999 0 0 0-2.2402348 1.519532l0.7167969 0.716796a3 3 0 0 1 2.5136719-1.365234 3 3 0 0 1 3 3c0 3 0.585938 4 2.585938 6h-0.464844l1 1h0.878906v-1c-2-2-3-3-3-6a3.9999999 3.9999999 0 0 0-3.009766-3.871094 1 1 0 0 0 0.009766-0.128906 1 1 0 0 0-1-1zm-4.0527344 6.068359c-0.2253625 2.204726-1.2061347 3.19051-2.9472656 4.931641v1h8.878906l-1-1h-6.4648435c1.4796441-1.479644 2.1821771-2.415859 2.4492187-4.015625zm2.3222656 6.931641a2 2 0 0 0-0.2695312 1 2 2 0 0 0 2 2 2 2 0 0 0 2-2 2 2 0 0 0-0.271484-1z"
       class="ColorScheme-Text"
       fill="currentColor"
       fill-rule="evenodd"
       id="path1" />
  </g>
  <path
     style="opacity:1;fill:#ffffff;stroke:#cccccc;stroke-width:0.0202703"
     d="m 18.629081,16.500703 -0.495608,-0.495918 0.227555,-0.0058 0.227555,-0.0058 -0.36017,-0.375357 C 17.379436,14.733109 16.95682,14.179519 16.63315,13.52823 16.214047,12.684911 16.055388,11.866033 16.013041,10.327703 16.000678,9.8785958 15.983701,9.5903039 15.962907,9.4763514 15.606472,7.5230751 13.513915,6.4401555 11.71782,7.2794751 c -0.404333,0.188946 -0.836977,0.5379756 -1.098627,0.8863031 -0.06829,0.090917 -0.129967,0.1676084 -0.137052,0.1704264 -0.0071,0.00282 -0.167219,-0.149414 -0.355853,-0.3382934 L 9.783317,7.6544945 9.842672,7.5685468 C 9.9348783,7.4350293 10.307106,7.0551945 10.488434,6.9095877 10.891981,6.585539 11.275433,6.3778356 11.777027,6.2115994 l 0.233108,-0.077256 0.0051,-0.158343 c 0.01741,-0.5421211 0.442735,-0.9597055 0.976634,-0.9588682 0.270646,4.244e-4 0.481645,0.081723 0.673787,0.2596128 0.20119,0.1862664 0.298869,0.3946408 0.318577,0.6796093 l 0.0124,0.1793276 0.243243,0.079661 c 1.196087,0.3917148 2.144974,1.3340749 2.541007,2.5235293 0.155103,0.4658396 0.195845,0.7514357 0.215091,1.5077488 0.05033,1.977931 0.486445,3.080896 1.78331,4.510135 0.111277,0.122635 0.428423,0.451548 0.704768,0.730918 l 0.502445,0.507944 v 0.500501 0.500502 H 19.555588 19.12469 Z"
     id="path2" />
  <path
     style="opacity:1;fill:#ffffff;stroke:#cccccc;stroke-width:0.0202703"
     d="M 6,16.506926 V 16.01723 l 0.4714942,-0.47821 c 0.8673111,-0.879664 1.3086144,-1.397834 1.6502282,-1.937669 0.4057502,-0.641185 0.6597134,-1.334943 0.7775877,-2.124156 0.023659,-0.158403 0.047452,-0.310152 0.052874,-0.337219 0.00884,-0.04411 0.056026,-0.0032 0.4554321,0.395271 0.4399723,0.438895 0.4454199,0.445375 0.4333066,0.515429 -0.1754734,1.014811 -0.6027655,1.893229 -1.3557689,2.787162 -0.1735981,0.206088 -0.6676386,0.73984 -0.8720693,0.942167 -0.1067908,0.105692 -0.1941652,0.199189 -0.1941652,0.20777 0,0.0086 1.452688,0.0156 3.2281956,0.0156 H 13.87531 L 14.371622,16.5 14.867933,16.996622 H 10.433967 6 Z"
     id="path3" />
  <path
     style="opacity:1;fill:#ffffff;stroke:#cccccc;stroke-width:0.0202703"
     d="m 12.645591,20.959531 c -0.780688,-0.148179 -1.390196,-0.728262 -1.582192,-1.50581 -0.03301,-0.133697 -0.04382,-0.240817 -0.04443,-0.440207 -10e-4,-0.345953 0.04169,-0.546753 0.182274,-0.856419 l 0.06672,-0.14696 h 1.73144 1.731441 l 0.07153,0.157095 c 0.241886,0.53121 0.244043,1.144018 0.0058,1.659573 -0.20241,0.43809 -0.61121,0.832173 -1.049754,1.011962 -0.320369,0.131342 -0.789144,0.182212 -1.112875,0.120766 z"
     id="path4" />
</svg>
