<?xml version="1.0" encoding="UTF-8" standalone="no"?>
<svg
   width="24"
   height="24"
   viewBox="0 0 24 24"
   version="1.1"
   id="svg1"
   sodipodi:docname="notification-progress-inactive.svg"
   inkscape:version="1.3.2 (091e20ef0f, 2023-11-25, custom)"
   xmlns:inkscape="http://www.inkscape.org/namespaces/inkscape"
   xmlns:sodipodi="http://sodipodi.sourceforge.net/DTD/sodipodi-0.dtd"
   xmlns="http://www.w3.org/2000/svg"
   xmlns:svg="http://www.w3.org/2000/svg">
  <defs
     id="defs1" />
  <sodipodi:namedview
     id="namedview1"
     pagecolor="#505050"
     bordercolor="#ffffff"
     borderopacity="1"
     inkscape:showpageshadow="0"
     inkscape:pageopacity="0"
     inkscape:pagecheckerboard="1"
     inkscape:deskcolor="#d1d1d1"
     inkscape:zoom="49.333333"
     inkscape:cx="11.989865"
     inkscape:cy="12"
     inkscape:window-width="2560"
     inkscape:window-height="1388"
     inkscape:window-x="2560"
     inkscape:window-y="28"
     inkscape:window-maximized="1"
     inkscape:current-layer="svg1" />
  <style
     type="text/css"
     id="current-color-scheme">.ColorScheme-Text{color:#232629;}.ColorScheme-ButtonFocus{color:#3daee9;}.ColorScheme-NegativeText { color: #da4453; } </style>
  <g
     transform="translate(1,1)"
     id="g1">
    <g
       id="notification-progress-inactive"
       transform="translate(39 39) translate(-40,-40)">
      <path
         id="path10"
         d="m1 1h22v22h-22z"
         fill="none" />
      <circle
         id="circle-transparent"
         cx="12"
         cy="12"
         r="8"
         class="ColorScheme-Text"
         fill="currentColor"
         opacity=".4" />
    </g>
  </g>
  <path
     style="fill:#ffffff;stroke:#cccccc;stroke-width:0.0202703;opacity:0.3"
     d="M 11.495194,19.974695 C 9.9409196,19.87589 8.4290035,19.315446 7.1865918,18.377563 6.6230357,17.95214 6.0213343,17.349608 5.613722,16.80252 4.1000976,14.770969 3.627491,12.188096 4.327399,9.7725521 4.743737,8.3356737 5.5558886,7.0475623 6.6821147,6.0378598 7.9190254,4.9289243 9.4438717,4.2526402 11.158784,4.0524135 c 0.415352,-0.048495 1.261024,-0.048669 1.682432,-3.466e-4 1.421233,0.1629717 2.716223,0.6599291 3.84078,1.4739144 0.74615,0.5400838 1.448877,1.2661095 1.9401,2.0044241 1.097619,1.6497332 1.549149,3.5541976 1.302395,5.4932436 -0.161097,1.265942 -0.660795,2.545759 -1.40481,3.597973 -0.630751,0.892031 -1.527537,1.715859 -2.465627,2.265036 -1.379411,0.807536 -2.976247,1.188643 -4.55886,1.088037 z"
     id="path1" />
</svg>
