<?xml version="1.0" encoding="UTF-8" standalone="no"?>
<svg
   viewBox="0 0 22 22"
   version="1.1"
   id="svg2"
   sodipodi:docname="audio-on.svg"
   inkscape:version="1.3.2 (091e20ef0f, 2023-11-25, custom)"
   xmlns:inkscape="http://www.inkscape.org/namespaces/inkscape"
   xmlns:sodipodi="http://sodipodi.sourceforge.net/DTD/sodipodi-0.dtd"
   xmlns="http://www.w3.org/2000/svg"
   xmlns:svg="http://www.w3.org/2000/svg">
  <defs
     id="defs2" />
  <sodipodi:namedview
     id="namedview2"
     pagecolor="#505050"
     bordercolor="#ffffff"
     borderopacity="1"
     inkscape:showpageshadow="0"
     inkscape:pageopacity="0"
     inkscape:pagecheckerboard="1"
     inkscape:deskcolor="#d1d1d1"
     inkscape:zoom="53.818182"
     inkscape:cx="10.990709"
     inkscape:cy="11"
     inkscape:window-width="2560"
     inkscape:window-height="1388"
     inkscape:window-x="2560"
     inkscape:window-y="28"
     inkscape:window-maximized="1"
     inkscape:current-layer="svg2" />
  <style
     type="text/css"
     id="current-color-scheme">.ColorScheme-Text{color:#232629;}.ColorScheme-PositiveText { color: #27ae60; } </style>
  <path
     d="m10.988281 3-4.988281 4.9902344v.0097656 1 4 1 .009766l4.988281 4.990234h1.011719v-.402344-15.1953122-.4023438zm-7.988281 5v1 4 1h2v-1-4-1z"
     style="fill:currentColor;fill-opacity:1;stroke:none"
     class="ColorScheme-Text"
     id="path1" />
  <path
     d="m13.865234 3.5371094-.24414.9765625a7 7 0 0 1 4.378906 6.4863281 7 7 0 0 1 -4.380859 6.478516l.24414.974609a8 8 0 0 0 5.136719-7.453125 8 8 0 0 0 -5.134766-7.4628906zm.458985 3.7441406-.539063.8613281a4 4 0 0 1 1.214844 2.8574219 4 4 0 0 1 -1.210938 2.861328l.539063.863281a5 5 0 0 0 1.671875-3.724609 5 5 0 0 0 -1.675781-3.71875z"
     fill="#27ae60"
     id="path2" />
  <path
     style="opacity:1;fill:#ffffff;stroke:#cccccc;stroke-width:0.0185811"
     d="M 3.0101351,11 V 8.0177365 H 4.004223 4.9983108 V 11 13.982264 H 4.004223 3.0101351 Z"
     id="path3" />
  <path
     style="opacity:1;fill:#ffffff;stroke:#cccccc;stroke-width:0.0185811"
     d="M 8.505464,16.495329 6.0016892,13.991503 V 11 8.0084974 L 8.505464,5.5046709 11.009239,3.0008446 h 0.487779 0.487779 V 11 18.999155 h -0.487779 -0.487779 z"
     id="path4" />
</svg>
