<?xml version="1.0" encoding="UTF-8" standalone="no"?>
<svg
   viewBox="0 0 22 22"
   version="1.1"
   id="svg7"
   sodipodi:docname="audio-off.svg"
   inkscape:version="1.3.2 (091e20ef0f, 2023-11-25, custom)"
   xmlns:inkscape="http://www.inkscape.org/namespaces/inkscape"
   xmlns:sodipodi="http://sodipodi.sourceforge.net/DTD/sodipodi-0.dtd"
   xmlns="http://www.w3.org/2000/svg"
   xmlns:svg="http://www.w3.org/2000/svg">
  <defs
     id="defs7" />
  <sodipodi:namedview
     id="namedview7"
     pagecolor="#505050"
     bordercolor="#ffffff"
     borderopacity="1"
     inkscape:showpageshadow="0"
     inkscape:pageopacity="0"
     inkscape:pagecheckerboard="1"
     inkscape:deskcolor="#d1d1d1"
     inkscape:zoom="53.818182"
     inkscape:cx="10.990709"
     inkscape:cy="11"
     inkscape:window-width="2560"
     inkscape:window-height="1388"
     inkscape:window-x="2560"
     inkscape:window-y="28"
     inkscape:window-maximized="1"
     inkscape:current-layer="svg7" />
  <style
     id="current-color-scheme"
     type="text/css">.ColorScheme-Text{color:#232629;}.ColorScheme-NegativeText { color: #da4453; } </style>
  <g
     class="ColorScheme-Text"
     fill="currentColor"
     id="g7">
    <path
       d="m3 8v6h2v-6z"
       id="path1" />
    <path
       d="m6 8v6l5 5h1v-5z"
       id="path2" />
    <path
       d="m11 3-3 3 4 4v-7z"
       id="path3" />
    <g
       opacity=".35"
       id="g6">
      <path
         d="m14.832031 16.832031a7 7 0 0 1 -1.21289.646485l.24414.974609a8 8 0 0 0 1.681641-.908203z"
         id="path4" />
      <path
         d="m14.324219 7.28125-.539063.8613281a4 4 0 0 1 1.214844 2.8574219 4 4 0 0 1 -.371094 1.628906l.75.75a5 5 0 0 0 .621094-2.378906 5 5 0 0 0 -1.675781-3.71875z"
         id="path5" />
      <path
         d="m13.865234 3.5371094-.24414.9765625a7 7 0 0 1 4.378906 6.4863281 7 7 0 0 1 -1.166016 3.833984l.716797.716797a8 8 0 0 0 1.449219-4.550781 8 8 0 0 0 -5.134766-7.4628906z"
         id="path6" />
    </g>
  </g>
  <path
     d="m-.50000006 4.7426407 1-.0000001v21.6274174h-1z"
     class="ColorScheme-NegativeText"
     fill="currentColor"
     transform="matrix(.70710678 -.70710678 .70710678 .70710678 0 0)"
     id="path7" />
  <path
     style="fill:#ffffff;stroke:#cccccc;stroke-width:0.0185811"
     d="M 9.9919384,7.9851819 8.0084353,6.0016137 9.5089057,4.5012292 11.009376,3.0008446 h 0.487711 0.48771 v 3.4839527 c 0,1.916174 -0.0021,3.4839527 -0.0047,3.4839527 -0.0026,0 -0.897255,-0.8926056 -1.9881816,-1.9835681 z"
     id="path8" />
  <path
     style="fill:#ffffff;stroke:#cccccc;stroke-width:0.0185811"
     d="M 8.505464,16.495329 6.0016892,13.991503 V 10.999996 8.0084892 L 8.9932432,11 11.984797,13.991511 v 2.503822 2.503822 h -0.487779 -0.487779 z"
     id="path9" />
  <path
     style="fill:#ffffff;stroke:#cccccc;stroke-width:0.0185811"
     d="M 3.0101351,11 V 7.9991554 H 4.004223 4.9983108 V 11 14.000845 H 4.004223 3.0101351 Z"
     id="path10" />
  <path
     style="fill:#ffffff;stroke:#cccccc;stroke-width:0.0185811;opacity:0.3"
     d="m 15.00493,12.998174 -0.370586,-0.370934 0.03386,-0.07038 c 0.06132,-0.127459 0.161481,-0.419947 0.21567,-0.62978 0.152023,-0.588672 0.157258,-1.227979 0.01505,-1.837556 C 14.747643,9.4410705 14.39264,8.7757727 13.942682,8.2974643 13.867372,8.2174063 13.80575,8.1457951 13.80575,8.1383277 c 0,-0.013217 0.455568,-0.7462706 0.50609,-0.8143491 0.0234,-0.03153 0.04161,-0.017242 0.239308,0.1878187 0.40157,0.4165142 0.669717,0.7916705 0.906637,1.2684469 0.309513,0.6228635 0.470484,1.2153021 0.522321,1.9223538 0.02505,0.341707 0.007,0.679576 -0.05748,1.074895 -0.07983,0.48951 -0.232058,0.963647 -0.446885,1.391855 l -0.100215,0.199756 z"
     id="path11" />
  <path
     style="opacity:0.3;fill:#ffffff;stroke:#cccccc;stroke-width:0.0185811"
     d="m 17.196537,15.18978 c -0.339403,-0.339756 -0.351448,-0.354341 -0.325873,-0.394599 0.326589,-0.514071 0.583135,-1.045921 0.768564,-1.593323 0.489888,-1.446186 0.48392,-3.036277 -0.01681,-4.4797623 C 17.505233,8.3842957 17.429645,8.2038394 17.277,7.8974768 16.917361,7.1756668 16.525126,6.6305313 15.952244,6.0563044 15.325717,5.4283068 14.62341,4.9433701 13.852196,4.6062402 c -0.112416,-0.049142 -0.207517,-0.09146 -0.211337,-0.094041 -0.01359,-0.00918 0.229474,-0.9539226 0.24543,-0.9539226 0.03471,0 0.479508,0.1955554 0.70915,0.3117774 1.101167,0.5573009 2.088933,1.3859447 2.805533,2.3535815 1.255818,1.6957502 1.799139,3.7869375 1.514455,5.8289765 -0.164187,1.177717 -0.576526,2.277274 -1.230457,3.281177 l -0.136003,0.208788 z"
     id="path12" />
  <path
     style="opacity:0.3;fill:#ffffff;stroke:#cccccc;stroke-width:0.0185811"
     d="m 13.746332,17.9628 -0.11979,-0.478923 0.103537,-0.04446 c 0.232965,-0.100038 0.67043,-0.327815 0.88066,-0.458539 l 0.223985,-0.139276 0.351025,0.351024 0.351024,0.351025 -0.229113,0.1495 c -0.41244,0.269124 -0.770405,0.462296 -1.20275,0.649051 -0.126716,0.05474 -0.232283,0.09952 -0.234591,0.09952 -0.0023,0 -0.0581,-0.215515 -0.123987,-0.478923 z"
     id="path13" />
</svg>
