<?xml version="1.0" encoding="UTF-8" standalone="no"?>
<svg
   height="22"
   width="22"
   version="1.1"
   id="svg3"
   sodipodi:docname="firewall-applet-panic.svg"
   inkscape:version="1.3.2 (091e20ef0f, 2023-11-25, custom)"
   xmlns:inkscape="http://www.inkscape.org/namespaces/inkscape"
   xmlns:sodipodi="http://sodipodi.sourceforge.net/DTD/sodipodi-0.dtd"
   xmlns="http://www.w3.org/2000/svg"
   xmlns:svg="http://www.w3.org/2000/svg">
  <sodipodi:namedview
     id="namedview3"
     pagecolor="#505050"
     bordercolor="#ffffff"
     borderopacity="1"
     inkscape:showpageshadow="0"
     inkscape:pageopacity="0"
     inkscape:pagecheckerboard="1"
     inkscape:deskcolor="#d1d1d1"
     inkscape:zoom="53.818182"
     inkscape:cx="10.990709"
     inkscape:cy="11"
     inkscape:window-width="2560"
     inkscape:window-height="1388"
     inkscape:window-x="2560"
     inkscape:window-y="28"
     inkscape:window-maximized="1"
     inkscape:current-layer="svg3" />
  <defs
     id="defs1">
    <style
       type="text/css"
       id="current-color-scheme">.ColorScheme-Text{color:#232629;}.ColorScheme-NeutralText { color: #f67400; } </style>
  </defs>
  <path
     style="fill:currentColor;fill-opacity:1;stroke:none"
     class="ColorScheme-Text"
     d="M3 3v3h8V3zm9 0v3h7V3zM3 7v3h3V7zm4 0v3h8V7zm9 0v3h3V7zM3 11v3h8v-3zm0 4v3h3v-3zm4 0v3h4v-3z"
     id="path1" />
  <path
     style="fill:currentColor;fill-opacity:1;stroke:none"
     class="ColorScheme-NeutralText"
     d="M13 11c-.554 0-1 .446-1 1v6c0 .554.446 1 1 1h6c.554 0 1-.446 1-1v-6c0-.554-.446-1-1-1z"
     id="path2" />
  <path
     d="M16 12a2 2 0 0 0-2 2l.002 1H13v3h6v-3h-1v-1a2 2 0 0 0-2-2zm0 1a1 1 0 0 1 1 1v1h-2v-1a1 1 0 0 1 1-1z"
     fill="#fff"
     id="path3" />
  <path
     style="fill:#ffffff;stroke-width:0.0185811"
     d="M 7.0050676,8.5008446 V 7.0143581 H 11 14.994932 V 8.5008446 9.9873311 H 11 7.0050676 Z"
     id="path4" />
  <path
     style="fill:#ffffff;stroke-width:0.0185811"
     d="M 3.0101351,12.505068 V 11.009291 H 7.0050676 11 v 1.495777 1.495777 H 7.0050676 3.0101351 Z"
     id="path5" />
  <path
     style="fill:#ffffff;stroke-width:0.0185811"
     d="M 7.0050676,16.5 V 15.004223 H 9.0025338 11 V 16.5 17.995777 H 9.0025338 7.0050676 Z"
     id="path6" />
  <path
     style="fill:#ffffff;stroke-width:0.0185811"
     d="M 3.0101351,16.5 V 15.004223 H 4.4966216 5.9831081 V 16.5 17.995777 H 4.4966216 3.0101351 Z"
     id="path7" />
  <path
     style="fill:#ffffff;stroke-width:0.0185811"
     d="M 3.0101351,8.5008446 V 7.0143581 H 4.4966216 5.9831081 V 8.5008446 9.9873311 H 4.4966216 3.0101351 Z"
     id="path8" />
  <path
     style="fill:#ffffff;stroke-width:0.0185811"
     d="M 16.016892,8.5008446 V 7.0143581 h 1.486486 1.486487 v 1.4864865 1.4864865 h -1.486487 -1.486486 z"
     id="path9" />
  <path
     style="fill:#ffffff;stroke-width:0.0185811"
     d="m 12.003378,4.4966216 v -1.495777 h 3.493244 3.493243 v 1.495777 1.495777 h -3.493243 -3.493244 z"
     id="path10" />
  <path
     style="fill:#ffffff;stroke-width:0.0185811"
     d="M 3.0101351,4.4966216 V 3.0008446 H 7.0050676 11 v 1.495777 1.495777 H 7.0050676 3.0101351 Z"
     id="path11" />
</svg>
