<?xml version="1.0" encoding="UTF-8" standalone="no"?>
<svg
   width="22"
   height="22"
   version="1.1"
   id="svg2"
   sodipodi:docname="input-keyboard-virtual-on.svg"
   inkscape:version="1.3.2 (091e20ef0f, 2023-11-25, custom)"
   xmlns:inkscape="http://www.inkscape.org/namespaces/inkscape"
   xmlns:sodipodi="http://sodipodi.sourceforge.net/DTD/sodipodi-0.dtd"
   xmlns="http://www.w3.org/2000/svg"
   xmlns:svg="http://www.w3.org/2000/svg">
  <defs
     id="defs2" />
  <sodipodi:namedview
     id="namedview2"
     pagecolor="#505050"
     bordercolor="#ffffff"
     borderopacity="1"
     inkscape:showpageshadow="0"
     inkscape:pageopacity="0"
     inkscape:pagecheckerboard="1"
     inkscape:deskcolor="#d1d1d1"
     inkscape:zoom="53.818182"
     inkscape:cx="10.990709"
     inkscape:cy="11"
     inkscape:window-width="2560"
     inkscape:window-height="1388"
     inkscape:window-x="2560"
     inkscape:window-y="28"
     inkscape:window-maximized="1"
     inkscape:current-layer="svg2" />
  <style
     type="text/css"
     id="current-color-scheme">.ColorScheme-Text{color:#31363b;}.ColorScheme-Background{color:#eff0f1;}.ColorScheme-Highlight{color:#3daee9;}.ColorScheme-ViewText{color:#31363b;}.ColorScheme-ViewBackground{color:#fcfcfc;}.ColorScheme-ViewHover{color:#93cee9;}.ColorScheme-ViewFocus{color:#3daee9;}.ColorScheme-ButtonText{color:#31363b;}.ColorScheme-ButtonBackground{color:#eff0f1;}.ColorScheme-ButtonHover{color:#93cee9;}.ColorScheme-ButtonFocus { color: #3daee9; } </style>
  <g
     id="22-22-input-keyboard-virtual-on"
     transform="translate(16,42.000007) translate(-16,-42)">
    <path
       class="ColorScheme-Text"
       transform="translate(0,-1030.3622)"
       d="m2 1038.3622v11h18v-11zm1 1h16v1h-16zm0 2h16v7h-16zm1 1v1h2v-1zm3 0v1h2v-1zm3 0v1h2v-1zm3 0v1h2v-1zm3 0v1h2v-1zm-12 2v1h2v-1zm3 0v1h2v-1zm3 0v1h2v-1zm3 0v1h2v-1zm3 0v1h2v-1zm-12 2v1h2v-1zm3 0v1h8v-1zm9 0v1h2v-1z"
       fill="currentColor"
       id="path1" />
    <path
       d="M 4.5,2 A 2.4999997,2.4999855 0 0 0 2,4.5 2.4999997,2.4999855 0 0 0 4.5,7 2.4999997,2.4999855 0 0 0 7,4.5 2.4999997,2.4999855 0 0 0 4.5,2 Z"
       fill="#11d116"
       id="path2" />
    <rect
       width="22"
       height="22"
       fill="none"
       id="rect2" />
  </g>
  <path
     style="fill:#ffffff;stroke-width:0.0185811"
     d="M 2.0067568,13.499155 V 7.9991554 H 11 19.993243 v 5.4999996 5.5 H 11 2.0067568 Z M 19.008446,14.502534 V 10.990709 H 11 2.9915541 v 3.511825 3.511824 H 11 19.008446 Z m 0,-5.0076016 V 8.9839527 H 11 2.9915541 V 9.4949324 10.005912 H 11 19.008446 Z"
     id="path3" />
  <path
     style="fill:#ffffff;stroke-width:0.0185811"
     d="M 10.015203,12.505068 V 12.012669 H 11 11.984797 v 0.492399 0.492398 H 11 10.015203 Z"
     id="path4" />
  <path
     style="fill:#ffffff;stroke-width:0.0185811"
     d="m 7.0050676,12.505068 v -0.492399 h 0.9940878 0.9940878 v 0.492399 0.492398 H 7.9991554 7.0050676 Z"
     id="path5" />
  <path
     style="fill:#ffffff;stroke-width:0.0185811"
     d="m 7.0050676,14.493243 v -0.492398 h 0.9940878 0.9940878 v 0.492398 0.492399 H 7.9991554 7.0050676 Z"
     id="path6" />
  <path
     style="fill:#ffffff;stroke-width:0.0185811"
     d="M 10.015203,14.493243 V 14.000845 H 11 11.984797 v 0.492398 0.492399 H 11 10.015203 Z"
     id="path7" />
  <path
     style="fill:#ffffff;stroke-width:0.0185811"
     d="M 7.0050676,16.5 V 16.007601 H 11 14.994932 V 16.5 16.992399 H 11 7.0050676 Z"
     id="path8" />
  <path
     style="fill:#ffffff;stroke-width:0.0185811"
     d="m 13.006757,14.493243 v -0.492398 h 0.994088 0.994087 v 0.492398 0.492399 h -0.994087 -0.994088 z"
     id="path9" />
  <path
     style="fill:#ffffff;stroke-width:0.0185811"
     d="m 13.006757,12.505068 v -0.492399 h 0.994088 0.994087 v 0.492399 0.492398 h -0.994087 -0.994088 z"
     id="path10" />
  <path
     style="fill:#ffffff;stroke-width:0.0185811"
     d="m 16.016892,12.505068 v -0.492399 h 0.984797 0.984797 v 0.492399 0.492398 h -0.984797 -0.984797 z"
     id="path11" />
  <path
     style="fill:#ffffff;stroke-width:0.0185811"
     d="m 16.016892,14.493243 v -0.492398 h 0.984797 0.984797 v 0.492398 0.492399 h -0.984797 -0.984797 z"
     id="path12" />
  <path
     style="fill:#ffffff;stroke-width:0.0185811"
     d="m 16.016892,16.5 v -0.492399 h 0.984797 0.984797 V 16.5 16.992399 h -0.984797 -0.984797 z"
     id="path13" />
  <path
     style="fill:#ffffff;stroke-width:0.0185811"
     d="M 4.0135135,16.5 V 16.007601 H 4.9983108 5.9831081 V 16.5 16.992399 H 4.9983108 4.0135135 Z"
     id="path14" />
  <path
     style="fill:#ffffff;stroke-width:0.0185811"
     d="m 4.0135135,14.493243 v -0.492398 h 0.9847973 0.9847973 v 0.492398 0.492399 H 4.9983108 4.0135135 Z"
     id="path15" />
  <path
     style="fill:#ffffff;stroke-width:0.0185811"
     d="m 4.0135135,12.505068 v -0.492399 h 0.9847973 0.9847973 v 0.492399 0.492398 H 4.9983108 4.0135135 Z"
     id="path16" />
</svg>
