<?xml version="1.0" encoding="UTF-8" standalone="no"?>
<svg
   width="22"
   height="22"
   version="1.1"
   id="svg1"
   sodipodi:docname="input-num-on.svg"
   inkscape:version="1.3.2 (091e20ef0f, 2023-11-25, custom)"
   xmlns:inkscape="http://www.inkscape.org/namespaces/inkscape"
   xmlns:sodipodi="http://sodipodi.sourceforge.net/DTD/sodipodi-0.dtd"
   xmlns="http://www.w3.org/2000/svg"
   xmlns:svg="http://www.w3.org/2000/svg">
  <defs
     id="defs1" />
  <sodipodi:namedview
     id="namedview1"
     pagecolor="#505050"
     bordercolor="#ffffff"
     borderopacity="1"
     inkscape:showpageshadow="0"
     inkscape:pageopacity="0"
     inkscape:pagecheckerboard="1"
     inkscape:deskcolor="#d1d1d1"
     inkscape:zoom="53.818182"
     inkscape:cx="10.990709"
     inkscape:cy="11"
     inkscape:window-width="2560"
     inkscape:window-height="1388"
     inkscape:window-x="2560"
     inkscape:window-y="28"
     inkscape:window-maximized="1"
     inkscape:current-layer="svg1" />
  <style
     type="text/css"
     id="current-color-scheme">.ColorScheme-Text{color:#31363b;}.ColorScheme-Background{color:#eff0f1;}.ColorScheme-Highlight{color:#3daee9;}.ColorScheme-ViewText{color:#31363b;}.ColorScheme-ViewBackground{color:#fcfcfc;}.ColorScheme-ViewHover{color:#93cee9;}.ColorScheme-ViewFocus{color:#3daee9;}.ColorScheme-ButtonText{color:#31363b;}.ColorScheme-ButtonBackground{color:#eff0f1;}.ColorScheme-ButtonHover{color:#93cee9;}.ColorScheme-ButtonFocus { color: #3daee9; } </style>
  <g
     id="22-22-input-num-on"
     transform="translate(-8,84.999986) translate(-16,-202)">
    <rect
       x="24"
       y="117"
       width="22"
       height="22"
       opacity=".00100002"
       id="rect1" />
    <path
       class="ColorScheme-Text"
       d="m28 120v14l7 2 7-2v-14zm1 1h12v10h-12zm6 2v1h-1v1h1v3h-1v1h3v-1h-1v-5zm-6 9h12v1h-12z"
       fill="currentColor"
       id="path1" />
  </g>
  <path
     style="fill:#ffffff;stroke-width:0.0185811"
     d="M 10.015203,11.501689 V 11.009291 H 10.507601 11 V 9.504223 7.9991554 H 10.507601 10.015203 V 7.5067568 7.0143581 H 10.507601 11 V 6.5126689 6.0109797 h 0.492399 0.492398 v 2.4991554 2.4991559 h 0.501689 0.50169 v 0.492398 0.492399 h -1.486487 -1.486486 z"
     id="path2" />
  <path
     style="fill:#ffffff;stroke-width:0.0185811"
     d="M 7.4788851,17.987236 4.0228041,16.997728 4.0181344,9.9992865 4.0134647,3.0008446 H 11 17.986535 l -0.0047,6.998431 -0.0047,6.9984304 -3.465372,0.990805 c -1.905954,0.544943 -3.490456,0.990226 -3.521115,0.989519 -0.03066,-7.07e-4 -1.6109793,-0.446564 -3.5118239,-0.990794 z m 9.5228039,-2.490614 v -0.51098 H 11 4.9983108 v 0.51098 0.510979 H 11 17.001689 Z m 0,-6.5033788 V 3.9856419 H 11 4.9983108 V 8.9932432 14.000845 H 11 17.001689 Z"
     id="path3" />
</svg>
