<?xml version="1.0" encoding="UTF-8" standalone="no"?>
<svg
   width="22"
   height="22"
   version="1.1"
   id="svg1"
   sodipodi:docname="kalarm-partdisabled.svg"
   inkscape:version="1.3.2 (091e20ef0f, 2023-11-25, custom)"
   xmlns:inkscape="http://www.inkscape.org/namespaces/inkscape"
   xmlns:sodipodi="http://sodipodi.sourceforge.net/DTD/sodipodi-0.dtd"
   xmlns="http://www.w3.org/2000/svg"
   xmlns:svg="http://www.w3.org/2000/svg">
  <defs
     id="defs1" />
  <sodipodi:namedview
     id="namedview1"
     pagecolor="#505050"
     bordercolor="#ffffff"
     borderopacity="1"
     inkscape:showpageshadow="0"
     inkscape:pageopacity="0"
     inkscape:pagecheckerboard="1"
     inkscape:deskcolor="#d1d1d1"
     inkscape:zoom="53.818182"
     inkscape:cx="10.990709"
     inkscape:cy="11"
     inkscape:window-width="2560"
     inkscape:window-height="1388"
     inkscape:window-x="2560"
     inkscape:window-y="28"
     inkscape:window-maximized="1"
     inkscape:current-layer="svg1" />
  <style
     type="text/css"
     id="current-color-scheme">.ColorScheme-Text{color:#31363b;}.ColorScheme-Background{color:#eff0f1;}.ColorScheme-Highlight{color:#3daee9;}.ColorScheme-ViewText{color:#31363b;}.ColorScheme-ViewBackground{color:#fcfcfc;}.ColorScheme-ViewHover{color:#93cee9;}.ColorScheme-ViewFocus{color:#3daee9;}.ColorScheme-ButtonText{color:#31363b;}.ColorScheme-ButtonBackground{color:#eff0f1;}.ColorScheme-ButtonHover{color:#93cee9;}.ColorScheme-ButtonFocus { color: #3daee9; } </style>
  <g
     transform="translate(-282,-534.3622) translate(-44,2e-05)"
     id="kalarm-partdisabled">
    <rect
       y="534.36218"
       x="326"
       height="22"
       width="22"
       id="rect4178-6-3"
       style="opacity:1;fill:none;fill-opacity:1;stroke:none;stroke-width:0.1;stroke-linecap:square;stroke-linejoin:miter;stroke-miterlimit:4;stroke-dasharray:none;stroke-dashoffset:0;stroke-opacity:1" />
    <path
       id="path17"
       class="ColorScheme-Text"
       transform="translate(282,534.3622)"
       d="m 55,3 c -0.828427,0 -1.5,0.6715729 -1.5,1.5 6.63e-4,0.2386231 0.05825,0.4736447 0.167969,0.6855469 C 51.502537,5.78406 50.00218,7.7533785 50,10 c -0.002,2.980008 -1.27949,5.505927 -3,5.931641 l 0,1.021484 0,0.04687 10,0 0,-1 -8.195312,0 C 50.163678,14.73945 50.997227,12.46128 51,10 c 0,-2.209139 1.790861,-4 4,-4 2.209139,0 4,1.790861 4,4 0.0029,1.038786 0.154304,2.063561 0.443359,3 l 1.029297,0 C 60.164158,12.088507 60.001138,11.053804 60,10 59.999818,7.7524797 58.500038,5.7812718 56.333984,5.1816406 56.442427,4.9707447 56.499322,4.7371423 56.5,4.5 56.5,3.6715729 55.828427,3 55,3 Z"
       style="fill:currentColor;fill-opacity:1;stroke:none" />
    <path
       id="path19"
       d="m 340,548.3622 0,6 5,0 0,-6 z"
       class="ColorScheme-Text"
       style="fill:currentColor;fill-opacity:0.6;stroke:none" />
  </g>
  <path
     style="fill:#ffffff;stroke-width:0.0185811"
     d="M 14.010135,17.001689 V 14.000845 H 16.5 18.989865 v 3.000844 3.000845 H 16.5 14.010135 Z"
     id="path1" />
  <path
     style="fill:#ffffff;stroke-width:0.0185811"
     d="M 3.0101351,16.466495 V 15.940592 L 3.144848,15.897815 C 4.3953453,15.50073 5.4351517,13.939884 5.8320857,11.86402 5.93515,11.32502 5.9982145,10.701844 6.0041402,10.163851 6.0085566,9.7629051 6.0307433,9.4650979 6.0761215,9.1976716 6.2510387,8.1668303 6.7028652,7.2729545 7.4227366,6.5335801 8.0058723,5.934646 8.6609633,5.5230595 9.4403319,5.2659475 L 9.6750743,5.1885064 9.6236566,5.065537 C 9.4386078,4.6229787 9.4931492,4.0585377 9.7579361,3.6759003 10.054034,3.2480164 10.490092,3.0165264 11,3.0165264 c 0.509908,0 0.945966,0.23149 1.242064,0.6593739 0.264224,0.3818242 0.320011,0.9607345 0.134298,1.3936301 -0.02119,0.04939 -0.03852,0.096963 -0.03852,0.1057167 0,0.00875 0.07316,0.038108 0.162584,0.065232 0.08942,0.027124 0.251541,0.085617 0.360265,0.1299854 1.425927,0.5818961 2.476054,1.7351385 2.922166,3.209101 0.142986,0.4724301 0.190739,0.8260338 0.214654,1.5894895 0.02557,0.81634 0.08676,1.337341 0.234189,1.994171 0.05475,0.243937 0.176819,0.683721 0.222523,0.801723 0.01181,0.03048 -0.01923,0.03252 -0.496324,0.03252 h -0.508918 l -0.0714,-0.25549 C 15.154857,11.945087 15.04435,11.170001 15.013897,10.191197 14.995544,9.6012907 14.968847,9.3608703 14.883687,9.0185828 14.66742,8.1493303 14.138998,7.3500679 13.423422,6.8098612 12.490754,6.1057676 11.338928,5.8460561 10.182432,6.0790894 8.7002984,6.3777389 7.4829932,7.544771 7.1163129,9.0185828 7.0304504,9.363693 7.0042613,9.6014332 6.986058,10.201014 c -0.017381,0.572503 -0.048507,0.951858 -0.1128184,1.375 -0.2631642,1.731516 -0.9314304,3.236485 -1.8688901,4.208833 l -0.214762,0.222754 H 8.8888817 12.988176 V 16.5 16.992399 H 7.9991554 3.0101351 Z"
     id="path2" />
</svg>
