<?xml version="1.0" encoding="UTF-8" standalone="no"?>
<svg
   width="22"
   height="22"
   version="1.1"
   id="svg1"
   sodipodi:docname="keyboard-layout.svg"
   inkscape:version="1.3.2 (091e20ef0f, 2023-11-25, custom)"
   xmlns:inkscape="http://www.inkscape.org/namespaces/inkscape"
   xmlns:sodipodi="http://sodipodi.sourceforge.net/DTD/sodipodi-0.dtd"
   xmlns="http://www.w3.org/2000/svg"
   xmlns:svg="http://www.w3.org/2000/svg">
  <defs
     id="defs1" />
  <sodipodi:namedview
     id="namedview1"
     pagecolor="#505050"
     bordercolor="#ffffff"
     borderopacity="1"
     inkscape:showpageshadow="0"
     inkscape:pageopacity="0"
     inkscape:pagecheckerboard="1"
     inkscape:deskcolor="#d1d1d1"
     inkscape:zoom="53.818182"
     inkscape:cx="10.990709"
     inkscape:cy="11"
     inkscape:window-width="2560"
     inkscape:window-height="1388"
     inkscape:window-x="2560"
     inkscape:window-y="28"
     inkscape:window-maximized="1"
     inkscape:current-layer="svg1" />
  <style
     type="text/css"
     id="current-color-scheme">.ColorScheme-Text{color:#31363b;}.ColorScheme-Background{color:#eff0f1;}.ColorScheme-Highlight{color:#3daee9;}.ColorScheme-ViewText{color:#31363b;}.ColorScheme-ViewBackground{color:#fcfcfc;}.ColorScheme-ViewHover{color:#93cee9;}.ColorScheme-ViewFocus{color:#3daee9;}.ColorScheme-ButtonText{color:#31363b;}.ColorScheme-ButtonBackground{color:#eff0f1;}.ColorScheme-ButtonHover{color:#93cee9;}.ColorScheme-ButtonFocus { color: #3daee9; } </style>
  <g
     transform="translate(0,10.00001) translate(0,-10)"
     id="22-22-keyboard-layout">
    <rect
       style="fill:none;fill-rule:evenodd;stroke:none;stroke-width:1px;stroke-linecap:butt;stroke-linejoin:miter;stroke-opacity:1"
       id="rect4209"
       width="22"
       height="22"
       x="0"
       y="0" />
    <path
       style="fill:currentColor;fill-opacity:1;stroke:none"
       d="m 13,1033.3622 0,1 0,1 c 0,0.554 -0.446,1 -1,1 -1.108,0 -2,0.892 -2,2 l -8,0 0,11 18,0 0,-11 -9,0 c 0,-0.554 0.446,-1 1,-1 1.108,0 2,-0.892 2,-2 l 0,-1 0,-1 -1,0 z m -10,6 7,0 1,0 8,0 0,1 -16,0 0,-1 z m 0,2 16,0 0,7 -4,0 -8,0 -4,0 0,-7 z m 1,1 0,1 2,0 0,-1 -2,0 z m 3,0 0,1 2,0 0,-1 -2,0 z m 3,0 0,1 2,0 0,-1 -2,0 z m 3,0 0,1 2,0 0,-1 -2,0 z m 3,0 0,1 2,0 0,-1 -2,0 z m -12,2 0,1 2,0 0,-1 -2,0 z m 3,0 0,1 2,0 0,-1 -2,0 z m 3,0 0,1 2,0 0,-1 -2,0 z m 3,0 0,1 2,0 0,-1 -2,0 z m 3,0 0,1 2,0 0,-1 -2,0 z m -12,2 0,1 2,0 0,-1 -2,0 z m 3,0 0,1 8,0 0,-1 -8,0 z m 9,0 0,1 2,0 0,-1 -2,0 z"
       transform="translate(0,-1030.3622)"
       class="ColorScheme-Text"
       id="path4211" />
  </g>
  <path
     style="fill:#ffffff;stroke-width:0.0185811"
     d="M 2.0067568,13.499155 V 7.9991554 H 6.0109797 10.015203 V 7.8897216 c 0,-0.2233602 0.08458,-0.543392 0.209256,-0.7917486 0.193262,-0.3849909 0.549321,-0.7261673 0.952018,-0.9122245 0.21199,-0.097946 0.459187,-0.1546713 0.761868,-0.1748297 0.299179,-0.019925 0.36122,-0.034482 0.535923,-0.1257432 0.162844,-0.085066 0.321606,-0.2440279 0.408086,-0.4086002 0.122669,-0.233439 0.123822,-0.2466405 0.124128,-1.4212545 l 2.75e-4,-1.0544763 h 0.492398 0.492399 l -7.5e-5,1.0730574 c -8e-5,1.1610019 -0.0077,1.2766515 -0.102773,1.559868 -0.139581,0.4158049 -0.424485,0.7843963 -0.794946,1.028453 -0.301188,0.1984205 -0.632083,0.3048515 -1.010621,0.3250619 -0.269071,0.014366 -0.399695,0.044812 -0.565046,0.1317016 -0.288104,0.1513944 -0.517047,0.5055914 -0.517872,0.8011993 L 11,7.9991554 h 4.496622 4.496621 v 5.4999996 5.5 H 11 2.0067568 Z M 19.008446,14.502534 V 10.990709 H 11 2.9915541 v 3.511825 3.511824 H 11 19.008446 Z m 0,-5.0076016 V 8.9839527 H 11 2.9915541 V 9.4949324 10.005912 H 11 19.008446 Z"
     id="path1" />
  <path
     style="fill:#ffffff;stroke-width:0.0185811"
     d="M 10.015203,12.505068 V 12.012669 H 11 11.984797 v 0.492399 0.492398 H 11 10.015203 Z"
     id="path2" />
  <path
     style="fill:#ffffff;stroke-width:0.0185811"
     d="M 10.015203,14.493243 V 14.000845 H 11 11.984797 v 0.492398 0.492399 H 11 10.015203 Z"
     id="path3" />
  <path
     style="fill:#ffffff;stroke-width:0.0185811"
     d="M 7.0050676,16.5 V 16.007601 H 11 14.994932 V 16.5 16.992399 H 11 7.0050676 Z"
     id="path4" />
  <path
     style="fill:#ffffff;stroke-width:0.0185811"
     d="m 7.0050676,14.493243 v -0.492398 h 0.9940878 0.9940878 v 0.492398 0.492399 H 7.9991554 7.0050676 Z"
     id="path5" />
  <path
     style="fill:#ffffff;stroke-width:0.0185811"
     d="m 7.0050676,12.505068 v -0.492399 h 0.9940878 0.9940878 v 0.492399 0.492398 H 7.9991554 7.0050676 Z"
     id="path6" />
  <path
     style="fill:#ffffff;stroke-width:0.0185811"
     d="m 4.0135135,12.505068 v -0.492399 h 0.9847973 0.9847973 v 0.492399 0.492398 H 4.9983108 4.0135135 Z"
     id="path7" />
  <path
     style="fill:#ffffff;stroke-width:0.0185811"
     d="m 4.0135135,14.493243 v -0.492398 h 0.9847973 0.9847973 v 0.492398 0.492399 H 4.9983108 4.0135135 Z"
     id="path8" />
  <path
     style="fill:#ffffff;stroke-width:0.0185811"
     d="M 4.0135135,16.5 V 16.007601 H 4.9983108 5.9831081 V 16.5 16.992399 H 4.9983108 4.0135135 Z"
     id="path9" />
  <path
     style="fill:#ffffff;stroke-width:0.0185811"
     d="m 13.006757,12.505068 v -0.492399 h 0.994088 0.994087 v 0.492399 0.492398 h -0.994087 -0.994088 z"
     id="path10" />
  <path
     style="fill:#ffffff;stroke-width:0.0185811"
     d="m 13.006757,14.493243 v -0.492398 h 0.994088 0.994087 v 0.492398 0.492399 h -0.994087 -0.994088 z"
     id="path11" />
  <path
     style="fill:#ffffff;stroke-width:0.0185811"
     d="m 16.016892,12.505068 v -0.492399 h 0.984797 0.984797 v 0.492399 0.492398 h -0.984797 -0.984797 z"
     id="path13" />
  <path
     style="fill:#ffffff;stroke-width:0.0185811"
     d="m 16.016892,14.493243 v -0.492398 h 0.984797 0.984797 v 0.492398 0.492399 h -0.984797 -0.984797 z"
     id="path14" />
  <path
     style="fill:#ffffff;stroke-width:0.0185811"
     d="m 16.016892,16.5 v -0.492399 h 0.984797 0.984797 V 16.5 16.992399 h -0.984797 -0.984797 z"
     id="path15" />
</svg>
