<?xml version="1.0" encoding="UTF-8" standalone="no"?>
<svg
   width="22"
   height="22"
   version="1.1"
   id="svg1"
   sodipodi:docname="klipper-symbolic.svg"
   inkscape:version="1.3.2 (091e20ef0f, 2023-11-25, custom)"
   xmlns:inkscape="http://www.inkscape.org/namespaces/inkscape"
   xmlns:sodipodi="http://sodipodi.sourceforge.net/DTD/sodipodi-0.dtd"
   xmlns="http://www.w3.org/2000/svg"
   xmlns:svg="http://www.w3.org/2000/svg">
  <defs
     id="defs1" />
  <sodipodi:namedview
     id="namedview1"
     pagecolor="#505050"
     bordercolor="#ffffff"
     borderopacity="1"
     inkscape:showpageshadow="0"
     inkscape:pageopacity="0"
     inkscape:pagecheckerboard="1"
     inkscape:deskcolor="#d1d1d1"
     inkscape:zoom="53.818182"
     inkscape:cx="10.990709"
     inkscape:cy="11"
     inkscape:window-width="2560"
     inkscape:window-height="1388"
     inkscape:window-x="2560"
     inkscape:window-y="28"
     inkscape:window-maximized="1"
     inkscape:current-layer="svg1" />
  <style
     type="text/css"
     id="current-color-scheme">.ColorScheme-Text{color:#31363b;}.ColorScheme-Background{color:#eff0f1;}.ColorScheme-Highlight{color:#3daee9;}.ColorScheme-ViewText{color:#31363b;}.ColorScheme-ViewBackground{color:#fcfcfc;}.ColorScheme-ViewHover{color:#93cee9;}.ColorScheme-ViewFocus{color:#3daee9;}.ColorScheme-ButtonText{color:#31363b;}.ColorScheme-ButtonBackground{color:#eff0f1;}.ColorScheme-ButtonHover{color:#93cee9;}.ColorScheme-ButtonFocus { color: #3daee9; } </style>
  <g
     id="22-22-klipper"
     transform="translate(49,4.999999) translate(-49,-5)">
    <path
       inkscape:connector-curvature="0"
       style="opacity:1;fill:currentColor;fill-opacity:1;stroke:none"
       d="M 7,3 7,5 5,5 4,5 4,19 5,19 18,19 18,18 18,5 17,5 15,5 15,3 7,3 Z M 5,6 6,6 6,8 16,8 16,6 17,6 17,18 5,18 5,6 Z m 2,3 0,1 8,0 0,-1 -8,0 z m 0,3 0,1 6,0 0,-1 -6,0 z m 0,3 0,1 3,0 0,-1 -3,0 z"
       id="path4146"
       class="ColorScheme-Text" />
    <rect
       style="opacity:1;fill:none;fill-opacity:1;stroke:none;stroke-width:0.1;stroke-linecap:square;stroke-linejoin:miter;stroke-miterlimit:4;stroke-dasharray:none;stroke-dashoffset:0;stroke-opacity:1"
       id="rect4148"
       width="22"
       height="22"
       x="0"
       y="0" />
  </g>
  <path
     style="fill:#ffffff;stroke-width:0.0185811"
     d="m 7.0050676,12.505068 v -0.492399 h 2.991554 2.9915544 v 0.492399 0.492398 H 9.9966216 7.0050676 Z"
     id="path1" />
  <path
     style="fill:#ffffff;stroke-width:0.0185811"
     d="m 7.0050676,15.496622 v -0.492399 h 1.495777 1.495777 v 0.492399 0.492398 h -1.495777 -1.495777 z"
     id="path2" />
  <path
     style="fill:#ffffff;stroke-width:0.0185811"
     d="M 7.0050676,9.4949324 V 9.0025338 H 11 14.994932 V 9.4949324 9.9873311 H 11 7.0050676 Z"
     id="path3" />
  <path
     style="fill:#ffffff;stroke-width:0.0185811"
     d="M 4.0135135,12.003378 V 5.0076014 h 1.495777 1.4957771 V 4.004223 3.0008446 H 11 14.994932 V 4.004223 5.0076014 h 1.495777 1.495777 v 6.9957766 6.995777 H 11 4.0135135 Z m 12.9881755,0 V 5.9923986 H 16.5 15.998311 V 6.995777 7.9991554 H 11 6.0016892 V 6.995777 5.9923986 H 5.5 4.9983108 v 6.0109794 6.01098 H 11 17.001689 Z"
     id="path4" />
</svg>
