<?xml version="1.0" encoding="UTF-8" standalone="no"?>
<svg
   width="22"
   height="22"
   version="1.1"
   id="svg1"
   sodipodi:docname="mail-unread-new.svg"
   inkscape:version="1.3.2 (091e20ef0f, 2023-11-25, custom)"
   xmlns:inkscape="http://www.inkscape.org/namespaces/inkscape"
   xmlns:sodipodi="http://sodipodi.sourceforge.net/DTD/sodipodi-0.dtd"
   xmlns="http://www.w3.org/2000/svg"
   xmlns:svg="http://www.w3.org/2000/svg">
  <defs
     id="defs1" />
  <sodipodi:namedview
     id="namedview1"
     pagecolor="#505050"
     bordercolor="#ffffff"
     borderopacity="1"
     inkscape:showpageshadow="0"
     inkscape:pageopacity="0"
     inkscape:pagecheckerboard="1"
     inkscape:deskcolor="#d1d1d1"
     inkscape:zoom="53.818182"
     inkscape:cx="10.990709"
     inkscape:cy="11.018581"
     inkscape:window-width="2560"
     inkscape:window-height="1388"
     inkscape:window-x="2560"
     inkscape:window-y="28"
     inkscape:window-maximized="1"
     inkscape:current-layer="svg1" />
  <style
     type="text/css"
     id="current-color-scheme">.ColorScheme-Text{color:#31363b;}.ColorScheme-Background{color:#eff0f1;}.ColorScheme-Highlight{color:#3daee9;}.ColorScheme-ViewText{color:#31363b;}.ColorScheme-ViewBackground{color:#fcfcfc;}.ColorScheme-ViewHover{color:#93cee9;}.ColorScheme-ViewFocus{color:#3daee9;}.ColorScheme-ButtonText{color:#31363b;}.ColorScheme-ButtonBackground{color:#eff0f1;}.ColorScheme-ButtonHover{color:#93cee9;}.ColorScheme-ButtonFocus { color: #3daee9; } </style>
  <g
     id="mail-unread-new"
     transform="translate(-27,0)">
    <rect
       y="0"
       x="27.000002"
       height="22"
       width="22"
       id="rect4178"
       style="opacity:1;fill:none;fill-opacity:1;stroke:none" />
    <path
       style="fill:currentColor"
       d="m 28,3 0,1 0,8 0,6 0,0.414062 L 28,19 l 1,0 6,0 6,0 0,-1 -6,0 -6,0 0,-0.585938 0.462891,-0.46289 6.267578,-6.267578 1.453125,1.451172 0.814453,0.814453 0.002,0 0.816406,-0.814453 1.453125,-1.451172 L 41.585938,12 43,12 40.976562,9.9765625 46.728516,4.2226562 46.951172,4 47,4 47,4.2226562 47,12 48,12 48,3 47.951172,3 47,3 46.537109,3 29.462891,3 29,3 28,3 Z m 1,1 0.04883,0 0.222656,0.2226562 5.751954,5.7539063 L 29,16 29,12 29,4.2226562 29,4 Z M 30.462891,4 45.537109,4 38,11.537109 30.462891,4 Z M 45,13 44.425781,14.613281 42.878906,13.878906 43.613281,15.425781 42,16 43.613281,16.574219 42.878906,18.121094 44.425781,17.386719 45,19 45.574219,17.386719 47.121094,18.121094 46.386719,16.574219 48,16 46.386719,15.425781 47.121094,13.878906 45.574219,14.613281 45,13 Z"
       id="rect4144-0"
       class="ColorScheme-Text" />
  </g>
  <path
     style="fill:#ffffff;stroke-width:0.0185811"
     d="M 1.0033784,11 V 3.0008446 H 11 20.996622 V 7.4974662 11.994088 H 20.504223 20.011824 V 7.9898649 c 0,-3.800971 -0.0017,-4.004248 -0.03252,-4.0047147 -0.01883,-2.848e-4 -1.290494,1.2591468 -3.022311,2.9932504 l -2.989794,2.9937421 1.010845,1.0109723 1.010845,1.010973 H 15.292261 14.59563 l -0.66284,-0.662649 -0.662841,-0.662649 -1.127151,1.122531 c -0.619933,0.617392 -1.134345,1.12253 -1.143137,1.12253 -0.0088,0 -0.522889,-0.505335 -1.1424372,-1.122968 l -1.1264513,-1.122969 -3.3712984,3.371261 -3.3712984,3.37126 v 0.301961 0.301962 h 6.0016892 6.0016891 v 0.492399 0.492398 H 7.4974662 1.0033784 Z M 7.4139108,9.3567468 C 6.1683238,8.0850072 2.0519501,3.9856419 2.0205213,3.9856419 c -0.030674,0 -0.032346,0.310976 -0.032346,6.0156041 v 6.015603 l 3.018275,-3.018232 3.0182745,-3.0182315 z m 7.3626772,-1.575902 c 2.072032,-2.0720133 3.767331,-3.7735758 3.767331,-3.7812499 0,-0.00767 -3.394764,-0.013953 -7.543919,-0.013953 -4.1491554,0 -7.5439189,0.00626 -7.5439189,0.013919 0,0.015179 7.5287149,7.5485811 7.5438849,7.5485811 0.0051,0 1.704589,-1.6952834 3.776622,-3.7672972 z"
     id="path1" />
  <path
     style="fill:#ffdd55;stroke-width:0.0185811"
     d="m 17.927184,18.770795 c -0.03752,-0.104343 -0.161654,-0.453101 -0.275853,-0.775018 -0.114198,-0.321917 -0.213549,-0.591688 -0.22078,-0.599491 -0.0072,-0.0078 -0.349694,0.145661 -0.761028,0.34103 -0.411333,0.19537 -0.751191,0.351906 -0.755238,0.347859 -0.004,-0.004 0.03676,-0.09898 0.09068,-0.210963 0.382083,-0.793508 0.610185,-1.294099 0.595563,-1.307017 -0.0093,-0.0082 -0.366624,-0.138821 -0.794049,-0.290227 -0.719184,-0.254755 -0.773223,-0.276872 -0.724662,-0.296603 0.02886,-0.01173 0.381653,-0.137908 0.783983,-0.280404 0.40233,-0.142495 0.734984,-0.267945 0.73923,-0.278778 0.0042,-0.01083 -0.151348,-0.353039 -0.345767,-0.76046 -0.194419,-0.407421 -0.350451,-0.743803 -0.346737,-0.747517 0.0037,-0.0037 0.343378,0.153015 0.754811,0.348285 0.411434,0.19527 0.754668,0.348202 0.762743,0.339847 0.0081,-0.0084 0.103671,-0.266034 0.212436,-0.572622 0.379381,-1.069401 0.353617,-1.00498 0.377846,-0.944785 0.01171,0.02909 0.138384,0.382378 0.281499,0.785082 0.143114,0.402703 0.264366,0.736347 0.269448,0.741429 0.0051,0.0051 0.345555,-0.150559 0.756607,-0.345871 0.411051,-0.195311 0.750834,-0.351643 0.755073,-0.347404 0.0042,0.0042 -0.152224,0.343891 -0.347695,0.754783 -0.195471,0.410891 -0.350958,0.751519 -0.345525,0.756951 0.0054,0.0054 0.364389,0.136053 0.797682,0.290268 l 0.787805,0.28039 -0.374875,0.133957 c -0.206181,0.07368 -0.562235,0.200832 -0.791231,0.282568 -0.228996,0.08174 -0.41933,0.151585 -0.422966,0.15522 -0.0036,0.0036 0.153043,0.343073 0.348173,0.754305 0.19513,0.411232 0.351154,0.751323 0.34672,0.755758 -0.0044,0.0044 -0.291488,-0.126949 -0.637897,-0.291962 -0.596502,-0.284146 -0.859051,-0.406804 -0.870764,-0.406804 -0.0029,0 -0.128841,0.349092 -0.279955,0.77576 -0.151115,0.426669 -0.279772,0.781698 -0.285906,0.788954 -0.0061,0.0073 -0.04185,-0.07218 -0.07937,-0.17652 z"
     id="path2" />
  <path
     style="fill:#ffffff;stroke-width:0.0185811"
     d="m 17.977392,18.873733 c -0.0072,-0.01788 -0.09088,-0.249915 -0.185975,-0.515625 -0.25778,-0.72026 -0.346973,-0.965494 -0.353789,-0.97274 -0.0086,-0.0092 -0.340561,0.139624 -0.943826,0.423116 -0.491762,0.231092 -0.551234,0.256248 -0.551234,0.233158 0,-0.0054 0.109703,-0.241645 0.243785,-0.524916 0.336682,-0.711296 0.432311,-0.933366 0.411078,-0.954599 -0.0097,-0.0097 -0.341122,-0.13403 -0.736492,-0.276286 -0.395369,-0.142257 -0.73315,-0.266675 -0.750623,-0.276485 -0.02703,-0.01518 -0.02761,-0.01933 -0.0039,-0.02785 0.01533,-0.0055 0.282897,-0.101302 0.594594,-0.212873 0.667382,-0.238886 0.876556,-0.317595 0.899255,-0.338378 0.02079,-0.01904 0.0081,-0.04847 -0.360118,-0.833629 -0.16447,-0.350724 -0.295196,-0.641521 -0.290501,-0.646216 0.0047,-0.0047 0.296924,0.125802 0.649399,0.289991 0.618565,0.28814 0.829313,0.380905 0.839808,0.369658 0.0051,-0.0054 0.157213,-0.423889 0.406334,-1.117592 0.133877,-0.372796 0.152442,-0.417569 0.166079,-0.400544 0.0034,0.0043 0.10916,0.296213 0.234999,0.648789 0.296228,0.829972 0.308187,0.861339 0.331362,0.869064 0.01077,0.0036 0.335775,-0.141217 0.72224,-0.321791 0.812778,-0.379767 0.749116,-0.351804 0.749116,-0.329046 0,0.0098 -0.15123,0.341917 -0.336068,0.738048 -0.192557,0.412676 -0.329111,0.727195 -0.319776,0.736529 0.009,0.009 0.333691,0.129634 0.721625,0.268163 0.387934,0.138529 0.733338,0.2626 0.767564,0.275712 l 0.06223,0.02384 -0.275913,0.09806 c -0.879707,0.312659 -1.262561,0.45242 -1.277062,0.466193 -0.0092,0.0088 0.131512,0.332253 0.322905,0.742208 0.186593,0.399672 0.334763,0.731173 0.329266,0.736669 -0.0055,0.0055 -0.33313,-0.141867 -0.728075,-0.327476 -0.394945,-0.185608 -0.728069,-0.333574 -0.740277,-0.328813 -0.01221,0.0048 -0.143437,0.348293 -0.291621,0.763404 -0.148184,0.415111 -0.274803,0.754753 -0.281374,0.75476 -0.0066,7e-6 -0.01783,-0.01462 -0.02502,-0.0325 z"
     id="path28" />
  <path
     style="fill:#ffffff;stroke-width:0.0185811"
     d="m 17.722893,18.140923 c -0.259493,-0.719542 -0.271939,-0.74891 -0.316142,-0.745944 -0.02531,0.0017 -0.266855,0.1053 -0.536771,0.230227 -0.713718,0.330335 -0.893517,0.410661 -0.90145,0.402727 -0.0039,-0.0039 0.12136,-0.282376 0.278338,-0.618856 0.268976,-0.576548 0.379378,-0.83591 0.362625,-0.851896 -0.0087,-0.0083 -0.493343,-0.189022 -1.075709,-0.401174 -0.229941,-0.08377 -0.420437,-0.154485 -0.423325,-0.157153 -0.006,-0.0056 0.0064,-0.01014 0.796358,-0.295381 0.636909,-0.229967 0.704669,-0.258852 0.704669,-0.300393 0,-0.01516 -0.08034,-0.200983 -0.17854,-0.412952 -0.357327,-0.771327 -0.455701,-0.992992 -0.445302,-1.003391 0.0058,-0.0058 0.171578,0.06315 0.368322,0.153286 0.923859,0.423279 1.04244,0.475458 1.068703,0.470262 0.01864,-0.0037 0.117307,-0.251327 0.293413,-0.736422 0.14593,-0.401976 0.270201,-0.735739 0.276157,-0.741694 0.006,-0.006 0.0139,-0.0073 0.01766,-0.0031 0.0038,0.0043 0.113281,0.304575 0.24339,0.667371 0.26835,0.748263 0.296155,0.817567 0.328013,0.817567 0.02477,0 0.451606,-0.191047 1.055772,-0.472551 0.208879,-0.09732 0.382766,-0.173968 0.386416,-0.170318 0.0037,0.0036 -0.111706,0.264759 -0.256346,0.580243 -0.268784,0.586262 -0.396066,0.879783 -0.385643,0.88932 0.0096,0.0088 0.472259,0.178799 1.015133,0.373074 0.295223,0.10565 0.497344,0.187191 0.483108,0.1949 -0.01346,0.0073 -0.321308,0.119503 -0.684104,0.249365 -0.647552,0.23179 -0.817567,0.29687 -0.817567,0.312957 0,0.01752 0.07058,0.177353 0.348263,0.788602 0.159067,0.350151 0.284198,0.641654 0.278069,0.647782 -0.0061,0.0061 -0.293796,-0.118716 -0.639261,-0.277433 -0.732386,-0.336481 -0.783581,-0.357896 -0.803058,-0.335927 -0.02019,0.02277 -0.04835,0.0966 -0.308863,0.809881 -0.125794,0.344416 -0.236249,0.639673 -0.245457,0.656126 -0.0122,0.02181 -0.08995,-0.173085 -0.286868,-0.719118 z"
     id="path29" />
</svg>
