<?xml version="1.0" encoding="UTF-8" standalone="no"?>
<svg
   viewBox="0 0 22 22"
   version="1.1"
   id="svg5"
   sodipodi:docname="microphone-sensitivity-muted.svg"
   inkscape:version="1.3.2 (091e20ef0f, 2023-11-25, custom)"
   xmlns:inkscape="http://www.inkscape.org/namespaces/inkscape"
   xmlns:sodipodi="http://sodipodi.sourceforge.net/DTD/sodipodi-0.dtd"
   xmlns="http://www.w3.org/2000/svg"
   xmlns:svg="http://www.w3.org/2000/svg">
  <defs
     id="defs5" />
  <sodipodi:namedview
     id="namedview5"
     pagecolor="#505050"
     bordercolor="#ffffff"
     borderopacity="1"
     inkscape:showpageshadow="0"
     inkscape:pageopacity="0"
     inkscape:pagecheckerboard="1"
     inkscape:deskcolor="#d1d1d1"
     inkscape:zoom="53.818182"
     inkscape:cx="10.990709"
     inkscape:cy="11"
     inkscape:window-width="2560"
     inkscape:window-height="1388"
     inkscape:window-x="2560"
     inkscape:window-y="28"
     inkscape:window-maximized="1"
     inkscape:current-layer="svg5" />
  <style
     id="current-color-scheme"
     type="text/css">.ColorScheme-Text{color:#232629;}.ColorScheme-NegativeText { color: #da4453; } </style>
  <path
     d="m3.5 2.7929688-.7070312.7070312.3535156.3535156 14.9999996 15.0000004.353516.353515.707031-.707031-.353515-.353516-15.0000004-14.9999996z"
     class="ColorScheme-NegativeText"
     fill="currentColor"
     id="path1" />
  <g
     class="ColorScheme-Text"
     fill="currentColor"
     id="g5">
    <path
       d="m8 3c-.828427 0-1.5782005.336013-2.1210938.8789062l5.1210938 5.1210938v-3c0-1.656854-1.343146-3-3-3zm-3 4v4c0 1.656854 1.343146 3 3 3 1.0855136 0 2.02799-.581747 2.554688-1.445312zm-2 2v2c0 2.419003 1.7176959 4.43717 4 4.900391v2.099609h-2v1h6v-1h-2v-2.099609c1.221013-.24782 2.268985-.948958 2.990234-1.910157l-.710937-.710937c-.722654 1.037566-1.9190145 1.720703-3.279297 1.720703-2.209139 0-4-1.790861-4-4v-2zm9 0v1l1 1v-2z"
       id="path2" />
    <g
       opacity=".35"
       id="g4">
      <path
         d="m14.279297 3.828125-.451172.8925781.447266.2265625c1.111155.5609197 2.066402 1.4379814 2.71875 2.4980469s1.005859 2.30998 1.005859 3.5546875c0 1.244708-.353511 2.494622-1.005859 3.554688-.05509.08952-.124272.169027-.183594.255859l.714844.714844c.107035-.148903.224103-.290926.320312-.447266.751092-1.220524 1.154297-2.64501 1.154297-4.078125s-.403205-2.8576007-1.154297-4.078125-1.841746-2.2233162-3.121094-2.8691406zm.482422 12.933594c-.160785.09911-.317864.205973-.486328.291015l-.447266.226563.451172.892578.445312-.224609c.265815-.134185.517456-.293275.765625-.457032z"
         id="path3" />
      <path
         d="m13.21875 6.5507812-.4375.8984376c.659004.3212645 1.230576.8353277 1.619141 1.4570312.388564.6217035.599609 1.360608.599609 2.09375 0 .562366-.126154 1.126975-.359375 1.640625l.738281.738281c.399434-.727802.621094-1.547343.621094-2.378906 0-.924034-.262216-1.8394676-.751953-2.6230469-.489737-.7835792-1.198705-1.4212581-2.029297-1.8261719z"
         id="path4" />
    </g>
  </g>
  <path
     style="fill:#ffffff;stroke-width:0.0185811"
     d="M 8.4386402,6.4318856 5.8865709,3.8797635 6.0105915,3.7701183 C 6.3016835,3.512767 6.6931853,3.2840227 7.0433405,3.1667099 7.6481299,2.9640869 8.3275504,2.9615972 8.9325701,3.1597869 9.8134844,3.448353 10.529266,4.1567001 10.83077,5.0382726 c 0.156997,0.4590448 0.172372,0.6941825 0.165357,2.5289002 l -0.0054,1.4168349 z"
     id="path5" />
  <path
     style="fill:#ffffff;stroke-width:0.0185811"
     d="M 7.5717905,13.9627 C 6.2837995,13.763264 5.2716369,12.774412 5.0543124,11.5032 5.0182962,11.292528 5.0168919,11.20437 5.0168919,9.1539891 V 7.0236643 l 2.7629525,2.7629525 c 2.7075036,2.7075032 2.7624596,2.7638722 2.7384196,2.8087932 -0.05124,0.09575 -0.263506,0.361193 -0.398026,0.497751 -0.4112511,0.41748 -0.8937894,0.687252 -1.4800353,0.827441 -0.1681785,0.04022 -0.2476652,0.04753 -0.5760135,0.05301 -0.2095017,0.0035 -0.4310811,-0.0014 -0.4923987,-0.01091 z"
     id="path6" />
  <path
     style="fill:#ffffff;stroke-width:0.0185811"
     d="m 5.0168919,18.506757 v -0.492399 h 0.99424 0.99424 l -0.0048,-1.060771 -0.0048,-1.060772 -0.241554,-0.06181 C 6.2627145,15.705226 5.8714624,15.540703 5.4210824,15.270409 4.2309561,14.556159 3.3667189,13.323127 3.1031791,11.96339 3.0215053,11.541993 3.0105445,11.325711 3.0103341,10.131334 l -1.99e-4,-1.1288002 h 0.4923987 0.4923986 v 1.1155972 c 0,0.640001 0.0082,1.192519 0.019225,1.29603 0.1561008,1.465048 1.0865959,2.715714 2.443426,3.284175 0.8214126,0.344141 1.7737939,0.400922 2.6363436,0.157176 0.8022473,-0.226704 1.55512,-0.738169 2.072976,-1.408277 l 0.1191,-0.154116 0.348047,0.347685 0.348047,0.347686 -0.114271,0.14089 c -0.264514,0.326132 -0.653814,0.694103 -0.988603,0.93444 -0.551894,0.396191 -1.0370828,0.614575 -1.8070104,0.81334 l -0.07897,0.02039 v 1.058406 1.058405 H 9.9966216 11 v 0.492399 0.492398 H 8.0084459 5.0168919 Z"
     id="path7" />
  <path
     style="fill:#cccccc;stroke-width:0.0185811"
     d="M 12.491,10.484246 12.003378,9.9963635 V 9.4994486 9.0025338 h 0.492399 0.492399 v 0.9847973 c 0,0.5416389 -0.0021,0.9847969 -0.0048,0.9847969 -0.0026,0 -0.224207,-0.219547 -0.492399,-0.487882 z"
     id="path8" />
  <path
     style="fill:#cccccc;stroke-width:0.0185811"
     d="m 15.013774,13.007018 -0.361664,-0.362022 0.02492,-0.06067 c 0.01371,-0.03337 0.06529,-0.177735 0.114634,-0.320809 C 15.192619,11.100894 15.023623,9.8294311 14.32983,8.7888514 13.996315,8.2886307 13.493433,7.8269417 12.973822,7.5439189 12.88001,7.4928209 12.803054,7.4454864 12.80281,7.4387311 c -4.76e-4,-0.013125 0.404161,-0.8537539 0.417259,-0.8668515 0.01392,-0.01392 0.367041,0.1833376 0.567093,0.3167841 0.710417,0.4738894 1.300431,1.1402568 1.674236,1.8908971 0.709734,1.4252212 0.705021,3.0267722 -0.01308,4.4454992 l -0.07288,0.143979 z"
     id="path9" />
  <path
     style="fill:#999999;stroke-width:0.0185811"
     d="m 17.166124,15.157517 -0.346178,-0.348395 0.08311,-0.110964 c 0.101933,-0.1361 0.180772,-0.268294 0.332758,-0.557955 0.369933,-0.705035 0.61641,-1.505759 0.726387,-2.359798 0.05137,-0.398927 0.04632,-1.234389 -0.0099,-1.634095 C 17.850463,9.4217666 17.668913,8.7899335 17.381521,8.1597796 17.035219,7.4004546 16.576535,6.7522209 15.959073,6.1495091 15.413703,5.6171674 14.856766,5.226586 14.113631,4.855297 13.969842,4.7834563 13.849422,4.7221538 13.846032,4.7190692 c -0.0046,-0.0042 0.413309,-0.8496628 0.434033,-0.8780583 0.0066,-0.00903 0.771905,0.3933921 0.92855,0.4882561 1.462704,0.8858145 2.583147,2.1970821 3.213781,3.7611278 0.272265,0.6752488 0.456908,1.4218019 0.533503,2.1570712 0.03149,0.302278 0.03149,1.20279 0,1.505068 -0.05345,0.513122 -0.184815,1.144093 -0.338884,1.627758 -0.155438,0.487964 -0.454608,1.150885 -0.716094,1.586769 -0.119928,0.199914 -0.357966,0.538068 -0.379145,0.538609 -0.0052,1.33e-4 -0.165254,-0.156536 -0.355652,-0.348153 z"
     id="path10" />
  <path
     style="fill:#999999;stroke-width:0.0185811"
     d="m 15.020957,12.993651 -0.354888,-0.358516 0.06277,-0.16723 c 0.289602,-0.771528 0.35631,-1.486949 0.208396,-2.234963 C 14.71,9.0837961 13.988066,8.0931045 12.965115,7.5266509 c -0.06889,-0.038148 -0.129907,-0.076884 -0.135591,-0.08608 -0.01275,-0.020633 0.383691,-0.8535772 0.406263,-0.8535772 0.02616,0 0.363771,0.1936775 0.543698,0.3119026 0.748507,0.491824 1.406871,1.2704628 1.767967,2.0909508 0.59726,1.3571029 0.573908,2.7987839 -0.06711,4.1431619 l -0.104497,0.219157 z"
     id="path11" />
  <path
     style="fill:#999999;stroke-width:0.0185811"
     d="m 17.172961,15.147628 -0.339331,-0.339704 0.08183,-0.110888 c 0.336289,-0.455722 0.711753,-1.321164 0.894922,-2.062788 0.138414,-0.560415 0.194215,-1.021392 0.194452,-1.606376 3.25e-4,-0.802831 -0.10555,-1.4675239 -0.34924,-2.1925679 C 17.309538,7.8057046 16.788759,6.9652015 16.026512,6.2060811 15.457068,5.6389721 14.919045,5.2533919 14.168074,4.8742108 14.004561,4.7916493 13.867717,4.7214193 13.863978,4.7181442 c -0.006,-0.00528 0.397752,-0.8416422 0.414329,-0.8582197 0.0092,-0.00925 0.369345,0.1728228 0.694666,0.3512264 1.453288,0.7969716 2.660894,2.1131348 3.330657,3.6300653 0.354121,0.8020394 0.586533,1.7044062 0.648463,2.5177368 0.02468,0.324068 0.0244,0.960021 -5.52e-4,1.291385 -0.03668,0.487029 -0.184009,1.224915 -0.343171,1.71875 -0.179443,0.55676 -0.554334,1.362515 -0.812301,1.74588 -0.120729,0.179416 -0.262003,0.372363 -0.272639,0.372363 -0.0061,0 -0.163837,-0.152866 -0.350469,-0.339703 z"
     id="path12" />
  <path
     style="fill:#999999;stroke-width:0.0185811"
     d="m 14.059829,17.724251 c -0.120852,-0.240867 -0.21701,-0.44041 -0.213682,-0.443429 0.0033,-0.003 0.115714,-0.06028 0.249748,-0.127255 0.207196,-0.103527 0.46348,-0.249125 0.626281,-0.355796 0.04047,-0.02652 0.05324,-0.01594 0.400756,0.331915 l 0.358952,0.359307 -0.222261,0.140808 c -0.169779,0.10756 -0.952901,0.535086 -0.975955,0.532798 -0.0023,-2.24e-4 -0.102986,-0.197481 -0.223839,-0.438348 z"
     id="path13" />
</svg>
