<?xml version="1.0" encoding="UTF-8" standalone="no"?>
<svg
   height="22"
   width="22"
   version="1.1"
   id="svg1"
   sodipodi:docname="network-flightmode-off.svg"
   inkscape:version="1.3.2 (091e20ef0f, 2023-11-25, custom)"
   xmlns:inkscape="http://www.inkscape.org/namespaces/inkscape"
   xmlns:sodipodi="http://sodipodi.sourceforge.net/DTD/sodipodi-0.dtd"
   xmlns="http://www.w3.org/2000/svg"
   xmlns:svg="http://www.w3.org/2000/svg">
  <sodipodi:namedview
     id="namedview1"
     pagecolor="#505050"
     bordercolor="#ffffff"
     borderopacity="1"
     inkscape:showpageshadow="0"
     inkscape:pageopacity="0"
     inkscape:pagecheckerboard="1"
     inkscape:deskcolor="#d1d1d1"
     inkscape:zoom="53.818182"
     inkscape:cx="10.990709"
     inkscape:cy="11"
     inkscape:window-width="2560"
     inkscape:window-height="1388"
     inkscape:window-x="2560"
     inkscape:window-y="28"
     inkscape:window-maximized="1"
     inkscape:current-layer="svg1" />
  <defs
     id="defs4157">
    <style
       id="current-color-scheme"
       type="text/css">.ColorScheme-Text{color:#31363b;}.ColorScheme-NegativeText { color: #e74c3c; } </style>
  </defs>
  <path
     id="path1816"
     d="M 14.84845,13.999854 14,14.848291 16.15156,16.999854 14,19.151417 14.84845,19.999854 17.00001,17.84829 19.15155,19.999854 20,19.151417 17.84844,16.999854 20,14.848291 19.15155,13.999854 17.00001,16.151417 Z"
     class="ColorScheme-NegativeText"
     style="fill:currentColor;fill-opacity:1;stroke:none;stroke-width:1.2" />
  <path
     class="ColorScheme-Text"
     id="path1820"
     d="M 8,3 C 5.23858,3 3,5.238576 3,8 H 4 C 4,5.790861 5.79086,4 8,4 Z m 3,0 c 0,0 -1,0 -1,3 V 8.5 L 8.90039,9.050781 V 9 H 8.09961 V 9.550781 H 8 V 9.75 l -2,1 v -0.5 H 5.9004 V 9.699219 H 5.09962 V 10.25 H 5 v 1 l -2,1 v 1 L 5.1914,12.976562 5.30078,13.25 h 0.39844 l 0.14257,-0.355469 2.75196,-0.34375 h 0.10547 l 0.006,-0.01367 L 10,12.125 V 15 c 0,0.487991 0.24052,0.971967 0.48438,1.34375 L 8,18 v 1 l 3,-1 2,0.671875 v -1.34375 L 11.51563,16.34375 C 11.75948,15.971967 12,15.487991 12,15 v -2.875 l 1.29492,0.162109 0.006,0.01367 h 0.10547 l 2.75195,0.34375 0.14258,0.355469 h 0.39844 L 16.80864,12.72656 19,13 V 12 L 17,11 V 10 H 16.9004 V 9.449219 H 16.09962 V 10 H 16 v 0.5 l -2,-1 V 9.300781 H 13.9004 V 8.75 H 13.09962 V 8.80078 L 12,8.5 V 6 C 12,3 11,3 11,3 Z M 8,5 C 6.34315,5 5,6.343146 5,8 H 6 C 6,6.895431 6.89543,6 8,6 Z M 8,7 C 8,7 7,7 7,8 h 1 z"
     style="opacity:0.35;fill:currentColor;fill-opacity:1;fill-rule:evenodd;stroke:none;stroke-width:1px;stroke-linecap:butt;stroke-linejoin:miter;stroke-opacity:1" />
  <path
     style="opacity:0.3;fill:#ffffff;stroke:#cccccc;stroke-width:0.0185811"
     d="m 8.0084459,18.491177 v -0.489398 l 1.2356419,-0.82357 c 0.6796031,-0.452963 1.2356422,-0.829725 1.2356422,-0.83725 0,-0.0075 -0.03252,-0.06722 -0.07228,-0.132649 -0.109958,-0.180995 -0.23318,-0.435474 -0.287518,-0.593783 -0.114019,-0.33219 -0.109573,-0.258983 -0.118027,-1.943497 -0.00427,-0.850781 -0.00946,-1.546875 -0.011542,-1.546875 -0.00208,0 -0.2920834,0.09298 -0.6444551,0.206613 -0.3523718,0.113638 -0.6783025,0.210407 -0.7242907,0.215042 -0.045988,0.0046 -0.6831542,0.08307 -1.4159248,0.1743 -0.7327704,0.09123 -1.3397586,0.16587 -1.3488626,0.16587 -0.0091,0 -0.048655,0.07943 -0.087892,0.17652 l -0.071339,0.17652 H 5.4995414 5.3014792 l -0.05103,-0.130067 c -0.039165,-0.09982 -0.059552,-0.130068 -0.087679,-0.130068 -0.020157,0 -0.5038762,0.05853 -1.0749325,0.130068 -0.5710562,0.07154 -1.0471532,0.130067 -1.0579933,0.130067 -0.013396,0 -0.019709,-0.157735 -0.019709,-0.492421 v -0.492422 l 0.9937973,-0.496795 0.9937972,-0.496795 0.00494,-0.501915 0.00494,-0.501915 0.051098,-0.0059 0.051098,-0.0059 V 9.9768064 9.7086149 H 5.5 5.8902027 v 0.2681915 0.2681916 l 0.051098,0.0059 0.051098,0.0059 0.00518,0.246199 c 0.00285,0.13541 0.0091,0.246199 0.01389,0.246199 0.00479,0 0.4560656,-0.223633 1.0028392,-0.496963 l 0.994138,-0.4970036 v -0.097632 c 0,-0.091753 0.0028,-0.097632 0.046453,-0.097632 h 0.046453 V 9.28125 9.0025338 h 0.3994932 c 0.3424556,0 0.3994932,0.00397 0.3994932,0.027831 0,0.01916 0.1707825,-0.057502 0.5481419,-0.2460529 l 0.5481419,-0.2738832 4.465e-4,-1.226498 c 2.457e-4,-0.6745737 0.0042,-1.2975704 0.00878,-1.384437 0.0046,-0.086867 0.01254,-0.2881526 0.01768,-0.4473025 0.02398,-0.7420188 0.157747,-1.4312032 0.360699,-1.8583424 0.135576,-0.2853398 0.337459,-0.5016665 0.529113,-0.5669698 0.07846,-0.026733 0.09359,-0.026674 0.174542,6.807e-4 0.39844,0.1346375 0.701844,0.7566111 0.829919,1.7013259 0.06092,0.4493651 0.07019,0.7075735 0.07971,2.2204392 0.0053,0.8482264 0.01511,1.547669 0.02172,1.5543169 0.02863,0.028803 1.070045,0.2977782 1.076615,0.2780674 0.0048,-0.014391 0.128587,-0.020729 0.404855,-0.020729 h 0.397945 v 0.2694257 0.2694257 h 0.04645 c 0.04392,0 0.04645,0.00558 0.04645,0.1021621 v 0.1021621 l 1.003378,0.5017563 1.003379,0.501757 v -0.250878 -0.250879 h 0.05574 0.05574 V 9.7271959 9.4484797 H 16.5 16.890203 v 0.2787162 0.2787161 h 0.05574 0.05574 v 0.501712 0.501712 l 0.994088,0.49694 0.994088,0.496941 v 0.49666 0.49666 l -0.0511,-0.0091 c -0.0281,-0.005 -0.490076,-0.06315 -1.026605,-0.12916 -0.536529,-0.06601 -1.005006,-0.124198 -1.04106,-0.12931 l -0.06555,-0.0093 -0.05304,0.138918 -0.05304,0.138918 h -0.199471 -0.19947 l -0.06562,-0.171875 c -0.05112,-0.133899 -0.07527,-0.174951 -0.109302,-0.185797 -0.03592,-0.01145 -4.047476,-0.515639 -4.102627,-0.515639 -0.01026,0 -0.02025,0.620897 -0.02489,1.546875 -0.0085,1.684528 -0.004,1.611337 -0.118035,1.943497 -0.05497,0.160139 -0.202529,0.463635 -0.298144,0.613231 -0.03494,0.05466 -0.06101,0.106009 -0.05794,0.114112 0.0031,0.0081 0.333772,0.232902 0.734891,0.499554 l 0.729308,0.484821 v 0.668701 0.668702 L 11.994589,18.32803 11.001015,17.992375 9.5186596,18.486493 c -0.8152955,0.271765 -1.4886263,0.494118 -1.4962906,0.494118 -0.00766,0 -0.013935,-0.220229 -0.013935,-0.489397 z"
     id="path8" />
  <path
     style="opacity:0.3;fill:#ffffff;stroke:#cccccc;stroke-width:0.0185811"
     d="M 7.0053902,7.9387669 C 7.0059735,7.8295929 7.0595665,7.6202898 7.1167633,7.5038083 7.1868234,7.3611309 7.3518464,7.2041212 7.511472,7.128266 7.6458734,7.0643976 7.8265987,7.0143581 7.9228679,7.0143581 h 0.066997 V 7.5067568 7.9991554 H 7.4974662 7.0050676 Z"
     id="path9" />
  <path
     style="opacity:0.3;fill:#ffffff;stroke:#cccccc;stroke-width:0.0185811"
     d="M 5.0074132,7.8830236 C 5.0130061,7.8191512 5.022115,7.716723 5.0276552,7.6554054 5.0646033,7.2464748 5.2433546,6.7510129 5.4919437,6.3684934 6.0063458,5.5769508 6.861771,5.0759435 7.8043226,5.0141745 L 7.9898649,5.0020152 V 5.4950239 5.9880326 L 7.8458615,6.0007383 C 7.655481,6.017536 7.4246791,6.0722869 7.2508771,6.1418806 6.8239567,6.3128279 6.4160981,6.6877448 6.2107789,7.097973 6.086065,7.3471514 6.0016892,7.6705557 6.0016892,7.8993934 v 0.099762 H 5.4994667 4.9972442 Z"
     id="path10" />
  <path
     style="opacity:0.3;fill:#ffffff;stroke:#cccccc;stroke-width:0.0185811"
     d="M 3.0102876,7.8365709 C 3.0105804,7.5242824 3.0811596,7.056298 3.1851237,6.6772982 3.643641,5.0057784 4.9386007,3.6897793 6.5999199,3.2070213 6.9888528,3.0940024 7.3235466,3.0385024 7.7904252,3.0096077 l 0.2000534,-0.012381 -0.00495,0.4988529 -0.00495,0.4988529 -0.2322635,0.012344 C 5.953596,4.1026565 4.4152129,5.4538046 4.0706561,7.2373316 4.0303311,7.4460651 3.9949371,7.7596668 3.9949371,7.9082192 v 0.090937 H 3.5025338 3.0101351 Z"
     id="path11" />
</svg>
