<?xml version="1.0" encoding="UTF-8" standalone="no"?>
<svg
   width="32"
   height="32"
   version="1.1"
   id="svg1"
   sodipodi:docname="input-mouse-battery-symbolic.svg"
   inkscape:version="1.3.2 (091e20ef0f, 2023-11-25, custom)"
   xmlns:inkscape="http://www.inkscape.org/namespaces/inkscape"
   xmlns:sodipodi="http://sodipodi.sourceforge.net/DTD/sodipodi-0.dtd"
   xmlns="http://www.w3.org/2000/svg"
   xmlns:svg="http://www.w3.org/2000/svg">
  <defs
     id="defs1" />
  <sodipodi:namedview
     id="namedview1"
     pagecolor="#505050"
     bordercolor="#ffffff"
     borderopacity="1"
     inkscape:showpageshadow="0"
     inkscape:pageopacity="0"
     inkscape:pagecheckerboard="1"
     inkscape:deskcolor="#d1d1d1"
     inkscape:zoom="37"
     inkscape:cx="15.986486"
     inkscape:cy="16"
     inkscape:window-width="2560"
     inkscape:window-height="1388"
     inkscape:window-x="2560"
     inkscape:window-y="28"
     inkscape:window-maximized="1"
     inkscape:current-layer="svg1" />
  <style
     type="text/css"
     id="current-color-scheme">.ColorScheme-Text{color:#31363b;}.ColorScheme-Background{color:#eff0f1;}.ColorScheme-Highlight{color:#3daee9;}.ColorScheme-ViewText{color:#31363b;}.ColorScheme-ViewBackground{color:#fcfcfc;}.ColorScheme-ViewHover{color:#93cee9;}.ColorScheme-ViewFocus{color:#3daee9;}.ColorScheme-ButtonText{color:#31363b;}.ColorScheme-ButtonBackground{color:#eff0f1;}.ColorScheme-ButtonHover{color:#93cee9;}.ColorScheme-ButtonFocus { color: #3daee9; } </style>
  <g
     id="input-mouse-battery"
     transform="translate(-332,-300.36238) translate(-38,-256)">
    <path
       class="ColorScheme-Text"
       d="m386 560.36238a8 9 0 0 0-8 9v6a8 9 0 0 0 8 9 8 9 0 0 0 8-9v-6a8 9 0 0 0-8-9zm0 1a7 8 0 0 1 7 8v6a7 8 0 0 1-7 8 7 8 0 0 1-7-8v-6a7 8 0 0 1 7-8zm0 3a1 1 0 0 0-1 1v3a1 1 0 0 0 1 1 1 1 0 0 0 1-1v-3a1 1 0 0 0-1-1zm0 8-2 5h2v3l2-5h-2z"
       fill="currentColor"
       id="path1" />
    <rect
       x="370"
       y="556.36237"
       width="32"
       height="32"
       ry="0"
       fill="none"
       id="rect1" />
  </g>
  <path
     style="fill:#ffffff;stroke:#cccccc;stroke-width:0.027027"
     d="m 15.767099,12.96084 c -0.376893,-0.08998 -0.674291,-0.418424 -0.738791,-0.815924 -0.03557,-0.219239 -0.03751,-3.0597998 -0.0022,-3.275207 0.05655,-0.3452919 0.254283,-0.6163903 0.556685,-0.7632343 0.142415,-0.069155 0.189384,-0.077928 0.417237,-0.077928 0.227967,0 0.274787,0.00875 0.41756,0.078081 0.297582,0.144496 0.500633,0.4187536 0.554132,0.7484564 0.03732,0.2300223 0.03729,3.0600139 -3.9e-5,3.2900719 -0.04684,0.28869 -0.182119,0.505738 -0.412311,0.66155 -0.230275,0.155867 -0.535907,0.215329 -0.792243,0.154134 z"
     id="path2" />
  <path
     style="fill:#ffffff;stroke:#cccccc;stroke-width:0.027027"
     d="m 16,22.463964 v -1.477478 h -0.989378 c -0.930836,0 -0.988355,-0.0028 -0.972083,-0.0473 0.0095,-0.02601 0.451692,-1.134403 0.982621,-2.463088 l 0.965326,-2.415791 0.007,1.476602 0.007,1.476602 h 0.986255 c 0.542441,0 0.986256,0.0061 0.986256,0.01345 0,0.01939 -1.948832,4.88975 -1.96198,4.903219 C 16.004947,23.936374 16,23.276576 16,22.463964 Z"
     id="path3" />
  <path
     style="fill:#ffffff;stroke:#cccccc;stroke-width:0.027027"
     d="M 15.310811,27.956153 C 13.285136,27.764381 11.332655,26.649421 9.9921053,24.918919 8.9135463,23.526618 8.2802206,21.924628 8.061417,20.035267 8.01786,19.659153 8.0135135,19.29302 8.0135135,16 c 0,-3.29302 0.00435,-3.659153 0.047904,-4.035267 C 8.2889504,9.9999905 8.9529944,8.3717216 10.119211,6.9189189 10.401268,6.5675494 10.992539,5.9779959 11.351351,5.6903563 12.709886,4.6012975 14.339296,4.0135587 16,4.0135587 c 1.665451,0 3.283903,0.5849338 4.655308,1.6825012 0.152418,0.1219842 0.441554,0.3862194 0.642524,0.5871892 1.136612,1.1366114 1.93643,2.5490609 2.363047,4.1730539 0.189403,0.720993 0.272599,1.296985 0.31471,2.178832 0.03825,0.800907 0.01621,6.964009 -0.02614,7.310811 -0.166152,1.360608 -0.429923,2.304363 -0.936672,3.351351 -0.448187,0.925992 -1.004009,1.71041 -1.714323,2.419382 -1.308089,1.305616 -2.914867,2.079945 -4.649803,2.240805 -0.355972,0.033 -0.981727,0.03238 -1.337838,-0.0013 z m 1.233623,-0.970446 c 0.838742,-0.08333 1.561773,-0.292649 2.29719,-0.665049 0.645552,-0.326894 1.225088,-0.750364 1.768676,-1.292382 1.190079,-1.186642 2.000271,-2.807446 2.280727,-4.562641 0.109003,-0.682181 0.113122,-0.869956 0.102991,-4.695365 -0.0097,-3.675029 -0.01,-3.690641 -0.07072,-4.067567 C 22.702806,10.333771 22.27652,9.2058765 21.590276,8.1757041 21.245587,7.6582657 21.03106,7.3943497 20.622467,6.9850819 20.230368,6.5923354 19.891931,6.3147868 19.472973,6.0423947 17.314165,4.6388113 14.659666,4.6407609 12.517282,6.0475034 10.796574,7.1773632 9.5495602,9.1215322 9.1499994,11.297297 9.0097299,12.061119 9.0135135,11.929629 9.0135135,16.040541 v 3.851351 l 0.062044,0.391892 c 0.2630588,1.661565 0.8403906,2.995029 1.8254385,4.216216 0.218708,0.271136 0.760956,0.808957 1.04495,1.036418 1.348949,1.080417 3.017665,1.606341 4.598488,1.449289 z"
     id="path4" />
</svg>
