<?xml version="1.0" encoding="UTF-8" standalone="no"?>
<svg
   version="1.1"
   viewBox="0 0 32 32"
   id="svg1"
   sodipodi:docname="phone-symbolic.svg"
   inkscape:version="1.3.2 (091e20ef0f, 2023-11-25, custom)"
   xmlns:inkscape="http://www.inkscape.org/namespaces/inkscape"
   xmlns:sodipodi="http://sodipodi.sourceforge.net/DTD/sodipodi-0.dtd"
   xmlns="http://www.w3.org/2000/svg"
   xmlns:svg="http://www.w3.org/2000/svg">
  <defs
     id="defs1" />
  <sodipodi:namedview
     id="namedview1"
     pagecolor="#505050"
     bordercolor="#ffffff"
     borderopacity="1"
     inkscape:showpageshadow="0"
     inkscape:pageopacity="0"
     inkscape:pagecheckerboard="1"
     inkscape:deskcolor="#d1d1d1"
     inkscape:zoom="37"
     inkscape:cx="15.986486"
     inkscape:cy="16"
     inkscape:window-width="2560"
     inkscape:window-height="1388"
     inkscape:window-x="2560"
     inkscape:window-y="28"
     inkscape:window-maximized="1"
     inkscape:current-layer="svg1" />
  <style
     id="current-color-scheme"
     type="text/css">.ColorScheme-Text{color:#31363b;}.ColorScheme-Background{color:#eff0f1;}.ColorScheme-Highlight{color:#3daee9;}.ColorScheme-ViewText{color:#31363b;}.ColorScheme-ViewBackground{color:#fcfcfc;}.ColorScheme-ViewHover{color:#93cee9;}.ColorScheme-ViewFocus{color:#3daee9;}.ColorScheme-ButtonText{color:#31363b;}.ColorScheme-ButtonBackground{color:#eff0f1;}.ColorScheme-ButtonHover{color:#93cee9;}.ColorScheme-ButtonFocus { color: #3daee9; } </style>
  <path
     class="ColorScheme-Text"
     d="m11.023 3c-1.1209 0-2.0234 0.90252-2.0234 2.0234v21.953c0 1.1209 0.90252 2.0234 2.0234 2.0234h9.9434c1.1209 0 2.0234-0.90252 2.0234-2.0234v-21.953c0-1.1209-0.90252-2.0234-2.0234-2.0234h-9.9434zm-0.023438 1h10c0.554 0 1 0.446 1 1v22c0 0.554-0.446 1-1 1h-10c-0.554 0-1-0.446-1-1v-22c0-0.554 0.446-1 1-1zm1 1a1 1 0 0 0-1 1 1 1 0 0 0 1 1 1 1 0 0 0 1-1 1 1 0 0 0-1-1zm1.5 21c-0.277 0-0.5 0.223-0.5 0.5s0.223 0.5 0.5 0.5h5c0.277 0 0.5-0.223 0.5-0.5s-0.223-0.5-0.5-0.5h-5z"
     fill="currentColor"
     id="path1" />
  <path
     style="fill:#ffffff;stroke:#cccccc;stroke-width:0.027027"
     d="M 11.767099,6.9608398 C 11.49698,6.8963538 11.231563,6.6801702 11.118022,6.4321627 10.882423,5.9175485 11.083847,5.3490633 11.588736,5.1036492 11.724528,5.0376438 11.774343,5.0285469 12,5.0285469 c 0.225657,0 0.275472,0.0091 0.411264,0.075102 0.691302,0.3360249 0.770257,1.2794645 0.14279,1.706201 -0.224457,0.1526521 -0.532456,0.2117465 -0.786955,0.1509899 z"
     id="path2" />
  <path
     style="fill:#ffffff;stroke:#cccccc;stroke-width:0.027027"
     d="M 10.621622,28.946036 C 9.8793428,28.79658 9.2892397,28.238051 9.0734724,27.480722 l -0.059959,-0.210452 -0.008,-11.094594 C 8.9999107,8.3979235 9.0061959,5.005075 9.02654,4.8268465 9.1209945,3.999363 9.6313041,3.3697255 10.427928,3.0977655 l 0.207207,-0.070739 5.256757,-0.00752 c 4.728891,-0.00677 5.278326,-0.00318 5.471556,0.035688 0.707486,0.1423283 1.272255,0.6439702 1.520126,1.3502138 l 0.07588,0.2162162 V 16 27.378378 l -0.07588,0.216217 c -0.199501,0.568425 -0.617732,1.015855 -1.167358,1.248857 -0.351845,0.149157 -0.110734,0.143251 -5.735347,0.140495 -4.155461,-0.002 -5.218415,-0.0096 -5.359247,-0.03791 z m 10.635946,-0.97441 c 0.313768,-0.08173 0.572003,-0.315438 0.686415,-0.621232 L 22,27.200675 V 16 4.799325 L 21.943983,4.6496062 C 21.871734,4.4565021 21.71669,4.2616834 21.550274,4.1548946 21.271168,3.9757929 21.624639,3.9864865 15.983655,3.9864865 c -5.041869,0 -5.115489,7.547e-4 -5.284862,0.054178 -0.307041,0.096847 -0.530695,0.3093783 -0.643861,0.6118401 C 10.000032,4.7992401 10,4.8058059 10,16 v 11.200675 l 0.05632,0.150536 c 0.07504,0.200557 0.198058,0.356873 0.377243,0.479343 0.28059,0.191779 -0.104684,0.179211 5.553999,0.181181 4.531131,0.0016 5.127381,-0.003 5.270003,-0.04011 z"
     id="path3" />
  <path
     style="fill:#ffffff;stroke:#cccccc;stroke-width:0.027027"
     d="m 13.2763,26.929443 c -0.339419,-0.168642 -0.33812,-0.694571 0.0021,-0.85928 0.116329,-0.05631 0.132478,-0.05665 2.721579,-0.05665 2.589101,0 2.60525,3.36e-4 2.721579,0.05665 0.321909,0.155834 0.345901,0.627784 0.04248,0.835707 l -0.09792,0.0671 -2.637123,0.007 -2.637124,0.007 z"
     id="path4" />
</svg>
