<?xml version="1.0" encoding="UTF-8" standalone="no"?>
<svg
   viewBox="0 0 22 22"
   version="1.1"
   id="svg2"
   sodipodi:docname="auth-sim-missing.svg"
   inkscape:version="1.3.2 (091e20ef0f, 2023-11-25, custom)"
   xmlns:inkscape="http://www.inkscape.org/namespaces/inkscape"
   xmlns:sodipodi="http://sodipodi.sourceforge.net/DTD/sodipodi-0.dtd"
   xmlns="http://www.w3.org/2000/svg"
   xmlns:svg="http://www.w3.org/2000/svg">
  <defs
     id="defs2" />
  <sodipodi:namedview
     id="namedview2"
     pagecolor="#505050"
     bordercolor="#ffffff"
     borderopacity="1"
     inkscape:showpageshadow="0"
     inkscape:pageopacity="0"
     inkscape:pagecheckerboard="1"
     inkscape:deskcolor="#d1d1d1"
     inkscape:zoom="33.590909"
     inkscape:cx="10.985115"
     inkscape:cy="10.985115"
     inkscape:window-width="2560"
     inkscape:window-height="1388"
     inkscape:window-x="2560"
     inkscape:window-y="28"
     inkscape:window-maximized="1"
     inkscape:current-layer="svg2" />
  <style
     type="text/css"
     id="current-color-scheme">.ColorScheme-Text{color:#232629;}.ColorScheme-NegativeText { color: #da4453; } </style>
  <path
     d="m5.1210938 3 2 2h.8789062v.8789062l1 1v-1.8789062h4v3h-2.878906l1 1h3.171875l1 1h.707031v3h-.707031l-.085938.085938.707031.707031.085938-.085938v.171875l1 1v-9.5859372l-2.292969-2.2929688zm8.8789062 2h1c.554 0 1 .446 1 1v3.2929688l-1.292969-1.2929688h-.707031zm-9 2.1210938v11.8789062h11.878906l-1.24414-1.244141c-.173646.145663-.38935.244141-.634766.244141h-1v-1.878906l-1-1v2.878906h-4v-3h3.878906l-1-1h-4.1718748l-1-1h-.7070312v-3h.7070312l.5859376-.5859375-.7070313-.7070313-.5859375.5859376v-1.171875zm1 6.5859372 1.2929688 1.292969h.7070312v3h-1c-.554 0-1-.446-1-1z"
     class="ColorScheme-Text"
     fill="currentColor"
     id="path1" />
  <path
     d="m3.5 2.7929688-.7070312.7070312 15.353516 15.353516.353516.353515.707031-.707031-.353515-.353516-15-15z"
     class="ColorScheme-NegativeText"
     fill="currentColor"
     stroke-linecap="square"
     stroke-miterlimit="0"
     id="path2" />
  <path
     style="fill:#ffffff;stroke:#cccccc;stroke-width:0.02977"
     d="M 5.0013532,13.061908 V 7.145467 l 0.4912043,0.4905276 0.4912043,0.4905276 v 0.595179 0.595179 L 6.2816619,9.020098 6.579562,8.7233157 6.9287849,9.0725387 7.2780078,9.4217616 6.9961548,9.7047915 6.7143018,9.9878214 h -0.36527 -0.36527 v 1.5182676 1.518268 h 0.3650204 0.3650204 l 0.4905276,0.491205 0.4905276,0.491204 h 2.0845739 2.0845733 l 0.490528,0.491204 0.490528,0.491205 H 10.917794 8.9905277 v 1.518267 1.518268 H 11 13.009472 v -1.436062 -1.436062 l 0.491205,0.490528 0.491204,0.490527 v 0.948591 0.948591 l 0.60477,-0.0105 0.604771,-0.0105 0.221346,-0.110526 0.221346,-0.110527 0.595307,0.594288 0.595307,0.594289 H 10.918041 5.0013532 Z m 3.0067659,3.445534 V 14.989175 H 7.6580624 7.3080057 L 6.6684709,14.34912 C 6.3167267,13.997091 6.0183651,13.709066 6.0054451,13.709066 c -0.01292,0 -0.019735,0.793742 -0.015145,1.76387 l 0.00835,1.76387 0.077435,0.165094 c 0.147803,0.315119 0.3905737,0.514409 0.7106427,0.583367 0.090509,0.0195 0.4023486,0.03658 0.6929778,0.03795 l 0.5284168,0.0025 z"
     id="path3" />
  <path
     style="fill:#ffffff;stroke:#cccccc;stroke-width:0.02977"
     d="m 16.499662,14.356234 c -0.389224,-0.389761 -0.483424,-0.499979 -0.483424,-0.565629 0,-0.08458 -0.02654,-0.102627 -0.0769,-0.05227 -0.0379,0.0379 -0.713162,-0.634164 -0.684224,-0.680987 0.01315,-0.02128 0.151862,-0.03299 0.390757,-0.03299 h 0.370367 V 11.506089 9.9878214 L 15.666441,9.9876502 15.316644,9.9874787 14.807281,9.4815609 14.297917,8.9756428 H 12.708149 11.118382 L 10.64276,8.4993234 10.167139,8.0230041 h 1.421167 1.421166 V 6.5047361 4.9864682 H 11 8.9905277 V 5.9164411 6.846414 L 8.4993234,6.3558863 8.0081191,5.8653587 V 5.4259135 4.9864682 H 7.568843 7.129567 L 6.1474966,4.0040595 5.1654263,3.0216509 h 4.780103 4.7801027 l 1.136508,1.1435768 1.136507,1.1435769 v 4.7657604 c 0,2.621168 -0.0035,4.76576 -0.0078,4.76576 -0.0043,0 -0.225322,-0.217841 -0.491204,-0.484091 z m -0.489693,-7.1667888 -0.0086,-1.443843 -0.0828,-0.1686069 C 15.812453,5.3609384 15.628141,5.1763697 15.420839,5.0785862 15.263208,5.0042322 15.233522,5.0009968 14.624493,4.9917929 l -0.632612,-0.00956 v 1.5203858 1.5203858 h 0.364942 0.364941 l 0.639795,0.640414 0.639794,0.6404143 0.0086,-0.3352722 c 0.0047,-0.1843996 0.0047,-0.9850013 0,-1.779115 z"
     id="path4" />
</svg>
