<?xml version="1.0" encoding="UTF-8" standalone="no"?>
<svg
   height="22"
   width="22"
   version="1.1"
   id="svg2"
   sodipodi:docname="battery-040-charging.svg"
   inkscape:version="1.3.2 (091e20ef0f, 2023-11-25, custom)"
   xmlns:inkscape="http://www.inkscape.org/namespaces/inkscape"
   xmlns:sodipodi="http://sodipodi.sourceforge.net/DTD/sodipodi-0.dtd"
   xmlns="http://www.w3.org/2000/svg"
   xmlns:svg="http://www.w3.org/2000/svg">
  <sodipodi:namedview
     id="namedview2"
     pagecolor="#505050"
     bordercolor="#ffffff"
     borderopacity="1"
     inkscape:showpageshadow="0"
     inkscape:pageopacity="0"
     inkscape:pagecheckerboard="1"
     inkscape:deskcolor="#d1d1d1"
     inkscape:zoom="33.590909"
     inkscape:cx="10.985115"
     inkscape:cy="10.985115"
     inkscape:window-width="2560"
     inkscape:window-height="1388"
     inkscape:window-x="2560"
     inkscape:window-y="28"
     inkscape:window-maximized="1"
     inkscape:current-layer="svg2" />
  <defs
     id="defs1">
    <style
       type="text/css"
       id="current-color-scheme">.ColorScheme-Text{color:#232629;}.ColorScheme-PositiveText { color: #27ae60; } </style>
  </defs>
  <path
     style="fill:currentColor;fill-opacity:1;stroke:none"
     class="ColorScheme-Text"
     d="M3 7v8h6V7zM1 5v12h19v-4h.5c.277 0 .5-.223.5-.5v-3c0-.277-.223-.5-.5-.5H20V5H4zm1 1h17v10H2z"
     fill-rule="evenodd"
     id="path1" />
  <path
     d="M12 8a3 3 0 0 0-2.826 2H8v2h1.176A3 3 0 0 0 12 14v-1h2v-1h-2v-2h2V9h-2z"
     class="ColorScheme-PositiveText"
     fill="currentColor"
     id="path2" />
  <path
     style="fill:#ffffff;stroke:#cccccc;stroke-width:0.02977"
     d="M 3.0067659,11 V 7.0108254 h 2.9918809 2.9918809 v 1.488498 1.488498 H 8.4844384 7.9783491 V 11 12.012179 h 0.5060893 0.5060893 v 1.488498 1.488498 H 5.9986468 3.0067659 Z"
     id="path3" />
  <path
     style="fill:#ffffff;stroke:#cccccc;stroke-width:0.02977"
     d="M 1.0121786,11 V 5.0162382 h 9.4817324 9.481732 v 1.9913743 1.9913744 l 0.334912,0.011222 c 0.377547,0.012651 0.466057,0.046679 0.589317,0.2265654 l 0.07306,0.1066301 V 11 12.656595 l -0.07306,0.10663 c -0.12326,0.179887 -0.21177,0.213915 -0.589317,0.226566 l -0.334912,0.01122 v 1.991375 1.991374 H 10.493911 1.0121786 Z M 19.023004,11 V 5.9986468 H 10.508796 1.9945873 V 11 16.001353 h 8.5142087 8.514208 z"
     id="path4" />
</svg>
