<?xml version="1.0" encoding="UTF-8" standalone="no"?>
<svg
   height="22"
   width="22"
   version="1.1"
   id="svg2"
   sodipodi:docname="battery-100-charging.svg"
   inkscape:version="1.3.2 (091e20ef0f, 2023-11-25, custom)"
   xmlns:inkscape="http://www.inkscape.org/namespaces/inkscape"
   xmlns:sodipodi="http://sodipodi.sourceforge.net/DTD/sodipodi-0.dtd"
   xmlns="http://www.w3.org/2000/svg"
   xmlns:svg="http://www.w3.org/2000/svg">
  <sodipodi:namedview
     id="namedview2"
     pagecolor="#505050"
     bordercolor="#ffffff"
     borderopacity="1"
     inkscape:showpageshadow="0"
     inkscape:pageopacity="0"
     inkscape:pagecheckerboard="1"
     inkscape:deskcolor="#d1d1d1"
     inkscape:zoom="33.590909"
     inkscape:cx="10.985115"
     inkscape:cy="10.985115"
     inkscape:window-width="2560"
     inkscape:window-height="1388"
     inkscape:window-x="2560"
     inkscape:window-y="28"
     inkscape:window-maximized="1"
     inkscape:current-layer="svg2" />
  <defs
     id="defs1">
    <style
       type="text/css"
       id="current-color-scheme">.ColorScheme-Text{color:#232629;}.ColorScheme-PositiveText { color: #27ae60; } </style>
  </defs>
  <path
     style="fill:currentColor;fill-opacity:1;stroke:none"
     class="ColorScheme-Text"
     d="M3 15V7h15v8zM1 5v12h19v-4h.5c.277 0 .5-.223.5-.5v-3c0-.277-.223-.5-.5-.5H20V5H4zm1 1h17v10H2z"
     id="path1" />
  <path
     d="M12 8a3 3 0 0 0-2.826 2H8v2h1.176A3 3 0 0 0 12 14v-1h2v-1h-2v-2h2V9h-2z"
     class="ColorScheme-PositiveText"
     fill="currentColor"
     id="path2" />
  <path
     style="fill:#ffffff;stroke:#cccccc;stroke-width:0.02977"
     d="M 3.0067659,11 V 7.0108254 h 7.4871451 7.487144 V 11 14.989175 H 10.493911 3.0067659 Z m 9.0202981,2.515562 v -0.491205 h 0.997293 0.997294 V 12.503383 11.982409 H 13.024357 12.027064 V 11 10.017591 h 0.997293 0.997294 V 9.4966171 8.9756428 H 13.024357 12.027064 V 8.4799484 7.9842541 l -0.275373,0.019224 c -1.069632,0.074671 -2.0498315,0.7663364 -2.4977021,1.762471 l -0.099726,0.2218074 -0.5879567,3.24e-5 -0.5879567,3.25e-5 V 11 12.012179 l 0.5879567,4.59e-4 0.5879567,4.59e-4 0.1387486,0.289798 c 0.2751664,0.574728 0.7224745,1.045239 1.2777365,1.344018 0.389921,0.209811 0.90044,0.353595 1.270253,0.357758 l 0.186063,0.0021 z"
     id="path3" />
  <path
     style="fill:#ffffff;stroke:#cccccc;stroke-width:0.02977"
     d="M 1.0121786,11 V 5.0162382 h 9.4817324 9.481732 v 1.9913743 1.9913744 l 0.334912,0.011222 c 0.377547,0.012651 0.466057,0.046679 0.589317,0.2265654 l 0.07306,0.1066301 V 11 12.656595 l -0.07306,0.10663 c -0.12326,0.179887 -0.21177,0.213915 -0.589317,0.226566 l -0.334912,0.01122 v 1.991375 1.991374 H 10.493911 1.0121786 Z M 19.023004,11 V 5.9986468 H 10.508796 1.9945873 V 11 16.001353 h 8.5142087 8.514208 z"
     id="path4" />
</svg>
