<?xml version="1.0" encoding="UTF-8" standalone="no"?>
<svg
   height="22"
   width="22"
   version="1.1"
   id="svg3"
   sodipodi:docname="battery-missing.svg"
   inkscape:version="1.3.2 (091e20ef0f, 2023-11-25, custom)"
   xmlns:inkscape="http://www.inkscape.org/namespaces/inkscape"
   xmlns:sodipodi="http://sodipodi.sourceforge.net/DTD/sodipodi-0.dtd"
   xmlns="http://www.w3.org/2000/svg"
   xmlns:svg="http://www.w3.org/2000/svg">
  <sodipodi:namedview
     id="namedview3"
     pagecolor="#505050"
     bordercolor="#ffffff"
     borderopacity="1"
     inkscape:showpageshadow="0"
     inkscape:pageopacity="0"
     inkscape:pagecheckerboard="1"
     inkscape:deskcolor="#d1d1d1"
     inkscape:zoom="33.590909"
     inkscape:cx="10.985115"
     inkscape:cy="10.985115"
     inkscape:window-width="2560"
     inkscape:window-height="1388"
     inkscape:window-x="2560"
     inkscape:window-y="28"
     inkscape:window-maximized="1"
     inkscape:current-layer="svg3" />
  <defs
     id="defs1">
    <style
       type="text/css"
       id="current-color-scheme">.ColorScheme-Text{color:#232629;}.ColorScheme-NegativeText { color: #da4453; } </style>
  </defs>
  <path
     style="fill:currentColor;fill-opacity:1;stroke:none"
     class="ColorScheme-Text"
     d="M3 15V7h15v8zM1 5v12h19v-4h.5c.277 0 .5-.223.5-.5v-3c0-.277-.223-.5-.5-.5H20V5H4zm1 1h17v10H2z"
     id="path1" />
  <path
     style="fill:currentColor;fill-opacity:1;stroke:none"
     class="ColorScheme-NegativeText"
     d="M15 11h6c.554 0 1 .446 1 1v6c0 .554-.446 1-1 1h-6c-.554 0-1-.446-1-1v-6c0-.554.446-1 1-1z"
     id="path2" />
  <path
     d="M15.707 12l-.707.707L17.293 15 15 17.293l.707.707L18 15.707 20.293 18l.707-.707L18.707 15 21 12.707 20.293 12 18 14.293z"
     fill="#fff"
     id="path3" />
  <path
     style="fill:#ffffff;stroke:#cccccc;stroke-width:0.02977"
     d="M 3.0067659,11 V 7.0108254 h 7.4871451 7.487144 v 1.9936251 1.9936255 l -1.64479,0.0084 -1.64479,0.0084 -0.150045,0.0792 c -0.182544,0.09636 -0.383611,0.308432 -0.470334,0.496081 -0.06309,0.136517 -0.06449,0.170547 -0.07274,1.7691 l -0.0084,1.629906 H 8.4983535 3.0067659 Z"
     id="path4" />
  <path
     style="fill:#ffffff;stroke:#cccccc;stroke-width:0.02977"
     d="M 1.0121786,11 V 5.0162382 h 9.4817324 9.481732 v 1.9913743 1.9913744 l 0.334912,0.011222 c 0.377502,0.012649 0.466015,0.046668 0.589317,0.2264931 0.07268,0.1059926 0.07311,0.1109514 0.08183,0.934928 L 20.990474,11 H 20.006739 19.023004 V 8.4993234 5.9986468 H 10.508796 1.9945873 V 11 16.001353 h 5.9986468 5.9986469 v 0.491205 0.491204 H 7.5020298 1.0121786 Z"
     id="path5" />
</svg>
