<?xml version="1.0" encoding="UTF-8" standalone="no"?>
<svg
   viewBox="0 0 22 22"
   version="1.1"
   id="svg2"
   sodipodi:docname="call-missed.svg"
   inkscape:version="1.3.2 (091e20ef0f, 2023-11-25, custom)"
   xmlns:inkscape="http://www.inkscape.org/namespaces/inkscape"
   xmlns:sodipodi="http://sodipodi.sourceforge.net/DTD/sodipodi-0.dtd"
   xmlns="http://www.w3.org/2000/svg"
   xmlns:svg="http://www.w3.org/2000/svg">
  <defs
     id="defs2" />
  <sodipodi:namedview
     id="namedview2"
     pagecolor="#505050"
     bordercolor="#ffffff"
     borderopacity="1"
     inkscape:showpageshadow="0"
     inkscape:pageopacity="0"
     inkscape:pagecheckerboard="1"
     inkscape:deskcolor="#d1d1d1"
     inkscape:zoom="33.590909"
     inkscape:cx="10.985115"
     inkscape:cy="10.985115"
     inkscape:window-width="2560"
     inkscape:window-height="1388"
     inkscape:window-x="2560"
     inkscape:window-y="28"
     inkscape:window-maximized="1"
     inkscape:current-layer="svg2" />
  <style
     type="text/css"
     id="current-color-scheme">.ColorScheme-Text{color:#232629;}.ColorScheme-NegativeText { color: #da4453; } </style>
  <path
     d="m8 12.99999c-2.56828 0-4.78334 1.3818-6 3.43361l.00001.56641-.00001.99999s.00001.99999 1.00003 1h3c1 0 1-1 1-1v-.5c0-.831.66901-1.5 1.5-1.5l4.99997-.00001c.83098 0 1.5.669 1.5 1.50001v.5s0 .99999 1 .99999h3c1 0 1-.99999 1-.99999v-.99999-.56641c-1.21666-2.05181-3.43208-3.4336-6-3.4336z"
     class="ColorScheme-Text"
     fill="currentColor"
     id="path1" />
  <path
     d="m4.5 3.7929688-.7070312.7070312 7.2070312 7.207031 7-6.9999998v3.2929688h1v-5h-5v1h3.292969l-6.292969 6.292969z"
     class="ColorScheme-NegativeText"
     fill="currentColor"
     id="path2" />
  <path
     style="fill:#ffffff;stroke:#cccccc;stroke-width:0.02977"
     d="M 2.6325864,18.924236 C 2.3911085,18.840754 2.2261338,18.683707 2.1056284,18.422599 2.0421639,18.285086 2.0388457,18.23782 2.0302334,17.348636 l -0.00901,-0.93012 0.1396382,-0.216024 c 1.132235,-1.751597 3.022504,-2.922578 5.0795067,-3.146645 0.3956535,-0.0431 7.1236077,-0.0431 7.5192617,0 2.077645,0.226315 3.967405,1.40704 5.109016,3.19212 l 0.11012,0.172189 -0.009,0.9293 -0.009,0.929299 -0.07768,0.163735 c -0.09615,0.202666 -0.262507,0.375365 -0.441213,0.458038 -0.133792,0.06189 -0.166126,0.06294 -1.952013,0.06294 h -1.815967 l -0.163735,-0.09225 c -0.0942,-0.05307 -0.209699,-0.152519 -0.271961,-0.234156 -0.172784,-0.226554 -0.209442,-0.378939 -0.233008,-0.968587 -0.01689,-0.422596 -0.03246,-0.550459 -0.08248,-0.677115 -0.09486,-0.240221 -0.203426,-0.408363 -0.368759,-0.571109 -0.179041,-0.176238 -0.331802,-0.270104 -0.592968,-0.364356 l -0.192369,-0.06942 -2.568771,-0.009 c -1.5577936,-0.0054 -2.6724086,0.0026 -2.8321021,0.02043 -0.6027577,0.0673 -1.0690127,0.42235 -1.2853766,0.978814 -0.05541,0.142508 -0.06986,0.256908 -0.087374,0.691721 -0.022621,0.561622 -0.05745,0.722348 -0.2032086,0.937754 -0.092574,0.136808 -0.3156693,0.297059 -0.4752643,0.341386 -0.068834,0.01912 -0.7449352,0.03011 -1.821246,0.0296 -1.5526066,-7.31e-4 -1.7258043,-0.0057 -1.8626775,-0.05297 z"
     id="path3" />
</svg>
