<?xml version="1.0" encoding="UTF-8" standalone="no"?>
<svg
   viewBox="0 0 22 22"
   version="1.1"
   id="svg2"
   sodipodi:docname="camera-off.svg"
   inkscape:version="1.3.2 (091e20ef0f, 2023-11-25, custom)"
   xmlns:inkscape="http://www.inkscape.org/namespaces/inkscape"
   xmlns:sodipodi="http://sodipodi.sourceforge.net/DTD/sodipodi-0.dtd"
   xmlns="http://www.w3.org/2000/svg"
   xmlns:svg="http://www.w3.org/2000/svg">
  <defs
     id="defs2" />
  <sodipodi:namedview
     id="namedview2"
     pagecolor="#505050"
     bordercolor="#ffffff"
     borderopacity="1"
     inkscape:showpageshadow="0"
     inkscape:pageopacity="0"
     inkscape:pagecheckerboard="1"
     inkscape:deskcolor="#d1d1d1"
     inkscape:zoom="33.590909"
     inkscape:cx="10.985115"
     inkscape:cy="10.985115"
     inkscape:window-width="2560"
     inkscape:window-height="1388"
     inkscape:window-x="2560"
     inkscape:window-y="28"
     inkscape:window-maximized="1"
     inkscape:current-layer="svg2" />
  <style
     type="text/css"
     id="current-color-scheme">.ColorScheme-Text{color:#232629;}.ColorScheme-NegativeText { color: #da4453; } </style>
  <path
     d="m11 4a6 6 0 0 0 -3.6894531 1.2929688l.703125.703125a5 5 0 0 1 2.9863281-.9960938 5 5 0 0 1 3.091797 1.0839844 5 5 0 0 1 .199219.1640625 5 5 0 0 1 .183593.171875 5 5 0 0 1 .183594.1875 5 5 0 0 1 .177735.2011719 5 5 0 0 1 .15625.1914062h1.197265 1.810547v1h-1v4h1v1h-1.8125-1.171875l1 1h1.984375c.554 0 1-.446 1-1v-6c0-.554-.446-1-1-1h-2.537109a6 6 0 0 0 -4.462891-2zm-7.0136719 2.0019531c-.5473276.0076274-.9863281.4488411-.9863281.9980469v6c0 .554.446 1 1 1h2.5371094a6 6 0 0 0 4.4628906 2 6 6 0 0 0 2.449219-.535156l-.763672-.763672a5 5 0 0 1 -1.685547.298828 5 5 0 0 1 -3.0917969-1.083984 5 5 0 0 1 -.1992187-.164063 5 5 0 0 1 -.1835938-.171875 5 5 0 0 1 -.1835937-.1875 5 5 0 0 1 -.1777344-.201172 5 5 0 0 1 -.15625-.191406h-1.1972656-1.8105469v-1h1v-4h-1v-1h.984375zm7.0136719 9.9980469c-.554 0-1 .446-1 1 0 .028.013325.052078.015625.080078-1.6215174.2312-3.015625.919922-3.015625.919922v1h8v-1s-1.394113-.688822-3.015625-.919922c.0023-.028.015625-.052078.015625-.080078 0-.554-.446-1-1-1zm0-9a3 3 0 0 0 -1.5488281.4355469l4.1132811 4.1132811a3 3 0 0 0 .435547-1.548828 3 3 0 0 0 -3-3zm-3 3.015625a3 3 0 0 0 2.984375 2.984375z"
     style="fill:currentColor;fill-opacity:1;stroke:none"
     class="ColorScheme-Text"
     id="path1" />
  <path
     d="m-.49999997 4.7426407h1v21.6274173h-1z"
     style="fill:currentColor;fill-opacity:1;stroke:none"
     class="ColorScheme-NegativeText"
     transform="matrix(.70710678 -.70710678 .70710678 .70710678 0 0)"
     id="path2" />
  <path
     style="fill:#ffffff;stroke:#cccccc;stroke-width:0.02977"
     d="M 10.166441,15.924481 C 9.5179716,15.824437 9.0059135,15.666726 8.4308147,15.389919 7.7871245,15.080097 7.3641877,14.784913 6.843676,14.282194 L 6.5276766,13.976996 H 5.1702325 c -1.2963953,0 -1.3647934,-0.0027 -1.5208558,-0.06114 C 3.42107,13.830435 3.2145545,13.635632 3.1082582,13.405427 l -0.086607,-0.187565 v -3.200271 c 0,-3.6272028 -0.017067,-3.3715428 0.2444972,-3.6624654 C 3.4283885,6.1746752 3.6432205,6.0584862 3.8518548,6.0383541 L 4.0040595,6.0236672 4.4800299,6.5023613 4.9560003,6.9810555 H 4.4725874 3.9891746 v 0.5209743 0.5209743 h 0.4912043 0.4912043 v 1.9797019 1.979703 H 4.4803789 3.9891746 v 0.520974 0.520974 h 1.5111431 1.511143 l 0.1308063,0.163926 c 0.1844171,0.231112 0.606966,0.632087 0.8679092,0.823596 1.3141353,0.964461 3.0157058,1.254483 4.4891978,0.765155 l 0.189497,-0.06293 0.368558,0.367673 0.368558,0.367673 -0.09714,0.04984 c -0.305602,0.156783 -1.008548,0.351235 -1.545789,0.427602 -0.385023,0.05473 -1.254648,0.05344 -1.616616,-0.0024 z"
     id="path3" />
  <path
     style="fill:#ffffff;stroke:#cccccc;stroke-width:0.02977"
     d="M 10.73207,12.975062 C 9.2472466,12.798758 8.1631294,11.704307 8.0236926,10.240866 l -0.019856,-0.20839 1.475754,1.473501 c 0.8116654,0.810425 1.4757534,1.4769 1.4757534,1.481055 0,0.0086 -0.09163,0.0037 -0.223274,-0.01197 z"
     id="path4" />
  <path
     style="fill:#ffffff;stroke:#cccccc;stroke-width:0.02977"
     d="m 7.0257104,18.491131 v -0.487219 l 0.2117369,-0.09467 C 7.979157,17.577592 9.2452828,17.197034 9.87011,17.117941 l 0.150218,-0.01902 0.0038,-0.161537 c 0.0024,-0.104412 0.03145,-0.222156 0.08201,-0.332954 0.354111,-0.775947 1.433649,-0.775947 1.78776,0 0.05045,0.110542 0.07957,0.228577 0.082,0.332374 l 0.0038,0.160956 0.233964,0.03421 c 0.656426,0.09598 1.816283,0.449663 2.548944,0.777262 l 0.211737,0.09467 v 0.487219 0.487218 H 11 7.0257104 Z"
     id="path5" />
  <path
     style="fill:#ffffff;stroke:#cccccc;stroke-width:0.02977"
     d="M 11.510698,9.4863414 9.462036,7.4375177 9.6802737,7.3313227 C 10.155565,7.1000446 10.486427,7.0261149 11.02977,7.0297834 c 0.344272,0.00232 0.466041,0.015846 0.699936,0.077722 1.087132,0.2875968 1.910124,1.1253136 2.178238,2.2172106 0.08193,0.3336748 0.08911,0.95402 0.01482,1.280609 -0.0521,0.229038 -0.187383,0.595014 -0.297071,0.803665 l -0.06633,0.126175 z"
     id="path6" />
  <path
     style="fill:#ffffff;stroke:#cccccc;stroke-width:0.02977"
     d="m 15.525034,13.500677 -0.475622,-0.47632 h 1.480707 1.480706 V 12.503383 11.982409 H 17.519621 17.028417 V 10.002706 8.0230041 h 0.491204 0.491204 V 7.5020298 6.9810555 h -1.51215 -1.512151 L 14.874991,6.8348037 C 14.813648,6.7543653 14.62616,6.5567672 14.45835,6.3956968 13.660701,5.6300803 12.716414,5.1764955 11.614906,5.0298583 10.465134,4.8767961 9.2191568,5.1688734 8.2430182,5.8202835 L 8.0230041,5.9671063 7.8325291,5.7819293 C 7.548589,5.5058869 7.3530801,5.3029137 7.3539719,5.2851012 7.3552381,5.2598109 7.6748323,5.0393978 7.9528764,4.8720575 8.6232591,4.4685889 9.3705539,4.2015982 10.18539,4.0744334 c 0.405856,-0.063339 1.244784,-0.063285 1.649554,1.059e-4 1.327986,0.2079744 2.468849,0.7819824 3.394724,1.7080048 l 0.230951,0.2309877 1.41651,0.014885 1.416511,0.014885 0.152053,0.080221 c 0.199302,0.1051483 0.41009,0.3423401 0.478461,0.538392 0.05111,0.1465715 0.05419,0.3373773 0.05419,3.3563062 v 3.200901 l -0.09785,0.19875 c -0.11746,0.23859 -0.303809,0.4134 -0.531503,0.498591 -0.151886,0.05683 -0.228703,0.06053 -1.255066,0.06053 h -1.093279 z"
     id="path7" />
</svg>
