<?xml version="1.0" encoding="UTF-8" standalone="no"?>
<svg
   viewBox="0 0 22 22"
   version="1.1"
   id="svg2"
   sodipodi:docname="camera-ready.svg"
   inkscape:version="1.3.2 (091e20ef0f, 2023-11-25, custom)"
   xmlns:inkscape="http://www.inkscape.org/namespaces/inkscape"
   xmlns:sodipodi="http://sodipodi.sourceforge.net/DTD/sodipodi-0.dtd"
   xmlns="http://www.w3.org/2000/svg"
   xmlns:svg="http://www.w3.org/2000/svg">
  <sodipodi:namedview
     id="namedview2"
     pagecolor="#505050"
     bordercolor="#ffffff"
     borderopacity="1"
     inkscape:showpageshadow="0"
     inkscape:pageopacity="0"
     inkscape:pagecheckerboard="1"
     inkscape:deskcolor="#d1d1d1"
     inkscape:zoom="33.590909"
     inkscape:cx="10.985115"
     inkscape:cy="10.985115"
     inkscape:window-width="2560"
     inkscape:window-height="1388"
     inkscape:window-x="2560"
     inkscape:window-y="28"
     inkscape:window-maximized="1"
     inkscape:current-layer="svg2" />
  <defs
     id="defs3051">
    <style
       type="text/css"
       id="current-color-scheme">.ColorScheme-Text{color:#232629;}.ColorScheme-NeutralText { color: #f67400; } </style>
  </defs>
  <g
     transform="translate(0,-1030.3622)"
     id="g2">
    <path
       style="opacity:1;fill:currentColor;fill-opacity:1;stroke:none"
       d="M 11 4 A 6 6 0 0 0 6.546875 6 L 4 6 C 3.446 6 3 6.446 3 7 L 3 13 C 3 13.554 3.446 14 4 14 L 6.5371094 14 A 6 6 0 0 0 11 16 A 6 6 0 0 0 15.453125 14 L 18 14 C 18.554 14 19 13.554 19 13 L 19 7 C 19 6.446 18.554 6 18 6 L 15.462891 6 A 6 6 0 0 0 11 4 z M 11 16 C 10.446 16 10 16.446 10 17 C 10 17.028 10.013325 17.052078 10.015625 17.080078 C 8.3941076 17.311278 7 18 7 18 L 7 19 L 15 19 L 15 18 C 15 18 13.605887 17.311178 11.984375 17.080078 C 11.986675 17.052078 12 17.028 12 17 C 12 16.446 11.554 16 11 16 z M 11 5 A 5 5 0 0 1 14.091797 6.0839844 A 5 5 0 0 1 14.291016 6.2480469 A 5 5 0 0 1 14.474609 6.4199219 A 5 5 0 0 1 14.658203 6.6074219 A 5 5 0 0 1 14.835938 6.8085938 A 5 5 0 0 1 14.992188 7 L 16.189453 7 L 18 7 L 18 8 L 17 8 L 17 12 L 18 12 L 18 13 L 16.1875 13 L 14.992188 13 A 5 5 0 0 1 13.990234 14 A 5 5 0 0 1 11 15 A 5 5 0 0 1 7.9082031 13.916016 A 5 5 0 0 1 7.7089844 13.751953 A 5 5 0 0 1 7.5253906 13.580078 A 5 5 0 0 1 7.3417969 13.392578 A 5 5 0 0 1 7.1640625 13.191406 A 5 5 0 0 1 7.0078125 13 L 5.8105469 13 L 4 13 L 4 12 L 5 12 L 5 8 L 4 8 L 4 7 L 5.8125 7 L 7.0078125 7 A 5 5 0 0 1 7.328125 6.6152344 A 5 5 0 0 1 8.0097656 6 A 5 5 0 0 1 11 5 z "
       transform="translate(0,1030.3622)"
       class="ColorScheme-Text"
       id="path1" />
    <path
       style="fill:currentColor;fill-opacity:1;stroke:none"
       class="ColorScheme-NeutralText"
       d="m 12.999978,1040.3622 a 1.9999826,1.9999826 0 0 1 -1.999983,2 1.9999826,1.9999826 0 0 1 -1.9999824,-2 1.9999826,1.9999826 0 0 1 1.9999824,-2 1.9999826,1.9999826 0 0 1 1.999983,2 z"
       id="path2" />
  </g>
  <path
     style="fill:#ffffff;stroke:#cccccc;stroke-width:0.02977"
     d="M 10.166441,15.926325 C 9.5006943,15.819034 9.002386,15.665029 8.4308147,15.389919 7.7853362,15.079236 7.3550945,14.779054 6.8444825,14.283125 L 6.5292898,13.976996 H 5.171039 c -1.2972088,0 -1.3655947,-0.0027 -1.5216623,-0.06114 C 3.42107,13.830435 3.2145545,13.635632 3.1082582,13.405427 l -0.086607,-0.187565 v -3.200271 c 0,-3.0183202 0.00308,-3.2091059 0.054196,-3.3556766 0.06837,-0.1960519 0.2791588,-0.4332437 0.4784605,-0.538392 L 3.7063606,6.0433014 5.119804,6.0347414 6.5332475,6.0261814 6.8166918,5.7499198 C 7.432034,5.1501634 8.0746094,4.7314641 8.8561816,4.4209904 9.9352851,3.9923246 11.225466,3.9055955 12.394157,4.1831589 c 1.044247,0.2480081 2.053576,0.8173257 2.835511,1.5993852 l 0.230951,0.2309877 1.41651,0.014885 1.416511,0.014885 0.152053,0.080221 c 0.199302,0.1051483 0.41009,0.3423401 0.478461,0.538392 0.05111,0.1465715 0.05419,0.3373773 0.05419,3.3563062 v 3.200901 l -0.09785,0.19875 c -0.11746,0.23859 -0.303809,0.4134 -0.531503,0.498591 -0.153985,0.05761 -0.22726,0.06053 -1.519123,0.06053 h -1.357334 l -0.301437,0.290257 c -0.860634,0.828717 -1.853187,1.354156 -3.024963,1.601358 -0.323553,0.06826 -0.459552,0.07997 -1.041948,0.0897 -0.489253,0.0082 -0.742053,-4.46e-4 -0.937754,-0.03199 z m 1.652233,-0.984506 c 1.065437,-0.183223 2.021066,-0.686918 2.770684,-1.460378 0.156691,-0.161675 0.308942,-0.330658 0.338336,-0.375519 l 0.05344,-0.08156 h 1.514844 1.514844 V 12.503383 11.982409 H 17.519621 17.028417 V 10.002706 8.0230041 h 0.491204 0.491204 V 7.5020298 6.9810555 h -1.51215 -1.512151 L 14.874991,6.8348037 C 14.813648,6.7543653 14.62616,6.5567672 14.45835,6.3956968 13.660953,5.6303223 12.71515,5.1765591 11.610284,5.0292942 10.517642,4.8836586 9.3217108,5.1456943 8.3657849,5.7401835 7.9359912,6.0074715 7.3579944,6.517926 7.1059997,6.8527549 L 7.0108254,6.9792145 5.5,6.980135 3.9891746,6.9810555 v 0.5209743 0.5209743 h 0.4912043 0.4912043 v 1.9797019 1.979703 H 4.4803789 3.9891746 v 0.520974 0.520974 h 1.5111431 1.511143 l 0.1308063,0.163926 c 0.1844171,0.231112 0.606966,0.632087 0.8679092,0.823596 0.7353052,0.53965 1.5845725,0.873178 2.4863988,0.976469 0.316969,0.03631 0.975108,0.01314 1.322099,-0.04653 z"
     id="path3" />
  <path
     style="fill:#ffffff;stroke:#cccccc;stroke-width:0.02977"
     d="m 7.0257104,18.491131 v -0.487219 l 0.2117369,-0.09467 C 7.979157,17.577592 9.2452828,17.197034 9.87011,17.117941 l 0.150218,-0.01902 0.0038,-0.161537 c 0.0024,-0.104412 0.03145,-0.222156 0.08201,-0.332954 0.354111,-0.775947 1.433649,-0.775947 1.78776,0 0.05045,0.110542 0.07957,0.228577 0.082,0.332374 l 0.0038,0.160956 0.233964,0.03421 c 0.656426,0.09598 1.816283,0.449663 2.548944,0.777262 l 0.211737,0.09467 v 0.487219 0.487218 H 11 7.0257104 Z"
     id="path4" />
</svg>
