<?xml version="1.0" encoding="UTF-8" standalone="no"?>
<svg
   viewBox="0 0 22 22"
   version="1.1"
   id="svg2"
   sodipodi:docname="disk-quota-low.svg"
   inkscape:version="1.3.2 (091e20ef0f, 2023-11-25, custom)"
   xmlns:inkscape="http://www.inkscape.org/namespaces/inkscape"
   xmlns:sodipodi="http://sodipodi.sourceforge.net/DTD/sodipodi-0.dtd"
   xmlns="http://www.w3.org/2000/svg"
   xmlns:svg="http://www.w3.org/2000/svg">
  <sodipodi:namedview
     id="namedview2"
     pagecolor="#505050"
     bordercolor="#ffffff"
     borderopacity="1"
     inkscape:showpageshadow="0"
     inkscape:pageopacity="0"
     inkscape:pagecheckerboard="1"
     inkscape:deskcolor="#d1d1d1"
     inkscape:zoom="33.590909"
     inkscape:cx="10.985115"
     inkscape:cy="10.985115"
     inkscape:window-width="2560"
     inkscape:window-height="1388"
     inkscape:window-x="2560"
     inkscape:window-y="28"
     inkscape:window-maximized="1"
     inkscape:current-layer="svg2" />
  <defs
     id="defs1">
    <style
       type="text/css"
       id="current-color-scheme">.ColorScheme-Text{color:#232629;}.ColorScheme-NeutralText { color: #f67400; } </style>
  </defs>
  <path
     style="fill:currentColor;fill-opacity:1;stroke:none"
     d="m 16,12 c -1.656854,0 -3,0.447715 -3,1 v 5 c 0,0.552285 1.343146,1 3,1 1.656854,0 3,-0.447715 3,-1 v -5 c 0,-0.552285 -1.343146,-1 -3,-1 z m -0.1,1 c 0.03333,-1.85e-4 0.06667,-1.85e-4 0.1,0 0.739186,8.7e-4 1.451386,0.09268 2,0.257812 V 13.74 c -0.547637,0.16593 -1.259945,0.25853 -2,0.26 -0.756362,-0.01228 -1.470815,-0.119444 -2,-0.3 v -0.5 c 0.546482,-0.136873 1.216806,-0.207434 1.9,-0.2 z M 14,14.74 c 0.547637,0.16593 1.259945,0.25853 2,0.26 0.740055,-0.0015 1.452363,-0.09407 2,-0.26 v 1 c -0.547637,0.16593 -1.259945,0.25853 -2,0.26 -0.756362,-0.01228 -1.470815,-0.119444 -2,-0.3 z"
     class="ColorScheme-NeutralText"
     id="path1" />
  <path
     style="fill:currentColor;fill-opacity:1;stroke:none"
     d="m 4,3 v 16 h 8 V 16 H 7 L 5,14 V 11.9 C 5.6,11.7 6,11.1 6,10.5 6,9.9 5.6,9.3 5,9.1 V 7 C 5,5.3 6.3,4 8,4 h 4 c 1.66,0 3,1.34 3,3 V 9.1 C 14.4,9.3 14,9.9 14,10.5 c 6.76e-4,0.2 0,0.3 0.1,0.5 H 16 V 3 Z m 2,14 h 5 v 1 H 6 Z"
     class="ColorScheme-Text"
     id="path2" />
  <path
     style="fill:#ffffff;stroke:#cccccc;stroke-width:0.02977"
     d="M 4.0189445,11 V 3.0216509 h 5.9837615 5.983762 V 7.0108254 11 h -0.93849 -0.938491 l -0.03404,-0.08187 c -0.05147,-0.123781 -0.06531,-0.533773 -0.02433,-0.720368 0.08891,-0.404749 0.418953,-0.8325165 0.771524,-0.9999589 L 15.00406,9.1116486 V 7.9007909 c 0,-1.2968383 -0.01394,-1.4617845 -0.159802,-1.8905368 -0.373921,-1.0991344 -1.368584,-1.8815525 -2.549265,-2.0052926 -0.370099,-0.038788 -4.2442439,-0.038788 -4.6143435,0 C 6.9765093,4.0787582 6.3859716,4.3486791 5.8986453,4.8194737 5.6209093,5.087788 5.4517806,5.3240285 5.2857314,5.6755976 5.0191939,6.2399261 4.9733141,6.5974157 4.9722587,8.1181331 l -6.755e-4,0.9733428 0.2119429,0.111373 C 5.782646,9.5176775 6.102145,10.205517 5.9394317,10.830216 5.8313273,11.245257 5.54231,11.617721 5.1948579,11.789767 c -0.098241,0.04865 -0.188462,0.101843 -0.2004913,0.118217 -0.012029,0.01637 -0.022077,0.491492 -0.022328,1.055819 l -4.559e-4,1.026049 1.004149,1.005751 1.0041489,1.00575 h 2.5087064 2.508707 v 1.488498 1.488498 H 8.0081191 4.0189445 Z m 6.9959405,6.504736 V 16.983762 H 8.4993234 5.9837618 v 0.520974 0.520974 h 2.5155616 2.5155616 z"
     id="path3" />
</svg>
