<?xml version="1.0" encoding="UTF-8" standalone="no"?>
<svg
   width="22"
   height="22"
   version="1.1"
   id="svg1"
   sodipodi:docname="flightmode-on.svg"
   inkscape:version="1.3.2 (091e20ef0f, 2023-11-25, custom)"
   xmlns:inkscape="http://www.inkscape.org/namespaces/inkscape"
   xmlns:sodipodi="http://sodipodi.sourceforge.net/DTD/sodipodi-0.dtd"
   xmlns="http://www.w3.org/2000/svg"
   xmlns:svg="http://www.w3.org/2000/svg">
  <defs
     id="defs1" />
  <sodipodi:namedview
     id="namedview1"
     pagecolor="#505050"
     bordercolor="#ffffff"
     borderopacity="1"
     inkscape:showpageshadow="0"
     inkscape:pageopacity="0"
     inkscape:pagecheckerboard="1"
     inkscape:deskcolor="#d1d1d1"
     inkscape:zoom="53.818182"
     inkscape:cx="10.990709"
     inkscape:cy="11"
     inkscape:window-width="2560"
     inkscape:window-height="1388"
     inkscape:window-x="2560"
     inkscape:window-y="28"
     inkscape:window-maximized="1"
     inkscape:current-layer="svg1" />
  <style
     type="text/css"
     id="current-color-scheme">.ColorScheme-Text{color:#31363b;}.ColorScheme-Background{color:#eff0f1;}.ColorScheme-Highlight{color:#3498db;}.ColorScheme-ViewText{color:#31363b;}.ColorScheme-ViewBackground{color:#fcfcfc;}.ColorScheme-ViewHover{color:#93cee9;}.ColorScheme-ViewFocus{color:#3daee9;}.ColorScheme-ButtonText{color:#31363b;}.ColorScheme-ButtonBackground{color:#eff0f1;}.ColorScheme-ButtonHover{color:#93cee9;}.ColorScheme-ButtonFocus{color:#3daee9;}.ColorScheme-NegativeText { color: #e74c3c; } </style>
  <g
     transform="translate(-21,0) translate(66,1.33227e-15)"
     id="flightmode-on">
    <rect
       style="opacity:1;fill:none;fill-opacity:1;stroke:none"
       id="rect4528"
       width="22"
       height="22"
       x="-45"
       y="-1.3322676e-15" />
    <path
       class="ColorScheme-Text"
       id="path4467"
       transform="translate(21,0)"
       d="M -58 3 C -60.761424 3 -63 5.2385763 -63 8 L -62 8 C -62 5.790861 -60.209139 4 -58 4 L -58 3 z M -55 3 C -55 3 -56 3 -56 6 L -56 8.5 L -57.099609 9.0507812 L -57.099609 9 L -57.900391 9 L -57.900391 9.3007812 L -58 9.3007812 L -58 9.5 L -60 10.5 L -60 10 L -60.099609 10 L -60.099609 9.6992188 L -60.900391 9.6992188 L -60.900391 10 L -61 10 L -61 11 L -63 12 L -63 13 L -60.808594 12.726562 L -60.699219 13 L -60.550781 13 L -60.158203 12.644531 L -57.40625 12.300781 L -57.300781 12.300781 L -57.294922 12.287109 L -56 12.125 L -56 15 C -56 15.487991 -55.75948 15.971967 -55.515625 16.34375 L -58 18 L -58 19 L -55 18 L -52 19 L -52 18 L -54.484375 16.34375 C -54.24052 15.971967 -54 15.487991 -54 15 L -54 12.125 L -52.705078 12.287109 L -52.699219 12.300781 L -52.59375 12.300781 L -49.841797 12.644531 L -49.699219 13 L -49.300781 13 L -49.191406 12.726562 L -47 13 L -47 12 L -49 11 L -49 10 L -49.099609 10 L -49.099609 9.6992188 L -49.900391 9.6992188 L -49.900391 10 L -50 10 L -50 10.5 L -52 9.5 L -52 9.3007812 L -52.099609 9.3007812 L -52.099609 9 L -52.900391 9 L -52.900391 9.0507812 L -54 8.5 L -54 6 C -54 3 -55 3 -55 3 z M -58 5 C -59.656854 5 -61 6.3431458 -61 8 L -60 8 C -60 6.8954305 -59.104569 6 -58 6 L -58 5 z M -58 7 C -58 7 -59 7 -59 8 L -58 8 L -58 7 z "
       style="fill:currentColor;fill-opacity:1;fill-rule:evenodd;stroke:none;stroke-width:1px;stroke-linecap:butt;stroke-linejoin:miter;stroke-opacity:1" />
  </g>
  <path
     style="fill:#ffffff;stroke-width:0.0185811"
     d="m 8.0084459,18.491177 v -0.489398 l 1.2356419,-0.82357 C 9.9236909,16.725246 10.47973,16.347044 10.47973,16.33776 c 0,-0.0093 -0.03659,-0.07715 -0.08131,-0.150824 -0.177627,-0.292612 -0.284362,-0.547656 -0.347214,-0.829672 -0.03297,-0.147934 -0.03523,-0.255347 -0.0356,-1.695524 -3.18e-4,-1.217331 -0.0052,-1.537636 -0.023629,-1.537833 -0.035685,-3.81e-4 -4.0873739,0.501978 -4.1296453,0.512025 -0.020439,0.0049 -0.1236809,0.08819 -0.229426,0.185184 -0.1698766,0.155816 -0.2002078,0.17635 -0.2604865,0.17635 -0.067862,0 -0.068507,-7.45e-4 -0.1221422,-0.141225 l -0.05392,-0.141226 -0.066506,0.01053 c -0.036578,0.0058 -0.505484,0.06502 -1.0420128,0.131618 -0.5365287,0.0666 -0.9985008,0.125203 -1.0266047,0.130232 l -0.051098,0.0091 1.08e-5,-0.496579 1.07e-5,-0.49658 L 4.008879,11.501689 5.0076014,11 l 0.00495,-0.497044 0.00495,-0.497044 h 0.046149 c 0.045299,0 0.046149,-0.0027 0.046149,-0.1486485 V 9.7086149 H 5.5 5.8902027 v 0.1486486 c 0,0.1461715 7.743e-4,0.1486485 0.046453,0.1486485 h 0.046453 v 0.238457 c 0,0.131152 0.00512,0.243577 0.011378,0.249835 0.00626,0.0063 0.4619585,-0.213943 1.0126689,-0.489336 L 8.0084459,9.5041553 V 9.399827 c 0,-0.1012641 0.00136,-0.1040674 0.046453,-0.095448 l 0.046453,0.00888 V 9.1578963 9.0025338 h 0.3994932 c 0.3430989,0 0.3994932,0.00394 0.3994932,0.027932 0,0.01928 0.1722929,-0.058252 0.55627,-0.2503232 L 10.012878,8.5018876 10.0201,6.8337141 C 10.028006,5.0076612 10.0312,4.9449729 10.145388,4.3744332 10.262,3.7917807 10.447948,3.383707 10.701196,3.1546823 10.777975,3.0852473 10.928926,3.0143581 11,3.0143581 c 0.162301,0 0.391882,0.1918262 0.543066,0.4537577 0.195332,0.3384204 0.317168,0.7821442 0.398652,1.4518804 0.02477,0.2035554 0.0312,0.5308082 0.03764,1.9137179 l 0.0078,1.6681735 0.55627,0.2782546 c 0.383977,0.1920712 0.55627,0.2696035 0.55627,0.2503232 0,-0.023989 0.05639,-0.027932 0.399493,-0.027932 h 0.399494 v 0.1553625 0.1553626 l 0.04645,-0.00888 c 0.04509,-0.00862 0.04645,-0.00582 0.04645,0.095448 v 0.1043283 l 1.001291,0.5007132 c 0.550711,0.275393 1.006412,0.495594 1.012669,0.489336 0.0063,-0.0063 0.01138,-0.118683 0.01138,-0.249835 v -0.238457 h 0.04645 c 0.04568,0 0.04645,-0.0025 0.04645,-0.148649 V 9.7086149 H 16.5 16.890203 v 0.1486486 c 0,0.1459105 8.5e-4,0.1486485 0.04615,0.1486485 h 0.04615 l 0.0049,0.497044 0.0049,0.497044 0.998722,0.501689 0.998722,0.501689 1.1e-5,0.493578 1.1e-5,0.493578 -1.073058,-0.135054 c -0.590181,-0.07428 -1.082535,-0.135432 -1.094118,-0.135892 -0.01158,-4.61e-4 -0.04557,0.05978 -0.07552,0.133875 l -0.05446,0.134713 -0.193907,0.0051 -0.193907,0.0051 -0.06705,-0.171587 c -0.03688,-0.09437 -0.07868,-0.177748 -0.09291,-0.185277 -0.02381,-0.01261 -4.054949,-0.518216 -4.127037,-0.517637 -0.02989,2.4e-4 -0.03226,0.101984 -0.03725,1.593584 l -0.0053,1.593328 -0.05213,0.16723 c -0.07091,0.227477 -0.178602,0.468528 -0.300879,0.673489 -0.05612,0.09408 -0.102046,0.178262 -0.102046,0.187079 0,0.0088 0.556039,0.386637 1.235642,0.8396 l 1.235642,0.82357 v 0.489398 c 0,0.269168 -0.0063,0.489397 -0.01394,0.489397 -0.0077,0 -0.680764,-0.222276 -1.495777,-0.493947 L 11,17.992681 9.518158,18.486627 c -0.815013,0.271671 -1.4881127,0.493947 -1.495777,0.493947 -0.00766,0 -0.013935,-0.220229 -0.013935,-0.489397 z"
     id="path1" />
  <path
     style="fill:#ffffff;stroke-width:0.0185811"
     d="M 7.01388,7.8737331 C 7.0304418,7.7156704 7.0845285,7.5509753 7.1574696,7.4364998 7.2952264,7.2203011 7.5896742,7.0508923 7.8805289,7.020492 L 7.9898649,7.009064 V 7.5041098 7.9991554 H 7.4953016 7.0007383 Z"
     id="path2" />
  <path
     style="fill:#ffffff;stroke-width:0.0185811"
     d="m 5.0168919,7.8523532 c 0,-0.3327985 0.1186437,-0.7982938 0.2969622,-1.1651235 0.4457635,-0.9170064 1.3461656,-1.5492555 2.3640454,-1.6599978 0.099238,-0.010797 0.2100279,-0.01963 0.2461993,-0.01963 h 0.065766 V 5.5 5.9923986 l -0.069679,7.48e-5 C 7.8020973,5.9926 7.522685,6.0444908 7.3677368,6.095071 6.618831,6.3395386 6.0551401,7.0535594 6.0075612,7.8179899 L 5.9962853,7.9991554 H 5.5065886 5.0168919 Z"
     id="path3" />
  <path
     style="fill:#ffffff;stroke-width:0.0185811"
     d="M 3.0101507,7.8737331 C 3.0101916,7.5428074 3.082188,7.0586259 3.1890517,6.6706081 3.6787888,4.8923936 5.1182413,3.5295495 6.9360255,3.12305 7.160502,3.0728517 7.4944236,3.029433 7.7994088,3.0107871 l 0.1904561,-0.011644 v 0.4908181 0.4908182 l -0.069679,0.011517 c -0.038323,0.00633 -0.119848,0.011698 -0.1811655,0.011919 C 7.5895964,4.0047532 7.2056126,4.0656287 6.9797181,4.1245925 5.5050637,4.5095126 4.3596912,5.7301601 4.0697956,7.225758 4.02689,7.4471119 3.9949324,7.7293559 3.9949324,7.8869366 V 7.9991554 H 3.5025338 3.0101351 Z"
     id="path4" />
</svg>
