<?xml version="1.0" encoding="UTF-8" standalone="no"?>
<svg
   viewBox="0 0 22 22"
   version="1.1"
   id="svg2"
   sodipodi:docname="input-touchpad-off.svg"
   inkscape:version="1.3.2 (091e20ef0f, 2023-11-25, custom)"
   xmlns:inkscape="http://www.inkscape.org/namespaces/inkscape"
   xmlns:sodipodi="http://sodipodi.sourceforge.net/DTD/sodipodi-0.dtd"
   xmlns="http://www.w3.org/2000/svg"
   xmlns:svg="http://www.w3.org/2000/svg">
  <defs
     id="defs2" />
  <sodipodi:namedview
     id="namedview2"
     pagecolor="#505050"
     bordercolor="#ffffff"
     borderopacity="1"
     inkscape:showpageshadow="0"
     inkscape:pageopacity="0"
     inkscape:pagecheckerboard="1"
     inkscape:deskcolor="#d1d1d1"
     inkscape:zoom="53.818182"
     inkscape:cx="10.990709"
     inkscape:cy="11"
     inkscape:window-width="2560"
     inkscape:window-height="1388"
     inkscape:window-x="2560"
     inkscape:window-y="28"
     inkscape:window-maximized="1"
     inkscape:current-layer="svg2" />
  <style
     type="text/css"
     id="current-color-scheme">.ColorScheme-Text{color:#232629;}.ColorScheme-NegativeText { color: #da4453; } </style>
  <path
     d="m5.0175781 3 1 1h11.9824219v11.984375l1 1v-13.984375zm-2.0175781 2.015625v13.984375h13.984375l-1-1h-11.984375v-11.984375zm2 9.984375v2h5v-2zm7 0v2h2.984375l-2-2z"
     style="fill:currentColor;fill-opacity:1;stroke:none"
     class="ColorScheme-Text"
     id="path1" />
  <path
     d="m-.49999994 4.7426407h1v21.6274173h-1z"
     style="fill:currentColor;fill-opacity:1;stroke:none"
     class="ColorScheme-NegativeText"
     transform="matrix(.70710678 -.70710678 .70710678 .70710678 0 0)"
     id="path2" />
  <path
     style="fill:#ffffff;stroke-width:0.0185811"
     d="m 12.003378,15.998311 v -0.994088 h 0.487819 0.487818 l 0.993958,0.994088 0.993958,0.994088 h -1.481777 -1.481776 z"
     id="path3" />
  <path
     style="fill:#ffffff;stroke-width:0.0185811"
     d="m 5.0168919,15.998311 v -0.994088 h 2.4898649 2.4898648 v 0.994088 0.994088 H 7.5067568 5.0168919 Z"
     id="path4" />
  <path
     style="fill:#ffffff;stroke-width:0.0185811"
     d="M 3.0101351,12.017446 V 5.0357359 l 0.4923987,0.4921357 0.4923986,0.4921357 v 5.9971757 5.997175 h 5.9971755 5.9971751 l 0.492136,0.492399 0.492136,0.492398 H 9.9918448 3.0101351 Z"
     id="path5" />
  <path
     style="fill:#ffffff;stroke-width:0.0185811"
     d="M 18.492689,16.467354 18.005068,15.979472 V 9.9825567 3.9856419 H 12.007892 6.0107168 L 5.5185811,3.4932432 5.0264454,3.0008446 h 6.9817096 6.98171 v 6.9771959 c 0,3.8374575 -0.0022,6.9771955 -0.0048,6.9771955 -0.0026,0 -0.224207,-0.219547 -0.492399,-0.487882 z"
     id="path6" />
  <path
     style="fill:#ffffff;stroke-width:0.0185811"
     d="M 18.492689,16.467354 18.005068,15.979472 V 9.9825567 3.9856419 H 12.007892 6.0107168 L 5.5185811,3.4932432 5.0264454,3.0008446 h 6.9817096 6.98171 v 6.9771959 c 0,3.8374575 -0.0022,6.9771955 -0.0048,6.9771955 -0.0026,0 -0.224207,-0.219547 -0.492399,-0.487882 z"
     id="path7" />
</svg>
