<?xml version="1.0" encoding="UTF-8" standalone="no"?>
<svg
   width="22"
   height="22"
   version="1.1"
   id="svg1"
   sodipodi:docname="mail-unread.svg"
   inkscape:version="1.3.2 (091e20ef0f, 2023-11-25, custom)"
   xmlns:inkscape="http://www.inkscape.org/namespaces/inkscape"
   xmlns:sodipodi="http://sodipodi.sourceforge.net/DTD/sodipodi-0.dtd"
   xmlns="http://www.w3.org/2000/svg"
   xmlns:svg="http://www.w3.org/2000/svg">
  <defs
     id="defs1" />
  <sodipodi:namedview
     id="namedview1"
     pagecolor="#505050"
     bordercolor="#ffffff"
     borderopacity="1"
     inkscape:showpageshadow="0"
     inkscape:pageopacity="0"
     inkscape:pagecheckerboard="1"
     inkscape:deskcolor="#d1d1d1"
     inkscape:zoom="53.818182"
     inkscape:cx="10.990709"
     inkscape:cy="11"
     inkscape:window-width="2560"
     inkscape:window-height="1388"
     inkscape:window-x="2560"
     inkscape:window-y="28"
     inkscape:window-maximized="1"
     inkscape:current-layer="svg1" />
  <style
     type="text/css"
     id="current-color-scheme">.ColorScheme-Text{color:#31363b;}.ColorScheme-Background{color:#eff0f1;}.ColorScheme-Highlight{color:#3daee9;}.ColorScheme-ViewText{color:#31363b;}.ColorScheme-ViewBackground{color:#fcfcfc;}.ColorScheme-ViewHover{color:#93cee9;}.ColorScheme-ViewFocus{color:#3daee9;}.ColorScheme-ButtonText{color:#31363b;}.ColorScheme-ButtonBackground{color:#eff0f1;}.ColorScheme-ButtonHover{color:#93cee9;}.ColorScheme-ButtonFocus { color: #3daee9; } </style>
  <g
     id="mail-unread">
    <path
       id="rect4144"
       d="m 1,3 0,1 0,8 0,6 0,0.414062 L 1,19 l 1,0 6,0 6,0 6,0 1,0 0,-0.585938 L 21,18 21,12 21,3 20.951172,3 20,3 19.537109,3 2.4628906,3 2,3 1,3 Z M 2,4 2.0488281,4 2.2714844,4.2226562 8.0234375,9.9765625 6,12 2,16 2,12 2,4.2226562 2,4 Z M 3.4628906,4 18.537109,4 11,11.537109 3.4628906,4 Z M 19.951172,4 20,4 20,4.2226562 20,12 20,16 16,12 13.976562,9.9765625 19.728516,4.2226562 19.951172,4 Z m -11.2207032,6.683594 1.4531252,1.451172 0.814453,0.814453 0.002,0 0.816406,-0.814453 1.453125,-1.451172 L 14.585938,12 19.537109,16.951172 20,17.414062 20,18 14,18 8,18 2,18 2,17.414062 2.4628906,16.951172 7.4140625,12 8.7304688,10.683594 Z"
       style="fill:currentColor"
       class="ColorScheme-Text" />
    <rect
       y="0"
       x="0"
       height="22"
       width="22"
       id="rect4193"
       style="opacity:1;fill:none;fill-opacity:1;stroke:none;stroke-width:0.1;stroke-linecap:square;stroke-linejoin:miter;stroke-miterlimit:4;stroke-dasharray:none;stroke-dashoffset:0;stroke-opacity:1" />
  </g>
  <path
     style="fill:#ffffff;stroke-width:0.0185811"
     d="M 1.0033784,11 V 3.0008446 H 11 20.996622 V 11 18.999155 H 11 1.0033784 Z m 19.0084456,6.712396 v -0.301961 l -3.370899,-3.370861 -3.370899,-3.370861 -1.12719,1.122569 c -0.619954,0.617413 -1.134383,1.122569 -1.143175,1.122569 -0.0088,0 -0.522889,-0.505335 -1.1424372,-1.122968 l -1.1264513,-1.122969 -3.3712984,3.371261 -3.3712984,3.37126 v 0.301961 0.301962 H 11 20.011824 Z M 7.4139108,9.3567468 C 6.1683238,8.0850072 2.0519501,3.9856419 2.0205213,3.9856419 c -0.030674,0 -0.032346,0.310976 -0.032346,6.0156041 v 6.015603 L 5.0064503,12.998617 8.0247248,9.9803855 Z M 20.011824,9.9966216 c 0,-5.7121679 -0.0016,-6.0110041 -0.03252,-6.0114714 -0.01883,-2.848e-4 -1.290502,1.2591555 -3.022332,2.9932715 l -2.989815,2.9937632 3.017666,3.0177081 c 1.659715,1.65974 3.019765,3.017708 3.022331,3.017708 0.0026,0 0.0047,-2.704941 0.0047,-6.0109794 z M 14.776588,7.7808448 c 2.072032,-2.0720133 3.767331,-3.7735758 3.767331,-3.7812499 0,-0.00767 -3.394764,-0.013953 -7.543919,-0.013953 -4.1491554,0 -7.5439189,0.00626 -7.5439189,0.013919 0,0.015179 7.5287149,7.5485811 7.5438849,7.5485811 0.0051,0 1.704589,-1.6952834 3.776622,-3.7672972 z"
     id="path1" />
</svg>
