<?xml version="1.0" encoding="UTF-8" standalone="no"?>
<svg
   viewBox="0 0 22 22"
   version="1.1"
   id="svg2"
   sodipodi:docname="mic-off.svg"
   inkscape:version="1.3.2 (091e20ef0f, 2023-11-25, custom)"
   xmlns:inkscape="http://www.inkscape.org/namespaces/inkscape"
   xmlns:sodipodi="http://sodipodi.sourceforge.net/DTD/sodipodi-0.dtd"
   xmlns="http://www.w3.org/2000/svg"
   xmlns:svg="http://www.w3.org/2000/svg">
  <defs
     id="defs2" />
  <sodipodi:namedview
     id="namedview2"
     pagecolor="#505050"
     bordercolor="#ffffff"
     borderopacity="1"
     inkscape:showpageshadow="0"
     inkscape:pageopacity="0"
     inkscape:pagecheckerboard="1"
     inkscape:deskcolor="#d1d1d1"
     inkscape:zoom="53.818182"
     inkscape:cx="10.990709"
     inkscape:cy="11"
     inkscape:window-width="2560"
     inkscape:window-height="1388"
     inkscape:window-x="2560"
     inkscape:window-y="28"
     inkscape:window-maximized="1"
     inkscape:current-layer="svg2" />
  <style
     type="text/css"
     id="current-color-scheme">.ColorScheme-Text{color:#232629;}.ColorScheme-NegativeText { color: #da4453; } </style>
  <path
     d="m11 3c-1.385 0-2.5 1.115-2.5 2.5v1.0917969l4.992188 4.9902341c.000908-.027831.007812-.053971.007812-.082031v-6c0-1.385-1.115-2.5-2.5-2.5zm-5.5 7v1c.0009163 2.235554 1.6341118 4.198898 4 4.808594v2.191406h-2v1h7v-1h-2v-2.193359c.359986-.09277.696636-.225313 1.019531-.376953l-.751953-.751954c-.542799.206376-1.13986.322266-1.767578.322266-2.4852814 0-4.5-1.790861-4.5-4v-1zm10 0v1c0 .723829-.23306 1.392777-.611328 1.978516l.71875.71875c.558683-.787154.89175-1.711219.892578-2.697266v-1zm-7 .408203v1.091797c0 1.385 1.115 2.5 2.5 2.5.323798 0 .630577-.064693.914062-.175781z"
     style="fill:currentColor;fill-opacity:1;stroke:none"
     class="ColorScheme-Text"
     id="path1" />
  <path
     d="m-.5 4.7426407h1v21.6274173h-1z"
     style="fill:currentColor;fill-opacity:1;stroke:none"
     class="ColorScheme-NegativeText"
     transform="matrix(.70710678 -.70710678 .70710678 .70710678 0 0)"
     id="path2" />
  <path
     style="fill:#ffffff;stroke-width:0.0185811"
     d="M 10.986064,9.0663217 8.5101351,6.5908018 8.5102447,5.9524956 C 8.5103239,5.4908059 8.517772,5.2653468 8.5371626,5.1376689 8.6270902,4.5455401 8.9321913,3.9885365 9.3692636,3.6185552 9.8516845,3.2101865 10.377336,3.0159396 11,3.0159396 c 0.826482,0 1.536078,0.3642619 2.033804,1.0440266 0.118285,0.161546 0.294946,0.527613 0.354201,0.7339527 0.104608,0.364268 0.101632,0.2578809 0.10175,3.6372466 6.1e-5,1.7143375 -0.0062,3.1155585 -0.01383,3.1138265 -0.0077,-0.0017 -1.128104,-1.117135 -2.489865,-2.4786703 z"
     id="path3" />
  <path
     style="fill:#ffffff;stroke-width:0.0185811"
     d="M 10.563345,13.952117 C 9.5088625,13.761917 8.6985801,12.926875 8.5371626,11.86402 8.517816,11.736632 8.5103237,11.511783 8.5102447,11.056191 l -1.096e-4,-0.631309 1.6955239,1.698851 1.695523,1.698852 -0.163048,0.05195 c -0.08968,0.02857 -0.235008,0.0645 -0.322958,0.07984 -0.20164,0.03516 -0.65096,0.03397 -0.851831,-0.0023 z"
     id="path4" />
  <path
     style="fill:#ffffff;stroke-width:0.0185811"
     d="M 7.5067568,18.506757 V 18.014358 H 8.5101351 9.5135135 V 16.909571 15.804783 L 9.3788007,15.765714 C 8.5520425,15.525938 7.8456012,15.14968 7.2293827,14.620912 6.4410795,13.94448 5.8888294,13.065852 5.6484006,12.105574 5.5358419,11.656013 5.5015792,11.278082 5.5005824,10.475084 L 5.5,10.005912 h 0.4923986 0.4923987 l 2.941e-4,0.524916 c 1.617e-4,0.288703 0.00852,0.624175 0.018568,0.745491 0.073347,0.885314 0.4578956,1.70716 1.1052928,2.362198 0.9058734,0.916565 2.1743745,1.402847 3.5473118,1.359869 0.5174,-0.0162 0.919062,-0.08445 1.392874,-0.236676 l 0.225355,-0.0724 0.368679,0.368255 0.368679,0.368256 -0.229321,0.0985 c -0.126126,0.05417 -0.356833,0.140374 -0.512682,0.191553 l -0.283362,0.09305 v 1.102717 1.102718 h 1.003379 1.003378 v 0.492399 0.492398 H 11 7.5067568 Z"
     id="path5" />
  <path
     style="fill:#ffffff;stroke-width:0.0185811"
     d="m 15.251347,13.321103 -0.347471,-0.34468 0.122235,-0.213548 c 0.211839,-0.370091 0.358455,-0.777136 0.435823,-1.209961 0.0332,-0.185749 0.04046,-0.317905 0.04847,-0.882728 l 0.0094,-0.664274 H 16.009918 16.5 l -5.82e-4,0.459882 c -0.0014,1.118767 -0.093,1.65343 -0.403505,2.355698 -0.127833,0.289117 -0.448696,0.845717 -0.486882,0.844592 -0.0056,-1.65e-4 -0.166575,-0.155406 -0.357684,-0.344981 z"
     id="path6" />
</svg>
