<?xml version="1.0" encoding="UTF-8" standalone="no"?>
<svg
   viewBox="0 0 22 22"
   version="1.1"
   id="svg2"
   sodipodi:docname="mic-on.svg"
   inkscape:version="1.3.2 (091e20ef0f, 2023-11-25, custom)"
   xmlns:inkscape="http://www.inkscape.org/namespaces/inkscape"
   xmlns:sodipodi="http://sodipodi.sourceforge.net/DTD/sodipodi-0.dtd"
   xmlns="http://www.w3.org/2000/svg"
   xmlns:svg="http://www.w3.org/2000/svg">
  <sodipodi:namedview
     id="namedview2"
     pagecolor="#505050"
     bordercolor="#ffffff"
     borderopacity="1"
     inkscape:showpageshadow="0"
     inkscape:pageopacity="0"
     inkscape:pagecheckerboard="1"
     inkscape:deskcolor="#d1d1d1"
     inkscape:zoom="53.818182"
     inkscape:cx="10.990709"
     inkscape:cy="11"
     inkscape:window-width="2560"
     inkscape:window-height="1388"
     inkscape:window-x="2560"
     inkscape:window-y="28"
     inkscape:window-maximized="1"
     inkscape:current-layer="svg2" />
  <defs
     id="defs3051">
    <style
       type="text/css"
       id="current-color-scheme">.ColorScheme-Text{color:#232629;}.ColorScheme-PositiveText { color: #27ae60; } </style>
  </defs>
  <path
     style="fill:currentColor;fill-opacity:1;stroke:none"
     d="M 18.064453 6 L 17.306641 6.4804688 A 10.801709 8.36847 0 0 1 19.017578 10.998047 A 10.801709 8.36847 0 0 1 17.298828 15.509766 L 18.068359 16 A 11.783681 9.1292385 0 0 0 20 10.998047 A 11.783681 9.1292385 0 0 0 18.064453 6 z M 15.767578 7.4609375 L 15 7.9472656 A 7.8557841 6.0861592 0 0 1 16.072266 11.001953 A 7.8557841 6.0861592 0 0 1 15.001953 14.058594 L 15.769531 14.544922 A 8.8377559 6.8469285 0 0 0 17.054688 11.001953 A 8.8377559 6.8469285 0 0 0 15.767578 7.4609375 z "
     class="ColorScheme-PositiveText"
     id="path1" />
  <path
     style="fill:currentColor;fill-opacity:1;stroke:none"
     d="M 7.5,3 C 6.115,3 5,4.115 5,5.5 l 0,6 C 5,12.885 6.115,14 7.5,14 8.885,14 10,12.885 10,11.5 l 0,-6 C 10,4.115 8.885,3 7.5,3 Z M 2,10 2,11 c 9.163e-4,2.235554 1.6341118,4.198898 4,4.808594 L 6,18 l -2,0 0,1 7,0 0,-1 -2,0 0,-2.193359 C 11.365122,15.197142 12.998124,13.23483 13,11 l 0,-1 -1,0 0,1 C 12,13.209139 9.9852814,15 7.5,15 5.0147186,15 3,13.209139 3,11 l 0,-1 z"
     class="ColorScheme-Text"
     id="path2" />
  <path
     style="fill:#ffffff;stroke-width:0.0185811"
     d="M 6.995777,13.937717 C 6.105902,13.744997 5.4224449,13.1372 5.1374039,12.28507 5.0112918,11.908058 5.0170413,12.088824 5.0170413,8.5008446 c 0,-3.5879798 -0.00575,-3.4072136 0.1203626,-3.7842255 C 5.3899184,3.9617273 5.9594978,3.3922328 6.71438,3.1398782 6.9846397,3.0495313 7.1934134,3.0166884 7.4974662,3.0166884 c 0.697809,0 1.2780361,0.2412412 1.7655927,0.734081 0.296036,0.2992439 0.4724485,0.5840062 0.602764,0.9729719 0.1287435,0.3842733 0.1215082,0.1593627 0.1215082,3.7771033 0,3.0529574 -0.00212,3.2721934 -0.033192,3.4367734 C 9.7705385,12.910024 9.063175,13.665868 8.1013512,13.91739 7.9289704,13.96247 7.8651366,13.9692 7.5532093,13.9752 7.235399,13.9813 7.1797723,13.9776 6.9957768,13.93772 Z"
     id="path3" />
  <path
     style="fill:#ffffff;stroke-width:0.0185811"
     d="m 4.0135135,18.506757 v -0.492399 h 0.9940879 0.9940878 v -1.106157 c 0,-0.868709 -0.00499,-1.107699 -0.023226,-1.113338 -0.012774,-0.0039 -0.1235642,-0.03793 -0.2461993,-0.07552 C 5.0497943,15.510185 4.39583,15.165059 3.8562304,14.729281 3.627523,14.544578 3.2613888,14.179435 3.0792378,13.954392 2.6374086,13.408523 2.2936823,12.717467 2.1365445,12.059122 2.0362756,11.639035 2.0219379,11.484476 2.0120088,10.716639 l -0.00919,-0.710727 h 0.4943679 0.494368 v 0.583335 c 0,0.643567 0.016101,0.866051 0.085107,1.175973 0.1532742,0.688396 0.4797077,1.290786 0.9925889,1.831692 0.6087424,0.642006 1.4931099,1.12163 2.4062571,1.305 0.4026592,0.08086 0.5381527,0.09304 1.03125,0.09267 0.5064061,-3.71e-4 0.6845398,-0.01856 1.1148648,-0.113832 1.6081905,-0.356051 2.9007665,-1.535496 3.2718815,-2.985517 0.09051,-0.353644 0.09484,-0.401819 0.104186,-1.160017 l 0.009,-0.729308 h 0.492544 0.492544 l -0.0086,0.729308 c -0.0093,0.792762 -0.02123,0.919386 -0.127029,1.349251 -0.421323,1.71177 -1.798548,3.092973 -3.6399659,3.650481 l -0.2136824,0.0647 -0.00479,1.107355 -0.00479,1.107356 H 9.9964754 11 v 0.492399 0.492398 H 7.5067568 4.0135135 Z"
     id="path4" />
</svg>
