<?xml version="1.0" encoding="UTF-8" standalone="no"?>
<svg
   width="22"
   height="22"
   version="1.1"
   id="svg1"
   sodipodi:docname="network-mobile-20-5g.svg"
   inkscape:version="1.3.2 (091e20ef0f, 2023-11-25, custom)"
   xmlns:inkscape="http://www.inkscape.org/namespaces/inkscape"
   xmlns:sodipodi="http://sodipodi.sourceforge.net/DTD/sodipodi-0.dtd"
   xmlns="http://www.w3.org/2000/svg"
   xmlns:svg="http://www.w3.org/2000/svg">
  <defs
     id="defs1" />
  <sodipodi:namedview
     id="namedview1"
     pagecolor="#505050"
     bordercolor="#ffffff"
     borderopacity="1"
     inkscape:showpageshadow="0"
     inkscape:pageopacity="0"
     inkscape:pagecheckerboard="1"
     inkscape:deskcolor="#d1d1d1"
     inkscape:zoom="33.590909"
     inkscape:cx="10.985115"
     inkscape:cy="10.985115"
     inkscape:window-width="2560"
     inkscape:window-height="1388"
     inkscape:window-x="2560"
     inkscape:window-y="28"
     inkscape:window-maximized="1"
     inkscape:current-layer="svg1" />
  <style
     type="text/css"
     id="current-color-scheme">.ColorScheme-Text{color:#31363b;}.ColorScheme-Background{color:#eff0f1;}.ColorScheme-Highlight{color:#3498db;}.ColorScheme-ViewText{color:#31363b;}.ColorScheme-ViewBackground{color:#fcfcfc;}.ColorScheme-ViewHover{color:#93cee9;}.ColorScheme-ViewFocus{color:#3daee9;}.ColorScheme-ButtonText{color:#31363b;}.ColorScheme-ButtonBackground{color:#eff0f1;}.ColorScheme-ButtonHover{color:#93cee9;}.ColorScheme-ButtonFocus{color:#3daee9;}.ColorScheme-NegativeText { color: #e74c3c; } </style>
  <g
     transform="translate(0,-308) translate(-66,374)"
     id="network-mobile-20-5g">
    <rect
       style="opacity:0.55;fill:none;fill-opacity:1;stroke:none;stroke-width:3.56737041px;stroke-linecap:butt;stroke-linejoin:miter;stroke-miterlimit:4;stroke-dasharray:none;stroke-dashoffset:0;stroke-opacity:1"
       id="rect4844-1"
       width="22"
       height="22"
       x="66"
       y="-66" />
    <path
       style="opacity:0.35;fill:currentColor;fill-opacity:1;fill-rule:evenodd;stroke:none;stroke-width:1px;stroke-linecap:butt;stroke-linejoin:miter;stroke-opacity:1"
       d="m 69,-47 16,-16 v 16 z"
       id="path4846-8"
       class="ColorScheme-Text" />
    <path
       id="path4848-7"
       d="m 76,-54 -7,7 h 7 z"
       style="fill:currentColor;fill-opacity:1;fill-rule:evenodd;stroke:none;stroke-width:1px;stroke-linecap:butt;stroke-linejoin:miter;stroke-opacity:1"
       class="ColorScheme-Text" />
    <path
       class="ColorScheme-Text"
       style="opacity:1;fill:currentColor;fill-opacity:1;stroke:none"
       d="m 74,-63 v 4 1 h 4 v -1 -1 -1 h -2 v 1 h 1 v 1 h -2 v -3 h 3 v -1 h -3 z"
       id="path5064-9" />
    <path
       style="opacity:1;fill:currentColor;fill-opacity:1;stroke:none;stroke-width:1;stroke-miterlimit:4;stroke-dasharray:none;stroke-opacity:1"
       d="m 69,-63 v 3 h 3 v 1 h -3 v 1 h 3 1 v -3 h -3 v -1 h 3 v -1 z"
       id="rect1642-3-6-7-5"
       class="ColorScheme-Text" />
  </g>
  <path
     style="fill:#ffffff;stroke:#cccccc;stroke-width:0.02977"
     d="M 3.0067659,7.5020298 V 7.0108254 h 1.5033829 1.503383 V 6.5047361 5.9986468 H 4.5101488 3.0067659 V 4.5101488 3.0216509 H 5.0013532 6.9959405 V 3.4979702 3.9742896 H 5.4925575 3.9891746 v 0.5209743 0.5209743 h 1.5033829 1.503383 v 1.4884979 1.488498 H 5.0013532 3.0067659 Z"
     id="path1" />
  <path
     style="fill:#ffffff;stroke:#cccccc;stroke-width:0.02977"
     d="M 8.0081191,5.5074425 V 3.0216509 h 1.9945869 1.994588 V 3.4979702 3.9742896 H 10.493911 8.9905277 v 1.5182679 1.5182679 h 1.0121783 1.012179 V 6.5047361 5.9986468 h -0.506089 -0.50609 V 5.5074425 5.0162382 H 11 11.997294 v 1.4884979 1.488498 H 10.002706 8.0081191 Z"
     id="path2" />
  <path
     style="fill:#ffffff;stroke:#cccccc;stroke-width:0.02977"
     d="m 6.5047361,15.525034 c 1.8992704,-1.899324 3.4565897,-3.453315 3.4607096,-3.453315 0.00412,0 0.00749,1.553991 0.00749,3.453315 v 3.453315 H 6.5122268 3.0515171 Z"
     id="path3" />
  <path
     style="fill:#ffffff;stroke:#cccccc;stroke-width:0.02977;opacity:0.3"
     d="M 10.002706,15.487784 V 11.99722 l 4.495264,-4.4951902 4.495264,-4.49519 v 7.9857542 7.985755 H 14.49797 10.002706 Z"
     id="path4" />
</svg>
