<?xml version="1.0" encoding="UTF-8" standalone="no"?>
<svg
   version="1.1"
   viewBox="0 0 22 22"
   id="svg2"
   sodipodi:docname="network-wired-available.svg"
   inkscape:version="1.3.2 (091e20ef0f, 2023-11-25, custom)"
   xmlns:inkscape="http://www.inkscape.org/namespaces/inkscape"
   xmlns:sodipodi="http://sodipodi.sourceforge.net/DTD/sodipodi-0.dtd"
   xmlns="http://www.w3.org/2000/svg"
   xmlns:svg="http://www.w3.org/2000/svg">
  <defs
     id="defs2" />
  <sodipodi:namedview
     id="namedview2"
     pagecolor="#505050"
     bordercolor="#ffffff"
     borderopacity="1"
     inkscape:showpageshadow="0"
     inkscape:pageopacity="0"
     inkscape:pagecheckerboard="1"
     inkscape:deskcolor="#d1d1d1"
     inkscape:zoom="33.590909"
     inkscape:cx="10.985115"
     inkscape:cy="10.985115"
     inkscape:window-width="2560"
     inkscape:window-height="1388"
     inkscape:window-x="2560"
     inkscape:window-y="28"
     inkscape:window-maximized="1"
     inkscape:current-layer="svg2" />
  <style
     type="text/css"
     id="current-color-scheme">.ColorScheme-Text{color:#31363b;}.ColorScheme-Highlight { color: #3498db; } </style>
  <path
     class="ColorScheme-Text"
     d="m9 3v1h9v10h-11v1 1h1 1v1 0.726562 0.273438 1h1 2 3v-1h-1-1v-2h1 4 1v-13h-1-9zm-6 7v6h1v-6h-1z"
     fill="currentColor"
     id="path1" />
  <path
     class="ColorScheme-Highlight"
     d="m3 3v6h2v7c0 1.662 1.338 3 3 3h1v-1h-1c-1.108 0-2-0.892-2-2v-7h2v-6zm1 1h3v4h-3zm1 1v2h1v-2z"
     fill="currentColor"
     id="path2" />
  <rect
     width="22"
     height="22"
     fill="none"
     id="rect2" />
  <path
     style="fill:#ffffff;stroke:#cccccc;stroke-width:0.02977"
     d="M 9.0202977,17.489851 V 16.001353 H 8.0230041 7.0257104 V 15.00406 14.006766 h 5.4925576 5.492557 V 8.9905277 3.9742896 H 13.515562 9.0202977 V 3.4979702 3.0216509 h 4.9864683 4.986468 V 9.511502 16.001353 H 15.986072 12.97891 l 0.0078,1.004736 0.0078,1.004736 0.989851,0.0078 0.989852,0.0078 v 0.475918 0.475918 H 11.997294 9.0202977 Z"
     id="path3" />
  <path
     style="fill:#ffffff;stroke:#cccccc;stroke-width:0.02977"
     d="m 3.0067659,13.009472 v -2.991881 h 0.4912043 0.4912044 v 2.991881 2.991881 H 3.4979702 3.0067659 Z"
     id="path4" />
</svg>
