<?xml version="1.0" encoding="UTF-8" standalone="no"?>
<svg
   width="22"
   height="22"
   version="1.1"
   id="svg1"
   sodipodi:docname="network-unavailable.svg"
   inkscape:version="1.3.2 (091e20ef0f, 2023-11-25, custom)"
   xmlns:inkscape="http://www.inkscape.org/namespaces/inkscape"
   xmlns:sodipodi="http://sodipodi.sourceforge.net/DTD/sodipodi-0.dtd"
   xmlns="http://www.w3.org/2000/svg"
   xmlns:svg="http://www.w3.org/2000/svg">
  <defs
     id="defs1" />
  <sodipodi:namedview
     id="namedview1"
     pagecolor="#505050"
     bordercolor="#ffffff"
     borderopacity="1"
     inkscape:showpageshadow="0"
     inkscape:pageopacity="0"
     inkscape:pagecheckerboard="1"
     inkscape:deskcolor="#d1d1d1"
     inkscape:zoom="33.590909"
     inkscape:cx="10.985115"
     inkscape:cy="10.985115"
     inkscape:window-width="2560"
     inkscape:window-height="1388"
     inkscape:window-x="2560"
     inkscape:window-y="28"
     inkscape:window-maximized="1"
     inkscape:current-layer="svg1" />
  <style
     type="text/css"
     id="current-color-scheme">.ColorScheme-Text{color:#31363b;}.ColorScheme-Background{color:#eff0f1;}.ColorScheme-Highlight{color:#3498db;}.ColorScheme-ViewText{color:#31363b;}.ColorScheme-ViewBackground{color:#fcfcfc;}.ColorScheme-ViewHover{color:#93cee9;}.ColorScheme-ViewFocus{color:#3daee9;}.ColorScheme-ButtonText{color:#31363b;}.ColorScheme-ButtonBackground{color:#eff0f1;}.ColorScheme-ButtonHover{color:#93cee9;}.ColorScheme-ButtonFocus{color:#3daee9;}.ColorScheme-NegativeText { color: #e74c3c; } </style>
  <g
     id="network-unavailable"
     transform="translate(-226,-76) translate(44,0)">
    <path
       sodipodi:nodetypes="cccssccccccccccccssccccccccccccccccccccccccccc"
       style="opacity:0.35;fill:currentColor;fill-opacity:1;stroke:none"
       d="m 185,79 v 6 h 2 v 7 c 0,1.662 1.338,3 3,3 h 1 1 2 v -5 h -5 v 1 1 h 1 1 V 93 93.726562 94 h -1 c -1.108,0 -2,-0.892 -2,-2 v -7 h 2 v -6 z m 6,0 v 1 h 9 v 7 h 1 v -8 h -1 z m -5,1 h 3 v 4 h -3 z m 1,1 v 2 h 1 v -2 z m -2,5 v 6 h 1 v -6 z"
       id="path1595"
       class="ColorScheme-Text"
       inkscape:connector-curvature="0" />
    <rect
       style="opacity:1;fill:none;fill-opacity:1;stroke:none"
       id="rect1597"
       width="22"
       height="22"
       x="182"
       y="76" />
    <path
       id="path1609"
       d="M 195.84845,89.003252 195,89.851689 197.15156,92.003252 195,94.154815 l 0.84845,0.848437 2.15156,-2.151564 2.15154,2.151564 L 201,94.154815 198.84844,92.003252 201,89.851689 l -0.84845,-0.848437 -2.15154,2.151563 z"
       class="ColorScheme-NegativeText"
       style="fill:currentColor;fill-opacity:1;stroke:none;stroke-width:1.19999874"
       inkscape:connector-curvature="0" />
  </g>
  <path
     style="fill:#ffffff;stroke:#cccccc;stroke-width:0.02977;opacity:0.3"
     d="m 3.0067659,13.009472 v -2.991881 h 0.4912043 0.4912044 v 2.991881 2.991881 H 3.4979702 3.0067659 Z"
     id="path1" />
  <path
     style="opacity:0.3;fill:#ffffff;stroke:#cccccc;stroke-width:0.02977"
     d="M 7.404309,18.930161 C 6.2243076,18.676915 5.3731638,17.837393 5.0687789,16.626522 5.0255389,16.45451 5.0182665,16.019703 5.0033022,12.711773 L 4.9864682,8.9905277 3.9966171,8.982684 3.0067659,8.9748402 V 5.9982455 3.0216509 h 2.4857916 2.4857916 v 2.9765946 2.9765947 l -0.9898511,0.00784 -0.9898512,0.00784 v 3.6617048 c 0,3.462838 0.00297,3.672214 0.054668,3.855209 0.1967011,0.696247 0.7592911,1.256441 1.4355024,1.429386 0.1959286,0.05011 0.3301408,0.05911 0.8813033,0.05911 H 9.0202977 V 16.998647 16.001353 H 8.0081191 6.9959405 V 15.00406 14.006766 h 2.5006766 2.5006769 v 2.485792 2.485791 l -2.1955349,-0.0024 c -1.802618,-0.002 -2.2316695,-0.01018 -2.3974501,-0.04576 z M 6.9959405,6.0135318 V 4.0040595 H 5.4925575 3.9891746 v 1.9896256 c 0,1.0942943 0.00893,1.9985568 0.019847,2.0094722 0.010916,0.010916 0.687438,0.019847 1.503383,0.019847 h 1.4835363 z"
     id="path2" />
  <path
     style="opacity:0.3;fill:#ffffff;stroke:#cccccc;stroke-width:0.02977"
     d="M 5.0013532,5.9986468 V 5.0162382 H 5.4925575 5.9837618 V 5.9986468 6.9810555 H 5.4925575 5.0013532 Z"
     id="path3" />
  <path
     style="opacity:0.3;fill:#ffffff;stroke:#cccccc;stroke-width:0.02977"
     d="M 18.010825,7.5020298 V 4.0040595 H 13.515562 9.0202977 V 3.5128552 3.0216509 h 4.9864683 4.986468 V 7.0108254 11 H 18.50203 18.010825 Z"
     id="path4" />
</svg>
