<?xml version="1.0" encoding="UTF-8" standalone="no"?>
<svg
   width="22"
   height="22"
   version="1.1"
   id="svg1"
   sodipodi:docname="network-wired.svg"
   inkscape:version="1.3.2 (091e20ef0f, 2023-11-25, custom)"
   xmlns:inkscape="http://www.inkscape.org/namespaces/inkscape"
   xmlns:sodipodi="http://sodipodi.sourceforge.net/DTD/sodipodi-0.dtd"
   xmlns="http://www.w3.org/2000/svg"
   xmlns:svg="http://www.w3.org/2000/svg">
  <defs
     id="defs1" />
  <sodipodi:namedview
     id="namedview1"
     pagecolor="#505050"
     bordercolor="#ffffff"
     borderopacity="1"
     inkscape:showpageshadow="0"
     inkscape:pageopacity="0"
     inkscape:pagecheckerboard="1"
     inkscape:deskcolor="#d1d1d1"
     inkscape:zoom="33.590909"
     inkscape:cx="10.985115"
     inkscape:cy="10.985115"
     inkscape:window-width="2560"
     inkscape:window-height="1388"
     inkscape:window-x="2560"
     inkscape:window-y="28"
     inkscape:window-maximized="1"
     inkscape:current-layer="svg1" />
  <style
     type="text/css"
     id="current-color-scheme">.ColorScheme-Text{color:#31363b;}.ColorScheme-Background{color:#eff0f1;}.ColorScheme-Highlight{color:#3498db;}.ColorScheme-ViewText{color:#31363b;}.ColorScheme-ViewBackground{color:#fcfcfc;}.ColorScheme-ViewHover{color:#93cee9;}.ColorScheme-ViewFocus{color:#3daee9;}.ColorScheme-ButtonText{color:#31363b;}.ColorScheme-ButtonBackground{color:#eff0f1;}.ColorScheme-ButtonHover{color:#93cee9;}.ColorScheme-ButtonFocus{color:#3daee9;}.ColorScheme-NegativeText { color: #e74c3c; } </style>
  <g
     transform="translate(110,0) translate(-110,0)"
     id="network-wired">
    <path
       class="ColorScheme-Text"
       id="rect4467-4"
       transform="translate(-110,0)"
       d="m 113,3 0,6 2,0 0,8 1,0 0,-8 2,0 0,-6 z m 6,0 0,1 9,0 0,10 -11,0 0,1 0,1 1,0 1,0 0,1 0,0.726562 0,0.273438 -2,0 0,1 2,0 1,0 2,0 3,0 0,-1 -1,0 -1,0 0,-2 1,0 4,0 1,0 0,-13 -1,0 z m -5,1 3,0 0,4 -3,0 z m 1,1 0,2 1,0 0,-2 z m -2,5 0,6 1,0 0,-6 z"
       style="fill:currentColor;fill-opacity:1;stroke:none" />
    <rect
       style="opacity:1;fill:none;fill-opacity:1;stroke:none"
       id="rect4509-9"
       width="22"
       height="22"
       x="0"
       y="0" />
  </g>
  <path
     style="fill:#ffffff;stroke:#cccccc;stroke-width:0.02977"
     d="m 7.0257104,18.502431 v -0.475918 l 0.9898512,-0.0078 0.9898511,-0.0078 0.00784,-1.004736 0.00784,-1.004736 H 8.0234001 7.0257104 V 15.00406 14.006766 h 5.4925576 5.492557 V 8.9905277 3.9742896 H 13.515562 9.0202977 V 3.4979702 3.0216509 h 4.9864683 4.986468 V 9.511502 16.001353 H 15.986072 12.97891 l 0.0078,1.004736 0.0078,1.004736 0.989851,0.0078 0.989852,0.0078 v 0.475918 0.475918 H 11 7.0257104 Z"
     id="path1" />
  <path
     style="fill:#ffffff;stroke:#cccccc;stroke-width:0.02977"
     d="M 5.0013532,12.979702 V 8.9756428 H 4.0040595 3.0067659 V 5.9986468 3.0216509 h 2.4857916 2.4857916 v 2.9769959 2.976996 H 6.9810555 5.9837618 v 4.0040592 4.00406 H 5.4925575 5.0013532 Z M 7.0108254,5.9986468 V 3.9891746 L 5.5,3.9814593 3.9891746,3.9737439 V 5.9986468 8.0235497 L 5.5,8.0158343 7.0108254,8.0081191 Z"
     id="path2" />
  <path
     style="fill:#ffffff;stroke:#cccccc;stroke-width:0.02977"
     d="m 3.0067659,13.009472 v -2.991881 h 0.4912043 0.4912044 v 2.991881 2.991881 H 3.4979702 3.0067659 Z"
     id="path3" />
  <path
     style="fill:#ffffff;stroke:#cccccc;stroke-width:0.02977"
     d="M 5.0013532,5.9986468 V 5.0162382 H 5.4925575 5.9837618 V 5.9986468 6.9810555 H 5.4925575 5.0013532 Z"
     id="path4" />
</svg>
