<?xml version="1.0" encoding="UTF-8" standalone="no"?>
<svg
   width="22"
   height="22"
   version="1.1"
   id="svg1"
   sodipodi:docname="network-wireless-available.svg"
   inkscape:version="1.3.2 (091e20ef0f, 2023-11-25, custom)"
   xmlns:inkscape="http://www.inkscape.org/namespaces/inkscape"
   xmlns:sodipodi="http://sodipodi.sourceforge.net/DTD/sodipodi-0.dtd"
   xmlns="http://www.w3.org/2000/svg"
   xmlns:svg="http://www.w3.org/2000/svg">
  <defs
     id="defs1" />
  <sodipodi:namedview
     id="namedview1"
     pagecolor="#505050"
     bordercolor="#ffffff"
     borderopacity="1"
     inkscape:showpageshadow="0"
     inkscape:pageopacity="0"
     inkscape:pagecheckerboard="1"
     inkscape:deskcolor="#d1d1d1"
     inkscape:zoom="33.590909"
     inkscape:cx="10.985115"
     inkscape:cy="10.985115"
     inkscape:window-width="2560"
     inkscape:window-height="1388"
     inkscape:window-x="2560"
     inkscape:window-y="28"
     inkscape:window-maximized="1"
     inkscape:current-layer="svg1" />
  <style
     type="text/css"
     id="current-color-scheme">.ColorScheme-Text{color:#31363b;}.ColorScheme-Background{color:#eff0f1;}.ColorScheme-Highlight{color:#3498db;}.ColorScheme-ViewText{color:#31363b;}.ColorScheme-ViewBackground{color:#fcfcfc;}.ColorScheme-ViewHover{color:#93cee9;}.ColorScheme-ViewFocus{color:#3daee9;}.ColorScheme-ButtonText{color:#31363b;}.ColorScheme-ButtonBackground{color:#eff0f1;}.ColorScheme-ButtonHover{color:#93cee9;}.ColorScheme-ButtonFocus{color:#3daee9;}.ColorScheme-NegativeText { color: #e74c3c; } </style>
  <g
     transform="translate(-44) translate(66,-22)"
     id="network-wireless-available">
    <rect
       style="opacity:0.55;fill:none;fill-opacity:1;stroke:none;stroke-width:3.56737041px;stroke-linecap:butt;stroke-linejoin:miter;stroke-miterlimit:4;stroke-dasharray:none;stroke-dashoffset:0;stroke-opacity:1"
       id="rect4517"
       width="22"
       height="22"
       x="-22"
       y="22" />
    <g
       transform="translate(-51.97466,12.97765)"
       id="g4527">
      <path
         class="ColorScheme-Text"
         style="opacity:0.35;fill:currentColor;fill-opacity:1;stroke:none"
         d="m 40.97466,12.02235 c -4.155,0 -7.90594,1.67156 -10.61719,4.38281 l 0.70899,0.70899 c 2.5305,-2.5305 6.0302,-4.0918 9.9082,-4.0918 3.878,0 7.3777,1.5613 9.9082,4.0918 l 0.70899,-0.70899 C 48.8806,13.69391 45.12966,12.02235 40.97466,12.02235 Z"
         id="path4519" />
      <path
         class="ColorScheme-Text"
         style="opacity:0.35;fill:currentColor;fill-opacity:1;stroke:none"
         d="m 40.97466,16.02235 c -3.047,0 -5.79691,1.22659 -7.78516,3.21484 l 0.70704,0.70704 c 1.8075,-1.80751 4.30812,-2.92188 7.07812,-2.92188 2.77,0 5.27062,1.11437 7.07813,2.92188 l 0.70703,-0.70704 c -1.98825,-1.98825 -4.73816,-3.21484 -7.78516,-3.21484 z"
         id="path4521" />
      <path
         class="ColorScheme-Text"
         style="opacity:0.35;fill:currentColor;fill-opacity:1;stroke:none"
         d="m 40.97466,20.02235 c -1.939,0 -3.68983,0.77967 -4.95508,2.04492 l 0.70899,0.70899 c 1.0845,-1.0845 2.58409,-1.75391 4.24609,-1.75391 1.662,0 3.16159,0.66941 4.24609,1.75391 l 0.70899,-0.70899 c -1.26525,-1.26525 -3.01608,-2.04492 -4.95508,-2.04492 z"
         id="path4523" />
      <path
         class="ColorScheme-Text"
         style="opacity:0.35;fill:currentColor;fill-opacity:1;stroke:none"
         d="m 40.97466,24.02235 c -1.107996,0 -2,0.892004 -2,2 0,1.107996 0.892004,2 2,2 1.107996,0 2,-0.892004 2,-2 0,-1.107996 -0.892004,-2 -2,-2 z m 0,1 c 0.554,0 1,0.446 1,1 0,0.554 -0.446,1 -1,1 -0.554,0 -1,-0.446 -1,-1 0,-0.554 0.446,-1 1,-1 z"
         id="path4525" />
    </g>
    <path
       id="path4891"
       d="m -3.2343755,35.013676 a 2,2 0 0 0 -1.767578,1.896484 2,2 0 0 0 0,0.08984 l 1,0 a 1,1 0 0 1 0.882812,-0.994141 l 0.115235,0 0,-0.992187 -0.230469,0 z m 0.232422,0.002 0,1 a 1,1 0 0 1 0.994141,0.882813 l 0,0.115234 0.0059,0 a 1,1 0 0 1 -0.882813,0.99414 l -0.115275,-4.7e-5 0,-0.0078 a 2,2 0 0 0 -0.199219,0.002 2,2 0 0 0 -0.800781,0.218703 l 0,-0.207031 -0.002,0 0,2 1,0 0,-1.013672 0.002,0 0.230469,0 a 2,2 0 0 0 1.767578,-1.896484 2,2 0 0 0 0,-0.08984 l -0.01367,0 0,-0.230469 a 2,2 0 0 0 -1.896484,-1.767578 2,2 0 0 0 -0.08984,0 z m -0.998047,5.984328 0,1 1,0 0,-1 -1,0 z"
       style="fill:#fdbc4b;fill-opacity:1;stroke:none" />
  </g>
  <path
     style="fill:#ffffff;stroke:#cccccc;stroke-width:0.02977;opacity:0.3"
     d="M 10.508796,18.931581 C 9.8659879,18.763356 9.3369241,18.267875 9.1052494,17.617127 9.0619947,17.495629 9.0394589,17.340299 9.0284222,17.087589 9.0150137,16.78057 9.021981,16.696533 9.0776736,16.493531 9.1785791,16.125728 9.3265781,15.872226 9.6000788,15.598726 9.9944846,15.20432 10.442086,15.018945 11,15.018945 c 0.557914,0 1.005516,0.185375 1.399921,0.579781 0.397968,0.397968 0.579781,0.840983 0.579781,1.412724 0,0.551925 -0.184912,0.994384 -0.580767,1.389659 -0.2643,0.263914 -0.578473,0.445405 -0.921428,0.532289 -0.224048,0.05676 -0.748638,0.05578 -0.968711,-0.0018 z m 0.938343,-1.03159 c 0.207465,-0.106521 0.407855,-0.330045 0.48914,-0.54561 0.09142,-0.242454 0.07644,-0.585041 -0.03513,-0.802873 -0.313228,-0.611592 -1.125179,-0.740218 -1.604046,-0.254106 -0.22851,0.231967 -0.3048713,0.434007 -0.287541,0.760785 0.01476,0.278267 0.08309,0.438017 0.271627,0.635068 0.22101,0.230985 0.412656,0.304337 0.763463,0.29221 0.202065,-0.007 0.283151,-0.0242 0.402484,-0.08547 z"
     id="path1" />
  <path
     style="opacity:0.3;fill:#ffffff;stroke:#cccccc;stroke-width:0.02977"
     d="m 6.4010036,13.396945 -0.3409209,-0.34189 0.1181319,-0.122336 c 0.3689391,-0.38207 1.1245726,-0.908518 1.7257096,-1.202298 1.5253344,-0.745443 3.1928708,-0.913538 4.8730678,-0.491226 1.062371,0.267024 2.168344,0.868554 2.941547,1.599885 l 0.223274,0.211183 -0.347904,0.349678 -0.347905,0.349678 -0.202974,-0.191454 c -0.74121,-0.699137 -1.767217,-1.222348 -2.828618,-1.442448 -1.864892,-0.386719 -3.8704794,0.160161 -5.2410809,1.429128 -0.1152409,0.106695 -0.2144513,0.193991 -0.2204677,0.193991 -0.00602,0 -0.1643532,-0.153851 -0.3518598,-0.341891 z"
     id="path2" />
  <path
     style="opacity:0.3;fill:#ffffff;stroke:#cccccc;stroke-width:0.02977"
     d="M 3.5741127,10.570058 C 3.3890973,10.384516 3.2426912,10.220592 3.2487658,10.20578 3.2685155,10.157627 3.8081055,9.6672834 4.0973509,9.4346421 5.5570988,8.2605611 7.3491533,7.4577877 9.1691475,7.1626671 9.8868232,7.0462926 10.157239,7.0261255 11,7.0261255 c 0.843592,0 1.115687,0.020332 1.830853,0.1368048 1.793957,0.2921676 3.577436,1.0815893 5.001353,2.2137505 0.344287,0.2737438 0.91706,0.7932972 0.920423,0.8349012 0.0013,0.01664 -0.148265,0.180064 -0.332467,0.363165 L 18.08525,10.907656 17.757781,10.609074 C 14.51057,7.6483156 9.71393,7.1484096 5.9137298,9.3746864 5.3061347,9.7306347 4.7494564,10.145972 4.1465004,10.693216 l -0.2359961,0.214191 z"
     id="path3" />
  <path
     style="opacity:0.3;fill:#ffffff;stroke:#cccccc;stroke-width:0.02977"
     d="M 0.73297879,7.7289287 0.38356308,7.3786002 0.69042835,7.0946818 C 1.8769285,5.9969065 2.9511923,5.2518823 4.3315291,4.5695032 6.0950449,3.6976969 7.8785721,3.2086111 9.8656222,3.0519225 c 0.4938958,-0.038946 1.7742158,-0.03898 2.2687558,-5.96e-5 3.459491,0.2722604 6.535601,1.617815 9.116519,3.9877552 l 0.36727,0.3372474 -0.350281,0.351196 -0.350281,0.3511956 -0.314689,-0.2904093 C 19.487185,6.7592008 18.489874,6.0701706 17.192152,5.4323904 15.690192,4.6942359 14.279892,4.2810368 12.562923,4.076088 12.030439,4.0125272 10.508975,3.9860575 9.9580514,4.0307697 7.4935483,4.2307853 5.3093955,4.9719732 3.3044655,6.2886509 2.5932232,6.7557377 2.0652016,7.1709176 1.3970836,7.788412 L 1.0823945,8.0792571 Z"
     id="path4" />
</svg>
