<?xml version="1.0" encoding="UTF-8" standalone="no"?>
<svg
   id="svg6"
   version="1.1"
   viewBox="0 0 22 22"
   sodipodi:docname="network-offline-symbolic.svg"
   inkscape:version="1.3.2 (091e20ef0f, 2023-11-25, custom)"
   xmlns:inkscape="http://www.inkscape.org/namespaces/inkscape"
   xmlns:sodipodi="http://sodipodi.sourceforge.net/DTD/sodipodi-0.dtd"
   xmlns="http://www.w3.org/2000/svg"
   xmlns:svg="http://www.w3.org/2000/svg">
  <defs
     id="defs1" />
  <sodipodi:namedview
     id="namedview1"
     pagecolor="#505050"
     bordercolor="#ffffff"
     borderopacity="1"
     inkscape:showpageshadow="0"
     inkscape:pageopacity="0"
     inkscape:pagecheckerboard="1"
     inkscape:deskcolor="#d1d1d1"
     inkscape:zoom="33.590909"
     inkscape:cx="10.985115"
     inkscape:cy="10.985115"
     inkscape:window-width="2560"
     inkscape:window-height="1388"
     inkscape:window-x="2560"
     inkscape:window-y="28"
     inkscape:window-maximized="1"
     inkscape:current-layer="svg6" />
  <style
     id="current-color-scheme"
     type="text/css">.ColorScheme-Text{color:#232629;}.ColorScheme-NegativeText { color: #da4453; } </style>
  <path
     id="path1595"
     class="ColorScheme-Text"
     d="m3 3v6h2v7c0 1.662 1.338 3 3 3h4v-5h-5v2h2v2h-1c-1.108 0-2-0.892-2-2v-7h2v-6zm6 0v1h9v7h1v-8h-1zm-5 1h3v4h-3zm1 1v2h1v-2zm-2 5v6h1v-6z"
     fill="currentColor"
     opacity=".5" />
  <path
     id="path1609"
     class="ColorScheme-NegativeText"
     d="M 13.84845,13.003252 13,13.851689 15.15156,16.003252 13,18.154815 l 0.84845,0.848437 2.15156,-2.151564 2.15154,2.151564 L 19,18.154815 16.84844,16.003252 19,13.851689 18.15155,13.003252 16.00001,15.154815 Z"
     fill="currentColor" />
  <path
     style="fill:#ffffff;stroke:#cccccc;stroke-width:0.02977;opacity:0.3"
     d="M 7.3829499,18.920039 C 6.105242,18.646764 5.1795602,17.620581 5.0320823,16.313938 5.0132966,16.147498 5.0017492,14.706906 5.0015974,12.510825 L 5.0013532,8.9756428 H 4.0040595 3.0067659 V 5.9986468 3.0216509 h 2.4857916 2.4857916 v 2.9769959 2.976996 h -0.998076 -0.998076 l 0.00822,3.6989172 0.00822,3.698918 0.087299,0.250103 c 0.1766806,0.506171 0.5516136,0.9393 1.005785,1.161899 0.3970562,0.194606 0.5412574,0.219828 1.2736276,0.222772 l 0.6400541,0.0026 0.00784,-1.004736 0.00784,-1.004736 H 8.0234 7.0257104 v -0.99732 -0.997294 h 2.4857916 2.485792 v 2.485792 2.485791 l -2.1806499,-0.0021 c -1.9903406,-0.0019 -2.2027332,-0.0068 -2.4336942,-0.05622 z M 7.0108254,5.9986468 V 3.9891746 H 5.5074425 4.0040595 L 3.9964095,6.0063623 3.9887595,8.02355 5.499793,8.01583 7.0108266,8.00811 Z"
     id="path1" />
  <path
     style="opacity:0.3;fill:#ffffff;stroke:#cccccc;stroke-width:0.02977"
     d="m 3.0067659,13.009472 v -2.991881 h 0.4912043 0.4912044 v 2.991881 2.991881 H 3.4979702 3.0067659 Z"
     id="path2" />
  <path
     style="opacity:0.3;fill:#ffffff;stroke:#cccccc;stroke-width:0.02977"
     d="M 5.0013532,5.9986468 V 5.0162382 H 5.4925575 5.9837618 V 5.9986468 6.9810555 H 5.4925575 5.0013532 Z"
     id="path3" />
  <path
     style="opacity:0.3;fill:#ffffff;stroke:#cccccc;stroke-width:0.02977"
     d="m 18.003505,7.4945873 -0.0076,-3.5054127 -4.487821,-0.00754 -4.4878213,-0.00754 v -0.476223 -0.476223 h 4.9864683 4.986468 V 7.0108254 11 H 18.502152 18.01107 Z"
     id="path4" />
</svg>
