<?xml version="1.0" encoding="UTF-8" standalone="no"?>
<svg
   height="22"
   width="22"
   version="1.1"
   id="svg1"
   sodipodi:docname="network-mobile-off.svg"
   inkscape:version="1.3.2 (091e20ef0f, 2023-11-25, custom)"
   xmlns:inkscape="http://www.inkscape.org/namespaces/inkscape"
   xmlns:sodipodi="http://sodipodi.sourceforge.net/DTD/sodipodi-0.dtd"
   xmlns="http://www.w3.org/2000/svg"
   xmlns:svg="http://www.w3.org/2000/svg">
  <sodipodi:namedview
     id="namedview1"
     pagecolor="#505050"
     bordercolor="#ffffff"
     borderopacity="1"
     inkscape:showpageshadow="0"
     inkscape:pageopacity="0"
     inkscape:pagecheckerboard="1"
     inkscape:deskcolor="#d1d1d1"
     inkscape:zoom="33.590909"
     inkscape:cx="10.985115"
     inkscape:cy="10.985115"
     inkscape:window-width="2560"
     inkscape:window-height="1388"
     inkscape:window-x="2560"
     inkscape:window-y="28"
     inkscape:window-maximized="1"
     inkscape:current-layer="svg1" />
  <defs
     id="defs4157">
    <style
       id="current-color-scheme"
       type="text/css">.ColorScheme-Text{color:#31363b;}.ColorScheme-NegativeText { color: #e74c3c; } </style>
  </defs>
  <path
     id="path4439-7"
     d="M 19,3 3,19 h 12.90234 l -0.85351,-0.853516 2.15234,-2.15039 -2.15234,-2.152344 1.30859,-1.306641 0.45899,-0.460937 2.15234,2.152344 0.0312,-0.03125 z"
     style="opacity:0.35;fill:currentColor;fill-opacity:1;fill-rule:evenodd;stroke:none;stroke-width:1px;stroke-linecap:butt;stroke-linejoin:miter;stroke-opacity:1"
     class="ColorScheme-Text" />
  <path
     id="path6"
     d="m 16.81706,12.99585 -0.84844,0.848437 2.15156,2.151563 -2.15156,2.151563 0.84844,0.848437 2.15156,-2.151564 2.15156,2.151564 0.84844,-0.848437 -2.15156,-2.151563 2.15156,-2.151563 -0.84844,-0.848437 -2.15156,2.151563 z"
     class="ColorScheme-NegativeText"
     style="fill:currentColor;fill-opacity:1;stroke:none;stroke-width:1.2" />
  <path
     style="fill:#ffffff;stroke:#cccccc;stroke-width:0.02977;opacity:0.3"
     d="m 11,11 c 4.388069,-4.388092 7.981666,-7.9783491 7.985771,-7.9783491 0.0041,0 0.0075,2.5218188 0.0075,5.6040418 v 5.6040423 l -1.086587,-1.086281 -1.086587,-1.086281 -0.893133,0.89276 -0.893133,0.892761 1.079025,1.079328 1.079024,1.079329 -1.071287,1.071598 -1.071288,1.071597 0.416104,0.416902 0.416104,0.416901 H 9.451584 3.0216925 Z"
     id="path1" />
</svg>
