<?xml version="1.0" encoding="UTF-8" standalone="no"?>
<svg
   width="22"
   height="22"
   version="1.1"
   id="svg1"
   sodipodi:docname="network-mobile-20-5g-locked.svg"
   inkscape:version="1.3.2 (091e20ef0f, 2023-11-25, custom)"
   xmlns:inkscape="http://www.inkscape.org/namespaces/inkscape"
   xmlns:sodipodi="http://sodipodi.sourceforge.net/DTD/sodipodi-0.dtd"
   xmlns="http://www.w3.org/2000/svg"
   xmlns:svg="http://www.w3.org/2000/svg">
  <defs
     id="defs1" />
  <sodipodi:namedview
     id="namedview1"
     pagecolor="#505050"
     bordercolor="#ffffff"
     borderopacity="1"
     inkscape:showpageshadow="0"
     inkscape:pageopacity="0"
     inkscape:pagecheckerboard="1"
     inkscape:deskcolor="#d1d1d1"
     inkscape:zoom="33.590909"
     inkscape:cx="10.985115"
     inkscape:cy="10.985115"
     inkscape:window-width="2560"
     inkscape:window-height="1388"
     inkscape:window-x="2560"
     inkscape:window-y="28"
     inkscape:window-maximized="1"
     inkscape:current-layer="svg1" />
  <style
     type="text/css"
     id="current-color-scheme">.ColorScheme-Text{color:#31363b;}.ColorScheme-Background{color:#eff0f1;}.ColorScheme-Highlight{color:#3498db;}.ColorScheme-ViewText{color:#31363b;}.ColorScheme-ViewBackground{color:#fcfcfc;}.ColorScheme-ViewHover{color:#93cee9;}.ColorScheme-ViewFocus{color:#3daee9;}.ColorScheme-ButtonText{color:#31363b;}.ColorScheme-ButtonBackground{color:#eff0f1;}.ColorScheme-ButtonHover{color:#93cee9;}.ColorScheme-ButtonFocus{color:#3daee9;}.ColorScheme-NegativeText { color: #e74c3c; } </style>
  <g
     transform="translate(0,-308) translate(-66,396)"
     id="network-mobile-20-5g-locked">
    <rect
       style="opacity:0.55;fill:none;fill-opacity:1;stroke:none;stroke-width:3.56737041px;stroke-linecap:butt;stroke-linejoin:miter;stroke-miterlimit:4;stroke-dasharray:none;stroke-dashoffset:0;stroke-opacity:1"
       id="rect4880-1"
       width="22"
       height="22"
       x="66"
       y="-88" />
    <path
       class="ColorScheme-Text"
       id="path4882-0"
       d="m 85,-85 -16,16 h 11 v -3 l 1,-1 v -2 l 1,-1 1,-1 h 2 z"
       style="opacity:0.35;fill:currentColor;fill-opacity:1;fill-rule:evenodd;stroke:none;stroke-width:1px;stroke-linecap:butt;stroke-linejoin:miter;stroke-opacity:1" />
    <path
       class="ColorScheme-Text"
       style="opacity:1;fill:currentColor;fill-opacity:1;stroke:none;stroke-width:0.1;stroke-miterlimit:4;stroke-dasharray:none;stroke-opacity:1"
       d="m 84,-76 c -1.108,0 -2,0.892 -2,2 v 2 h -1 v 3 h 6 v -3 h -1 v -2 c 0,-1.108 -0.892,-2 -2,-2 z m 0,1 c 0.554,0 1,0.446 1,1 v 2 h -2 v -2 c 0,-0.554 0.446,-1 1,-1 z"
       id="path4884-6" />
    <path
       class="ColorScheme-Text"
       id="path4898-3"
       d="m 76,-76 -7,7 h 7 z"
       style="opacity:1;fill:currentColor;fill-opacity:1;fill-rule:evenodd;stroke:none;stroke-width:1px;stroke-linecap:butt;stroke-linejoin:miter;stroke-opacity:1" />
    <path
       class="ColorScheme-Text"
       id="path5076-2"
       d="m 74,-85 v 4 1 h 4 v -1 -1 -1 h -2 v 1 h 1 v 1 h -2 v -3 h 3 v -1 h -3 z"
       style="opacity:1;fill:currentColor;fill-opacity:1;stroke:none" />
    <path
       style="opacity:1;fill:currentColor;fill-opacity:1;stroke:none;stroke-width:1;stroke-miterlimit:4;stroke-dasharray:none;stroke-opacity:1"
       d="m 69,-85 v 3 h 3 v 1 h -3 v 1 h 3 1 v -3 h -3 v -1 h 3 v -1 z"
       id="rect1642-1"
       class="ColorScheme-Text" />
  </g>
  <path
     style="opacity:0.3;fill:#ffffff;stroke:#cccccc;stroke-width:0.02977"
     d="M 10.002706,15.487784 V 11.99722 l 4.495264,-4.4951902 4.495264,-4.49519 V 7.0034199 11 h -1.004903 -1.004902 l -0.989685,0.990015 -0.989684,0.990016 v 0.997458 0.997457 l -0.50609,0.505433 -0.506089,0.505432 v 1.496269 1.496269 h -1.994587 -1.994588 z"
     id="path1" />
  <path
     style="opacity:1;fill:#ffffff;stroke:#cccccc;stroke-width:0.02977"
     d="m 6.5047361,15.525034 c 1.8992704,-1.899324 3.4565897,-3.453315 3.4607096,-3.453315 0.00412,0 0.00749,1.553991 0.00749,3.453315 v 3.453315 H 6.5122268 3.0515171 Z"
     id="path2" />
  <path
     style="opacity:1;fill:#ffffff;stroke:#cccccc;stroke-width:0.02977"
     d="M 3.0067659,7.5020298 V 7.0108254 h 1.5033829 1.503383 V 6.5047361 5.9986468 H 4.5101488 3.0067659 V 4.5101488 3.0216509 H 5.0013532 6.9959405 V 3.4979702 3.9742896 H 5.4925575 3.9891746 v 0.5209743 0.5209743 h 1.5033829 1.503383 v 1.4884979 1.488498 H 5.0013532 3.0067659 Z"
     id="path3" />
  <path
     style="opacity:1;fill:#ffffff;stroke:#cccccc;stroke-width:0.02977"
     d="M 8.0081191,5.5074425 V 3.0216509 h 1.9945869 1.994588 V 3.4979702 3.9742896 H 10.493911 8.9905277 v 1.5182679 1.5182679 h 1.0121783 1.012179 V 6.5047361 5.9986468 h -0.506089 -0.50609 V 5.5074425 5.0162382 H 11 11.997294 v 1.4884979 1.488498 H 10.002706 8.0081191 Z"
     id="path4" />
  <path
     style="opacity:1;fill:#ffffff;stroke:#cccccc;stroke-width:0.02977"
     d="m 15.00406,17.489851 v -1.488498 h 0.506089 0.506089 l 5.17e-4,-1.108931 c 5.76e-4,-1.236238 0.01523,-1.370965 0.188537,-1.733246 0.246981,-0.516294 0.683816,-0.896111 1.221848,-1.062367 0.09999,-0.0309 0.309058,-0.06394 0.464606,-0.07342 0.373107,-0.02275 0.645731,0.03544 1.011002,0.215786 0.456612,0.225446 0.792566,0.609247 0.97825,1.117575 l 0.07976,0.21835 0.009,1.213126 0.009,1.213126 h 0.504548 0.504547 v 1.488498 1.488498 H 17.99594 15.00406 Z m 4.018944,-2.496613 c 0,-1.043115 -0.01449,-1.218753 -0.118875,-1.440821 -0.210889,-0.448646 -0.788419,-0.67508 -1.265209,-0.496053 -0.241721,0.09076 -0.486922,0.334379 -0.575892,0.572171 -0.06173,0.164989 -0.06438,0.217384 -0.06438,1.272446 v 1.100372 h 1.012178 1.012179 z"
     id="path5" />
</svg>
