<?xml version="1.0" encoding="UTF-8" standalone="no"?>
<svg
   width="22"
   height="22"
   version="1.1"
   id="svg1"
   sodipodi:docname="network-wireless-on.svg"
   inkscape:version="1.3.2 (091e20ef0f, 2023-11-25, custom)"
   xmlns:inkscape="http://www.inkscape.org/namespaces/inkscape"
   xmlns:sodipodi="http://sodipodi.sourceforge.net/DTD/sodipodi-0.dtd"
   xmlns="http://www.w3.org/2000/svg"
   xmlns:svg="http://www.w3.org/2000/svg">
  <defs
     id="defs1" />
  <sodipodi:namedview
     id="namedview1"
     pagecolor="#505050"
     bordercolor="#ffffff"
     borderopacity="1"
     inkscape:showpageshadow="0"
     inkscape:pageopacity="0"
     inkscape:pagecheckerboard="1"
     inkscape:deskcolor="#d1d1d1"
     inkscape:zoom="33.590909"
     inkscape:cx="10.985115"
     inkscape:cy="11.014885"
     inkscape:window-width="2560"
     inkscape:window-height="1388"
     inkscape:window-x="2560"
     inkscape:window-y="28"
     inkscape:window-maximized="1"
     inkscape:current-layer="svg1" />
  <style
     type="text/css"
     id="current-color-scheme">.ColorScheme-Text{color:#31363b;}.ColorScheme-Background{color:#eff0f1;}.ColorScheme-Highlight{color:#3498db;}.ColorScheme-ViewText{color:#31363b;}.ColorScheme-ViewBackground{color:#fcfcfc;}.ColorScheme-ViewHover{color:#93cee9;}.ColorScheme-ViewFocus{color:#3daee9;}.ColorScheme-ButtonText{color:#31363b;}.ColorScheme-ButtonBackground{color:#eff0f1;}.ColorScheme-ButtonHover{color:#93cee9;}.ColorScheme-ButtonFocus{color:#3daee9;}.ColorScheme-NegativeText { color: #e74c3c; } </style>
  <g
     transform="translate(-66,0) translate(88,-22)"
     id="network-wireless-on">
    <rect
       style="opacity:0.55;fill:none;fill-opacity:1;stroke:none;stroke-width:3.56737041px;stroke-linecap:butt;stroke-linejoin:miter;stroke-miterlimit:4;stroke-dasharray:none;stroke-dashoffset:0;stroke-opacity:1"
       id="rect4470"
       width="22"
       height="22"
       x="-22"
       y="22" />
    <path
       id="path4475"
       d="m -11,25 c -4.155,0 -7.90594,1.67156 -10.61719,4.38281 l 0.70899,0.70899 C -18.3777,27.5613 -14.878,26 -11,26 c 3.878,0 7.3777,1.5613 9.9082,4.0918 l 0.70899,-0.70899 C -3.09406,26.67156 -6.845,25 -11,25 Z"
       style="opacity:1;fill:currentColor;fill-opacity:1;stroke:none"
       class="ColorScheme-Text" />
    <path
       id="path4477"
       d="m -11,29 c -3.047,0 -5.79691,1.22659 -7.78516,3.21484 l 0.70704,0.70704 C -16.27062,31.11437 -13.77,30 -11,30 c 2.77,0 5.27062,1.11437 7.07813,2.92188 l 0.70703,-0.70704 C -5.20309,30.22659 -7.953,29 -11,29 Z"
       style="opacity:1;fill:currentColor;fill-opacity:1;stroke:none"
       class="ColorScheme-Text" />
    <path
       id="path4479"
       d="m -11,33 c -1.939,0 -3.68983,0.77967 -4.95508,2.04492 l 0.70899,0.70899 C -14.16159,34.66941 -12.662,34 -11,34 c 1.662,0 3.16159,0.66941 4.24609,1.75391 l 0.70899,-0.70899 C -7.31017,33.77967 -9.061,33 -11,33 Z"
       style="opacity:1;fill:currentColor;fill-opacity:1;stroke:none"
       class="ColorScheme-Text" />
    <path
       id="path4481"
       d="m -11,37 c -1.107996,0 -2,0.892004 -2,2 0,1.107996 0.892004,2 2,2 1.107996,0 2,-0.892004 2,-2 0,-1.107996 -0.892004,-2 -2,-2 z m 0,1 c 0.554,0 1,0.446 1,1 0,0.554 -0.446,1 -1,1 -0.554,0 -1,-0.446 -1,-1 0,-0.554 0.446,-1 1,-1 z"
       style="opacity:1;fill:currentColor;fill-opacity:1;stroke:none"
       class="ColorScheme-Text" />
  </g>
  <path
     style="opacity:0.3;fill:#ffffff;stroke:#cccccc;stroke-width:0.02977"
     d="M 10.525659,18.932376 C 9.8126552,18.753003 9.2313881,18.161613 9.0631269,17.444374 8.9921468,17.14181 9.0171543,16.654505 9.1185949,16.363507 9.3243712,15.773206 9.780033,15.319942 10.372138,15.11656 c 0.218694,-0.07512 0.277827,-0.08254 0.642747,-0.08063 0.35432,0.0018 0.427743,0.01129 0.620255,0.07977 0.312304,0.111084 0.523608,0.245326 0.763049,0.484766 0.237858,0.237859 0.371758,0.447773 0.486737,0.763059 0.07238,0.198461 0.07955,0.256315 0.07874,0.63513 -7.98e-4,0.374479 -0.0089,0.43894 -0.07963,0.63513 -0.113202,0.313914 -0.247275,0.524484 -0.485849,0.763059 -0.239673,0.239673 -0.451196,0.373972 -0.763059,0.48448 -0.274653,0.09732 -0.824915,0.122647 -1.109471,0.05106 z m 0.824465,-0.984419 c 0.267595,-0.09301 0.506349,-0.334394 0.60372,-0.610372 0.0239,-0.06773 0.04344,-0.225288 0.04343,-0.350124 -2e-5,-0.189013 -0.01457,-0.257723 -0.087,-0.41083 C 11.809265,16.36313 11.638542,16.185619 11.438697,16.086306 11.318953,16.0268 11.252826,16.016238 11,16.016238 c -0.349408,0 -0.498638,0.05679 -0.713288,0.27144 -0.213049,0.213048 -0.269121,0.36118 -0.269121,0.710969 0,0.251942 0.0107,0.319434 0.06964,0.439107 0.228786,0.464574 0.767734,0.682306 1.262893,0.510203 z"
     id="path1" />
  <path
     style="opacity:0.3;fill:#ffffff;stroke:#cccccc;stroke-width:0.02977"
     d="M 15.018945,13.524297 C 14.54466,13.107258 14.119565,12.82549 13.574499,12.566866 11.404997,11.537478 8.808285,11.909054 6.9995522,13.507706 6.8747647,13.618 6.7651187,13.708426 6.7558946,13.708653 6.7466704,13.70888 6.5878983,13.558356 6.4030676,13.374154 L 6.0670119,13.039242 6.270989,12.850269 c 0.4283,-0.396795 1.0316647,-0.812998 1.5733953,-1.085333 2.3958907,-1.204448 5.2858377,-0.938251 7.3978347,0.681424 0.155548,0.119289 0.37659,0.30386 0.491205,0.410158 l 0.208389,0.19327 -0.342354,0.341962 -0.342355,0.341962 z"
     id="path2" />
  <path
     style="opacity:0.3;fill:#ffffff;stroke:#cccccc;stroke-width:0.02977"
     d="M 17.994907,10.818938 C 17.866732,10.683174 17.289033,10.188615 17.037382,9.9992173 14.197467,7.8618351 10.396224,7.3922211 7.1026589,8.7718595 6.0392904,9.2172929 5.0647791,9.8446575 4.1884804,10.647931 l -0.2621285,0.240284 -0.075962,-0.07063 C 3.8086102,10.778739 3.6548946,10.627296 3.5087993,10.481046 L 3.2431715,10.215137 3.3705709,10.083512 C 3.5187727,9.9303939 4.1316613,9.4055399 4.391069,9.2095968 6.3360575,7.7404538 8.852296,6.9429702 11.2977,7.0206454 c 2.162737,0.068697 4.101564,0.6893302 5.864682,1.8773306 0.442001,0.2978233 1.011477,0.7522903 1.35082,1.0780145 l 0.256757,0.2464525 -0.343388,0.344999 -0.343388,0.344999 z"
     id="path3" />
  <path
     style="opacity:0.3;fill:#ffffff;stroke:#cccccc;stroke-width:0.02977"
     d="M 20.634908,7.8125114 C 18.779864,6.0428296 16.390285,4.7991697 13.834717,4.2733411 12.037216,3.9034911 9.9640641,3.9032277 8.1687825,4.2726211 5.6372386,4.7935064 3.3229066,5.9874611 1.4350064,7.7465492 1.250038,7.918897 1.0932133,8.0549547 1.0865069,8.0488992 0.94578223,7.9218303 0.41749677,7.3859629 0.41937833,7.3721958 0.42363355,7.3410609 1.1547331,6.6738807 1.443843,6.4372988 3.8849437,4.4397205 6.749511,3.2946575 9.9119047,3.0523326 c 0.5142793,-0.039408 1.6613793,-0.039434 2.1761903,-5.02e-5 3.258945,0.2493154 6.252084,1.4795994 8.691337,3.5724413 0.307227,0.2635966 0.803789,0.7392256 0.803789,0.7699056 0,0.010484 -0.150711,0.168573 -0.334912,0.3513087 l -0.334913,0.3322471 z"
     id="path4" />
</svg>
