<?xml version="1.0" encoding="UTF-8" standalone="no"?>
<svg
   width="22"
   height="22"
   version="1.1"
   id="svg1"
   sodipodi:docname="network-wireless-connected-40.svg"
   inkscape:version="1.3.2 (091e20ef0f, 2023-11-25, custom)"
   xmlns:inkscape="http://www.inkscape.org/namespaces/inkscape"
   xmlns:sodipodi="http://sodipodi.sourceforge.net/DTD/sodipodi-0.dtd"
   xmlns="http://www.w3.org/2000/svg"
   xmlns:svg="http://www.w3.org/2000/svg">
  <defs
     id="defs1" />
  <sodipodi:namedview
     id="namedview1"
     pagecolor="#505050"
     bordercolor="#ffffff"
     borderopacity="1"
     inkscape:showpageshadow="0"
     inkscape:pageopacity="0"
     inkscape:pagecheckerboard="1"
     inkscape:deskcolor="#d1d1d1"
     inkscape:zoom="33.590909"
     inkscape:cx="10.985115"
     inkscape:cy="10.985115"
     inkscape:window-width="2560"
     inkscape:window-height="1388"
     inkscape:window-x="2560"
     inkscape:window-y="28"
     inkscape:window-maximized="1"
     inkscape:current-layer="svg1" />
  <style
     type="text/css"
     id="current-color-scheme">.ColorScheme-Text{color:#31363b;}.ColorScheme-Background{color:#eff0f1;}.ColorScheme-Highlight{color:#3498db;}.ColorScheme-ViewText{color:#31363b;}.ColorScheme-ViewBackground{color:#fcfcfc;}.ColorScheme-ViewHover{color:#93cee9;}.ColorScheme-ViewFocus{color:#3daee9;}.ColorScheme-ButtonText{color:#31363b;}.ColorScheme-ButtonBackground{color:#eff0f1;}.ColorScheme-ButtonHover{color:#93cee9;}.ColorScheme-ButtonFocus{color:#3daee9;}.ColorScheme-NegativeText { color: #e74c3c; } </style>
  <g
     transform="translate(0,22) translate(-44,-44)"
     id="network-wireless-connected-40">
    <rect
       y="22"
       x="44"
       height="22"
       width="22"
       id="rect4466"
       style="opacity:0.55;fill:none;fill-opacity:1;stroke:none;stroke-width:3.56737041px;stroke-linecap:butt;stroke-linejoin:miter;stroke-miterlimit:4;stroke-dasharray:none;stroke-dashoffset:0;stroke-opacity:1" />
    <path
       class="ColorScheme-Text"
       style="opacity:0.35;fill:currentColor;fill-opacity:1;stroke:none"
       d="m 55,25 c -4.155,0 -7.90594,1.67156 -10.61719,4.38281 L 45.0918,30.0918 C 47.6223,27.5613 51.122,26 55,26 c 3.878,0 7.3777,1.5613 9.9082,4.0918 l 0.70899,-0.70899 C 62.90594,26.67156 59.155,25 55,25 Z"
       id="path4468" />
    <path
       class="ColorScheme-Text"
       style="opacity:0.35;fill:currentColor;fill-opacity:1;stroke:none"
       d="m 55,29 c -3.047,0 -5.79691,1.22659 -7.78516,3.21484 l 0.70704,0.70704 C 49.72938,31.11437 52.23,30 55,30 c 2.77,0 5.27062,1.11437 7.07813,2.92188 l 0.70703,-0.70704 C 60.79691,30.22659 58.047,29 55,29 Z"
       id="path4470" />
    <path
       class="ColorScheme-Text"
       style="opacity:0.35;fill:currentColor;fill-opacity:1;stroke:none"
       d="m 55,33 c -1.939,0 -3.68983,0.77967 -4.95508,2.04492 l 0.70899,0.70899 C 51.83841,34.66941 53.338,34 55,34 c 1.662,0 3.16159,0.66941 4.24609,1.75391 l 0.70899,-0.70899 C 58.68983,33.77967 56.939,33 55,33 Z"
       id="path4472" />
    <path
       class="ColorScheme-Text"
       style="opacity:1;fill:currentColor;fill-opacity:1;stroke:none"
       d="m 55,37 c -1.107996,0 -2,0.892004 -2,2 0,1.107996 0.892004,2 2,2 1.107996,0 2,-0.892004 2,-2 0,-1.107996 -0.892004,-2 -2,-2 z m 0,1 c 0.554,0 1,0.446 1,1 0,0.554 -0.446,1 -1,1 -0.554,0 -1,-0.446 -1,-1 0,-0.554 0.446,-1 1,-1 z"
       id="path4474" />
  </g>
  <path
     style="opacity:0.3;fill:#ffffff;stroke:#cccccc;stroke-width:0.02977"
     d="m 6.4010036,13.396945 -0.3409209,-0.34189 0.1181319,-0.122336 c 0.3689391,-0.38207 1.1245726,-0.908518 1.7257096,-1.202298 1.5253344,-0.745443 3.1928708,-0.913538 4.8730678,-0.491226 1.062371,0.267024 2.168344,0.868554 2.941547,1.599885 l 0.223274,0.211183 -0.347904,0.349678 -0.347905,0.349678 -0.202974,-0.191454 c -0.74121,-0.699137 -1.767217,-1.222348 -2.828618,-1.442448 -1.864892,-0.386719 -3.8704794,0.160161 -5.2410809,1.429128 -0.1152409,0.106695 -0.2144513,0.193991 -0.2204677,0.193991 -0.00602,0 -0.1643532,-0.153851 -0.3518598,-0.341891 z"
     id="path1" />
  <path
     style="opacity:0.3;fill:#ffffff;stroke:#cccccc;stroke-width:0.02977"
     d="M 3.5741127,10.570058 C 3.3890973,10.384516 3.2426912,10.220592 3.2487658,10.20578 3.2685155,10.157627 3.8081055,9.6672834 4.0973509,9.4346421 5.5570988,8.2605611 7.3491533,7.4577877 9.1691475,7.1626671 9.8868232,7.0462926 10.157239,7.0261255 11,7.0261255 c 0.843592,0 1.115687,0.020332 1.830853,0.1368048 1.793957,0.2921676 3.577436,1.0815893 5.001353,2.2137505 0.344287,0.2737438 0.91706,0.7932972 0.920423,0.8349012 0.0013,0.01664 -0.148265,0.180064 -0.332467,0.363165 L 18.08525,10.907656 17.757781,10.609074 C 14.51057,7.6483156 9.71393,7.1484096 5.9137298,9.3746864 5.3061347,9.7306347 4.7494564,10.145972 4.1465004,10.693216 l -0.2359961,0.214191 z"
     id="path2" />
  <path
     style="opacity:0.3;fill:#ffffff;stroke:#cccccc;stroke-width:0.02977"
     d="M 0.73297879,7.7289287 0.38356308,7.3786002 0.69042835,7.0946818 C 1.8769285,5.9969065 2.9511923,5.2518823 4.3315291,4.5695032 6.0950449,3.6976969 7.8785721,3.2086111 9.8656222,3.0519225 c 0.4938958,-0.038946 1.7742158,-0.03898 2.2687558,-5.96e-5 3.459491,0.2722604 6.535601,1.617815 9.116519,3.9877552 l 0.36727,0.3372474 -0.350281,0.351196 -0.350281,0.3511956 -0.314689,-0.2904093 C 19.487185,6.7592008 18.489874,6.0701706 17.192152,5.4323904 15.690192,4.6942359 14.279892,4.2810368 12.562923,4.076088 12.030439,4.0125272 10.508975,3.9860575 9.9580514,4.0307697 7.4935483,4.2307853 5.3093955,4.9719732 3.3044655,6.2886509 2.5932232,6.7557377 2.0652016,7.1709176 1.3970836,7.788412 L 1.0823945,8.0792571 Z"
     id="path3" />
  <path
     style="opacity:1;fill:#ffffff;stroke:#cccccc;stroke-width:0.02977"
     d="M 10.525659,18.932376 C 9.8126552,18.753003 9.2313881,18.161613 9.0631269,17.444374 8.9921468,17.14181 9.0171543,16.654505 9.1185949,16.363507 9.3243712,15.773206 9.780033,15.319942 10.372138,15.11656 c 0.218694,-0.07512 0.277827,-0.08254 0.642747,-0.08063 0.35432,0.0018 0.427743,0.01129 0.620255,0.07977 0.312304,0.111084 0.523608,0.245326 0.763049,0.484766 0.237858,0.237859 0.371758,0.447773 0.486737,0.763059 0.07238,0.198461 0.07955,0.256315 0.07874,0.63513 -7.98e-4,0.374479 -0.0089,0.43894 -0.07963,0.63513 -0.113202,0.313914 -0.247275,0.524484 -0.485849,0.763059 -0.239673,0.239673 -0.451196,0.373972 -0.763059,0.48448 -0.274653,0.09732 -0.824915,0.122647 -1.109471,0.05106 z m 0.824465,-0.984419 c 0.267595,-0.09301 0.506349,-0.334394 0.60372,-0.610372 0.0239,-0.06773 0.04344,-0.225288 0.04343,-0.350124 -2e-5,-0.189013 -0.01457,-0.257723 -0.087,-0.41083 C 11.809265,16.36313 11.638542,16.185619 11.438697,16.086306 11.318953,16.0268 11.252826,16.016238 11,16.016238 c -0.349408,0 -0.498638,0.05679 -0.713288,0.27144 -0.213049,0.213048 -0.269121,0.36118 -0.269121,0.710969 0,0.251942 0.0107,0.319434 0.06964,0.439107 0.228786,0.464574 0.767734,0.682306 1.262893,0.510203 z"
     id="path4" />
</svg>
