<?xml version="1.0" encoding="UTF-8" standalone="no"?>
<svg
   viewBox="0 0 22 22"
   version="1.1"
   id="svg2"
   sodipodi:docname="network-wireless-disconnected.svg"
   inkscape:version="1.3.2 (091e20ef0f, 2023-11-25, custom)"
   xmlns:inkscape="http://www.inkscape.org/namespaces/inkscape"
   xmlns:sodipodi="http://sodipodi.sourceforge.net/DTD/sodipodi-0.dtd"
   xmlns="http://www.w3.org/2000/svg"
   xmlns:svg="http://www.w3.org/2000/svg">
  <sodipodi:namedview
     id="namedview2"
     pagecolor="#505050"
     bordercolor="#ffffff"
     borderopacity="1"
     inkscape:showpageshadow="0"
     inkscape:pageopacity="0"
     inkscape:pagecheckerboard="1"
     inkscape:deskcolor="#d1d1d1"
     inkscape:zoom="33.590909"
     inkscape:cx="10.985115"
     inkscape:cy="10.985115"
     inkscape:window-width="2560"
     inkscape:window-height="1388"
     inkscape:window-x="2560"
     inkscape:window-y="28"
     inkscape:window-maximized="1"
     inkscape:current-layer="svg2" />
  <defs
     id="defs3051">
    <style
       type="text/css"
       id="current-color-scheme">.ColorScheme-Text{color:#232629;}.ColorScheme-NegativeText { color: #da4453; } </style>
  </defs>
  <path
     style="fill:currentColor;fill-opacity:0.5;stroke:none"
     class="ColorScheme-Text"
     d="M 11 3 C 6.845001 3 3.0940644 4.6715125 0.3828125 7.3828125 L 1.0917969 8.0917969 C 3.6222976 5.5612969 7.1220066 4 11 4 C 14.878001 4 18.377702 5.5612969 20.908203 8.0917969 L 21.617188 7.3828125 C 18.905936 4.6715125 15.155007 3 11 3 z M 11 7 C 7.9530063 7 5.2030906 8.2265438 3.2148438 10.214844 L 3.921875 10.921875 C 5.7293791 9.114375 8.2300034 8 11 8 C 13.770004 8 16.270612 9.114375 18.078125 10.921875 L 18.785156 10.214844 C 16.796909 8.2265438 14.047002 7 11 7 z M 11 11 C 9.0610031 11 7.3101723 11.779722 6.0449219 13.044922 L 6.7539062 13.753906 C 7.8384139 12.669406 9.3380002 12 11 12 C 12.661999 12 14.161595 12.669406 15.246094 13.753906 L 15.955078 13.044922 C 14.689828 11.779722 12.939005 11 11 11 z M 11 15 C 9.8920029 15 9 15.892 9 17 C 9 18.108 9.8920029 19 11 19 C 12.108005 19 13 18.108 13 17 C 13 15.892 12.108005 15 11 15 z M 11 16 C 11.554002 16 12 16.446 12 17 C 12 17.554 11.554002 18 11 18 C 10.446006 18 10 17.554 10 17 C 10 16.446 10.446006 16 11 16 z "
     id="path1" />
  <path
     style="fill:currentColor"
     class="ColorScheme-NegativeText"
     d="M 15.707031,1044.3622 15,1045.0692 l 1.792969,1.793 -1.792969,1.793 0.707031,0.707 1.792969,-1.793 1.792969,1.793 0.707031,-0.707 -1.792969,-1.793 1.792969,-1.793 -0.707031,-0.707 -1.792969,1.793 -1.792969,-1.793 z"
     transform="translate(0,-1030.3622)"
     id="path2" />
  <path
     style="fill:#ffffff;stroke:#cccccc;stroke-width:0.02977;opacity:0.3"
     d="m 15.093369,13.586827 c -1.245117,-1.129474 -2.916524,-1.713523 -4.519723,-1.579352 -1.4223757,0.119038 -2.554818,0.604418 -3.6521093,1.565342 l -0.1673645,0.146565 -0.33999,-0.339026 -0.33999,-0.339025 0.081307,-0.08625 c 0.1406697,-0.149217 0.6654979,-0.569177 0.9495276,-0.759798 0.9067932,-0.608575 1.9897258,-1.006714 3.0911842,-1.136468 0.382507,-0.04506 1.225071,-0.04506 1.607578,0 1.493766,0.175969 2.879513,0.81615 3.972304,1.835107 l 0.16572,0.154523 -0.342354,0.343454 -0.342355,0.343454 z"
     id="path3" />
  <path
     style="opacity:0.3;fill:#ffffff;stroke:#cccccc;stroke-width:0.02977"
     d="M 10.536076,18.933029 C 9.8776372,18.773158 9.3563423,18.296461 9.1152713,17.633777 c -0.071882,-0.197598 -0.079432,-0.257963 -0.079432,-0.63513 0,-0.377167 0.00755,-0.437533 0.079432,-0.63513 C 9.2298538,16.048539 9.3637936,15.838476 9.6018114,15.600458 9.8402257,15.362044 10.050651,15.228009 10.36487,15.11441 10.56195,15.04316 10.623822,15.03547 11,15.03547 c 0.376178,0 0.43805,0.0077 0.63513,0.07894 0.314219,0.113599 0.524644,0.247634 0.763059,0.486048 0.239365,0.239366 0.373592,0.450605 0.484859,0.763049 0.06921,0.194349 0.07797,0.26419 0.07963,0.63514 0.0017,0.380188 -0.0051,0.435949 -0.07776,0.63513 -0.116313,0.318942 -0.24915,0.525712 -0.500623,0.779254 -0.251728,0.2538 -0.581832,0.43952 -0.922869,0.519218 -0.235989,0.05515 -0.699827,0.05554 -0.925358,7.8e-4 z m 0.917697,-1.029895 c 0.176139,-0.08527 0.365827,-0.278147 0.456457,-0.464139 0.05199,-0.106698 0.07247,-0.20822 0.08124,-0.402827 0.01079,-0.23931 0.0047,-0.275127 -0.07632,-0.446549 C 11.81356,16.374585 11.629981,16.181657 11.434226,16.084205 11.319442,16.027062 11.25029,16.016238 11,16.016238 c -0.351389,0 -0.498299,0.05654 -0.713158,0.27448 -0.216311,0.21941 -0.269251,0.358603 -0.269251,0.707929 0,0.349408 0.05679,0.498638 0.27144,0.713288 0.300721,0.300721 0.776994,0.378904 1.164742,0.191199 z"
     id="path4" />
  <path
     style="opacity:0.3;fill:#ffffff;stroke:#cccccc;stroke-width:0.02977"
     d="M 17.847091,10.681408 C 16.712439,9.6154905 15.212967,8.7709562 13.73203,8.3637194 12.860141,8.1239624 12.180074,8.024867 11.253045,8.0024959 10.295262,7.9793827 9.6179945,8.0457262 8.7225981,8.2503721 7.0528041,8.6320092 5.479628,9.4637816 4.1889204,10.647426 L 3.9246041,10.889818 3.582755,10.550457 3.240906,10.211096 3.5146742,9.9500102 C 4.3608025,9.143079 5.507877,8.3942098 6.6451444,7.9062785 8.6229923,7.0577059 10.827901,6.8087945 12.979702,7.1911724 c 2.043147,0.3630698 4.045815,1.3725151 5.544348,2.7946294 l 0.245297,0.2327882 -0.342048,0.343275 -0.342049,0.343276 z"
     id="path5" />
  <path
     style="opacity:0.3;fill:#ffffff;stroke:#cccccc;stroke-width:0.02977"
     d="M 0.7496389,7.7158248 0.41364547,7.3788753 0.73579935,7.0683282 C 1.861702,5.9829896 3.3910991,4.9645323 4.8822733,4.3071053 6.848319,3.4403176 8.8408352,3.0216509 11,3.0216509 c 0.754663,0 1.240454,0.030042 1.964817,0.121509 2.750519,0.3473126 5.403248,1.4948438 7.565383,3.2726721 0.350415,0.2881307 1.010077,0.8915002 1.034946,0.9466294 0.01068,0.023671 -0.09075,0.1469445 -0.257526,0.3129906 C 20.861448,8.1196713 20.963359,8.1157113 20.520248,7.706047 16.914855,4.3727909 11.845444,3.1788316 7.0852503,4.5418049 6.254617,4.7796378 5.6140949,5.0288058 4.8046116,5.4289907 3.508713,6.0696452 2.4636177,6.7881509 1.4388194,7.7429816 1.2559481,7.9133676 1.1016701,8.052774 1.0959793,8.052774 c -0.00569,0 -0.16154404,-0.151627 -0.3463404,-0.3369492 z"
     id="path6" />
</svg>
