<?xml version="1.0" encoding="UTF-8" standalone="no"?>
<svg
   width="22"
   height="22"
   version="1.1"
   id="svg1"
   sodipodi:docname="network-wired-activated-locked.svg"
   inkscape:version="1.3.2 (091e20ef0f, 2023-11-25, custom)"
   xmlns:inkscape="http://www.inkscape.org/namespaces/inkscape"
   xmlns:sodipodi="http://sodipodi.sourceforge.net/DTD/sodipodi-0.dtd"
   xmlns="http://www.w3.org/2000/svg"
   xmlns:svg="http://www.w3.org/2000/svg">
  <defs
     id="defs1" />
  <sodipodi:namedview
     id="namedview1"
     pagecolor="#505050"
     bordercolor="#ffffff"
     borderopacity="1"
     inkscape:showpageshadow="0"
     inkscape:pageopacity="0"
     inkscape:pagecheckerboard="1"
     inkscape:deskcolor="#d1d1d1"
     inkscape:zoom="33.590909"
     inkscape:cx="10.985115"
     inkscape:cy="10.985115"
     inkscape:window-width="2560"
     inkscape:window-height="1388"
     inkscape:window-x="2560"
     inkscape:window-y="28"
     inkscape:window-maximized="1"
     inkscape:current-layer="svg1" />
  <style
     type="text/css"
     id="current-color-scheme">.ColorScheme-Text{color:#31363b;}.ColorScheme-Background{color:#eff0f1;}.ColorScheme-Highlight{color:#3498db;}.ColorScheme-ViewText{color:#31363b;}.ColorScheme-ViewBackground{color:#fcfcfc;}.ColorScheme-ViewHover{color:#93cee9;}.ColorScheme-ViewFocus{color:#3daee9;}.ColorScheme-ButtonText{color:#31363b;}.ColorScheme-ButtonBackground{color:#eff0f1;}.ColorScheme-ButtonHover{color:#93cee9;}.ColorScheme-ButtonFocus{color:#3daee9;}.ColorScheme-NegativeText { color: #e74c3c; } </style>
  <g
     id="network-wired-activated-locked"
     transform="translate(-22,0)">
    <path
       class="ColorScheme-Text"
       id="path4571"
       d="m 25,3 0,6 2,0 0,7 c 0,1.662 1.338,3 3,3 l 1,0 1,0 2,0 0,-5 -5,0 0,1 0,1 1,0 1,0 0,1 0,0.726562 L 31,18 30,18 c -1.108,0 -2,-0.892 -2,-2 l 0,-7 2,0 0,-6 -5,0 z m 6,0 0,1 9,0 0,7 1,0 0,-8 -1,0 -9,0 z m -5,1 3,0 0,4 -3,0 0,-4 z m 1,1 0,2 1,0 0,-2 -1,0 z m -2,5 0,6 1,0 0,-6 -1,0 z m 13,2 c -1.108,0 -2,0.892 -2,2 l 0,2 -1,0 0,3 6,0 0,-3 -1,0 0,-2 c 0,-1.108 -0.892,-2 -2,-2 z m 0,1 c 0.554,0 1,0.446 1,1 l 0,2 -2,0 0,-2 c 0,-0.554 0.446,-1 1,-1 z"
       style="opacity:1;fill:currentColor;fill-opacity:1;stroke:none" />
    <rect
       y="0"
       x="22"
       height="22"
       width="22"
       id="rect4574"
       style="opacity:1;fill:none;fill-opacity:1;stroke:none" />
  </g>
  <path
     style="fill:#ffffff;stroke:#cccccc;stroke-width:0.02977"
     d="M 7.3829499,18.920372 C 6.4839076,18.729267 5.7337368,18.147073 5.3287136,17.326116 5.1559161,16.975867 5.0728044,16.688154 5.0320251,16.299053 5.0141463,16.12846 5.0021802,14.619369 5.0018691,12.49594 L 5.0013532,8.9756428 H 4.0040595 3.0067659 V 5.9986468 3.0216509 h 2.4857916 2.4857916 v 2.9769959 2.976996 h -0.998076 -0.998076 l 0.00822,3.6989172 0.00822,3.698918 0.069615,0.208389 c 0.2369552,0.709313 0.812574,1.234372 1.5230775,1.389299 0.096199,0.02098 0.4215989,0.03652 0.788904,0.03768 l 0.6251691,0.002 0.00784,-1.004736 0.00784,-1.004736 H 8.0234 7.0257104 V 15.00406 14.006766 h 2.4857916 2.485792 v 2.485792 2.485791 l -2.1806499,-0.0021 c -1.9847656,-0.0019 -2.2033801,-0.0069 -2.4336942,-0.05588 z M 7.0108254,5.9986468 V 3.9891746 L 5.5,3.9814593 3.9891746,3.9737439 V 5.9986468 8.0235497 L 5.5,8.0158343 7.0108254,8.0081191 Z"
     id="path1" />
  <path
     style="fill:#ffffff;stroke:#cccccc;stroke-width:0.02977"
     d="m 13.009472,17.489851 v -1.488498 h 0.504548 0.504548 l 0.0099,-1.213126 0.0099,-1.213126 0.08012,-0.218666 c 0.197598,-0.539303 0.548678,-0.921824 1.069925,-1.165745 0.650962,-0.304622 1.432946,-0.208616 2.039603,0.250408 0.333043,0.251996 0.58235,0.640047 0.695543,1.08263 0.05179,0.202479 0.05745,0.33573 0.05745,1.351129 v 1.126496 h 0.50609 0.506089 v 1.488498 1.488498 h -2.991881 -2.991881 z m 3.983043,-2.642084 -0.0088,-1.153586 -0.08819,-0.15922 c -0.413783,-0.747033 -1.463389,-0.710549 -1.820832,0.06329 l -0.08556,0.18524 -0.0097,1.108931 -0.0097,1.108931 h 1.015722 1.015721 z"
     id="path2" />
  <path
     style="fill:#ffffff;stroke:#cccccc;stroke-width:0.02977"
     d="M 18.010825,7.4871448 V 3.9742896 H 13.515562 9.0202977 V 3.4979702 3.0216509 h 4.9864683 4.986468 V 7.0108254 11 H 18.50203 18.010825 Z"
     id="path3" />
  <path
     style="fill:#ffffff;stroke:#cccccc;stroke-width:0.02977"
     d="M 5.0013532,5.9986468 V 5.0162382 H 5.4925575 5.9837618 V 5.9986468 6.9810555 H 5.4925575 5.0013532 Z"
     id="path4" />
  <path
     style="fill:#ffffff;stroke:#cccccc;stroke-width:0.02977"
     d="m 3.0067659,13.009472 v -2.991881 h 0.4912043 0.4912044 v 2.991881 2.991881 H 3.4979702 3.0067659 Z"
     id="path5" />
</svg>
