<?xml version="1.0" encoding="UTF-8" standalone="no"?>
<svg
   version="1.1"
   viewBox="0 0 22 22"
   id="svg2"
   sodipodi:docname="network-limited.svg"
   inkscape:version="1.3.2 (091e20ef0f, 2023-11-25, custom)"
   xmlns:inkscape="http://www.inkscape.org/namespaces/inkscape"
   xmlns:sodipodi="http://sodipodi.sourceforge.net/DTD/sodipodi-0.dtd"
   xmlns="http://www.w3.org/2000/svg"
   xmlns:svg="http://www.w3.org/2000/svg">
  <defs
     id="defs2" />
  <sodipodi:namedview
     id="namedview2"
     pagecolor="#505050"
     bordercolor="#ffffff"
     borderopacity="1"
     inkscape:showpageshadow="0"
     inkscape:pageopacity="0"
     inkscape:pagecheckerboard="1"
     inkscape:deskcolor="#d1d1d1"
     inkscape:zoom="53.818182"
     inkscape:cx="10.990709"
     inkscape:cy="11"
     inkscape:window-width="2560"
     inkscape:window-height="1388"
     inkscape:window-x="2560"
     inkscape:window-y="28"
     inkscape:window-maximized="1"
     inkscape:current-layer="svg2" />
  <style
     id="current-color-scheme"
     type="text/css">.ColorScheme-Text{color:#232629;}.ColorScheme-NegativeText { color: #da4453; } </style>
  <path
     class="ColorScheme-Text"
     d="m3 3v6h2v7c0 1.662 1.338 3 3 3h4v-2h1.4l0.6-1v-2h-7v2h2v2h-1c-1.108 0-2-0.892-2-2v-7h2v-6zm6 0v1h9v11h1v-12h-1zm-5 1h3v4h-3zm1 1v2h1v-2zm-2 5v6h1v-6z"
     fill="currentColor"
     id="path1" />
  <rect
     width="22"
     height="22"
     fill="none"
     id="rect1" />
  <path
     d="m13 19 3-5 3 5z"
     fill="#fdbc4b"
     fill-rule="evenodd"
     id="path2" />
  <path
     style="fill:#ffffff;stroke:#cccccc;stroke-width:0.0185811"
     d="M 7.7668919,18.980071 C 7.0438862,18.924044 6.4112106,18.630301 5.8891878,18.108278 5.4675128,17.686603 5.2259787,17.252325 5.0773809,16.648649 L 5.0270689,16.444257 5.0173352,12.71875 5.0076014,8.9932432 4.0088682,8.9884365 3.0101351,8.9836299 V 5.9922372 3.0008446 H 5.5 7.9898649 v 2.9913926 2.9913927 l -0.9987331,0.00481 -0.9987332,0.00481 -0.00528,3.4467911 c -0.00338,2.203651 0.0015,3.533911 0.013518,3.688344 0.022631,0.290776 0.079465,0.508755 0.1949046,0.747535 0.2728202,0.564309 0.7596083,0.944678 1.4001721,1.094073 0.095133,0.02219 0.2779397,0.0314 0.7704213,0.03883 l 0.6456925,0.0097 V 17.00379 15.98902 H 8.0084459 7.0050676 v -0.994088 -0.994087 h 3.4932434 3.493243 v 0.998439 0.998439 l -0.298198,0.497338 -0.298198,0.497338 h -0.705181 -0.70518 v 1.003378 1.003378 l -2.0206923,-0.0027 c -1.1113809,-0.0015 -2.1001267,-0.0089 -2.1972128,-0.01638 z M 7.0050676,6.0016892 V 3.9856419 H 5.5 3.9949324 V 6.0016892 8.0177365 H 5.5 7.0050676 Z"
     id="path3" />
  <path
     style="fill:#ffffff;stroke:#cccccc;stroke-width:0.0185811"
     d="m 3.0101351,12.997466 v -2.991554 h 0.4923987 0.4923986 v 2.991554 2.991554 H 3.5025338 3.0101351 Z"
     id="path4" />
  <path
     style="fill:#ffffff;stroke:#cccccc;stroke-width:0.0185811"
     d="M 5.0168919,6.0016892 V 5.0076014 H 5.5 5.9831081 V 6.0016892 6.995777 H 5.5 5.0168919 Z"
     id="path5" />
  <path
     style="fill:#ffffff;stroke:#cccccc;stroke-width:0.0185811"
     d="m 18.005068,9.4856419 v -5.5 H 13.508446 9.0118243 V 3.4932432 3.0008446 h 4.9890207 4.98902 v 5.9923986 5.9923988 h -0.492399 -0.492398 z"
     id="path6" />
</svg>
