<?xml version="1.0" encoding="UTF-8" standalone="no"?>
<svg
   id="svg8"
   version="1.1"
   viewBox="0 0 22 22"
   sodipodi:docname="redshift-status-off.svg"
   inkscape:version="1.3.2 (091e20ef0f, 2023-11-25, custom)"
   xmlns:inkscape="http://www.inkscape.org/namespaces/inkscape"
   xmlns:sodipodi="http://sodipodi.sourceforge.net/DTD/sodipodi-0.dtd"
   xmlns="http://www.w3.org/2000/svg"
   xmlns:svg="http://www.w3.org/2000/svg">
  <sodipodi:namedview
     id="namedview1"
     pagecolor="#505050"
     bordercolor="#ffffff"
     borderopacity="1"
     inkscape:showpageshadow="0"
     inkscape:pageopacity="0"
     inkscape:pagecheckerboard="1"
     inkscape:deskcolor="#d1d1d1"
     inkscape:zoom="33.590909"
     inkscape:cx="10.985115"
     inkscape:cy="11.014885"
     inkscape:window-width="2560"
     inkscape:window-height="1388"
     inkscape:window-x="2560"
     inkscape:window-y="28"
     inkscape:window-maximized="1"
     inkscape:current-layer="svg8" />
  <defs
     id="defs2">
    <style
       type="text/css"
       id="current-color-scheme">.ColorScheme-Text{color:#232629;}.ColorScheme-NegativeText { color: #da4453; } </style>
  </defs>
  <path
     id="path3454"
     d="m10.890625 3c-0.5128 0.0129-2.6475852 0.1660545-3.9824219 1.7773438-0.0015 0.0017999-0.0024062 0.0040493-0.0039062 0.0058593l0.7148437 0.7148438c0.020225-0.0267989 0.0374319-0.0564866 0.0585938-0.0820313 1.1537829-1.3927381 3.3183596-1.4160156 3.3183596-1.4160156a0.5 0.5 0 0 0 0.003906 0 0.5 0.5 0 0 0 0.003906 0s2.164577 0.0232794 3.31836 1.4160156c0.486171 0.5868642 0.726418 1.5112641 0.660156 2.4726563-0.06626 0.9613916-0.435408 1.9407003-1.060547 2.6250001-0.220404 0.241261-0.410353 0.474525-0.583984 0.703125l0.71289 0.712891c0.17352-0.236028 0.373545-0.48404 0.609375-0.742188 0.808129-0.884604 1.24004-2.0657905 1.320313-3.2304688 0.080279-1.1646777-0.187086-2.332796-0.888672-3.1796874-1.512377-1.8255963-4.044226-1.7782949-4.087891-1.7773438 0 0-0.007412 8.3e-6 -0.007812 0-0.0051-1.117e-4 -0.03726-0.00172-0.105469 0zm-4.8496094 5.1621094c0.1144332 1.0972603 0.538038 2.1926056 1.2988282 3.0253906 0.961861 1.052885 1.3654424 1.935288 1.5371093 2.537109 0.1155065 0.404939 0.1281973 0.647009 0.125 0.769532a0.5 0.5 0 0 0-0.0019531 0.005859v0.060547c-0.0016 0.01459-0.0039062 0.033203-0.0039062 0.033203a0.5 0.5 0 0 0 0.0039062 0.078125v0.328125 1 1.5a0.5 0.5 0 0 0 0.1464844 0.353516l0.9999996 1a0.50005 0.50005 0 0 0 0.353516 0.146484h1a0.50005 0.50005 0 0 0 0.353516-0.146484l1-1.001954a0.5 0.5 0 0 0 0.080078-0.103515 0.5 0.5 0 0 0 0.048828-0.121094 0.5 0.5 0 0 0 0.017578-0.128906v-1.498047-0.878906l-0.972656-0.972656c-0.01255 0.121048-0.020055 0.231355-0.021485 0.318359a0.5 0.5 0 0 0-0.005859 0.033203v0.5h-2v-0.5a0.5 0.5 0 0 0-0.0058594-0.072266 0.5 0.5 0 0 0-0.0019531-0.013672c-0.007566-0.229618-0.0402751-0.565113-0.1542969-0.964843-0.2149617-0.753602-0.7034231-1.779239-1.7597656-2.935547-0.2477932-0.271243-0.4547112-0.5891401-0.6191406-0.9335939l-1.4179688-1.4179687zm3.9589844 7.8378906h2v1h-2v-1z"
     class="ColorScheme-Text"
     fill="currentColor"
     stroke-linecap="square"
     stroke-linejoin="round"
     style="-inkscape-stroke:none;paint-order:markers fill stroke" />
  <path
     id="path4250"
     d="M 3.7070312 3 L 3 3.7070312 L 3.3535156 4.0605469 L 18.292969 19 L 19 18.292969 L 4.0605469 3.3535156 L 3.7070312 3 z "
     class="ColorScheme-NegativeText"
     fill="currentColor"
     stroke-linecap="square"
     style="-inkscape-stroke:none;paint-order:markers stroke fill" />
  <path
     style="opacity:1;fill:#ffffff;stroke:#cccccc;stroke-width:0.02977"
     d="M 10.285521,18.932112 C 10.17325,18.874449 9.1528967,17.863475 9.0852709,17.742896 9.0404481,17.662974 9.0334932,17.468942 9.0191117,15.897158 L 9.0030406,14.140731 8.9233565,13.847645 C 8.6861858,12.975309 8.2415828,12.207257 7.4300333,11.26793 6.8009224,10.539766 6.4503152,9.8991082 6.2226586,9.0617177 6.1582444,8.8247825 6.0731822,8.3780305 6.0731124,8.2762914 c -2.82e-5,-0.041103 0.2104251,0.1507131 0.68591,0.6251692 0.5926252,0.5913427 0.7025495,0.7154552 0.8079528,0.9122372 0.1431633,0.2672772 0.2943985,0.4746132 0.611827,0.8387822 0.9079763,1.041673 1.4748865,2.055587 1.7090302,3.056586 0.041584,0.177775 0.064237,0.410225 0.076157,0.781462 l 0.016967,0.528417 h 1.0230536 1.023054 v -0.423873 -0.423874 l 0.476319,0.475622 0.476319,0.475622 v 1.24443 c 0,1.169037 -0.0035,1.251123 -0.05717,1.354882 -0.07297,0.140988 -1.120993,1.182639 -1.232319,1.224832 -0.04961,0.0188 -0.335052,0.03169 -0.699595,0.03158 -0.495862,-1.48e-4 -0.633182,-0.0091 -0.705098,-0.04605 z M 12.020324,16.5 12.012179,15.986468 H 11 9.9878214 L 9.979676,16.5 9.9715304,17.013532 H 11 12.02847 Z"
     id="path1" />
  <path
     style="opacity:1;fill:#ffffff;stroke:#cccccc;stroke-width:0.02977"
     d="m 13.696664,11.553235 -0.3389,-0.339865 0.101226,-0.128778 c 0.05568,-0.07083 0.234134,-0.282943 0.396577,-0.471367 0.162443,-0.188424 0.351658,-0.429666 0.420477,-0.536094 0.890924,-1.3777913 0.969271,-3.3182675 0.181728,-4.5009649 -0.412888,-0.6200557 -1.223226,-1.1329814 -2.199291,-1.3921014 -0.928472,-0.2464852 -1.58849,-0.2464852 -2.5169617,0 C 8.9269753,4.400305 8.3583266,4.7119727 7.8435761,5.2242984 L 7.6046083,5.4621406 7.2660428,5.1226119 6.9274772,4.7830831 7.0366732,4.6540585 C 7.0967309,4.5830949 7.2494491,4.4338756 7.3760469,4.3224601 8.4749469,3.3553454 10.1705,2.8645314 11.713717,3.0668294 c 1.817284,0.2382252 3.287429,1.2122396 3.885981,2.5745779 0.246548,0.5611572 0.364303,1.1660217 0.36802,1.8903924 0.0049,0.9540483 -0.182379,1.7682591 -0.594266,2.5836773 -0.19664,0.389293 -0.409786,0.694934 -0.803687,1.152453 -0.190306,0.221042 -0.381437,0.451845 -0.424735,0.512896 -0.0433,0.06105 -0.08564,0.111288 -0.09409,0.111637 -0.0085,3.5e-4 -0.167875,-0.152303 -0.354271,-0.339228 z"
     id="path2" />
</svg>
