<?xml version="1.0" encoding="UTF-8" standalone="no"?>
<svg
   viewBox="0 0 22 22"
   version="1.1"
   id="svg2"
   sodipodi:docname="security-low.svg"
   inkscape:version="1.3.2 (091e20ef0f, 2023-11-25, custom)"
   xmlns:inkscape="http://www.inkscape.org/namespaces/inkscape"
   xmlns:sodipodi="http://sodipodi.sourceforge.net/DTD/sodipodi-0.dtd"
   xmlns="http://www.w3.org/2000/svg"
   xmlns:svg="http://www.w3.org/2000/svg">
  <sodipodi:namedview
     id="namedview2"
     pagecolor="#505050"
     bordercolor="#ffffff"
     borderopacity="1"
     inkscape:showpageshadow="0"
     inkscape:pageopacity="0"
     inkscape:pagecheckerboard="1"
     inkscape:deskcolor="#d1d1d1"
     inkscape:zoom="33.590909"
     inkscape:cx="10.985115"
     inkscape:cy="10.985115"
     inkscape:window-width="2560"
     inkscape:window-height="1388"
     inkscape:window-x="2560"
     inkscape:window-y="28"
     inkscape:window-maximized="1"
     inkscape:current-layer="svg2" />
  <defs
     id="defs3051">
    <style
       type="text/css"
       id="current-color-scheme">.ColorScheme-Text{color:#232629;}.ColorScheme-NegativeText { color: #da4453; } </style>
  </defs>
  <path
     style="fill:currentColor;fill-opacity:1;stroke:none"
     d="M 11 3 C 11 3 9 5.6575188 3 6.3242188 C 3 6.3242188 3 15.6581 11 19 C 19 15.6581 19 6.3242188 19 6.3242188 C 13 5.6575188 11 3 11 3 z M 11 4.3769531 C 12.586995 5.7216531 14.87716 6.6187125 17.845703 7.0703125 C 17.684444 8.5155125 17.529828 9.6030969 17.15625 10.654297 C 16.37116 12.863397 15.455775 14.207328 14.634766 15.173828 C 13.362538 16.671528 12.207192 17.277659 11 17.880859 C 9.792808 17.277659 8.6374614 16.671528 7.3652344 15.173828 C 6.5442254 14.207328 5.62884 12.863397 4.84375 10.654297 C 4.470172 9.6030969 4.3155559 8.5155125 4.1542969 7.0703125 C 7.1228399 6.6187125 9.413005 5.7216531 11 4.3769531 z "
     class="ColorScheme-Text"
     id="path1" />
  <path
     style="fill:currentColor;fill-opacity:1;stroke:none"
     d="M 12 11 C 11.445981 11 11 11.446 11 12 L 11 18 C 11 18.5541 11.445981 19 12 19 L 18 19 C 18.554019 19 19 18.5541 19 18 L 19 12 C 19 11.446 18.554019 11 18 11 L 12 11 z "
     class="ColorScheme-NegativeText"
     id="path2" />
  <path
     style="fill:#ffffff"
     d="M 13 12 L 12 13 L 14 15 L 12 17 L 13 18 L 15 16 L 17 18 L 18 17 L 16 15 L 18 13 L 17 12 L 15 14 L 13 12 z "
     id="path4141" />
  <path
     style="fill:#ffffff;stroke:#cccccc;stroke-width:0.02977"
     d="M 10.895805,18.940753 C 9.3268798,18.233159 8.2166282,17.483769 7.1143323,16.388363 5.0006706,14.287912 3.5699778,11.17883 3.1278893,7.7253045 3.0719813,7.2885595 2.9945349,6.3555943 3.0130538,6.3419278 3.0177822,6.3384385 3.2493911,6.3052569 3.5277402,6.2681912 6.5803828,5.8616927 9.2703418,4.7595468 10.710341,3.3252934 l 0.289914,-0.2887575 0.267802,0.2681351 c 0.79653,0.79752 2.028794,1.5261296 3.517841,2.0800185 0.193669,0.07204 0.419109,0.1514775 0.500976,0.1765272 0.594329,0.1818521 0.831652,0.2480525 1.254345,0.3498946 0.602869,0.1452529 1.278463,0.2701808 1.931041,0.3570799 0.278349,0.037066 0.510109,0.070398 0.515021,0.074072 0.01508,0.011274 -0.05279,0.869975 -0.0999,1.2639616 -0.120853,1.0107893 -0.343373,2.0484995 -0.655926,3.0588632 L 18.127857,11 h -0.534835 c -0.294159,0 -0.534835,-0.0062 -0.534835,-0.01384 0,-0.0076 0.06584,-0.207011 0.146323,-0.443113 0.170795,-0.501071 0.32781,-1.1560335 0.432851,-1.8055679 0.08061,-0.4984539 0.23301,-1.6702403 0.218572,-1.6805639 -0.0049,-0.00348 -0.122712,-0.023048 -0.261887,-0.04349 C 16.836193,6.9021136 15.69988,6.6378531 14.870095,6.3799479 13.503095,5.9550709 12.13368,5.2673376 11.26793,4.5709063 11.153315,4.4787076 11.044591,4.3941482 11.026321,4.3829966 11.00805,4.3718449 10.910316,4.4291602 10.809135,4.5103638 9.6260878,5.4598215 8.0310152,6.1892713 6.0879567,6.6694265 5.4956634,6.8157899 4.3689574,7.0405954 4.2276897,7.0405954 c -0.03101,0 -0.063658,0.011774 -0.072552,0.026164 -0.020005,0.032369 0.105969,1.04859 0.2071082,1.6707241 0.1061304,0.6528364 0.2629579,1.3059895 0.4342167,1.8084215 0.5584402,1.638327 1.3637784,3.15275 2.291597,4.309305 1.0086747,1.257344 1.9154031,1.999647 3.3857264,2.771762 l 0.504203,0.264774 0.01515,0.18766 c 0.01831,0.22686 0.155852,0.526221 0.299863,0.652664 l 0.09827,0.08628 -0.195637,0.08023 c -0.21977,0.09012 -0.199759,0.08731 -0.299831,0.04217 z"
     id="path3" />
</svg>
