<?xml version="1.0" encoding="UTF-8" standalone="no"?>
<svg
   viewBox="0 0 22 22"
   version="1.1"
   id="svg1"
   sodipodi:docname="security-medium.svg"
   inkscape:version="1.3.2 (091e20ef0f, 2023-11-25, custom)"
   xmlns:inkscape="http://www.inkscape.org/namespaces/inkscape"
   xmlns:sodipodi="http://sodipodi.sourceforge.net/DTD/sodipodi-0.dtd"
   xmlns="http://www.w3.org/2000/svg"
   xmlns:svg="http://www.w3.org/2000/svg">
  <sodipodi:namedview
     id="namedview1"
     pagecolor="#505050"
     bordercolor="#ffffff"
     borderopacity="1"
     inkscape:showpageshadow="0"
     inkscape:pageopacity="0"
     inkscape:pagecheckerboard="1"
     inkscape:deskcolor="#d1d1d1"
     inkscape:zoom="33.590909"
     inkscape:cx="10.985115"
     inkscape:cy="11.014885"
     inkscape:window-width="2560"
     inkscape:window-height="1388"
     inkscape:window-x="2560"
     inkscape:window-y="28"
     inkscape:window-maximized="1"
     inkscape:current-layer="svg1" />
  <defs
     id="defs3051">
    <style
       type="text/css"
       id="current-color-scheme">.ColorScheme-Text{color:#232629;}.ColorScheme-NeutralText { color: #f67400; } </style>
  </defs>
  <g
     transform="translate(0,-1030.3622)"
     id="g1">
    <path
       style="opacity:1;fill:currentColor;fill-opacity:1;stroke:none"
       d="M 11 3 C 11 3 9 5.6575188 3 6.3242188 C 3 6.3242188 3 15.6581 11 19 C 19 15.6581 19 6.3242188 19 6.3242188 C 13 5.6575188 11 3 11 3 z M 11 4.3769531 C 12.586995 5.7217384 14.87716 6.6187292 17.845703 7.0703125 C 17.684444 8.5155125 17.529828 9.6030967 17.15625 10.654297 C 16.37116 12.863397 15.455775 14.207328 14.634766 15.173828 C 13.362538 16.671474 12.207192 17.277691 11 17.880859 C 9.7928082 17.277691 8.6374611 16.671474 7.3652344 15.173828 C 6.544225 14.207328 5.6288398 12.863397 4.84375 10.654297 C 4.4701723 9.6030967 4.3155563 8.5155125 4.1542969 7.0703125 C 7.1228397 6.6187292 9.4130046 5.7217384 11 4.3769531 z M 11 5.5761719 C 9.2565091 6.786444 7.2978494 7.3993841 5.3320312 7.8164062 C 6.2628766 13.098378 8.2681151 15.357097 11 16.771484 L 11 5.5761719 z "
       transform="translate(0,1030.3622)"
       class="ColorScheme-Text"
       id="path4943-9-4-1" />
    <path
       style="fill:currentColor;fill-opacity:1;stroke:none"
       class="ColorScheme-NeutralText"
       d="m 15.5,1041.3602 0.0039,0 a 0.5,0.5 0 0 1 0.439453,0.2695 l 0.0039,0 3.986328,6.9746 -0.002,0 a 0.5,0.5 0 0 1 0.06836,0.252 0.5,0.5 0 0 1 -0.5,0.5 l -8,0 a 0.5,0.5 0 0 1 -0.5,-0.5 0.5,0.5 0 0 1 0.06836,-0.252 l -0.002,0 3.986328,-6.9727 0.002,0 a 0.5,0.5 0 0 1 0.002,0 0.5,0.5 0 0 1 0.443359,-0.2715 l 0,0 z"
       id="path4250" />
    <path
       style="opacity:1;fill:#ffffff;fill-opacity:1;stroke:none"
       d="M 15 13 L 15 16 L 16 16 L 16 13 L 15 13 z M 15 17 L 15 18 L 16 18 L 16 17 L 15 17 z "
       transform="translate(0,1030.3622)"
       id="rect4241" />
  </g>
  <path
     style="fill:#ffffff;stroke:#cccccc;stroke-width:0.02977"
     d="M 10.605774,16.537987 C 7.8309354,14.957935 6.2975255,12.538512 5.4641626,8.4255209 5.4060991,8.1389539 5.3585927,7.8867972 5.3585927,7.8651728 c 0,-0.025805 0.1099845,-0.06333 0.3200271,-0.1091875 C 7.6160699,7.3329888 9.3829166,6.64382 10.67253,5.8080817 l 0.2977,-0.1929252 0.0076,2.7817316 c 0.0042,1.5299525 0.0042,4.0342829 0,5.5651799 l -0.0076,2.783448 z"
     id="path1" />
  <path
     style="fill:#ffffff;stroke:#cccccc;stroke-width:0.02977"
     d="M 10.895805,18.940753 C 9.3268798,18.233159 8.2166282,17.483769 7.1143323,16.388363 5.0006706,14.287912 3.5699778,11.17883 3.1278893,7.7253045 3.0719813,7.2885595 2.9945349,6.3555943 3.0130538,6.3419278 3.0177822,6.3384385 3.2493911,6.3052569 3.5277402,6.2681912 6.5803828,5.8616927 9.2703418,4.7595468 10.710341,3.3252934 l 0.289914,-0.2887575 0.267802,0.2681351 c 0.79653,0.79752 2.028794,1.5261296 3.517841,2.0800185 0.193669,0.07204 0.419109,0.1514775 0.500976,0.1765272 0.594329,0.1818521 0.831652,0.2480525 1.254345,0.3498946 0.604509,0.1456477 1.285243,0.271555 1.94354,0.3594731 L 18.9967,6.3389564 18.97821,6.6079086 C 18.820347,8.9040242 18.268804,11.024278 17.333973,12.928722 L 17.1398,13.324291 16.83154,12.784525 16.523279,12.244759 16.68771,11.873184 c 0.49392,-1.116148 0.769399,-2.0259877 0.94942,-3.1357004 0.08052,-0.496326 0.233347,-1.6701662 0.218805,-1.6805639 -0.0049,-0.00348 -0.122712,-0.023048 -0.261887,-0.04349 C 17.141025,6.9468882 16.311507,6.7732894 15.724736,6.622226 13.936405,6.1618225 12.316084,5.4161693 11.26793,4.5712547 11.153315,4.4788644 11.044591,4.3941482 11.026321,4.3829966 11.00805,4.3718449 10.910316,4.4291602 10.809135,4.5103638 9.6274462,5.4587313 8.051727,6.1798923 6.0999394,6.6656261 5.5012384,6.8146224 4.3729387,7.0405954 4.2276897,7.0405954 c -0.03101,0 -0.063658,0.011774 -0.072552,0.026164 -0.00889,0.01439 0.017189,0.2923672 0.057962,0.6177267 0.2105221,1.6799399 0.4095504,2.4968619 0.9120696,3.7436379 0.8850822,2.195936 2.212553,4.03639 3.7626242,5.216643 0.4128218,0.31433 0.9126957,0.624732 1.5538675,0.964889 l 0.552768,0.293258 0.147153,-0.07457 c 0.08093,-0.04101 0.152551,-0.06917 0.159149,-0.06257 0.0066,0.0066 -0.055,0.131416 -0.136882,0.277374 -0.08188,0.145957 -0.157087,0.308916 -0.167119,0.362129 -0.02772,0.147034 0.01171,0.295731 0.107289,0.404588 l 0.0862,0.09817 -0.09722,0.03515 c -0.112602,0.04072 -0.101184,0.04086 -0.197189,-0.0024 z"
     id="path2" />
</svg>
