<?xml version="1.0" encoding="UTF-8" standalone="no"?>
<svg
   viewBox="0 0 22 22"
   version="1.1"
   id="svg1"
   sodipodi:docname="security-high.svg"
   inkscape:version="1.3.2 (091e20ef0f, 2023-11-25, custom)"
   xmlns:inkscape="http://www.inkscape.org/namespaces/inkscape"
   xmlns:sodipodi="http://sodipodi.sourceforge.net/DTD/sodipodi-0.dtd"
   xmlns="http://www.w3.org/2000/svg"
   xmlns:svg="http://www.w3.org/2000/svg">
  <sodipodi:namedview
     id="namedview1"
     pagecolor="#505050"
     bordercolor="#ffffff"
     borderopacity="1"
     inkscape:showpageshadow="0"
     inkscape:pageopacity="0"
     inkscape:pagecheckerboard="1"
     inkscape:deskcolor="#d1d1d1"
     inkscape:zoom="33.590909"
     inkscape:cx="10.985115"
     inkscape:cy="11.014885"
     inkscape:window-width="2560"
     inkscape:window-height="1388"
     inkscape:window-x="2560"
     inkscape:window-y="28"
     inkscape:window-maximized="1"
     inkscape:current-layer="svg1" />
  <defs
     id="defs3051">
    <style
       type="text/css"
       id="current-color-scheme">.ColorScheme-Text{color:#232629;}.ColorScheme-PositiveText { color: #27ae60; } </style>
  </defs>
  <g
     transform="translate(0,-1030.3622)"
     id="g1">
    <path
       style="opacity:1;fill:currentColor;fill-opacity:1;stroke:none"
       d="M 11 3 C 11 3 9 5.6575188 3 6.3242188 C 3 6.3242188 3 15.6581 11 19 C 19 15.6581 19 6.3242188 19 6.3242188 C 13 5.6575188 11 3 11 3 z M 11 4.3769531 C 12.586995 5.7216531 14.87716 6.6187125 17.845703 7.0703125 C 17.684444 8.5155125 17.529828 9.6030967 17.15625 10.654297 C 16.37116 12.863397 15.455775 14.207328 14.634766 15.173828 C 13.362538 16.671528 12.207192 17.277659 11 17.880859 C 9.792808 17.277659 8.6374614 16.671528 7.3652344 15.173828 C 6.5442254 14.207328 5.62884 12.863397 4.84375 10.654297 C 4.470172 9.6030967 4.3155559 8.5155125 4.1542969 7.0703125 C 7.1228399 6.6187125 9.413005 5.7216531 11 4.3769531 z M 11 5.5761719 C 9.256509 6.7864719 7.2978492 7.3994064 5.3320312 7.8164062 C 6.2628772 13.098406 8.268115 15.357084 11 16.771484 C 13.731885 15.357084 15.737124 13.098406 16.667969 7.8164062 C 14.702151 7.3994063 12.743491 6.7864719 11 5.5761719 z "
       transform="translate(0,1030.3622)"
       class="ColorScheme-Text"
       id="path4943-7" />
    <path
       style="fill:currentColor;fill-opacity:1;stroke:none"
       class="ColorScheme-PositiveText"
       d="m 15,1041.3622 c 2.216,0 4,1.784 4,4 0,2.216 -1.784,4 -4,4 -2.216,0 -4,-1.784 -4,-4 0,-2.216 1.784,-4 4,-4 z"
       id="rect4153" />
    <path
       style="fill:#ffffff"
       d="M 17 13 L 14 16 L 13 15 L 12 16 L 13 17 L 14 18 L 18 14 L 17 13 z "
       transform="translate(0,1030.3622)"
       id="path4142" />
  </g>
  <path
     style="fill:#ffffff;stroke:#cccccc;stroke-width:0.02977"
     d="M 10.605774,16.538011 C 7.8307594,14.957676 6.2975289,12.538528 5.4641626,8.4255209 5.4060991,8.1389539 5.3585927,7.8867972 5.3585927,7.8651728 c 0,-0.025805 0.1099845,-0.06333 0.3200271,-0.1091875 C 7.6167197,7.3328469 9.3553651,6.655396 10.660538,5.8148163 10.83405,5.7030679 10.986808,5.6116373 11,5.6116373 c 0.01319,0 0.16595,0.091566 0.339462,0.2034803 1.282234,0.8270309 2.942393,1.4794838 4.862838,1.9111254 0.299686,0.067358 0.439107,0.1114374 0.439107,0.1388288 0,0.081455 -0.210543,1.0806551 -0.324967,1.5422354 -0.104433,0.4212756 -0.280632,1.0227868 -0.438915,1.4983708 -0.05099,0.153203 -0.05597,0.158091 -0.143119,0.140529 -0.04966,-0.01001 -0.311944,-0.02614 -0.582851,-0.03585 -0.381687,-0.01368 -0.562268,-0.0066 -0.802247,0.03139 -1.465184,0.232063 -2.721661,1.311069 -3.166506,2.719254 -0.148469,0.469986 -0.18203,0.701514 -0.180186,1.243055 0.0019,0.562915 0.05927,0.917153 0.21963,1.356556 l 0.08652,0.237068 -0.145951,0.07396 c -0.08027,0.04068 -0.156443,0.07395 -0.169268,0.07394 -0.01282,-1.1e-5 -0.187322,-0.09342 -0.387773,-0.207572 z"
     id="path1" />
  <path
     style="fill:#ffffff;stroke:#cccccc;stroke-width:0.02977"
     d="M 10.895805,18.940753 C 9.3268798,18.233159 8.2166282,17.483769 7.1143323,16.388363 5.0006706,14.287912 3.5699778,11.17883 3.1278893,7.7253045 3.0719813,7.2885595 2.9945349,6.3555943 3.0130538,6.3419278 3.0177822,6.3384385 3.2493911,6.3052569 3.5277402,6.2681912 6.5803828,5.8616927 9.2703418,4.7595468 10.710341,3.3252934 l 0.289914,-0.2887575 0.267802,0.2681351 c 0.79653,0.79752 2.028794,1.5261296 3.517841,2.0800185 0.193669,0.07204 0.419109,0.1514775 0.500976,0.1765272 0.594329,0.1818521 0.831652,0.2480525 1.254345,0.3498946 0.604509,0.1456477 1.285243,0.271555 1.94354,0.3594731 l 0.511941,0.068372 -0.01849,0.2689522 c -0.119674,1.7406495 -0.464044,3.3743317 -1.032506,4.8981814 -0.222773,0.597177 -0.18802,0.560783 -0.382071,0.400114 -0.0897,-0.07427 -0.280309,-0.209813 -0.423577,-0.301211 -0.143268,-0.0914 -0.260487,-0.170789 -0.260487,-0.176423 0,-0.0056 0.04144,-0.114411 0.09208,-0.241733 0.306375,-0.770208 0.523139,-1.5677506 0.66571,-2.4493534 0.08061,-0.4984539 0.23301,-1.6702403 0.218572,-1.6805639 -0.0049,-0.00348 -0.122712,-0.023048 -0.261887,-0.04349 C 16.877853,6.9082328 15.663238,6.6282922 14.916129,6.3962312 13.523518,5.9636699 12.121099,5.2623811 11.267945,4.571932 11.153322,4.4791691 11.044591,4.3941482 11.026321,4.3829966 11.00805,4.3718449 10.910316,4.4291602 10.809135,4.5103638 9.6274462,5.4587313 8.051727,6.1798923 6.0999394,6.6656261 5.5012384,6.8146224 4.3729387,7.0405954 4.2276897,7.0405954 c -0.03101,0 -0.063658,0.011774 -0.072552,0.026164 -0.00889,0.01439 0.017189,0.2923672 0.057962,0.6177267 0.2105221,1.6799399 0.4095504,2.4968619 0.9120696,3.7436379 0.8850822,2.195936 2.212553,4.03639 3.7626242,5.216643 0.4131526,0.314582 0.9127996,0.624787 1.5557915,0.96591 l 0.554693,0.294278 0.414916,-0.217207 0.414917,-0.217207 0.152152,0.179138 c 0.08368,0.09853 0.248357,0.263146 0.365941,0.365823 l 0.21379,0.186687 -0.259023,0.145948 c -0.458086,0.258112 -1.244639,0.634993 -1.311051,0.628197 -0.01083,-0.0011 -0.05318,-0.01712 -0.09412,-0.03558 z"
     id="path2" />
</svg>
