<?xml version="1.0" encoding="UTF-8" standalone="no"?>
<svg
   version="1.1"
   viewBox="0 0 22 22"
   id="svg1"
   sodipodi:docname="smartphonetrusted.svg"
   inkscape:version="1.3.2 (091e20ef0f, 2023-11-25, custom)"
   xmlns:inkscape="http://www.inkscape.org/namespaces/inkscape"
   xmlns:sodipodi="http://sodipodi.sourceforge.net/DTD/sodipodi-0.dtd"
   xmlns="http://www.w3.org/2000/svg"
   xmlns:svg="http://www.w3.org/2000/svg">
  <defs
     id="defs1" />
  <sodipodi:namedview
     id="namedview1"
     pagecolor="#505050"
     bordercolor="#ffffff"
     borderopacity="1"
     inkscape:showpageshadow="0"
     inkscape:pageopacity="0"
     inkscape:pagecheckerboard="1"
     inkscape:deskcolor="#d1d1d1"
     inkscape:zoom="33.590909"
     inkscape:cx="10.985115"
     inkscape:cy="10.985115"
     inkscape:window-width="2560"
     inkscape:window-height="1388"
     inkscape:window-x="2560"
     inkscape:window-y="28"
     inkscape:window-maximized="1"
     inkscape:current-layer="svg1" />
  <style
     id="current-color-scheme"
     type="text/css">.ColorScheme-Highlight{color:#3daee9;}.ColorScheme-Text { color: #232629; } </style>
  <path
     id="smartphone"
     class="ColorScheme-Text"
     d="m8 3c-1.108 0-2 0.892-2 2v12c0 1.108 0.892 2 2 2h6c1.108 0 2-0.892 2-2v-12c0-1.108-0.892-2-2-2zm0 1h6c0.554 0 1 0.446 1 1v12c0 0.554-0.446 1-1 1h-6c-0.554 0-1-0.446-1-1v-12c0-0.554 0.446-1 1-1zm0.5 1a0.5 0.5 0 0 0-0.5 0.5 0.5 0.5 0 0 0 0.5 0.5 0.5 0.5 0 0 0 0.5-0.5 0.5 0.5 0 0 0-0.5-0.5zm1 11c-0.277 0-0.5 0.223-0.5 0.5s0.223 0.5 0.5 0.5h3c0.277 0 0.5-0.223 0.5-0.5s-0.223-0.5-0.5-0.5z"
     fill="currentColor" />
  <path
     class="ColorScheme-Highlight"
     d="m11 7.9961-0.3418 0.31836c-0.28297 0.26453-0.34587 0.37525-0.56836 0.48633-0.22249 0.11108-0.67875 0.24295-1.6582 0.37695l-0.43164 0.060547v0.43555s0.01651 3.1354 2.8145 4.2539l0.18555 0.074219 0.18555-0.074219c2.798-1.1179 2.8145-4.2539 2.8145-4.2539v-0.43555l-0.43164-0.060547c-0.97468-0.13461-1.4295-0.26502-1.6543-0.37695-0.22482-0.11194-0.29206-0.22582-0.57422-0.48828zm2e-3 1.3242c0.13645 0.12922 0.23454 0.25937 0.4668 0.375 0.29874 0.14874 0.86702 0.24653 1.457 0.35156-0.03231 0.49912-0.24398 2.0079-1.9258 2.8223-1.6806-0.81412-1.8932-2.3195-1.9258-2.8203 0.5928-0.10459 1.1619-0.20227 1.4609-0.35156 0.2328-0.11623 0.33093-0.24702 0.4668-0.37695z"
     fill="currentColor"
     id="path1" />
  <path
     style="fill:#ffffff;stroke:#cccccc;stroke-width:0.02977"
     d="M 7.6508796,18.958152 C 7.3837476,18.912107 7.0060838,18.737471 6.7532215,18.543065 6.477924,18.33141 6.218021,17.945581 6.0838614,17.549391 6.0305753,17.392031 6.0281086,17.140835 6.020501,11.097118 6.0117502,4.1452783 6.0000127,4.5921145 6.2024938,4.1688417 6.4684226,3.6129358 6.9050632,3.2479906 7.5014314,3.0831866 7.7202843,3.0227075 7.7803564,3.0216509 11,3.0216509 c 3.220281,0 3.279672,0.00105 3.498569,0.06157 0.68952,0.190654 1.178972,0.6627789 1.417569,1.3673875 0.05328,0.1573338 0.05577,0.4081354 0.06369,6.4154266 0.0057,4.318357 -0.0016,6.31564 -0.0235,6.45848 -0.05966,0.388543 -0.256153,0.770205 -0.552427,1.073003 -0.203166,0.207641 -0.441226,0.358112 -0.762522,0.481972 l -0.217832,0.08397 -3.34912,0.0038 c -1.8420163,0.0021 -3.3826117,-0.002 -3.4235454,-0.0091 z m 6.4927114,-0.960077 c 0.335635,-0.05498 0.607026,-0.249209 0.76383,-0.546651 l 0.08175,-0.155078 V 11 4.7036536 l -0.08289,-0.157315 C 14.748572,4.2470041 14.483159,4.0575524 14.143591,4.0019254 13.918207,3.9650038 8.0744393,3.966211 7.8484193,4.0032258 7.5160113,4.0576636 7.2503145,4.2493678 7.0925787,4.5485762 L 7.0108254,4.7036536 V 11 17.296346 l 0.081753,0.155078 c 0.1506407,0.285749 0.4303965,0.492557 0.7365585,0.544496 0.1940125,0.03291 6.1143611,0.03493 6.3144541,0.0022 z"
     id="path2" />
  <path
     style="fill:#ffffff;stroke:#cccccc;stroke-width:0.02977"
     d="M 9.3031123,16.942127 C 8.9557284,16.786215 8.9248893,16.288404 9.2500895,16.086221 l 0.1125627,-0.06998 h 1.6395218 1.639522 l 0.119695,0.07921 c 0.292723,0.193714 0.29288,0.59432 3.18e-4,0.811151 -0.0826,0.06122 -0.111862,0.06239 -1.726657,0.06894 -1.3239294,0.0054 -1.6599576,-0.0011 -1.7319397,-0.03342 z"
     id="path3" />
  <path
     style="fill:#ffffff;stroke:#cccccc;stroke-width:0.02977"
     d="M 8.3504736,5.9545686 C 8.1876439,5.8969271 8.0455994,5.7280359 8.0207862,5.5625696 7.9801197,5.2913858 8.2206976,5.0172176 8.4993234,5.0172176 c 0.28315,0 0.5195212,0.2720512 0.4778441,0.5499743 -0.044065,0.2938437 -0.3524433,0.484461 -0.6266939,0.3873767 z"
     id="path4" />
</svg>
