<?xml version="1.0" encoding="UTF-8" standalone="no"?>
<svg
   viewBox="0 0 22 22"
   version="1.1"
   id="svg1"
   sodipodi:docname="state-information.svg"
   inkscape:version="1.3.2 (091e20ef0f, 2023-11-25, custom)"
   xmlns:inkscape="http://www.inkscape.org/namespaces/inkscape"
   xmlns:sodipodi="http://sodipodi.sourceforge.net/DTD/sodipodi-0.dtd"
   xmlns="http://www.w3.org/2000/svg"
   xmlns:svg="http://www.w3.org/2000/svg">
  <sodipodi:namedview
     id="namedview1"
     pagecolor="#505050"
     bordercolor="#ffffff"
     borderopacity="1"
     inkscape:showpageshadow="0"
     inkscape:pageopacity="0"
     inkscape:pagecheckerboard="1"
     inkscape:deskcolor="#d1d1d1"
     inkscape:zoom="33.590909"
     inkscape:cx="10.985115"
     inkscape:cy="10.985115"
     inkscape:window-width="2560"
     inkscape:window-height="1388"
     inkscape:window-x="2560"
     inkscape:window-y="28"
     inkscape:window-maximized="1"
     inkscape:current-layer="svg1" />
  <defs
     id="defs3051">
    <style
       type="text/css"
       id="current-color-scheme">.ColorScheme-Text{color:#232629;}.ColorScheme-Highlight { color: #3daee9; } </style>
  </defs>
  <g
     transform="translate(-421.71429,-525.79074)"
     id="g1">
    <path
       style="opacity:1;fill:currentColor;fill-opacity:1;stroke:none"
       d="m 432.71439,529.79077 a 6,6 0 0 0 -6,6 6,6 0 0 0 0.004,0.12891 4,4 0 0 0 -3.00391,3.87109 4,4 0 0 0 4,4 l 9,0 a 5,5 0 0 0 5,-5 5,5 0 0 0 -3.24219,-4.67578 6,6 0 0 0 -5.75781,-4.32422 z m 0,1 a 5,5 0 0 1 4.91992,4.11133 4.0000019,4.0000019 0 0 1 3.08008,3.88867 4.0000019,4.0000019 0 0 1 -4,4 l -9,0 a 2.9999979,2.9999979 0 0 1 -3,-3 2.9999979,2.9999979 0 0 1 3,-3 2.9999979,2.9999979 0 0 1 0.10742,0.006 5,5 0 0 1 -0.10742,-1.00586 5,5 0 0 1 5,-5 z"
       id="path4196-4"
       class="ColorScheme-Text" />
    <path
       style="fill:currentColor;fill-opacity:1;stroke:none"
       class="ColorScheme-Highlight"
       d="m 441.71429,540.29071 a 4.5,4.5 0 0 1 -4.5,4.5 4.5,4.5 0 0 1 -4.5,-4.5 4.5,4.5 0 0 1 4.5,-4.5 4.5,4.5 0 0 1 4.5,4.5 z"
       id="path4509" />
    <path
       style="opacity:1;fill:#ffffff"
       d="M 15 11.992188 L 15 12.992188 L 16 12.992188 L 16 11.992188 L 15 11.992188 z M 15 13.992188 L 15 16.992188 L 16 16.992188 L 16 13.992188 L 15 13.992188 z "
       transform="translate(421.71429,525.79074)"
       id="rect4241" />
  </g>
  <path
     style="fill:#ffffff;stroke:#cccccc;stroke-width:0.02977"
     d="M 5.7009472,17.975987 C 4.749299,17.896513 3.8759786,17.493144 3.1982162,16.820027 2.4314258,16.058492 2.024135,15.083512 2.024477,14.010309 2.0248305,12.900927 2.4434297,11.91343 3.2403411,11.142026 3.6886592,10.708057 4.2004586,10.398756 4.7797764,10.211683 l 0.2364618,-0.07636 0.0088,-0.334239 C 5.0818187,7.6454897 6.3617588,5.6364529 8.2987602,4.6625476 9.8198244,3.8977715 11.5384,3.808474 13.128552,4.4115906 c 1.639632,0.6218834 2.950949,1.9729337 3.51625,3.6227903 0.09105,0.2657234 0.110302,0.2982292 0.198998,0.3359156 0.678145,0.2881414 1.195327,0.631027 1.674425,1.1101251 0.697033,0.6970334 1.162606,1.5621324 1.370534,2.5466424 0.06908,0.327098 0.112362,1.204525 0.07213,1.462321 l -0.02267,0.145256 -0.06979,-0.273805 C 19.687721,12.651905 19.324423,11.991545 18.796381,11.412199 18.667235,11.270505 18.488487,11.032731 18.399162,10.883811 17.915556,10.077549 17.03205,9.4021534 16.142023,9.1583425 L 15.942147,9.1035893 15.863583,8.7940139 C 15.341341,6.7361546 13.648924,5.2597125 11.534653,5.0175113 10.349426,4.8817372 9.072886,5.2184978 8.0680058,5.9320382 7.7089411,6.187001 7.1878376,6.7089049 6.9299824,7.0718092 6.1659847,8.1470576 5.8360341,9.5425289 6.0531455,10.780249 l 0.037172,0.211913 -0.313765,0.01644 c -0.387242,0.0203 -0.6975524,0.09967 -1.0589784,0.270882 -0.3467625,0.164264 -0.5018614,0.270563 -0.7793146,0.534116 -0.4703994,0.446834 -0.7706969,0.991815 -0.9050104,1.642417 -0.054041,0.261769 -0.045312,0.875492 0.016513,1.161028 0.26327,1.215899 1.2245081,2.13744 2.4541376,2.352786 0.2082548,0.03647 0.7448143,0.0437 3.245646,0.0437 H 11.74569 l 0.133244,0.185477 c 0.07329,0.102013 0.268879,0.323055 0.434654,0.491204 l 0.301409,0.305727 -3.3974849,-0.005 c -1.8686169,-0.0028 -3.451071,-0.0095 -3.5165649,-0.01495 z"
     id="path1" />
</svg>
