<?xml version="1.0" encoding="UTF-8" standalone="no"?>
<svg
   viewBox="0 0 22 22"
   version="1.1"
   id="svg2"
   sodipodi:docname="telegram-attention-panel.svg"
   inkscape:version="1.3.2 (091e20ef0f, 2023-11-25, custom)"
   xmlns:inkscape="http://www.inkscape.org/namespaces/inkscape"
   xmlns:sodipodi="http://sodipodi.sourceforge.net/DTD/sodipodi-0.dtd"
   xmlns="http://www.w3.org/2000/svg"
   xmlns:svg="http://www.w3.org/2000/svg">
  <sodipodi:namedview
     id="namedview2"
     pagecolor="#505050"
     bordercolor="#ffffff"
     borderopacity="1"
     inkscape:showpageshadow="0"
     inkscape:pageopacity="0"
     inkscape:pagecheckerboard="1"
     inkscape:deskcolor="#d1d1d1"
     inkscape:zoom="33.590909"
     inkscape:cx="10.985115"
     inkscape:cy="10.985115"
     inkscape:window-width="2560"
     inkscape:window-height="1388"
     inkscape:window-x="2560"
     inkscape:window-y="28"
     inkscape:window-maximized="1"
     inkscape:current-layer="svg2" />
  <defs
     id="defs1">
    <style
       id="current-color-scheme"
       type="text/css">.ColorScheme-Text{color:#232629;}.ColorScheme-Highlight { color: #3daee9; } </style>
  </defs>
  <path
     class="ColorScheme-Text"
     style="fill:currentColor"
     d="m17.268 4.1992c-0.82205 0.0147-1.5875 0.34034-5.1738 1.832-1.2632 0.52541-3.7689 1.6078-7.498 3.2324l-0.0058593 0.0019531-0.0019532 0.0019531c-0.0144 6e-3 -0.014797 0.0050188-0.029297 0.011719h0.0058593c-0.34073 0.13685-0.6345 0.2752-0.90039 0.47266-0.27344 0.20307-0.59072 0.5085-0.65625 1.0312-0.0442 0.35219 0.087795 0.78214 0.29688 1.0391 0.20904 0.25693 0.43187 0.38212 0.63086 0.47852 0.39798 0.19278 0.76956 0.28117 1.1484 0.4043 0.69094 0.22461 1.4963 0.50618 2.291 0.52344 0.65397 0.0141 1.2549-0.266 1.834-0.63867-0.11036 0.36111-0.15244 0.83261 0.039062 1.1992 0.21638 0.4144 0.53879 0.68124 0.93359 0.94141 0.70504 0.4646 1.2297 0.82648 1.8203 1.2266 0.004081-0.37969 0.061636-0.74756 0.16602-1.0957-0.44363-0.30234-0.8821-0.60079-1.4375-0.9668-1.2728-0.83875-0.44607-1.2993 0.2793-2.0527 0.18983-0.19717 3.4869-3.1985 3.5508-3.4707 8e-3 -0.034 0.014853-0.16151-0.060547-0.22852-0.0754-0.067-0.18534-0.043591-0.26562-0.025391-0.11379 0.0258-1.9262 1.2254-5.4375 3.5957-0.5145 0.35329-0.98287 0.52464-1.4004 0.51562-0.4603-0.01-1.3457-0.26064-2.0039-0.47461-0.80733-0.26243-1.4484-0.40001-1.3926-0.8457 0.0291-0.23215 0.34872-0.4702 0.95898-0.71289 3.7582-1.6374 6.2656-2.7187 7.5195-3.2402 3.5801-1.4891 4.3237-1.7473 4.8086-1.7559 0.10664-2e-3 0.34555 0.025091 0.5 0.15039 0.13042 0.10582 0.16642 0.24733 0.18359 0.34766 0.0172 0.10035 0.038484 0.32922 0.021485 0.50781-0.12333 1.2958-0.50748 3.7402-0.88086 5.9551 0.33504 0.097836 0.65217 0.23672 0.94531 0.41406 0.38653-2.2736 0.79448-4.8528 0.92969-6.2734 0.0321-0.33717 0.00495-0.5574-0.03125-0.77148-0.0296-0.17305-0.13619-0.63012-0.53906-0.95703-0.49099-0.39826-0.84596-0.37873-1.1465-0.37305h-0.001953z"
     id="path1" />
  <path
     class="ColorScheme-Highlight"
     style="fill:currentColor"
     d="m16 13a3 3 0 0 0-3 3 3 3 0 0 0 3 3 3 3 0 0 0 3-3 3 3 0 0 0-3-3z"
     id="path2" />
  <path
     style="fill:#ffffff;stroke:#cccccc;stroke-width:0.02977"
     d="M 10.91069,15.203783 C 9.7001549,14.385603 9.4692061,14.185733 9.271193,13.784913 L 9.1542625,13.548222 v -0.37357 c 0,-0.225744 0.014778,-0.413766 0.037347,-0.475149 0.020541,-0.05587 0.032157,-0.10677 0.025814,-0.113113 -0.00634,-0.0063 -0.116472,0.05218 -0.2447311,0.130045 -0.8679932,0.526971 -1.5653,0.609472 -2.7304367,0.323046 C 5.654856,12.895081 4.2487095,12.428773 3.9320083,12.273354 3.5470663,12.084447 3.3189895,11.871296 3.1707003,11.561869 2.8247178,10.839925 3.0766828,10.129735 3.8497469,9.6479053 3.9699967,9.5729568 4.3151416,9.4039289 4.6167354,9.2722876 4.9183293,9.1406463 5.2990528,8.9743469 5.4627876,8.9027332 10.738645,6.5951988 14.756334,4.9086386 15.971583,4.4913122 c 0.616502,-0.2117118 0.859166,-0.25912 1.339648,-0.2617214 0.492433,-0.00267 0.618012,0.030797 0.95076,0.253353 0.449109,0.3003824 0.665571,0.717073 0.717783,1.3817382 0.02048,0.2606625 -0.03353,0.7947893 -0.212213,2.0987821 -0.142096,1.0369898 -0.643536,4.2152059 -0.71275,4.5175339 l -0.01532,0.06693 -0.168701,-0.09521 C 17.77801,12.400358 17.57301,12.309886 17.415245,12.25168 L 17.1284,12.145847 17.256538,11.371977 C 17.567439,9.4943346 17.853408,7.5621562 17.968096,6.564276 18.083553,5.5596932 17.938375,5.2346219 17.359363,5.2012556 17.184059,5.1911535 17.0604,5.2056051 16.814339,5.2649511 15.906486,5.4839113 12.732091,6.7949135 5.7463988,9.8359312 4.2138854,10.503066 4.0313352,10.616793 3.9964699,10.926118 c -0.018591,0.164934 0.046055,0.282612 0.2177119,0.396313 0.1740678,0.115298 0.3830542,0.194602 1.1444109,0.434272 1.4930179,0.469992 2.0615107,0.560563 2.5587479,0.407653 0.3633772,-0.111746 0.631879,-0.266224 1.6131198,-0.928079 1.4527736,-0.979909 3.9010946,-2.609203 4.3089676,-2.8675065 0.483715,-0.3063334 0.658625,-0.3292783 0.705075,-0.092493 0.01536,0.078311 -0.0064,0.1175086 -0.173599,0.3125846 -0.25042,0.2921865 -0.969461,0.9918815 -2.359409,2.2959279 -1.791201,1.680502 -1.949621,1.858569 -1.948969,2.190675 3.5e-4,0.178398 0.120479,0.39899 0.306404,0.562648 0.0723,0.06364 0.4984,0.361996 0.946891,0.663012 0.448491,0.301016 0.818708,0.549866 0.822705,0.553 0.004,0.0031 -0.01935,0.125228 -0.05189,0.271321 -0.03253,0.146092 -0.06795,0.382842 -0.07871,0.52611 -0.01075,0.143268 -0.02759,0.259582 -0.03742,0.258475 -0.0098,-0.0011 -0.486746,-0.318918 -1.059818,-0.706248 z"
     id="path3" />
</svg>
