<?xml version="1.0" encoding="UTF-8" standalone="no"?>
<svg
   width="22"
   height="22"
   version="1.1"
   id="svg1"
   sodipodi:docname="touchpad_enabled.svg"
   inkscape:version="1.3.2 (091e20ef0f, 2023-11-25, custom)"
   xmlns:inkscape="http://www.inkscape.org/namespaces/inkscape"
   xmlns:sodipodi="http://sodipodi.sourceforge.net/DTD/sodipodi-0.dtd"
   xmlns="http://www.w3.org/2000/svg"
   xmlns:svg="http://www.w3.org/2000/svg">
  <defs
     id="defs1" />
  <sodipodi:namedview
     id="namedview1"
     pagecolor="#505050"
     bordercolor="#ffffff"
     borderopacity="1"
     inkscape:showpageshadow="0"
     inkscape:pageopacity="0"
     inkscape:pagecheckerboard="1"
     inkscape:deskcolor="#d1d1d1"
     inkscape:zoom="33.590909"
     inkscape:cx="10.985115"
     inkscape:cy="10.985115"
     inkscape:window-width="2560"
     inkscape:window-height="1388"
     inkscape:window-x="2560"
     inkscape:window-y="28"
     inkscape:window-maximized="1"
     inkscape:current-layer="svg1" />
  <style
     type="text/css"
     id="current-color-scheme">.ColorScheme-Text{color:#31363b;}.ColorScheme-Background{color:#eff0f1;}.ColorScheme-Highlight{color:#3daee9;}.ColorScheme-ViewText{color:#31363b;}.ColorScheme-ViewBackground{color:#fcfcfc;}.ColorScheme-ViewHover{color:#93cee9;}.ColorScheme-ViewFocus{color:#3daee9;}.ColorScheme-ButtonText{color:#31363b;}.ColorScheme-ButtonBackground{color:#eff0f1;}.ColorScheme-ButtonHover{color:#93cee9;}.ColorScheme-ButtonFocus{color:#3daee9;}.ColorScheme-NegativeText { color: #da4453; } </style>
  <g
     transform="translate(0,32) translate(0,-42)"
     id="22-22-touchpad_enabled">
    <path
       id="path7"
       class="ColorScheme-Text"
       d="m 4,13 c -0.554,0 -1,0.446 -1,1 l 0,14 c 0,0.554 0.446,1 1,1 l 14,0 c 0.554,0 1,-0.446 1,-1 l 0,-14 c 0,-0.554 -0.446,-1 -1,-1 L 4,13 Z m 0,1 14,0 0,11 -14,0 0,-11 z m 0,12 6,0 0,2 -6,0 0,-2 z m 8,0 6,0 0,2 -6,0 0,-2 z"
       style="fill:currentColor;fill-opacity:1;stroke:none" />
    <path
       id="path9"
       d="M 0 10 L 0 32 L 22 32 L 22 10 L 0 10 z "
       style="opacity:1;fill:none" />
  </g>
  <path
     style="opacity:1;fill:#ffffff;stroke:#cccccc;stroke-width:0.02977"
     d="M 3.6445671,18.917114 C 3.3597334,18.80753 3.1450145,18.569747 3.0539304,18.263034 3.0114663,18.120042 3.0067659,17.395982 3.0067659,10.997732 V 3.8912513 L 3.0691009,3.6894341 C 3.1504502,3.4260558 3.3802382,3.1834886 3.6407138,3.0860322 L 3.8127883,3.0216509 H 11 c 7.177023,0 7.187443,8.67e-5 7.350623,0.06114 0.228307,0.085421 0.434822,0.2802234 0.541119,0.5104288 l 0.08661,0.187565 V 11 18.219215 l -0.08661,0.187565 c -0.106297,0.230206 -0.312812,0.425009 -0.541119,0.510429 -0.163224,0.06107 -0.171635,0.06114 -7.359182,0.05959 -7.0643571,-0.0015 -7.1985307,-0.0026 -7.3468739,-0.05968 z m 6.3581409,-1.911025 2e-6,-1.019621 -3.0067675,0.0077 -3.0067679,0.0077 v 1.011897 1.011897 h 3.0067659 3.0067655 z m 8.008117,0.0077 v -1.011897 l -3.006768,-0.0077 -3.006767,-0.0077 2e-6,1.019621 2e-6,1.019621 h 3.006766 3.006765 z m 0,-7.5171959 V 3.9742896 H 11 3.9891746 V 9.4966171 15.018945 H 11 18.010825 Z"
     id="path1" />
</svg>
