<?xml version="1.0" encoding="UTF-8" standalone="no"?>
<svg
   width="22"
   height="22"
   version="1.1"
   id="svg1"
   sodipodi:docname="touchpad_disabled.svg"
   inkscape:version="1.3.2 (091e20ef0f, 2023-11-25, custom)"
   xmlns:inkscape="http://www.inkscape.org/namespaces/inkscape"
   xmlns:sodipodi="http://sodipodi.sourceforge.net/DTD/sodipodi-0.dtd"
   xmlns="http://www.w3.org/2000/svg"
   xmlns:svg="http://www.w3.org/2000/svg">
  <defs
     id="defs1" />
  <sodipodi:namedview
     id="namedview1"
     pagecolor="#505050"
     bordercolor="#ffffff"
     borderopacity="1"
     inkscape:showpageshadow="0"
     inkscape:pageopacity="0"
     inkscape:pagecheckerboard="1"
     inkscape:deskcolor="#d1d1d1"
     inkscape:zoom="33.590909"
     inkscape:cx="10.985115"
     inkscape:cy="10.985115"
     inkscape:window-width="2560"
     inkscape:window-height="1388"
     inkscape:window-x="2560"
     inkscape:window-y="28"
     inkscape:window-maximized="1"
     inkscape:current-layer="svg1" />
  <style
     type="text/css"
     id="current-color-scheme">.ColorScheme-Text{color:#31363b;}.ColorScheme-Background{color:#eff0f1;}.ColorScheme-Highlight{color:#3daee9;}.ColorScheme-ViewText{color:#31363b;}.ColorScheme-ViewBackground{color:#fcfcfc;}.ColorScheme-ViewHover{color:#93cee9;}.ColorScheme-ViewFocus{color:#3daee9;}.ColorScheme-ButtonText{color:#31363b;}.ColorScheme-ButtonBackground{color:#eff0f1;}.ColorScheme-ButtonHover{color:#93cee9;}.ColorScheme-ButtonFocus{color:#3daee9;}.ColorScheme-NegativeText { color: #da4453; } </style>
  <g
     id="22-22-touchpad_disabled"
     inkscape:label="#22-22-touchpad_disabled"
     transform="translate(0,-10)">
    <path
       id="path17"
       class="ColorScheme-Text"
       d="m 4,13 c -0.554,0 -1,0.446 -1,1 l 0,14 c 0,0.554 0.446,1 1,1 l 14,0 c 0.554,0 1,-0.446 1,-1 l 0,-14 c 0,-0.554 -0.446,-1 -1,-1 L 4,13 Z m 0,1 14,0 0,11 -14,0 0,-11 z m 0,12 6,0 0,2 -6,0 0,-2 z m 8,0 6,0 0,2 -6,0 0,-2 z"
       style="fill:currentColor;fill-opacity:0.6;stroke:none" />
    <path
       id="path19"
       d="M 0 10 L 0 32 L 22 32 L 22 10 L 0 10 z "
       style="opacity:1;fill:none" />
    <path
       id="path21"
       class="ColorScheme-NegativeText"
       d="M 8.8476562,17 8,17.847656 10.152344,20 8,22.152344 8.8476562,23 11,20.847656 13.152344,23 14,22.152344 11.847656,20 14,17.847656 13.152344,17 11,19.152344 8.8476562,17 Z"
       style="fill:currentColor;fill-opacity:1;stroke:none" />
  </g>
  <path
     style="fill:#ffffff;stroke:#cccccc;stroke-width:0.02977;opacity:0.3"
     d="M 3.7212449,18.950633 C 3.4610935,18.870783 3.2066485,18.645598 3.0871887,18.38949 L 3.0216509,18.248985 V 11 3.7510149 L 3.0871887,3.6105097 C 3.1754817,3.4212199 3.37376,3.212103 3.556315,3.115739 l 0.1500449,-0.079203 7.2397891,-0.00768 7.239789,-0.00768 0.171425,0.064138 c 0.217341,0.081318 0.430936,0.2788569 0.538698,0.4982048 l 0.08229,0.1674973 0.0079,7.1745599 c 0.0078,7.111914 0.0074,7.176285 -0.05191,7.372084 -0.07245,0.239247 -0.261428,0.465708 -0.488647,0.585584 l -0.152053,0.08022 -7.248985,0.005 c -3.9869419,0.0028 -7.2824764,-0.0053 -7.3234101,-0.01784 z M 10.002706,17.013532 V 16.001353 H 6.9959405 3.9891746 v 0.997152 0.997151 l 2.9993234,0.0077 c 1.6496278,0.0043 3.0026725,0.01101 3.0067659,0.01503 0.00409,0.004 0.00744,-0.448182 0.00744,-1.00488 z m 8.008119,-0.01517 V 16.001353 H 15.00406 11.997294 l -2e-6,1.004736 -2e-6,1.004736 3.006767,-0.0077 3.006768,-0.0077 z m 0,-7.486863 V 4.0040595 H 11 3.9891746 V 9.511502 15.018945 H 11 18.010825 Z"
     id="path1" />
</svg>
