<?xml version="1.0" encoding="UTF-8" standalone="no"?>
<svg
   width="22"
   height="22"
   version="1.1"
   id="svg1"
   sodipodi:docname="wallet-closed.svg"
   inkscape:version="1.3.2 (091e20ef0f, 2023-11-25, custom)"
   xmlns:inkscape="http://www.inkscape.org/namespaces/inkscape"
   xmlns:sodipodi="http://sodipodi.sourceforge.net/DTD/sodipodi-0.dtd"
   xmlns="http://www.w3.org/2000/svg"
   xmlns:svg="http://www.w3.org/2000/svg">
  <defs
     id="defs1" />
  <sodipodi:namedview
     id="namedview1"
     pagecolor="#505050"
     bordercolor="#ffffff"
     borderopacity="1"
     inkscape:showpageshadow="0"
     inkscape:pageopacity="0"
     inkscape:pagecheckerboard="1"
     inkscape:deskcolor="#d1d1d1"
     inkscape:zoom="33.590909"
     inkscape:cx="10.985115"
     inkscape:cy="10.985115"
     inkscape:window-width="2560"
     inkscape:window-height="1388"
     inkscape:window-x="2560"
     inkscape:window-y="28"
     inkscape:window-maximized="1"
     inkscape:current-layer="svg1" />
  <style
     type="text/css"
     id="current-color-scheme">.ColorScheme-Text{color:#31363b;}.ColorScheme-Background{color:#eff0f1;}.ColorScheme-Highlight{color:#3daee9;}.ColorScheme-ViewText{color:#31363b;}.ColorScheme-ViewBackground{color:#fcfcfc;}.ColorScheme-ViewHover{color:#93cee9;}.ColorScheme-ViewFocus{color:#3daee9;}.ColorScheme-ButtonText{color:#31363b;}.ColorScheme-ButtonBackground{color:#eff0f1;}.ColorScheme-ButtonHover{color:#93cee9;}.ColorScheme-ButtonFocus { color: #3daee9; } </style>
  <g
     id="wallet-closed"
     transform="translate(-22,0)">
    <path
       inkscape:connector-curvature="0"
       style="opacity:1;fill:currentColor;fill-opacity:1;stroke:none"
       d="m 24,7 0,1 0,10 c 0,0.554 0.446,1 1,1 l 16,0 1,0 0,-1 0,-10 C 42,7.446 41.554,7 41,7 L 25,7 Z m 1,1 16,0 0,3 -2,0 -5,0 c -1.108,0 -2,0.892 -2,2 0,1.108 0.892,2 2,2 l 5,0 2,0 0,3 -16,0 z m 10,4 c 0.552285,0 1,0.447715 1,1 0,0.552285 -0.447715,1 -1,1 -0.552285,0 -1,-0.447715 -1,-1 0,-0.552285 0.447715,-1 1,-1 z"
       id="path4200"
       sodipodi:nodetypes="ccsscccssccccccssscccccsssss"
       class="ColorScheme-Text" />
    <rect
       y="0"
       x="22"
       height="22"
       width="22"
       id="rect4222"
       style="opacity:1;fill:none;fill-opacity:1;stroke:none" />
  </g>
  <path
     style="fill:#ffffff;stroke:#cccccc;stroke-width:0.02977;opacity:0.3"
     d="M 2.6910942,18.936129 C 2.5139809,18.880695 2.3075912,18.728506 2.2026191,18.575934 2.0112114,18.297733 2.0243572,18.738162 2.0243572,12.603584 V 7.0103235 l 8.6109608,0.00769 8.610961,0.00769 0.139194,0.06433 c 0.18765,0.086723 0.399724,0.2877906 0.496082,0.4703345 l 0.0792,0.150045 0.0077,5.633965 0.0077,5.633964 -8.581495,-0.002 c -6.9001372,-0.0016 -8.6054308,-0.0095 -8.7036618,-0.04023 z m 16.3247398,-2.435346 0.0077,-1.510043 -3.69919,-0.0082 -3.69919,-0.0082 -0.25655,-0.09185 c -0.494478,-0.177031 -0.893906,-0.518608 -1.123587,-0.960853 -0.162638,-0.313156 -0.221157,-0.552856 -0.222677,-0.912116 -0.0039,-0.920284 0.568611,-1.66895 1.483734,-1.940287 0.16623,-0.04929 0.433122,-0.05359 3.847768,-0.06207 l 3.669147,-0.0091 V 9.4956159 7.9932341 H 11 2.9769959 v 4.9963919 c 0,2.748015 0.00896,5.005347 0.019901,5.016292 0.010946,0.01095 3.6179483,0.01653 8.0155621,0.0124 l 7.99566,-0.0075 z m -5.588993,-2.58867 c 0.381091,-0.176413 0.630416,-0.615747 0.579797,-1.021654 -0.02585,-0.207319 -0.170861,-0.493771 -0.316615,-0.625451 -0.204355,-0.184622 -0.417178,-0.266037 -0.695436,-0.266037 -0.194812,0 -0.269025,0.01432 -0.407744,0.07865 -0.207818,0.09638 -0.403704,0.287162 -0.498298,0.4853 -0.103486,0.216761 -0.118722,0.567653 -0.03436,0.791266 0.10646,0.282183 0.353388,0.517666 0.642702,0.612914 0.1868,0.0615 0.534973,0.03527 0.729953,-0.05499 z"
     id="path1" />
  <path
     style="fill:#ffffff;stroke:#cccccc;stroke-width:0.02977"
     d="M 3.2151556,18.9201 C 2.5874649,18.901664 2.5220439,18.881803 2.3017375,18.642799 2.1252803,18.451366 2.1121969,18.414868 2.0824746,18.031135 2.0676591,17.839856 2.05522,15.288735 2.0548322,12.361976 l -7.05e-4,-5.3213806 8.5960758,2.794e-4 8.596076,2.793e-4 0.157696,0.090435 c 0.197642,0.1133421 0.358169,0.2724881 0.461703,0.4577303 l 0.08019,0.1434846 v 5.607887 5.607888 l -8.089987,-0.0062 C 7.4063938,18.939044 3.518065,18.928997 3.2151556,18.9201 Z M 19.013284,18.015584 c 0.01026,-0.01026 0.02523,-0.702099 0.03327,-1.537418 l 0.01461,-1.518761 h -3.707716 -3.707716 l -0.288529,-0.116111 c -0.357594,-0.143903 -0.558192,-0.28023 -0.805681,-0.547541 -0.205033,-0.221454 -0.371772,-0.519326 -0.445058,-0.795076 -0.05719,-0.215182 -0.05606,-0.73477 0.0021,-0.982409 0.14745,-0.62748 0.652684,-1.163295 1.308182,-1.387362 l 0.23816,-0.08141 3.698918,-0.01343 3.698917,-0.01343 V 9.4930477 7.9634642 H 11 2.947226 v 4.6692098 c 0,2.568065 0.00874,4.831756 0.019422,5.030424 l 0.019422,0.361214 0.4941095,0.01105 c 0.8377947,0.01874 15.5132725,5.1e-5 15.5331035,-0.01978 z m -5.631687,-4.059145 c 0.107462,-0.03507 0.19924,-0.09898 0.330075,-0.229846 0.22405,-0.224096 0.316391,-0.439042 0.317795,-0.73975 8.07e-4,-0.172839 -0.01448,-0.232453 -0.108298,-0.422278 -0.20404,-0.412846 -0.511452,-0.595506 -0.971237,-0.577096 -0.300961,0.01205 -0.465896,0.0811 -0.671875,0.281293 -0.567917,0.551951 -0.297274,1.537234 0.478371,1.741524 0.123172,0.03244 0.445994,0.0046 0.625169,-0.05385 z"
     id="path2" />
</svg>
