<?xml version="1.0" encoding="UTF-8" standalone="no"?>
<svg
   viewBox="0 0 24 24"
   width="24"
   height="24"
   version="1.1"
   id="svg8"
   sodipodi:docname="audio-volume-muted.svg"
   inkscape:version="1.3.2 (091e20ef0f, 2023-11-25, custom)"
   xmlns:inkscape="http://www.inkscape.org/namespaces/inkscape"
   xmlns:sodipodi="http://sodipodi.sourceforge.net/DTD/sodipodi-0.dtd"
   xmlns="http://www.w3.org/2000/svg"
   xmlns:svg="http://www.w3.org/2000/svg">
  <defs
     id="defs8" />
  <sodipodi:namedview
     id="namedview8"
     pagecolor="#505050"
     bordercolor="#ffffff"
     borderopacity="1"
     inkscape:showpageshadow="0"
     inkscape:pageopacity="0"
     inkscape:pagecheckerboard="1"
     inkscape:deskcolor="#d1d1d1"
     inkscape:zoom="49.333333"
     inkscape:cx="11.989865"
     inkscape:cy="12"
     inkscape:window-width="2560"
     inkscape:window-height="1388"
     inkscape:window-x="2560"
     inkscape:window-y="28"
     inkscape:window-maximized="1"
     inkscape:current-layer="svg8" />
  <style
     id="current-color-scheme"
     type="text/css">.ColorScheme-Text{color:#232629;}.ColorScheme-NegativeText { color: #da4453; } </style>
  <g
     transform="translate(1,1)"
     id="g8">
    <g
       class="ColorScheme-Text"
       fill="currentColor"
       id="g7">
      <path
         d="m3 8v6h2v-6z"
         id="path1" />
      <path
         d="m6 8v6l5 5h1v-5z"
         id="path2" />
      <path
         d="m11 3-3 3 4 4v-7z"
         id="path3" />
      <g
         opacity=".35"
         id="g6">
        <path
           d="m14.832031 16.832031a7 7 0 0 1 -1.21289.646485l.24414.974609a8 8 0 0 0 1.681641-.908203z"
           id="path4" />
        <path
           d="m14.324219 7.28125-.539063.8613281a4 4 0 0 1 1.214844 2.8574219 4 4 0 0 1 -.371094 1.628906l.75.75a5 5 0 0 0 .621094-2.378906 5 5 0 0 0 -1.675781-3.71875z"
           id="path5" />
        <path
           d="m13.865234 3.5371094-.24414.9765625a7 7 0 0 1 4.378906 6.4863281 7 7 0 0 1 -1.166016 3.833984l.716797.716797a8 8 0 0 0 1.449219-4.550781 8 8 0 0 0 -5.134766-7.4628906z"
           id="path6" />
      </g>
    </g>
    <path
       d="m-.50000006 4.7426407 1-.0000001v21.6274174h-1z"
       class="ColorScheme-NegativeText"
       fill="currentColor"
       transform="matrix(.70710678 -.70710678 .70710678 .70710678 0 0)"
       id="path7" />
  </g>
  <path
     style="opacity:0.3;fill:#ffffff;stroke:#cccccc;stroke-width:0.0202703"
     d="m 18.197412,16.190661 c -0.186617,-0.186859 -0.339304,-0.347419 -0.339304,-0.356799 0,-0.0094 0.0534,-0.105059 0.11867,-0.21262 0.856955,-1.412243 1.194957,-3.058572 0.953448,-4.644028 C 18.621793,8.9524111 17.482185,7.1928505 15.77027,6.0982268 15.439718,5.8868669 15.090358,5.7024001 14.756757,5.5630789 c -0.06132,-0.025608 -0.114948,-0.049177 -0.119179,-0.052376 -0.0064,-0.00483 0.218926,-0.9395295 0.230169,-0.9548383 0.01049,-0.014279 0.467515,0.1862664 0.750496,0.3293188 2.223062,1.1238017 3.802321,3.2486621 4.245483,5.7122106 0.09169,0.509732 0.109883,0.73237 0.111278,1.362065 0.0014,0.636246 -0.01238,0.82036 -0.100562,1.342329 -0.151875,0.89902 -0.478254,1.819657 -0.918228,2.590104 -0.09985,0.174841 -0.396896,0.63838 -0.40914,0.638452 -0.0057,3.4e-5 -0.163046,-0.152823 -0.349662,-0.339683 z"
     id="path8" />
  <path
     style="opacity:0.3;fill:#ffffff;stroke:#cccccc;stroke-width:0.0202703"
     d="m 16.005508,13.998754 c -0.353769,-0.35418 -0.361801,-0.364097 -0.340659,-0.420608 0.01191,-0.03183 0.04984,-0.130849 0.08429,-0.220038 0.196029,-0.507519 0.289797,-1.13938 0.245085,-1.651523 -0.0781,-0.894586 -0.42566,-1.7106658 -1.004411,-2.3583837 l -0.1888,-0.2112985 0.249715,-0.4000905 C 15.188069,8.5167626 15.3087,8.3284621 15.318795,8.318367 c 0.02704,-0.027042 0.478109,0.4422426 0.658885,0.6854968 0.498128,0.6702877 0.808701,1.3947432 0.950408,2.2169612 0.04079,0.236664 0.04685,0.33893 0.04616,0.779175 -7.08e-4,0.456166 -0.0061,0.536099 -0.05385,0.800676 -0.09055,0.501584 -0.235262,0.946245 -0.443624,1.363175 -0.05432,0.1087 -0.101062,0.197635 -0.103863,0.197635 -0.0028,0 -0.168135,-0.163229 -0.367407,-0.362732 z"
     id="path9" />
  <path
     style="opacity:0.3;fill:#ffffff;stroke:#cccccc;stroke-width:0.0202703"
     d="m 14.746836,18.960221 c -0.07139,-0.28234 -0.110824,-0.474027 -0.09838,-0.478174 0.09443,-0.03148 0.829011,-0.413209 0.987288,-0.513053 l 0.199932,-0.126121 0.342297,0.341853 c 0.188264,0.18802 0.342298,0.347582 0.342298,0.354583 0,0.03165 -0.53243,0.363133 -0.861486,0.536353 -0.261236,0.137519 -0.663771,0.323426 -0.743776,0.343506 -0.04846,0.01216 -0.05041,0.0068 -0.168173,-0.458947 z"
     id="path10" />
  <path
     style="opacity:1;fill:#ffffff;stroke:#cccccc;stroke-width:0.0202703"
     d="m 9.5117935,17.49828 -2.49828,-2.498341 V 12.01013 9.0203218 l 2.9898645,2.9898132 2.989865,2.989814 v 2.498336 2.498337 h -0.491585 -0.491584 z"
     id="path11" />
  <path
     style="opacity:1;fill:#ffffff;stroke:#cccccc;stroke-width:0.0202703"
     d="M 10.996628,8.9898711 9.0102253,7.0033909 10.510129,5.5033847 12.010032,4.0033784 h 0.491606 0.491605 v 3.4864865 c 0,1.9175675 -0.0023,3.4864861 -0.0051,3.4864861 -0.0028,0 -0.898988,-0.893916 -1.991509,-1.9864799 z"
     id="path12" />
  <path
     style="opacity:1;fill:#ffffff;stroke:#cccccc;stroke-width:0.0202703"
     d="M 4.0135135,12 V 9.0101351 H 5.0067568 6 V 12 14.989865 H 5.0067568 4.0135135 Z"
     id="path13" />
</svg>
