<?xml version="1.0" encoding="UTF-8" standalone="no"?>
<svg
   viewBox="0 0 24 24"
   width="24"
   height="24"
   version="1.1"
   id="svg6"
   sodipodi:docname="microphone-sensitivity-muted.svg"
   inkscape:version="1.3.2 (091e20ef0f, 2023-11-25, custom)"
   xmlns:inkscape="http://www.inkscape.org/namespaces/inkscape"
   xmlns:sodipodi="http://sodipodi.sourceforge.net/DTD/sodipodi-0.dtd"
   xmlns="http://www.w3.org/2000/svg"
   xmlns:svg="http://www.w3.org/2000/svg">
  <defs
     id="defs6" />
  <sodipodi:namedview
     id="namedview6"
     pagecolor="#505050"
     bordercolor="#ffffff"
     borderopacity="1"
     inkscape:showpageshadow="0"
     inkscape:pageopacity="0"
     inkscape:pagecheckerboard="1"
     inkscape:deskcolor="#d1d1d1"
     inkscape:zoom="49.333333"
     inkscape:cx="11.989865"
     inkscape:cy="12"
     inkscape:window-width="2560"
     inkscape:window-height="1388"
     inkscape:window-x="2560"
     inkscape:window-y="28"
     inkscape:window-maximized="1"
     inkscape:current-layer="svg6" />
  <style
     id="current-color-scheme"
     type="text/css">.ColorScheme-Text{color:#232629;}.ColorScheme-NegativeText { color: #da4453; } </style>
  <g
     transform="translate(1,1)"
     id="g6">
    <path
       d="m3.5 2.7929688-.7070312.7070312.3535156.3535156 14.9999996 15.0000004.353516.353515.707031-.707031-.353515-.353516-15.0000004-14.9999996z"
       class="ColorScheme-NegativeText"
       fill="currentColor"
       id="path1" />
    <g
       class="ColorScheme-Text"
       fill="currentColor"
       id="g5">
      <path
         d="m8 3c-.828427 0-1.5782005.336013-2.1210938.8789062l5.1210938 5.1210938v-3c0-1.656854-1.343146-3-3-3zm-3 4v4c0 1.656854 1.343146 3 3 3 1.0855136 0 2.02799-.581747 2.554688-1.445312zm-2 2v2c0 2.419003 1.7176959 4.43717 4 4.900391v2.099609h-2v1h6v-1h-2v-2.099609c1.221013-.24782 2.268985-.948958 2.990234-1.910157l-.710937-.710937c-.722654 1.037566-1.9190145 1.720703-3.279297 1.720703-2.209139 0-4-1.790861-4-4v-2zm9 0v1l1 1v-2z"
         id="path2" />
      <g
         opacity=".35"
         id="g4">
        <path
           d="m14.279297 3.828125-.451172.8925781.447266.2265625c1.111155.5609197 2.066402 1.4379814 2.71875 2.4980469s1.005859 2.30998 1.005859 3.5546875c0 1.244708-.353511 2.494622-1.005859 3.554688-.05509.08952-.124272.169027-.183594.255859l.714844.714844c.107035-.148903.224103-.290926.320312-.447266.751092-1.220524 1.154297-2.64501 1.154297-4.078125s-.403205-2.8576007-1.154297-4.078125-1.841746-2.2233162-3.121094-2.8691406zm.482422 12.933594c-.160785.09911-.317864.205973-.486328.291015l-.447266.226563.451172.892578.445312-.224609c.265815-.134185.517456-.293275.765625-.457032z"
           id="path3" />
        <path
           d="m13.21875 6.5507812-.4375.8984376c.659004.3212645 1.230576.8353277 1.619141 1.4570312.388564.6217035.599609 1.360608.599609 2.09375 0 .562366-.126154 1.126975-.359375 1.640625l.738281.738281c.399434-.727802.621094-1.547343.621094-2.378906 0-.924034-.262216-1.8394676-.751953-2.6230469-.489737-.7835792-1.198705-1.4212581-2.029297-1.8261719z"
           id="path4" />
      </g>
    </g>
  </g>
  <path
     style="fill:#ffffff;stroke:#cccccc;stroke-width:0.0202703"
     d="M 9.4391268,7.4323729 6.8883887,4.8815717 7.0168295,4.7648843 C 7.1905237,4.6070845 7.4913116,4.409151 7.7238492,4.2996299 8.6893667,3.8448882 9.7996243,3.9323577 10.686868,4.5330656 c 0.250552,0.1696362 0.618072,0.5386725 0.783567,0.7868002 0.322475,0.4834903 0.470777,0.9286175 0.510239,1.5314856 0.01256,0.1918131 0.01877,0.8978631 0.01521,1.7280735 l -0.006,1.4037493 z"
     id="path6" />
  <path
     style="fill:#ffffff;stroke:#cccccc;stroke-width:0.0202703"
     d="M 8.6351351,14.96945 C 7.3480882,14.792276 6.3334371,13.854063 6.0704483,12.597973 6.0110849,12.314441 6.0011835,11.942382 6.0005913,9.9730008 L 6,8.0068124 8.7668919,10.773649 c 1.5217901,1.52176 2.7668921,2.774948 2.7668921,2.784862 0,0.04803 -0.256127,0.369494 -0.445946,0.559714 -0.411789,0.412659 -0.92437,0.690679 -1.4959664,0.811401 -0.2248096,0.04748 -0.7440999,0.0691 -0.9567365,0.03982 z"
     id="path7" />
  <path
     style="fill:#ffffff;stroke:#cccccc;stroke-width:0.0202703"
     d="M 6,19.5 V 19.003378 H 7.0035592 8.0071184 L 8.00187,17.945162 7.9966216,16.886945 7.9155405,16.8706 C 7.7439103,16.836003 7.4399167,16.743747 7.2210906,16.659849 5.4518696,15.981531 4.2196699,14.365145 4.0341625,12.479271 4.0228055,12.363816 4.0135135,11.759509 4.0135135,11.136366 V 10.003378 H 4.5 4.9864865 l 1.69e-5,1.059122 c 1.98e-5,1.235852 0.018344,1.503155 0.1335273,1.947821 0.3687857,1.423702 1.5210922,2.550939 2.9541809,2.88991 0.5095331,0.120521 1.1957807,0.134751 1.6859235,0.03496 0.6489529,-0.132123 1.2531159,-0.413931 1.7536879,-0.817994 0.189528,-0.152989 0.547255,-0.521835 0.668609,-0.689394 0.05017,-0.06927 0.09588,-0.126212 0.101575,-0.126536 0.0057,-3.25e-4 0.164588,0.153838 0.353091,0.342586 l 0.342732,0.343177 -0.119448,0.148377 c -0.565834,0.702876 -1.346998,1.261326 -2.188085,1.564252 -0.180586,0.06504 -0.278251,0.09386 -0.592905,0.174968 l -0.086149,0.02221 v 1.053273 1.053272 H 10.996622 12 V 19.5 19.996622 H 9 6 Z"
     id="path8" />
  <path
     style="fill:#ffffff;stroke:#cccccc;stroke-width:0.0202703"
     d="m 13.494774,11.48802 -0.48126,-0.481574 V 10.504912 10.003378 H 13.5 13.986486 v 0.983108 c 0,0.54071 -0.0024,0.983109 -0.0052,0.983109 -0.0029,0 -0.221794,-0.216709 -0.486487,-0.481575 z"
     id="path9" />
  <path
     style="fill:#ffffff;stroke:#cccccc;stroke-width:0.0202703;opacity:0.3"
     d="m 16.010517,14.001689 -0.357304,-0.359797 0.07784,-0.204166 c 0.190631,-0.499983 0.268333,-0.908304 0.269738,-1.417456 0.0011,-0.384892 -0.02559,-0.618171 -0.110219,-0.964841 C 15.65041,10.07167 15.060503,9.2438974 14.197092,8.6790906 14.086833,8.6069641 13.953294,8.5269834 13.900338,8.5013555 c -0.05296,-0.025628 -0.09628,-0.052929 -0.09628,-0.060669 0,-0.015952 0.402492,-0.853313 0.417256,-0.8680773 0.01677,-0.016768 0.293845,0.1397047 0.55824,0.3152536 1.862653,1.2367353 2.658506,3.5471282 1.950648,5.6628132 -0.07568,0.22619 -0.332174,0.81081 -0.355734,0.81081 -0.0037,0 -0.16743,-0.161908 -0.363947,-0.359797 z"
     id="path10" />
  <path
     style="opacity:0.3;fill:#ffffff;stroke:#cccccc;stroke-width:0.0202703"
     d="m 15.061667,18.721306 -0.220211,-0.440075 0.25046,-0.124758 c 0.137753,-0.06862 0.345777,-0.183114 0.462276,-0.25444 l 0.211817,-0.129683 0.358167,0.358582 0.358167,0.358582 -0.300293,0.183518 c -0.165161,0.100934 -0.435266,0.252104 -0.600232,0.335933 l -0.29994,0.152415 z"
     id="path11" />
  <path
     style="opacity:0.3;fill:#ffffff;stroke:#cccccc;stroke-width:0.0202703"
     d="m 18.16647,16.159359 -0.347762,-0.348548 0.07752,-0.101352 c 0.09004,-0.117717 0.270897,-0.426485 0.39642,-0.676791 0.352906,-0.703732 0.591916,-1.534227 0.683184,-2.373884 0.03259,-0.299822 0.03259,-1.017746 0,-1.317568 C 18.797247,9.6982297 18.113118,8.2784011 16.953413,7.1439174 16.40219,6.6046836 15.827274,6.2061903 15.037236,5.8157534 l -0.195873,-0.0968 0.220202,-0.4400555 0.220202,-0.4400555 0.320265,0.1627579 c 0.861103,0.4376103 1.464866,0.8672328 2.085943,1.4843047 0.510032,0.5067434 0.918558,1.0350507 1.270296,1.6427516 0.124231,0.2146362 0.396263,0.7818397 0.49081,1.0233705 0.715635,1.8281719 0.715714,3.8696079 2.21e-4,5.6959459 -0.100463,0.256437 -0.38164,0.837189 -0.515237,1.064189 -0.106399,0.180785 -0.371821,0.566072 -0.403415,0.585599 -0.009,0.0056 -0.172911,-0.1467 -0.36418,-0.338402 z"
     id="path12" />
</svg>
