<?xml version="1.0" encoding="UTF-8" standalone="no"?>
<svg
   width="24"
   height="24"
   viewBox="0 0 24 24"
   version="1.1"
   id="svg1"
   sodipodi:docname="network-wireless-20.svg"
   inkscape:version="1.3.2 (091e20ef0f, 2023-11-25, custom)"
   xmlns:inkscape="http://www.inkscape.org/namespaces/inkscape"
   xmlns:sodipodi="http://sodipodi.sourceforge.net/DTD/sodipodi-0.dtd"
   xmlns="http://www.w3.org/2000/svg"
   xmlns:svg="http://www.w3.org/2000/svg">
  <defs
     id="defs1" />
  <sodipodi:namedview
     id="namedview1"
     pagecolor="#505050"
     bordercolor="#ffffff"
     borderopacity="1"
     inkscape:showpageshadow="0"
     inkscape:pageopacity="0"
     inkscape:pagecheckerboard="1"
     inkscape:deskcolor="#d1d1d1"
     inkscape:zoom="49.333333"
     inkscape:cx="11.989865"
     inkscape:cy="12"
     inkscape:window-width="2560"
     inkscape:window-height="1388"
     inkscape:window-x="2560"
     inkscape:window-y="28"
     inkscape:window-maximized="1"
     inkscape:current-layer="svg1" />
  <style
     type="text/css"
     id="current-color-scheme">.ColorScheme-Text{color:#31363b;}.ColorScheme-Background{color:#eff0f1;}.ColorScheme-Highlight{color:#3498db;}.ColorScheme-ViewText{color:#31363b;}.ColorScheme-ViewBackground{color:#fcfcfc;}.ColorScheme-ViewHover{color:#93cee9;}.ColorScheme-ViewFocus{color:#3daee9;}.ColorScheme-ButtonText{color:#31363b;}.ColorScheme-ButtonBackground{color:#eff0f1;}.ColorScheme-ButtonHover{color:#93cee9;}.ColorScheme-ButtonFocus{color:#3daee9;}.ColorScheme-NegativeText { color: #e74c3c; } </style>
  <g
     transform="translate(1,1)"
     id="g1">
    <g
       transform="translate(22) translate(-66,-22)"
       id="network-wireless-20">
      <rect
         y="22"
         x="44"
         height="22"
         width="22"
         id="rect4403"
         style="opacity:0.55;fill:none;fill-opacity:1;stroke:none;stroke-width:3.56737041px;stroke-linecap:butt;stroke-linejoin:miter;stroke-miterlimit:4;stroke-dasharray:none;stroke-dashoffset:0;stroke-opacity:1" />
      <path
         class="ColorScheme-Text"
         style="opacity:0.35;fill:currentColor;fill-opacity:1;stroke:none"
         d="m 55,25 c -4.155,0 -7.90594,1.67156 -10.61719,4.38281 L 45.0918,30.0918 C 47.6223,27.5613 51.122,26 55,26 c 3.878,0 7.3777,1.5613 9.9082,4.0918 l 0.70899,-0.70899 C 62.90594,26.67156 59.155,25 55,25 Z"
         id="path4405" />
      <path
         class="ColorScheme-Text"
         style="opacity:0.35;fill:currentColor;fill-opacity:1;stroke:none"
         d="m 55,29 c -3.047,0 -5.79691,1.22659 -7.78516,3.21484 l 0.70704,0.70704 C 49.72938,31.11437 52.23,30 55,30 c 2.77,0 5.27062,1.11437 7.07813,2.92188 l 0.70703,-0.70704 C 60.79691,30.22659 58.047,29 55,29 Z"
         id="path4407" />
      <path
         class="ColorScheme-Text"
         style="opacity:0.35;fill:currentColor;fill-opacity:1;stroke:none"
         d="m 55,33 c -1.939,0 -3.68983,0.77967 -4.95508,2.04492 l 0.70899,0.70899 C 51.83841,34.66941 53.338,34 55,34 c 1.662,0 3.16159,0.66941 4.24609,1.75391 l 0.70899,-0.70899 C 58.68983,33.77967 56.939,33 55,33 Z"
         id="path4409" />
      <path
         class="ColorScheme-Text"
         style="opacity:0.35;fill:currentColor;fill-opacity:1;stroke:none"
         d="m 55,37 c -1.107996,0 -2,0.892004 -2,2 0,1.107996 0.892004,2 2,2 1.107996,0 2,-0.892004 2,-2 0,-1.107996 -0.892004,-2 -2,-2 z m 0,1 c 0.554,0 1,0.446 1,1 0,0.554 -0.446,1 -1,1 -0.554,0 -1,-0.446 -1,-1 0,-0.554 0.446,-1 1,-1 z"
         id="path4411" />
    </g>
  </g>
  <path
     style="fill:#ffffff;stroke:#cccccc;stroke-width:0.0202703;opacity:0.2"
     d="m 11.708385,19.974263 c -0.190272,-0.02777 -0.45491,-0.115672 -0.635613,-0.211123 -0.446747,-0.235982 -0.791437,-0.634967 -0.949475,-1.099036 -0.08448,-0.248056 -0.109436,-0.402915 -0.10963,-0.680161 -5.16e-4,-0.736939 0.401612,-1.400226 1.059105,-1.746931 0.752886,-0.397007 1.668093,-0.272824 2.287968,0.310451 0.28075,0.264173 0.456159,0.556404 0.569108,0.948131 0.03985,0.138212 0.04608,0.206386 0.04608,0.504406 0,0.376392 -0.02412,0.504331 -0.151534,0.803749 -0.342695,0.805319 -1.235262,1.299061 -2.116008,1.170514 z m 0.559881,-1.008494 c 0.592787,-0.164375 0.900696,-0.836852 0.637007,-1.391228 -0.364451,-0.766215 -1.447183,-0.766344 -1.810181,-2.17e-4 -0.364466,0.769226 0.352108,1.61912 1.173174,1.391445 z"
     id="path1" />
  <path
     style="opacity:0.2;fill:#ffffff;stroke:#cccccc;stroke-width:0.0202703"
     d="M 7.4009259,14.394172 7.0504842,14.0433 7.2499043,13.858906 c 0.4056009,-0.37504 0.9025602,-0.733692 1.3773085,-0.993994 0.858697,-0.47082 1.8172382,-0.755234 2.8179352,-0.836125 0.368652,-0.0298 1.116852,-0.0132 1.445613,0.03207 1.491002,0.205319 2.798634,0.814385 3.859335,1.797591 l 0.19942,0.18485 -0.350087,0.350517 -0.350088,0.350516 -0.127611,-0.119374 c -0.857273,-0.801937 -1.955862,-1.351035 -3.077811,-1.538355 -0.394715,-0.0659 -0.612928,-0.08323 -1.048312,-0.08323 -0.453276,0 -0.795565,0.03224 -1.201016,0.113112 -1.0725277,0.213936 -2.1244462,0.760312 -2.9307315,1.522249 l -0.1124919,0.106304 z"
     id="path2" />
  <path
     style="opacity:0.2;fill:#ffffff;stroke:#cccccc;stroke-width:0.0202703"
     d="M 4.5711065,11.56435 4.2271196,11.219916 4.3686274,11.076654 C 4.9944194,10.443105 5.9995145,9.7188252 6.9032726,9.2501673 8.1720616,8.592217 9.4557109,8.2123927 10.945946,8.053964 c 0.342013,-0.03636 1.761893,-0.036649 2.108108,-4.295e-4 1.424131,0.1489871 2.678714,0.5108161 3.909305,1.1274663 0.9278,0.4649211 1.872543,1.1286202 2.577182,1.8105172 l 0.233108,0.225585 -0.348427,0.3496 -0.348428,0.349599 -0.209493,-0.201394 C 17.921475,10.805648 16.678044,10.042357 15.389276,9.5798949 12.868133,8.6752057 10.042856,8.8253567 7.6317568,9.9921729 6.7123735,10.437095 5.8311594,11.04465 5.132314,11.715418 c -0.1108027,0.106351 -0.2050057,0.193366 -0.2093401,0.193366 -0.00433,0 -0.1626747,-0.154995 -0.3518674,-0.344434 z"
     id="path3" />
  <path
     style="opacity:0.2;fill:#ffffff;stroke:#cccccc;stroke-width:0.0202703"
     d="M 1.7328845,8.7247993 1.3885135,8.3786526 1.5912162,8.185232 C 5.1844206,4.7565659 10.120959,3.3303737 15.010135,4.3084349 c 2.478107,0.495736 4.82107,1.6383139 6.752433,3.2929165 0.295169,0.252874 0.838783,0.7566431 0.838783,0.7773058 0,0.00753 -0.154664,0.1681464 -0.3437,0.3569362 L 21.91395,9.0788477 21.867448,9.039525 C 21.841873,9.0178974 21.738851,8.9214014 21.638514,8.8250897 21.266323,8.4678332 20.799716,8.0767984 20.331081,7.7294116 18.411238,6.3062826 16.091871,5.3821888 13.733108,5.1006144 13.089333,5.0237645 12.77528,5.0067568 12,5.0067568 c -1.021973,0 -1.663064,0.055805 -2.5844595,0.2249692 -2.6435979,0.485353 -5.1483058,1.7672618 -7.0908537,3.6290969 -0.1205777,0.1155677 -0.2255769,0.210123 -0.2333317,0.210123 -0.00775,0 -0.1690666,-0.155766 -0.3584706,-0.3461466 z"
     id="path4" />
</svg>
