<?xml version="1.0" encoding="UTF-8" standalone="no"?>
<svg
   width="24"
   height="24"
   viewBox="0 0 24 24"
   version="1.1"
   id="svg1"
   sodipodi:docname="network-wireless-on.svg"
   inkscape:version="1.3.2 (091e20ef0f, 2023-11-25, custom)"
   xmlns:inkscape="http://www.inkscape.org/namespaces/inkscape"
   xmlns:sodipodi="http://sodipodi.sourceforge.net/DTD/sodipodi-0.dtd"
   xmlns="http://www.w3.org/2000/svg"
   xmlns:svg="http://www.w3.org/2000/svg">
  <defs
     id="defs1" />
  <sodipodi:namedview
     id="namedview1"
     pagecolor="#505050"
     bordercolor="#ffffff"
     borderopacity="1"
     inkscape:showpageshadow="0"
     inkscape:pageopacity="0"
     inkscape:pagecheckerboard="1"
     inkscape:deskcolor="#d1d1d1"
     inkscape:zoom="49.333333"
     inkscape:cx="11.989865"
     inkscape:cy="12"
     inkscape:window-width="2560"
     inkscape:window-height="1388"
     inkscape:window-x="2560"
     inkscape:window-y="28"
     inkscape:window-maximized="1"
     inkscape:current-layer="svg1" />
  <style
     type="text/css"
     id="current-color-scheme">.ColorScheme-Text{color:#31363b;}.ColorScheme-Background{color:#eff0f1;}.ColorScheme-Highlight{color:#3498db;}.ColorScheme-ViewText{color:#31363b;}.ColorScheme-ViewBackground{color:#fcfcfc;}.ColorScheme-ViewHover{color:#93cee9;}.ColorScheme-ViewFocus{color:#3daee9;}.ColorScheme-ButtonText{color:#31363b;}.ColorScheme-ButtonBackground{color:#eff0f1;}.ColorScheme-ButtonHover{color:#93cee9;}.ColorScheme-ButtonFocus{color:#3daee9;}.ColorScheme-NegativeText { color: #e74c3c; } </style>
  <g
     transform="translate(1,1)"
     id="g1">
    <g
       transform="translate(-66,0) translate(88,-22)"
       id="network-wireless-on">
      <rect
         style="opacity:0.55;fill:none;fill-opacity:1;stroke:none;stroke-width:3.56737041px;stroke-linecap:butt;stroke-linejoin:miter;stroke-miterlimit:4;stroke-dasharray:none;stroke-dashoffset:0;stroke-opacity:1"
         id="rect4470"
         width="22"
         height="22"
         x="-22"
         y="22" />
      <path
         id="path4475"
         d="m -11,25 c -4.155,0 -7.90594,1.67156 -10.61719,4.38281 l 0.70899,0.70899 C -18.3777,27.5613 -14.878,26 -11,26 c 3.878,0 7.3777,1.5613 9.9082,4.0918 l 0.70899,-0.70899 C -3.09406,26.67156 -6.845,25 -11,25 Z"
         style="opacity:1;fill:currentColor;fill-opacity:1;stroke:none"
         class="ColorScheme-Text" />
      <path
         id="path4477"
         d="m -11,29 c -3.047,0 -5.79691,1.22659 -7.78516,3.21484 l 0.70704,0.70704 C -16.27062,31.11437 -13.77,30 -11,30 c 2.77,0 5.27062,1.11437 7.07813,2.92188 l 0.70703,-0.70704 C -5.20309,30.22659 -7.953,29 -11,29 Z"
         style="opacity:1;fill:currentColor;fill-opacity:1;stroke:none"
         class="ColorScheme-Text" />
      <path
         id="path4479"
         d="m -11,33 c -1.939,0 -3.68983,0.77967 -4.95508,2.04492 l 0.70899,0.70899 C -14.16159,34.66941 -12.662,34 -11,34 c 1.662,0 3.16159,0.66941 4.24609,1.75391 l 0.70899,-0.70899 C -7.31017,33.77967 -9.061,33 -11,33 Z"
         style="opacity:1;fill:currentColor;fill-opacity:1;stroke:none"
         class="ColorScheme-Text" />
      <path
         id="path4481"
         d="m -11,37 c -1.107996,0 -2,0.892004 -2,2 0,1.107996 0.892004,2 2,2 1.107996,0 2,-0.892004 2,-2 0,-1.107996 -0.892004,-2 -2,-2 z m 0,1 c 0.554,0 1,0.446 1,1 0,0.554 -0.446,1 -1,1 -0.554,0 -1,-0.446 -1,-1 0,-0.554 0.446,-1 1,-1 z"
         style="opacity:1;fill:currentColor;fill-opacity:1;stroke:none"
         class="ColorScheme-Text" />
    </g>
  </g>
  <path
     style="opacity:1;fill:#ffffff;stroke:#cccccc;stroke-width:0.0202703"
     d="m 11.754198,19.976815 c -0.435441,-0.05478 -0.846356,-0.25616 -1.154387,-0.565726 -0.256764,-0.258043 -0.433793,-0.564162 -0.528838,-0.914467 -0.03969,-0.146284 -0.04675,-0.221264 -0.04675,-0.496622 0,-0.275358 0.0071,-0.350338 0.04675,-0.496622 0.192985,-0.711283 0.731595,-1.247313 1.440116,-1.433217 0.164804,-0.04324 0.240496,-0.05122 0.488911,-0.05155 0.250216,-3.32e-4 0.322586,0.0072 0.486719,0.05061 0.595942,0.157628 1.058698,0.542757 1.318468,1.097294 0.135336,0.288907 0.170587,0.461142 0.170587,0.83349 0,0.388292 -0.03621,0.553095 -0.192127,0.874418 -0.318372,0.656119 -0.951891,1.073418 -1.683633,1.109009 -0.116325,0.0057 -0.271943,0.0027 -0.345816,-0.0066 z m 0.498338,-1.004474 c 0.252406,-0.06574 0.491769,-0.248442 0.625552,-0.477466 0.06308,-0.107982 0.135426,-0.372358 0.135426,-0.494875 0,-0.122517 -0.07235,-0.386893 -0.135426,-0.494875 C 12.549076,16.941889 11.784064,16.82393 11.31813,17.264591 11.092956,17.477551 11.000791,17.691138 11.000791,18 c 0,0.308774 0.09218,0.522458 0.31715,0.73523 0.245894,0.232557 0.603631,0.323316 0.934595,0.237111 z"
     id="path1" />
  <path
     style="opacity:1;fill:#ffffff;stroke:#cccccc;stroke-width:0.0202703"
     d="M 7.4000849,14.39333 7.0497564,14.042572 7.2799458,13.834604 C 8.5939557,12.647441 10.242015,12.010553 12,12.010553 c 1.767449,0 3.444164,0.653447 4.749677,1.851037 l 0.199001,0.18255 -0.349771,0.350199 -0.34977,0.350199 -0.147588,-0.140195 c -0.920498,-0.874383 -2.130441,-1.423993 -3.483306,-1.582272 -0.296601,-0.0347 -1.002246,-0.02911 -1.317567,0.01043 -1.3067884,0.16389 -2.4787426,0.703577 -3.3905819,1.56137 l -0.1596807,0.150216 z"
     id="path2" />
  <path
     style="opacity:1;fill:#ffffff;stroke:#cccccc;stroke-width:0.0202703"
     d="M 4.5696343,11.561874 4.2263514,11.217143 4.4094182,11.041004 c 1.81432,-1.7456624 4.2375748,-2.8175092 6.7899058,-3.0032909 0.416513,-0.030318 1.268777,-0.025322 1.706177,0.01 2.502236,0.2020698 4.880123,1.2633543 6.665445,2.9748829 l 0.202703,0.194324 -0.344595,0.345543 -0.344595,0.345543 -0.253378,-0.234738 C 17.278442,10.234852 15.362312,9.3387908 13.266892,9.071224 11.297523,8.8197528 9.2475462,9.1717918 7.4797297,10.065043 6.567735,10.525861 5.9364649,10.972013 5.0459856,11.785101 l -0.1330684,0.121504 z"
     id="path3" />
  <path
     style="opacity:1;fill:#ffffff;stroke:#cccccc;stroke-width:0.0202703"
     d="M 1.7348291,8.7280745 1.3924027,8.3852031 1.6134311,8.1734645 C 2.8568376,6.9823174 4.2575252,6.0368005 5.8392951,5.3208465 5.966703,5.263178 6.2260135,5.1539548 6.4155405,5.078128 9.9728432,3.6549086 14.031686,3.6549767 17.584459,5.0783154 c 1.792963,0.7183101 3.42166,1.7668904 4.791878,3.0850841 L 22.607404,8.385693 22.261796,8.7313005 21.916188,9.076908 21.605054,8.7876734 C 19.256814,6.6047216 16.439037,5.3440452 13.236486,5.0435684 12.763722,4.9992116 11.336154,4.9927604 10.885135,5.0329426 7.6070905,5.3249899 4.769461,6.5793572 2.3981601,8.7845895 2.2288036,8.9420856 2.0873178,9.0709459 2.0837473,9.0709459 c -0.00357,0 -0.1605837,-0.154292 -0.3489182,-0.3428714 z"
     id="path4" />
</svg>
