<?xml version="1.0" encoding="UTF-8" standalone="no"?>
<svg
   viewBox="0 0 24 24"
   width="24"
   height="24"
   version="1.1"
   id="svg2"
   sodipodi:docname="network-wireless-disconnected.svg"
   inkscape:version="1.3.2 (091e20ef0f, 2023-11-25, custom)"
   xmlns:inkscape="http://www.inkscape.org/namespaces/inkscape"
   xmlns:sodipodi="http://sodipodi.sourceforge.net/DTD/sodipodi-0.dtd"
   xmlns="http://www.w3.org/2000/svg"
   xmlns:svg="http://www.w3.org/2000/svg">
  <sodipodi:namedview
     id="namedview2"
     pagecolor="#505050"
     bordercolor="#ffffff"
     borderopacity="1"
     inkscape:showpageshadow="0"
     inkscape:pageopacity="0"
     inkscape:pagecheckerboard="1"
     inkscape:deskcolor="#d1d1d1"
     inkscape:zoom="49.333333"
     inkscape:cx="11.989865"
     inkscape:cy="12"
     inkscape:window-width="2560"
     inkscape:window-height="1388"
     inkscape:window-x="2560"
     inkscape:window-y="28"
     inkscape:window-maximized="1"
     inkscape:current-layer="svg2" />
  <defs
     id="defs3051">
    <style
       type="text/css"
       id="current-color-scheme">.ColorScheme-Text{color:#232629;}.ColorScheme-NegativeText { color: #da4453; } </style>
  </defs>
  <g
     transform="translate(1,1)"
     id="g2">
    <path
       style="fill:currentColor;fill-opacity:0.5;stroke:none"
       class="ColorScheme-Text"
       d="M 11 3 C 6.845001 3 3.0940644 4.6715125 0.3828125 7.3828125 L 1.0917969 8.0917969 C 3.6222976 5.5612969 7.1220066 4 11 4 C 14.878001 4 18.377702 5.5612969 20.908203 8.0917969 L 21.617188 7.3828125 C 18.905936 4.6715125 15.155007 3 11 3 z M 11 7 C 7.9530063 7 5.2030906 8.2265438 3.2148438 10.214844 L 3.921875 10.921875 C 5.7293791 9.114375 8.2300034 8 11 8 C 13.770004 8 16.270612 9.114375 18.078125 10.921875 L 18.785156 10.214844 C 16.796909 8.2265438 14.047002 7 11 7 z M 11 11 C 9.0610031 11 7.3101723 11.779722 6.0449219 13.044922 L 6.7539062 13.753906 C 7.8384139 12.669406 9.3380002 12 11 12 C 12.661999 12 14.161595 12.669406 15.246094 13.753906 L 15.955078 13.044922 C 14.689828 11.779722 12.939005 11 11 11 z M 11 15 C 9.8920029 15 9 15.892 9 17 C 9 18.108 9.8920029 19 11 19 C 12.108005 19 13 18.108 13 17 C 13 15.892 12.108005 15 11 15 z M 11 16 C 11.554002 16 12 16.446 12 17 C 12 17.554 11.554002 18 11 18 C 10.446006 18 10 17.554 10 17 C 10 16.446 10.446006 16 11 16 z "
       id="path1" />
    <path
       style="fill:currentColor"
       class="ColorScheme-NegativeText"
       d="M 15.707031,1044.3622 15,1045.0692 l 1.792969,1.793 -1.792969,1.793 0.707031,0.707 1.792969,-1.793 1.792969,1.793 0.707031,-0.707 -1.792969,-1.793 1.792969,-1.793 -0.707031,-0.707 -1.792969,1.793 -1.792969,-1.793 z"
       transform="translate(0,-1030.3622)"
       id="path2" />
  </g>
  <path
     style="opacity:0.3;fill:#ffffff;stroke:#cccccc;stroke-width:0.0202703"
     d="m 11.756757,19.976919 c -0.805055,-0.102625 -1.469691,-0.683749 -1.686448,-1.474545 -0.03558,-0.129818 -0.04353,-0.217053 -0.04483,-0.492239 -0.0014,-0.289613 0.0047,-0.357562 0.04533,-0.506757 0.197569,-0.725675 0.747068,-1.262861 1.47565,-1.442584 0.265175,-0.06541 0.673604,-0.06167 0.940257,0.0086 0.597265,0.157413 1.058019,0.541269 1.319518,1.099293 0.137322,0.293037 0.167019,0.437614 0.168672,0.821174 0.0018,0.40602 -0.03311,0.562135 -0.201407,0.902027 -0.318291,0.642806 -0.952496,1.056467 -1.673488,1.091535 -0.116325,0.0057 -0.270791,0.0027 -0.343257,-0.0065 z m 0.495779,-1.004578 c 0.252406,-0.06574 0.491769,-0.248442 0.625552,-0.477466 0.06308,-0.107982 0.135426,-0.372358 0.135426,-0.494875 0,-0.122517 -0.07235,-0.386893 -0.135426,-0.494875 -0.08219,-0.140701 -0.25766,-0.313856 -0.388982,-0.38385 -0.55913,-0.298013 -1.22782,-0.04065 -1.444703,0.556037 -0.0615,0.169185 -0.0615,0.476191 0,0.645376 0.182039,0.500821 0.703331,0.781137 1.208133,0.649653 z"
     id="path3" />
  <path
     style="opacity:0.3;fill:#ffffff;stroke:#cccccc;stroke-width:0.0202703"
     d="M 7.4019918,14.395239 7.0535702,14.04639 7.160231,13.944051 c 0.9912111,-0.951054 2.2899042,-1.604732 3.637256,-1.830759 0.463457,-0.07775 0.659982,-0.09294 1.202513,-0.09294 0.863135,0 1.469983,0.09767 2.260993,0.363911 0.922426,0.31047 1.742159,0.795983 2.478847,1.468176 l 0.209434,0.191099 -0.349844,0.350273 -0.349843,0.350273 -0.159681,-0.150216 C 15.757335,14.281013 15.310208,13.958617 14.883582,13.724066 14.22243,13.360577 13.486028,13.128365 12.687446,13.031551 12.366,12.992581 11.70339,12.9872 11.391892,13.02103 10.066357,13.164987 8.8402268,13.71887 7.9100941,14.593872 l -0.1596807,0.150216 z"
     id="path4" />
  <path
     style="opacity:0.3;fill:#ffffff;stroke:#cccccc;stroke-width:0.0202703"
     d="M 4.5702893,11.562245 4.2263514,11.216574 4.4493243,11.00258 C 5.3334224,10.154085 6.5205726,9.3751784 7.6644566,8.8930855 8.7547113,8.4335948 9.7238485,8.1878176 10.976351,8.0531753 c 0.330336,-0.035511 1.716876,-0.035269 2.057433,3.592e-4 1.259476,0.1317615 2.382602,0.4267017 3.466216,0.9102507 1.115551,0.4978003 2.206503,1.2291258 3.070946,2.0586258 l 0.202703,0.194509 -0.34501,0.346273 -0.345009,0.346274 -0.232694,-0.216942 c -1.705999,-1.590514 -3.851269,-2.5181324 -6.202287,-2.6818807 -0.36278,-0.025268 -1.273651,-0.0092 -1.641892,0.028961 -2.2101195,0.2290415 -4.2588309,1.1543267 -5.8479732,2.6411917 -0.078041,0.07302 -0.1649914,0.153991 -0.1932242,0.17994 l -0.051332,0.04718 z"
     id="path5" />
  <path
     style="opacity:0.3;fill:#ffffff;stroke:#cccccc;stroke-width:0.0202703"
     d="M 1.7345099,8.7277549 1.3917643,8.384564 1.6333821,8.1535863 C 3.0180477,6.8298979 4.6280824,5.7943733 6.4155405,5.0778494 9.6770386,3.7704392 13.397875,3.6600057 16.739277,4.7714436 18.878223,5.4829129 20.73692,6.6012738 22.377004,8.1636114 L 22.608736,8.3843597 22.262463,8.7306339 21.916188,9.076908 21.605054,8.7876734 C 19.456146,6.7900232 16.873936,5.5466189 14.027027,5.1386483 13.24886,5.0271346 12.96078,5.0083074 12.02027,5.0074981 11.169848,5.0067663 10.943834,5.0178268 10.337838,5.0898317 8.1662149,5.3478656 6.1305768,6.0870257 4.3175676,7.2758507 3.5926804,7.7511732 3.0271109,8.1969693 2.3683375,8.8122827 2.2160245,8.9545476 2.0882212,9.0709459 2.0843301,9.0709459 c -0.00389,0 -0.1613102,-0.1544359 -0.3498202,-0.343191 z"
     id="path6" />
</svg>
