<?xml version="1.0" encoding="UTF-8" standalone="no"?>
<svg
   width="24"
   height="24"
   viewBox="0 0 24 24"
   version="1.1"
   id="svg1"
   sodipodi:docname="network-wired-activated-limited.svg"
   inkscape:version="1.3.2 (091e20ef0f, 2023-11-25, custom)"
   xmlns:inkscape="http://www.inkscape.org/namespaces/inkscape"
   xmlns:sodipodi="http://sodipodi.sourceforge.net/DTD/sodipodi-0.dtd"
   xmlns="http://www.w3.org/2000/svg"
   xmlns:svg="http://www.w3.org/2000/svg">
  <defs
     id="defs1" />
  <sodipodi:namedview
     id="namedview1"
     pagecolor="#505050"
     bordercolor="#ffffff"
     borderopacity="1"
     inkscape:showpageshadow="0"
     inkscape:pageopacity="0"
     inkscape:pagecheckerboard="1"
     inkscape:deskcolor="#d1d1d1"
     inkscape:zoom="49.333333"
     inkscape:cx="11.989865"
     inkscape:cy="12"
     inkscape:window-width="2560"
     inkscape:window-height="1388"
     inkscape:window-x="2560"
     inkscape:window-y="28"
     inkscape:window-maximized="1"
     inkscape:current-layer="svg1" />
  <style
     type="text/css"
     id="current-color-scheme">.ColorScheme-Text{color:#31363b;}.ColorScheme-Background{color:#eff0f1;}.ColorScheme-Highlight{color:#3498db;}.ColorScheme-ViewText{color:#31363b;}.ColorScheme-ViewBackground{color:#fcfcfc;}.ColorScheme-ViewHover{color:#93cee9;}.ColorScheme-ViewFocus{color:#3daee9;}.ColorScheme-ButtonText{color:#31363b;}.ColorScheme-ButtonBackground{color:#eff0f1;}.ColorScheme-ButtonHover{color:#93cee9;}.ColorScheme-ButtonFocus{color:#3daee9;}.ColorScheme-NegativeText { color: #e74c3c; } </style>
  <g
     transform="translate(1,1)"
     id="g1">
    <g
       id="network-wired-activated-limited"
       transform="translate(-44,0)">
      <path
         class="ColorScheme-Text"
         id="path4601"
         d="m 47,3 0,6 2,0 0,7 c 0,1.662 1.338,3 3,3 l 1,0 1,0 2,0 0,-2 1.4,0 0.6,-1 0,-1 0,-1 -2,0 -5,0 0,1 0,1 1,0 1,0 0,1 0,0.726562 L 53,18 52,18 c -1.108,0 -2,-0.892 -2,-2 l 0,-7 2,0 0,-6 z m 6,0 0,1 9,0 0,7 0,4 1,0 0,-4 0,-8 -1,0 z m -5,1 3,0 0,4 -3,0 z m 1,1 0,2 1,0 0,-2 z m -2,5 0,6 1,0 0,-6 z"
         style="opacity:1;fill:currentColor;fill-opacity:1;stroke:none" />
      <rect
         style="opacity:1;fill:none;fill-opacity:1;stroke:none"
         id="rect4604"
         width="22"
         height="22"
         x="44"
         y="0" />
      <path
         style="fill:#fdbc4b;fill-opacity:1;fill-rule:evenodd;stroke:none;stroke-width:1px;stroke-linecap:butt;stroke-linejoin:miter;stroke-opacity:1"
         d="m 57,19 3,-5 3,5 z"
         id="path4606" />
    </g>
  </g>
  <path
     style="fill:#ffffff;stroke:#cccccc;stroke-width:0.0202703;opacity:0.3"
     d="M 8.6756757,19.973349 C 8.0112018,19.904371 7.364686,19.593839 6.8961736,19.118623 6.6787506,18.89809 6.6454236,18.858181 6.5121701,18.658784 6.3667697,18.44121 6.2516088,18.20187 6.1621482,17.93133 6.0004285,17.442269 6.0119059,17.754978 6.0048965,13.646959 L 5.998645,9.9831081 H 5.0060792 4.0135135 V 6.9932432 4.0033784 H 6.5067568 9 V 6.9932432 9.9831081 H 7.9962484 6.9924969 l 0.00544,3.6739869 0.00544,3.673986 0.044388,0.155583 c 0.1091321,0.382515 0.2788328,0.678132 0.5361177,0.933912 0.2495266,0.248066 0.5171586,0.404793 0.8789454,0.514715 0.180373,0.0548 0.1901556,0.05552 0.8665541,0.0634 l 0.6841219,0.008 V 18.00164 16.996622 H 9.0101351 8.0067568 V 16.003378 15.010135 H 11.503378 15 l -7.75e-4,0.988176 -7.74e-4,0.988175 -0.29939,0.496622 -0.299389,0.496622 -0.703215,0.0053 -0.703214,0.0053 v 1.003116 1.003116 l -2.072635,-0.0027 c -1.1399492,-0.0015 -2.1501688,-0.01074 -2.2449323,-0.02058 z M 8.0067568,7.0033784 V 4.9966216 H 6.4966216 4.9864865 v 2.0067568 2.0067567 h 1.5101351 1.5101352 z"
     id="path1" />
  <path
     style="opacity:0.3;fill:#ffffff;stroke:#cccccc;stroke-width:0.0202703"
     d="M 6,7.0033784 V 6.0101351 H 6.4966216 6.9932432 V 7.0033784 7.9966216 H 6.4966216 6 Z"
     id="path2" />
  <path
     style="opacity:0.3;fill:#ffffff;stroke:#cccccc;stroke-width:0.0202703"
     d="M 4.0135135,14.006757 V 11.016892 H 4.5 4.9864865 v 2.989865 2.989865 H 4.5 4.0135135 Z"
     id="path3" />
  <path
     style="opacity:0.3;fill:#ffffff;stroke:#cccccc;stroke-width:0.0202703"
     d="M 19.013514,10.489865 V 4.9966216 h -4.5 -4.5 V 4.5 4.0033784 H 15 19.986486 V 9.9932432 15.983108 H 19.5 19.013514 Z"
     id="path4" />
</svg>
