<?xml version="1.0" encoding="UTF-8" standalone="no"?>
<svg
   id="svg8"
   version="1.1"
   viewBox="0 0 24 24"
   width="24"
   height="24"
   sodipodi:docname="redshift-status-off.svg"
   inkscape:version="1.3.2 (091e20ef0f, 2023-11-25, custom)"
   xmlns:inkscape="http://www.inkscape.org/namespaces/inkscape"
   xmlns:sodipodi="http://sodipodi.sourceforge.net/DTD/sodipodi-0.dtd"
   xmlns="http://www.w3.org/2000/svg"
   xmlns:svg="http://www.w3.org/2000/svg">
  <sodipodi:namedview
     id="namedview1"
     pagecolor="#505050"
     bordercolor="#ffffff"
     borderopacity="1"
     inkscape:showpageshadow="0"
     inkscape:pageopacity="0"
     inkscape:pagecheckerboard="1"
     inkscape:deskcolor="#d1d1d1"
     inkscape:zoom="49.333333"
     inkscape:cx="11.989865"
     inkscape:cy="12"
     inkscape:window-width="2560"
     inkscape:window-height="1388"
     inkscape:window-x="2560"
     inkscape:window-y="28"
     inkscape:window-maximized="1"
     inkscape:current-layer="svg8" />
  <defs
     id="defs2">
    <style
       type="text/css"
       id="current-color-scheme">.ColorScheme-Text{color:#232629;}.ColorScheme-NegativeText { color: #da4453; } </style>
  </defs>
  <g
     transform="translate(1,1)"
     id="g1">
    <path
       id="path3454"
       d="m10.890625 3c-0.5128 0.0129-2.6475852 0.1660545-3.9824219 1.7773438-0.0015 0.0017999-0.0024062 0.0040493-0.0039062 0.0058593l0.7148437 0.7148438c0.020225-0.0267989 0.0374319-0.0564866 0.0585938-0.0820313 1.1537829-1.3927381 3.3183596-1.4160156 3.3183596-1.4160156a0.5 0.5 0 0 0 0.003906 0 0.5 0.5 0 0 0 0.003906 0s2.164577 0.0232794 3.31836 1.4160156c0.486171 0.5868642 0.726418 1.5112641 0.660156 2.4726563-0.06626 0.9613916-0.435408 1.9407003-1.060547 2.6250001-0.220404 0.241261-0.410353 0.474525-0.583984 0.703125l0.71289 0.712891c0.17352-0.236028 0.373545-0.48404 0.609375-0.742188 0.808129-0.884604 1.24004-2.0657905 1.320313-3.2304688 0.080279-1.1646777-0.187086-2.332796-0.888672-3.1796874-1.512377-1.8255963-4.044226-1.7782949-4.087891-1.7773438 0 0-0.007412 8.3e-6 -0.007812 0-0.0051-1.117e-4 -0.03726-0.00172-0.105469 0zm-4.8496094 5.1621094c0.1144332 1.0972603 0.538038 2.1926056 1.2988282 3.0253906 0.961861 1.052885 1.3654424 1.935288 1.5371093 2.537109 0.1155065 0.404939 0.1281973 0.647009 0.125 0.769532a0.5 0.5 0 0 0-0.0019531 0.005859v0.060547c-0.0016 0.01459-0.0039062 0.033203-0.0039062 0.033203a0.5 0.5 0 0 0 0.0039062 0.078125v0.328125 1 1.5a0.5 0.5 0 0 0 0.1464844 0.353516l0.9999996 1a0.50005 0.50005 0 0 0 0.353516 0.146484h1a0.50005 0.50005 0 0 0 0.353516-0.146484l1-1.001954a0.5 0.5 0 0 0 0.080078-0.103515 0.5 0.5 0 0 0 0.048828-0.121094 0.5 0.5 0 0 0 0.017578-0.128906v-1.498047-0.878906l-0.972656-0.972656c-0.01255 0.121048-0.020055 0.231355-0.021485 0.318359a0.5 0.5 0 0 0-0.005859 0.033203v0.5h-2v-0.5a0.5 0.5 0 0 0-0.0058594-0.072266 0.5 0.5 0 0 0-0.0019531-0.013672c-0.007566-0.229618-0.0402751-0.565113-0.1542969-0.964843-0.2149617-0.753602-0.7034231-1.779239-1.7597656-2.935547-0.2477932-0.271243-0.4547112-0.5891401-0.6191406-0.9335939l-1.4179688-1.4179687zm3.9589844 7.8378906h2v1h-2v-1z"
       class="ColorScheme-Text"
       fill="currentColor"
       stroke-linecap="square"
       stroke-linejoin="round"
       style="-inkscape-stroke:none;paint-order:markers fill stroke" />
    <path
       id="path4250"
       d="M 3.7070312 3 L 3 3.7070312 L 3.3535156 4.0605469 L 18.292969 19 L 19 18.292969 L 4.0605469 3.3535156 L 3.7070312 3 z "
       class="ColorScheme-NegativeText"
       fill="currentColor"
       stroke-linecap="square"
       style="-inkscape-stroke:none;paint-order:markers stroke fill" />
  </g>
  <path
     style="opacity:0.3;fill:#ffffff;stroke:#cccccc;stroke-width:0.0202703"
     d="m 11.341216,19.962909 c -0.09134,-0.02784 -0.156043,-0.08524 -0.655315,-0.581359 -0.30468,-0.302758 -0.578329,-0.591516 -0.608108,-0.641685 l -0.05414,-0.09122 -0.01139,-1.733108 C 10.002024,15.356665 9.997288,15.167149 9.9651553,15.030405 9.7362679,14.056359 9.2770389,13.237061 8.402908,12.243243 7.9311995,11.706948 7.636201,11.231312 7.4061345,10.636112 7.2503358,10.233049 7.1124189,9.6897727 7.0654032,9.2939189 L 7.0521619,9.1824324 7.7428894,9.8716216 c 0.6646884,0.6632084 0.6945533,0.6963274 0.7922112,0.8785444 0.1477687,0.275717 0.3115936,0.509876 0.5383903,0.769535 0.8815342,1.009265 1.3664511,1.789828 1.6809311,2.705765 0.163775,0.477001 0.232064,0.908364 0.232064,1.465871 v 0.312041 H 12 13.013514 l 0.0012,-0.339527 c 6.42e-4,-0.18674 0.0075,-0.373867 0.0152,-0.415839 l 0.01404,-0.07631 0.471879,0.472336 0.471878,0.472336 -0.0057,1.266138 -0.0057,1.266139 -0.05414,0.09122 c -0.02978,0.05017 -0.303428,0.338869 -0.608108,0.641557 -0.519652,0.516253 -0.560783,0.552349 -0.664062,0.58277 -0.155937,0.04593 -1.157124,0.04495 -1.308821,-0.0013 z m 1.672298,-2.459531 V 16.996622 H 12 10.986486 v 0.506756 0.506757 H 12 13.013514 Z"
     id="path1" />
  <path
     style="opacity:0.3;fill:#ffffff;stroke:#cccccc;stroke-width:0.0202703"
     d="m 14.697354,12.568978 -0.349384,-0.349813 0.168032,-0.210934 c 0.09242,-0.116013 0.232769,-0.283907 0.311892,-0.373096 0.522144,-0.588569 0.794327,-1.077121 0.993101,-1.7825589 0.137349,-0.4874455 0.16204,-0.6846108 0.161343,-1.2883869 -5.86e-4,-0.5083999 -0.0036,-0.5512719 -0.05667,-0.8006757 C 15.796018,7.154041 15.603003,6.7343915 15.276121,6.3512878 14.687436,5.661353 13.663296,5.1832219 12.43984,5.0271394 11.947405,4.9643168 11.453005,5.0074109 10.804054,5.1697218 10.244544,5.3096625 9.6972176,5.5531813 9.2796351,5.847973 9.10121,5.9739319 8.7509244,6.2984507 8.6573064,6.4245235 L 8.6130055,6.4841824 8.2693406,6.1409635 C 8.0803249,5.952193 7.9256757,5.7892271 7.9256757,5.778817 c 0,-0.039116 0.5447907,-0.5576244 0.7297297,-0.6945256 0.741779,-0.5491023 1.6201626,-0.8857257 2.6959456,-1.0331693 0.336572,-0.04613 0.953453,-0.046154 1.297298,-5.22e-5 1.366907,0.1832725 2.436069,0.6855229 3.236331,1.520302 0.596683,0.6224196 0.926045,1.3481974 1.063796,2.3441686 0.0444,0.3210061 0.03376,1.0635647 -0.0206,1.4382941 -0.08925,0.6152045 -0.266362,1.1897614 -0.530926,1.7223594 -0.232393,0.467835 -0.413829,0.727754 -0.871257,1.24813 -0.1078,0.122635 -0.259731,0.306559 -0.337625,0.40872 l -0.141626,0.185746 z"
     id="path2" />
</svg>
