<?xml version="1.0" encoding="UTF-8" standalone="no"?>
<svg
   width="24"
   height="24"
   viewBox="0 0 24 24"
   version="1.1"
   id="svg1"
   sodipodi:docname="touchpad_enabled.svg"
   inkscape:version="1.3.2 (091e20ef0f, 2023-11-25, custom)"
   xmlns:inkscape="http://www.inkscape.org/namespaces/inkscape"
   xmlns:sodipodi="http://sodipodi.sourceforge.net/DTD/sodipodi-0.dtd"
   xmlns="http://www.w3.org/2000/svg"
   xmlns:svg="http://www.w3.org/2000/svg">
  <defs
     id="defs1" />
  <sodipodi:namedview
     id="namedview1"
     pagecolor="#505050"
     bordercolor="#ffffff"
     borderopacity="1"
     inkscape:showpageshadow="0"
     inkscape:pageopacity="0"
     inkscape:pagecheckerboard="1"
     inkscape:deskcolor="#d1d1d1"
     inkscape:zoom="49.333333"
     inkscape:cx="11.989865"
     inkscape:cy="12"
     inkscape:window-width="2560"
     inkscape:window-height="1388"
     inkscape:window-x="2560"
     inkscape:window-y="28"
     inkscape:window-maximized="1"
     inkscape:current-layer="svg1" />
  <style
     type="text/css"
     id="current-color-scheme">.ColorScheme-Text{color:#31363b;}.ColorScheme-Background{color:#eff0f1;}.ColorScheme-Highlight{color:#3daee9;}.ColorScheme-ViewText{color:#31363b;}.ColorScheme-ViewBackground{color:#fcfcfc;}.ColorScheme-ViewHover{color:#93cee9;}.ColorScheme-ViewFocus{color:#3daee9;}.ColorScheme-ButtonText{color:#31363b;}.ColorScheme-ButtonBackground{color:#eff0f1;}.ColorScheme-ButtonHover{color:#93cee9;}.ColorScheme-ButtonFocus{color:#3daee9;}.ColorScheme-NegativeText { color: #da4453; } </style>
  <g
     transform="translate(1,1)"
     id="g1">
    <g
       transform="translate(0,32) translate(0,-42)"
       id="22-22-touchpad_enabled">
      <path
         id="path7"
         class="ColorScheme-Text"
         d="m 4,13 c -0.554,0 -1,0.446 -1,1 l 0,14 c 0,0.554 0.446,1 1,1 l 14,0 c 0.554,0 1,-0.446 1,-1 l 0,-14 c 0,-0.554 -0.446,-1 -1,-1 L 4,13 Z m 0,1 14,0 0,11 -14,0 0,-11 z m 0,12 6,0 0,2 -6,0 0,-2 z m 8,0 6,0 0,2 -6,0 0,-2 z"
         style="fill:currentColor;fill-opacity:1;stroke:none" />
      <path
         id="path9"
         d="M 0 10 L 0 32 L 22 32 L 22 10 L 0 10 z "
         style="opacity:1;fill:none" />
    </g>
  </g>
  <path
     style="opacity:1;fill:#ffffff;stroke:#cccccc;stroke-width:0.0202703"
     d="M 4.7891079,19.96593 C 4.4345218,19.888893 4.1350473,19.603352 4.044586,19.256048 4.0169543,19.149963 4.0135135,18.34648 4.0135135,12 c 0,-6.3464801 0.00344,-7.1499627 0.031072,-7.2560481 0.092666,-0.3557704 0.3878372,-0.6331695 0.7569951,-0.7114177 0.2038175,-0.043202 14.1958744,-0.042593 14.3998344,6.269e-4 0.363394,0.077005 0.662316,0.358797 0.753999,0.7107908 0.02763,0.1060854 0.03107,0.909568 0.03107,7.2560481 0,6.34648 -0.0034,7.149963 -0.03107,7.256048 -0.09267,0.355771 -0.387838,0.63317 -0.756995,0.711418 -0.197053,0.04177 -14.2168694,0.04027 -14.4093116,-0.0015 z M 11.006757,18 V 16.996622 H 7.9966216 4.9864865 V 18 19.003378 h 3.0101351 3.0101354 z m 8.006757,0 V 16.996622 H 16.003378 12.993243 V 18 19.003378 h 3.010135 3.010136 z m 0,-7.5 V 4.9966216 H 12 4.9864865 V 10.5 16.003378 H 12 19.013514 Z"
     id="path1" />
</svg>
