<?xml version="1.0" encoding="UTF-8" standalone="no"?>
<svg
   viewBox="0 0 22 22"
   version="1.1"
   id="svg1"
   sodipodi:docname="folder-docker.svg"
   inkscape:version="1.3.2 (091e20ef0f, 2023-11-25, custom)"
   xmlns:inkscape="http://www.inkscape.org/namespaces/inkscape"
   xmlns:sodipodi="http://sodipodi.sourceforge.net/DTD/sodipodi-0.dtd"
   xmlns="http://www.w3.org/2000/svg"
   xmlns:svg="http://www.w3.org/2000/svg">
  <sodipodi:namedview
     id="namedview1"
     pagecolor="#505050"
     bordercolor="#ffffff"
     borderopacity="1"
     inkscape:showpageshadow="0"
     inkscape:pageopacity="0"
     inkscape:pagecheckerboard="1"
     inkscape:deskcolor="#d1d1d1"
     inkscape:zoom="53.818182"
     inkscape:cx="10.990709"
     inkscape:cy="11"
     inkscape:window-width="2560"
     inkscape:window-height="1388"
     inkscape:window-x="2560"
     inkscape:window-y="28"
     inkscape:window-maximized="1"
     inkscape:current-layer="svg1" />
  <defs
     id="defs3051">
    <style
       type="text/css"
       id="current-color-scheme" />
  </defs>
  <path
     style="fill:currentColor"
     d="M 9 5 L 9 7 L 11 7 L 11 5 L 9 5 z M 12 5 L 12 7 L 14 7 L 14 5 L 12 5 z M 16.683594 7.6738281 C 16.047414 8.1098381 15.89541 8.8992212 16.09375 9.6445312 C 16.29429 10.389291 16.801362 10.926478 17.570312 10.986328 C 17.827283 11.713148 18.514236 12.200092 19.285156 12.201172 C 20.056066 12.200172 20.74303 11.713148 21 10.986328 C 20.74303 10.259498 20.056066 9.7745175 19.285156 9.7734375 C 18.917376 9.7744375 18.558509 9.8867431 18.255859 10.095703 C 18.378839 9.7486031 18.393958 9.371355 18.298828 9.015625 C 18.098578 8.271645 17.451644 7.7346281 16.683594 7.6738281 z M 17.570312 10.986328 L 3 10.986328 C 3 15.009928 6.2615462 17.058594 10.285156 17.058594 C 14.308756 17.058594 17.570312 15.009928 17.570312 10.986328 z M 5 8 L 5 10 L 7 10 L 7 8 L 5 8 z M 8 8 L 8 10 L 10 10 L 10 8 L 8 8 z M 11 8 L 11 10 L 13 10 L 13 8 L 11 8 z M 14 8 L 14 10 L 16 10 L 16 8 L 14 8 z M 6 12 A 1 1 0 0 1 7 13 A 1 1 0 0 1 6 14 A 1 1 0 0 1 5 13 A 1 1 0 0 1 6 12 z "
     class="ColorScheme-Text"
     id="path1" />
  <path
     style="fill:#ffffff;stroke:#cccccc;stroke-width:0.0185811"
     d="M 9.5692568,17.0285 C 7.8586319,16.904862 6.4523917,16.451439 5.3327703,15.662502 4.756362,15.256339 4.2148346,14.690987 3.856822,14.121622 3.6215059,13.747386 3.3911795,13.235513 3.2628323,12.801548 3.1121667,12.292122 3.0109316,11.627575 3.0103268,11.144003 l -1.917e-4,-0.153294 h 7.2773989 7.277398 l -0.01209,0.292652 c -0.051,1.233931 -0.415463,2.299537 -1.097856,3.209882 -0.200081,0.266917 -0.681954,0.757925 -0.958359,0.976527 -1.071828,0.847681 -2.485041,1.365808 -4.180744,1.532788 -0.360803,0.03553 -1.400349,0.05097 -1.7466212,0.02594 z M 6.2593909,13.973851 c 0.3430449,-0.09131 0.626647,-0.378558 0.7172775,-0.726512 0.058469,-0.224477 0.023853,-0.50944 -0.087701,-0.721961 -0.07613,-0.145036 -0.2701544,-0.33906 -0.41519,-0.41519 -0.6687543,-0.351034 -1.4762548,0.13134 -1.475246,0.881264 3.363e-4,0.25011 0.058811,0.429777 0.201522,0.61919 0.1282916,0.170275 0.328201,0.304541 0.5415007,0.363692 0.115009,0.03189 0.3971815,0.03163 0.5178368,-4.83e-4 z"
     id="path2" />
  <path
     style="fill:#ffffff;stroke:#cccccc;stroke-width:0.0185811"
     d="M 5.0168919,9.0025338 V 8.0177365 H 6.0016892 6.9864865 V 9.0025338 9.9873311 H 6.0016892 5.0168919 Z"
     id="path3" />
  <path
     style="fill:#ffffff;stroke:#cccccc;stroke-width:0.0185811"
     d="M 8.0084459,9.0025338 V 8.0177365 H 9.0025338 9.9966216 V 9.0025338 9.9873311 H 9.0025338 8.0084459 Z"
     id="path4" />
  <path
     style="fill:#ffffff;stroke:#cccccc;stroke-width:0.0185811"
     d="M 9.0118243,6.0016892 V 5.0076014 H 10.005912 11 V 6.0016892 6.995777 H 10.005912 9.0118243 Z"
     id="path5" />
  <path
     style="fill:#ffffff;stroke:#cccccc;stroke-width:0.0185811"
     d="M 11,9.0025338 V 8.0177365 h 0.994088 0.994088 V 9.0025338 9.9873311 H 11.994088 11 Z"
     id="path6" />
  <path
     style="fill:#ffffff;stroke:#cccccc;stroke-width:0.0185811"
     d="M 12.003378,6.0016892 V 5.0076014 h 0.994088 0.994088 V 6.0016892 6.995777 h -0.994088 -0.994088 z"
     id="path7" />
  <path
     style="fill:#ffffff;stroke:#cccccc;stroke-width:0.0185811"
     d="M 14.010135,9.0025338 V 8.0177365 h 0.994088 0.994088 v 0.9847973 0.9847973 h -0.994088 -0.994088 z"
     id="path8" />
  <path
     style="fill:#ffffff;stroke:#cccccc;stroke-width:0.0185811"
     d="M 19.080424,12.18014 C 18.805618,12.145976 18.509307,12.035251 18.281519,11.881606 18.01417,11.701277 17.745181,11.379308 17.624349,11.095 l -0.05023,-0.118176 -0.09576,-0.01135 C 17.130241,10.924224 16.749794,10.722895 16.52938,10.463284 16.167946,10.037574 15.971828,9.3948892 16.034203,8.8405704 16.08317,8.4054022 16.24132,8.0817923 16.540301,7.8049823 l 0.13499,-0.1249801 0.102622,0.012822 c 0.242595,0.03031 0.579467,0.1611376 0.792722,0.3078606 0.143545,0.098762 0.349474,0.305681 0.452415,0.4545898 0.30855,0.4463331 0.403306,0.9947811 0.260714,1.5090124 -0.01902,0.068588 -0.03147,0.127819 -0.02766,0.131625 0.0038,0.0038 0.05549,-0.02241 0.11485,-0.05826 0.142027,-0.085772 0.300342,-0.150904 0.491242,-0.2021027 0.225706,-0.060533 0.628304,-0.060628 0.851059,-2.005e-4 0.328102,0.089006 0.611791,0.2486862 0.835282,0.4701542 0.159774,0.158329 0.254431,0.289257 0.358726,0.496182 0.09824,0.194922 0.09895,0.176291 -0.01523,0.402378 -0.179336,0.355098 -0.501366,0.6604 -0.874941,0.829492 -0.26775,0.121192 -0.654313,0.181687 -0.936667,0.146585 z"
     id="path9" />
</svg>
