<?xml version="1.0" encoding="UTF-8" standalone="no"?>
<svg
   viewBox="0 0 22 22"
   version="1.1"
   id="svg1"
   sodipodi:docname="folder-git.svg"
   inkscape:version="1.3.2 (091e20ef0f, 2023-11-25, custom)"
   xmlns:inkscape="http://www.inkscape.org/namespaces/inkscape"
   xmlns:sodipodi="http://sodipodi.sourceforge.net/DTD/sodipodi-0.dtd"
   xmlns="http://www.w3.org/2000/svg"
   xmlns:svg="http://www.w3.org/2000/svg">
  <sodipodi:namedview
     id="namedview1"
     pagecolor="#505050"
     bordercolor="#ffffff"
     borderopacity="1"
     inkscape:showpageshadow="0"
     inkscape:pageopacity="0"
     inkscape:pagecheckerboard="1"
     inkscape:deskcolor="#d1d1d1"
     inkscape:zoom="53.818182"
     inkscape:cx="10.990709"
     inkscape:cy="11"
     inkscape:window-width="2560"
     inkscape:window-height="1388"
     inkscape:window-x="2560"
     inkscape:window-y="28"
     inkscape:window-maximized="1"
     inkscape:current-layer="svg1" />
  <defs
     id="defs3051">
    <style
       type="text/css"
       id="current-color-scheme" />
  </defs>
  <path
     style="fill:currentColor"
     d="M 12.5 2.7929688 L 12.146484 3.1464844 L 8.7929688 6.5 L 12.146484 9.8535156 L 12.5 10.207031 L 13.207031 9.5 L 12.853516 9.1464844 L 10.707031 7 L 14 7 A 1 1 0 0 1 15 8 L 15 14.050781 A 2.5 2.5 0 0 0 13 16.5 A 2.5 2.5 0 0 0 15.5 19 A 2.5 2.5 0 0 0 18 16.5 A 2.5 2.5 0 0 0 16 14.054688 L 16 8 A 2 2 0 0 0 14.048828 6 A 2 2 0 0 0 14 6 L 10.707031 6 L 12.853516 3.8535156 L 13.207031 3.5 L 12.5 2.7929688 z M 5.5 4 A 2.5 2.5 0 0 0 3 6.5 A 2.5 2.5 0 0 0 5 8.9453125 L 5 14.050781 A 2.5 2.5 0 0 0 3 16.5 A 2.5 2.5 0 0 0 5.5 19 A 2.5 2.5 0 0 0 8 16.5 A 2.5 2.5 0 0 0 6 14.054688 L 6 8.9492188 A 2.5 2.5 0 0 0 8 6.5 A 2.5 2.5 0 0 0 5.5 4 z M 5.5 5 A 1.5 1.5 0 0 1 7 6.5 A 1.5 1.5 0 0 1 5.5 8 A 1.5 1.5 0 0 1 4 6.5 A 1.5 1.5 0 0 1 5.5 5 z M 5.5 15 A 1.5 1.5 0 0 1 7 16.5 A 1.5 1.5 0 0 1 5.5 18 A 1.5 1.5 0 0 1 4 16.5 A 1.5 1.5 0 0 1 5.5 15 z M 15.5 15 A 1.5 1.5 0 0 1 17 16.5 A 1.5 1.5 0 0 1 15.5 18 A 1.5 1.5 0 0 1 14 16.5 A 1.5 1.5 0 0 1 15.5 15 z "
     class="ColorScheme-Text"
     id="path1" />
  <path
     style="fill:#ffffff;stroke:#cccccc;stroke-width:0.0185811"
     d="M 5.2863176,18.979391 C 4.7089121,18.929334 4.2063092,18.698927 3.7797614,18.288745 3.2538809,17.783042 2.9883685,17.128324 3.0166816,16.407095 c 0.02611,-0.665102 0.2824326,-1.233975 0.7647353,-1.697224 0.2064747,-0.198318 0.3755804,-0.318837 0.6189305,-0.4411 0.1424831,-0.07159 0.4185217,-0.170128 0.5654465,-0.201857 l 0.051098,-0.01103 v -2.555128 c 0,-2.0280949 -0.00479,-2.5565277 -0.023226,-2.5619151 C 4.7397579,8.8646382 4.5535719,8.8007029 4.4420516,8.7494154 3.9546435,8.5252596 3.4890708,8.061544 3.2535478,7.5656525 2.7212582,6.4449219 3.0974089,5.1023792 4.1342905,4.4221389 4.4125018,4.23962 4.679586,4.1299292 5.0226816,4.057279 5.273816,4.0041015 5.6900347,4.0007132 5.9459459,4.049763 c 1.0597694,0.2031231 1.853352,1.0288505 2.0188012,2.1005748 0.034218,0.2216551 0.02505,0.5902561 -0.020441,0.8217864 -0.183948,0.936219 -0.9049739,1.7029019 -1.8218397,1.937203 l -0.1300676,0.033238 -0.00471,2.5575698 c -0.00375,2.037249 2.77e-5,2.558901 0.018581,2.564116 0.3244667,0.09121 0.4294221,0.128938 0.6085962,0.218757 0.691577,0.346687 1.1770886,0.987388 1.3324604,1.75837 0.045308,0.224828 0.044779,0.714759 -0.00101,0.93244 -0.1085235,0.515942 -0.3445746,0.945511 -0.7194618,1.309286 -0.5222904,0.506808 -1.2235878,0.758442 -1.940537,0.696287 z m 0.6028154,-1.02284 c 0.5023562,-0.128342 0.9158854,-0.536075 1.063729,-1.048819 0.06131,-0.212633 0.06131,-0.602831 0,-0.815464 C 6.8349056,15.683177 6.5528067,15.341416 6.1782095,15.153783 5.9487978,15.038872 5.7757639,14.999512 5.5,14.999512 c -0.2757639,0 -0.4487978,0.03936 -0.6782095,0.154271 -0.3765464,0.18861 -0.6754446,0.556266 -0.784777,0.965305 -0.050565,0.189177 -0.045339,0.596288 0.010125,0.788644 0.1375536,0.477057 0.4948971,0.85637 0.95674,1.015561 0.2797311,0.09642 0.5920971,0.108154 0.8852549,0.03326 z M 5.8623311,7.9610071 C 6.0533844,7.9151877 6.3133965,7.7858362 6.4632732,7.6620491 6.6876213,7.4767537 6.8820281,7.1732853 6.9615176,6.8842905 7.0078728,6.7157603 7.0084244,6.2917423 6.9625087,6.1224662 6.8428332,5.6812612 6.535373,5.3161302 6.1257114,5.1287096 5.9105917,5.0302922 5.7633989,5.0000188 5.5,5.0000188 c -0.2633989,0 -0.4105917,0.030273 -0.6257114,0.1286908 C 4.464627,5.3161302 4.1571668,5.6812612 4.0374912,6.1224662 3.9913073,6.2927317 3.9920968,6.7162603 4.0389115,6.8842905 4.2622872,7.6860451 5.055589,8.1544843 5.8623311,7.9610071 Z"
     id="path2" />
  <path
     style="fill:#ffffff;stroke:#cccccc;stroke-width:0.0185811"
     d="m 15.288984,18.9795 c -0.61275,-0.05402 -1.167263,-0.323081 -1.596112,-0.77447 -0.327717,-0.344942 -0.531723,-0.739784 -0.640939,-1.240503 -0.04618,-0.211738 -0.04649,-0.704368 -5.7e-4,-0.919763 0.07728,-0.362508 0.184443,-0.624739 0.372742,-0.912127 0.341522,-0.521241 0.877552,-0.896496 1.510439,-1.057404 l 0.07897,-0.02008 -1.41e-4,-3.051226 C 15.01328,8.9773382 15.006728,7.9121445 14.993864,7.8319257 14.964344,7.6478496 14.848007,7.4241514 14.710219,7.2865171 14.582944,7.159384 14.384469,7.0502673 14.218258,7.0160486 14.15131,7.0022657 13.57143,6.995777 12.406654,6.995777 H 10.693515 L 11.943108,8.2454722 13.1927,9.4951671 12.844132,9.8433732 12.495563,10.191579 10.651498,8.3474438 8.8074323,6.5033085 10.656173,4.6546376 l 1.848741,-1.8486709 0.343895,0.3435184 0.343896,0.3435185 -1.245001,1.2451035 c -0.684751,0.6848069 -1.245001,1.2510761 -1.245001,1.2583759 0,0.0073 0.813154,0.01593 1.80701,0.019178 1.778636,0.00581 1.809344,0.00653 1.955659,0.045699 0.352266,0.094302 0.644536,0.2565522 0.899914,0.4995769 0.355883,0.3386694 0.561903,0.7598445 0.614107,1.2554467 0.01118,0.1061368 0.0184,1.3512415 0.0186,3.2074254 2.56e-4,2.410927 0.0051,3.035339 0.02355,3.040732 0.572543,0.167313 0.866538,0.327177 1.204565,0.655 0.205286,0.199089 0.350575,0.392611 0.481576,0.64145 0.09875,0.187578 0.202002,0.48104 0.243847,0.693063 0.03871,0.196107 0.03373,0.739479 -0.0086,0.934037 -0.272018,1.251619 -1.404722,2.101541 -2.653983,1.991409 z m 0.40604,-0.985102 c 0.333686,-0.04582 0.618914,-0.185277 0.852283,-0.416695 0.230849,-0.22892 0.338514,-0.416924 0.419017,-0.731687 0.04491,-0.175597 0.04746,-0.489903 0.0055,-0.674517 -0.12691,-0.557979 -0.536968,-0.982208 -1.094259,-1.132076 -0.204816,-0.05508 -0.551829,-0.05554 -0.75631,-10e-4 -0.863388,0.230251 -1.335177,1.130175 -1.038022,1.979995 0.178877,0.511562 0.668094,0.905331 1.212611,0.976025 0.171085,0.02221 0.237269,0.02221 0.399211,-3.3e-5 z"
     id="path3" />
</svg>
