<?xml version="1.0" encoding="UTF-8" standalone="no"?>
<svg
   viewBox="0 0 22 22"
   version="1.1"
   id="svg1"
   sodipodi:docname="input-gamepad.svg"
   inkscape:version="1.3.2 (091e20ef0f, 2023-11-25, custom)"
   xmlns:inkscape="http://www.inkscape.org/namespaces/inkscape"
   xmlns:sodipodi="http://sodipodi.sourceforge.net/DTD/sodipodi-0.dtd"
   xmlns="http://www.w3.org/2000/svg"
   xmlns:svg="http://www.w3.org/2000/svg">
  <sodipodi:namedview
     id="namedview1"
     pagecolor="#505050"
     bordercolor="#ffffff"
     borderopacity="1"
     inkscape:showpageshadow="0"
     inkscape:pageopacity="0"
     inkscape:pagecheckerboard="1"
     inkscape:deskcolor="#d1d1d1"
     inkscape:zoom="53.818182"
     inkscape:cx="10.990709"
     inkscape:cy="11"
     inkscape:window-width="2560"
     inkscape:window-height="1388"
     inkscape:window-x="2560"
     inkscape:window-y="28"
     inkscape:window-maximized="1"
     inkscape:current-layer="svg1" />
  <defs
     id="defs3051">
    <style
       type="text/css"
       id="current-color-scheme" />
  </defs>
  <path
     style="fill:currentColor"
     d="M 6 6 C 4.343 6 3 8.2 3 11 L 3 14.5 A 1.5 1.5 0 0 0 5.6 15.6 L 8.1 13 A 1.5 1.5 0 0 0 11 12.5 A 1.5 1.5 0 0 0 13.9 13 L 16.4 15.6 A 1.5 1.5 0 0 0 19 14.5 L 19 11 C 19 8.2 17.6 6 16 6 L 6 6 z M 6 7 L 16 7 C 17.1 7 18 8.8 18 11 L 18 14.5 A 0.5 0.5 0 0 1 17.1 14.9 L 14.3 12 L 13 12 L 13 12.5 A 0.5 0.5 0 0 1 12 12.5 L 12 12 L 10 12 L 10 12.5 A 0.5 0.5 0 0 1 9 12.5 L 9 12 L 7.7 12 L 4.9 14.9 A 0.5 0.5 0 0 1 4 14.5 L 4 11 C 4 8.8 4.9 7 6 7 z M 14.5 7.9 A 0.6 0.6 0 0 0 13.9 8.5 A 0.6 0.6 0 0 0 14.5 9.1 A 0.6 0.6 0 0 0 15.1 8.5 A 0.6 0.6 0 0 0 14.5 7.9 z M 7 8 L 7 9 L 6 9 L 6 10 L 7 10 L 7 11 L 8 11 L 8 10 L 9 10 L 9 9 L 8 9 L 8 8 L 7 8 z M 13.5 8.9 A 0.6 0.6 0 0 0 12.9 9.5 A 0.6 0.6 0 0 0 13.5 10.1 A 0.6 0.6 0 0 0 14.1 9.5 A 0.6 0.6 0 0 0 13.5 8.9 z M 15.5 8.9 A 0.6 0.6 0 0 0 14.9 9.5 A 0.6 0.6 0 0 0 15.5 10.1 A 0.6 0.6 0 0 0 16.1 9.5 A 0.6 0.6 0 0 0 15.5 8.9 z M 14.5 9.9 A 0.6 0.6 0 0 0 13.9 10.5 A 0.6 0.6 0 0 0 14.5 11.1 A 0.6 0.6 0 0 0 15.1 10.5 A 0.6 0.6 0 0 0 14.5 9.9 z "
     class="ColorScheme-Text"
     id="path1" />
  <path
     style="fill:#ffffff;stroke:#cccccc;stroke-width:0.0185811"
     d="M 4.3246271,16.060819 C 3.8305425,16.011733 3.3733358,15.679216 3.1505872,15.206966 3.011148,14.91134 3.0206362,15.076875 3.0138255,12.820946 c -0.00617,-2.042111 0.002,-2.41965 0.062295,-2.8789817 C 3.3308669,8.0011651 4.2153887,6.5355076 5.3855015,6.115307 5.692756,6.0049685 5.3692845,6.0109575 11.007079,6.0112238 c 4.972728,2.349e-4 5.174063,0.00155 5.334982,0.034941 0.909499,0.1887017 1.72205,1.0625018 2.209163,2.3756895 0.227647,0.6137032 0.370347,1.3094004 0.420203,2.0485847 0.01383,0.205063 0.01869,0.980347 0.01466,2.341216 -0.0068,2.288927 0.0049,2.103901 -0.153096,2.424831 -0.194594,0.395248 -0.54367,0.680455 -0.96728,0.790303 -0.296878,0.07698 -0.677374,0.04455 -0.963388,-0.08212 -0.263332,-0.116622 -0.311962,-0.162497 -1.678785,-1.583665 -0.721271,-0.749948 -1.316527,-1.363072 -1.32279,-1.362497 -0.0063,5.75e-4 -0.03883,0.0586 -0.07238,0.128935 -0.132723,0.27831 -0.371248,0.515797 -0.663674,0.660784 -0.228448,0.113266 -0.41205,0.156951 -0.657955,0.156548 -0.407843,-6.69e-4 -0.717224,-0.119681 -1.008122,-0.387801 -0.224908,-0.207296 -0.368691,-0.445941 -0.44245,-0.734359 -0.02067,-0.08084 -0.03759,-0.183265 -0.03759,-0.227618 0,-0.04435 -0.0084,-0.08064 -0.01858,-0.08064 -0.01022,0 -0.01858,0.03629 -0.01858,0.08064 0,0.110097 -0.06347,0.349581 -0.130764,0.493391 -0.197652,0.422396 -0.621204,0.754587 -1.0664831,0.836442 -0.1799924,0.03309 -0.4679917,0.02529 -0.6346625,-0.01719 -0.4240192,-0.108064 -0.8000989,-0.407702 -0.9769873,-0.778405 -0.034034,-0.07132 -0.067005,-0.130152 -0.073268,-0.130727 -0.00626,-5.75e-4 -0.6019527,0.613 -1.3237541,1.3635 -1.0941802,1.137684 -1.3362559,1.380229 -1.45606,1.458879 -0.2988557,0.196196 -0.630323,0.276139 -0.9948129,0.239928 z M 4.709669,15.073584 c 0.053943,-0.02786 0.2808383,-0.249602 0.6908183,-0.675121 0.3357708,-0.348498 0.9909386,-1.027869 1.4559283,-1.509713 l 0.8454358,-0.876081 h 0.6441609 0.6441612 l 0.0063,0.320524 c 0.00715,0.363626 0.021992,0.412994 0.1622358,0.539696 0.1046959,0.09459 0.1933172,0.1283 0.339736,0.129242 0.2135975,0.0014 0.3776188,-0.104459 0.4679812,-0.301962 0.032359,-0.07073 0.039359,-0.130158 0.045422,-0.385558 l 0.0072,-0.301942 H 11 11.980978 l 0.0066,0.301942 c 0.0062,0.286419 0.0092,0.307392 0.0586,0.407931 0.09052,0.18433 0.249001,0.280972 0.458499,0.279589 0.143125,-9.44e-4 0.232711,-0.03534 0.336652,-0.129242 0.140244,-0.126702 0.155084,-0.17607 0.162236,-0.539696 l 0.0063,-0.320524 h 0.64445 0.64445 l 1.105282,1.145041 c 0.607905,0.629773 1.262689,1.309143 1.455076,1.509713 0.403866,0.421043 0.453268,0.455438 0.653584,0.455028 0.0769,-1.58e-4 0.157713,-0.01225 0.197694,-0.02957 0.09938,-0.04306 0.22122,-0.160751 0.262344,-0.253401 0.03497,-0.07879 0.03594,-0.140613 0.03356,-2.146115 -0.0014,-1.171603 -0.01039,-2.161452 -0.0208,-2.28796 C 17.914785,9.5463383 17.733945,8.8218019 17.438215,8.2128378 17.267209,7.8607037 17.122237,7.6511585 16.891869,7.4231419 16.684951,7.218336 16.563302,7.1345161 16.35584,7.0538024 L 16.230574,7.0050676 H 11 5.7694257 L 5.6441604,7.0538024 C 5.4366982,7.1345161 5.3150487,7.218336 5.1081309,7.4231419 4.8777633,7.6511585 4.7327907,7.8607037 4.561785,8.2128378 4.2660556,8.8218019 4.0852152,9.5463383 4.014532,10.405405 c -0.010408,0.126494 -0.019406,1.115789 -0.020795,2.286354 -0.00223,1.879473 2.855e-4,2.069927 0.02823,2.136825 0.1072524,0.25675 0.4373025,0.374334 0.687702,0.245 z"
     id="path2" />
  <path
     style="fill:#ffffff;stroke:#cccccc;stroke-width:0.0185811"
     d="M 7.0050676,10.48902 V 9.9873311 H 6.5033784 6.0016892 V 9.4949324 9.0025338 H 6.5033784 7.0050676 V 8.5101351 8.0177365 H 7.4974662 7.9898649 V 8.5101351 9.0025338 H 8.4915541 8.9932432 V 9.4949324 9.9873311 H 8.4915541 7.9898649 V 10.48902 10.990709 H 7.4974662 7.0050676 Z"
     id="path3" />
  <path
     style="fill:#ffffff;stroke:#cccccc;stroke-width:0.0185811"
     d="M 13.378378,10.073 C 13.246256,10.043758 13.180109,10.007662 13.085782,9.9133353 12.976175,9.8037291 12.925307,9.6886586 12.917251,9.5320946 12.904864,9.291394 13.030359,9.0761315 13.244326,8.9710602 c 0.08948,-0.043941 0.129559,-0.052141 0.254829,-0.052141 0.124936,0 0.165427,0.00824 0.253828,0.051651 0.116652,0.057285 0.21581,0.1562507 0.277866,0.2773255 0.05466,0.1066485 0.06888,0.3146601 0.02943,0.4304491 C 13.961035,9.969612 13.670634,10.137684 13.378378,10.073 Z"
     id="path4" />
  <path
     style="fill:#ffffff;stroke:#cccccc;stroke-width:0.0185811"
     d="M 14.361863,9.0710538 C 14.183672,9.0208647 14.054752,8.917172 13.967491,8.7538533 c -0.03385,-0.063359 -0.04088,-0.1067887 -0.04092,-0.2530087 -4.7e-5,-0.1610112 0.0048,-0.1852687 0.0551,-0.2760926 0.110649,-0.1997703 0.285689,-0.3045911 0.513398,-0.3074431 0.126525,-0.00158 0.154427,0.00498 0.268726,0.063265 0.357774,0.1824295 0.433756,0.641463 0.153911,0.9298243 -0.139431,0.1436737 -0.374705,0.2116749 -0.555844,0.1606552 z"
     id="path5" />
  <path
     style="fill:#ffffff;stroke:#cccccc;stroke-width:0.0185811"
     d="m 14.301156,11.054842 c -0.155652,-0.05709 -0.300625,-0.204325 -0.356157,-0.361719 -0.03624,-0.10271 -0.0354,-0.286586 0.0018,-0.395786 0.03855,-0.113148 0.174106,-0.262384 0.293588,-0.3232257 0.301485,-0.1535185 0.688196,-4.19e-4 0.809252,0.3203837 0.143741,0.380923 -0.141217,0.791148 -0.547117,0.787629 -0.07154,-6.2e-4 -0.162157,-0.0129 -0.201378,-0.02728 z"
     id="path6" />
  <path
     style="fill:#ffffff;stroke:#cccccc;stroke-width:0.0185811"
     d="m 15.40002,10.079674 c -0.351596,-0.05906 -0.570589,-0.4331906 -0.45388,-0.7754121 0.04444,-0.1303189 0.185177,-0.2833724 0.313199,-0.3406155 0.140285,-0.062726 0.357839,-0.061908 0.488127,0.00184 0.11846,0.057957 0.229938,0.1694351 0.287895,0.2878953 0.06817,0.1393324 0.06584,0.3509572 -0.0055,0.4961634 C 15.913034,9.98751 15.655355,10.122566 15.40002,10.079674 Z"
     id="path7" />
</svg>
