<?xml version="1.0" encoding="UTF-8" standalone="no"?>
<svg
   viewBox="0 0 22 22"
   version="1.1"
   id="svg1"
   sodipodi:docname="dblatex.svg"
   inkscape:version="1.3.2 (091e20ef0f, 2023-11-25, custom)"
   xmlns:inkscape="http://www.inkscape.org/namespaces/inkscape"
   xmlns:sodipodi="http://sodipodi.sourceforge.net/DTD/sodipodi-0.dtd"
   xmlns="http://www.w3.org/2000/svg"
   xmlns:svg="http://www.w3.org/2000/svg">
  <sodipodi:namedview
     id="namedview1"
     pagecolor="#505050"
     bordercolor="#ffffff"
     borderopacity="1"
     inkscape:showpageshadow="0"
     inkscape:pageopacity="0"
     inkscape:pagecheckerboard="1"
     inkscape:deskcolor="#d1d1d1"
     inkscape:zoom="53.818182"
     inkscape:cx="10.990709"
     inkscape:cy="11"
     inkscape:window-width="2560"
     inkscape:window-height="1388"
     inkscape:window-x="2560"
     inkscape:window-y="28"
     inkscape:window-maximized="1"
     inkscape:current-layer="svg1" />
  <defs
     id="defs3051">
    <style
       type="text/css"
       id="current-color-scheme" />
  </defs>
  <path
     style="fill:currentColor"
     d="M 11 3 A 8 3 0 0 0 3 6 L 3 16 A 8 3 0 0 0 11 19 A 8 3 0 0 0 19 16 L 19 6 A 8 3 0 0 0 11 3 z M 11 4 A 7 2 0 0 1 18 6 A 7 2 0 0 1 11 8 A 7 2 0 0 1 4 6 A 7 2 0 0 1 11 4 z M 18 7.4 L 18 11 A 7 2 0 0 1 11 13 A 7 2 0 0 1 4 11 L 4 7.4 A 8 3 0 0 0 11 9 A 8 3 0 0 0 18 7.4 z M 18 12.4 L 18 16 A 7 2 0 0 1 11 18 A 7 2 0 0 1 4 16 L 4 12.4 A 8 3 0 0 0 11 14 A 8 3 0 0 0 18 12.4 z "
     class="ColorScheme-Text"
     id="path1" />
  <path
     style="fill:#ffffff;stroke:#cccccc;stroke-width:0.0185811"
     d="M 10.600507,18.986562 C 6.6513085,18.914865 3.4254935,17.75576 3.0460311,16.272076 3.0109826,16.135038 3.0101351,16.010565 3.0101351,11 c 0,-5.0435119 6.288e-4,-5.1341827 0.036577,-5.2747371 C 3.1637371,5.2676977 3.5582227,4.8253434 4.194541,4.4381506 5.3423349,3.7397306 7.1731974,3.2540428 9.3277027,3.076435 9.8651142,3.0321332 10.307982,3.0161747 11,3.0161747 c 1.026098,0 1.82044,0.050426 2.712838,0.1722153 2.915347,0.3978694 4.944632,1.3802353 5.24045,2.5368729 0.03595,0.1405544 0.03658,0.2312252 0.03658,5.2747371 0,5.043512 -6.29e-4,5.134183 -0.03658,5.274737 -0.230282,0.900395 -1.51958,1.709964 -3.5217,2.211325 -1.404513,0.351712 -3.13748,0.531247 -4.831081,0.5005 z m 1.653716,-1.010332 c 2.981033,-0.161936 5.263954,-0.83983 5.681017,-1.686928 l 0.06054,-0.122958 0.005,-1.883857 c 0.0045,-1.689189 0.002,-1.882723 -0.0236,-1.872887 -0.01572,0.006 -0.0765,0.04323 -0.135059,0.08265 -0.392716,0.264376 -1.006461,0.542679 -1.685183,0.764147 -1.889261,0.616468 -4.429663,0.861126 -6.8478084,0.659491 C 7.2322042,13.742703 5.3134792,13.222643 4.2364865,12.540976 4.1291807,12.473059 4.0307776,12.413246 4.0178129,12.40806 c -0.018969,-0.0076 -0.022597,0.358465 -0.018581,1.874427 l 0.00499,1.883857 0.062061,0.126052 c 0.1140461,0.23164 0.4286697,0.494161 0.8383378,0.699508 1.1429358,0.572897 3.135303,0.939775 5.4914933,1.011214 0.325521,0.0099 1.492255,-0.007 1.858108,-0.02689 z m -0.05574,-4.998727 c 2.878822,-0.141494 5.139325,-0.779138 5.68716,-1.604237 0.125272,-0.188674 0.119428,-0.08435 0.119428,-2.1317145 V 7.3868133 l -0.153294,0.099608 c -1.191618,0.7742913 -3.148446,1.2877882 -5.57897,1.4639939 -0.448646,0.032526 -2.096962,0.032526 -2.5456081,0 C 7.3017309,8.7745759 5.3349805,8.2585139 4.1482264,7.4865309 l -0.153294,-0.099718 v 1.8547382 c 0,2.0531589 -0.00638,1.9421749 0.1228611,2.1369529 0.7122281,1.073388 4.3060182,1.784523 8.0806865,1.598999 z m -0.46453,-4.9870302 c 1.994344,-0.03631 4.040415,-0.396227 5.180325,-0.9112537 0.370713,-0.1674927 0.591488,-0.3092964 0.795281,-0.5108069 0.23665,-0.2339996 0.285836,-0.3315118 0.286059,-0.5671138 C 17.995763,5.848774 17.99021,5.8223689 17.933958,5.7081051 17.360734,4.5437216 13.289077,3.761482 9.3091216,4.0511165 6.2416449,4.274347 4.0716582,5.0474972 3.9997926,5.9427911 3.987204,6.0996184 4.0196303,6.2276454 4.1052981,6.3593538 4.3319214,6.7077716 4.8343043,7.0156564 5.612339,7.2829419 c 0.9878994,0.3393825 2.2278014,0.5604466 3.7618164,0.6707004 0.4161274,0.029908 1.4762686,0.061607 1.7187496,0.051391 0.06643,-0.0028 0.354899,-0.00935 0.641048,-0.01456 z"
     id="path2" />
</svg>
