<?xml version="1.0" encoding="UTF-8" standalone="no"?>
<svg
   width="32"
   height="32"
   version="1.1"
   id="svg1"
   sodipodi:docname="touchpad_enabled.svg"
   inkscape:version="1.3.2 (091e20ef0f, 2023-11-25, custom)"
   xmlns:inkscape="http://www.inkscape.org/namespaces/inkscape"
   xmlns:sodipodi="http://sodipodi.sourceforge.net/DTD/sodipodi-0.dtd"
   xmlns="http://www.w3.org/2000/svg"
   xmlns:svg="http://www.w3.org/2000/svg">
  <defs
     id="defs1" />
  <sodipodi:namedview
     id="namedview1"
     pagecolor="#505050"
     bordercolor="#ffffff"
     borderopacity="1"
     inkscape:showpageshadow="0"
     inkscape:pageopacity="0"
     inkscape:pagecheckerboard="1"
     inkscape:deskcolor="#d1d1d1"
     inkscape:zoom="37"
     inkscape:cx="15.986486"
     inkscape:cy="16"
     inkscape:window-width="2560"
     inkscape:window-height="1388"
     inkscape:window-x="2560"
     inkscape:window-y="28"
     inkscape:window-maximized="1"
     inkscape:current-layer="svg1" />
  <style
     type="text/css"
     id="current-color-scheme">.ColorScheme-Text{color:#31363b;}.ColorScheme-Background{color:#eff0f1;}.ColorScheme-Highlight{color:#3daee9;}.ColorScheme-ViewText{color:#31363b;}.ColorScheme-ViewBackground{color:#fcfcfc;}.ColorScheme-ViewHover{color:#93cee9;}.ColorScheme-ViewFocus{color:#3daee9;}.ColorScheme-ButtonText{color:#31363b;}.ColorScheme-ButtonBackground{color:#eff0f1;}.ColorScheme-ButtonHover{color:#93cee9;}.ColorScheme-ButtonFocus{color:#3daee9;}.ColorScheme-NegativeText { color: #da4453; } </style>
  <g
     transform="translate(0,32) translate(-22,-32)"
     id="touchpad_enabled"
     inkscape:label="#touchpad_enabled">
    <path
       id="path12"
       class="ColorScheme-Text"
       d="M 27 4 C 26.446 4 26 4.446 26 5 L 26 27 C 26 27.554 26.446 28 27 28 L 49 28 C 49.554 28 50 27.554 50 27 L 50 5 C 50 4.446 49.554 4 49 4 L 27 4 z M 27 5 L 49 5 L 49 22 L 27 22 L 27 5 z M 27 23 L 37 23 L 37 27 L 27 27 L 27 23 z M 39 23 L 49 23 L 49 27 L 39 27 L 39 23 z "
       style="fill:currentColor;fill-opacity:1;stroke:none" />
    <path
       id="path14"
       d="M 22 0 L 22 32 L 54 32 L 54 0 L 22 0 z "
       style="opacity:1;fill:none" />
  </g>
  <path
     style="fill:#ffffff;stroke:#cccccc;stroke-width:0.027027"
     d="M 4.7670994,27.960921 C 4.386914,27.869791 4.0932856,27.540655 4.0260779,27.130291 3.9891645,26.904901 3.9913496,5.0828542 4.0283085,4.8550838 4.0822408,4.5227088 4.2832536,4.2529105 4.5887141,4.1029105 L 4.7432432,4.027027 H 16 27.256757 l 0.16069,0.078898 c 0.302488,0.1485197 0.500131,0.4156692 0.554245,0.7491592 0.03889,0.2396482 0.03889,22.0501838 0,22.2898318 -0.05411,0.333478 -0.252157,0.601144 -0.554455,0.749369 l -0.16048,0.07869 -11.202703,0.0041 c -6.1614864,0.0022 -11.240616,-0.005 -11.2869546,-0.01612 z M 15,25 V 22.986486 H 10 5 V 25 27.013514 h 5 5 z m 12,0 V 22.986486 H 22 17 V 25 27.013514 h 5 5 z M 27,13.5 V 4.9864865 H 16 5 V 13.5 22.013514 h 11 11 z"
     id="path1" />
</svg>
