<?xml version="1.0" encoding="UTF-8" standalone="no"?>
<svg
   viewBox="0 0 24 24"
   width="24"
   height="24"
   version="1.1"
   id="svg3"
   sodipodi:docname="check_constraint.svg"
   inkscape:version="1.3.2 (091e20ef0f, 2023-11-25, custom)"
   xmlns:inkscape="http://www.inkscape.org/namespaces/inkscape"
   xmlns:sodipodi="http://sodipodi.sourceforge.net/DTD/sodipodi-0.dtd"
   xmlns="http://www.w3.org/2000/svg"
   xmlns:svg="http://www.w3.org/2000/svg">
  <sodipodi:namedview
     id="namedview3"
     pagecolor="#505050"
     bordercolor="#ffffff"
     borderopacity="1"
     inkscape:showpageshadow="0"
     inkscape:pageopacity="0"
     inkscape:pagecheckerboard="1"
     inkscape:deskcolor="#d1d1d1"
     inkscape:zoom="49.333333"
     inkscape:cx="11.989865"
     inkscape:cy="12"
     inkscape:window-width="2560"
     inkscape:window-height="1388"
     inkscape:window-x="2560"
     inkscape:window-y="28"
     inkscape:window-maximized="1"
     inkscape:current-layer="svg3" />
  <defs
     id="defs3051">
    <style
       type="text/css"
       id="current-color-scheme">.ColorScheme-Text{color:#232629;}.ColorScheme-Highlight { color: #3daee9; } </style>
  </defs>
  <g
     transform="translate(1,1)"
     id="g3">
    <g
       transform="translate(-421.71429,-525.79074)"
       id="g2">
      <path
         style="fill:currentColor;fill-opacity:1;stroke:none"
         d="M 12 7 L 12 15 L 12 19 L 13 19 L 13 17.638672 A 4 4 0 0 0 16 19 A 4 4 0 0 0 20 15 A 4 4 0 0 0 16 11 A 4 4 0 0 0 13 12.361328 L 13 7 L 12 7 z M 6 11 A 4 4 0 0 0 2 15 A 4 4 0 0 0 6 19 A 4 4 0 0 0 9 17.638672 L 9 19 L 10 19 L 10 11 L 9 11 L 9 12.361328 A 4 4 0 0 0 6 11 z M 6 12 A 3 3 0 0 1 9 15 A 3 3 0 0 1 6 18 A 3 3 0 0 1 3 15 A 3 3 0 0 1 6 12 z M 16 12 A 3 3 0 0 1 19 15 A 3 3 0 0 1 16 18 A 3 3 0 0 1 13 15 A 3 3 0 0 1 16 12 z "
         transform="translate(421.71429,525.79074)"
         class="ColorScheme-Text"
         id="path1" />
      <path
         style="fill:currentColor;fill-opacity:1;stroke:none"
         d="m 434.71429,528.79074 3,4 3,-4 z"
         class="ColorScheme-Highlight"
         id="path2" />
    </g>
  </g>
  <path
     style="fill:#ffffff;stroke:#cccccc;stroke-width:0.0202703"
     d="M 13.013514,14.006757 V 8.0168919 H 13.5 13.986486 v 2.6803211 2.68032 l 0.177365,-0.174173 c 0.366706,-0.360106 0.659582,-0.569885 1.089527,-0.780398 0.424703,-0.207947 0.828947,-0.328141 1.287038,-0.382677 1.981093,-0.235849 3.837634,1.047483 4.329456,2.992732 0.153275,0.606232 0.151602,1.333227 -0.0045,1.953469 -0.306699,1.218643 -1.220071,2.255015 -2.399434,2.722558 -1.464562,0.580606 -3.148092,0.233565 -4.266614,-0.879515 -0.105572,-0.105059 -0.196649,-0.191015 -0.202395,-0.191015 -0.0057,0 -0.01045,0.305574 -0.01045,0.679054 v 0.679054 H 13.5 13.013514 Z m 4.641891,4.929196 c 1.175569,-0.279304 2.037984,-1.155307 2.291419,-2.327521 0.06021,-0.278501 0.07422,-0.736244 0.03139,-1.025961 -0.102399,-0.692696 -0.401186,-1.272661 -0.904561,-1.755812 -0.430507,-0.413211 -0.987502,-0.694772 -1.570274,-0.793773 -0.242458,-0.04119 -0.701061,-0.04677 -0.932432,-0.01136 -0.74917,0.114679 -1.446559,0.510851 -1.906336,1.082949 -0.592853,0.737684 -0.806039,1.680855 -0.587483,2.599119 0.144738,0.608121 0.483712,1.166883 0.949946,1.565883 0.421965,0.361116 0.913303,0.596115 1.451388,0.694177 0.31308,0.05706 0.875965,0.04381 1.176944,-0.0277 z"
     id="path3" />
  <path
     style="fill:#ffffff;stroke:#cccccc;stroke-width:0.0202703"
     d="M 6.6706005,19.975247 C 5.4543679,19.875865 4.3435415,19.21363 3.6633548,18.182432 3.232116,17.528653 3.0174644,16.800221 3.0182527,15.993243 c 6.178e-4,-0.632315 0.1239915,-1.178533 0.3898251,-1.72589 0.607245,-1.250331 1.8169454,-2.096367 3.1971104,-2.235983 0.7205317,-0.07289 1.4353352,0.05404 2.1036592,0.373549 0.4261816,0.203747 0.7355596,0.420316 1.0949886,0.766508 l 0.209678,0.201956 V 12.691759 12.010135 H 10.5 10.986486 v 3.993243 3.993244 H 10.5 10.013514 v -0.679054 c 0,-0.37348 -0.0041,-0.679054 -0.0091,-0.679054 -0.005,0 -0.094706,0.08492 -0.1993501,0.188721 -0.6699776,0.664554 -1.553129,1.070341 -2.5002571,1.148809 -0.2669759,0.02212 -0.3551267,0.02201 -0.6342173,-7.97e-4 z M 7.5053966,18.963648 C 9.1708932,18.678917 10.271243,17.087934 9.9516118,15.426693 9.6045971,13.623129 7.7283199,12.553246 5.9888082,13.167037 5.5613451,13.317869 5.2194853,13.53775 4.8743789,13.883828 c -0.4352666,0.436491 -0.6919969,0.9091 -0.8244768,1.517758 -0.064542,0.296531 -0.064536,0.904426 1.33e-5,1.196479 0.2645846,1.197118 1.1626799,2.100989 2.3275069,2.342476 0.2662711,0.0552 0.2773628,0.05629 0.6087391,0.0598 0.2043896,0.0022 0.3536368,-0.0084 0.5192352,-0.03669 z"
     id="path4" />
</svg>
