<?xml version="1.0" encoding="UTF-8" standalone="no"?>
<svg
   viewBox="0 0 24 24"
   width="24"
   height="24"
   version="1.1"
   id="svg2"
   sodipodi:docname="edit-table-insert-column-right.svg"
   inkscape:version="1.3.2 (091e20ef0f, 2023-11-25, custom)"
   xmlns:inkscape="http://www.inkscape.org/namespaces/inkscape"
   xmlns:sodipodi="http://sodipodi.sourceforge.net/DTD/sodipodi-0.dtd"
   xmlns="http://www.w3.org/2000/svg"
   xmlns:svg="http://www.w3.org/2000/svg">
  <sodipodi:namedview
     id="namedview2"
     pagecolor="#505050"
     bordercolor="#ffffff"
     borderopacity="1"
     inkscape:showpageshadow="0"
     inkscape:pageopacity="0"
     inkscape:pagecheckerboard="1"
     inkscape:deskcolor="#d1d1d1"
     inkscape:zoom="49.333333"
     inkscape:cx="11.989865"
     inkscape:cy="12"
     inkscape:window-width="2560"
     inkscape:window-height="1388"
     inkscape:window-x="2560"
     inkscape:window-y="28"
     inkscape:window-maximized="1"
     inkscape:current-layer="svg2" />
  <defs
     id="defs3051">
    <style
       type="text/css"
       id="current-color-scheme">.ColorScheme-Text{color:#232629;}.ColorScheme-Highlight { color: #3daee9; } </style>
  </defs>
  <g
     transform="translate(1,1)"
     id="g2">
    <path
       style="fill:currentColor;fill-opacity:1;stroke:none"
       d="M 3 3 L 3 4 L 3 19 L 4 19 L 13 19 L 13 18 L 9 18 L 9 16 L 13 16 L 13 15 L 9 15 L 9 13 L 13 13 L 19 13 L 19 12 L 13 12 L 9 12 L 9 10 L 13 10 L 13 9 L 9 9 L 9 7 L 13 7 L 13 6 L 9 6 L 9 5 L 9 4 L 13 4 L 19 4 L 19 3 L 13 3 L 3 3 z M 4 4 L 8 4 L 8 5 L 8 6 L 7 6 L 4 6 L 4 4 z M 4 7 L 7 7 L 8 7 L 8 9 L 4 9 L 4 7 z M 4 10 L 8 10 L 8 12 L 4 12 L 4 10 z M 4 13 L 8 13 L 8 15 L 7 15 L 4 15 L 4 13 z M 14 14 L 14 19 L 19 16.5 L 14 14 z M 4 16 L 7 16 L 8 16 L 8 17.099609 L 8 18 L 4 18 L 4 16 z "
       class="ColorScheme-Text"
       id="path1" />
    <path
       style="fill:currentColor;fill-opacity:1;stroke:none"
       d="M 13 3 L 13 4 L 13 9.2929688 L 13 12 L 13 13 L 19 13 L 19 12 L 19 4 L 19 3 L 13 3 z M 14 4 L 18 4 L 18 4.2929688 L 14 8.2929688 L 14 4 z M 18 5.7070312 L 18 8.2929688 L 14.292969 12 L 14 12 L 14 9.7070312 L 18 5.7070312 z M 18 9.7070312 L 18 12 L 15.707031 12 L 18 9.7070312 z "
       class="ColorScheme-Highlight"
       id="path2" />
  </g>
  <path
     style="fill:#ffffff;stroke:#cccccc;stroke-width:0.0202703"
     d="M 4.0135135,12 V 4.0033784 H 9 13.986486 V 4.5 4.9966216 H 11.989865 9.9932432 V 6 7.0033784 h 1.9966218 1.996621 V 7.5 7.9966216 H 11.989865 9.9932432 V 9 10.003378 h 1.9966218 1.996621 V 10.5 10.996622 H 11.989865 9.9932432 V 12 13.003378 h 1.9966218 1.996621 V 13.5 13.996622 H 11.989865 9.9932432 V 15 16.003378 h 1.9966218 1.996621 V 16.5 16.996622 H 11.989865 9.9932432 V 18 19.003378 h 1.9966218 1.996621 V 19.5 19.996622 H 9 4.0135135 Z M 9,18 V 16.996622 H 6.9932432 4.9864865 V 18 19.003378 H 6.9932432 9 Z M 9,15 V 13.996622 H 6.9932432 4.9864865 V 15 16.003378 H 6.9932432 9 Z M 9,12 V 10.996622 H 6.9932432 4.9864865 V 12 13.003378 H 6.9932432 9 Z M 9,9 V 7.9966216 H 6.9932432 4.9864865 V 9 10.003378 H 6.9932432 9 Z M 9,6 V 4.9966216 H 6.9932432 4.9864865 V 6 7.0033784 H 6.9932432 9 Z"
     id="path3" />
  <path
     style="fill:#ffffff;stroke:#cccccc;stroke-width:0.0202703"
     d="m 15,17.493227 v -2.483125 l 2.478041,1.238722 c 1.362922,0.681297 2.481329,1.241773 2.485349,1.245501 0.0071,0.0066 -4.932949,2.482026 -4.953222,2.482026 -0.0056,0 -0.01017,-1.117406 -0.01017,-2.483124 z"
     id="path4" />
</svg>
