<?xml version="1.0" encoding="UTF-8" standalone="no"?>
<svg
   viewBox="0 0 24 24"
   width="24"
   height="24"
   version="1.1"
   id="svg2"
   sodipodi:docname="font-disable.svg"
   inkscape:version="1.3.2 (091e20ef0f, 2023-11-25, custom)"
   xmlns:inkscape="http://www.inkscape.org/namespaces/inkscape"
   xmlns:sodipodi="http://sodipodi.sourceforge.net/DTD/sodipodi-0.dtd"
   xmlns="http://www.w3.org/2000/svg"
   xmlns:svg="http://www.w3.org/2000/svg">
  <defs
     id="defs2" />
  <sodipodi:namedview
     id="namedview2"
     pagecolor="#505050"
     bordercolor="#ffffff"
     borderopacity="1"
     inkscape:showpageshadow="0"
     inkscape:pageopacity="0"
     inkscape:pagecheckerboard="1"
     inkscape:deskcolor="#d1d1d1"
     inkscape:zoom="49.333333"
     inkscape:cx="11.989865"
     inkscape:cy="12"
     inkscape:window-width="2560"
     inkscape:window-height="1388"
     inkscape:window-x="2560"
     inkscape:window-y="28"
     inkscape:window-maximized="1"
     inkscape:current-layer="svg2" />
  <style
     id="current-color-scheme"
     type="text/css">.ColorScheme-Text{color:#232629;}.ColorScheme-NegativeText { color: #da4453; } </style>
  <g
     transform="translate(1,1)"
     id="g2">
    <path
       class="ColorScheme-Text"
       d="m7.9102 3-4.9102 14h1.6582l1.625-4.4375h5.4336l0.65039 1.7754c0.25714-0.56511 0.64231-1.0626 1.125-1.4531l-3.4024-9.8848h-2.1797zm1.1055 1.9375 2.1797 6.3438h-4.3906z"
       fill="currentColor"
       id="path1" />
    <path
       class="ColorScheme-NegativeText"
       d="m19 16c0-1.662-1.338-3-3-3s-3 1.338-3 3 1.338 3 3 3 3-1.338 3-3zm-1 0c0 0.37162-0.10606 0.7142-0.28125 1.0117l-2.7305-2.7305c0.29752-0.17518 0.64009-0.28125 1.0117-0.28125 1.108 0 2 0.892 2 2zm-0.98828 1.7188c-0.29752 0.17518-0.64009 0.28125-1.0117 0.28125-1.108 0-2-0.892-2-2 0-0.37162 0.10606-0.7142 0.28125-1.0117z"
       fill="currentColor"
       id="path2" />
  </g>
  <path
     style="fill:#ffffff;stroke:#cccccc;stroke-width:0.0202703"
     d="M 4.144031,17.619932 C 4.3197717,17.117322 4.5845227,16.362434 5.7062544,13.165541 5.9703049,12.413007 6.3077957,11.450676 6.4562341,11.027027 6.6046725,10.603378 6.8509441,9.9010135 7.0035043,9.4662162 7.1560646,9.0314189 7.3703953,8.4202703 7.4797948,8.1081081 7.5891945,7.7959459 7.8035526,7.1847973 7.9561461,6.75 8.1087399,6.3152027 8.3247576,5.6994932 8.4361857,5.3817568 8.8237354,4.2766605 8.8950661,4.0741155 8.9091197,4.0388514 c 0.013216,-0.033163 0.084416,-0.035473 1.0931223,-0.035473 h 1.078987 l 0.113236,0.3293919 c 0.06228,0.1811655 0.208862,0.6076013 0.325739,0.9476351 0.116877,0.3400338 0.309164,0.8987218 0.427304,1.2415287 0.435656,1.264138 0.644699,1.871205 0.851022,2.4713915 0.281007,0.8174394 0.567882,1.6510684 0.961439,2.7938364 0.178536,0.518412 0.413112,1.199814 0.52128,1.514226 l 0.19667,0.571658 -0.226046,0.216606 c -0.342319,0.328023 -0.579254,0.638631 -0.781789,1.024879 l -0.102573,0.195613 -0.322149,-0.879807 -0.322149,-0.879807 -2.7245998,0.0051 -2.7246,0.0051 -0.211742,0.577703 c -0.4472023,1.220116 -0.7048715,1.923775 -0.9909267,2.706081 -0.1630629,0.445946 -0.3245677,0.886064 -0.3588994,0.97804 l -0.062422,0.16723 H 4.8323527 4.0146819 Z M 12.19171,12.248311 C 12.179956,12.209254 11.41786,9.9876077 10.321529,6.796397 10.157942,6.3202263 10.017799,5.9371182 10.010101,5.9450457 10.002403,5.9529733 9.9186495,6.1829392 9.823982,6.4560811 9.7293148,6.729223 9.5180558,7.3358108 9.3545179,7.8040541 9.1909798,8.2722973 8.9812143,8.8743243 8.8883724,9.1418919 8.7955305,9.4094595 8.5858435,10.011486 8.4224013,10.47973 7.960695,11.802466 7.8040541,12.257631 7.8040541,12.276515 c 0,0.0096 0.988731,0.0174 2.2006899,0.0174 h 2.200691 z"
     id="path3" />
</svg>
