<?xml version="1.0" encoding="UTF-8" standalone="no"?>
<svg
   viewBox="0 0 24 24"
   width="24"
   height="24"
   version="1.1"
   id="svg2"
   sodipodi:docname="gnumeric-format-precision-increase.svg"
   inkscape:version="1.3.2 (091e20ef0f, 2023-11-25, custom)"
   xmlns:inkscape="http://www.inkscape.org/namespaces/inkscape"
   xmlns:sodipodi="http://sodipodi.sourceforge.net/DTD/sodipodi-0.dtd"
   xmlns="http://www.w3.org/2000/svg"
   xmlns:svg="http://www.w3.org/2000/svg">
  <sodipodi:namedview
     id="namedview2"
     pagecolor="#505050"
     bordercolor="#ffffff"
     borderopacity="1"
     inkscape:showpageshadow="0"
     inkscape:pageopacity="0"
     inkscape:pagecheckerboard="1"
     inkscape:deskcolor="#d1d1d1"
     inkscape:zoom="49.333333"
     inkscape:cx="11.989865"
     inkscape:cy="12"
     inkscape:window-width="2560"
     inkscape:window-height="1388"
     inkscape:window-x="2560"
     inkscape:window-y="28"
     inkscape:window-maximized="1"
     inkscape:current-layer="svg2" />
  <defs
     id="defs3051">
    <style
       type="text/css"
       id="current-color-scheme">.ColorScheme-Text{color:#232629;}.ColorScheme-Highlight { color: #3daee9; } </style>
  </defs>
  <g
     transform="translate(1,1)"
     id="g2">
    <path
       style="fill:currentColor;fill-opacity:1;stroke:none"
       d="M 7.5 2 C 5.57 2 4 3.8 4 6 L 4 9 C 4 11.2 5.57 13 7.5 13 C 9.4 13 11 11.2 11 9 L 11 6 C 11 3.8 9.4 2 7.5 2 z M 15.5 2 C 13.57 2 12 3.8 12 6 L 12 9 C 12 11.2 13.57 13 15.5 13 C 17.4 13 19 11.2 19 9 L 19 6 C 19 3.8 17.4 2 15.5 2 z M 7.5 3 C 8.9 3 10 4.3432 10 6 L 10 9 C 10 10.66 8.9 12 7.5 12 C 6.1 12 5 10.66 5 9 L 5 6 C 5 4.3432 6.1 3 7.5 3 z M 15.5 3 C 16.9 3 18 4.3431 18 6 L 18 9 C 18 10.66 16.9 12 15.5 12 C 14.1 12 13 10.66 13 9 L 13 6 C 13 4.3431 14.1 3 15.5 3 z M 3 12 L 3 13 L 4 13 L 4 12 L 3 12 z "
       class="ColorScheme-Text"
       id="path1" />
    <path
       style="fill:currentColor;fill-opacity:1;stroke:none"
       d="M 15 14 L 15 16 L 13 16 L 13 17 L 15 17 L 15 19 L 16 19 L 16 17 L 18 17 L 18 16 L 16 16 L 16 14 L 15 14 z "
       class="ColorScheme-Highlight"
       id="path2" />
  </g>
  <path
     style="fill:#ffffff;stroke:#cccccc;stroke-width:0.0202703"
     d="M 8.2145578,13.97493 C 7.0725215,13.864502 6.0453951,13.114873 5.4751309,11.975612 5.2622006,11.550225 5.1314872,11.133877 5.053225,10.631757 5.020215,10.419973 5.016892,10.225275 5.016892,8.5033784 c 0,-2.0242016 -5.52e-4,-2.0110482 0.1045119,-2.4901679 0.329265,-1.5015363 1.4175407,-2.6527388 2.7840016,-2.9449795 0.307106,-0.06568 0.8689318,-0.06564 1.1756757,8.42e-5 1.1389488,0.244034 2.0588968,1.0437567 2.5679588,2.2323605 0.195359,0.4561398 0.299595,0.9347769 0.333051,1.5293144 0.02873,0.5104851 0.01175,3.4839449 -0.02119,3.7105509 -0.0451,0.310313 -0.105599,0.569305 -0.198244,0.848685 -0.47794,1.44127 -1.655775,2.460854 -2.9868406,2.585535 -0.2554145,0.02392 -0.3154009,0.02394 -0.5612625,1.69e-4 z M 9.0202703,12.945922 C 9.446868,12.832901 9.80985,12.618559 10.132256,12.28929 c 0.454359,-0.464031 0.749322,-1.098163 0.844957,-1.816548 0.0229,-0.172002 0.02883,-0.5710908 0.02915,-1.9597602 3.94e-4,-1.7376569 -0.005,-1.9033648 -0.073,-2.2494683 C 10.852911,5.8541256 10.643291,5.3654439 10.406086,5.0342884 9.7017162,4.0509379 8.5430953,3.7251177 7.5304054,4.2256076 6.796751,4.5881929 6.2772394,5.3143804 6.0579943,6.2837838 6.012443,6.4851914 6.012106,6.4986608 6.0052554,8.3918919 c -0.00599,1.6555351 -0.00269,1.9346451 0.025182,2.1283781 0.055353,0.384774 0.157276,0.71298 0.3257761,1.049046 0.3754207,0.748762 0.9960946,1.248292 1.7443027,1.403848 0.2012126,0.04183 0.7166554,0.02657 0.919754,-0.02724 z"
     id="path3" />
  <path
     style="fill:#ffffff;stroke:#cccccc;stroke-width:0.0202703"
     d="M 4.0135135,13.5 V 13.003378 H 4.5 4.9864865 V 13.5 13.996622 H 4.5 4.0135135 Z"
     id="path4" />
  <path
     style="fill:#ffffff;stroke:#cccccc;stroke-width:0.0202703"
     d="m 16.187274,13.975035 c -1.636735,-0.168928 -2.963935,-1.656768 -3.154085,-3.535846 -0.01543,-0.152518 -0.02017,-0.8122312 -0.015,-2.0878376 0.0082,-2.0291889 0.0046,-1.9592431 0.128356,-2.4476036 0.335143,-1.3221316 1.249389,-2.365044 2.40075,-2.7386203 0.34737,-0.1127093 0.567122,-0.1450788 0.972973,-0.1433196 0.531755,0.0023 0.859279,0.080917 1.347973,0.32354 1.145884,0.5688989 1.943611,1.7848082 2.096868,3.196083 0.02896,0.2667095 0.02891,3.6579221 -6.6e-5,3.9238951 -0.145785,1.338357 -0.881523,2.51477 -1.950719,3.119115 -0.543477,0.307191 -1.224501,0.452783 -1.827052,0.390594 z m 0.880294,-1.041231 c 0.910717,-0.250332 1.644528,-1.113277 1.863076,-2.190937 0.07873,-0.388197 0.08582,-0.611655 0.07684,-2.4219211 C 18.998284,6.471463 19.000384,6.5109799 18.89356,6.0963237 18.679348,5.2644624 18.153743,4.5687238 17.483108,4.22932 16.765319,3.8660516 15.923745,3.9270481 15.237807,4.3920574 c -0.182901,0.123992 -0.498557,0.4381092 -0.639815,0.6366958 -0.32604,0.4583613 -0.533145,1.0336977 -0.590416,1.6401657 -0.02656,0.2812295 -0.02735,3.3910921 -9.37e-4,3.6625901 0.130727,1.3436 0.946666,2.391549 2.047676,2.62993 0.27874,0.06035 0.73881,0.0478 1.013253,-0.02764 z"
     id="path5" />
</svg>
