<?xml version="1.0" encoding="UTF-8" standalone="no"?>
<svg
   width="24"
   height="24"
   viewBox="0 0 24 24"
   version="1.1"
   id="svg2"
   sodipodi:docname="notification-disabled.svg"
   inkscape:version="1.3.2 (091e20ef0f, 2023-11-25, custom)"
   xmlns:inkscape="http://www.inkscape.org/namespaces/inkscape"
   xmlns:sodipodi="http://sodipodi.sourceforge.net/DTD/sodipodi-0.dtd"
   xmlns="http://www.w3.org/2000/svg"
   xmlns:svg="http://www.w3.org/2000/svg">
  <defs
     id="defs2" />
  <sodipodi:namedview
     id="namedview2"
     pagecolor="#505050"
     bordercolor="#ffffff"
     borderopacity="1"
     inkscape:showpageshadow="0"
     inkscape:pageopacity="0"
     inkscape:pagecheckerboard="1"
     inkscape:deskcolor="#d1d1d1"
     inkscape:zoom="49.333333"
     inkscape:cx="11.989865"
     inkscape:cy="12"
     inkscape:window-width="2560"
     inkscape:window-height="1388"
     inkscape:window-x="2560"
     inkscape:window-y="28"
     inkscape:window-maximized="1"
     inkscape:current-layer="svg2" />
  <style
     type="text/css"
     id="current-color-scheme">.ColorScheme-Text{color:#232629;}.ColorScheme-ButtonFocus{color:#3daee9;}.ColorScheme-NegativeText { color: #da4453; } </style>
  <g
     transform="translate(1,1)"
     id="g2">
    <g
       id="notification-disabled"
       transform="translate(-1 -41) translate(0,40)">
      <path
         d="m1 1h22v22h-22z"
         fill="none"
         id="path1" />
      <path
         id="strikethrough"
         d="m4 4.707031 15.292969 15.292969.707031-.707031-15.2929688-15.292969z"
         fill="#da4453" />
      <path
         d="m12 4a1 1 0 0 0-1 1 1 1 0 0 0 0.009766 0.128906 3.9999999 3.9999999 0 0 0-2.2402348 1.519532l0.7167969 0.716796a3 3 0 0 1 2.5136719-1.365234 3 3 0 0 1 3 3c0 3 0.585938 4 2.585938 6h-0.464844l1 1h0.878906v-1c-2-2-3-3-3-6a3.9999999 3.9999999 0 0 0-3.009766-3.871094 1 1 0 0 0 0.009766-0.128906 1 1 0 0 0-1-1zm-4.0527344 6.068359c-0.2253625 2.204726-1.2061347 3.19051-2.9472656 4.931641v1h8.878906l-1-1h-6.4648435c1.4796441-1.479644 2.1821771-2.415859 2.4492187-4.015625zm2.3222656 6.931641a2 2 0 0 0-0.2695312 1 2 2 0 0 0 2 2 2 2 0 0 0 2-2 2 2 0 0 0-0.271484-1z"
         class="ColorScheme-Text"
         fill="currentColor"
         fill-rule="evenodd"
         id="path2" />
    </g>
  </g>
  <path
     style="fill:#ffffff;stroke:#cccccc;stroke-width:0.0202703"
     d="m 17.625703,15.497325 -0.485467,-0.485784 0.227036,-0.0058 L 17.594308,15 17.196512,14.584459 C 16.713309,14.079701 16.479411,13.810707 16.203744,13.442723 15.512895,12.520519 15.191578,11.663235 15.072233,10.423819 15.038348,10.071908 15.025838,9.8234197 15.008716,9.1621622 14.990531,8.4598307 14.914975,8.1088664 14.681828,7.6437385 14.324539,6.9309474 13.671759,6.374443 12.912162,6.1350736 11.682727,5.7476457 10.368575,6.1694864 9.5924159,7.2007068 L 9.4795144,7.3507101 9.1297112,7.0013353 8.779908,6.6519604 8.8674378,6.5382089 C 9.3574237,5.9014355 10.187987,5.3481271 10.936387,5.1599062 c 0.08036,-0.020209 0.08153,-0.021833 0.0739,-0.1018667 -0.0043,-0.044731 0.0028,-0.1419824 0.01572,-0.216113 0.06257,-0.3593074 0.313541,-0.6552809 0.661443,-0.78005 0.167685,-0.060137 0.457421,-0.060137 0.625106,0 0.345903,0.1240523 0.601412,0.4227417 0.660304,0.7718947 0.01273,0.07549 0.02025,0.1726593 0.0167,0.2159311 l -0.0065,0.078676 0.222973,0.07331 c 1.064429,0.3499661 1.907628,1.082779 2.381261,2.0695222 0.284477,0.592666 0.405645,1.1530013 0.406079,1.8778968 2.07e-4,0.344563 0.02702,0.7580678 0.07247,1.1177847 0.119819,0.948165 0.398837,1.718217 0.88756,2.449543 0.352169,0.526986 0.698976,0.929572 1.486763,1.725887 L 18.991924,15 l 6.6e-4,0.491554 6.59e-4,0.491554 H 18.552207 18.11117 Z"
     id="path3" />
  <path
     style="fill:#ffffff;stroke:#cccccc;stroke-width:0.0202703"
     d="M 5.0067568,15.492742 V 15.002376 L 5.509406,14.494431 c 0.5861481,-0.592323 0.8526304,-0.882546 1.1505722,-1.253076 0.7526697,-0.936042 1.1392673,-1.850731 1.2808613,-3.030512 l 0.015242,-0.126995 0.4501295,0.451319 0.4501295,0.451319 -0.061334,0.293919 C 8.7136269,11.670381 8.5623237,12.118084 8.3942562,12.466216 8.0518597,13.175452 7.648365,13.703872 6.65297,14.746622 L 6.4110983,15 l 3.2355491,0.0051 3.2355486,0.0051 0.486109,0.486425 0.486108,0.486425 H 9.4305849 5.0067568 Z"
     id="path4" />
  <path
     style="fill:#ffffff;stroke:#cccccc;stroke-width:0.0202703"
     d="M 11.756757,19.974922 C 10.96182,19.875022 10.309835,19.310979 10.0831,18.527027 10.01159,18.27976 9.994403,17.913112 10.04242,17.658924 c 0.03665,-0.194036 0.129854,-0.470979 0.193898,-0.576154 l 0.04012,-0.06588 h 1.721618 1.721617 l 0.03966,0.06588 c 0.05716,0.09495 0.140236,0.31345 0.180309,0.474255 0.051,0.204662 0.04987,0.695617 -0.0021,0.898601 -0.211901,0.828069 -0.87308,1.41716 -1.704457,1.518618 -0.203098,0.02479 -0.28362,0.0249 -0.476351,6.78e-4 z"
     id="path5" />
</svg>
