<?xml version="1.0" encoding="UTF-8" standalone="no"?>
<svg
   viewBox="0 0 24 24"
   width="24"
   height="24"
   version="1.1"
   id="svg1"
   sodipodi:docname="view-calendar-wedding-anniversary.svg"
   inkscape:version="1.3.2 (091e20ef0f, 2023-11-25, custom)"
   xmlns:inkscape="http://www.inkscape.org/namespaces/inkscape"
   xmlns:sodipodi="http://sodipodi.sourceforge.net/DTD/sodipodi-0.dtd"
   xmlns="http://www.w3.org/2000/svg"
   xmlns:svg="http://www.w3.org/2000/svg">
  <sodipodi:namedview
     id="namedview1"
     pagecolor="#505050"
     bordercolor="#ffffff"
     borderopacity="1"
     inkscape:showpageshadow="0"
     inkscape:pageopacity="0"
     inkscape:pagecheckerboard="1"
     inkscape:deskcolor="#d1d1d1"
     inkscape:zoom="49.333333"
     inkscape:cx="11.989865"
     inkscape:cy="12"
     inkscape:window-width="2560"
     inkscape:window-height="1388"
     inkscape:window-x="2560"
     inkscape:window-y="28"
     inkscape:window-maximized="1"
     inkscape:current-layer="svg1" />
  <defs
     id="defs3051">
    <style
       type="text/css"
       id="current-color-scheme">.ColorScheme-Text{color:#232629;}.ColorScheme-Highlight { color: #3daee9; } </style>
  </defs>
  <g
     transform="translate(1,1)"
     id="g1">
    <path
       style="fill:currentColor;fill-opacity:1;stroke:none"
       d="M 6 3 C 6 3 5 2.99997 5 4 L 3 4 L 3 7 L 3 18 L 3 19 L 19 19 L 19 18 L 19 7 L 19 4 L 17 4 C 17 2.99997 16 3 16 3 L 13 3 C 13 3 12 2.99997 12 4 L 10 4 C 10 2.99997 9 3 9 3 L 6 3 z M 6 4 L 9 4 L 9 5 L 6 5 L 6 4 z M 13 4 L 16 4 L 16 5 L 13 5 L 13 4 z M 4 7 L 18 7 L 18 18 L 4 18 L 4 7 z M 9.5 9 C 7.561 9 6 10.561 6 12.5 C 6 14.439 7.561 16 9.5 16 C 10.039612 16 10.544436 15.870591 11 15.654297 C 11.455564 15.870591 11.960388 16 12.5 16 C 14.439 16 16 14.439 16 12.5 C 16 10.561 14.439 9 12.5 9 C 11.960388 9 11.455564 9.1294093 11 9.3457031 C 10.544436 9.1294093 10.039612 9 9.5 9 z M 9.5 10 C 9.6718015 10 9.8400737 10.018081 10.001953 10.050781 C 9.3837344 10.681388 9 11.543049 9 12.5 C 9 13.456951 9.3837344 14.318613 10.001953 14.949219 C 9.8400737 14.981919 9.6718015 15 9.5 15 C 8.115 15 7 13.885 7 12.5 C 7 11.115 8.115 10 9.5 10 z M 12.5 10 C 13.885 10 15 11.115 15 12.5 C 15 13.885 13.885 15 12.5 15 C 12.328199 15 12.159927 14.981919 11.998047 14.949219 C 12.616266 14.318612 13 13.456951 13 12.5 C 13 11.543049 12.616266 10.681387 11.998047 10.050781 C 12.159927 10.018081 12.328199 10 12.5 10 z M 11 10.507812 C 11.604994 10.963266 12 11.681048 12 12.5 C 12 13.318952 11.604994 14.036735 11 14.492188 C 10.395006 14.036733 10 13.318952 10 12.5 C 10 11.681048 10.395006 10.963265 11 10.507812 z "
       class="ColorScheme-Text"
       id="path1" />
  </g>
  <path
     style="fill:#ffffff;stroke:#cccccc;stroke-width:0.0202703"
     d="M 10.170978,16.974071 C 8.7957583,16.841428 7.610003,15.898282 7.1880615,14.601469 7.0563759,14.196741 7.0236876,13.977353 7.0239452,13.5 c 1.954e-4,-0.362067 0.00715,-0.460005 0.046512,-0.655415 0.2161235,-1.072812 0.8714937,-1.947284 1.8327516,-2.44547 0.8935955,-0.4631202 1.9292962,-0.5130738 2.8694462,-0.138399 l 0.228735,0.09116 0.207076,-0.08241 c 0.686183,-0.2730851 1.352549,-0.3286594 2.061804,-0.171953 1.587236,0.350693 2.718205,1.770005 2.715845,3.408254 -0.002,1.355191 -0.763968,2.56093 -1.987462,3.144767 -0.886714,0.42313 -1.884542,0.449223 -2.811153,0.07351 L 12,16.648016 l -0.177365,0.07112 c -0.573821,0.230093 -1.087381,0.309361 -1.651657,0.254935 z m 0.693374,-0.992292 c 0.07218,-0.01171 0.134959,-0.02501 0.1395,-0.02955 0.0045,-0.0045 -0.03711,-0.0579 -0.09257,-0.118572 -0.367379,-0.401972 -0.652778,-0.930434 -0.787532,-1.458246 -0.2629587,-1.029965 -0.05267,-2.107522 0.575693,-2.949919 0.06106,-0.08186 0.156387,-0.198475 0.211839,-0.259149 0.05545,-0.06067 0.09711,-0.114031 0.09257,-0.118572 -0.02312,-0.02312 -0.298029,-0.05086 -0.505348,-0.051 -1.1876187,-7.75e-4 -2.191437,0.808012 -2.4527379,1.976198 -0.068207,0.304929 -0.06549,0.767437 0.00632,1.076023 0.2328092,1.000437 1.0075638,1.740304 2.0121029,1.921495 0.193862,0.03497 0.617386,0.04094 0.800163,0.01129 z m 3.053601,-0.0095 c 0.540475,-0.09328 0.968703,-0.316378 1.356453,-0.706693 0.489323,-0.49256 0.726131,-1.068368 0.726131,-1.765617 0,-0.430543 -0.07771,-0.764352 -0.264132,-1.134587 -0.128615,-0.255432 -0.246338,-0.415495 -0.471372,-0.640907 -0.479678,-0.480485 -1.07992,-0.728177 -1.763537,-0.727731 -0.21172,1.38e-4 -0.482341,0.02799 -0.506475,0.05212 -0.0052,0.0052 0.02718,0.04796 0.07187,0.09511 0.375825,0.396516 0.673555,0.948071 0.818758,1.516774 0.283459,1.110201 -0.04038,2.373979 -0.818758,3.195214 -0.04469,0.04715 -0.07667,0.09031 -0.07106,0.09591 0.05184,0.05184 0.661807,0.06533 0.92213,0.02041 z m -1.769966,-0.590495 c 0.173648,-0.145942 0.404428,-0.423757 0.520421,-0.626485 0.5289,-0.924399 0.432571,-2.044494 -0.24547,-2.854278 C 12.274865,11.724208 12.044924,11.513514 12,11.513514 c -0.04564,0 -0.276983,0.21168 -0.423602,0.387603 -0.816174,0.979299 -0.773368,2.370032 0.102067,3.316062 0.09007,0.09733 0.299229,0.279443 0.320949,0.279443 0.0066,0 0.07344,-0.05166 0.148573,-0.114807 z"
     id="path2" />
  <path
     style="fill:#ffffff;stroke:#cccccc;stroke-width:0.0202703"
     d="M 4.0135135,12.506757 V 5.0168919 h 0.9910746 c 1.1006199,0 1.0151772,0.011644 1.0161778,-0.1384822 0.00201,-0.301712 0.2149445,-0.615319 0.5122579,-0.7544487 0.2522623,-0.1180478 0.2937381,-0.1205826 1.9729923,-0.1205826 1.6879459,0 1.7100679,0.00142 1.9737139,0.1267172 0.300796,0.1429528 0.506756,0.4708234 0.506756,0.8067129 v 0.080083 H 12 13.013514 v -0.080083 c 0,-0.3351496 0.195685,-0.6529329 0.491237,-0.7977456 0.275745,-0.1351076 0.284203,-0.1356845 1.989233,-0.1356845 1.70076,0 1.728426,0.00182 1.990656,0.1308498 0.295327,0.1453174 0.492581,0.4421114 0.494594,0.7441815 10e-4,0.1501261 -0.08444,0.1384822 1.016178,0.1384822 h 0.991074 v 7.4898651 7.489865 H 12 4.0135135 Z M 19.013514,13.5 V 7.9966216 H 12 4.9864865 V 13.5 19.003378 H 12 19.013514 Z m -9,-7.9966216 V 4.9966216 H 8.5033784 6.9932432 v 0.5067568 0.5067567 h 1.5101352 1.5101356 z m 6.993243,0 V 4.9966216 h -1.510135 -1.510136 v 0.5067568 0.5067567 h 1.510136 1.510135 z"
     id="path3" />
</svg>
