<?xml version="1.0" encoding="UTF-8" standalone="no"?>
<svg
   viewBox="0 0 24 24"
   width="24"
   height="24"
   version="1.1"
   id="svg2"
   sodipodi:docname="window-unpin.svg"
   inkscape:version="1.3.2 (091e20ef0f, 2023-11-25, custom)"
   xmlns:inkscape="http://www.inkscape.org/namespaces/inkscape"
   xmlns:sodipodi="http://sodipodi.sourceforge.net/DTD/sodipodi-0.dtd"
   xmlns="http://www.w3.org/2000/svg"
   xmlns:svg="http://www.w3.org/2000/svg">
  <defs
     id="defs2" />
  <sodipodi:namedview
     id="namedview2"
     pagecolor="#505050"
     bordercolor="#ffffff"
     borderopacity="1"
     inkscape:showpageshadow="0"
     inkscape:pageopacity="0"
     inkscape:pagecheckerboard="1"
     inkscape:deskcolor="#d1d1d1"
     inkscape:zoom="49.333333"
     inkscape:cx="11.989865"
     inkscape:cy="12"
     inkscape:window-width="2560"
     inkscape:window-height="1388"
     inkscape:window-x="2560"
     inkscape:window-y="28"
     inkscape:window-maximized="1"
     inkscape:current-layer="svg2" />
  <style
     type="text/css"
     id="current-color-scheme">.ColorScheme-Text{color:#232629;}.ColorScheme-NegativeText { color: #da4453; } </style>
  <g
     transform="translate(1,1)"
     id="g2">
    <path
       d="M15 3l-4.94 4.94 4 4L19 7zM5.707 8L5 8.707 8.793 12.5 4 17.293l.707.707L9.5 13.207 13.293 17l.707-.707z"
       class="ColorScheme-Text"
       fill="currentColor"
       id="path1" />
    <path
       d="M3.707 3L3 3.707 18.293 19l.707-.707z"
       class="ColorScheme-NegativeText"
       fill="currentColor"
       id="path2" />
  </g>
  <path
     style="fill:#ffffff;stroke:#cccccc;stroke-width:0.0202703"
     d="m 13.059087,10.930708 -1.991512,-1.9915885 2.46283,-2.4627681 2.462831,-2.462768 1.996629,1.9965518 1.996629,1.9965518 -2.457743,2.457805 c -1.351758,1.351793 -2.462335,2.457805 -2.467947,2.457805 -0.0056,0 -0.906386,-0.896215 -2.001717,-1.991589 z"
     id="path3" />
  <path
     style="fill:#ffffff;stroke:#cccccc;stroke-width:0.0202703"
     d="m 5.3614866,18.638514 -0.3443388,-0.344787 2.3866963,-2.38676 c 1.3126831,-1.312719 2.3866964,-2.39585 2.3866964,-2.406959 0,-0.01111 -0.8483519,-0.868586 -1.8852267,-1.905505 L 6.020087,9.7091953 6.3648758,9.364854 6.7096646,9.0205127 10.84467,13.155481 l 4.135005,4.134968 -0.344584,0.344583 -0.344583,0.344584 -1.895258,-1.895177 -1.895259,-1.895177 -2.3970826,2.397019 -2.397083,2.397019 z"
     id="path4" />
</svg>
