<?xml version="1.0" encoding="UTF-8" standalone="no"?>
<svg
   width="32"
   height="32"
   version="1.1"
   id="svg1"
   sodipodi:docname="drive-harddisk-symbolic.svg"
   inkscape:version="1.3.2 (091e20ef0f, 2023-11-25, custom)"
   xmlns:inkscape="http://www.inkscape.org/namespaces/inkscape"
   xmlns:sodipodi="http://sodipodi.sourceforge.net/DTD/sodipodi-0.dtd"
   xmlns="http://www.w3.org/2000/svg"
   xmlns:svg="http://www.w3.org/2000/svg">
  <defs
     id="defs1" />
  <sodipodi:namedview
     id="namedview1"
     pagecolor="#505050"
     bordercolor="#ffffff"
     borderopacity="1"
     inkscape:showpageshadow="0"
     inkscape:pageopacity="0"
     inkscape:pagecheckerboard="1"
     inkscape:deskcolor="#d1d1d1"
     inkscape:zoom="37"
     inkscape:cx="15.986486"
     inkscape:cy="16"
     inkscape:window-width="2560"
     inkscape:window-height="1388"
     inkscape:window-x="2560"
     inkscape:window-y="28"
     inkscape:window-maximized="1"
     inkscape:current-layer="svg1" />
  <style
     type="text/css"
     id="current-color-scheme">
        .ColorScheme-Text {
            color:#232629;
        }
    </style>
  <g
     id="drive"
     transform="translate(-22,0)">
    <path
       id="path14"
       d="m22 0v32h32v-32z"
       fill="none" />
    <path
       id="path927"
       d="m29 4v24h18v-24zm5 1h8c2.209139 0 4 1.790861 4 4v3.054688c-1.162442.237281-1.998017 1.258902-2 2.445312.000129 1.187878.836122 2.211643 2 2.449219v4.050781l-4 4h-8l-4-4v-4.054688c1.162442-.237281 1.998017-1.258902 2-2.445312-.000129-1.187878-.836122-2.211643-2-2.449219v-3.050781c0-2.209139 1.790861-4 4-4zm-2 21h7v1h-7zm9 0h3v1h-3z"
       class="ColorScheme-Text"
       fill="currentColor" />
  </g>
  <path
     style="fill:#ffffff;stroke:#cccccc;stroke-width:0.027027"
     d="M 7,16 V 4.0135135 h 9 9 V 16 27.986486 H 16 7 Z M 17,26.5 V 25.986486 H 13.5 10 V 26.5 27.013514 h 3.5 3.5 z m 5,0 V 25.986486 H 20.5 19 V 26.5 27.013514 H 20.5 22 Z M 22.0067,23.020339 24,21.027164 v -2.043355 -2.043354 l -0.182432,-0.04935 c -0.39203,-0.106045 -0.885276,-0.415122 -1.166115,-0.730709 -0.577107,-0.648511 -0.773019,-1.537355 -0.526815,-2.390127 0.05045,-0.174745 0.218046,-0.518884 0.339902,-0.697955 0.137937,-0.202702 0.452362,-0.501507 0.683666,-0.649702 0.212438,-0.136108 0.516305,-0.271242 0.736929,-0.327723 L 24,12.065484 V 10.339482 C 24,8.7509851 23.995801,8.5890424 23.947287,8.3067397 23.733511,7.0627562 22.923348,5.9746591 21.797297,5.4191744 21.43669,5.2412855 21.189211,5.1534896 20.793312,5.0630003 l -0.266285,-0.060864 -4.324324,-0.00949 c -2.940909,-0.00645 -4.415291,-2.418e-4 -4.608669,0.01941 -0.552698,0.056171 -1.059822,0.215787 -1.551605,0.4883687 C 9.1980806,5.9684243 8.5314641,6.7646684 8.2099934,7.6891892 8.0120943,8.2583292 8.0184153,8.1794519 8.0072929,10.21859 l -0.010037,1.840212 0.1790449,0.04847 c 0.4001377,0.108312 0.8433301,0.380253 1.1376589,0.698063 0.4382166,0.473176 0.6640188,1.049455 0.6640188,1.69467 0,0.609608 -0.2039867,1.160622 -0.598208,1.615898 -0.3118005,0.360089 -0.6929191,0.609968 -1.1432836,0.74959 L 8,16.938803 v 2.044044 2.044044 l 1.9931749,1.993311 1.9931741,1.993312 h 4.013515 4.013514 z"
     id="path1" />
</svg>
