<?xml version="1.0" encoding="UTF-8" standalone="no"?>
<svg
   width="32"
   height="32"
   version="1.1"
   id="svg8"
   sodipodi:docname="input-keyboard-symbolic.svg"
   inkscape:version="1.3.2 (091e20ef0f, 2023-11-25, custom)"
   xmlns:inkscape="http://www.inkscape.org/namespaces/inkscape"
   xmlns:sodipodi="http://sodipodi.sourceforge.net/DTD/sodipodi-0.dtd"
   xmlns="http://www.w3.org/2000/svg"
   xmlns:svg="http://www.w3.org/2000/svg">
  <defs
     id="defs12" />
  <sodipodi:namedview
     id="namedview10"
     pagecolor="#ffffff"
     bordercolor="#000000"
     borderopacity="0.25"
     inkscape:showpageshadow="2"
     inkscape:pageopacity="0.0"
     inkscape:pagecheckerboard="0"
     inkscape:deskcolor="#d1d1d1"
     showgrid="false"
     inkscape:zoom="24.15625"
     inkscape:cx="13.785252"
     inkscape:cy="15.979301"
     inkscape:window-width="2560"
     inkscape:window-height="1388"
     inkscape:window-x="2560"
     inkscape:window-y="28"
     inkscape:window-maximized="1"
     inkscape:current-layer="svg8" />
  <style
     type="text/css"
     id="current-color-scheme">.ColorScheme-Text {
        color:#31363b;
      }
      .ColorScheme-Background {
        color:#eff0f1;
      }
      .ColorScheme-Highlight {
        color:#3daee9;
      }
      .ColorScheme-ViewText {
        color:#31363b;
      }
      .ColorScheme-ViewBackground {
        color:#fcfcfc;
      }
      .ColorScheme-ViewHover {
        color:#93cee9;
      }
      .ColorScheme-ViewFocus{
        color:#3daee9;
      }
      .ColorScheme-ButtonText {
        color:#31363b;
      }
      .ColorScheme-ButtonBackground {
        color:#eff0f1;
      }
      .ColorScheme-ButtonHover {
        color:#93cee9;
      }
      .ColorScheme-ButtonFocus{
        color:#3daee9;
      }</style>
  <g
     id="input-keyboard"
     transform="matrix(1.4545455,0,0,1.4545455,0,2.5532709e-6)">
    <rect
       width="22"
       height="22"
       fill="none"
       id="rect3"
       x="0"
       y="0" />
    <path
       class="ColorScheme-Text"
       transform="matrix(0.68749998,0,0,0.68749998,-15.124999,22.000003)"
       d="m 47,-28 c 0,0.839286 -0.09344,1.439871 -0.248047,1.845703 -0.154602,0.405832 -0.347892,0.621232 -0.628906,0.785156 C 45.561021,-25.041291 44.5,-25 43,-25 c -1.5,0 -2.935631,-0.0273 -4.099609,0.554688 -0.58199,0.290994 -1.080576,0.752947 -1.408203,1.408203 C 37.21931,-22.491354 37.067093,-21.815455 37.021484,-21 H 25 V -4 H 51 V -21 H 38.021484 c 0.04382,-0.685454 0.170932,-1.207097 0.361328,-1.587891 0.234873,-0.469744 0.548787,-0.757791 0.966797,-0.966797 C 40.185631,-23.972698 41.5,-24 43,-24 c 1.5,0 2.688979,0.04129 3.626953,-0.505859 0.468986,-0.273576 0.838197,-0.714426 1.058594,-1.292969 C 47.905944,-26.377371 48,-27.089286 48,-28 Z m -21,8 h 24 v 2 H 26 Z m 0,3 H 50 V -5 H 26 Z m 1,2 v 2 h 1 v -2 z m 2,0 v 2 h 2 v -2 z m 3,0 v 2 h 2 v -2 z m 3,0 v 2 h 2 v -2 z m 3,0 v 2 h 2 v -2 z m 3,0 v 2 h 2 v -2 z m 3,0 v 2 h 2 v -2 z m 3,0 v 2 h 2 v -2 z m -20,3 v 2 h 3 v -2 z m 4,0 v 2 h 2 v -2 z m 3,0 v 2 h 2 v -2 z m 3,0 v 2 h 2 v -2 z m 3,0 v 2 h 2 v -2 z m 3,0 v 2 h 2 v -2 z m 3,0 v 2 h 3 v -2 z m -19,3 v 2 h 2 v -2 z m 3,0 v 2 h 2 v -2 z m 3,0 v 2 h 10 v -2 z m 11,0 v 2 h 2 v -2 z m 3,0 v 2 h 2 v -2 z"
       fill="currentColor"
       id="path5" />
  </g>
  <path
     style="fill:#ffffff;stroke:#cccccc;stroke-width:0.0413972"
     d="m 3.0219922,19.49806 v -8.465718 h 6.0007117 6.0007111 l 0.02001,-0.134541 c 0.011,-0.074 0.04024,-0.295744 0.06497,-0.49277 0.133212,-1.0613945 0.556285,-1.9076984 1.223791,-2.4480373 0.311956,-0.2525253 0.886065,-0.5362625 1.352933,-0.66865 0.687345,-0.1949072 1.160668,-0.2350617 3.22045,-0.2732083 1.058732,-0.019607 2.064683,-0.055039 2.235446,-0.078736 0.397507,-0.055164 0.838362,-0.188353 1.029803,-0.3111186 0.515945,-0.330861 0.776037,-0.9891148 0.822627,-2.0819427 l 0.02162,-0.5071151 h 0.486596 0.486596 l -0.01813,0.3622251 c -0.067,1.3383177 -0.331848,2.1437716 -0.886228,2.6951809 -0.357022,0.3551101 -0.739547,0.5613699 -1.309651,0.706173 -0.500277,0.1270674 -1.080085,0.1690824 -2.345248,0.169945 -2.985304,0.00204 -3.981016,0.1885359 -4.668483,0.8744243 -0.399221,0.3983035 -0.666706,1.0782278 -0.725599,1.8444117 l -0.02642,0.343759 h 6.484762 6.484762 v 8.465718 8.465717 H 16 3.0219922 Z M 28.025873,20.988357 V 14.965071 H 16 3.9741268 v 6.023286 6.023286 H 16 28.025873 Z m 0,-7.989651 v -1.01423 H 16 3.9741268 v 1.01423 1.014231 H 16 28.025873 Z"
     id="path1" />
  <path
     style="fill:#ffffff;stroke:#cccccc;stroke-width:0.0413972"
     d="m 13.040103,18.007762 v -0.972833 h 0.972834 0.972833 v 0.972833 0.972833 h -0.972833 -0.972834 z"
     id="path2" />
  <path
     style="fill:#ffffff;stroke:#cccccc;stroke-width:0.0413972"
     d="m 10.018111,18.007762 v -0.972833 h 0.972833 0.972833 v 0.972833 0.972833 h -0.972833 -0.972833 z"
     id="path3" />
  <path
     style="fill:#ffffff;stroke:#cccccc;stroke-width:0.0413972"
     d="m 7.0375162,18.007762 v -0.972833 h 0.9728331 0.9728331 v 0.972833 0.972833 H 8.0103493 7.0375162 Z"
     id="path4" />
  <path
     style="fill:#ffffff;stroke:#cccccc;stroke-width:0.0413972"
     d="m 5.0090556,18.007762 v -0.972833 h 0.4760673 0.4760673 v 0.972833 0.972833 H 5.4851229 5.0090556 Z"
     id="path6" />
  <path
     style="fill:#ffffff;stroke:#cccccc;stroke-width:0.0413972"
     d="m 5.0090556,20.988357 v -0.972833 h 1.4902976 1.4902975 v 0.972833 0.972833 H 6.4993532 5.0090556 Z"
     id="path7" />
  <path
     style="fill:#ffffff;stroke:#cccccc;stroke-width:0.0413972"
     d="M 5.0090556,24.010349 V 23.037516 H 6.0025873 6.996119 v 0.972833 0.972833 H 6.0025873 5.0090556 Z"
     id="path8" />
  <path
     style="fill:#ffffff;stroke:#cccccc;stroke-width:0.0413972"
     d="M 8.0310479,24.010349 V 23.037516 H 9.003881 9.9767141 v 0.972833 0.972833 H 9.003881 8.0310479 Z"
     id="path9" />
  <path
     style="fill:#ffffff;stroke:#cccccc;stroke-width:0.0413972"
     d="m 9.0245796,20.988357 v -0.972833 h 0.9728331 0.9728333 v 0.972833 0.972833 H 9.9974127 9.0245796 Z"
     id="path10" />
  <path
     style="fill:#ffffff;stroke:#cccccc;stroke-width:0.0413972"
     d="M 11.011643,24.010349 V 23.037516 H 16 20.988357 v 0.972833 0.972833 H 16 11.011643 Z"
     id="path11" />
  <path
     style="fill:#ffffff;stroke:#cccccc;stroke-width:0.0413972"
     d="m 12.005175,20.988357 v -0.972833 h 0.993531 0.993532 v 0.972833 0.972833 h -0.993532 -0.993531 z"
     id="path12" />
  <path
     style="fill:#ffffff;stroke:#cccccc;stroke-width:0.0413972"
     d="M 15.027167,20.988357 V 20.015524 H 16 16.972833 v 0.972833 0.972833 H 16 15.027167 Z"
     id="path13" />
  <path
     style="fill:#ffffff;stroke:#cccccc;stroke-width:0.0413972"
     d="m 16.020699,18.007762 v -0.972833 h 0.972833 0.972833 v 0.972833 0.972833 h -0.972833 -0.972833 z"
     id="path14" />
  <path
     style="fill:#ffffff;stroke:#cccccc;stroke-width:0.0413972"
     d="m 19.001294,18.007762 v -0.972833 h 0.993531 0.993532 v 0.972833 0.972833 h -0.993532 -0.993531 z"
     id="path15" />
  <path
     style="fill:#ffffff;stroke:#cccccc;stroke-width:0.0413972"
     d="m 18.007762,20.988357 v -0.972833 h 0.993532 0.993531 v 0.972833 0.972833 h -0.993531 -0.993532 z"
     id="path16" />
  <path
     style="fill:#ffffff;stroke:#cccccc;stroke-width:0.0413972"
     d="m 22.023286,18.007762 v -0.972833 h 0.972833 0.972833 v 0.972833 0.972833 h -0.972833 -0.972833 z"
     id="path17" />
  <path
     style="fill:#ffffff;stroke:#cccccc;stroke-width:0.0413972"
     d="m 21.029754,20.988357 v -0.972833 h 0.972833 0.972833 v 0.972833 0.972833 h -0.972833 -0.972833 z"
     id="path18" />
  <path
     style="fill:#ffffff;stroke:#cccccc;stroke-width:0.0413972"
     d="m 25.003881,18.007762 v -0.972833 h 0.993532 0.993531 v 0.972833 0.972833 h -0.993531 -0.993532 z"
     id="path19" />
  <path
     style="fill:#ffffff;stroke:#cccccc;stroke-width:0.0413972"
     d="m 24.010349,20.988357 v -0.972833 h 1.490298 1.490297 v 0.972833 0.972833 h -1.490297 -1.490298 z"
     id="path20" />
  <path
     style="fill:#ffffff;stroke:#cccccc;stroke-width:0.0413972"
     d="m 22.023286,24.010349 v -0.972833 h 0.972833 0.972833 v 0.972833 0.972833 h -0.972833 -0.972833 z"
     id="path21" />
  <path
     style="fill:#ffffff;stroke:#cccccc;stroke-width:0.0413972"
     d="m 25.003881,24.010349 v -0.972833 h 0.993532 0.993531 v 0.972833 0.972833 h -0.993531 -0.993532 z"
     id="path22" />
</svg>
