<?xml version="1.0" encoding="UTF-8" standalone="no"?>
<svg
   width="32"
   height="32"
   version="1.1"
   id="svg1"
   sodipodi:docname="input-mouse-battery-symbolic.svg"
   inkscape:version="1.3.2 (091e20ef0f, 2023-11-25, custom)"
   xmlns:inkscape="http://www.inkscape.org/namespaces/inkscape"
   xmlns:sodipodi="http://sodipodi.sourceforge.net/DTD/sodipodi-0.dtd"
   xmlns="http://www.w3.org/2000/svg"
   xmlns:svg="http://www.w3.org/2000/svg">
  <defs
     id="defs1" />
  <sodipodi:namedview
     id="namedview1"
     pagecolor="#505050"
     bordercolor="#ffffff"
     borderopacity="1"
     inkscape:showpageshadow="0"
     inkscape:pageopacity="0"
     inkscape:pagecheckerboard="1"
     inkscape:deskcolor="#d1d1d1"
     inkscape:zoom="23.09375"
     inkscape:cx="15.978349"
     inkscape:cy="15.978349"
     inkscape:window-width="2560"
     inkscape:window-height="1388"
     inkscape:window-x="2560"
     inkscape:window-y="28"
     inkscape:window-maximized="1"
     inkscape:current-layer="svg1" />
  <style
     type="text/css"
     id="current-color-scheme">.ColorScheme-Text {
        color:#31363b;
      }
      .ColorScheme-Background {
        color:#eff0f1;
      }
      .ColorScheme-Highlight {
        color:#3daee9;
      }
      .ColorScheme-ViewText {
        color:#31363b;
      }
      .ColorScheme-ViewBackground {
        color:#fcfcfc;
      }
      .ColorScheme-ViewHover {
        color:#93cee9;
      }
      .ColorScheme-ViewFocus{
        color:#3daee9;
      }
      .ColorScheme-ButtonText {
        color:#31363b;
      }
      .ColorScheme-ButtonBackground {
        color:#eff0f1;
      }
      .ColorScheme-ButtonHover {
        color:#93cee9;
      }
      .ColorScheme-ButtonFocus{
        color:#3daee9;
      }</style>
  <g
     id="input-mouse-battery"
     transform="translate(-332,-300.36238) translate(-38,-256)">
    <path
       class="ColorScheme-Text"
       d="m386 560.36238a8 9 0 0 0-8 9v6a8 9 0 0 0 8 9 8 9 0 0 0 8-9v-6a8 9 0 0 0-8-9zm0 1a7 8 0 0 1 7 8v6a7 8 0 0 1-7 8 7 8 0 0 1-7-8v-6a7 8 0 0 1 7-8zm0 3a1 1 0 0 0-1 1v3a1 1 0 0 0 1 1 1 1 0 0 0 1-1v-3a1 1 0 0 0-1-1zm0 8-2 5h2v3l2-5h-2z"
       fill="currentColor"
       id="path1" />
    <rect
       x="370"
       y="556.36237"
       width="32"
       height="32"
       ry="0"
       fill="none"
       id="rect1" />
  </g>
  <path
     style="fill:#ffffff;stroke:#cccccc;stroke-width:0.0433018"
     d="M 15.315616,27.949017 C 11.987384,27.603477 9.201513,25.000763 8.319348,21.41272 8.0300786,20.23617 8.0324763,20.281409 8.0324763,16 c 0,-4.2401 -0.00183,-4.20361 0.2675489,-5.347767 0.7227099,-3.0696831 2.9635338,-5.5622056 5.7015668,-6.3419892 0.72965,-0.2078023 1.228005,-0.2756359 2.020059,-0.2749605 1.169595,9.974e-4 2.129731,0.2265625 3.182784,0.7477328 1.639352,0.8113369 2.921384,2.1374981 3.790174,3.9206375 0.344087,0.7062183 0.503436,1.1442347 0.686625,1.8873924 0.288508,1.17041 0.28629,1.128491 0.28629,5.408954 0,4.280463 0.0022,4.238544 -0.28629,5.408954 -0.183065,0.742654 -0.342406,1.180814 -0.686365,1.887392 -1.216717,2.49944 -3.328118,4.156287 -5.847372,4.588519 -0.484351,0.0831 -1.355516,0.113608 -1.831881,0.06415 z m 1.940135,-1.056128 c 1.322693,-0.302618 2.361594,-0.885493 3.357055,-1.883473 1.455558,-1.459241 2.230589,-3.249276 2.383097,-5.504074 0.03204,-0.473754 0.04196,-1.838393 0.02928,-4.027063 -0.01617,-2.789541 -0.0303,-3.378625 -0.08982,-3.743502 C 22.608679,9.732021 21.88305,8.2555184 20.593529,6.9696425 19.598467,5.9773938 18.539648,5.3892413 17.2341,5.1035478 16.707956,4.9884116 15.291846,4.9883135 14.768177,5.103377 13.9378,5.2858317 13.140568,5.6281285 12.405954,6.117613 11.915638,6.4443181 11.023413,7.3015503 10.661023,7.7941084 9.7887661,8.9796763 9.2590505,10.332086 9.0412089,11.929635 c -0.080483,0.590225 -0.080483,7.550505 0,8.14073 0.2113657,1.550058 0.6886257,2.802217 1.5227121,3.995051 0.385255,0.550956 1.298455,1.456155 1.818555,1.802621 0.902475,0.601187 1.612943,0.879581 2.816441,1.103612 0.251124,0.04675 1.760962,-0.01107 2.056834,-0.07876 z"
     id="path2" />
  <path
     style="fill:#ffffff;stroke:#cccccc;stroke-width:0.0433018"
     d="m 15.546,12.851672 c -0.174064,-0.09146 -0.272364,-0.181171 -0.368065,-0.335913 l -0.130574,-0.211129 -0.0122,-1.760435 -0.0122,-1.7604345 0.122336,-0.2349114 c 0.09447,-0.181406 0.176153,-0.267636 0.358615,-0.3785864 0.215578,-0.1310876 0.26139,-0.1423727 0.522908,-0.1288095 0.391941,0.020327 0.65808,0.1830849 0.826476,0.505432 l 0.120995,0.2316104 v 1.7221814 1.722181 l -0.120995,0.23161 c -0.248913,0.476473 -0.82392,0.651181 -1.307295,0.397204 z"
     id="path3" />
  <path
     style="fill:#ffffff;stroke:#cccccc;stroke-width:0.0433018"
     d="m 16.024582,22.420284 -0.0029,-1.438986 -0.991457,-0.01162 -0.991457,-0.01162 0.958981,-2.398653 0.95898,-2.398653 0.01141,1.434392 0.01141,1.434393 0.991097,0.01162 0.991097,0.01162 -0.92593,2.316644 c -0.509261,1.274154 -0.944455,2.355616 -0.967098,2.403248 -0.027,0.05679 -0.04218,-0.40878 -0.0441,-1.352382 z"
     id="path4" />
</svg>
