<?xml version="1.0" encoding="UTF-8" standalone="no"?>
<svg
   version="1.1"
   viewBox="0 0 32 32"
   id="svg1"
   sodipodi:docname="phone-symbolic.svg"
   inkscape:version="1.3.2 (091e20ef0f, 2023-11-25, custom)"
   xmlns:inkscape="http://www.inkscape.org/namespaces/inkscape"
   xmlns:sodipodi="http://sodipodi.sourceforge.net/DTD/sodipodi-0.dtd"
   xmlns="http://www.w3.org/2000/svg"
   xmlns:svg="http://www.w3.org/2000/svg">
  <defs
     id="defs1" />
  <sodipodi:namedview
     id="namedview1"
     pagecolor="#505050"
     bordercolor="#ffffff"
     borderopacity="1"
     inkscape:showpageshadow="0"
     inkscape:pageopacity="0"
     inkscape:pagecheckerboard="1"
     inkscape:deskcolor="#d1d1d1"
     inkscape:zoom="23.09375"
     inkscape:cx="15.978349"
     inkscape:cy="15.978349"
     inkscape:window-width="2560"
     inkscape:window-height="1388"
     inkscape:window-x="2560"
     inkscape:window-y="28"
     inkscape:window-maximized="1"
     inkscape:current-layer="svg1" />
  <style
     id="current-color-scheme"
     type="text/css">.ColorScheme-Text {
        color:#31363b;
      }
      .ColorScheme-Background {
        color:#eff0f1;
      }
      .ColorScheme-Highlight {
        color:#3daee9;
      }
      .ColorScheme-ViewText {
        color:#31363b;
      }
      .ColorScheme-ViewBackground {
        color:#fcfcfc;
      }
      .ColorScheme-ViewHover {
        color:#93cee9;
      }
      .ColorScheme-ViewFocus{
        color:#3daee9;
      }
      .ColorScheme-ButtonText {
        color:#31363b;
      }
      .ColorScheme-ButtonBackground {
        color:#eff0f1;
      }
      .ColorScheme-ButtonHover {
        color:#93cee9;
      }
      .ColorScheme-ButtonFocus{
        color:#3daee9;
      }</style>
  <path
     class="ColorScheme-Text"
     d="m11.023 3c-1.1209 0-2.0234 0.90252-2.0234 2.0234v21.953c0 1.1209 0.90252 2.0234 2.0234 2.0234h9.9434c1.1209 0 2.0234-0.90252 2.0234-2.0234v-21.953c0-1.1209-0.90252-2.0234-2.0234-2.0234h-9.9434zm-0.023438 1h10c0.554 0 1 0.446 1 1v22c0 0.554-0.446 1-1 1h-10c-0.554 0-1-0.446-1-1v-22c0-0.554 0.446-1 1-1zm1 1a1 1 0 0 0-1 1 1 1 0 0 0 1 1 1 1 0 0 0 1-1 1 1 0 0 0-1-1zm1.5 21c-0.277 0-0.5 0.223-0.5 0.5s0.223 0.5 0.5 0.5h5c0.277 0 0.5-0.223 0.5-0.5s-0.223-0.5-0.5-0.5h-5z"
     fill="currentColor"
     id="path1" />
  <path
     style="opacity:1;fill:#ffffff;stroke:#cccccc;stroke-width:0.0433018"
     d="M 10.580693,28.929047 C 9.8015979,28.740067 9.1957821,28.104192 9.053696,27.326283 8.987532,26.96404 8.987532,5.0359599 9.053696,4.6737173 9.1596286,4.0937454 9.5674869,3.5288947 10.077168,3.2562911 c 0.467201,-0.2498827 0.355986,-0.2452476 5.904054,-0.246067 3.461961,-5.113e-4 5.173039,0.014216 5.347767,0.046028 0.861583,0.1568658 1.519096,0.875348 1.621534,1.771894 0.05696,0.498549 0.05702,21.8454849 5.7e-5,22.3409499 -0.103908,0.903835 -0.755539,1.616973 -1.621591,1.774652 -0.3921,0.07139 -10.450096,0.05763 -10.748296,-0.0147 z m 10.810376,-0.982025 c 0.234205,-0.106962 0.414407,-0.279546 0.514725,-0.492965 l 0.0915,-0.194656 v -11.25611 c 0,-7.617678 -0.01442,-11.2940287 -0.0446,-11.3734169 C 21.874222,4.4234784 21.655031,4.1884057 21.444257,4.0845988 L 21.239513,3.9837618 H 16 c -4.708709,0 -5.254867,0.00701 -5.391069,0.069216 -0.235056,0.107351 -0.416828,0.2816973 -0.527073,0.5055426 L 9.9810555,4.7631935 9.9690978,15.805142 c -0.00764,7.059456 0.00335,11.141615 0.030495,11.318286 0.071076,0.462656 0.3617222,0.783511 0.7862512,0.867974 0.105133,0.02092 2.500218,0.03506 5.32241,0.03143 4.600459,-0.0059 5.146937,-0.01376 5.282815,-0.07581 z"
     id="path2" />
  <path
     style="opacity:1;fill:#ffffff;stroke:#cccccc;stroke-width:0.0433018"
     d="M 11.727777,6.9442578 C 11.519796,6.88599 11.234758,6.638493 11.122728,6.4188958 c -0.11916,-0.2335741 -0.120266,-0.6079333 -0.0025,-0.8370315 0.178476,-0.3471177 0.503297,-0.5516135 0.874331,-0.5504482 0.296525,9.313e-4 0.494255,0.084408 0.704906,0.297593 0.330266,0.334238 0.36246,0.8701555 0.07603,1.2655648 -0.211983,0.2926346 -0.686312,0.4509418 -1.047743,0.3496839 z"
     id="path3" />
  <path
     style="opacity:1;fill:#ffffff;stroke:#cccccc;stroke-width:0.0433018"
     d="m 13.350492,26.950908 c -0.196215,-0.05677 -0.316663,-0.228023 -0.316663,-0.450231 0,-0.23037 0.12106,-0.392807 0.337559,-0.452936 0.101378,-0.02816 1.081207,-0.04464 2.662479,-0.04479 2.688085,-2.6e-4 2.70754,0.0012 2.861692,0.221328 0.09999,0.142752 0.09085,0.433852 -0.01796,0.572182 -0.04872,0.06193 -0.160758,0.132651 -0.248985,0.157154 -0.203138,0.05642 -5.082414,0.05392 -5.27812,-0.0027 z"
     id="path4" />
</svg>
