<?xml version="1.0" encoding="UTF-8" standalone="no"?>
<svg
   viewBox="0 0 22 22"
   version="1.1"
   id="svg2"
   sodipodi:docname="gnumeric-format-precision-increase.svg"
   inkscape:version="1.3.2 (091e20ef0f, 2023-11-25, custom)"
   xmlns:inkscape="http://www.inkscape.org/namespaces/inkscape"
   xmlns:sodipodi="http://sodipodi.sourceforge.net/DTD/sodipodi-0.dtd"
   xmlns="http://www.w3.org/2000/svg"
   xmlns:svg="http://www.w3.org/2000/svg">
  <sodipodi:namedview
     id="namedview2"
     pagecolor="#505050"
     bordercolor="#ffffff"
     borderopacity="1"
     inkscape:showpageshadow="0"
     inkscape:pageopacity="0"
     inkscape:pagecheckerboard="1"
     inkscape:deskcolor="#d1d1d1"
     inkscape:zoom="33.590909"
     inkscape:cx="10.985115"
     inkscape:cy="10.985115"
     inkscape:window-width="2560"
     inkscape:window-height="1388"
     inkscape:window-x="2560"
     inkscape:window-y="28"
     inkscape:window-maximized="1"
     inkscape:current-layer="svg2" />
  <defs
     id="defs3051">
    <style
       type="text/css"
       id="current-color-scheme">.ColorScheme-Text{color:#232629;}.ColorScheme-Highlight { color: #3daee9; } </style>
  </defs>
  <path
     style="fill:currentColor;fill-opacity:1;stroke:none"
     d="M 7.5 2 C 5.57 2 4 3.8 4 6 L 4 9 C 4 11.2 5.57 13 7.5 13 C 9.4 13 11 11.2 11 9 L 11 6 C 11 3.8 9.4 2 7.5 2 z M 15.5 2 C 13.57 2 12 3.8 12 6 L 12 9 C 12 11.2 13.57 13 15.5 13 C 17.4 13 19 11.2 19 9 L 19 6 C 19 3.8 17.4 2 15.5 2 z M 7.5 3 C 8.9 3 10 4.3432 10 6 L 10 9 C 10 10.66 8.9 12 7.5 12 C 6.1 12 5 10.66 5 9 L 5 6 C 5 4.3432 6.1 3 7.5 3 z M 15.5 3 C 16.9 3 18 4.3431 18 6 L 18 9 C 18 10.66 16.9 12 15.5 12 C 14.1 12 13 10.66 13 9 L 13 6 C 13 4.3431 14.1 3 15.5 3 z M 3 12 L 3 13 L 4 13 L 4 12 L 3 12 z "
     class="ColorScheme-Text"
     id="path1" />
  <path
     style="fill:currentColor;fill-opacity:1;stroke:none"
     d="M 15 14 L 15 16 L 13 16 L 13 17 L 15 17 L 15 19 L 16 19 L 16 17 L 18 17 L 18 16 L 16 16 L 16 14 L 15 14 z "
     class="ColorScheme-Highlight"
     id="path2" />
  <path
     style="fill:#ffffff;stroke:#cccccc;stroke-width:0.02977"
     d="M 7.1299053,12.962323 C 5.6823072,12.791852 4.4718458,11.563733 4.1010019,9.8892355 4.0348391,9.5904856 4.0338295,9.5548298 4.0338295,7.5169147 c 0,-2.2863599 -0.00197,-2.2578522 0.1993809,-2.8864257 0.4016683,-1.2539261 1.3636126,-2.2196538 2.5103845,-2.5202584 0.2468405,-0.064704 0.3673898,-0.078437 0.7137799,-0.081312 0.5588286,-0.00464 0.9150256,0.075237 1.3957491,0.312989 0.9843818,0.4868468 1.7403701,1.4771907 2.0073881,2.6296757 0.121346,0.5237438 0.128693,0.6932063 0.116804,2.6941813 -0.01083,1.8222309 -0.01461,1.9342591 -0.07412,2.1965598 -0.192126,0.8468406 -0.517857,1.4806086 -1.0493424,2.0416866 -0.5817601,0.614152 -1.2526217,0.965478 -2.0235764,1.059735 -0.2818751,0.03446 -0.3976454,0.03423 -0.7003749,-0.0014 z M 8.1123139,11.922311 C 8.5397391,11.787315 8.8474387,11.59147 9.1691475,11.249654 9.5841759,10.808686 9.8448113,10.272122 9.9545433,9.6327783 10.024055,9.2277756 10.026274,5.7863822 9.9572828,5.3848197 9.7656324,4.2693246 9.0966806,3.4117729 8.1683434,3.0915189 7.9561708,3.0183245 7.8923458,3.0104403 7.5020298,3.0092105 7.0933641,3.0079228 7.0565759,3.0127567 6.8115479,3.0999385 5.7867206,3.4645755 5.1011067,4.4663816 5.0009143,5.7456022 c -0.036282,0.4632414 -0.036282,3.0496138 0,3.5128552 0.075107,0.9589346 0.4704373,1.7519006 1.1354855,2.2775906 0.2719934,0.214999 0.5716434,0.345631 1.0530454,0.459076 0.1520992,0.03584 0.7209421,-0.009 0.9228687,-0.07281 z"
     id="path3" />
  <path
     style="fill:#ffffff;stroke:#cccccc;stroke-width:0.02977"
     d="m 3.0067659,12.503383 v -0.491204 h 0.4912043 0.4912044 v 0.491204 0.491204 H 3.4979702 3.0067659 Z"
     id="path4" />
  <path
     style="fill:#ffffff;stroke:#cccccc;stroke-width:0.02977"
     d="M 15.227334,12.977051 C 14.351677,12.853576 13.72397,12.533965 13.137927,11.91318 12.614905,11.359153 12.272982,10.687208 12.095705,9.8650129 12.046722,9.6378368 12.041949,9.427997 12.041949,7.5020298 c 0,-2.3489034 -0.0049,-2.2807522 0.208437,-2.9219607 0.19371,-0.5823209 0.483103,-1.068055 0.890248,-1.4942438 0.463187,-0.4848522 1.012743,-0.8175069 1.615227,-0.9777228 0.253878,-0.067513 0.352284,-0.077877 0.739403,-0.077877 0.388588,0 0.4851,0.010245 0.74355,0.078929 1.357793,0.3608394 2.38693,1.570432 2.688678,3.1601283 0.04469,0.2354566 0.05086,0.5024583 0.05086,2.202977 0,1.4508524 -0.0098,1.9968358 -0.03904,2.1819803 -0.06844,0.4329659 -0.206858,0.8646519 -0.407634,1.2713349 -0.5231,1.059566 -1.398974,1.778518 -2.431245,1.995663 -0.215752,0.04538 -0.718938,0.07755 -0.8731,0.05581 z m 0.893099,-1.055467 c 0.409907,-0.127926 0.747568,-0.342672 1.054173,-0.670433 0.339743,-0.363186 0.594964,-0.847154 0.736867,-1.3972944 L 17.99594,9.526387 V 7.5169147 c 0,-1.5510455 -0.0089,-2.0502213 -0.03918,-2.188092 C 17.85712,4.8745499 17.655447,4.3840735 17.438871,4.0692915 17.294472,3.8594147 16.969893,3.5306489 16.779321,3.401234 16.018856,2.8848117 15.119354,2.8563657 14.326907,3.3236786 c -0.09314,0.054927 -0.290355,0.2214201 -0.43825,0.3699853 -0.423625,0.4255434 -0.678359,0.9079025 -0.824227,1.5607339 -0.06935,0.310401 -0.06984,0.3261026 -0.06984,2.247632 0,1.776224 0.0045,1.9558166 0.05539,2.188092 0.267536,1.2221902 0.998586,2.0491712 2.013621,2.2778562 0.27251,0.0614 0.783296,0.03897 1.056834,-0.04639 z"
     id="path5" />
</svg>
