<?xml version="1.0" encoding="UTF-8" standalone="no"?>
<svg
   viewBox="0 0 22 22"
   version="1.1"
   id="svg2"
   sodipodi:docname="gtk-disconnect.svg"
   inkscape:version="1.3.2 (091e20ef0f, 2023-11-25, custom)"
   xmlns:inkscape="http://www.inkscape.org/namespaces/inkscape"
   xmlns:sodipodi="http://sodipodi.sourceforge.net/DTD/sodipodi-0.dtd"
   xmlns="http://www.w3.org/2000/svg"
   xmlns:svg="http://www.w3.org/2000/svg">
  <sodipodi:namedview
     id="namedview2"
     pagecolor="#505050"
     bordercolor="#ffffff"
     borderopacity="1"
     inkscape:showpageshadow="0"
     inkscape:pageopacity="0"
     inkscape:pagecheckerboard="1"
     inkscape:deskcolor="#d1d1d1"
     inkscape:zoom="33.590909"
     inkscape:cx="10.985115"
     inkscape:cy="10.985115"
     inkscape:window-width="2560"
     inkscape:window-height="1388"
     inkscape:window-x="2560"
     inkscape:window-y="28"
     inkscape:window-maximized="1"
     inkscape:current-layer="svg2" />
  <defs
     id="defs3051">
    <style
       type="text/css"
       id="current-color-scheme">.ColorScheme-Text{color:#232629;}.ColorScheme-NegativeText { color: #da4453; } </style>
  </defs>
  <path
     style="fill:currentColor;fill-opacity:1;stroke:none"
     d="M 18.292969 3 L 14.792969 6.5 L 13.292969 5 L 11.292969 7 L 9.5 8.7929688 L 11 10.292969 L 11.707031 11 L 13.207031 12.5 L 15 10.707031 L 17 8.7070312 L 15.5 7.2070312 L 19 3.7070312 L 18.292969 3 z M 8.7929688 9.5 L 8 10.292969 L 6 12.292969 L 7.5 13.792969 L 3 18.292969 L 3.7070312 19 L 8.2070312 14.5 L 9.7070312 16 L 11.707031 14 L 12.5 13.207031 L 11 11.707031 L 10.292969 11 L 8.7929688 9.5 z "
     class="ColorScheme-Text"
     id="path1" />
  <path
     style="fill:currentColor;fill-opacity:1;stroke:none"
     d="M 14.833984 14 L 14 14.833984 L 15.666016 16.5 L 14 18.166016 L 14.833984 19 L 16.5 17.333984 L 18.166016 19 L 19 18.166016 L 17.333984 16.5 L 19 14.833984 L 18.166016 14 L 16.5 15.666016 L 14.833984 14 z "
     class="ColorScheme-NegativeText"
     id="path2" />
  <path
     style="fill:#ffffff;stroke:#cccccc;stroke-width:0.02977"
     d="M 3.3640059,18.635995 3.022211,18.293228 5.2694164,16.045874 7.5166218,13.798521 6.7651247,13.04659 6.0136277,12.29466 7.4053471,10.903177 8.7970665,9.5116936 10.642439,11.357638 12.487812,13.203583 11.096426,14.594969 9.7050407,15.986355 8.9534055,15.23472 8.2017706,14.483085 5.9537856,16.730923 3.7058008,18.978762 Z"
     id="path3" />
  <path
     style="fill:#ffffff;stroke:#cccccc;stroke-width:0.02977"
     d="M 11.364593,10.620344 9.5263884,8.7819609 11.409418,6.8991062 l 1.88303,-1.8828545 0.7516,0.7516006 0.751601,0.7516006 1.749285,-1.7490972 1.749286,-1.7490971 0.341774,0.3427464 0.341774,0.3427465 -1.748684,1.7488731 -1.748685,1.7488732 0.7516,0.7516001 0.751601,0.7516003 -1.875338,1.8755148 c -1.031436,1.031533 -1.882117,1.875515 -1.890402,1.875515 -0.0083,0 -0.842255,-0.827273 -1.853267,-1.838384 z"
     id="path4" />
  <path
     style="opacity:0.5;fill:#1a1a1a;stroke:#cccccc;stroke-width:0.02977"
     d="M 8.7845801,9.5551685 C 7.8584238,10.436851 6.9558421,11.344877 6.0686071,12.2659 c -0.037389,0.0899 0.1187896,0.15266 0.1572729,0.226996 0.4234721,0.442358 0.8605281,0.871353 1.2916742,1.306178 -1.489742,1.48987 -2.9795001,2.979725 -4.4692732,4.469564 0.1677217,0.23293 0.4010384,0.449678 0.6189477,0.651915 0.096209,0.05681 0.1595343,-0.131335 0.2386249,-0.16356 1.4451083,-1.411577 2.8647375,-2.849082 4.2954794,-4.275303 0.4965751,0.496299 0.9931482,0.992601 1.4897191,1.488905 0.2574896,-0.191682 0.4792079,-0.469719 0.7229109,-0.694683 0.686069,-0.68611 1.372166,-1.372192 2.058254,-2.058282 -0.191631,-0.25754 -0.469595,-0.479331 -0.6945,-0.723093 C 10.788921,11.51334 9.8174592,10.513538 8.8079543,9.5540057 l -0.019653,-7.559e-4 z"
     id="path7" />
  <path
     style="opacity:0.5;fill:#1a1a1a;stroke:#cccccc;stroke-width:0.02977"
     d="M 18.284104,3.06398 C 17.099063,4.1928048 15.958526,5.3686581 14.795786,6.5208423 14.29685,6.0336578 13.820755,5.5201709 13.299671,5.05723 13.077275,5.2133632 12.89461,5.4452659 12.688487,5.6297246 c -1.045704,1.0427337 -2.104005,2.0749823 -3.1220966,3.144157 0.1636875,0.2307419 0.4045554,0.4198961 0.5978136,0.6332336 1.0076,1.0084368 2.018337,2.0141588 3.041564,3.0066668 0.157383,-0.08469 0.27471,-0.261919 0.417063,-0.379581 1.119186,-1.09823 2.230455,-2.204623 3.345232,-3.3074166 C 16.777034,8.4689426 16.499106,8.2468078 16.274585,8.0027281 16.009343,7.736657 15.744107,7.4705787 15.478867,7.2045046 16.639934,6.0433208 17.801001,4.8821373 18.962069,3.7209542 18.795011,3.4940129 18.556559,3.2896858 18.343005,3.0901451 c -0.01745,-0.011007 -0.0352,-0.035916 -0.0589,-0.026165 z"
     id="path8" />
</svg>
