<?xml version="1.0" encoding="UTF-8" standalone="no"?>
<svg
   width="32"
   height="32"
   version="1.1"
   id="svg1"
   sodipodi:docname="preferences-system-bluetooth-symbolic.svg"
   inkscape:version="1.3.2 (091e20ef0f, 2023-11-25, custom)"
   xmlns:inkscape="http://www.inkscape.org/namespaces/inkscape"
   xmlns:sodipodi="http://sodipodi.sourceforge.net/DTD/sodipodi-0.dtd"
   xmlns="http://www.w3.org/2000/svg"
   xmlns:svg="http://www.w3.org/2000/svg">
  <defs
     id="defs1" />
  <sodipodi:namedview
     id="namedview1"
     pagecolor="#505050"
     bordercolor="#ffffff"
     borderopacity="1"
     inkscape:showpageshadow="0"
     inkscape:pageopacity="0"
     inkscape:pagecheckerboard="1"
     inkscape:deskcolor="#d1d1d1"
     inkscape:zoom="23.09375"
     inkscape:cx="15.978349"
     inkscape:cy="15.978349"
     inkscape:window-width="2560"
     inkscape:window-height="1388"
     inkscape:window-x="2560"
     inkscape:window-y="28"
     inkscape:window-maximized="1"
     inkscape:current-layer="svg1" />
  <style
     type="text/css"
     id="current-color-scheme">.ColorScheme-Text{color:#232629;}.ColorScheme-Background{color:#eff0f1;}.ColorScheme-ViewBackground{color:#fcfcfc;}.ColorScheme-ButtonFocus{color:#3daee9;}.ColorScheme-PositiveText{color:#27ae60;}.ColorScheme-NeutralText{color:#f67400;}.ColorScheme-NegativeText { color: #da4453; } </style>
  <g
     id="preferences-system-bluetooth"
     transform="translate(44,94) translate(-39,-116)">
    <rect
       id="rect4168"
       x="-5"
       y="22"
       width="32"
       height="32"
       fill="none" />
    <path
       id="rect4331"
       class="ColorScheme-Text"
       d="m 11,26 0,0.410156 0,10.587891 L 5.0019531,31 4.296875,31.705078 10.589844,38 4.296875,44.294922 5.0019531,45 11,39.001953 11,50 12,50 12.002,50 18,44.001953 18,44 18,43.998047 12.001953,38 18,32.001953 18,32 18,31.998047 12.001953,26 12,26 11,26 z M 12,27.410156 16.587891,32 12,36.589844 12,27.410156 z m 0,12 L 16.587891,44 12,48.589844 12,39.410156 z"
       fill="currentColor" />
  </g>
  <path
     style="opacity:0.3;fill:#ffffff;stroke:#cccccc;stroke-width:0.0433018"
     d=""
     id="path1" />
  <path
     style="opacity:1;fill:#ffffff;stroke:#cccccc;stroke-width:0.0433018"
     d="m 16.021651,22.495264 c 0,-3.024628 -0.01456,-5.499324 -0.03236,-5.499324 -0.0178,0 -1.372008,1.339543 -3.009356,2.976763 L 10.002938,22.949466 9.6674641,22.613992 9.3319903,22.278518 12.471025,19.139259 15.61006,16 12.471025,12.860741 9.3319903,9.7214822 9.6674641,9.3860083 10.002938,9.0505345 12.979935,12.027297 c 1.637348,1.63722 2.991559,2.976763 3.009356,2.976763 0.0178,0 0.03236,-2.474696 0.03236,-5.4993239 V 4.0054127 h 0.487262 0.487263 L 19.983762,6.9932345 22.971349,9.9810563 19.962111,12.990528 16.952873,16 l 3.009238,3.009472 3.009238,3.009472 -2.987587,2.987821 -2.987586,2.987822 h -0.487263 -0.487262 z m 3.280261,1.807697 2.305667,-2.30597 -2.316644,-2.316341 -2.316645,-2.316341 v 4.622311 c 0,2.542271 0.0049,4.622311 0.01098,4.622311 0.006,0 1.048527,-1.037686 2.316645,-2.30597 z m 0,-11.994587 2.305667,-2.30597 L 19.290935,7.6860629 16.97429,5.3697216 v 4.6223109 c 0,2.5422715 0.0049,4.6223115 0.01098,4.6223115 0.006,0 1.048527,-1.037687 2.316645,-2.30597 z"
     id="path2" />
</svg>
