<?xml version="1.0" encoding="UTF-8" standalone="no"?>
<svg
   width="32"
   height="32"
   version="1.1"
   id="svg1"
   sodipodi:docname="preferences-system-bluetooth-inactive-symbolic.svg"
   inkscape:version="1.3.2 (091e20ef0f, 2023-11-25, custom)"
   xmlns:inkscape="http://www.inkscape.org/namespaces/inkscape"
   xmlns:sodipodi="http://sodipodi.sourceforge.net/DTD/sodipodi-0.dtd"
   xmlns="http://www.w3.org/2000/svg"
   xmlns:svg="http://www.w3.org/2000/svg">
  <defs
     id="defs1" />
  <sodipodi:namedview
     id="namedview1"
     pagecolor="#505050"
     bordercolor="#ffffff"
     borderopacity="1"
     inkscape:showpageshadow="0"
     inkscape:pageopacity="0"
     inkscape:pagecheckerboard="1"
     inkscape:deskcolor="#d1d1d1"
     inkscape:zoom="23.09375"
     inkscape:cx="15.978349"
     inkscape:cy="15.978349"
     inkscape:window-width="2560"
     inkscape:window-height="1388"
     inkscape:window-x="2560"
     inkscape:window-y="28"
     inkscape:window-maximized="1"
     inkscape:current-layer="svg1" />
  <style
     type="text/css"
     id="current-color-scheme">.ColorScheme-Text{color:#232629;}.ColorScheme-Background{color:#eff0f1;}.ColorScheme-ViewBackground{color:#fcfcfc;}.ColorScheme-ButtonFocus{color:#3daee9;}.ColorScheme-PositiveText{color:#27ae60;}.ColorScheme-NeutralText{color:#f67400;}.ColorScheme-NegativeText { color: #da4453; } </style>
  <g
     id="preferences-system-bluetooth-inactive"
     transform="translate(44,94) translate(-7,-116)">
    <rect
       id="rect4426"
       x="-37"
       y="22"
       width="32"
       height="32"
       fill="none" />
    <path
       id="path4428"
       class="ColorScheme-Text"
       d="m-21 26v10.998047l-5.998047-5.998047-0.705078 0.705078 6.292969 6.294922-6.292969 6.294922 0.705078 0.705078 5.998047-5.998047v10.998047h1.002l5.998-5.998047v-4e-3l-5.998047-5.997953 5.998047-5.998047v-0.003953l-5.998047-5.998h-1.001953zm1 1.410156 4.587891 4.589844-4.587891 4.589844v-9.179688zm0 12 4.587891 4.589844-4.587891 4.589844v-9.179688z"
       fill="currentColor"
       opacity=".5" />
  </g>
  <path
     style="fill:#ffffff;stroke:#cccccc;stroke-width:0.0433018;opacity:0.3"
     d="M 16.021651,22.484555 V 16.974523 L 13.012629,19.983311 10.003608,22.992099 9.6562891,22.646817 9.3089702,22.301535 12.459516,19.150768 15.610062,16 12.459516,12.849232 9.3089702,9.6984652 9.6562891,9.353183 10.003608,9.0079013 l 3.009021,3.0087877 3.009022,3.008788 V 9.5154447 4.0054127 h 0.487028 0.487028 l 2.977112,2.9768783 c 1.637413,1.6372831 2.977113,2.9963643 2.977113,3.020181 0,0.02382 -1.339595,1.383003 -2.976878,3.020415 L 16.996176,16 l 2.976878,2.977113 c 1.637283,1.637412 2.976878,2.996599 2.976878,3.020415 0,0.02382 -1.3397,1.382898 -2.977113,3.020181 l -2.977112,2.976878 h -0.487028 -0.487028 z m 3.280261,1.818406 2.305667,-2.30597 -2.316644,-2.316341 -2.316645,-2.316341 v 4.622311 c 0,2.542271 0.0049,4.622311 0.01098,4.622311 0.006,0 1.048527,-1.037686 2.316645,-2.30597 z m 0,-11.994587 2.305667,-2.30597 L 19.290935,7.6860629 16.97429,5.3697216 v 4.6223109 c 0,2.5422715 0.0049,4.6223115 0.01098,4.6223115 0.006,0 1.048527,-1.037687 2.316645,-2.30597 z"
     id="path1" />
</svg>
