<?xml version="1.0" encoding="UTF-8" standalone="no"?>
<svg
   width="32"
   height="32"
   version="1.1"
   id="svg1"
   sodipodi:docname="preferences-system-bluetooth-activated-symbolic.svg"
   inkscape:version="1.3.2 (091e20ef0f, 2023-11-25, custom)"
   xmlns:inkscape="http://www.inkscape.org/namespaces/inkscape"
   xmlns:sodipodi="http://sodipodi.sourceforge.net/DTD/sodipodi-0.dtd"
   xmlns="http://www.w3.org/2000/svg"
   xmlns:svg="http://www.w3.org/2000/svg">
  <defs
     id="defs1" />
  <sodipodi:namedview
     id="namedview1"
     pagecolor="#505050"
     bordercolor="#ffffff"
     borderopacity="1"
     inkscape:showpageshadow="0"
     inkscape:pageopacity="0"
     inkscape:pagecheckerboard="1"
     inkscape:deskcolor="#d1d1d1"
     inkscape:zoom="23.09375"
     inkscape:cx="15.978349"
     inkscape:cy="15.978349"
     inkscape:window-width="2560"
     inkscape:window-height="1388"
     inkscape:window-x="2560"
     inkscape:window-y="28"
     inkscape:window-maximized="1"
     inkscape:current-layer="svg1" />
  <style
     type="text/css"
     id="current-color-scheme">.ColorScheme-Text{color:#232629;}.ColorScheme-Background{color:#eff0f1;}.ColorScheme-ViewBackground{color:#fcfcfc;}.ColorScheme-ButtonFocus{color:#3daee9;}.ColorScheme-PositiveText{color:#27ae60;}.ColorScheme-NeutralText{color:#f67400;}.ColorScheme-NegativeText { color: #da4453; } </style>
  <g
     id="preferences-system-bluetooth-activated"
     transform="translate(44,94) translate(-71,-116)">
    <rect
       id="rect4422"
       x="27"
       y="22"
       width="32"
       height="32"
       fill="none" />
    <path
       id="path4424"
       class="ColorScheme-Text"
       d="m43 26v10.998047l-5.998047-5.998047-0.705078 0.705078 6.292969 6.294922-6.292969 6.294922 0.705078 0.705078 5.998047-5.998047v10.998047h1.002l5.998-5.998047v-0.003906l-5.998047-5.998047 5.998047-5.998047v-0.003906l-5.998047-5.998047h-1.001953zm1 1.410156 4.587891 4.589844-4.587891 4.589844v-9.179688zm-14 9.589844a1 1 0 0 0-1 1 1 1 0 0 0 1 1 1 1 0 0 0 1-1 1 1 0 0 0-1-1zm6 0a1 1 0 0 0-1 1 1 1 0 0 0 1 1 1 1 0 0 0 1-1 1 1 0 0 0-1-1zm14 0a1 1 0 0 0-1 1 1 1 0 0 0 1 1 1 1 0 0 0 1-1 1 1 0 0 0-1-1zm6 0a1 1 0 0 0-1 1 1 1 0 0 0 1 1 1 1 0 0 0 1-1 1 1 0 0 0-1-1zm-12 2.410156 4.587891 4.589844-4.587891 4.589844v-9.179688z"
       fill="currentColor" />
  </g>
  <path
     style="fill:#ffffff;stroke:#cccccc;stroke-width:0.0433018"
     d="M 2.7929635,16.95545 C 2.3332201,16.843526 2.0351827,16.467745 2.0351827,16 c 0,-1.131851 1.6151792,-1.337153 1.9098688,-0.24276 0.1365804,0.507222 -0.1904913,1.049211 -0.7190704,1.191569 -0.1923631,0.05181 -0.2442234,0.0526 -0.4330176,0.0066 z"
     id="path1" />
  <path
     style="fill:#ffffff;stroke:#cccccc;stroke-width:0.0433018"
     d="M 8.777557,16.949509 C 8.2386653,16.819596 7.9152696,16.26426 8.0695186,15.733662 8.3177099,14.879914 9.4671232,14.779693 9.8767668,15.576083 10.053667,15.919996 9.9601154,16.430606 9.6710834,16.69871 9.4221382,16.929631 9.0862156,17.023919 8.777557,16.949509 Z"
     id="path2" />
  <path
     style="fill:#ffffff;stroke:#cccccc;stroke-width:0.0433018"
     d="m 16.021651,22.495264 c 0,-3.024628 -0.01456,-5.499324 -0.03236,-5.499324 -0.0178,0 -1.372008,1.339543 -3.009356,2.976763 L 10.002938,22.949466 9.6674641,22.613992 9.3319903,22.278518 12.471025,19.139259 15.61006,16 12.471025,12.860741 9.3319903,9.7214822 9.6674641,9.3860083 10.002938,9.0505345 12.979935,12.027297 c 1.637348,1.63722 2.991559,2.976763 3.009356,2.976763 0.0178,0 0.03236,-2.474696 0.03236,-5.4993239 V 4.0054127 h 0.487262 0.487263 L 19.983762,6.9932345 22.971349,9.9810563 19.962111,12.990528 16.952873,16 l 3.009238,3.009472 3.009238,3.009472 -2.987587,2.987821 -2.987586,2.987822 h -0.487263 -0.487262 z m 3.280261,1.807697 2.305667,-2.30597 -2.316644,-2.316341 -2.316645,-2.316341 v 4.622311 c 0,2.542271 0.0049,4.622311 0.01098,4.622311 0.006,0 1.048527,-1.037686 2.316645,-2.30597 z m 0,-11.994587 2.305667,-2.30597 L 19.290935,7.6860629 16.97429,5.3697216 v 4.6223109 c 0,2.5422715 0.0049,4.6223115 0.01098,4.6223115 0.006,0 1.048527,-1.037687 2.316645,-2.30597 z"
     id="path3" />
  <path
     style="fill:#ffffff;stroke:#cccccc;stroke-width:0.0433018"
     d="M 22.798376,16.956382 C 22.336173,16.840546 22.040595,16.467502 22.040595,16 c 0,-0.787573 0.854887,-1.243702 1.504126,-0.802533 0.744028,0.505581 0.456955,1.651227 -0.443233,1.768841 -0.09526,0.01245 -0.231664,0.008 -0.303112,-0.0099 z"
     id="path4" />
  <path
     style="fill:#ffffff;stroke:#cccccc;stroke-width:0.0433018"
     d="m 28.723778,16.935471 c -0.376868,-0.121345 -0.637802,-0.427398 -0.690177,-0.80952 -0.126767,-0.924864 1.033957,-1.470887 1.679934,-0.790269 0.237525,0.250263 0.324159,0.709701 0.192892,1.022948 -0.194355,0.463794 -0.726947,0.723568 -1.182649,0.576841 z"
     id="path5" />
</svg>
