<?xml version="1.0" encoding="UTF-8" standalone="no"?>
<svg
   height="32"
   width="32"
   version="1.1"
   id="svg3"
   sodipodi:docname="battery-060-charging.svg"
   inkscape:version="1.3.2 (091e20ef0f, 2023-11-25, custom)"
   xmlns:inkscape="http://www.inkscape.org/namespaces/inkscape"
   xmlns:sodipodi="http://sodipodi.sourceforge.net/DTD/sodipodi-0.dtd"
   xmlns="http://www.w3.org/2000/svg"
   xmlns:svg="http://www.w3.org/2000/svg">
  <defs
     id="defs3" />
  <sodipodi:namedview
     id="namedview3"
     pagecolor="#505050"
     bordercolor="#ffffff"
     borderopacity="1"
     inkscape:showpageshadow="0"
     inkscape:pageopacity="0"
     inkscape:pagecheckerboard="1"
     inkscape:deskcolor="#d1d1d1"
     inkscape:zoom="32"
     inkscape:cx="16.15625"
     inkscape:cy="14.375"
     inkscape:window-width="2560"
     inkscape:window-height="1388"
     inkscape:window-x="2560"
     inkscape:window-y="28"
     inkscape:window-maximized="1"
     inkscape:current-layer="svg3" />
  <style
     type="text/css"
     id="current-color-scheme">.ColorScheme-Text{color:#232629;}.ColorScheme-PositiveText { color: #27ae60; } </style>
  <g
     class="ColorScheme-Text"
     fill="currentColor"
     id="g2">
    <path
       d="M3 10v12h25v-3c.554 0 1-.446 1-1v-4c0-.554-.446-1-1-1v-3zm1 1h23v10H4z"
       id="path1" />
    <path
       d="M5 12h12l2 8H5z"
       id="path2" />
  </g>
  <path
     d="M16 13a3 3 0 0 0-2.826 2H12v2h1.176A3 3 0 0 0 16 19v-1h2v-1h-2v-2h2v-1h-2z"
     class="ColorScheme-PositiveText"
     fill="currentColor"
     id="path3" />
  <path
     style="fill:#ffffff;stroke:#cccccc;stroke-width:0.0433018"
     d="m 5.0230041,15.999848 v -3.983915 l 5.9837649,0.01098 5.983764,0.01098 0.228825,0.909337 c 0.125853,0.500135 0.22937,0.933694 0.230037,0.963464 9.23e-4,0.04116 -0.169902,0.05413 -0.713265,0.05413 h -0.714479 v -0.49797 c 0,-0.576704 0.04764,-0.538164 -0.53656,-0.434055 -0.973586,0.173501 -1.792479,0.789892 -2.20181,1.65733 l -0.127709,0.270636 H 12.575079 11.994587 V 16 17.039242 h 0.577222 0.577221 l 0.162385,0.319924 c 0.468309,0.922641 1.35837,1.524335 2.4396,1.649205 l 0.270636,0.03125 V 18.5374 18.035178 h 0.99594 0.995941 V 17.515562 16.99594 h -0.995941 -0.99594 V 16 15.00406 h 0.855605 0.855604 l 0.602387,2.414073 c 0.331313,1.32774 0.611081,2.448173 0.621706,2.489851 0.01834,0.07194 -0.334411,0.07578 -6.957315,0.07578 H 5.0230041 Z"
     id="path4" />
  <path
     style="fill:#ffffff;stroke:#cccccc;stroke-width:0.0433018"
     d="M 3.0311231,16 V 10.024357 H 15.50203 27.972936 v 1.489092 1.489091 l 0.160368,0.03009 c 0.346415,0.06499 0.642723,0.294534 0.768323,0.595212 0.05788,0.138551 0.06712,0.470505 0.0663,2.381597 -8.84e-4,2.063589 -0.0066,2.233024 -0.08072,2.396229 -0.115209,0.253644 -0.399996,0.48085 -0.681749,0.543903 l -0.232519,0.05204 v 1.48702 1.48702 H 15.50203 3.0311231 Z M 27.020298,16 V 10.976996 H 15.50203 3.9837618 V 16 21.023004 H 15.50203 27.020298 Z"
     id="path5" />
</svg>
