<?xml version="1.0" encoding="UTF-8" standalone="no"?>
<svg
   height="32"
   width="32"
   version="1.1"
   id="svg3"
   sodipodi:docname="battery-050-charging.svg"
   inkscape:version="1.3.2 (091e20ef0f, 2023-11-25, custom)"
   xmlns:inkscape="http://www.inkscape.org/namespaces/inkscape"
   xmlns:sodipodi="http://sodipodi.sourceforge.net/DTD/sodipodi-0.dtd"
   xmlns="http://www.w3.org/2000/svg"
   xmlns:svg="http://www.w3.org/2000/svg">
  <defs
     id="defs3" />
  <sodipodi:namedview
     id="namedview3"
     pagecolor="#505050"
     bordercolor="#ffffff"
     borderopacity="1"
     inkscape:showpageshadow="0"
     inkscape:pageopacity="0"
     inkscape:pagecheckerboard="1"
     inkscape:deskcolor="#d1d1d1"
     inkscape:zoom="184.75"
     inkscape:cx="16.606225"
     inkscape:cy="17.558863"
     inkscape:window-width="2560"
     inkscape:window-height="1388"
     inkscape:window-x="2560"
     inkscape:window-y="28"
     inkscape:window-maximized="1"
     inkscape:current-layer="svg3" />
  <style
     type="text/css"
     id="current-color-scheme">.ColorScheme-Text{color:#232629;}.ColorScheme-PositiveText { color: #27ae60; } </style>
  <g
     class="ColorScheme-Text"
     fill="currentColor"
     id="g2">
    <path
       d="M3 10v12h25v-3c.554 0 1-.446 1-1v-4c0-.554-.446-1-1-1v-3zm1 1h23v10H4z"
       id="path1" />
    <path
       d="M5 12h10l2 8H5z"
       id="path2" />
  </g>
  <path
     d="M16 13a3 3 0 0 0-2.826 2H12v2h1.176A3 3 0 0 0 16 19v-1h2v-1h-2v-2h2v-1h-2z"
     class="ColorScheme-PositiveText"
     fill="currentColor"
     id="path3" />
  <path
     style="fill:#ffffff;stroke:#cccccc;stroke-width:0.0433018"
     d="m 5.0230041,16 v -3.983762 h 4.9780339 4.978033 l 0.0425,0.162382 c 0.136972,0.523327 0.2234,0.887813 0.212025,0.894165 -0.0072,0.004 -0.09097,0.03341 -0.186235,0.06534 -0.756338,0.253562 -1.38555,0.799136 -1.739981,1.508692 l -0.156815,0.313938 H 12.572576 11.994587 V 16 17.039242 h 0.577222 0.577221 l 0.162385,0.319924 c 0.468309,0.922641 1.35837,1.524335 2.4396,1.649205 l 0.270636,0.03125 V 18.5374 18.035178 h 0.232772 0.232771 l 0.223622,0.898511 c 0.122993,0.494182 0.233902,0.932612 0.246466,0.97429 0.02168,0.07191 -0.282015,0.07578 -5.955717,0.07578 H 5.0230041 Z"
     id="path4" />
  <path
     style="fill:#ffffff;stroke:#cccccc;stroke-width:0.0433018"
     d="M 3.0311231,16 V 10.024357 H 15.50203 27.972936 v 1.489092 1.489091 l 0.160368,0.03009 c 0.346415,0.06499 0.642723,0.294534 0.768323,0.595212 0.05788,0.138551 0.06712,0.470505 0.0663,2.381597 -8.84e-4,2.063589 -0.0066,2.233024 -0.08072,2.396229 -0.115209,0.253644 -0.399996,0.48085 -0.681749,0.543903 l -0.232519,0.05204 v 1.48702 1.48702 H 15.50203 3.0311231 Z M 27.020298,16 V 10.976996 H 15.50203 3.9837618 V 16 21.023004 H 15.50203 27.020298 Z"
     id="path5" />
  <path
     style="fill:#ffffff;stroke:#cccccc;stroke-width:0.00541272"
     d="m 16.000427,16.507443 c 2.35e-4,-0.270163 0.0014,-0.488769 0.0025,-0.485792 0.0012,0.003 0.05669,0.224019 0.1234,0.491204 l 0.1213,0.485792 H 16.123828 16 Z"
     id="path6" />
</svg>
