<?xml version="1.0" encoding="UTF-8" standalone="no"?>
<svg
   width="32"
   height="32"
   version="1.1"
   id="svg6"
   sodipodi:docname="battery-ups.svg"
   inkscape:version="1.3.2 (091e20ef0f, 2023-11-25, custom)"
   xmlns:inkscape="http://www.inkscape.org/namespaces/inkscape"
   xmlns:sodipodi="http://sodipodi.sourceforge.net/DTD/sodipodi-0.dtd"
   xmlns="http://www.w3.org/2000/svg"
   xmlns:svg="http://www.w3.org/2000/svg">
  <sodipodi:namedview
     id="namedview1"
     pagecolor="#505050"
     bordercolor="#ffffff"
     borderopacity="1"
     inkscape:showpageshadow="0"
     inkscape:pageopacity="0"
     inkscape:pagecheckerboard="1"
     inkscape:deskcolor="#d1d1d1"
     inkscape:zoom="23.09375"
     inkscape:cx="15.978349"
     inkscape:cy="15.978349"
     inkscape:window-width="2560"
     inkscape:window-height="1388"
     inkscape:window-x="2560"
     inkscape:window-y="28"
     inkscape:window-maximized="1"
     inkscape:current-layer="svg6" />
  <defs
     id="defs10" />
  <namedview
     id="namedview8"
     pagecolor="#ffffff"
     bordercolor="#000000"
     borderopacity="0.25"
     inkscape:showpageshadow="2"
     inkscape:pageopacity="0.0"
     inkscape:pagecheckerboard="0"
     inkscape:deskcolor="#d1d1d1"
     showgrid="false"
     inkscape:zoom="1"
     inkscape:cx="205"
     inkscape:cy="-151"
     inkscape:window-width="1920"
     inkscape:window-height="1011"
     inkscape:window-x="0"
     inkscape:window-y="0"
     inkscape:window-maximized="1"
     inkscape:current-layer="svg6" />
  <style
     type="text/css"
     id="current-color-scheme">.ColorScheme-Text{color:#31363b;}.ColorScheme-Background{color:#eff0f1;}.ColorScheme-ViewText{color:#31363b;}.ColorScheme-ViewBackground{color:#ffffff;}.ColorScheme-ViewHover{color:#000000;}.ColorScheme-ViewFocus{color:#5a5a5a;}.ColorScheme-ButtonText{color:#31363b;}.ColorScheme-ButtonBackground{color:#E9E8E8;}.ColorScheme-ButtonHover{color:#1489ff;}.ColorScheme-ButtonFocus { color: #2B74C7; } </style>
  <g
     id="battery-ups"
     transform="translate(-182.53572,-428.50504)">
    <rect
       y="428.50504"
       x="182.53572"
       height="31.999998"
       width="31.999998"
       id="rect4447"
       style="opacity:1;fill:none;fill-opacity:1;stroke:none" />
    <path
       inkscape:connector-curvature="0"
       id="rect4411"
       d="m 189.53572,432.50504 v 24 h 18 v -24 z m 1,1 h 16 v 22 h -16 z m 8,2 -3,7 h 3 v 4 l 3,-7 h -3 z m -6,15 v 3 h 1 v -3 z m 2,0 v 3 h 1 v -3 z m 2,0 v 3 h 1 v -3 z m 2,0 v 3 h 1 v -3 z m 4.5,0 c -0.82843,0 -1.5,0.67157 -1.5,1.5 0,0.82843 0.67157,1.5 1.5,1.5 0.82843,0 1.5,-0.67157 1.5,-1.5 0,-0.82843 -0.67157,-1.5 -1.5,-1.5 z"
       style="opacity:1;fill:currentColor;fill-opacity:1;stroke:none"
       class="ColorScheme-Text"
       sodipodi:nodetypes="cccccccccccccccccccccccccccccccccccccsssss" />
  </g>
  <path
     style="fill:#ffffff;stroke:#cccccc;stroke-width:0.0433018"
     d="M 7.014885,16 V 4.0054127 H 16 24.985115 V 16 27.994587 H 16 7.014885 Z m 17.017591,0 V 5.0013532 H 16 7.9675237 V 16 26.998647 H 16 24.032476 Z"
     id="path1" />
  <path
     style="fill:#ffffff;stroke:#cccccc;stroke-width:0.0433018"
     d="m 16.02308,15.924783 -0.0014,-1.958843 -1.487617,-0.01139 -1.487617,-0.01139 1.455141,-3.396037 1.45514,-3.396037 0.01127,1.9340422 0.01127,1.9340428 1.490358,0.01139 1.490357,0.01139 -1.467723,3.420839 -1.467723,3.420839 z"
     id="path2" />
  <path
     style="fill:#ffffff;stroke:#cccccc;stroke-width:0.0433018"
     d="m 10.002706,23.491204 v -1.472259 h 0.497971 0.49797 v 1.472259 1.47226 h -0.49797 -0.497971 z"
     id="path3" />
  <path
     style="fill:#ffffff;stroke:#cccccc;stroke-width:0.0433018"
     d="m 12.037889,23.491204 v -1.472259 h 0.476319 0.47632 v 1.472259 1.47226 h -0.47632 -0.476319 z"
     id="path4" />
  <path
     style="fill:#ffffff;stroke:#cccccc;stroke-width:0.0433018"
     d="m 14.02977,23.491204 v -1.472259 h 0.476319 0.47632 v 1.472259 1.47226 h -0.47632 -0.476319 z"
     id="path5" />
  <path
     style="fill:#ffffff;stroke:#cccccc;stroke-width:0.0433018"
     d="m 16.021651,23.491204 v -1.472259 h 0.476319 0.47632 v 1.472259 1.47226 h -0.47632 -0.476319 z"
     id="path6" />
  <path
     style="fill:#ffffff;stroke:#cccccc;stroke-width:0.0433018"
     d="m 20.091736,24.92547 c -0.168151,-0.05497 -0.396321,-0.180441 -0.553095,-0.304154 -0.331879,-0.261891 -0.563843,-0.845855 -0.509323,-1.282213 0.06237,-0.499211 0.426946,-0.996208 0.879978,-1.199611 0.317239,-0.142434 0.862592,-0.135427 1.183857,0.01521 0.955112,0.447842 1.179168,1.612225 0.455769,2.368564 -0.284358,0.297307 -0.544102,0.409873 -0.980586,0.424961 -0.202436,0.007 -0.416906,-0.0032 -0.4766,-0.02276 z"
     id="path7" />
</svg>
