<?xml version="1.0" encoding="UTF-8" standalone="no"?>
<svg
   height="32"
   width="32"
   version="1.1"
   id="svg3"
   sodipodi:docname="battery-080-charging.svg"
   inkscape:version="1.3.2 (091e20ef0f, 2023-11-25, custom)"
   xmlns:inkscape="http://www.inkscape.org/namespaces/inkscape"
   xmlns:sodipodi="http://sodipodi.sourceforge.net/DTD/sodipodi-0.dtd"
   xmlns="http://www.w3.org/2000/svg"
   xmlns:svg="http://www.w3.org/2000/svg">
  <defs
     id="defs3" />
  <sodipodi:namedview
     id="namedview3"
     pagecolor="#505050"
     bordercolor="#ffffff"
     borderopacity="1"
     inkscape:showpageshadow="0"
     inkscape:pageopacity="0"
     inkscape:pagecheckerboard="1"
     inkscape:deskcolor="#d1d1d1"
     inkscape:zoom="23.09375"
     inkscape:cx="15.978349"
     inkscape:cy="15.978349"
     inkscape:window-width="2560"
     inkscape:window-height="1388"
     inkscape:window-x="2560"
     inkscape:window-y="28"
     inkscape:window-maximized="1"
     inkscape:current-layer="svg3" />
  <style
     type="text/css"
     id="current-color-scheme">.ColorScheme-Text{color:#232629;}.ColorScheme-PositiveText { color: #27ae60; } </style>
  <g
     class="ColorScheme-Text"
     fill="currentColor"
     id="g2">
    <path
       d="M3 10v12h25v-3c.554 0 1-.446 1-1v-4c0-.554-.446-1-1-1v-3zm1 1h23v10H4z"
       id="path1" />
    <path
       d="M5 12h16l2 8H5z"
       id="path2" />
  </g>
  <path
     d="M16 13a3 3 0 0 0-2.826 2H12v2h1.176A3 3 0 0 0 16 19v-1h2v-1h-2v-2h2v-1h-2z"
     class="ColorScheme-PositiveText"
     fill="currentColor"
     id="path3" />
  <path
     style="fill:#ffffff;stroke:#cccccc;stroke-width:0.0433018"
     d="m 5.0230041,16 v -3.983762 h 7.9785889 7.978588 l 0.986119,3.951286 c 0.542364,2.173207 0.985558,3.9659 0.984875,3.983762 -6.84e-4,0.01786 -4.034802,0.03248 -8.964707,0.03248 H 5.0230041 Z m 10.9986469,2.533153 v -0.49797 h 0.99594 0.995941 V 17.515562 16.99594 h -0.995941 -0.99594 V 16 15.00406 h 0.99594 0.995941 v -0.519622 -0.519621 h -0.995941 -0.99594 v -0.49797 c 0,-0.576704 0.04764,-0.538164 -0.53656,-0.434055 -0.973586,0.173501 -1.792479,0.789892 -2.20181,1.65733 l -0.127709,0.270636 H 12.575079 11.994587 V 16 17.039242 h 0.577222 0.577221 l 0.162385,0.319924 c 0.429855,0.846881 1.218266,1.431332 2.168964,1.607859 0.166712,0.03095 0.356698,0.05804 0.422192,0.06019 l 0.11908,0.0039 z"
     id="path4" />
  <path
     style="fill:#ffffff;stroke:#cccccc;stroke-width:0.0433018"
     d="M 3.0311231,16 V 10.024357 H 15.50203 27.972936 v 1.489092 1.489091 l 0.160368,0.03009 c 0.346415,0.06499 0.642723,0.294534 0.768323,0.595212 0.05788,0.138551 0.06712,0.470505 0.0663,2.381597 -8.84e-4,2.063589 -0.0066,2.233024 -0.08072,2.396229 -0.115209,0.253644 -0.399996,0.48085 -0.681749,0.543903 l -0.232519,0.05204 v 1.48702 1.48702 H 15.50203 3.0311231 Z M 27.020298,16 V 10.976996 H 15.50203 3.9837618 V 16 21.023004 H 15.50203 27.020298 Z"
     id="path5" />
</svg>
