<?xml version="1.0" encoding="UTF-8" standalone="no"?>
<svg
   height="32"
   width="32"
   version="1.1"
   id="svg3"
   sodipodi:docname="battery-040-charging.svg"
   inkscape:version="1.3.2 (091e20ef0f, 2023-11-25, custom)"
   xmlns:inkscape="http://www.inkscape.org/namespaces/inkscape"
   xmlns:sodipodi="http://sodipodi.sourceforge.net/DTD/sodipodi-0.dtd"
   xmlns="http://www.w3.org/2000/svg"
   xmlns:svg="http://www.w3.org/2000/svg">
  <defs
     id="defs3" />
  <sodipodi:namedview
     id="namedview3"
     pagecolor="#505050"
     bordercolor="#ffffff"
     borderopacity="1"
     inkscape:showpageshadow="0"
     inkscape:pageopacity="0"
     inkscape:pagecheckerboard="1"
     inkscape:deskcolor="#d1d1d1"
     inkscape:zoom="23.09375"
     inkscape:cx="15.978349"
     inkscape:cy="15.978349"
     inkscape:window-width="2560"
     inkscape:window-height="1388"
     inkscape:window-x="2560"
     inkscape:window-y="28"
     inkscape:window-maximized="1"
     inkscape:current-layer="svg3" />
  <style
     type="text/css"
     id="current-color-scheme">.ColorScheme-Text{color:#232629;}.ColorScheme-PositiveText { color: #27ae60; } </style>
  <g
     class="ColorScheme-Text"
     fill="currentColor"
     id="g2">
    <path
       d="M3 10v12h25v-3c.554 0 1-.446 1-1v-4c0-.554-.446-1-1-1v-3zm1 1h23v10H4z"
       id="path1" />
    <path
       d="M5 12h8l2 8H5z"
       id="path2" />
  </g>
  <path
     d="M16 13a3 3 0 0 0-2.826 2H12v2h1.176A3 3 0 0 0 16 19v-1h2v-1h-2v-2h2v-1h-2z"
     class="ColorScheme-PositiveText"
     fill="currentColor"
     id="path3" />
  <path
     style="fill:#ffffff;stroke:#cccccc;stroke-width:0.0433018"
     d="m 5.0230041,16 v -3.983762 h 3.9783616 3.9783613 l 0.280034,1.119585 c 0.250794,1.002688 0.273451,1.128151 0.216992,1.201624 -0.03467,0.04512 -0.121122,0.203825 -0.192111,0.352675 l -0.12907,0.270636 H 12.575079 11.994587 V 16 17.039242 h 0.582548 0.582547 l 0.08372,0.189263 c 0.223004,0.504137 0.643652,0.990478 1.129117,1.305453 l 0.282422,0.183238 0.158606,0.633283 0.158606,0.633283 H 9.9975786 5.0230041 Z"
     id="path4" />
  <path
     style="fill:#ffffff;stroke:#cccccc;stroke-width:0.0433018"
     d="M 3.0311231,16 V 10.024357 H 15.50203 27.972936 v 1.489092 1.489091 l 0.160368,0.03009 c 0.346415,0.06499 0.642723,0.294534 0.768323,0.595212 0.05788,0.138551 0.06712,0.470505 0.0663,2.381597 -8.84e-4,2.063589 -0.0066,2.233024 -0.08072,2.396229 -0.115209,0.253644 -0.399996,0.48085 -0.681749,0.543903 l -0.232519,0.05204 v 1.48702 1.48702 H 15.50203 3.0311231 Z M 27.020298,16 V 10.976996 H 15.50203 3.9837618 V 16 21.023004 H 15.50203 27.020298 Z"
     id="path5" />
</svg>
