<?xml version="1.0" encoding="UTF-8" standalone="no"?>
<svg
   version="1.1"
   viewBox="0 0 32 32"
   id="svg2"
   sodipodi:docname="call-missed.svg"
   inkscape:version="1.3.2 (091e20ef0f, 2023-11-25, custom)"
   xmlns:inkscape="http://www.inkscape.org/namespaces/inkscape"
   xmlns:sodipodi="http://sodipodi.sourceforge.net/DTD/sodipodi-0.dtd"
   xmlns="http://www.w3.org/2000/svg"
   xmlns:svg="http://www.w3.org/2000/svg">
  <defs
     id="defs2" />
  <sodipodi:namedview
     id="namedview2"
     pagecolor="#505050"
     bordercolor="#ffffff"
     borderopacity="1"
     inkscape:showpageshadow="0"
     inkscape:pageopacity="0"
     inkscape:pagecheckerboard="1"
     inkscape:deskcolor="#d1d1d1"
     inkscape:zoom="23.09375"
     inkscape:cx="15.978349"
     inkscape:cy="15.978349"
     inkscape:window-width="2560"
     inkscape:window-height="1388"
     inkscape:window-x="2560"
     inkscape:window-y="28"
     inkscape:window-maximized="1"
     inkscape:current-layer="svg2" />
  <style
     id="current-color-scheme"
     type="text/css">.ColorScheme-Text{color:#232629;}.ColorScheme-NegativeText { color: #da4453; } </style>
  <path
     class="ColorScheme-Text"
     d="m12.002 19.002c-3.424 0-6.377 1.842-8 4.578v2.088s0 1.333 1.333 1.333h4c1.334 0 1.334-1.333 1.334-1.333v-.667c0-1.108.892-2 2-2h6.666c1.108 0 2 .892 2 2v.667s0 1.333 1.334 1.333h4c1.333 0 1.333-1.333 1.333-1.333v-2.088c-1.623-2.736-4.576-4.578-8-4.578z"
     fill="currentColor"
     id="path1" />
  <path
     class="ColorScheme-NegativeText"
     d="M 5.5,5.7929688 4.792969,6.5 16,17.707031 27,6.7070312 V 11 h 1 V 5 h -6 v 1 h 4.292969 L 16,16.292969 Z"
     fill="currentColor"
     id="path2" />
  <path
     style="fill:#ffffff;stroke:#cccccc;stroke-width:0.0433018"
     d="M 5.062861,26.956144 C 4.6507301,26.883798 4.3281422,26.631486 4.1483615,26.240866 4.0530051,26.03368 4.0481409,25.971538 4.0353942,24.797667 l -0.01332,-1.22669 0.2839944,-0.422532 c 1.5513625,-2.308141 4.0212721,-3.797477 6.7575304,-4.07474 0.329493,-0.03339 1.94459,-0.04352 5.239513,-0.03287 5.206729,0.01683 4.943382,0.0047 6.018341,0.277012 2.174678,0.550883 4.17681,1.991436 5.423602,3.902335 l 0.232833,0.356852 -0.0133,1.223662 c -0.01282,1.179011 -0.01703,1.231921 -0.115635,1.450003 -0.125943,0.278556 -0.396029,0.534392 -0.679638,0.643774 -0.200864,0.07747 -0.355861,0.08252 -2.530613,0.08252 H 22.322058 L 22.07506,26.855701 c -0.286443,-0.140663 -0.437839,-0.303758 -0.590832,-0.636489 -0.09828,-0.213729 -0.112487,-0.313673 -0.138548,-0.974289 -0.02407,-0.610128 -0.04513,-0.775887 -0.123041,-0.968394 -0.185772,-0.459014 -0.547431,-0.858291 -0.97339,-1.074638 -0.44401,-0.225515 -0.508836,-0.228944 -4.29255,-0.227063 -3.172523,0.0016 -3.534654,0.0088 -3.792419,0.07614 -0.664048,0.173346 -1.225157,0.709133 -1.435611,1.370826 -0.02279,0.07167 -0.05562,0.45182 -0.07296,0.844783 -0.02886,0.654347 -0.04181,0.737355 -0.153838,0.986281 -0.135167,0.300335 -0.327325,0.494359 -0.6268726,0.63296 -0.1915275,0.08862 -0.2590397,0.09137 -2.4054477,0.09816 -1.2146144,0.0038 -2.297626,-0.0087 -2.4066925,-0.02783 z"
     id="path3" />
</svg>
