<?xml version="1.0" encoding="UTF-8" standalone="no"?>
<svg
   width="32"
   height="32"
   version="1.1"
   id="svg1"
   sodipodi:docname="input-keyboard-battery.svg"
   inkscape:version="1.3.2 (091e20ef0f, 2023-11-25, custom)"
   xmlns:inkscape="http://www.inkscape.org/namespaces/inkscape"
   xmlns:sodipodi="http://sodipodi.sourceforge.net/DTD/sodipodi-0.dtd"
   xmlns="http://www.w3.org/2000/svg"
   xmlns:svg="http://www.w3.org/2000/svg">
  <defs
     id="defs1" />
  <sodipodi:namedview
     id="namedview1"
     pagecolor="#505050"
     bordercolor="#ffffff"
     borderopacity="1"
     inkscape:showpageshadow="0"
     inkscape:pageopacity="0"
     inkscape:pagecheckerboard="1"
     inkscape:deskcolor="#d1d1d1"
     inkscape:zoom="23.09375"
     inkscape:cx="15.978349"
     inkscape:cy="15.978349"
     inkscape:window-width="2560"
     inkscape:window-height="1388"
     inkscape:window-x="2560"
     inkscape:window-y="28"
     inkscape:window-maximized="1"
     inkscape:current-layer="svg1" />
  <style
     type="text/css"
     id="current-color-scheme">.ColorScheme-Text{color:#31363b;}.ColorScheme-Background{color:#eff0f1;}.ColorScheme-Highlight{color:#3daee9;}.ColorScheme-ViewText{color:#31363b;}.ColorScheme-ViewBackground{color:#fcfcfc;}.ColorScheme-ViewHover{color:#93cee9;}.ColorScheme-ViewFocus{color:#3daee9;}.ColorScheme-ButtonText{color:#31363b;}.ColorScheme-ButtonBackground{color:#eff0f1;}.ColorScheme-ButtonHover{color:#93cee9;}.ColorScheme-ButtonFocus { color: #3daee9; } </style>
  <g
     id="input-keyboard-battery"
     transform="translate(-332,-428.36237) translate(-38,-128)">
    <rect
       x="370"
       y="556.36237"
       width="32"
       height="32"
       ry="0"
       fill="none"
       id="rect1" />
    <path
       class="ColorScheme-Text"
       transform="translate(332,428.36237)"
       d="m44 132v20l10 4 10-4v-11h-1v8h-18v-16h14v-1zm18 0-2 5h2v3l2-5h-2zm-8.59375 4-4.40625 10h1.300781l1.322266-3h4.722656l1.349609 3h1.304688l-4.5-10zm0.552734 1.69531 1.9375 4.30469h-3.833984zm-8.958984 12.30469h18v1h-18z"
       fill="currentColor"
       id="path1" />
  </g>
  <path
     style="fill:#ffffff;stroke:#cccccc;stroke-width:0.0433018"
     d="m 11.041949,17.973521 c 0,-0.0101 0.225795,-0.531342 0.501767,-1.158322 0.275971,-0.626979 0.733347,-1.666079 1.01639,-2.30911 0.283043,-0.643031 1.038753,-2.35778 1.679356,-3.810554 l 1.164732,-2.6414078 h 0.549592 0.549593 l 2.227336,4.9497718 c 1.225035,2.722374 2.227336,4.958369 2.227336,4.968877 0,0.01051 -0.280204,0.0191 -0.622675,0.0191 h -0.622675 l -0.327374,-0.7253 C 19.20527,16.867659 18.904551,16.200271 18.717061,15.783491 L 18.37617,15.02571 h -2.392335 -2.392334 l -0.653368,1.483086 -0.653367,1.483085 h -0.621409 c -0.341775,0 -0.621408,-0.0083 -0.621408,-0.01836 z m 6.737665,-4.27934 c -0.07831,-0.172665 -0.508843,-1.132341 -0.956732,-2.132611 -0.447889,-1.000271 -0.827824,-1.8341304 -0.8443,-1.8530214 -0.02546,-0.029192 -1.836218,4.0066854 -1.89507,4.2237924 -0.01934,0.07134 0.09238,0.07578 1.908974,0.07578 h 1.929515 z"
     id="path2" />
  <path
     style="fill:#ffffff;stroke:#cccccc;stroke-width:0.0433018"
     d="M 24.032476,10.399639 V 8.985115 h -1.000573 c -0.93462,0 -0.998746,-0.00499 -0.97285,-0.075778 0.01525,-0.041678 0.450891,-1.1356267 0.968097,-2.4309973 l 0.940374,-2.3552193 0.0114,1.4567077 0.0114,1.4567079 h 0.978763 c 0.911318,0 0.977312,0.00522 0.957688,0.075778 -0.0292,0.104974 -1.854866,4.661495 -1.87667,4.683807 -0.0097,0.0099 -0.01763,-0.618494 -0.01763,-1.396482 z"
     id="path3" />
  <path
     style="fill:#ffffff;stroke:#cccccc;stroke-width:0.0433018"
     d="M 11.010094,25.983214 6.0201877,23.989175 6.0195661,13.997294 6.0189445,4.0054127 h 7.4912045 7.491204 V 4.5033829 5.0013532 H 13.986468 6.9715832 v 8.0108258 8.010825 H 16 25.028417 v -4.005413 -4.005412 h 0.476319 0.476319 l -6.29e-4,5.488498 -6.3e-4,5.488498 -4.989898,1.994039 L 16,27.977254 Z m 14.018323,-3.48795 V 21.975643 H 16 6.9715832 v 0.519621 0.519621 H 16 25.028417 Z"
     id="path4" />
</svg>
