<?xml version="1.0" encoding="UTF-8" standalone="no"?>
<svg
   width="32"
   height="32"
   version="1.1"
   id="svg1"
   sodipodi:docname="input-caps-on.svg"
   inkscape:version="1.3.2 (091e20ef0f, 2023-11-25, custom)"
   xmlns:inkscape="http://www.inkscape.org/namespaces/inkscape"
   xmlns:sodipodi="http://sodipodi.sourceforge.net/DTD/sodipodi-0.dtd"
   xmlns="http://www.w3.org/2000/svg"
   xmlns:svg="http://www.w3.org/2000/svg">
  <defs
     id="defs1" />
  <sodipodi:namedview
     id="namedview1"
     pagecolor="#505050"
     bordercolor="#ffffff"
     borderopacity="1"
     inkscape:showpageshadow="0"
     inkscape:pageopacity="0"
     inkscape:pagecheckerboard="1"
     inkscape:deskcolor="#d1d1d1"
     inkscape:zoom="23.09375"
     inkscape:cx="15.978349"
     inkscape:cy="15.978349"
     inkscape:window-width="2560"
     inkscape:window-height="1388"
     inkscape:window-x="2560"
     inkscape:window-y="28"
     inkscape:window-maximized="1"
     inkscape:current-layer="svg1" />
  <style
     type="text/css"
     id="current-color-scheme">.ColorScheme-Text{color:#31363b;}.ColorScheme-Background{color:#eff0f1;}.ColorScheme-Highlight{color:#3daee9;}.ColorScheme-ViewText{color:#31363b;}.ColorScheme-ViewBackground{color:#fcfcfc;}.ColorScheme-ViewHover{color:#93cee9;}.ColorScheme-ViewFocus{color:#3daee9;}.ColorScheme-ButtonText{color:#31363b;}.ColorScheme-ButtonBackground{color:#eff0f1;}.ColorScheme-ButtonHover{color:#93cee9;}.ColorScheme-ButtonFocus { color: #3daee9; } </style>
  <g
     id="input-caps-on"
     transform="translate(19,48.000003) translate(-38,-160)">
    <rect
       x="19"
       y="112"
       width="32"
       height="32"
       opacity=".00100002"
       id="rect1" />
    <path
       class="ColorScheme-Text"
       d="m25 116v20l10 4 10-4v-20h-1zm1 1h18v16h-18zm8.40625 3-4.40625 10h1.30078l1.32227-3h4.72265l1.34961 3h1.30469l-4.5-10zm0.55273 1.69531 1.9375 4.30469h-3.83398zm-8.95898 12.30469h18v1h-18z"
       fill="currentColor"
       id="path1" />
  </g>
  <path
     style="fill:#ffffff;stroke:#cccccc;stroke-width:0.0433018"
     d="M 11.010094,25.983214 6.0201877,23.989175 6.0195661,13.997294 6.0189445,4.0054127 H 16 25.981055 l -6.29e-4,9.9918813 -6.3e-4,9.991881 -4.989898,1.994039 L 16,27.977254 Z m 14.018323,-3.48795 V 21.975643 H 16 6.9715832 v 0.519621 0.519621 H 16 25.028417 Z m 0,-9.483085 V 5.0013532 H 16 6.9715832 v 8.0108258 8.010825 H 16 25.028417 Z"
     id="path2" />
  <path
     style="fill:#ffffff;stroke:#cccccc;stroke-width:0.0433018"
     d="m 11.041949,17.973521 c 0,-0.0101 0.225795,-0.531342 0.501767,-1.158322 0.275971,-0.626979 0.733347,-1.666079 1.01639,-2.30911 0.283043,-0.643031 1.038753,-2.35778 1.679356,-3.810554 l 1.164732,-2.6414078 h 0.549592 0.549593 l 2.227336,4.9497718 c 1.225035,2.722374 2.227336,4.958369 2.227336,4.968877 0,0.01051 -0.280204,0.0191 -0.622675,0.0191 h -0.622675 l -0.327374,-0.7253 C 19.20527,16.867659 18.904551,16.200271 18.717061,15.783491 L 18.37617,15.02571 h -2.392335 -2.392334 l -0.653368,1.483086 -0.653367,1.483085 h -0.621409 c -0.341775,0 -0.621408,-0.0083 -0.621408,-0.01836 z m 6.368171,-5.102073 c -0.28053,-0.625169 -0.71075,-1.584844 -0.956046,-2.132612 -0.245296,-0.547767 -0.459346,-1.0113716 -0.475665,-1.0302323 -0.02518,-0.029102 -1.835062,4.0055043 -1.894722,4.2237373 -0.0195,0.07135 0.0921,0.07578 1.907886,0.07578 h 1.928602 z"
     id="path3" />
</svg>
