<?xml version="1.0" encoding="UTF-8" standalone="no"?>
<svg
   width="32"
   height="32"
   version="1.1"
   id="svg8"
   sodipodi:docname="input-keyboard-virtual-off.svg"
   inkscape:version="1.3.2 (091e20ef0f, 2023-11-25, custom)"
   xmlns:inkscape="http://www.inkscape.org/namespaces/inkscape"
   xmlns:sodipodi="http://sodipodi.sourceforge.net/DTD/sodipodi-0.dtd"
   xmlns="http://www.w3.org/2000/svg"
   xmlns:svg="http://www.w3.org/2000/svg">
  <sodipodi:namedview
     id="namedview1"
     pagecolor="#505050"
     bordercolor="#ffffff"
     borderopacity="1"
     inkscape:showpageshadow="0"
     inkscape:pageopacity="0"
     inkscape:pagecheckerboard="1"
     inkscape:deskcolor="#d1d1d1"
     inkscape:zoom="23.09375"
     inkscape:cx="15.978349"
     inkscape:cy="15.978349"
     inkscape:window-width="2560"
     inkscape:window-height="1388"
     inkscape:window-x="2560"
     inkscape:window-y="28"
     inkscape:window-maximized="1"
     inkscape:current-layer="svg8" />
  <defs
     id="defs12" />
  <namedview
     id="namedview10"
     pagecolor="#ffffff"
     bordercolor="#000000"
     borderopacity="0.25"
     inkscape:showpageshadow="2"
     inkscape:pageopacity="0.0"
     inkscape:pagecheckerboard="0"
     inkscape:deskcolor="#d1d1d1"
     showgrid="false"
     inkscape:zoom="18.222413"
     inkscape:cx="15.64008"
     inkscape:cy="30.402121"
     inkscape:window-width="1920"
     inkscape:window-height="1011"
     inkscape:window-x="0"
     inkscape:window-y="0"
     inkscape:window-maximized="1"
     inkscape:current-layer="svg8" />
  <style
     type="text/css"
     id="current-color-scheme">.ColorScheme-Text{color:#31363b;}.ColorScheme-Background{color:#eff0f1;}.ColorScheme-Highlight{color:#3daee9;}.ColorScheme-ViewText{color:#31363b;}.ColorScheme-ViewBackground{color:#fcfcfc;}.ColorScheme-ViewHover{color:#93cee9;}.ColorScheme-ViewFocus{color:#3daee9;}.ColorScheme-ButtonText{color:#31363b;}.ColorScheme-ButtonBackground{color:#eff0f1;}.ColorScheme-ButtonHover{color:#93cee9;}.ColorScheme-ButtonFocus { color: #3daee9; } </style>
  <g
     id="input-keyboard-virtual-off"
     transform="scale(1.4545455)">
    <rect
       width="22"
       height="22"
       fill="none"
       id="rect3"
       x="0"
       y="0" />
    <path
       class="ColorScheme-Text"
       transform="matrix(0.68749998,0,0,0.68749998,-15.124999,22.000003)"
       d="m 25,-21 v 17 h 26 v -17 z m 1,1 h 24 v 2 H 26 Z m 0,3 H 50 V -5 H 26 Z m 1,2 v 2 h 1 v -2 z m 2,0 v 2 h 2 v -2 z m 3,0 v 2 h 2 v -2 z m 3,0 v 2 h 2 v -2 z m 3,0 v 2 h 2 v -2 z m 3,0 v 2 h 2 v -2 z m 3,0 v 2 h 2 v -2 z m 3,0 v 2 h 2 v -2 z m -20,3 v 2 h 3 v -2 z m 4,0 v 2 h 2 v -2 z m 3,0 v 2 h 2 v -2 z m 3,0 v 2 h 2 v -2 z m 3,0 v 2 h 2 v -2 z m 3,0 v 2 h 2 v -2 z m 3,0 v 2 h 3 v -2 z m -19,3 v 2 h 2 v -2 z m 3,0 v 2 h 2 v -2 z m 3,0 v 2 h 10 v -2 z m 11,0 v 2 h 2 v -2 z m 3,0 v 2 h 2 v -2 z"
       fill="currentColor"
       id="path5" />
  </g>
  <path
     style="fill:#ffffff;stroke:#cccccc;stroke-width:0.0433018"
     d="M 3.0311231,19.507442 V 11.020298 H 16 28.968877 v 8.487144 8.487145 H 16 3.0311231 Z m 24.9744419,1.483086 -0.01098,-6.008119 H 16 4.0054127 l -0.010977,6.008119 -0.010977,6.008119 H 16 28.016542 Z m 0.01067,-8 V 11.972936 H 16 3.9837618 v 1.017592 1.017591 H 16 28.016238 Z"
     id="path1" />
  <path
     style="fill:#ffffff;stroke:#cccccc;stroke-width:0.0433018"
     d="m 7.014885,18.013532 v -0.97429 h 0.9742896 0.9742895 v 0.97429 0.974289 H 7.9891746 7.014885 Z"
     id="path2" />
  <path
     style="fill:#ffffff;stroke:#cccccc;stroke-width:0.0433018"
     d="m 5.0230041,18.013532 v -0.97429 h 0.4763193 0.4763194 v 0.97429 0.974289 H 5.4993234 5.0230041 Z"
     id="path3" />
  <path
     style="fill:#ffffff;stroke:#cccccc;stroke-width:0.0433018"
     d="m 5.0230041,21.001353 v -0.974289 h 1.4722598 1.4722598 v 0.974289 0.97429 H 6.4952639 5.0230041 Z"
     id="path4" />
  <path
     style="fill:#ffffff;stroke:#cccccc;stroke-width:0.0433018"
     d="m 5.0230041,23.989175 v -0.97429 h 0.9742895 0.9742896 v 0.97429 0.974289 H 5.9972936 5.0230041 Z"
     id="path6" />
  <path
     style="fill:#ffffff;stroke:#cccccc;stroke-width:0.0433018"
     d="m 8.0108254,23.989175 v -0.97429 H 8.985115 9.9594046 v 0.97429 0.974289 H 8.985115 8.0108254 Z"
     id="path7" />
  <path
     style="fill:#ffffff;stroke:#cccccc;stroke-width:0.0433018"
     d="m 9.0067659,21.001353 v -0.974289 h 0.9959401 0.995941 v 0.974289 0.97429 H 10.002706 9.0067659 Z"
     id="path8" />
  <path
     style="fill:#ffffff;stroke:#cccccc;stroke-width:0.0433018"
     d="m 10.002706,18.013532 v -0.97429 h 0.995941 0.99594 v 0.97429 0.974289 h -0.99594 -0.995941 z"
     id="path9" />
  <path
     style="fill:#ffffff;stroke:#cccccc;stroke-width:0.0433018"
     d="m 13.033829,18.013532 v -0.97429 h 0.97429 0.97429 v 0.97429 0.974289 h -0.97429 -0.97429 z"
     id="path10" />
  <path
     style="fill:#ffffff;stroke:#cccccc;stroke-width:0.0433018"
     d="m 12.037889,21.001353 v -0.974289 h 0.97429 0.974289 v 0.974289 0.97429 h -0.974289 -0.97429 z"
     id="path11" />
  <path
     style="fill:#ffffff;stroke:#cccccc;stroke-width:0.0433018"
     d="M 15.02571,21.001353 V 20.027064 H 16 16.97429 v 0.974289 0.97429 H 16 15.02571 Z"
     id="path12" />
  <path
     style="fill:#ffffff;stroke:#cccccc;stroke-width:0.0433018"
     d="m 16.021651,18.013532 v -0.97429 h 0.974289 0.97429 v 0.97429 0.974289 h -0.97429 -0.974289 z"
     id="path13" />
  <path
     style="fill:#ffffff;stroke:#cccccc;stroke-width:0.0433018"
     d="m 19.009472,18.013532 v -0.97429 h 0.995941 0.99594 v 0.97429 0.974289 h -0.99594 -0.995941 z"
     id="path14" />
  <path
     style="fill:#ffffff;stroke:#cccccc;stroke-width:0.0433018"
     d="m 18.013532,21.001353 v -0.974289 h 0.974289 0.97429 v 0.974289 0.97429 h -0.97429 -0.974289 z"
     id="path15" />
  <path
     style="fill:#ffffff;stroke:#cccccc;stroke-width:0.0433018"
     d="m 21.001353,21.001353 v -0.974289 h 0.995941 0.99594 v 0.974289 0.97429 h -0.99594 -0.995941 z"
     id="path16" />
  <path
     style="fill:#ffffff;stroke:#cccccc;stroke-width:0.0433018"
     d="m 22.040595,18.013532 v -0.97429 h 0.97429 0.97429 v 0.97429 0.974289 h -0.97429 -0.97429 z"
     id="path17" />
  <path
     style="fill:#ffffff;stroke:#cccccc;stroke-width:0.0433018"
     d="m 25.028417,18.013532 v -0.97429 h 0.974289 0.97429 v 0.97429 0.974289 h -0.97429 -0.974289 z"
     id="path18" />
  <path
     style="fill:#ffffff;stroke:#cccccc;stroke-width:0.0433018"
     d="m 24.032476,21.001353 v -0.974289 h 1.47226 1.47226 v 0.974289 0.97429 h -1.47226 -1.47226 z"
     id="path19" />
  <path
     style="fill:#ffffff;stroke:#cccccc;stroke-width:0.0433018"
     d="m 22.040595,23.989175 v -0.97429 h 0.97429 0.97429 v 0.97429 0.974289 h -0.97429 -0.97429 z"
     id="path20" />
  <path
     style="fill:#ffffff;stroke:#cccccc;stroke-width:0.0433018"
     d="m 25.028417,23.989175 v -0.97429 h 0.974289 0.97429 v 0.97429 0.974289 h -0.97429 -0.974289 z"
     id="path21" />
  <path
     style="fill:#ffffff;stroke:#cccccc;stroke-width:0.0433018"
     d="m 10.998647,23.989175 v -0.97429 H 16 21.001353 v 0.97429 0.974289 H 16 10.998647 Z"
     id="path22" />
</svg>
