<?xml version="1.0" encoding="UTF-8" standalone="no"?>
<svg
   width="32"
   height="32"
   version="1.1"
   id="svg1"
   sodipodi:docname="input-num-on.svg"
   inkscape:version="1.3.2 (091e20ef0f, 2023-11-25, custom)"
   xmlns:inkscape="http://www.inkscape.org/namespaces/inkscape"
   xmlns:sodipodi="http://sodipodi.sourceforge.net/DTD/sodipodi-0.dtd"
   xmlns="http://www.w3.org/2000/svg"
   xmlns:svg="http://www.w3.org/2000/svg">
  <defs
     id="defs1" />
  <sodipodi:namedview
     id="namedview1"
     pagecolor="#505050"
     bordercolor="#ffffff"
     borderopacity="1"
     inkscape:showpageshadow="0"
     inkscape:pageopacity="0"
     inkscape:pagecheckerboard="1"
     inkscape:deskcolor="#d1d1d1"
     inkscape:zoom="23.09375"
     inkscape:cx="15.978349"
     inkscape:cy="15.978349"
     inkscape:window-width="2560"
     inkscape:window-height="1388"
     inkscape:window-x="2560"
     inkscape:window-y="28"
     inkscape:window-maximized="1"
     inkscape:current-layer="svg1" />
  <style
     type="text/css"
     id="current-color-scheme">.ColorScheme-Text{color:#31363b;}.ColorScheme-Background{color:#eff0f1;}.ColorScheme-Highlight{color:#3daee9;}.ColorScheme-ViewText{color:#31363b;}.ColorScheme-ViewBackground{color:#fcfcfc;}.ColorScheme-ViewHover{color:#93cee9;}.ColorScheme-ViewFocus{color:#3daee9;}.ColorScheme-ButtonText{color:#31363b;}.ColorScheme-ButtonBackground{color:#eff0f1;}.ColorScheme-ButtonHover{color:#93cee9;}.ColorScheme-ButtonFocus { color: #3daee9; } </style>
  <g
     id="input-num-on"
     transform="translate(19,79.999986) translate(-38,-192)">
    <rect
       x="19"
       y="112"
       width="32"
       height="32"
       opacity=".00100002"
       id="rect1" />
    <path
       class="ColorScheme-Text"
       d="m25 116v20l10 4 10-4v-20h-1zm1 1h18v16h-18zm9 3v2h-2v1h2v6h-2v1h5v-1h-2v-9zm-9 14h18v1h-18z"
       fill="currentColor"
       id="path1" />
  </g>
  <path
     style="fill:#ffffff;stroke:#cccccc;stroke-width:0.0433018"
     d="M 14.02977,17.493911 V 16.99594 h 0.99594 0.995941 V 13.986468 10.976996 H 15.02571 14.02977 v -0.476319 -0.47632 h 0.99594 0.995941 V 9.0284168 8.0324763 h 0.476319 0.47632 v 4.4817317 4.481732 h 0.99594 0.995941 v 0.497971 0.49797 h -2.468201 -2.4682 z"
     id="path2" />
  <path
     style="fill:#ffffff;stroke:#cccccc;stroke-width:0.0433018"
     d="M 11.010094,25.983214 6.0201877,23.989175 6.0195661,13.997294 6.0189445,4.0054127 H 16 25.981055 l -6.29e-4,9.9918813 -6.3e-4,9.991881 -4.989898,1.994039 L 16,27.977254 Z m 14.018323,-3.48795 V 21.975643 H 16 6.9715832 v 0.519621 0.519621 H 16 25.028417 Z m 0,-9.483085 V 5.0013532 H 16 6.9715832 v 8.0108258 8.010825 H 16 25.028417 Z"
     id="path3" />
</svg>
