<?xml version="1.0" encoding="UTF-8" standalone="no"?>
<svg
   width="32"
   height="32"
   version="1.1"
   id="svg2"
   sodipodi:docname="input-keyboard-brightness.svg"
   inkscape:version="1.3.2 (091e20ef0f, 2023-11-25, custom)"
   xmlns:inkscape="http://www.inkscape.org/namespaces/inkscape"
   xmlns:sodipodi="http://sodipodi.sourceforge.net/DTD/sodipodi-0.dtd"
   xmlns="http://www.w3.org/2000/svg"
   xmlns:svg="http://www.w3.org/2000/svg">
  <defs
     id="defs2" />
  <sodipodi:namedview
     id="namedview2"
     pagecolor="#505050"
     bordercolor="#ffffff"
     borderopacity="1"
     inkscape:showpageshadow="0"
     inkscape:pageopacity="0"
     inkscape:pagecheckerboard="1"
     inkscape:deskcolor="#d1d1d1"
     inkscape:zoom="23.09375"
     inkscape:cx="15.978349"
     inkscape:cy="15.978349"
     inkscape:window-width="2560"
     inkscape:window-height="1388"
     inkscape:window-x="2560"
     inkscape:window-y="28"
     inkscape:window-maximized="1"
     inkscape:current-layer="svg2" />
  <style
     type="text/css"
     id="current-color-scheme">.ColorScheme-Text{color:#31363b;}.ColorScheme-Background{color:#eff0f1;}.ColorScheme-Highlight{color:#3daee9;}.ColorScheme-ViewText{color:#31363b;}.ColorScheme-ViewBackground{color:#fcfcfc;}.ColorScheme-ViewHover{color:#93cee9;}.ColorScheme-ViewFocus{color:#3daee9;}.ColorScheme-ButtonText{color:#31363b;}.ColorScheme-ButtonBackground{color:#eff0f1;}.ColorScheme-ButtonHover{color:#93cee9;}.ColorScheme-ButtonFocus { color: #3daee9; } </style>
  <g
     id="input-keyboard-brightness"
     transform="translate(-364,-460.36237) translate(-38,-96)">
    <rect
       x="402"
       y="556.36237"
       width="32"
       height="32"
       ry="0"
       fill="none"
       id="rect1" />
    <path
       class="ColorScheme-Text"
       transform="translate(364,460.36237)"
       d="m44 100v20l10 4 10-4v-10h-1v7h-18v-16h12v-1zm9.40625 4-4.40625 10h1.300781l1.322266-3h4.722656l1.349609 3h1.304688l-4.5-10zm0.552734 1.69531 1.9375 4.30469h-3.833984zm-8.958984 12.30469h18v1h-18z"
       fill="currentColor"
       id="path1" />
    <path
       class="ColorScheme-Text"
       transform="translate(326,534.3622)"
       d="m100 25c-0.277 0-0.5 0.223-0.5 0.5v1c0 0.277 0.223 0.5 0.5 0.5s0.5-0.223 0.5-0.5v-1c0-0.277-0.223-0.5-0.5-0.5zm-3.181641 1.318359c-0.127809 0-0.255581 0.04855-0.353515 0.146485-0.195869 0.195868-0.195869 0.511162 0 0.707031l0.707031 0.707031c0.195869 0.195869 0.511163 0.195869 0.707031 0 0.195869-0.195868 0.195869-0.511162 0-0.707031l-0.707031-0.707031c-0.09793-0.09793-0.225706-0.146485-0.353516-0.146485zm6.363281 0c-0.12781 0-0.25558 0.04855-0.35352 0.146485l-0.70703 0.707031c-0.19586 0.195869-0.19586 0.511163 0 0.707031 0.19587 0.195869 0.51117 0.195869 0.70703 0l0.70704-0.707031c0.19586-0.195869 0.19586-0.511163 0-0.707031-0.0979-0.09793-0.22571-0.146485-0.35352-0.146485zm-3.18164 1.681641c-1.104569 0-2 0.895431-2 2s0.895431 2 2 2c1.10457 0 2-0.895431 2-2s-0.89543-2-2-2zm0 1v2c-0.552285 0-1-0.447715-1-1s0.447715-1 1-1zm-4.5 0.5c-0.277 0-0.5 0.223-0.5 0.5s0.223 0.5 0.5 0.5h1c0.277 0 0.5-0.223 0.5-0.5s-0.223-0.5-0.5-0.5zm8 0c-0.277 0-0.5 0.223-0.5 0.5s0.223 0.5 0.5 0.5h1c0.277 0 0.5-0.223 0.5-0.5s-0.223-0.5-0.5-0.5zm-5.974609 2.474609c-0.12781 0-0.255582 0.04855-0.353516 0.146485l-0.707031 0.707031c-0.195869 0.195869-0.195869 0.511163 0 0.707031 0.195868 0.195869 0.511162 0.195869 0.707031 0l0.707031-0.707031c0.195869-0.195869 0.195869-0.511163 0-0.707031-0.09793-0.09793-0.225706-0.146485-0.353515-0.146485zm4.949219 0c-0.12781 0-0.25558 0.04855-0.35352 0.146485-0.19586 0.195868-0.19586 0.511162 0 0.707031l0.70703 0.707031c0.19587 0.195869 0.51117 0.195869 0.70704 0 0.19586-0.195868 0.19586-0.511162 0-0.707031l-0.70704-0.707031c-0.0979-0.09793-0.2257-0.146485-0.35351-0.146485zm-2.47461 1.025391c-0.277 0-0.5 0.223-0.5 0.5v1c0 0.277 0.223 0.5 0.5 0.5s0.5-0.223 0.5-0.5v-1c0-0.277-0.223-0.5-0.5-0.5z"
       fill="currentColor"
       id="path2" />
  </g>
  <path
     style="fill:#ffffff;stroke:#cccccc;stroke-width:0.0433018"
     d="m 11.041949,17.973521 c 0,-0.0101 0.225795,-0.531342 0.501767,-1.158322 0.275971,-0.626979 0.733347,-1.666079 1.01639,-2.30911 0.283043,-0.643031 1.038753,-2.35778 1.679356,-3.810554 l 1.164732,-2.6414078 h 0.549592 0.549593 l 2.227336,4.9497718 c 1.225035,2.722374 2.227336,4.958369 2.227336,4.968877 0,0.01051 -0.280204,0.0191 -0.622675,0.0191 h -0.622675 l -0.327374,-0.7253 C 19.20527,16.867659 18.904551,16.200271 18.717061,15.783491 L 18.37617,15.02571 h -2.392335 -2.392334 l -0.653368,1.483086 -0.653367,1.483085 h -0.621409 c -0.341775,0 -0.621408,-0.0083 -0.621408,-0.01836 z m 6.737665,-4.27934 c -0.07831,-0.172665 -0.508843,-1.132341 -0.956732,-2.132611 -0.447889,-1.000271 -0.827824,-1.8341304 -0.8443,-1.8530214 -0.02546,-0.029192 -1.836218,4.0066854 -1.89507,4.2237924 -0.01934,0.07134 0.09238,0.07578 1.908974,0.07578 h 1.929515 z"
     id="path3" />
  <path
     style="fill:#ffffff;stroke:#cccccc;stroke-width:0.0433018"
     d="M 23.524311,9.9170911 C 22.733076,9.694267 22.137098,9.0359642 22.049799,8.2883813 c -0.04867,-0.4167544 0.0085,-0.785234 0.176647,-1.1387405 0.33593,-0.7062209 0.98846,-1.1133756 1.784362,-1.1133756 1.629157,0 2.540649,1.8501453 1.556491,3.1593643 -0.216243,0.2876672 -0.53699,0.526773 -0.886284,0.660695 -0.308865,0.118421 -0.850868,0.1468945 -1.156704,0.060767 z M 24.032476,8.0108254 V 6.9932341 H 23.90118 c -0.305449,0 -0.676256,0.2625278 -0.825679,0.5845737 -0.119563,0.2576895 -0.107603,0.6033302 0.03046,0.8803948 0.128209,0.2572814 0.320582,0.4225362 0.589701,0.5065725 0.363715,0.1135752 0.33681,0.1897776 0.33681,-0.9539497 z"
     id="path4" />
  <path
     style="fill:#ffffff;stroke:#cccccc;stroke-width:0.0433018"
     d="m 20.581925,11.585376 c -0.174998,-0.106704 -0.230098,-0.210792 -0.230098,-0.43467 0,-0.166825 0.0269,-0.206116 0.414615,-0.605679 0.228039,-0.235005 0.484158,-0.460282 0.569153,-0.500614 0.405813,-0.1925713 0.81287,0.257459 0.600684,0.664097 -0.08653,0.165837 -0.810279,0.86239 -0.952068,0.916298 -0.168006,0.06388 -0.24528,0.0563 -0.402286,-0.03943 z"
     id="path5" />
  <path
     style="fill:#ffffff;stroke:#cccccc;stroke-width:0.0433018"
     d="M 19.235369,8.3979127 C 18.987301,8.2241591 18.95513,7.8821198 19.166933,7.6703162 c 0.146621,-0.1466207 0.279641,-0.167469 0.958388,-0.1502087 0.531014,0.013504 0.573206,0.020979 0.678768,0.120267 0.217043,0.2041435 0.21739,0.5382785 7.55e-4,0.7276905 -0.10543,0.092181 -0.148103,0.097429 -0.792211,0.097429 -0.546823,0 -0.699764,-0.013298 -0.777264,-0.067581 z"
     id="path6" />
  <path
     style="fill:#ffffff;stroke:#cccccc;stroke-width:0.0433018"
     d="M 20.841045,5.5080759 C 20.363119,5.0301504 20.351849,5.0144082 20.35279,4.8260732 c 0.0015,-0.3002453 0.186018,-0.4742464 0.502913,-0.4742464 0.150177,0 0.20207,0.038914 0.652373,0.4892177 0.471802,0.4718021 0.489218,0.4958495 0.489218,0.6755075 0,0.1541232 -0.02542,0.2117111 -0.147226,0.3335157 -0.121805,0.1218045 -0.179393,0.1472259 -0.333516,0.1472259 -0.179658,0 -0.203705,-0.017416 -0.675507,-0.4892177 z"
     id="path7" />
  <path
     style="fill:#ffffff;stroke:#cccccc;stroke-width:0.0433018"
     d="m 23.67592,4.8318057 -0.141414,-0.1262458 -0.0144,-0.5732241 c -0.0079,-0.3152732 -0.0026,-0.6362516 0.01188,-0.7132854 0.05659,-0.3016485 0.404474,-0.4838467 0.665809,-0.3487051 0.249574,0.1290595 0.2677,0.1932511 0.2677,0.9480332 V 4.7049027 L 24.33892,4.831477 c -0.179556,0.1795557 -0.462082,0.1796958 -0.663,3.287e-4 z"
     id="path8" />
  <path
     style="fill:#ffffff;stroke:#cccccc;stroke-width:0.0433018"
     d="m 27.167524,8.3182679 c -0.165831,-0.1658303 -0.191077,-0.3351991 -0.08154,-0.5470195 0.11306,-0.2186333 0.25287,-0.2583932 0.908604,-0.2583932 0.628956,0 0.773752,0.036074 0.906709,0.2258964 0.141397,0.2018726 0.0417,0.5788406 -0.179773,0.6797507 -0.05956,0.027139 -0.378513,0.046992 -0.754954,0.046992 h -0.65182 z"
     id="path9" />
  <path
     style="fill:#ffffff;stroke:#cccccc;stroke-width:0.0433018"
     d="m 26.998647,11.61995 c -0.04763,-0.02598 -0.276554,-0.23446 -0.508716,-0.463285 -0.549383,-0.541487 -0.612756,-0.726485 -0.346369,-1.011124 0.132455,-0.14153 0.298532,-0.1843257 0.468672,-0.12077 0.202819,0.07576 1.009168,0.902547 1.039875,1.066228 0.06703,0.35728 -0.349732,0.694629 -0.653462,0.528951 z"
     id="path10" />
  <path
     style="fill:#ffffff;stroke:#cccccc;stroke-width:0.0433018"
     d="m 23.738752,12.901296 c -0.189822,-0.132957 -0.225897,-0.277753 -0.225897,-0.906709 0,-0.655734 0.03976,-0.795544 0.258393,-0.908604 0.211821,-0.109536 0.38119,-0.08429 0.54702,0.08154 l 0.147226,0.147226 v 0.651819 c 0,0.376441 -0.01985,0.695391 -0.04699,0.754954 -0.10091,0.221474 -0.477878,0.32117 -0.67975,0.179773 z"
     id="path11" />
  <path
     style="fill:#ffffff;stroke:#cccccc;stroke-width:0.0433018"
     d="m 26.188108,5.8996496 c -0.14809,-0.1223025 -0.219115,-0.3113557 -0.181693,-0.4836268 0.03174,-0.1461139 0.731943,-0.8965677 0.935954,-1.0031234 0.258422,-0.1349746 0.534128,-0.049511 0.666582,0.2066269 0.123999,0.2397873 0.05569,0.3896131 -0.385613,0.8457826 -0.218576,0.2259399 -0.450139,0.4380663 -0.514584,0.4713922 -0.173661,0.089803 -0.38528,0.074744 -0.520646,-0.037051 z"
     id="path12" />
  <path
     style="fill:#ffffff;stroke:#cccccc;stroke-width:0.0433018"
     d="M 11.010094,25.983214 6.0201877,23.989175 6.0195661,13.997294 6.0189445,4.0054127 h 6.4736135 6.473613 V 4.5033829 5.0013532 H 12.968877 6.9715832 v 8.0108258 8.010825 H 16 25.028417 v -3.507442 -3.507443 h 0.476319 0.476319 l -6.29e-4,4.990528 -6.3e-4,4.990528 -4.989898,1.994039 L 16,27.977254 Z m 14.018323,-3.48795 V 21.975643 H 16 6.9715832 v 0.519621 0.519621 H 16 25.028417 Z"
     id="path13" />
</svg>
