<?xml version="1.0" encoding="UTF-8" standalone="no"?>
<svg
   width="32"
   height="32"
   version="1.1"
   id="svg6"
   sodipodi:docname="keyboard-layout.svg"
   inkscape:version="1.3.2 (091e20ef0f, 2023-11-25, custom)"
   xmlns:inkscape="http://www.inkscape.org/namespaces/inkscape"
   xmlns:sodipodi="http://sodipodi.sourceforge.net/DTD/sodipodi-0.dtd"
   xmlns="http://www.w3.org/2000/svg"
   xmlns:svg="http://www.w3.org/2000/svg">
  <sodipodi:namedview
     id="namedview1"
     pagecolor="#505050"
     bordercolor="#ffffff"
     borderopacity="1"
     inkscape:showpageshadow="0"
     inkscape:pageopacity="0"
     inkscape:pagecheckerboard="1"
     inkscape:deskcolor="#d1d1d1"
     inkscape:zoom="23.09375"
     inkscape:cx="15.978349"
     inkscape:cy="15.978349"
     inkscape:window-width="2560"
     inkscape:window-height="1388"
     inkscape:window-x="2560"
     inkscape:window-y="28"
     inkscape:window-maximized="1"
     inkscape:current-layer="svg6" />
  <defs
     id="defs10" />
  <namedview
     id="namedview8"
     pagecolor="#ffffff"
     bordercolor="#000000"
     borderopacity="0.25"
     inkscape:showpageshadow="2"
     inkscape:pageopacity="0.0"
     inkscape:pagecheckerboard="0"
     inkscape:deskcolor="#d1d1d1"
     showgrid="false"
     inkscape:zoom="24.15625"
     inkscape:cx="13.785252"
     inkscape:cy="15.979301"
     inkscape:window-width="1920"
     inkscape:window-height="1011"
     inkscape:window-x="0"
     inkscape:window-y="0"
     inkscape:window-maximized="1"
     inkscape:current-layer="svg6" />
  <style
     type="text/css"
     id="current-color-scheme">.ColorScheme-Text{color:#31363b;}.ColorScheme-Background{color:#eff0f1;}.ColorScheme-Highlight{color:#3daee9;}.ColorScheme-ViewText{color:#31363b;}.ColorScheme-ViewBackground{color:#fcfcfc;}.ColorScheme-ViewHover{color:#93cee9;}.ColorScheme-ViewFocus{color:#3daee9;}.ColorScheme-ButtonText{color:#31363b;}.ColorScheme-ButtonBackground{color:#eff0f1;}.ColorScheme-ButtonHover{color:#93cee9;}.ColorScheme-ButtonFocus { color: #3daee9; } </style>
  <g
     id="keyboard-layout"
     transform="scale(1.4545455)">
    <rect
       y="0"
       x="0"
       height="22"
       width="22"
       id="rect4215"
       style="fill:none;fill-rule:evenodd;stroke:none;stroke-width:1px;stroke-linecap:butt;stroke-linejoin:miter;stroke-opacity:1" />
    <path
       id="path4217"
       transform="matrix(0.68749998,0,0,0.68749998,-15.124999,22.000003)"
       d="m 47,-28 c 0,0.839286 -0.09344,1.439871 -0.248047,1.845703 -0.154602,0.405832 -0.347892,0.621232 -0.628906,0.785156 C 45.561021,-25.041291 44.5,-25 43,-25 c -1.5,0 -2.935631,-0.0273 -4.099609,0.554688 -0.58199,0.290994 -1.080576,0.752947 -1.408203,1.408203 C 37.21931,-22.491354 37.067093,-21.815455 37.021484,-21 H 25 V -4 H 25.5 51 V -21 H 38.021484 c 0.04382,-0.685454 0.170932,-1.207097 0.361328,-1.587891 0.234873,-0.469744 0.548787,-0.757791 0.966797,-0.966797 C 40.185631,-23.972698 41.5,-24 43,-24 c 1.5,0 2.688979,0.04129 3.626953,-0.505859 0.468986,-0.273576 0.838197,-0.714426 1.058594,-1.292969 C 47.905944,-26.377371 48,-27.089286 48,-28 Z m -21,8 h 24 v 2 H 26 Z m 0,3 H 50 V -5 H 26 Z m 1,2 v 2 h 1 v -2 z m 2,0 v 2 h 2 v -2 z m 3,0 v 2 h 2 v -2 z m 3,0 v 2 h 2 v -2 z m 3,0 v 2 h 2 v -2 z m 3,0 v 2 h 2 v -2 z m 3,0 v 2 h 2 v -2 z m 3,0 v 2 h 2 v -2 z m -20,3 v 2 h 3 v -2 z m 4,0 v 2 h 2 v -2 z m 3,0 v 2 h 2 v -2 z m 3,0 v 2 h 2 v -2 z m 3,0 v 2 h 2 v -2 z m 3,0 v 2 h 2 v -2 z m 3,0 v 2 h 3 v -2 z m -19,3 v 2 h 2 v -2 z m 3,0 v 2 h 2 v -2 z m 3,0 v 2 h 10 v -2 z m 11,0 v 2 h 2 v -2 z m 3,0 v 2 h 2 v -2 z"
       class="ColorScheme-Text"
       style="fill:currentColor;fill-opacity:1;stroke:none" />
  </g>
  <path
     style="fill:#ffffff;stroke:#cccccc;stroke-width:0.0433018"
     d="M 13.033829,17.991881 V 16.99594 h 0.97429 0.97429 v 0.995941 0.99594 h -0.97429 -0.97429 z"
     id="path1" />
  <path
     style="fill:#ffffff;stroke:#cccccc;stroke-width:0.0433018"
     d="M 10.002706,17.991881 V 16.99594 h 0.995941 0.99594 v 0.995941 0.99594 h -0.99594 -0.995941 z"
     id="path2" />
  <path
     style="fill:#ffffff;stroke:#cccccc;stroke-width:0.0433018"
     d="M 7.014885,17.991881 V 16.99594 h 0.9742896 0.9742895 v 0.995941 0.99594 H 7.9891746 7.014885 Z"
     id="path3" />
  <path
     style="fill:#ffffff;stroke:#cccccc;stroke-width:0.0433018"
     d="M 5.0230041,17.991881 V 16.99594 h 0.4763193 0.4763194 v 0.995941 0.99594 H 5.4993234 5.0230041 Z"
     id="path4" />
  <path
     style="fill:#ffffff;stroke:#cccccc;stroke-width:0.0433018"
     d="m 5.0230041,21.001353 v -0.974289 h 1.4722598 1.4722598 v 0.974289 0.97429 H 6.4952639 5.0230041 Z"
     id="path5" />
  <path
     style="fill:#ffffff;stroke:#cccccc;stroke-width:0.0433018"
     d="m 5.0230041,23.989175 v -0.97429 h 0.9742895 0.9742896 v 0.97429 0.974289 H 5.9972936 5.0230041 Z"
     id="path6" />
  <path
     style="fill:#ffffff;stroke:#cccccc;stroke-width:0.0433018"
     d="m 8.0108254,23.989175 v -0.97429 h 0.9959405 0.9959401 v 0.97429 0.974289 H 9.0067659 8.0108254 Z"
     id="path7" />
  <path
     style="fill:#ffffff;stroke:#cccccc;stroke-width:0.0433018"
     d="m 9.0067659,21.001353 v -0.974289 h 0.9959401 0.995941 v 0.974289 0.97429 H 10.002706 9.0067659 Z"
     id="path8" />
  <path
     style="fill:#ffffff;stroke:#cccccc;stroke-width:0.0433018"
     d="m 12.037889,21.001353 v -0.974289 h 0.97429 0.974289 v 0.974289 0.97429 h -0.974289 -0.97429 z"
     id="path9" />
  <path
     style="fill:#ffffff;stroke:#cccccc;stroke-width:0.0433018"
     d="m 10.998647,23.989175 v -0.97429 H 16 21.001353 v 0.97429 0.974289 H 16 10.998647 Z"
     id="path10" />
  <path
     style="fill:#ffffff;stroke:#cccccc;stroke-width:0.0433018"
     d="M 15.02571,21.001353 V 20.027064 H 16 16.97429 v 0.974289 0.97429 H 16 15.02571 Z"
     id="path11" />
  <path
     style="fill:#ffffff;stroke:#cccccc;stroke-width:0.0433018"
     d="m 18.013532,21.001353 v -0.974289 h 0.974289 0.97429 v 0.974289 0.97429 h -0.97429 -0.974289 z"
     id="path12" />
  <path
     style="fill:#ffffff;stroke:#cccccc;stroke-width:0.0433018"
     d="m 19.009472,17.991068 v -0.996753 l 0.985115,0.01164 0.985115,0.01164 0.01164,0.985115 0.01164,0.985115 h -0.996753 -0.996754 z"
     id="path13" />
  <path
     style="fill:#ffffff;stroke:#cccccc;stroke-width:0.0433018"
     d="M 16.021651,17.991881 V 16.99594 h 0.974289 0.97429 v 0.995941 0.99594 h -0.97429 -0.974289 z"
     id="path14" />
  <path
     style="fill:#ffffff;stroke:#cccccc;stroke-width:0.0433018"
     d="m 22.007306,18.002706 0.01164,-0.985115 0.985115,-0.01164 0.985115,-0.01164 v 0.996753 0.996753 h -0.996754 -0.996753 z"
     id="path15" />
  <path
     style="fill:#ffffff;stroke:#cccccc;stroke-width:0.0433018"
     d="m 21.001353,21.001353 v -0.974289 h 0.995941 0.99594 v 0.974289 0.97429 h -0.99594 -0.995941 z"
     id="path16" />
  <path
     style="fill:#ffffff;stroke:#cccccc;stroke-width:0.0433018"
     d="m 24.032476,21.001353 v -0.974289 h 1.47226 1.47226 v 0.974289 0.97429 h -1.47226 -1.47226 z"
     id="path17" />
  <path
     style="fill:#ffffff;stroke:#cccccc;stroke-width:0.0433018"
     d="M 25.028417,17.991881 V 16.99594 h 0.974289 0.97429 v 0.995941 0.99594 h -0.97429 -0.974289 z"
     id="path18" />
  <path
     style="fill:#ffffff;stroke:#cccccc;stroke-width:0.0433018"
     d="m 21.997294,23.989175 v -0.97429 h 0.99594 0.995941 v 0.97429 0.974289 h -0.995941 -0.99594 z"
     id="path19" />
  <path
     style="fill:#ffffff;stroke:#cccccc;stroke-width:0.0433018"
     d="m 25.028417,23.989175 v -0.97429 h 0.974289 0.97429 v 0.97429 0.974289 h -0.97429 -0.974289 z"
     id="path20" />
  <path
     style="fill:#ffffff;stroke:#cccccc;stroke-width:0.0433018"
     d="m 3.0311231,19.507442 v -8.487144 h 5.9938529 5.993853 l 0.02246,-0.11908 c 0.01235,-0.06549 0.03536,-0.255481 0.05113,-0.422192 0.04315,-0.456139 0.213509,-1.0724528 0.40543,-1.4667088 0.504939,-1.0372803 1.383665,-1.6175584 2.837158,-1.8735519 0.235855,-0.041539 0.969997,-0.074708 2.254984,-0.1018795 1.930732,-0.040826 2.564391,-0.082909 3.028032,-0.2010981 0.884164,-0.2253867 1.251415,-0.7884393 1.365972,-2.0942451 0.02403,-0.2738836 0.04385,-0.5515561 0.04406,-0.61705 l 3.7e-4,-0.1190799 h 0.482974 0.482973 l -0.02738,0.5087957 c -0.115861,2.152887 -0.873099,3.106555 -2.692286,3.3906736 -0.166712,0.026037 -1.199459,0.06394 -2.294994,0.084229 -2.487436,0.046067 -3.009572,0.1149938 -3.722736,0.4914391 -0.689247,0.363821 -1.13301,1.1637205 -1.219244,2.1977339 l -0.02852,0.342014 h 6.479839 6.479839 v 8.487144 8.487145 H 16 3.0311231 Z M 28.016238,21.001353 V 15.00406 H 16 3.9837618 v 5.997293 5.997294 H 16 28.016238 Z m 0,-8.010825 V 11.972936 H 16 3.9837618 v 1.017592 1.017591 H 16 28.016238 Z"
     id="path21" />
</svg>
