<?xml version="1.0" encoding="UTF-8" standalone="no"?>
<svg
   version="1.1"
   viewBox="0 0 32 32"
   id="svg1"
   sodipodi:docname="smartphoneconnected.svg"
   inkscape:version="1.3.2 (091e20ef0f, 2023-11-25, custom)"
   xmlns:inkscape="http://www.inkscape.org/namespaces/inkscape"
   xmlns:sodipodi="http://sodipodi.sourceforge.net/DTD/sodipodi-0.dtd"
   xmlns="http://www.w3.org/2000/svg"
   xmlns:svg="http://www.w3.org/2000/svg">
  <defs
     id="defs1" />
  <sodipodi:namedview
     id="namedview1"
     pagecolor="#505050"
     bordercolor="#ffffff"
     borderopacity="1"
     inkscape:showpageshadow="0"
     inkscape:pageopacity="0"
     inkscape:pagecheckerboard="1"
     inkscape:deskcolor="#d1d1d1"
     inkscape:zoom="23.09375"
     inkscape:cx="15.978349"
     inkscape:cy="15.978349"
     inkscape:window-width="2560"
     inkscape:window-height="1388"
     inkscape:window-x="2560"
     inkscape:window-y="28"
     inkscape:window-maximized="1"
     inkscape:current-layer="svg1" />
  <style
     id="current-color-scheme"
     type="text/css">.ColorScheme-PositiveText{color:#27ae60;}.ColorScheme-Text { color: #232629; } </style>
  <path
     id="smartphone"
     class="ColorScheme-Text"
     d="m11 3c-1.108 0-2 0.892-2 2v22c0 1.108 0.892 2 2 2h10c1.108 0 2-0.892 2-2v-22c0-1.108-0.892-2-2-2h-10zm0 1h10c0.554 0 1 0.446 1 1v22c0 0.554-0.446 1-1 1h-10c-0.554 0-1-0.446-1-1v-22c0-0.554 0.446-1 1-1zm0.5 1a0.5 0.5 0 0 0-0.5 0.5 0.5 0.5 0 0 0 0.5 0.5 0.5 0.5 0 0 0 0.5-0.5 0.5 0.5 0 0 0-0.5-0.5zm2 21c-0.277 0-0.5 0.223-0.5 0.5s0.223 0.5 0.5 0.5h5c0.277 0 0.5-0.223 0.5-0.5s-0.223-0.5-0.5-0.5h-5z"
     fill="currentColor" />
  <path
     id="checkmark"
     class="ColorScheme-PositiveText"
     d="m19 13-4 5-2-2-1 1 3 3 5-6z"
     fill="currentColor" />
  <path
     style="opacity:1;fill:#ffffff;stroke:#cccccc;stroke-width:0.0433018"
     d="M 10.613622,28.943693 C 10.083696,28.839621 9.48971,28.391043 9.2466241,27.911336 8.9950992,27.414975 9.0082696,28.073143 9.0082696,16 c 0,-12.0731432 -0.01317,-11.4149752 0.2383545,-11.9113357 0.2513776,-0.4960697 0.8357599,-0.9278206 1.4008809,-1.0349937 0.319548,-0.060601 10.385442,-0.060601 10.70499,0 0.565121,0.1071731 1.149503,0.538924 1.400881,1.0349937 C 23.004901,4.5850248 22.99173,3.9268568 22.99173,16 c 0,12.073143 0.01317,11.414975 -0.238354,11.911336 -0.14832,0.292695 -0.543801,0.689576 -0.833355,0.836304 -0.491763,0.249195 -0.310999,0.241969 -5.941672,0.237503 -2.846008,-0.0023 -5.260135,-0.02091 -5.364727,-0.04145 z M 21.217592,27.9906 c 0.287252,-0.0616 0.552262,-0.267452 0.690734,-0.536529 l 0.110619,-0.214953 V 16 4.7608817 L 21.908326,4.5459285 C 21.769854,4.276852 21.504844,4.0710045 21.217592,4.0094001 c -0.308927,-0.066253 -10.126257,-0.066253 -10.435184,0 -0.287251,0.061604 -0.552262,0.2674519 -0.690734,0.5365284 L 9.9810555,4.7608817 V 16 27.239118 l 0.1084485,0.210736 c 0.134946,0.262227 0.3667,0.453783 0.636925,0.526452 0.27623,0.07428 10.148721,0.08773 10.491163,0.01429 z"
     id="path1" />
  <path
     style="opacity:1;fill:#ffffff;stroke:#cccccc;stroke-width:0.0433018"
     d="m 11.31814,5.9340223 c -0.184343,-0.078798 -0.276191,-0.2246208 -0.276191,-0.4384942 0,-0.410135 0.477038,-0.6162805 0.783768,-0.3386942 0.37543,0.3397596 -0.04061,0.9767942 -0.507577,0.7771884 z"
     id="path2" />
  <path
     style="opacity:1;fill:#ffffff;stroke:#cccccc;stroke-width:0.0433018"
     d="m 13.350492,26.950908 c -0.433293,-0.125362 -0.418193,-0.781218 0.02079,-0.903138 0.218503,-0.06069 5.038929,-0.06069 5.257432,0 0.452462,0.125663 0.452388,0.78017 -1.04e-4,0.905842 -0.203138,0.05642 -5.082414,0.05392 -5.27812,-0.0027 z"
     id="path3" />
</svg>
