<?xml version="1.0" encoding="UTF-8" standalone="no"?>
<svg
   width="22"
   height="22"
   version="1.1"
   id="svg1"
   sodipodi:docname="software-updates-inactive.svg"
   inkscape:version="1.3.2 (091e20ef0f, 2023-11-25, custom)"
   xmlns:inkscape="http://www.inkscape.org/namespaces/inkscape"
   xmlns:sodipodi="http://sodipodi.sourceforge.net/DTD/sodipodi-0.dtd"
   xmlns="http://www.w3.org/2000/svg"
   xmlns:svg="http://www.w3.org/2000/svg">
  <defs
     id="defs1" />
  <sodipodi:namedview
     id="namedview1"
     pagecolor="#505050"
     bordercolor="#ffffff"
     borderopacity="1"
     inkscape:showpageshadow="0"
     inkscape:pageopacity="0"
     inkscape:pagecheckerboard="1"
     inkscape:deskcolor="#d1d1d1"
     inkscape:zoom="33.590909"
     inkscape:cx="10.985115"
     inkscape:cy="10.985115"
     inkscape:window-width="2560"
     inkscape:window-height="1388"
     inkscape:window-x="2560"
     inkscape:window-y="28"
     inkscape:window-maximized="1"
     inkscape:current-layer="svg1" />
  <style
     type="text/css"
     id="current-color-scheme">.ColorScheme-Text{color:#31363b;}.ColorScheme-Background{color:#eff0f1;}.ColorScheme-Highlight{color:#3daee9;}.ColorScheme-ViewText{color:#31363b;}.ColorScheme-ViewBackground{color:#fcfcfc;}.ColorScheme-ViewHover{color:#93cee9;}.ColorScheme-ViewFocus{color:#3daee9;}.ColorScheme-ButtonText{color:#31363b;}.ColorScheme-ButtonBackground{color:#eff0f1;}.ColorScheme-ButtonHover{color:#93cee9;}.ColorScheme-ButtonFocus { color: #3daee9; } </style>
  <g
     id="software-updates-inactive"
     transform="translate(22,2.66454e-15)">
    <path
       style="fill:currentColor;fill-rule:evenodd;stroke:none;stroke-width:1px;stroke-linecap:butt;stroke-linejoin:miter;stroke-opacity:1"
       d="m -15,7 -3,3 0,9 5.099609,0 L -9,19 l 5.099609,0 0,-9 -3,-3 L -9,7 -12.900391,7 Z m 0.3,1 3.7,0 3.7,0 2,2 -11.4,0 z m 1.7,3 4,0 0,5 -1,-1 -1,1 -1,-1 -1,1 z"
       id="path4204"
       inkscape:connector-curvature="0"
       sodipodi:nodetypes="ccccccccccccccccccccccccc"
       class="ColorScheme-Text" />
    <rect
       y="-2.6645353e-15"
       x="-22"
       height="22"
       width="22"
       id="rect4214"
       style="opacity:1;fill:none;fill-opacity:0.59905659;stroke:none" />
  </g>
  <path
     style="fill:#ffffff;stroke:#cccccc;stroke-width:0.02977"
     d="m 4.0189445,14.490417 v -4.487932 l 1.4960499,-1.4958296 1.4960498,-1.49583 h 4.0338298 4.033829 l 1.510716,1.5109339 1.510716,1.5109337 v 4.472828 4.472828 H 11.05954 4.0189445 Z m 6.4600715,1.019722 c 0.269796,0.270168 0.504238,0.491214 0.520984,0.491214 0.01675,0 0.251188,-0.221046 0.520984,-0.491214 l 0.490537,-0.491214 0.498976,0.498328 0.498975,0.498328 V 13.507791 11 H 11 8.9905277 v 2.507791 2.50779 L 9.4895032,15.517253 9.988479,15.018925 Z m 6.221931,-5.5147108 c 0,-0.01219 -0.445358,-0.4676703 -0.989684,-1.0121787 L 14.721578,7.9932341 H 11.000331 7.2790834 L 6.2890681,8.9829186 C 5.7445597,9.5272451 5.2990528,9.9827254 5.2990528,9.9950972 c 0,0.012372 2.5654262,0.022494 5.7009472,0.022494 3.135521,0 5.700947,-0.01 5.700947,-0.022163 z"
     id="path1" />
</svg>
