<?xml version="1.0" encoding="UTF-8" standalone="no"?>
<svg
   width="32"
   height="32"
   version="1.1"
   id="svg1"
   sodipodi:docname="touchpad_disabled.svg"
   inkscape:version="1.3.2 (091e20ef0f, 2023-11-25, custom)"
   xmlns:inkscape="http://www.inkscape.org/namespaces/inkscape"
   xmlns:sodipodi="http://sodipodi.sourceforge.net/DTD/sodipodi-0.dtd"
   xmlns="http://www.w3.org/2000/svg"
   xmlns:svg="http://www.w3.org/2000/svg">
  <defs
     id="defs1" />
  <sodipodi:namedview
     id="namedview1"
     pagecolor="#505050"
     bordercolor="#ffffff"
     borderopacity="1"
     inkscape:showpageshadow="0"
     inkscape:pageopacity="0"
     inkscape:pagecheckerboard="1"
     inkscape:deskcolor="#d1d1d1"
     inkscape:zoom="37"
     inkscape:cx="15.986486"
     inkscape:cy="16"
     inkscape:window-width="2560"
     inkscape:window-height="1388"
     inkscape:window-x="2560"
     inkscape:window-y="28"
     inkscape:window-maximized="1"
     inkscape:current-layer="svg1" />
  <style
     type="text/css"
     id="current-color-scheme">.ColorScheme-Text{color:#31363b;}.ColorScheme-Background{color:#eff0f1;}.ColorScheme-Highlight{color:#3daee9;}.ColorScheme-ViewText{color:#31363b;}.ColorScheme-ViewBackground{color:#fcfcfc;}.ColorScheme-ViewHover{color:#93cee9;}.ColorScheme-ViewFocus{color:#3daee9;}.ColorScheme-ButtonText{color:#31363b;}.ColorScheme-ButtonBackground{color:#eff0f1;}.ColorScheme-ButtonHover{color:#93cee9;}.ColorScheme-ButtonFocus{color:#3daee9;}.ColorScheme-NegativeText { color: #da4453; } </style>
  <g
     id="touchpad_disabled"
     inkscape:label="#touchpad_disabled"
     transform="translate(-22,0)">
    <path
       id="path28"
       class="ColorScheme-NegativeText"
       d="M 34,10.207 37.293,13.5 34,16.793 c 0.013,0.025 0.707,0.707 0.707,0.707 L 38,14.207 41.293,17.5 42,16.793 38.707,13.5 42,10.207 41.293,9.5 38,12.793 34.707,9.5 Z"
       style="fill:currentColor;fill-opacity:1;stroke:none" />
    <path
       id="path24"
       class="ColorScheme-Text"
       d="M 27 4 C 26.446 4 26 4.446 26 5 L 26 27 C 26 27.554 26.446 28 27 28 L 49 28 C 49.554 28 50 27.554 50 27 L 50 5 C 50 4.446 49.554 4 49 4 L 27 4 z M 27 5 L 49 5 L 49 22 L 27 22 L 27 5 z M 27 23 L 37 23 L 37 27 L 27 27 L 27 23 z M 39 23 L 49 23 L 49 27 L 39 27 L 39 23 z "
       style="fill:currentColor;fill-opacity:0.6;stroke:none" />
    <path
       id="path26"
       d="M 22 0 L 22 32 L 54 32 L 54 0 L 22 0 z "
       style="opacity:1;fill:none" />
  </g>
  <path
     style="fill:#ffffff;stroke:#cccccc;stroke-width:0.027027;opacity:0.3"
     d="M 4.6837794,27.936227 C 4.3193521,27.810131 4.0873945,27.525542 4.0269562,27.130371 4.00762,27.003942 4.0010713,23.461248 4.0061317,15.864865 L 4.0135135,4.7837838 4.099308,4.6026835 C 4.2046061,4.3804136 4.3851685,4.1948713 4.5892838,4.0991941 L 4.7432432,4.027027 H 16 27.256757 l 0.148648,0.070956 c 0.304503,0.145352 0.504477,0.406479 0.565218,0.7380614 0.04159,0.2270427 0.04159,22.1008676 0,22.3279106 -0.0607,0.331345 -0.253852,0.583094 -0.564395,0.735609 l -0.149471,0.07341 -11.216216,0.0059 c -10.7377777,0.0057 -11.2222118,0.0039 -11.3567616,-0.04269 z M 15,25 V 22.986486 H 10 5 V 25 27.013514 h 5 5 z m 12,0 V 22.986486 H 22 17 V 25 27.013514 h 5 5 z M 27,13.5 V 4.9864865 H 16 5 V 13.5 22.013514 h 11 11 z"
     id="path1" />
</svg>
