<?xml version="1.0" encoding="UTF-8" standalone="no"?>
<svg
   version="1.1"
   viewBox="0 0 16 16"
   id="svg2"
   sodipodi:docname="notifications-disabled.svg"
   inkscape:version="1.3.2 (091e20ef0f, 2023-11-25, custom)"
   xmlns:inkscape="http://www.inkscape.org/namespaces/inkscape"
   xmlns:sodipodi="http://sodipodi.sourceforge.net/DTD/sodipodi-0.dtd"
   xmlns="http://www.w3.org/2000/svg"
   xmlns:svg="http://www.w3.org/2000/svg">
  <defs
     id="defs2" />
  <sodipodi:namedview
     id="namedview2"
     pagecolor="#505050"
     bordercolor="#ffffff"
     borderopacity="1"
     inkscape:showpageshadow="0"
     inkscape:pageopacity="0"
     inkscape:pagecheckerboard="1"
     inkscape:deskcolor="#d1d1d1"
     inkscape:zoom="74"
     inkscape:cx="7.9932432"
     inkscape:cy="8"
     inkscape:window-width="2560"
     inkscape:window-height="1388"
     inkscape:window-x="2560"
     inkscape:window-y="28"
     inkscape:window-maximized="1"
     inkscape:current-layer="svg2" />
  <style
     id="current-color-scheme"
     type="text/css">.ColorScheme-Text{color:#232629;}.ColorScheme-NegativeText { color: #da4453; } </style>
  <circle
     cx="9.148"
     cy="2.5"
     r="0"
     id="circle1" />
  <path
     class="ColorScheme-NegativeText"
     d="M 2,2.7071118 2.7071065,2 14,13.266998 13.292891,14 Z"
     fill="currentColor"
     id="path1" />
  <path
     d="m8 2a1 1 0 0 0-1 1 1 1 0 0 0 0.0136719 0.1699219 3 3 0 0 0-1.2734375 0.8632812l0.7070312 0.7070313a2 2 0 0 1 1.5527344-0.7402344 2 2 0 0 1 2 2c0 1.5854753 0.542693 2.6545091 1.371094 3.6640625l1.335937 1.3359375h0.292969v-1c-1.335506-1.335506-2-2.132154-2-4a3 3 0 0 0-2.015625-2.8300781 1 1 0 0 0 0.015625-0.1699219 1 1 0 0 0-1-1zm-3.0351562 4.671875c-0.149308 1.4098615-0.8014687 2.1647502-1.9648438 3.328125v1h6.2929688l-1-1h-2.2929688-1.6386719c0.673578-0.755548 1.182577-1.5239094 1.4433594-2.4882812l-0.8398437-0.8398438zm1.6230468 5.328125a1.5 1.5 0 0 0-0.0878906 0.5 1.5 1.5 0 0 0 1.5 1.5 1.5 1.5 0 0 0 1.5-1.5 1.5 1.5 0 0 0-0.0878906-0.5h-2.8242188z"
     class="ColorScheme-Text"
     fill="currentColor"
     id="path2" />
  <path
     style="fill:#ffffff;stroke:#cccccc;stroke-width:0.0135135"
     d="M 12.025279,10.307432 C 11.320533,9.6006369 11.260827,9.5338247 10.990627,9.149627 10.46652,8.4043996 10.167695,7.6471414 10.054366,6.777027 10.03922,6.6607465 10.020854,6.4022501 10.01308,6.1959459 9.9963826,5.7528559 9.9751958,5.5937341 9.904508,5.3805246 9.6689339,4.6699834 9.1002742,4.1718069 8.3576178,4.0253657 8.1916839,3.9926459 7.8253919,3.9920657 7.651498,4.024247 7.370863,4.0761823 7.0602358,4.2065553 6.834494,4.3671508 6.7735768,4.4104881 6.6600939,4.5086436 6.5823099,4.5852743 L 6.4408845,4.7246027 6.0961315,4.3798497 5.7513786,4.0350968 5.8196015,3.9567376 C 5.9207128,3.8406035 6.1750505,3.6255301 6.3443478,3.5130009 6.5157199,3.3990926 6.7364308,3.2830381 6.8994612,3.2211104 l 0.1130779,-0.042953 -7.29e-5,-0.163403 C 7.0123631,2.7832174 7.0587136,2.6234124 7.1774732,2.445852 7.3688628,2.1597009 7.7018155,1.9932626 8.0472973,2.0110396 c 0.5648681,0.029066 0.9862697,0.508971 0.9392247,1.0696187 -0.00698,0.083206 -0.00519,0.092516 0.019791,0.1025503 0.3195036,0.1283544 0.5183014,0.2329859 0.7287833,0.383574 0.6883387,0.4924681 1.1381087,1.2516816 1.2373327,2.0886228 0.0075,0.063176 0.01968,0.2912162 0.02709,0.5067568 0.01727,0.502167 0.04835,0.7676806 0.128516,1.0977177 0.106728,0.4393979 0.281779,0.8365892 0.540593,1.2266066 0.252477,0.3804676 0.513414,0.6855967 1.126742,1.3175676 l 0.20328,0.2094599 6.73e-4,0.489864 L 13,10.993243 h -0.145449 -0.14545 z"
     id="path3" />
  <path
     style="fill:#ffffff;stroke:#cccccc;stroke-width:0.0135135"
     d="M 3,10.504937 V 10.01663 L 3.2940658,9.7110178 C 3.7398897,9.2476885 3.9378991,9.0238399 4.1514889,8.741705 4.5846082,8.1695893 4.8377726,7.5821211 4.9340907,6.9256757 4.9499035,6.8179054 4.9653942,6.7209187 4.9685145,6.7101497 4.9721,6.6977753 5.1254765,6.8417974 5.3852872,7.1015033 5.7523542,7.4684224 5.7955408,7.5161132 5.7884899,7.546759 5.7841468,7.5656362 5.7504747,7.6722781 5.7136632,7.783741 5.4815509,8.4865626 5.0892893,9.1439276 4.4758507,9.8581081 L 4.3539739,10 l 1.9683976,0.0034 1.9683976,0.0034 0.4930595,0.493199 0.4930596,0.493198 H 6.1384441 3 Z"
     id="path4" />
  <path
     style="fill:#ffffff;stroke:#cccccc;stroke-width:0.0135135"
     d="M 7.75,13.971519 C 7.1327852,13.861339 6.6614083,13.399325 6.5331892,12.778878 6.4927854,12.583366 6.5089342,12.281003 6.5708182,12.074324 l 0.018208,-0.06081 H 8 9.4109736 l 0.018208,0.06081 c 0.085429,0.285314 0.079236,0.631602 -0.016192,0.905406 C 9.1711777,13.673542 8.4592484,14.098129 7.75,13.971519 Z"
     id="path5" />
</svg>
