<?xml version="1.0" encoding="UTF-8" standalone="no"?>
<svg
   viewBox="0 0 16 16"
   version="1.1"
   id="svg2"
   sodipodi:docname="network-wireless-connected-00-symbolic.svg"
   inkscape:version="1.3.2 (091e20ef0f, 2023-11-25, custom)"
   xmlns:inkscape="http://www.inkscape.org/namespaces/inkscape"
   xmlns:sodipodi="http://sodipodi.sourceforge.net/DTD/sodipodi-0.dtd"
   xmlns="http://www.w3.org/2000/svg"
   xmlns:svg="http://www.w3.org/2000/svg">
  <sodipodi:namedview
     id="namedview2"
     pagecolor="#505050"
     bordercolor="#ffffff"
     borderopacity="1"
     inkscape:showpageshadow="0"
     inkscape:pageopacity="0"
     inkscape:pagecheckerboard="1"
     inkscape:deskcolor="#d1d1d1"
     inkscape:zoom="46.1875"
     inkscape:cx="7.9891746"
     inkscape:cy="7.9891746"
     inkscape:window-width="2560"
     inkscape:window-height="1388"
     inkscape:window-x="2560"
     inkscape:window-y="28"
     inkscape:window-maximized="1"
     inkscape:current-layer="svg2" />
  <defs
     id="defs3051">
    <style
       type="text/css"
       id="current-color-scheme">.ColorScheme-Text{color:#232629;}.ColorScheme-NegativeText { color: #da4453; } </style>
  </defs>
  <path
     style="fill:currentColor;fill-opacity:0.5;stroke:none"
     d="M 8 2 C 5.1217226 2 2.4471588 2.8167177 0.16796875 4.2109375 L 0.79882812 4.9980469 C 2.902248 3.7369058 5.3590869 3 8 3 C 10.640918 3 13.097755 3.7369049 15.201172 4.9980469 L 15.832031 4.2109375 C 13.552841 2.8167214 10.878283 2 8 2 z M 8 5 C 5.8435991 5 3.8425681 5.6235825 2.1484375 6.6875 L 2.7792969 7.4726562 C 4.2984285 6.5437457 6.0817927 6 8 6 C 9.9182124 6 11.701572 6.5437532 13.220703 7.4726562 L 13.851562 6.6875 C 12.157435 5.623599 10.156407 5 8 5 z M 8 8 C 6.5661803 8 5.2366865 8.428369 4.1289062 9.1621094 L 4.7597656 9.9492188 C 5.693648 9.3502154 6.8034854 9 8 9 C 9.1965141 9 10.306354 9.3502173 11.240234 9.9492188 L 11.871094 9.1621094 C 10.763314 8.4283753 9.4338257 8 8 8 z M 8 11 A 1.5 1.5 0 0 0 6.5 12.5 A 1.5 1.5 0 0 0 8 14 A 1.5 1.5 0 0 0 9.5 12.5 A 1.5 1.5 0 0 0 8 11 z "
     class="ColorScheme-Text"
     id="path1" />
  <path
     style="fill:currentColor;fill-opacity:1;stroke:none"
     class="ColorScheme-NegativeText"
     d="M 13 8 L 13 12 L 14 12 L 14 8 L 13 8 z M 13 13 L 13 14 L 14 14 L 14 13 L 13 13 z "
     id="path2" />
  <path
     style="fill:#ffffff;stroke:#cccccc;stroke-width:0.0216509;opacity:0.3"
     d="M 4.4631665,9.5649478 C 4.3041057,9.3663499 4.1695888,9.1924564 4.16424,9.1785178 4.1587765,9.1642801 4.2577481,9.0911855 4.3901031,9.0117087 5.2831105,8.475474 6.2861237,8.1434238 7.3179973,8.0424215 c 0.29477,-0.028853 1.0975662,-0.0288 1.3748308,9.06e-5 0.8625523,0.089876 1.6777709,0.3256367 2.4385409,0.7052238 0.258799,0.1291282 0.711693,0.3955975 0.711618,0.4186952 -5.9e-5,0.018357 -0.583874,0.7480805 -0.604655,0.7557732 -0.0091,0.00336 -0.08375,-0.034807 -0.165973,-0.084805 C 10.511508,9.4963393 9.7719716,9.2168895 9.1053404,9.0941186 8.3104836,8.9477329 7.3876564,8.9679716 6.6264221,9.148484 6.0546534,9.2840682 5.3846441,9.5561472 4.9039242,9.8479602 4.8324763,9.8913314 4.7691475,9.926641 4.7631935,9.926426 4.7572395,9.9262109 4.6222274,9.7635457 4.4631665,9.5649478 Z"
     id="path3" />
  <path
     style="opacity:0.3;fill:#ffffff;stroke:#cccccc;stroke-width:0.0216509"
     d="M 7.7401894,13.96627 C 7.4068052,13.90047 7.1786715,13.777004 6.9375825,13.531899 6.652108,13.241669 6.5169147,12.910056 6.5169147,12.50005 c 0,-0.402238 0.1310397,-0.728408 0.4103419,-1.021382 0.1840967,-0.193108 0.3653721,-0.309392 0.6180749,-0.396482 0.151919,-0.05236 0.2064696,-0.05983 0.4438431,-0.06079 0.224691,-9.11e-4 0.2982029,0.0075 0.4330176,0.04938 0.4031837,0.12534 0.7206161,0.392992 0.9085174,0.766042 0.1193992,0.237049 0.1600299,0.440397 0.1476675,0.739042 -0.016738,0.404339 -0.1377516,0.673961 -0.4394034,0.979001 -0.1375289,0.139074 -0.2115535,0.194071 -0.3572395,0.265411 -0.3151069,0.154302 -0.6423603,0.205046 -0.9415448,0.145996 z"
     id="path4" />
  <path
     style="opacity:0.3;fill:#ffffff;stroke:#cccccc;stroke-width:0.0216509"
     d="M 2.4880838,7.0970806 C 2.3282981,6.8994827 2.1902434,6.7254863 2.1812957,6.710422 2.1704367,6.69214 2.1956344,6.6655282 2.2570738,6.6303914 2.3076994,6.6014389 2.4368065,6.5264051 2.5439783,6.4636498 2.8164756,6.3040868 3.4040297,6.0117383 3.7144882,5.8812408 6.1991151,4.8368576 8.9362345,4.7289778 11.474966,5.5753724 c 0.751245,0.2504595 1.644062,0.6646559 2.224342,1.0319188 l 0.135033,0.085463 -0.293791,0.3667489 C 13.378966,7.2612146 13.240187,7.4331427 13.232153,7.4415649 13.22412,7.4499871 13.115317,7.3980794 12.99037,7.3262145 11.831158,6.6594777 10.541341,6.231667 9.1799729,6.0623689 8.1721215,5.9370337 7.0451713,5.9837138 6.002773,6.1939738 5.0198846,6.3922302 3.9297049,6.7987977 3.0960758,7.2779867 2.9710419,7.3498589 2.8484604,7.4193929 2.8236724,7.4325066 2.7824615,7.4543086 2.7537331,7.4255942 2.4880838,7.0970806 Z"
     id="path5" />
  <path
     style="opacity:0.3;fill:#ffffff;stroke:#cccccc;stroke-width:0.0216509"
     d="M 14.949932,4.8437963 C 14.447135,4.5475984 13.784544,4.2282574 13.142084,3.9724894 11.050092,3.1396521 8.7748493,2.8337088 6.473613,3.0758052 5.2594204,3.2035416 3.953262,3.5312452 2.7947717,3.998794 2.3998549,4.1581763 1.8247144,4.4202553 1.5805142,4.5521044 1.5031123,4.5938953 1.3667118,4.6673225 1.2774019,4.715276 1.188092,4.7632294 1.0482144,4.8416359 0.96656273,4.8895127 0.86422686,4.9495177 0.80922667,4.9703229 0.78952686,4.9564809 0.75085114,4.9293055 0.19485792,4.2372438 0.19485792,4.2162782 c 0,-0.020989 0.5915521,-0.3587684 0.96467218,-0.5508329 2.7590635,-1.4202346 5.9206793,-1.9471477 8.9947329,-1.4990567 1.597036,0.2327928 3.073605,0.6960183 4.515119,1.4164723 0.484901,0.2423487 1.13576,0.6055409 1.13576,0.6337767 0,0.016778 -0.515873,0.6656414 -0.582595,0.7327853 -0.03157,0.031772 -0.05438,0.022932 -0.272615,-0.1056266 z"
     id="path6" />
  <path
     style="opacity:0.3;fill:#ffffff;stroke:#cccccc;stroke-width:0.0216509"
     d="m 7.7401894,13.943594 c -0.3048267,-0.0566 -0.5084975,-0.162677 -0.742723,-0.386826 -0.3395991,-0.32499 -0.4762449,-0.667671 -0.4537363,-1.137884 0.018784,-0.392398 0.139211,-0.658744 0.4311661,-0.9536 0.11868,-0.119859 0.2139006,-0.19235 0.3355886,-0.255482 0.2576844,-0.133687 0.3855401,-0.163521 0.7003406,-0.163423 0.2440374,7.7e-5 0.2889737,0.0064 0.4572179,0.06463 0.5683588,0.196603 0.9562981,0.700771 0.987326,1.283135 0.024347,0.456968 -0.087593,0.772654 -0.3877304,1.093448 -0.2516339,0.268952 -0.5139207,0.407714 -0.8769283,0.463938 -0.189821,0.0294 -0.2557083,0.02824 -0.4505212,-0.0079 z"
     id="path7" />
  <path
     style="opacity:0.3;fill:#ffffff;stroke:#cccccc;stroke-width:0.0216509"
     d="M 4.5860485,9.6838922 C 4.4862356,9.5615404 4.353676,9.3966541 4.2914715,9.3174783 L 4.1783724,9.1735222 4.2921632,9.0988627 C 4.8262127,8.7484661 5.6018257,8.4152884 6.2895805,8.2408383 6.5491064,8.1750091 7.0172075,8.0930109 7.2838686,8.0666669 c 0.3451414,-0.034097 1.1850397,-0.029328 1.5090076,0.00857 0.971724,0.1136687 1.9224328,0.4318586 2.7453998,0.9188494 0.142282,0.084195 0.263286,0.1605128 0.268899,0.1695943 0.0056,0.00908 -0.120879,0.1799642 -0.281092,0.3797395 L 11.234785,9.906646 11.100478,9.8292544 C 10.366168,9.4061253 9.5739694,9.1300157 8.8056574,9.0294273 7.8381376,8.9027584 6.867593,9.0066787 5.9550534,9.3346536 5.6889186,9.4303048 5.0999986,9.7065214 4.8790271,9.8393338 L 4.7675265,9.90635 Z"
     id="path8" />
  <path
     style="opacity:0.3;fill:#ffffff;stroke:#cccccc;stroke-width:0.0216509"
     d="M 2.6378629,7.2476319 C 2.3960692,6.9582818 2.2083897,6.7189872 2.2083897,6.7000461 c 0,-0.052426 1.0618632,-0.6109875 1.5568838,-0.8189522 C 4.335216,5.6416537 5.1463799,5.3913489 5.7706914,5.2622724 6.4751379,5.116628 7.018945,5.0567591 7.7834912,5.0406789 c 1.7763804,-0.037361 3.3953398,0.3195137 5.0256858,1.1078362 0.418037,0.2021336 0.982433,0.5198212 0.982433,0.552992 0,0.02241 -0.559462,0.7139192 -0.577593,0.7139192 -0.0073,0 -0.185604,-0.092732 -0.396311,-0.206071 C 10.764926,6.1051692 8.5335236,5.7375615 6.2571042,6.1285427 5.2045776,6.309317 4.0017981,6.7402781 3.0691568,7.2707979 2.9293176,7.3503435 2.8066182,7.4154263 2.7964914,7.4154263 c -0.010127,0 -0.08151,-0.075507 -0.1586285,-0.1677944 z"
     id="path9" />
  <path
     style="opacity:0.3;fill:#ffffff;stroke:#cccccc;stroke-width:0.0216509"
     d="M 0.75160963,4.8860527 C 0.61336526,4.7390175 0.21760052,4.223105 0.232399,4.2092179 0.26965821,4.1742536 0.8575525,3.8460721 1.2016238,3.6681655 3.6824875,2.3854021 6.6428311,1.8230065 9.4488219,2.101392 c 1.5438791,0.15317 3.0059901,0.5278057 4.4293921,1.13494 0.493877,0.2106573 1.617565,0.7866541 1.859389,0.9531132 0.04657,0.032055 0.04371,0.036832 -0.220015,0.3680649 -0.146957,0.1845738 -0.28353,0.3488618 -0.303495,0.3650845 -0.03174,0.025792 -0.06964,0.010494 -0.301786,-0.1218193 C 13.530136,4.0130017 11.966018,3.4518512 10.403248,3.1830835 9.5514923,3.0365974 8.9539958,2.9882437 8,2.9885955 7.214067,2.9888854 6.8992559,3.0063254 6.2462788,3.0857488 4.5094205,3.2970075 2.6716291,3.9041754 1.1258457,4.7774326 0.80560076,4.9583483 0.81658527,4.9551599 0.75160963,4.8860527 Z"
     id="path10" />
</svg>
