<?xml version="1.0" encoding="UTF-8" standalone="no"?>
<svg
   width="800"
   height="800"
   viewBox="0 0 67 67"
   fill="none"
   version="1.1"
   id="svg6"
   sodipodi:docname="synergy.svg"
   inkscape:version="1.3.2 (091e20ef0f, 2023-11-25, custom)"
   xmlns:inkscape="http://www.inkscape.org/namespaces/inkscape"
   xmlns:sodipodi="http://sodipodi.sourceforge.net/DTD/sodipodi-0.dtd"
   xmlns="http://www.w3.org/2000/svg"
   xmlns:svg="http://www.w3.org/2000/svg">
  <sodipodi:namedview
     id="namedview6"
     pagecolor="#505050"
     bordercolor="#ffffff"
     borderopacity="1"
     inkscape:showpageshadow="0"
     inkscape:pageopacity="0"
     inkscape:pagecheckerboard="1"
     inkscape:deskcolor="#d1d1d1"
     inkscape:zoom="0.461875"
     inkscape:cx="54.127199"
     inkscape:cy="604.05954"
     inkscape:window-width="2560"
     inkscape:window-height="1388"
     inkscape:window-x="2560"
     inkscape:window-y="28"
     inkscape:window-maximized="1"
     inkscape:current-layer="svg6" />
  <g
     clip-path="url(#clip0)"
     id="g6">
    <path
       d="M26.2192 59.4389C29.1145 60.2147 32.0905 58.4965 32.8663 55.6012C33.6421 52.7059 31.9239 49.7299 29.0286 48.9541C26.1333 48.1783 23.1573 49.8965 22.3815 52.7918C21.6057 55.6871 23.3239 58.6631 26.2192 59.4389Z"
       fill="white"
       id="path1" />
    <path
       d="M10.866 32.8547C13.7613 33.6305 16.7373 31.9123 17.5131 29.017C18.2889 26.1217 16.5707 23.1456 13.6754 22.3699C10.78 21.5941 7.80403 23.3123 7.02824 26.2076C6.25244 29.1029 7.97065 32.0789 10.866 32.8547Z"
       fill="white"
       id="path2" />
    <path
       fill-rule="evenodd"
       clip-rule="evenodd"
       d="M40.2623 7.02466C54.7002 10.8933 63.2922 25.7342 59.4721 40.1746L59.4508 40.2602C58.6756 43.1534 55.6969 44.8732 52.8037 44.098C49.9089 43.3223 48.1908 40.344 48.966 37.4508L48.978 37.3996C51.2701 28.734 46.1143 19.8303 37.4529 17.5095L37.4856 17.5183C40.3689 18.2715 43.3278 16.5535 44.1 13.6718C44.8721 10.7901 43.1686 7.82274 40.295 7.03345L40.2623 7.02466Z"
       fill="#33CC99"
       id="path3" />
    <path
       fill-rule="evenodd"
       clip-rule="evenodd"
       d="M59.4477 40.2596C55.579 54.6975 40.7381 63.2895 26.2977 59.4694L26.2121 59.4482C23.3189 58.673 21.5991 55.6942 22.3744 52.8011C23.15 49.9063 26.1283 48.1881 29.0215 48.9633L29.0727 48.9754C37.7384 51.2675 46.642 46.1116 48.9628 37.4502L48.9541 37.483C48.2008 40.3662 49.9189 43.3252 52.8006 44.0973C55.6822 44.8695 58.6496 43.166 59.4389 40.2924L59.4477 40.2596Z"
       fill="#33B2CC"
       id="path4" />
    <path
       fill-rule="evenodd"
       clip-rule="evenodd"
       d="M26.2122 59.4478C11.7743 55.5791 3.1823 40.7382 7.00243 26.2978L7.02366 26.2122C7.79888 23.319 10.7776 21.5992 13.6708 22.3744C16.5656 23.1501 18.2837 26.1284 17.5085 29.0216L17.4965 29.0728C15.2044 37.7384 20.3602 46.6421 29.0216 48.9629L28.9888 48.9541C26.1056 48.2009 23.1467 49.9189 22.3745 52.8006C21.6024 55.6823 23.3059 58.6497 26.1794 59.439L26.2122 59.4478Z"
       fill="#87D639"
       id="path5" />
    <path
       fill-rule="evenodd"
       clip-rule="evenodd"
       d="M7.02333 26.2125C10.892 11.7745 25.7329 3.18253 40.1733 7.00266L40.2589 7.02389C43.1521 7.79911 44.8719 10.7778 44.0966 13.671C43.321 16.5658 40.3427 18.2839 37.4495 17.5087L37.3983 17.4967C28.7327 15.2046 19.829 20.3604 17.5082 29.0219L17.517 28.9891C18.2702 26.1058 16.5521 23.1469 13.6704 22.3747C10.7888 21.6026 7.82141 23.3061 7.03212 26.1797L7.02333 26.2125Z"
       fill="#3B67D3"
       id="path6" />
  </g>
  <defs
     id="defs6">
    <clipPath
       id="clip0">
      <rect
         width="54.2735"
         height="54.2735"
         fill="white"
         transform="translate(14.047) rotate(15)"
         id="rect6" />
    </clipPath>
  </defs>
  <path
     style="fill:#f9f9f9;stroke:#cccccc;stroke-width:1.08254"
     d="m 374.56022,719.75282 c -24.2271,-2.28157 -51.73042,-7.27189 -65.05496,-11.80386 -34.30547,-11.66804 -52.50054,-49.53311 -39.93717,-83.11173 9.5558,-25.54015 37.19361,-43.55718 63.74296,-41.55387 4.52736,0.3416 13.42588,1.8216 19.77448,3.28887 31.4986,7.27984 64.24252,6.57967 95.92336,-2.05114 58.45994,-15.92624 106.50217,-59.17889 129.2016,-116.32082 l 4.08535,-10.28417 0.0564,7.96282 c 0.11721,16.54473 6.6008,31.5822 18.99428,44.05365 12.72454,12.80458 27.43837,18.89016 45.67296,18.89016 21.17768,0 40.06148,-9.20712 52.08705,-25.39596 5.94114,-7.99794 5.68379,-5.99159 -1.59113,12.40544 -15.63589,39.54047 -41.48862,78.99692 -71.27711,108.78317 -51.08069,51.07682 -116.00537,83.24266 -187.93889,93.11112 -11.9012,1.63271 -53.78122,2.96411 -63.73919,2.02632 z"
     id="path7"
     transform="scale(0.08375)" />
  <path
     style="fill:#e6e6e6;stroke:#cccccc;stroke-width:1.08254"
     d="m 632.47686,526.17048 c -22.66365,-5.1647 -41.95249,-24.48928 -47.36777,-47.45557 -2.35941,-10.00626 -2.01358,-21.9287 1.02162,-35.22072 6.88058,-30.1321 7.37276,-57.69895 1.53737,-86.10757 -12.13072,-59.05638 -52.03945,-110.15196 -106.26839,-136.05656 -6.22622,-2.9742 -13.92372,-6.29253 -17.10556,-7.37408 l -5.78516,-1.96643 9.7171,-0.63306 c 29.02858,-1.89116 53.60334,-23.00974 59.50936,-51.13998 5.17371,-24.64225 -4.42988,-50.81242 -23.94767,-65.258398 -3.73798,-2.76665 -6.63693,-5.189684 -6.44209,-5.384519 0.56142,-0.561422 21.74338,7.635967 33.87043,13.107817 33.33894,15.04285 65.18784,37.07357 92.19626,63.77457 51.12172,50.53983 82.38017,112.11945 93.8214,184.82954 2.41708,15.36076 3.34828,59.53417 1.61288,76.51018 -2.72218,26.62886 -8.76567,53.62369 -14.58826,65.16233 -7.12916,14.12787 -20.14414,25.40014 -36.06726,31.23785 -9.20421,3.37443 -25.59487,4.28065 -35.71426,1.9746 z"
     id="path8"
     transform="scale(0.08375)" />
  <path
     style="fill:#999999;stroke:#cccccc;stroke-width:1.08254"
     d="m 211.68025,326.20664 c -1.92529,-18.03531 -7.8108,-30.87708 -19.5619,-42.68265 -12.18698,-12.24347 -27.9694,-18.84199 -45.06653,-18.84199 -11.31402,0 -18.20952,1.57583 -28.60481,6.53705 -9.28732,4.43244 -17.658,11.21372 -24.452762,19.80973 -2.278704,2.88279 -4.143098,4.68162 -4.143098,3.99743 0,-2.36575 12.18705,-32.00827 17.59385,-42.79346 16.17211,-32.25926 34.42453,-57.19435 61.84399,-84.48662 51.62538,-51.38589 115.23467,-82.447048 188.67196,-92.130719 18.99855,-2.505208 58.58428,-2.505208 77.58283,0 16.6612,2.196997 37.06792,6.405239 48.36289,9.973319 8.46345,2.673603 17.96476,8.50107 25.20358,15.45819 10.04704,9.65606 17.51663,26.25927 18.75751,41.6937 2.41775,30.07298 -20.47248,59.77477 -51.00714,66.1856 -10.70442,2.24743 -18.85278,1.99816 -31.97179,-0.97804 -19.95468,-4.52696 -28.03974,-5.44081 -48.13646,-5.44081 -21.14659,0 -30.32826,1.10483 -48.87448,5.88106 -33.86586,8.72151 -64.68042,26.51007 -89.3596,51.58528 -12.5456,12.74693 -15.34677,16.17647 -24.18216,29.6068 -7.5848,11.52936 -13.20609,22.18494 -18.40945,34.8965 l -3.51452,8.5858 z"
     id="path9"
     transform="scale(0.08375)" />
  <path
     style="fill:#4d4d4d;stroke:#cccccc;stroke-width:1.08254"
     d="M 279.83762,698.33696 C 254.68633,688.38675 235.80389,678.34227 213.26116,662.92171 151.76593,620.85533 104.96137,555.07579 85.108349,482.81461 76.254331,450.58769 73.017521,423.21225 73.927267,388.2502 c 0.692868,-26.62732 3.093341,-45.04488 8.849496,-67.89749 4.885894,-19.39758 10.225551,-28.63297 22.687267,-39.23955 6.54456,-5.5703 20.55773,-12.52364 28.55407,-14.16854 27.56079,-5.66947 56.61219,8.82004 69.38635,34.60674 7.80235,15.75029 9.0114,28.76651 4.4186,47.56907 -4.5146,18.48241 -5.67911,30.7803 -5.07225,53.56552 0.652,24.48033 2.39708,34.85065 9.41064,55.92415 11.34414,34.08549 33.10602,65.88168 60.63964,88.6003 14.80328,12.21453 37.57167,25.47886 54.1272,31.53322 l 7.03654,2.57326 -7.4366,0.73961 c -11.50133,1.14385 -17.8015,2.94386 -27.20481,7.77264 -23.81317,12.22852 -38.18336,39.80829 -34.18134,65.60201 2.86631,18.47375 11.08246,32.69287 25.52099,44.16733 2.38159,1.89269 3.59946,3.4431 2.70636,3.44536 -0.8931,0.002 -6.98241,-2.11583 -13.5318,-4.70687 z"
     id="path10"
     transform="scale(0.08375)" />
</svg>
