<?xml version="1.0" encoding="UTF-8" standalone="no"?>
<svg
   width="800"
   height="800"
   viewBox="0 0 67 67"
   fill="none"
   version="1.1"
   id="svg6"
   sodipodi:docname="synergy.svg"
   inkscape:version="1.3.2 (091e20ef0f, 2023-11-25, custom)"
   xmlns:inkscape="http://www.inkscape.org/namespaces/inkscape"
   xmlns:sodipodi="http://sodipodi.sourceforge.net/DTD/sodipodi-0.dtd"
   xmlns="http://www.w3.org/2000/svg"
   xmlns:svg="http://www.w3.org/2000/svg">
  <sodipodi:namedview
     id="namedview6"
     pagecolor="#505050"
     bordercolor="#ffffff"
     borderopacity="1"
     inkscape:showpageshadow="0"
     inkscape:pageopacity="0"
     inkscape:pagecheckerboard="1"
     inkscape:deskcolor="#d1d1d1"
     inkscape:zoom="1.48"
     inkscape:cx="399.66216"
     inkscape:cy="400"
     inkscape:window-width="2560"
     inkscape:window-height="1388"
     inkscape:window-x="2560"
     inkscape:window-y="28"
     inkscape:window-maximized="1"
     inkscape:current-layer="svg6" />
  <g
     clip-path="url(#clip0)"
     id="g6"
     style="filter:url(#filter13)">
    <path
       d="M26.2192 59.4389C29.1145 60.2147 32.0905 58.4965 32.8663 55.6012C33.6421 52.7059 31.9239 49.7299 29.0286 48.9541C26.1333 48.1783 23.1573 49.8965 22.3815 52.7918C21.6057 55.6871 23.3239 58.6631 26.2192 59.4389Z"
       fill="white"
       id="path1" />
    <path
       d="M10.866 32.8547C13.7613 33.6305 16.7373 31.9123 17.5131 29.017C18.2889 26.1217 16.5707 23.1456 13.6754 22.3699C10.78 21.5941 7.80403 23.3123 7.02824 26.2076C6.25244 29.1029 7.97065 32.0789 10.866 32.8547Z"
       fill="white"
       id="path2" />
    <path
       fill-rule="evenodd"
       clip-rule="evenodd"
       d="M40.2623 7.02466C54.7002 10.8933 63.2922 25.7342 59.4721 40.1746L59.4508 40.2602C58.6756 43.1534 55.6969 44.8732 52.8037 44.098C49.9089 43.3223 48.1908 40.344 48.966 37.4508L48.978 37.3996C51.2701 28.734 46.1143 19.8303 37.4529 17.5095L37.4856 17.5183C40.3689 18.2715 43.3278 16.5535 44.1 13.6718C44.8721 10.7901 43.1686 7.82274 40.295 7.03345L40.2623 7.02466Z"
       fill="#33CC99"
       id="path3" />
    <path
       fill-rule="evenodd"
       clip-rule="evenodd"
       d="M59.4477 40.2596C55.579 54.6975 40.7381 63.2895 26.2977 59.4694L26.2121 59.4482C23.3189 58.673 21.5991 55.6942 22.3744 52.8011C23.15 49.9063 26.1283 48.1881 29.0215 48.9633L29.0727 48.9754C37.7384 51.2675 46.642 46.1116 48.9628 37.4502L48.9541 37.483C48.2008 40.3662 49.9189 43.3252 52.8006 44.0973C55.6822 44.8695 58.6496 43.166 59.4389 40.2924L59.4477 40.2596Z"
       fill="#33B2CC"
       id="path4" />
    <path
       fill-rule="evenodd"
       clip-rule="evenodd"
       d="M26.2122 59.4478C11.7743 55.5791 3.1823 40.7382 7.00243 26.2978L7.02366 26.2122C7.79888 23.319 10.7776 21.5992 13.6708 22.3744C16.5656 23.1501 18.2837 26.1284 17.5085 29.0216L17.4965 29.0728C15.2044 37.7384 20.3602 46.6421 29.0216 48.9629L28.9888 48.9541C26.1056 48.2009 23.1467 49.9189 22.3745 52.8006C21.6024 55.6823 23.3059 58.6497 26.1794 59.439L26.2122 59.4478Z"
       fill="#87D639"
       id="path5" />
    <path
       fill-rule="evenodd"
       clip-rule="evenodd"
       d="M7.02333 26.2125C10.892 11.7745 25.7329 3.18253 40.1733 7.00266L40.2589 7.02389C43.1521 7.79911 44.8719 10.7778 44.0966 13.671C43.321 16.5658 40.3427 18.2839 37.4495 17.5087L37.3983 17.4967C28.7327 15.2046 19.829 20.3604 17.5082 29.0219L17.517 28.9891C18.2702 26.1058 16.5521 23.1469 13.6704 22.3747C10.7888 21.6026 7.82141 23.3061 7.03212 26.1797L7.02333 26.2125Z"
       fill="#3B67D3"
       id="path6" />
  </g>
  <defs
     id="defs6">
    <clipPath
       id="clip0">
      <rect
         width="54.2735"
         height="54.2735"
         fill="white"
         transform="translate(14.047) rotate(15)"
         id="rect6" />
    </clipPath>
    <filter
       style="color-interpolation-filters:sRGB;"
       inkscape:label="Greyscale"
       id="filter13"
       x="0"
       y="0"
       width="1"
       height="1">
      <feColorMatrix
         values="-0.218069 0.841121 -0.342679 0.46 0 -0.218069 0.841121 -0.342679 0.46 0 -0.218069 0.841121 -0.342679 0.46 0 0 0 0 1 0 "
         id="feColorMatrix13" />
    </filter>
  </defs>
</svg>
