<?xml version="1.0" encoding="UTF-8" standalone="no"?>
<svg
   width="22"
   height="22"
   version="1.1"
   id="svg6"
   sodipodi:docname="kdeconnect-symbolic.svg"
   inkscape:version="1.3.2 (091e20ef0f, 2023-11-25, custom)"
   xmlns:inkscape="http://www.inkscape.org/namespaces/inkscape"
   xmlns:sodipodi="http://sodipodi.sourceforge.net/DTD/sodipodi-0.dtd"
   xmlns="http://www.w3.org/2000/svg"
   xmlns:svg="http://www.w3.org/2000/svg">
  <sodipodi:namedview
     id="namedview1"
     pagecolor="#505050"
     bordercolor="#ffffff"
     borderopacity="1"
     inkscape:showpageshadow="0"
     inkscape:pageopacity="0"
     inkscape:pagecheckerboard="1"
     inkscape:deskcolor="#d1d1d1"
     inkscape:zoom="33.590909"
     inkscape:cx="10.985115"
     inkscape:cy="10.985115"
     inkscape:window-width="2560"
     inkscape:window-height="1388"
     inkscape:window-x="2560"
     inkscape:window-y="28"
     inkscape:window-maximized="1"
     inkscape:current-layer="svg6" />
  <defs
     id="defs10" />
  <namedview
     id="namedview8"
     pagecolor="#ffffff"
     bordercolor="#000000"
     borderopacity="0.25"
     inkscape:showpageshadow="2"
     inkscape:pageopacity="0.0"
     inkscape:pagecheckerboard="0"
     inkscape:deskcolor="#d1d1d1"
     showgrid="false"
     inkscape:zoom="35.136364"
     inkscape:cx="9.4773609"
     inkscape:cy="10.98577"
     inkscape:window-width="1920"
     inkscape:window-height="1011"
     inkscape:window-x="0"
     inkscape:window-y="0"
     inkscape:window-maximized="1"
     inkscape:current-layer="svg6" />
  <style
     type="text/css"
     id="current-color-scheme">.ColorScheme-Text{color:#31363b;}.ColorScheme-Background{color:#eff0f1;}.ColorScheme-Highlight{color:#3daee9;}.ColorScheme-ViewText{color:#31363b;}.ColorScheme-ViewBackground{color:#fcfcfc;}.ColorScheme-ViewHover{color:#93cee9;}.ColorScheme-ViewFocus{color:#3daee9;}.ColorScheme-ButtonText{color:#31363b;}.ColorScheme-ButtonBackground{color:#eff0f1;}.ColorScheme-ButtonHover{color:#93cee9;}.ColorScheme-ButtonFocus { color: #3daee9; } </style>
  <g
     id="22-22-kdeconnect"
     transform="translate(-356,-534.36218)">
    <rect
       style="opacity:1;fill:none;fill-opacity:1;stroke:none;stroke-width:0.138587;stroke-linecap:square;stroke-linejoin:miter;stroke-miterlimit:4;stroke-dasharray:none;stroke-dashoffset:0;stroke-opacity:1"
       id="rect4444"
       width="22"
       height="22"
       x="356"
       y="534.36218" />
    <path
       style="opacity:1;fill:currentColor;fill-opacity:1;stroke:none;stroke-width:0.1;stroke-linecap:square;stroke-linejoin:miter;stroke-miterlimit:4;stroke-dasharray:none;stroke-dashoffset:0;stroke-opacity:1"
       d="M 40,8 V 24 H 50 V 8 Z m 3,1 h 4 v 1 h -4 z m -2,2 h 8 v 5.5 l -1.107422,-0.277344 c -0.0672,-0.252122 -0.166996,-0.494401 -0.296875,-0.720703 l 0.585938,-0.976562 -0.707032,-0.707032 -0.976562,0.585938 C 46.271331,14.272906 46.028379,14.171786 45.775391,14.103516 L 45.5,13 h -1 l -0.277344,1.107422 c -0.252122,0.0672 -0.494401,0.166996 -0.720703,0.296875 l -0.976562,-0.585938 -0.707032,0.707032 0.585938,0.976562 c -0.131391,0.226716 -0.232511,0.469668 -0.300781,0.722656 L 41,16.5 Z m 4,4 c 0.06653,-6e-5 0.133016,0.0032 0.199219,0.0098 0.0662,0.0065 0.132038,0.01626 0.197265,0.0293 0.06592,0.01363 0.131105,0.03058 0.195313,0.05078 0.0636,0.01965 0.126177,0.04247 0.1875,0.06836 0.06129,0.02564 0.121256,0.05433 0.179687,0.08594 0.05836,0.0323 0.115076,0.0675 0.169922,0.105468 0.05538,0.03766 0.108832,0.07807 0.160156,0.121094 0.05108,0.0431 0.09997,0.08873 0.146485,0.136719 0.04604,0.04729 0.08971,0.09683 0.130859,0.148437 0.0418,0.05268 0.08091,0.10744 0.117188,0.164063 0.03609,0.05624 0.06933,0.114258 0.09961,0.173828 0.02968,0.05918 0.05641,0.119806 0.08008,0.181641 0.02463,0.06204 0.04614,0.125266 0.06445,0.189453 0.01757,0.06435 0.03191,0.129532 0.04297,0.195312 0.01114,0.06597 0.01896,0.132462 0.02344,0.199219 0.0036,0.04679 0.0056,0.0937 0.0059,0.140625 6e-5,0.06653 -0.0032,0.133016 -0.0098,0.199219 -0.0065,0.0662 -0.01626,0.132038 -0.0293,0.197265 -0.01363,0.06592 -0.03058,0.131105 -0.05078,0.195313 -0.01965,0.0636 -0.04247,0.126177 -0.06836,0.1875 -0.02564,0.06129 -0.05432,0.121256 -0.08594,0.179687 -0.0323,0.05836 -0.0675,0.115076 -0.105468,0.169922 -0.03766,0.05538 -0.07807,0.108832 -0.121094,0.160156 -0.0431,0.05108 -0.08873,0.09997 -0.136719,0.146485 -0.04729,0.04604 -0.09683,0.08972 -0.148437,0.130859 -0.05268,0.0418 -0.10744,0.08091 -0.164063,0.117188 -0.05624,0.03609 -0.114258,0.06933 -0.173828,0.09961 -0.05918,0.02968 -0.119806,0.05641 -0.181641,0.08008 -0.06204,0.02463 -0.125266,0.04614 -0.189453,0.06445 -0.06435,0.01757 -0.129532,0.03191 -0.195312,0.04297 -0.06597,0.01114 -0.132462,0.01896 -0.199219,0.02344 -0.02795,0.0025 -0.05595,0.0045 -0.08398,0.0059 h -0.136719 c -0.03976,-7.68e-4 -0.07949,-0.0027 -0.119141,-0.0059 -0.0662,-0.0065 -0.132038,-0.01626 -0.197265,-0.0293 -0.06592,-0.01363 -0.131105,-0.03058 -0.195313,-0.05078 -0.0636,-0.01965 -0.126177,-0.04247 -0.1875,-0.06836 -0.06129,-0.02564 -0.121256,-0.05432 -0.179687,-0.08594 -0.05836,-0.0323 -0.115076,-0.0675 -0.169922,-0.105469 -0.05538,-0.03766 -0.108832,-0.07807 -0.160156,-0.121094 -0.03011,-0.02646 -0.05942,-0.05381 -0.08789,-0.08203 l -0.08789,-0.08789 c -0.03532,-0.0371 -0.0692,-0.07554 -0.101562,-0.115234 -0.0418,-0.05268 -0.08091,-0.10744 -0.117188,-0.164063 -0.03609,-0.05624 -0.06933,-0.114258 -0.09961,-0.173828 -0.02968,-0.05918 -0.05641,-0.119805 -0.08008,-0.18164 -0.02463,-0.06204 -0.04614,-0.125267 -0.06445,-0.189454 -0.01757,-0.06435 -0.03191,-0.129532 -0.04297,-0.195312 -0.01114,-0.06597 -0.01896,-0.132462 -0.02344,-0.199219 -0.0036,-0.04679 -0.0056,-0.0937 -0.0059,-0.140625 -6e-5,-0.06653 0.0032,-0.133016 0.0098,-0.199218 0.0065,-0.0662 0.01626,-0.132039 0.0293,-0.197266 0.01363,-0.06592 0.03058,-0.131105 0.05078,-0.195313 0.01965,-0.0636 0.04247,-0.126177 0.06836,-0.1875 0.02564,-0.06129 0.05432,-0.121256 0.08594,-0.179687 0.0323,-0.05836 0.0675,-0.115076 0.105468,-0.169922 0.03766,-0.05538 0.07807,-0.108832 0.121094,-0.160156 0.0431,-0.05108 0.08873,-0.09997 0.136719,-0.146485 0.04729,-0.04604 0.09683,-0.08971 0.148437,-0.130859 0.05268,-0.0418 0.10744,-0.08091 0.164063,-0.117188 0.05624,-0.03609 0.114258,-0.06933 0.173828,-0.09961 0.05918,-0.02968 0.119806,-0.05641 0.181641,-0.08008 0.06204,-0.02463 0.125266,-0.04614 0.189453,-0.06445 0.06435,-0.01757 0.129532,-0.03191 0.195312,-0.04297 0.06597,-0.01114 0.132462,-0.01896 0.199219,-0.02344 C 44.906121,15.004859 44.953025,15.001602 45,15 Z m -4,2.5 1.107422,0.277344 c 0.0672,0.252122 0.166996,0.494401 0.296875,0.720703 l -0.585938,0.976562 0.707032,0.707032 0.976562,-0.585938 c 0.226716,0.131391 0.469668,0.232511 0.722656,0.300781 L 44.5,21 h 1 l 0.277344,-1.107422 c 0.252122,-0.0672 0.494401,-0.166996 0.720703,-0.296875 l 0.976562,0.585938 0.707032,-0.707032 -0.585938,-0.976562 c 0.131391,-0.226716 0.232511,-0.469668 0.300781,-0.722656 L 49,17.5 v 3.5 1 h -2 -4 -2 v -1 z"
       transform="translate(322,529.36218)"
       id="rect4403"
       inkscape:connector-curvature="0"
       sodipodi:nodetypes="ccccccccccccccccccccccccccccccccccccccccccccccccccccccccccccccccccccccccccccccccccccccccccccccccccccccccccccccccccccccc"
       class="ColorScheme-Text" />
  </g>
  <path
     style="fill:#ffffff;stroke:#cccccc;stroke-width:0.02977"
     d="M 6.0135318,11 V 3.0216509 H 11 15.986468 V 11 18.978349 H 11 6.0135318 Z m 8.9905282,3.74783 c 0,-1.799983 -0.0077,-2.262901 -0.03721,-2.252075 -0.02047,0.0075 -0.27322,0.07173 -0.561673,0.142753 l -0.524461,0.129125 -0.05075,0.169406 c -0.02791,0.09317 -0.09503,0.257427 -0.149157,0.365008 l -0.09841,0.195601 0.23722,0.395966 c 0.130471,0.217782 0.26227,0.436889 0.292886,0.486904 l 0.05567,0.09094 -0.348631,0.346483 -0.348631,0.346483 -0.483353,-0.290572 -0.483352,-0.290572 -0.201283,0.09774 c -0.110705,0.05376 -0.277304,0.120517 -0.37022,0.14835 l -0.168937,0.05061 -0.139825,0.560688 -0.139825,0.560688 H 11 10.515888 l -0.139321,-0.55819 -0.139321,-0.558186 -0.174429,-0.05485 C 9.9668803,14.799961 9.8011816,14.731402 9.6945971,14.677776 L 9.5008072,14.580275 9.0149504,14.872348 8.5290934,15.164422 8.1830502,14.820521 7.837007,14.476619 8.1255386,13.988754 8.4140702,13.50089 8.3187548,13.299836 C 8.2663314,13.189256 8.2001873,13.024444 8.171768,12.933586 L 8.1200965,12.76839 7.5952309,12.638291 c -0.288676,-0.07155 -0.5416111,-0.135963 -0.562078,-0.143131 -0.029558,-0.01035 -0.037212,0.453004 -0.037212,2.25267 v 2.265702 H 11 15.00406 Z M 11.479,13.947441 c 0.326508,-0.08226 0.632166,-0.244006 0.86635,-0.458452 1.04697,-0.958726 0.813031,-2.655841 -0.452251,-3.280872 -0.347632,-0.171725 -0.630396,-0.231799 -0.982409,-0.2087145 -0.338714,0.022211 -0.532419,0.074476 -0.840263,0.2267165 -0.4465109,0.220816 -0.803882,0.641652 -0.9833836,1.158022 -0.068209,0.196215 -0.078812,0.27539 -0.080122,0.598268 -0.00126,0.309607 0.010199,0.409634 0.068179,0.595399 0.1118791,0.358452 0.232872,0.556498 0.5114071,0.837088 0.3983796,0.401319 0.8287505,0.584279 1.3864035,0.58939 0.1791,0.0016 0.350239,-0.01758 0.506089,-0.05685 z m -3.9073962,-2.577666 0.5447893,-0.136315 0.05104,-0.165754 c 0.028072,-0.09117 0.096353,-0.256043 0.1517347,-0.366395 L 8.4198625,10.50067 8.1265122,10.013529 7.8331619,9.526387 8.1794997,9.1777555 8.5258375,8.8291242 l 0.090938,0.055085 c 0.050016,0.030297 0.26771,0.1632111 0.4837646,0.2953644 l 0.392827,0.2402792 0.247227,-0.1151314 C 9.8765693,9.2413992 10.043534,9.1731888 10.111627,9.1531432 l 0.123805,-0.036447 0.10836,-0.4352085 c 0.0596,-0.2393648 0.121622,-0.4854457 0.13783,-0.5468462 l 0.02947,-0.1116373 H 11 11.488909 l 0.02947,0.1116373 c 0.01621,0.061401 0.07815,0.307148 0.137644,0.5461055 l 0.108175,0.4344684 0.168646,0.05293 c 0.09276,0.029112 0.258852,0.098239 0.369105,0.1536172 l 0.200459,0.1006868 0.39494,-0.241577 C 13.114565,9.0480049 13.33321,8.9145069 13.383226,8.8842097 l 0.09094,-0.055085 0.346337,0.3486313 0.346338,0.3486315 -0.293997,0.4882195 -0.293998,0.48822 0.09869,0.196489 c 0.05428,0.108069 0.122505,0.272375 0.151615,0.365125 l 0.05293,0.168635 0.545557,0.136507 c 0.300056,0.07508 0.552503,0.136507 0.560994,0.136507 0.0085,0 0.01544,-1.239174 0.01544,-2.7537214 V 5.9986468 H 11 6.9959405 v 2.7537213 c 0,1.5145469 0.00695,2.7537209 0.015437,2.7537209 0.00849,0 0.2605922,-0.06134 0.5602263,-0.136314 z M 13.009472,4.4952639 V 3.9742896 H 11 8.9905277 V 4.4952639 5.0162382 H 11 13.009472 Z"
     id="path1" />
</svg>
