<?xml version="1.0" encoding="UTF-8" standalone="no"?>
<svg
   width="22"
   height="22"
   version="1.1"
   id="svg6"
   sodipodi:docname="konversation-symbolic.svg"
   inkscape:version="1.3.2 (091e20ef0f, 2023-11-25, custom)"
   xmlns:inkscape="http://www.inkscape.org/namespaces/inkscape"
   xmlns:sodipodi="http://sodipodi.sourceforge.net/DTD/sodipodi-0.dtd"
   xmlns="http://www.w3.org/2000/svg"
   xmlns:svg="http://www.w3.org/2000/svg">
  <sodipodi:namedview
     id="namedview1"
     pagecolor="#505050"
     bordercolor="#ffffff"
     borderopacity="1"
     inkscape:showpageshadow="0"
     inkscape:pageopacity="0"
     inkscape:pagecheckerboard="1"
     inkscape:deskcolor="#d1d1d1"
     inkscape:zoom="33.590909"
     inkscape:cx="10.985115"
     inkscape:cy="10.985115"
     inkscape:window-width="2560"
     inkscape:window-height="1388"
     inkscape:window-x="2560"
     inkscape:window-y="28"
     inkscape:window-maximized="1"
     inkscape:current-layer="svg6" />
  <defs
     id="defs10" />
  <namedview
     id="namedview8"
     pagecolor="#ffffff"
     bordercolor="#000000"
     borderopacity="0.25"
     inkscape:showpageshadow="2"
     inkscape:pageopacity="0.0"
     inkscape:pagecheckerboard="0"
     inkscape:deskcolor="#d1d1d1"
     showgrid="false"
     inkscape:zoom="35.136364"
     inkscape:cx="9.4773609"
     inkscape:cy="10.98577"
     inkscape:window-width="1920"
     inkscape:window-height="1011"
     inkscape:window-x="0"
     inkscape:window-y="0"
     inkscape:window-maximized="1"
     inkscape:current-layer="svg6" />
  <style
     type="text/css"
     id="current-color-scheme">.ColorScheme-Text{color:#31363b;}.ColorScheme-Background{color:#eff0f1;}.ColorScheme-Highlight{color:#3daee9;}.ColorScheme-ViewText{color:#31363b;}.ColorScheme-ViewBackground{color:#fcfcfc;}.ColorScheme-ViewHover{color:#93cee9;}.ColorScheme-ViewFocus{color:#3daee9;}.ColorScheme-ButtonText{color:#31363b;}.ColorScheme-ButtonBackground{color:#eff0f1;}.ColorScheme-ButtonHover{color:#93cee9;}.ColorScheme-ButtonFocus { color: #3daee9; } </style>
  <g
     id="konversation"
     transform="translate(-326,-534.36218)">
    <path
       sodipodi:nodetypes="cccccccccccccccccccccccccccccccccccccc"
       inkscape:connector-curvature="0"
       id="rect3353"
       d="m 344,538.3622 -12,3.41797 v 1.04297 4.53906 0.58203 l 1,0.28516 v 2.13281 0.30078 l 6,1.69922 v -1 -1.42383 l 5,1.42383 v -1.04297 -10.91406 z m -1,1.32813 v 10.34375 l -10,-2.84766 v -4.64844 z m -12,2.375 -1,0.28515 v 0.0117 1 3 1 0.0117 l 1,0.28516 v -0.29688 -0.74609 -3.50782 -0.74609 z m 3,6.44921 4,1.13868 v 1.42578 l -4,-1.13282 z"
       style="opacity:1;fill:currentColor;fill-opacity:1;stroke:none;stroke-width:0.1;stroke-linecap:round;stroke-linejoin:miter;stroke-miterlimit:4;stroke-dasharray:none;stroke-opacity:0.299435"
       class="ColorScheme-Text" />
    <rect
       y="534.36218"
       x="326"
       height="22"
       width="22"
       id="rect4170"
       style="opacity:1;fill:none;fill-opacity:1;stroke:none" />
  </g>
  <path
     style="fill:#ffffff;stroke:#cccccc;stroke-width:0.02977"
     d="M 12.756428,17.920998 C 12.690934,17.898738 11.940731,17.684076 11.08931,17.443971 10.237889,17.203866 9.0322057,16.862843 8.4100135,16.686141 7.7878214,16.50944 7.22182,16.349542 7.1522327,16.330812 L 7.0257104,16.296758 V 15.079576 13.862395 L 6.8843031,13.821104 C 6.8065291,13.798395 6.5787889,13.733789 6.3782138,13.677536 L 6.0135318,13.575257 V 10.502692 7.4301261 L 6.214479,7.370824 C 6.325,7.3382081 7.1924222,7.0907015 8.1420839,6.8208097 11.500528,5.866347 17.108513,4.2690315 17.52738,4.1476073 c 0.233496,-0.067687 0.431125,-0.116482 0.439175,-0.1084322 0.008,0.00805 0.01126,2.9224037 0.0071,6.4763419 l -0.0075,6.461706 -2.232747,-0.63707 c -1.228011,-0.350388 -2.349967,-0.669495 -2.493235,-0.709126 l -0.260487,-0.07206 v 1.2036 c 0,1.350573 0.02103,1.24146 -0.223274,1.158427 z m -0.72982,-1.897317 c -2.51e-4,-0.380684 -0.0103,-0.706054 -0.02233,-0.723046 -0.02078,-0.02936 -3.9100591,-1.145987 -3.9892477,-1.145332 -0.029648,2.46e-4 -0.036032,0.154589 -0.02977,0.719682 l 0.00797,0.719369 1.9648173,0.558828 c 1.0806494,0.307356 1.9882614,0.559688 2.0169144,0.560739 0.04819,0.0018 0.05206,-0.05 0.05164,-0.69024 z m 4.972039,-5.532955 c 0,-4.1887127 -0.0073,-5.1803636 -0.03796,-5.1685919 -0.03061,0.011744 -5.051829,1.4439139 -9.1460727,2.6086718 l -0.8037889,0.2286672 -0.00762,2.3384309 -0.00762,2.338431 0.9007205,0.256288 c 5.7492611,1.635871 8.4007471,2.391765 8.6855641,2.476107 0.188295,0.05576 0.359101,0.10223 0.379567,0.103267 0.02963,0.0015 0.03721,-1.053586 0.03721,-5.181271 z"
     id="path1" />
  <path
     style="fill:#ffffff;stroke:#cccccc;stroke-width:0.02977"
     d="m 4.4654939,13.132876 -0.4316644,-0.125371 -0.00761,-2.505076 c -0.00719,-2.3669499 -0.00473,-2.5059218 0.044655,-2.5204224 0.3011144,-0.088415 0.8998323,-0.2567021 0.9132764,-0.2567021 0.00946,0 0.017203,1.2458728 0.017203,2.7686065 0,2.617734 -0.00284,2.76849 -0.052097,2.766471 -0.028654,-0.0012 -0.2463465,-0.05855 -0.4837619,-0.127506 z"
     id="path2" />
</svg>
