<?xml version="1.0" encoding="UTF-8" standalone="no"?>
<svg
   width="22"
   height="22"
   version="1.1"
   id="svg1"
   sodipodi:docname="ktorrent-symbolic.svg"
   inkscape:version="1.3.2 (091e20ef0f, 2023-11-25, custom)"
   xmlns:inkscape="http://www.inkscape.org/namespaces/inkscape"
   xmlns:sodipodi="http://sodipodi.sourceforge.net/DTD/sodipodi-0.dtd"
   xmlns="http://www.w3.org/2000/svg"
   xmlns:svg="http://www.w3.org/2000/svg">
  <defs
     id="defs1" />
  <sodipodi:namedview
     id="namedview1"
     pagecolor="#505050"
     bordercolor="#ffffff"
     borderopacity="1"
     inkscape:showpageshadow="0"
     inkscape:pageopacity="0"
     inkscape:pagecheckerboard="1"
     inkscape:deskcolor="#d1d1d1"
     inkscape:zoom="33.590909"
     inkscape:cx="10.985115"
     inkscape:cy="10.985115"
     inkscape:window-width="2560"
     inkscape:window-height="1388"
     inkscape:window-x="2560"
     inkscape:window-y="28"
     inkscape:window-maximized="1"
     inkscape:current-layer="svg1" />
  <style
     type="text/css"
     id="current-color-scheme">.ColorScheme-Text{color:#31363b;}.ColorScheme-Background{color:#eff0f1;}.ColorScheme-Highlight{color:#3daee9;}.ColorScheme-ViewText{color:#31363b;}.ColorScheme-ViewBackground{color:#fcfcfc;}.ColorScheme-ViewHover{color:#93cee9;}.ColorScheme-ViewFocus{color:#3daee9;}.ColorScheme-ButtonText{color:#31363b;}.ColorScheme-ButtonBackground{color:#eff0f1;}.ColorScheme-ButtonHover{color:#93cee9;}.ColorScheme-ButtonFocus { color: #3daee9; } </style>
  <g
     id="ktorrent">
    <path
       id="rect4163"
       d="M 8 3 L 8 9 L 9 9 L 9 4 L 13 4 L 13 9 L 14 9 L 14 3 L 13 3 L 9 3 L 8 3 z M 5.7929688 10 L 5 10.816406 L 11 17 L 17 10.816406 L 16.207031 10 L 11 15.367188 L 5.7929688 10 z M 4 17 L 4 19 L 5 19 L 17 19 L 18 19 L 18 17 L 17 17 L 17 18 L 5 18 L 5 17 L 4 17 z "
       style="fill:currentColor;fill-opacity:1;stroke:none"
       class="ColorScheme-Text" />
    <rect
       y="0"
       x="0"
       height="22"
       width="22"
       id="rect4183"
       style="opacity:1;fill:none;fill-opacity:1;stroke:none;stroke-width:0.1;stroke-linecap:square;stroke-linejoin:miter;stroke-miterlimit:4;stroke-dasharray:none;stroke-dashoffset:0;stroke-opacity:1" />
  </g>
  <path
     style="fill:#ffffff;stroke:#cccccc;stroke-width:0.02977"
     d="M 10.776305,16.754534 C 10.386456,16.347767 8.6704527,14.576182 8.1580007,14.051421 7.8861806,13.773072 7.2363544,13.103248 6.7139426,12.562923 6.1915307,12.022598 5.5970207,11.410705 5.3928092,11.203161 l -0.3712936,-0.377353 0.3836793,-0.406651 0.3836794,-0.406651 0.296593,0.307685 c 0.1631262,0.169226 0.5117458,0.529075 0.7747104,0.799664 0.2629645,0.270589 0.6925787,0.712673 0.9546981,0.982409 0.2621197,0.269736 0.8916959,0.919116 1.3990591,1.443068 0.5073629,0.523951 1.1176301,1.15173 1.3561481,1.395064 l 0.433671,0.442426 2.602994,-2.684279 2.602995,-2.684279 0.378418,0.396116 c 0.20813,0.217863 0.375586,0.405639 0.372125,0.41728 -0.0035,0.01164 -0.17342,0.192493 -0.377684,0.401894 -0.204265,0.209402 -0.572669,0.588443 -0.818674,0.842315 -0.246006,0.253872 -0.681898,0.702654 -0.968649,0.997294 -0.286751,0.294639 -0.936054,0.964396 -1.442896,1.488347 -0.506842,0.523951 -1.143543,1.180379 -1.414889,1.458728 -0.271348,0.278349 -0.593547,0.610582 -0.716,0.738296 l -0.22264,0.232206 z"
     id="path1" />
  <path
     style="fill:#ffffff;stroke:#cccccc;stroke-width:0.02977"
     d="M 8.0081191,5.9986468 V 3.0216509 H 11 13.991881 v 2.9769959 2.976996 H 13.500677 13.009472 V 6.4749662 3.9742896 H 11 8.9905277 V 6.4749662 8.9756428 H 8.4993234 8.0081191 Z"
     id="path2" />
  <path
     style="fill:#ffffff;stroke:#cccccc;stroke-width:0.02977"
     d="m 4.0189445,17.99594 v -0.982408 h 0.4912043 0.4912044 v 0.506089 0.506089 H 11 16.998647 v -0.506089 -0.506089 h 0.491204 0.491204 v 0.982408 0.982409 H 11 4.0189445 Z"
     id="path3" />
</svg>
