<?xml version="1.0" encoding="UTF-8" standalone="no"?>
<svg
   width="16"
   height="16"
   version="1.1"
   id="svg1"
   sodipodi:docname="input-mouse-battery.svg"
   inkscape:version="1.3.2 (091e20ef0f, 2023-11-25, custom)"
   xmlns:inkscape="http://www.inkscape.org/namespaces/inkscape"
   xmlns:sodipodi="http://sodipodi.sourceforge.net/DTD/sodipodi-0.dtd"
   xmlns="http://www.w3.org/2000/svg"
   xmlns:svg="http://www.w3.org/2000/svg">
  <defs
     id="defs1" />
  <sodipodi:namedview
     id="namedview1"
     pagecolor="#505050"
     bordercolor="#ffffff"
     borderopacity="1"
     inkscape:showpageshadow="0"
     inkscape:pageopacity="0"
     inkscape:pagecheckerboard="1"
     inkscape:deskcolor="#d1d1d1"
     inkscape:zoom="74"
     inkscape:cx="7.9932432"
     inkscape:cy="8"
     inkscape:window-width="2560"
     inkscape:window-height="1388"
     inkscape:window-x="2560"
     inkscape:window-y="28"
     inkscape:window-maximized="1"
     inkscape:current-layer="svg1" />
  <style
     type="text/css"
     id="current-color-scheme">.ColorScheme-Text{color:#31363b;}.ColorScheme-Background{color:#eff0f1;}.ColorScheme-Highlight{color:#3daee9;}.ColorScheme-ViewText{color:#31363b;}.ColorScheme-ViewBackground{color:#fcfcfc;}.ColorScheme-ViewHover{color:#93cee9;}.ColorScheme-ViewFocus{color:#3daee9;}.ColorScheme-ButtonText{color:#31363b;}.ColorScheme-ButtonBackground{color:#eff0f1;}.ColorScheme-ButtonHover{color:#93cee9;}.ColorScheme-ButtonFocus { color: #3daee9; } </style>
  <g
     id="16-16-input-mouse-battery"
     transform="translate(-303,-265.36218) translate(0,-272)">
    <path
       class="ColorScheme-Text"
       transform="translate(319,457.36217)"
       d="m-8 82a4 4 0 0 0-4 4v4a4 4 0 0 0 4 4 4 4 0 0 0 4-4v-4a4 4 0 0 0-4-4zm0 1a3 3 0 0 1 3 3v4a3 3 0 0 1-3 3 3 3 0 0 1-3-3v-4a3 3 0 0 1 3-3zm0 1-2 5h2v3l2-5h-2z"
       fill="currentColor"
       id="path1" />
    <rect
       x="303"
       y="537.36218"
       width="16"
       height="16"
       fill="none"
       id="rect1" />
  </g>
  <path
     style="fill:#ffffff;stroke:#cccccc;stroke-width:0.0135135"
     d="M 8,10.481982 V 8.9932432 H 7.005311 c -0.941607,0 -0.9942278,-0.00126 -0.9860447,-0.023649 0.00475,-0.013007 0.4508442,-1.1296719 0.9913106,-2.481478 l 0.9826663,-2.4578293 0.00344,1.4882347 0.00344,1.4882348 h 0.9931839 c 0.5462512,0 0.9931841,0.00303 0.9931841,0.00674 0,0.0097 -1.9744145,4.9448466 -1.9809943,4.9515926 C 8.0024715,11.968187 8,11.300788 8,10.481982 Z"
     id="path2" />
  <path
     style="fill:#ffffff;stroke:#cccccc;stroke-width:0.0135135"
     d="M 7.6361061,13.978214 C 5.893612,13.823502 4.4344478,12.515679 4.0878184,10.797947 4.0062193,10.39358 4.0096651,10.49988 4.0036908,8.2027027 3.9971999,5.7068807 4.0006142,5.5989266 4.1006349,5.1375412 4.3469778,4.0011866 5.1091047,3.0056629 6.1487135,2.4622505 6.5622809,2.2460754 6.9501838,2.120884 7.4457764,2.043638 c 0.2648486,-0.041281 0.8435986,-0.041281 1.1084472,0 0.624223,0.097295 1.1423398,0.2929114 1.6349654,0.6172854 0.233242,0.1535802 0.421561,0.3074364 0.629647,0.5144207 0.643235,0.6398285 1.028303,1.431945 1.149781,2.3651964 0.02297,0.1764837 0.02463,0.3407481 0.02463,2.445946 0,2.3347775 -4.05e-4,2.3544345 -0.05534,2.6824325 -0.03326,0.198601 -0.117775,0.515704 -0.189083,0.709459 -0.08285,0.225115 -0.274216,0.606506 -0.400404,0.798002 -0.221314,0.33585 -0.544673,0.694931 -0.834905,0.927136 -0.6354072,0.508369 -1.3682535,0.803339 -2.1756762,0.875706 -0.178477,0.016 -0.5156685,0.01551 -0.7017317,-10e-4 z m 0.6341642,-0.985739 c 0.5835323,-0.05328 1.1547832,-0.284664 1.6148648,-0.654095 0.6016459,-0.483101 0.9923859,-1.18247 1.0940819,-1.958248 0.03125,-0.238402 0.03125,-4.5218619 0,-4.7602643 C 10.918784,5.1588607 10.754288,4.715083 10.506201,4.3437624 9.6537704,3.0679022 8.0097907,2.6327475 6.6418919,3.3208959 6.0694227,3.6088877 5.5898911,4.0939942 5.3043595,4.6739778 5.1588243,4.969595 5.0509901,5.3366268 5.0140302,5.6621622 c -0.018889,0.1663748 -0.018889,4.5093008 0,4.6756758 0.064552,0.568563 0.314546,1.154827 0.6737024,1.579909 0.5387663,0.637661 1.2425048,1.000352 2.0960512,1.080257 0.1100839,0.01031 0.3419247,0.0077 0.4864865,-0.0055 z"
     id="path3" />
</svg>
