<?xml version="1.0" encoding="UTF-8" standalone="no"?>
<svg
   viewBox="0 0 16 16"
   version="1.1"
   id="svg2"
   sodipodi:docname="network-wireless-disconnected.svg"
   inkscape:version="1.3.2 (091e20ef0f, 2023-11-25, custom)"
   xmlns:inkscape="http://www.inkscape.org/namespaces/inkscape"
   xmlns:sodipodi="http://sodipodi.sourceforge.net/DTD/sodipodi-0.dtd"
   xmlns="http://www.w3.org/2000/svg"
   xmlns:svg="http://www.w3.org/2000/svg">
  <sodipodi:namedview
     id="namedview2"
     pagecolor="#505050"
     bordercolor="#ffffff"
     borderopacity="1"
     inkscape:showpageshadow="0"
     inkscape:pageopacity="0"
     inkscape:pagecheckerboard="1"
     inkscape:deskcolor="#d1d1d1"
     inkscape:zoom="74"
     inkscape:cx="7.9932432"
     inkscape:cy="8"
     inkscape:window-width="2560"
     inkscape:window-height="1388"
     inkscape:window-x="2560"
     inkscape:window-y="28"
     inkscape:window-maximized="1"
     inkscape:current-layer="svg2" />
  <defs
     id="defs3051">
    <style
       type="text/css"
       id="current-color-scheme">.ColorScheme-Text{color:#232629;}.ColorScheme-NegativeText { color: #da4453; } </style>
  </defs>
  <path
     style="fill:currentColor;fill-opacity:0.5;stroke:none"
     d="M 8 2 C 5.1217226 2 2.4471588 2.8167177 0.16796875 4.2109375 L 0.79882812 4.9980469 C 2.902248 3.7369058 5.3590869 3 8 3 C 10.640918 3 13.097755 3.7369049 15.201172 4.9980469 L 15.832031 4.2109375 C 13.552841 2.8167214 10.878283 2 8 2 z M 8 5 C 5.8435991 5 3.8425681 5.6235825 2.1484375 6.6875 L 2.7792969 7.4726562 C 4.2984285 6.5437457 6.0817927 6 8 6 C 9.9182124 6 11.701572 6.5437533 13.220703 7.4726562 L 13.851562 6.6875 C 12.157436 5.623599 10.156407 5 8 5 z M 8 8 C 6.5661803 8 5.2366865 8.428369 4.1289062 9.1621094 L 4.7597656 9.9492188 C 5.693648 9.3502152 6.8034854 9 8 9 C 8.6070085 9 9.191451 9.090787 9.7421875 9.2578125 L 10.515625 8.484375 C 9.7333784 8.1830619 8.8909894 8 8 8 z M 8 11 A 1.5 1.5 0 0 0 6.5 12.5 A 1.5 1.5 0 0 0 8 14 A 1.5 1.5 0 0 0 9.5 12.5 A 1.5 1.5 0 0 0 8 11 z "
     class="ColorScheme-Text"
     id="path1" />
  <path
     style="fill:currentColor;fill-opacity:1;stroke:none"
     class="ColorScheme-NegativeText"
     d="M 10.707031 9 L 10 9.7070312 L 11.792969 11.5 L 10 13.292969 L 10.707031 14 L 12.5 12.207031 L 14.292969 14 L 15 13.292969 L 13.207031 11.5 L 15 9.7070312 L 14.292969 9 L 12.5 10.792969 L 10.707031 9 z "
     id="path2" />
  <path
     style="fill:#ffffff;stroke:#cccccc;stroke-width:0.0135135;opacity:0.3"
     d="M 4.4480322,9.550817 4.1363928,9.1626512 4.2404937,9.0961079 C 4.6737981,8.8191312 5.2634956,8.5371463 5.75,8.3742835 7.0950828,7.9240021 8.484993,7.8869065 9.8356245,8.2652414 c 0.1804805,0.050556 0.6071335,0.1908961 0.6471965,0.2128844 0.01062,0.00583 -0.120963,0.1463578 -0.364865,0.3896874 L 9.7364865,9.2483874 9.5107139,9.1896076 C 8.2245389,8.8547522 6.8628665,8.9557874 5.6418919,9.4766716 5.4332594,9.565677 5.1009123,9.7348607 4.9123874,9.8480311 4.8379392,9.8927219 4.7731221,9.9314686 4.7683493,9.9341349 4.7635766,9.9368012 4.6194339,9.7643081 4.4480322,9.550817 Z"
     id="path3" />
  <path
     style="opacity:0.3;fill:#ffffff;stroke:#cccccc;stroke-width:0.0135135"
     d="M 7.7567568,13.973278 C 7.371067,13.907845 7.0348431,13.701043 6.7972,13.383081 6.4316517,12.893985 6.4127212,12.191054 6.7513377,11.680112 6.8387127,11.548271 7.0187579,11.363029 7.143012,11.277132 7.2788295,11.183241 7.464862,11.097162 7.6283784,11.052548 7.751523,11.01895 7.7844969,11.015678 8,11.015678 c 0.2155031,0 0.248477,0.0033 0.3716216,0.03687 0.272976,0.07448 0.5077843,0.212735 0.6986318,0.411357 0.2469274,0.256986 0.3823424,0.551498 0.4158998,0.904533 0.073184,0.769915 -0.477305,1.479714 -1.2440386,1.60406 -0.1504141,0.02439 -0.3443335,0.02471 -0.4853578,7.8e-4 z"
     id="path4" />
  <path
     style="opacity:0.3;fill:#ffffff;stroke:#cccccc;stroke-width:0.0135135"
     d="M 2.472973,7.0841434 C 2.3057432,6.87556 2.1671133,6.7005097 2.1649064,6.6951427 2.1567674,6.6753489 2.6986452,6.3634354 3.0540541,6.1833353 4.6417536,5.3787829 6.4034568,4.9766046 8.1891892,5.0110378 8.633353,5.0195978 8.8595077,5.0335508 9.2297297,5.0752138 10.5185,5.220247 11.760357,5.588859 12.925676,6.1722566 c 0.275911,0.1381304 0.912162,0.4986202 0.912162,0.5168165 0,0.0031 -0.138746,0.1783756 -0.308324,0.3894949 L 13.22119,7.4624216 12.999109,7.3350816 C 12.757294,7.1964272 12.306289,6.9655645 12.081081,6.8651581 11.159278,6.454182 10.127448,6.1709557 9.1549096,6.061955 8.6978808,6.0107319 8.5110812,6.0008483 8,6.0008483 c -0.2895851,0 -0.5936254,0.00726 -0.7094595,0.01695 C 6.3727674,6.0945424 5.6432489,6.2412214 4.8310811,6.5123038 4.1379857,6.7436427 3.5730092,7.003718 2.8243243,7.4360724 l -0.047297,0.027313 z"
     id="path5" />
  <path
     style="opacity:0.3;fill:#ffffff;stroke:#cccccc;stroke-width:0.0135135"
     d="M 0.53828491,4.6639288 C 0.39459307,4.4852839 0.25421076,4.3105808 0.22632421,4.2756995 L 0.1756214,4.2122789 0.38172962,4.0905809 C 1.0288537,3.7084824 1.7603419,3.3485596 2.4509405,3.0724424 3.5368627,2.6382657 4.6880732,2.3286846 5.8321659,2.1631704 7.2472643,1.9584503 8.7000553,1.9562713 10.121222,2.1567374 c 1.915874,0.2702484 3.815443,0.9382076 5.494636,1.9321183 l 0.207076,0.1225679 -0.311665,0.389548 -0.311665,0.3895481 -0.150477,-0.088094 C 12.539263,3.4330716 9.6324001,2.7890499 6.7094595,3.0547538 4.738578,3.2339126 2.7901839,3.8496339 1.0585552,4.840523 L 0.79954278,4.9887374 Z"
     id="path6" />
</svg>
